<svg width="988" height="601" viewBox="0 0 988 601" fill="none" xmlns="http://www.w3.org/2000/svg">
<path d="M961.486 8.11577H580.933V0H408.376V8.11577H26.2549C22.8745 8.11577 19.5272 8.80471 16.4041 10.1432C13.281 11.4818 10.4432 13.4437 8.05293 15.917C5.66261 18.3903 3.76655 21.3265 2.47292 24.558C1.17929 27.7895 0.513426 31.253 0.513428 34.7508V573.931C0.51342 580.995 3.22547 587.77 8.05293 592.765C12.8804 597.76 19.4278 600.566 26.2549 600.567H961.486C964.866 600.567 968.213 599.878 971.336 598.539C974.46 597.2 977.297 595.239 979.688 592.765C982.078 590.292 983.974 587.356 985.268 584.124C986.561 580.893 987.227 577.429 987.227 573.931V34.7508C987.227 31.253 986.561 27.7895 985.268 24.558C983.974 21.3265 982.078 18.3903 979.688 15.917C977.297 13.4437 974.46 11.4818 971.336 10.1432C968.213 8.80469 964.866 8.11576 961.486 8.11577Z" fill="#3F3D56"/>
<g clip-path="url(#clip0)">
<rect x="46.5" y="41.9104" width="904" height="494.358" rx="43.5" fill="white"/>
<g clip-path="url(#clip1)">
<path d="M952 129.034V233.717L950.292 231.081L827.742 42.18L826.589 40.4104H894.504L895.649 42.18L950.292 126.397L952 129.034Z" fill="#38A169"/>
<path d="M468.268 465.889C479.787 501.804 475.742 535.525 475.742 535.525C475.742 535.525 453.021 511.018 441.502 475.103C429.983 439.188 434.029 405.466 434.029 405.466C434.029 405.466 456.75 429.974 468.268 465.889Z" fill="#38A169"/>
<path d="M483.215 465.889C471.696 501.804 475.742 535.525 475.742 535.525C475.742 535.525 498.463 511.018 509.981 475.103C521.5 439.188 517.455 405.466 517.455 405.466C517.455 405.466 494.734 429.974 483.215 465.889Z" fill="#38A169"/>
<path d="M487.854 466.277C488.626 504.114 475.153 535.096 475.153 535.096C475.153 535.096 460.428 504.732 459.655 466.895C458.883 429.058 472.357 398.076 472.357 398.076C472.357 398.076 487.082 428.44 487.854 466.277Z" fill="#3F3D56"/>
<path d="M475.145 537.375C493.136 537.375 507.72 536.546 507.72 535.523C507.72 534.5 493.136 533.671 475.145 533.671C457.155 533.671 442.57 534.5 442.57 535.523C442.57 536.546 457.155 537.375 475.145 537.375Z" fill="#3F3D56"/>
<path d="M164.578 536.099C174.785 536.099 183.061 527.526 183.061 516.95C183.061 506.375 174.785 497.802 164.578 497.802C154.37 497.802 146.094 506.375 146.094 516.95C146.094 527.526 154.37 536.099 164.578 536.099Z" fill="#F2F2F2"/>
<path d="M167.968 485.971C161.342 485.981 154.99 488.713 150.305 493.568C145.62 498.423 142.985 505.005 142.978 511.87C142.978 512.012 142.978 512.153 142.987 512.295C143.068 517.075 144.423 521.738 146.9 525.771C149.378 529.804 152.882 533.05 157.028 535.15C158.495 535.899 160.031 536.492 161.614 536.92C165.783 538.052 170.163 538.052 174.331 536.92C175.914 536.492 177.45 535.899 178.917 535.15C184 532.585 188.093 528.311 190.528 523.025C192.964 517.74 193.598 511.755 192.327 506.048C191.057 500.341 187.956 495.249 183.532 491.602C179.108 487.956 173.622 485.971 167.968 485.971ZM174.083 535.15C172.091 535.717 170.034 536.003 167.968 535.999C167.558 535.999 167.148 535.99 166.747 535.964H166.738C165.089 535.879 163.453 535.606 161.862 535.15C158.497 534.195 155.381 532.471 152.743 530.106C150.105 527.74 148.011 524.793 146.617 521.479V521.47C144.728 516.958 144.216 511.955 145.149 507.133C146.082 502.311 148.416 497.899 151.837 494.489C155.259 491.08 159.605 488.836 164.292 488.057C168.98 487.279 173.785 488.004 178.064 490.135C182.342 492.266 185.89 495.701 188.231 499.98C190.572 504.258 191.595 509.176 191.162 514.074C190.728 518.972 188.861 523.616 185.808 527.383C182.756 531.15 178.665 533.86 174.083 535.15V535.15Z" fill="#3F3D56"/>
<path d="M395.167 385.491H256.808V410.944H395.167V385.491Z" fill="#F2F2F2"/>
<path d="M842.616 309.396H637.802C629.738 309.396 623.202 315.933 623.202 323.996C623.202 332.059 629.738 338.595 637.802 338.595H842.616C850.679 338.595 857.216 332.059 857.216 323.996C857.216 315.933 850.679 309.396 842.616 309.396Z" fill="#F2F2F2"/>
<path d="M238.864 377.784V413.177H423.342V377.784H238.864ZM421.634 411.407H240.572V379.554H421.634V411.407Z" fill="#3F3D56"/>
<path d="M546.328 187.548C551.045 187.548 554.868 183.586 554.868 178.699C554.868 173.813 551.045 169.851 546.328 169.851C541.611 169.851 537.787 173.813 537.787 178.699C537.787 183.586 541.611 187.548 546.328 187.548Z" fill="#3F3D56"/>
<path d="M546.328 242.406C551.045 242.406 554.868 238.445 554.868 233.558C554.868 228.671 551.045 224.71 546.328 224.71C541.611 224.71 537.787 228.671 537.787 233.558C537.787 238.445 541.611 242.406 546.328 242.406Z" fill="#3F3D56"/>
<path d="M546.328 297.265C551.045 297.265 554.868 293.304 554.868 288.417C554.868 283.53 551.045 279.569 546.328 279.569C541.611 279.569 537.787 283.53 537.787 288.417C537.787 293.304 541.611 297.265 546.328 297.265Z" fill="#3F3D56"/>
<path d="M546.328 352.124C551.045 352.124 554.868 348.163 554.868 343.276C554.868 338.389 551.045 334.428 546.328 334.428C541.611 334.428 537.787 338.389 537.787 343.276C537.787 348.163 541.611 352.124 546.328 352.124Z" fill="#3F3D56"/>
<path d="M546.328 406.983C551.045 406.983 554.868 403.022 554.868 398.135C554.868 393.248 551.045 389.287 546.328 389.287C541.611 389.287 537.787 393.248 537.787 398.135C537.787 403.022 541.611 406.983 546.328 406.983Z" fill="#3F3D56"/>
<path d="M546.328 461.842C551.045 461.842 554.868 457.881 554.868 452.994C554.868 448.107 551.045 444.146 546.328 444.146C541.611 444.146 537.787 448.107 537.787 452.994C537.787 457.881 541.611 461.842 546.328 461.842Z" fill="#3F3D56"/>
<path d="M856.014 183.401H622V185.171H856.014V183.401Z" fill="#3F3D56"/>
<path d="M851.014 238.318H617V240.087H851.014V238.318Z" fill="#3F3D56"/>
<path d="M852.014 293.234H618V295.004H852.014V293.234Z" fill="#3F3D56"/>
<path d="M853.014 348.151H619V349.921H853.014V348.151Z" fill="#3F3D56"/>
<path d="M855.014 403.068H621V404.837H855.014V403.068Z" fill="#3F3D56"/>
<path d="M855.014 460.057H621V461.826H855.014V460.057Z" fill="#3F3D56"/>
<path d="M899.364 503.363L876.914 484.282L895.332 461.023L917.783 480.105L899.364 503.363ZM879.318 484.036L899.127 500.873L915.379 480.35L895.569 463.513L879.318 484.036Z" fill="#3F3D56"/>
<path d="M574.1 87.3663L552.971 69.4077L535.636 91.2981L556.766 109.257L574.1 87.3663Z" fill="#38A169"/>
<path d="M444.694 233.558C444.732 258.516 437.072 282.834 422.83 302.964C421.207 305.264 419.507 307.512 417.722 309.679C412.681 315.835 407.043 321.439 400.897 326.402C400.282 326.898 399.659 327.393 399.027 327.88C396.721 329.667 394.35 331.363 391.913 332.968C391.17 333.455 390.427 333.932 389.675 334.392C387.975 335.463 386.245 336.484 384.482 337.454C383.62 337.932 382.749 338.401 381.877 338.852C363.976 348.105 344.034 352.3 324.067 351.012C304.1 349.724 284.814 342.999 268.159 331.517C267.271 330.915 266.399 330.296 265.537 329.659C263.914 328.473 262.317 327.234 260.762 325.96C259.328 324.792 257.927 323.58 256.552 322.341C249.313 315.819 242.899 308.375 237.464 300.185C236.405 298.584 235.38 296.956 234.389 295.301C225.176 279.812 219.556 262.321 217.968 244.201C216.381 226.082 218.87 207.828 225.24 190.874C231.61 173.919 241.688 158.725 254.682 146.486C267.675 134.247 283.231 125.296 300.127 120.335C317.023 115.375 334.799 114.54 352.059 117.898C369.319 121.255 385.592 128.712 399.601 139.683C413.61 150.655 424.973 164.842 432.797 181.13C440.621 197.419 444.693 215.364 444.694 233.558Z" fill="#F2F2F2"/>
<path d="M326.825 227.752C343.917 227.752 357.772 213.398 357.772 195.691C357.772 177.984 343.917 163.63 326.825 163.63C309.734 163.63 295.879 177.984 295.879 195.691C295.879 213.398 309.734 227.752 326.825 227.752Z" fill="#A0616A"/>
<path d="M305.55 211.054C305.55 211.054 315.865 235.099 301.681 244.45C287.498 253.801 324.891 292.541 324.891 292.541L366.153 247.122C366.153 247.122 344.233 232.427 348.101 208.382L305.55 211.054Z" fill="#A0616A"/>
<path d="M400.897 326.403C400.283 326.898 399.659 327.394 399.027 327.88C396.721 329.668 394.35 331.363 391.913 332.968C391.17 333.455 390.427 333.932 389.675 334.392L389.359 332.614L392.331 331.012L400.897 326.403Z" fill="#A0616A"/>
<path d="M389.675 334.393C390.427 333.933 391.17 333.455 391.913 332.968L391.938 332.614L392.331 331.013L408.704 264.492L359.074 240.832L330.053 259.147L304.055 242.539C304.055 242.539 288.784 243.114 284.915 247.123C281.883 250.264 267.014 257.493 260.694 260.483C258.935 261.315 257.842 261.82 257.842 261.82C257.842 261.82 258.815 292.134 260.762 325.96C262.317 327.234 263.914 328.473 265.537 329.659C266.399 330.296 267.27 330.915 268.159 331.517C284.814 342.999 304.1 349.724 324.067 351.012C344.034 352.3 363.976 348.105 381.877 338.852L389.675 334.393Z" fill="#38A169"/>
<path d="M268.159 260.483V331.517C267.27 330.915 266.399 330.296 265.537 329.659C263.914 328.473 262.317 327.234 260.762 325.96C259.328 324.792 257.927 323.58 256.552 322.341C249.313 315.82 242.899 308.375 237.464 300.185C236.405 298.584 235.38 296.956 234.389 295.301C235.226 292.452 236.165 289.305 237.207 285.86C243.656 264.492 257.842 260.483 257.842 260.483H268.159Z" fill="#38A169"/>
<path d="M389.675 334.393C390.427 333.932 391.17 333.455 391.913 332.968C394.347 331.366 396.718 329.671 399.027 327.88C399.659 327.394 400.283 326.898 400.897 326.403C407.043 321.439 412.681 315.835 417.723 309.679C419.508 307.512 421.207 305.264 422.83 302.964C417.577 285.957 408.704 264.492 408.704 264.492L390.649 263.156C390.649 263.156 383.321 323.925 381.877 338.852L389.675 334.393Z" fill="#38A169"/>
<path d="M307.851 158.582C306.303 159.948 304.688 161.228 303.011 162.419C300.896 164.237 298.943 166.247 297.175 168.425L295.18 170.739C293.482 172.709 291.68 174.957 291.752 177.597C291.778 178.576 292.069 179.527 292.183 180.5C292.634 184.358 290.357 188.6 292.231 191.967C292.773 192.941 293.611 193.702 294.209 194.64C294.969 195.843 295.305 197.28 295.162 198.709C297.176 198.795 298.828 196.925 299.459 194.942C300.091 192.959 300.006 190.817 300.313 188.753C300.621 186.689 301.485 184.504 303.295 183.585C307.157 181.625 311.592 186.722 315.714 185.452C318.592 184.565 320.11 180.868 323.053 180.249C325.159 179.805 327.186 181.101 329.144 182.02C331.102 182.939 333.741 183.365 335.125 181.661C336.041 180.534 336.139 178.726 337.355 177.96C338.812 177.042 340.636 178.32 341.739 179.668C342.842 181.015 344.06 182.663 345.765 182.614C348.027 182.549 349.759 179.429 351.905 180.169C354.328 181.004 353.214 185.021 354.684 187.184C355.927 189.013 358.529 188.905 360.668 188.603C361.029 188.641 361.393 188.583 361.727 188.436C362.06 188.288 362.352 188.055 362.575 187.759C362.798 187.463 362.944 187.113 363.001 186.742C363.058 186.371 363.023 185.991 362.9 185.638L362.006 173.363C362.002 172.518 361.824 171.682 361.482 170.914C360.86 169.746 359.572 169.155 358.696 168.178C356.855 166.123 356.943 162.522 354.653 161.028C353.464 160.252 351.908 160.275 350.727 159.486C349.213 158.474 348.725 156.446 347.665 154.937C346.148 152.779 343.497 151.778 340.934 151.504C338.372 151.229 335.785 151.56 333.21 151.473C327.974 151.297 322.739 149.77 317.478 150.664C312.888 151.443 310.96 155.478 307.851 158.582Z" fill="#2F2E41"/>
<path d="M917.869 152.514C919.843 152.514 921.444 150.856 921.444 148.81C921.444 146.764 919.843 145.106 917.869 145.106C915.894 145.106 914.293 146.764 914.293 148.81C914.293 150.856 915.894 152.514 917.869 152.514Z" fill="#3F3D56"/>
<path d="M893.101 107.388C895.075 107.388 896.676 105.73 896.676 103.684C896.676 101.638 895.075 99.98 893.101 99.98C891.126 99.98 889.526 101.638 889.526 103.684C889.526 105.73 891.126 107.388 893.101 107.388Z" fill="#3F3D56"/>
<path d="M882.852 58.7228C884.827 58.7228 886.427 57.0645 886.427 55.0188C886.427 52.9731 884.827 51.3147 882.852 51.3147C880.877 51.3147 879.277 52.9731 879.277 55.0188C879.277 57.0645 880.877 58.7228 882.852 58.7228Z" fill="#3F3D56"/>
<path d="M843 149H639C630.716 149 624 155.716 624 164C624 172.284 630.716 179 639 179H843C851.284 179 858 172.284 858 164C858 155.716 851.284 149 843 149Z" fill="#F2F2F2"/>
<path d="M663.081 169.672H665.526L667.252 160.758L664.502 161.352L664.776 159.914L667.526 159.336H669.112L667.096 169.672H669.51L669.252 171H662.823L663.081 169.672ZM677.393 159.125C678.638 159.083 679.484 159.565 679.932 160.57C680.385 161.576 680.432 163.078 680.073 165.078C679.713 167.083 679.122 168.607 678.299 169.648C677.476 170.69 676.443 171.229 675.198 171.266C673.953 171.302 673.107 170.82 672.659 169.82C672.211 168.815 672.164 167.312 672.518 165.312C672.883 163.307 673.474 161.784 674.292 160.742C675.114 159.701 676.148 159.161 677.393 159.125ZM675.424 170C676.164 169.979 676.786 169.568 677.292 168.766C677.797 167.964 678.195 166.75 678.487 165.125C678.648 164.26 678.739 163.482 678.76 162.789L673.979 168.766C674.213 169.615 674.695 170.026 675.424 170ZM677.167 160.391C676.432 160.411 675.812 160.823 675.307 161.625C674.802 162.427 674.401 163.641 674.104 165.266C673.969 166 673.893 166.69 673.877 167.336L678.573 161.375C678.307 160.693 677.838 160.365 677.167 160.391ZM687.034 159.125C688.278 159.083 689.125 159.565 689.573 160.57C690.026 161.576 690.073 163.078 689.713 165.078C689.354 167.083 688.763 168.607 687.94 169.648C687.117 170.69 686.083 171.229 684.838 171.266C683.594 171.302 682.747 170.82 682.299 169.82C681.851 168.815 681.805 167.312 682.159 165.312C682.523 163.307 683.114 161.784 683.932 160.742C684.755 159.701 685.789 159.161 687.034 159.125ZM685.065 170C685.805 169.979 686.427 169.568 686.932 168.766C687.437 167.964 687.836 166.75 688.127 165.125C688.289 164.26 688.38 163.482 688.401 162.789L683.62 168.766C683.854 169.615 684.336 170.026 685.065 170ZM686.807 160.391C686.073 160.411 685.453 160.823 684.948 161.625C684.443 162.427 684.042 163.641 683.745 165.266C683.609 166 683.534 166.69 683.518 167.336L688.213 161.375C687.948 160.693 687.479 160.365 686.807 160.391ZM696.221 168.508C696.221 168.914 696.357 169.255 696.627 169.531C696.903 169.807 697.245 169.945 697.651 169.945C698.052 169.945 698.39 169.807 698.667 169.531C698.948 169.25 699.088 168.909 699.088 168.508C699.088 168.107 698.948 167.766 698.667 167.484C698.385 167.203 698.047 167.062 697.651 167.062C697.245 167.062 696.903 167.201 696.627 167.477C696.357 167.753 696.221 168.096 696.221 168.508ZM695.167 168.508C695.167 167.805 695.406 167.214 695.885 166.734C696.364 166.25 696.953 166.008 697.651 166.008C697.984 166.008 698.299 166.07 698.596 166.195C698.898 166.32 699.169 166.503 699.409 166.742C699.648 166.987 699.833 167.26 699.963 167.562C700.094 167.865 700.159 168.18 700.159 168.508C700.159 169.201 699.917 169.789 699.432 170.273C698.948 170.758 698.354 171 697.651 171C696.943 171 696.351 170.763 695.877 170.289C695.403 169.81 695.167 169.216 695.167 168.508ZM691.432 167.562L691.088 166.68L699.799 163.195L700.19 164.078L691.432 167.562ZM692.096 162.312C692.096 162.724 692.232 163.068 692.502 163.344C692.778 163.615 693.122 163.75 693.534 163.75C693.935 163.75 694.276 163.612 694.557 163.336C694.838 163.055 694.979 162.714 694.979 162.312C694.979 161.911 694.838 161.573 694.557 161.297C694.276 161.016 693.935 160.875 693.534 160.875C693.133 160.875 692.792 161.013 692.51 161.289C692.234 161.565 692.096 161.906 692.096 162.312ZM691.042 162.312C691.042 161.609 691.281 161.018 691.76 160.539C692.239 160.055 692.831 159.812 693.534 159.812C693.867 159.812 694.185 159.875 694.487 160C694.794 160.125 695.065 160.305 695.299 160.539C695.534 160.773 695.713 161.044 695.838 161.352C695.969 161.654 696.034 161.974 696.034 162.312C696.034 163.01 695.792 163.602 695.307 164.086C694.823 164.565 694.232 164.805 693.534 164.805C692.831 164.805 692.239 164.565 691.76 164.086C691.281 163.607 691.042 163.016 691.042 162.312ZM719.792 158.844L719.549 160.039H717.924C717.43 160.039 717.057 160.148 716.807 160.367C716.557 160.581 716.38 160.951 716.276 161.477L716.112 162.25H719.12L718.917 163.367H715.909L714.417 171H712.979L714.463 163.367H712.127L712.354 162.25H714.674L714.799 161.641C714.997 160.635 715.346 159.919 715.846 159.492C716.351 159.06 717.091 158.844 718.065 158.844H719.792ZM728.956 164.055C728.721 163.826 728.448 163.654 728.135 163.539C727.828 163.424 727.476 163.367 727.081 163.367C726.226 163.367 725.495 163.667 724.885 164.266C724.276 164.859 723.872 165.674 723.674 166.711L722.838 171H721.401L723.096 162.25H724.534L724.221 163.961C724.57 163.336 725.021 162.859 725.573 162.531C726.13 162.203 726.76 162.039 727.463 162.039C727.833 162.039 728.167 162.089 728.463 162.188C728.765 162.281 729.021 162.419 729.229 162.602L728.956 164.055ZM736.674 165.852C736.706 165.711 736.726 165.596 736.737 165.508C736.747 165.414 736.752 165.326 736.752 165.242C736.752 164.617 736.583 164.13 736.245 163.781C735.906 163.432 735.435 163.258 734.831 163.258C734.19 163.258 733.604 163.492 733.073 163.961C732.547 164.43 732.169 165.06 731.94 165.852H736.674ZM736.854 170.555C736.307 170.779 735.773 170.945 735.252 171.055C734.732 171.169 734.203 171.227 733.667 171.227C732.505 171.227 731.622 170.938 731.018 170.359C730.414 169.776 730.112 168.927 730.112 167.812C730.112 167 730.268 166.203 730.581 165.422C730.893 164.641 731.325 163.966 731.877 163.398C732.31 162.951 732.786 162.609 733.307 162.375C733.833 162.141 734.38 162.023 734.948 162.023C735.917 162.023 736.69 162.323 737.268 162.922C737.851 163.516 738.143 164.31 738.143 165.305C738.143 165.482 738.13 165.703 738.104 165.969C738.078 166.229 738.034 166.562 737.971 166.969H731.667C731.635 167.135 731.612 167.286 731.596 167.422C731.581 167.557 731.573 167.677 731.573 167.781C731.573 168.505 731.773 169.057 732.174 169.438C732.575 169.818 733.159 170.008 733.924 170.008C734.383 170.008 734.883 169.935 735.424 169.789C735.971 169.638 736.542 169.417 737.135 169.125L736.854 170.555ZM746.315 165.852C746.346 165.711 746.367 165.596 746.377 165.508C746.388 165.414 746.393 165.326 746.393 165.242C746.393 164.617 746.224 164.13 745.885 163.781C745.547 163.432 745.075 163.258 744.471 163.258C743.831 163.258 743.245 163.492 742.713 163.961C742.187 164.43 741.81 165.06 741.581 165.852H746.315ZM746.495 170.555C745.948 170.779 745.414 170.945 744.893 171.055C744.372 171.169 743.844 171.227 743.307 171.227C742.146 171.227 741.263 170.938 740.659 170.359C740.055 169.776 739.752 168.927 739.752 167.812C739.752 167 739.909 166.203 740.221 165.422C740.534 164.641 740.966 163.966 741.518 163.398C741.95 162.951 742.427 162.609 742.948 162.375C743.474 162.141 744.021 162.023 744.588 162.023C745.557 162.023 746.331 162.323 746.909 162.922C747.492 163.516 747.784 164.31 747.784 165.305C747.784 165.482 747.771 165.703 747.745 165.969C747.719 166.229 747.674 166.562 747.612 166.969H741.307C741.276 167.135 741.252 167.286 741.237 167.422C741.221 167.557 741.213 167.677 741.213 167.781C741.213 168.505 741.414 169.057 741.815 169.438C742.216 169.818 742.799 170.008 743.565 170.008C744.023 170.008 744.523 169.935 745.065 169.789C745.612 169.638 746.182 169.417 746.776 169.125L746.495 170.555ZM762.956 167.812C762.919 167.995 762.89 168.156 762.87 168.297C762.854 168.438 762.846 168.555 762.846 168.648C762.846 169.029 762.961 169.312 763.19 169.5C763.424 169.688 763.778 169.781 764.252 169.781H765.901L765.659 171H764.042C763.14 171 762.469 170.836 762.026 170.508C761.588 170.174 761.37 169.667 761.37 168.984C761.37 168.839 761.383 168.661 761.409 168.453C761.435 168.245 761.471 168.021 761.518 167.781L763.167 159.883H760.698L760.924 158.758H764.831L762.956 167.812ZM775.237 165.852C775.268 165.711 775.289 165.596 775.299 165.508C775.31 165.414 775.315 165.326 775.315 165.242C775.315 164.617 775.146 164.13 774.807 163.781C774.469 163.432 773.997 163.258 773.393 163.258C772.752 163.258 772.167 163.492 771.635 163.961C771.109 164.43 770.732 165.06 770.502 165.852H775.237ZM775.417 170.555C774.87 170.779 774.336 170.945 773.815 171.055C773.294 171.169 772.765 171.227 772.229 171.227C771.068 171.227 770.185 170.938 769.581 170.359C768.976 169.776 768.674 168.927 768.674 167.812C768.674 167 768.831 166.203 769.143 165.422C769.456 164.641 769.888 163.966 770.44 163.398C770.872 162.951 771.349 162.609 771.87 162.375C772.396 162.141 772.943 162.023 773.51 162.023C774.479 162.023 775.252 162.323 775.831 162.922C776.414 163.516 776.706 164.31 776.706 165.305C776.706 165.482 776.693 165.703 776.667 165.969C776.64 166.229 776.596 166.562 776.534 166.969H770.229C770.198 167.135 770.174 167.286 770.159 167.422C770.143 167.557 770.135 167.677 770.135 167.781C770.135 168.505 770.336 169.057 770.737 169.438C771.138 169.818 771.721 170.008 772.487 170.008C772.945 170.008 773.445 169.935 773.987 169.789C774.534 169.638 775.104 169.417 775.698 169.125L775.417 170.555ZM785.963 162.555L785.69 163.961C785.32 163.727 784.93 163.549 784.518 163.43C784.112 163.305 783.708 163.242 783.307 163.242C782.594 163.242 782.039 163.375 781.643 163.641C781.252 163.906 781.057 164.279 781.057 164.758C781.057 165.268 781.633 165.669 782.784 165.961C782.862 165.982 782.919 165.997 782.956 166.008L783.518 166.148C784.127 166.31 784.583 166.552 784.885 166.875C785.187 167.193 785.338 167.591 785.338 168.07C785.338 169.013 784.963 169.776 784.213 170.359C783.463 170.938 782.469 171.227 781.229 171.227C780.807 171.227 780.367 171.18 779.909 171.086C779.45 170.997 778.963 170.862 778.448 170.68L778.737 169.195C779.226 169.471 779.7 169.68 780.159 169.82C780.622 169.956 781.07 170.023 781.502 170.023C782.195 170.023 782.76 169.87 783.198 169.562C783.635 169.25 783.854 168.854 783.854 168.375C783.854 167.859 783.344 167.466 782.323 167.195C782.229 167.174 782.156 167.156 782.104 167.141L781.581 167C780.909 166.828 780.414 166.576 780.096 166.242C779.784 165.909 779.627 165.474 779.627 164.938C779.627 164.052 779.971 163.349 780.659 162.828C781.346 162.302 782.273 162.039 783.44 162.039C783.898 162.039 784.338 162.083 784.76 162.172C785.182 162.255 785.583 162.383 785.963 162.555ZM795.604 162.555L795.331 163.961C794.961 163.727 794.57 163.549 794.159 163.43C793.752 163.305 793.349 163.242 792.948 163.242C792.234 163.242 791.68 163.375 791.284 163.641C790.893 163.906 790.698 164.279 790.698 164.758C790.698 165.268 791.273 165.669 792.424 165.961C792.502 165.982 792.56 165.997 792.596 166.008L793.159 166.148C793.768 166.31 794.224 166.552 794.526 166.875C794.828 167.193 794.979 167.591 794.979 168.07C794.979 169.013 794.604 169.776 793.854 170.359C793.104 170.938 792.109 171.227 790.87 171.227C790.448 171.227 790.008 171.18 789.549 171.086C789.091 170.997 788.604 170.862 788.088 170.68L788.377 169.195C788.867 169.471 789.341 169.68 789.799 169.82C790.263 169.956 790.711 170.023 791.143 170.023C791.836 170.023 792.401 169.87 792.838 169.562C793.276 169.25 793.495 168.854 793.495 168.375C793.495 167.859 792.984 167.466 791.963 167.195C791.87 167.174 791.797 167.156 791.745 167.141L791.221 167C790.549 166.828 790.055 166.576 789.737 166.242C789.424 165.909 789.268 165.474 789.268 164.938C789.268 164.052 789.612 163.349 790.299 162.828C790.987 162.302 791.914 162.039 793.081 162.039C793.539 162.039 793.979 162.083 794.401 162.172C794.823 162.255 795.224 162.383 795.604 162.555ZM802.268 163.258C801.414 163.258 800.7 163.703 800.127 164.594C799.56 165.484 799.276 166.617 799.276 167.992C799.276 168.664 799.422 169.169 799.713 169.508C800.005 169.841 800.443 170.008 801.026 170.008C801.88 170.008 802.591 169.562 803.159 168.672C803.732 167.781 804.018 166.648 804.018 165.273C804.018 164.602 803.872 164.099 803.581 163.766C803.289 163.427 802.851 163.258 802.268 163.258ZM802.401 162.039C803.422 162.039 804.198 162.318 804.729 162.875C805.265 163.432 805.534 164.247 805.534 165.32C805.534 166.039 805.427 166.755 805.213 167.469C805 168.177 804.7 168.815 804.315 169.383C803.903 169.997 803.403 170.458 802.815 170.766C802.226 171.073 801.549 171.227 800.784 171.227C799.81 171.227 799.06 170.943 798.534 170.375C798.008 169.802 797.745 168.987 797.745 167.93C797.745 167.227 797.851 166.523 798.065 165.82C798.278 165.117 798.581 164.471 798.971 163.883C799.383 163.279 799.877 162.82 800.456 162.508C801.039 162.195 801.687 162.039 802.401 162.039ZM814.87 165.578L813.815 171H812.377L813.432 165.57C813.437 165.549 813.445 165.513 813.456 165.461C813.534 165.091 813.573 164.805 813.573 164.602C813.573 164.18 813.45 163.857 813.206 163.633C812.966 163.404 812.62 163.289 812.167 163.289C811.505 163.289 810.943 163.531 810.479 164.016C810.015 164.5 809.698 165.18 809.526 166.055L808.565 171H807.127L808.838 162.25H810.276L810.026 163.562C810.417 163.057 810.838 162.677 811.292 162.422C811.75 162.167 812.234 162.039 812.745 162.039C813.469 162.039 814.031 162.229 814.432 162.609C814.833 162.984 815.034 163.51 815.034 164.188C815.034 164.354 815.018 164.56 814.987 164.805C814.961 165.049 814.922 165.307 814.87 165.578ZM824.526 162.555L824.252 163.961C823.883 163.727 823.492 163.549 823.081 163.43C822.674 163.305 822.271 163.242 821.87 163.242C821.156 163.242 820.601 163.375 820.206 163.641C819.815 163.906 819.62 164.279 819.62 164.758C819.62 165.268 820.195 165.669 821.346 165.961C821.424 165.982 821.482 165.997 821.518 166.008L822.081 166.148C822.69 166.31 823.146 166.552 823.448 166.875C823.75 167.193 823.901 167.591 823.901 168.07C823.901 169.013 823.526 169.776 822.776 170.359C822.026 170.938 821.031 171.227 819.792 171.227C819.37 171.227 818.93 171.18 818.471 171.086C818.013 170.997 817.526 170.862 817.01 170.68L817.299 169.195C817.789 169.471 818.263 169.68 818.721 169.82C819.185 169.956 819.633 170.023 820.065 170.023C820.758 170.023 821.323 169.87 821.76 169.562C822.198 169.25 822.417 168.854 822.417 168.375C822.417 167.859 821.906 167.466 820.885 167.195C820.792 167.174 820.719 167.156 820.667 167.141L820.143 167C819.471 166.828 818.976 166.576 818.659 166.242C818.346 165.909 818.19 165.474 818.19 164.938C818.19 164.052 818.534 163.349 819.221 162.828C819.909 162.302 820.836 162.039 822.002 162.039C822.461 162.039 822.901 162.083 823.323 162.172C823.745 162.255 824.146 162.383 824.526 162.555Z" fill="black"/>
<path d="M846.094 204H641.521C633.395 204 626.807 210.587 626.807 218.713C626.807 226.84 633.395 233.427 641.521 233.427H846.094C854.22 233.427 860.807 226.84 860.807 218.713C860.807 210.587 854.22 204 846.094 204Z" fill="#F2F2F2"/>
<path d="M642.67 223.548H645.115L646.842 214.634L644.092 215.227L644.365 213.79L647.115 213.212H648.701L646.686 223.548H649.1L648.842 224.876H642.412L642.67 223.548ZM659.506 216.43L659.233 217.837C658.863 217.602 658.472 217.425 658.061 217.305C657.654 217.18 657.251 217.118 656.85 217.118C656.136 217.118 655.581 217.251 655.186 217.516C654.795 217.782 654.6 218.154 654.6 218.634C654.6 219.144 655.175 219.545 656.326 219.837C656.404 219.858 656.462 219.873 656.498 219.884L657.061 220.024C657.67 220.186 658.126 220.428 658.428 220.751C658.73 221.068 658.881 221.467 658.881 221.946C658.881 222.889 658.506 223.652 657.756 224.235C657.006 224.813 656.011 225.102 654.772 225.102C654.35 225.102 653.91 225.055 653.451 224.962C652.993 224.873 652.506 224.738 651.99 224.555L652.279 223.071C652.769 223.347 653.243 223.555 653.701 223.696C654.165 223.831 654.613 223.899 655.045 223.899C655.738 223.899 656.303 223.746 656.74 223.438C657.178 223.126 657.397 222.73 657.397 222.251C657.397 221.735 656.886 221.342 655.865 221.071C655.772 221.05 655.699 221.032 655.647 221.016L655.123 220.876C654.451 220.704 653.956 220.451 653.639 220.118C653.326 219.785 653.17 219.35 653.17 218.813C653.17 217.928 653.514 217.225 654.201 216.704C654.889 216.178 655.816 215.915 656.983 215.915C657.441 215.915 657.881 215.959 658.303 216.048C658.725 216.131 659.126 216.259 659.506 216.43ZM666.733 213.641L666.256 216.126H669.514L669.295 217.243H666.029L665.1 221.993C665.068 222.149 665.045 222.295 665.029 222.43C665.014 222.561 665.006 222.683 665.006 222.798C665.006 223.141 665.108 223.384 665.311 223.524C665.514 223.66 665.881 223.727 666.412 223.727H668.029L667.803 224.876H666.061C665.191 224.876 664.55 224.733 664.139 224.446C663.733 224.154 663.529 223.701 663.529 223.087C663.529 222.956 663.54 222.803 663.561 222.626C663.581 222.449 663.615 222.238 663.662 221.993L664.592 217.243H662.256L662.475 216.126H664.811L665.295 213.641H666.733ZM686.014 213.641L685.537 216.126H688.795L688.576 217.243H685.311L684.381 221.993C684.35 222.149 684.326 222.295 684.311 222.43C684.295 222.561 684.287 222.683 684.287 222.798C684.287 223.141 684.389 223.384 684.592 223.524C684.795 223.66 685.162 223.727 685.693 223.727H687.311L687.084 224.876H685.342C684.472 224.876 683.831 224.733 683.42 224.446C683.014 224.154 682.811 223.701 682.811 223.087C682.811 222.956 682.821 222.803 682.842 222.626C682.863 222.449 682.897 222.238 682.943 221.993L683.873 217.243H681.537L681.756 216.126H684.092L684.576 213.641H686.014ZM698.053 219.454L696.998 224.876H695.561L696.615 219.446C696.621 219.425 696.628 219.389 696.639 219.337C696.717 218.967 696.756 218.68 696.756 218.477C696.756 218.055 696.634 217.733 696.389 217.509C696.149 217.279 695.803 217.165 695.35 217.165C694.688 217.165 694.126 217.407 693.662 217.891C693.199 218.376 692.881 219.055 692.709 219.93L691.748 224.876H690.311L692.678 212.719H694.115L693.209 217.438C693.6 216.933 694.022 216.553 694.475 216.298C694.933 216.042 695.417 215.915 695.928 215.915C696.652 215.915 697.214 216.105 697.615 216.485C698.016 216.86 698.217 217.386 698.217 218.063C698.217 218.23 698.201 218.436 698.17 218.68C698.144 218.925 698.105 219.183 698.053 219.454ZM708.545 217.93C708.311 217.701 708.037 217.529 707.725 217.415C707.417 217.3 707.066 217.243 706.67 217.243C705.816 217.243 705.084 217.542 704.475 218.141C703.865 218.735 703.462 219.55 703.264 220.587L702.428 224.876H700.99L702.686 216.126H704.123L703.811 217.837C704.16 217.212 704.61 216.735 705.162 216.407C705.72 216.079 706.35 215.915 707.053 215.915C707.423 215.915 707.756 215.964 708.053 216.063C708.355 216.157 708.61 216.295 708.818 216.477L708.545 217.93ZM714.373 217.134C713.519 217.134 712.805 217.579 712.233 218.469C711.665 219.36 711.381 220.493 711.381 221.868C711.381 222.54 711.527 223.045 711.818 223.384C712.11 223.717 712.548 223.884 713.131 223.884C713.985 223.884 714.696 223.438 715.264 222.548C715.837 221.657 716.123 220.524 716.123 219.149C716.123 218.477 715.977 217.975 715.686 217.641C715.394 217.303 714.956 217.134 714.373 217.134ZM714.506 215.915C715.527 215.915 716.303 216.193 716.834 216.751C717.371 217.308 717.639 218.123 717.639 219.196C717.639 219.915 717.532 220.631 717.318 221.344C717.105 222.053 716.805 222.691 716.42 223.259C716.009 223.873 715.509 224.334 714.92 224.641C714.331 224.949 713.654 225.102 712.889 225.102C711.915 225.102 711.165 224.818 710.639 224.251C710.113 223.678 709.85 222.863 709.85 221.805C709.85 221.102 709.956 220.399 710.17 219.696C710.384 218.993 710.686 218.347 711.076 217.759C711.488 217.154 711.983 216.696 712.561 216.384C713.144 216.071 713.792 215.915 714.506 215.915ZM719.693 221.548L720.733 216.126H722.178L721.123 221.548C721.087 221.74 721.058 221.925 721.037 222.102C721.016 222.279 721.006 222.43 721.006 222.555C721.006 222.967 721.126 223.285 721.365 223.509C721.61 223.727 721.954 223.837 722.397 223.837C723.058 223.837 723.618 223.597 724.076 223.118C724.535 222.634 724.85 221.951 725.022 221.071L725.983 216.126H727.428L725.725 224.876H724.287L724.545 223.563C724.165 224.074 723.743 224.456 723.279 224.712C722.816 224.962 722.311 225.087 721.764 225.087C721.081 225.087 720.542 224.897 720.147 224.516C719.751 224.131 719.553 223.61 719.553 222.954C719.553 222.751 719.563 222.529 719.584 222.29C719.61 222.045 719.647 221.798 719.693 221.548ZM732.217 223.743C732.628 223.743 733.006 223.626 733.35 223.391C733.699 223.157 733.993 222.821 734.233 222.384C734.488 221.915 734.686 221.389 734.826 220.805C734.972 220.222 735.045 219.654 735.045 219.102C735.045 218.483 734.899 218.001 734.608 217.657C734.316 217.308 733.91 217.134 733.389 217.134C732.587 217.134 731.91 217.574 731.358 218.454C730.811 219.329 730.537 220.43 730.537 221.759C730.537 222.378 730.686 222.865 730.983 223.219C731.279 223.568 731.691 223.743 732.217 223.743ZM735.576 224.313C735.3 225.725 734.813 226.743 734.115 227.368C733.423 227.998 732.433 228.313 731.147 228.313C730.72 228.313 730.298 228.277 729.881 228.204C729.47 228.131 729.068 228.024 728.678 227.884L728.967 226.462C729.347 226.691 729.74 226.865 730.147 226.985C730.558 227.105 730.972 227.165 731.389 227.165C732.165 227.165 732.766 226.956 733.193 226.54C733.621 226.123 733.93 225.43 734.123 224.462L734.311 223.548C734.009 224.001 733.631 224.347 733.178 224.587C732.725 224.821 732.212 224.938 731.639 224.938C730.837 224.938 730.199 224.66 729.725 224.102C729.251 223.54 729.014 222.779 729.014 221.821C729.014 221.097 729.118 220.378 729.326 219.665C729.535 218.946 729.826 218.311 730.201 217.759C730.587 217.175 731.05 216.722 731.592 216.399C732.134 216.076 732.693 215.915 733.272 215.915C733.798 215.915 734.259 216.042 734.654 216.298C735.05 216.548 735.337 216.894 735.514 217.337L735.725 216.157H737.162L735.576 224.313ZM746.256 219.454L745.201 224.876H743.764L744.818 219.446C744.824 219.425 744.831 219.389 744.842 219.337C744.92 218.967 744.959 218.68 744.959 218.477C744.959 218.055 744.837 217.733 744.592 217.509C744.352 217.279 744.006 217.165 743.553 217.165C742.891 217.165 742.329 217.407 741.865 217.891C741.402 218.376 741.084 219.055 740.912 219.93L739.951 224.876H738.514L740.881 212.719H742.318L741.412 217.438C741.803 216.933 742.225 216.553 742.678 216.298C743.136 216.042 743.621 215.915 744.131 215.915C744.855 215.915 745.417 216.105 745.818 216.485C746.22 216.86 746.42 217.386 746.42 218.063C746.42 218.23 746.404 218.436 746.373 218.68C746.347 218.925 746.308 219.183 746.256 219.454ZM758.358 223.548H760.803L762.529 214.634L759.779 215.227L760.053 213.79L762.803 213.212H764.389L762.373 223.548H764.787L764.529 224.876H758.1L758.358 223.548ZM768.873 223.548H774.217L773.967 224.876H766.826L767.084 223.548L769.514 221.407L769.818 221.134C772.615 218.68 774.014 216.925 774.014 215.868C774.014 215.384 773.847 215.003 773.514 214.727C773.18 214.451 772.717 214.313 772.123 214.313C771.644 214.313 771.128 214.402 770.576 214.579C770.024 214.751 769.42 215.014 768.764 215.368L769.084 213.774C769.667 213.519 770.23 213.326 770.772 213.196C771.318 213.066 771.844 213.001 772.35 213.001C773.313 213.001 774.092 213.253 774.686 213.759C775.279 214.264 775.576 214.92 775.576 215.727C775.576 216.227 775.483 216.704 775.295 217.157C775.113 217.605 774.808 218.097 774.381 218.634C774.209 218.852 773.899 219.167 773.451 219.579C773.003 219.99 772.311 220.6 771.373 221.407L768.873 223.548ZM782.42 213.641L781.943 216.126H785.201L784.983 217.243H781.717L780.787 221.993C780.756 222.149 780.733 222.295 780.717 222.43C780.701 222.561 780.693 222.683 780.693 222.798C780.693 223.141 780.795 223.384 780.998 223.524C781.201 223.66 781.568 223.727 782.1 223.727H783.717L783.49 224.876H781.748C780.878 224.876 780.238 224.733 779.826 224.446C779.42 224.154 779.217 223.701 779.217 223.087C779.217 222.956 779.227 222.803 779.248 222.626C779.269 222.449 779.303 222.238 779.35 221.993L780.279 217.243H777.943L778.162 216.126H780.498L780.983 213.641H782.42ZM794.459 219.454L793.404 224.876H791.967L793.022 219.446C793.027 219.425 793.035 219.389 793.045 219.337C793.123 218.967 793.162 218.68 793.162 218.477C793.162 218.055 793.04 217.733 792.795 217.509C792.555 217.279 792.209 217.165 791.756 217.165C791.094 217.165 790.532 217.407 790.068 217.891C789.605 218.376 789.287 219.055 789.115 219.93L788.154 224.876H786.717L789.084 212.719H790.522L789.615 217.438C790.006 216.933 790.428 216.553 790.881 216.298C791.339 216.042 791.824 215.915 792.334 215.915C793.058 215.915 793.621 216.105 794.022 216.485C794.423 216.86 794.623 217.386 794.623 218.063C794.623 218.23 794.608 218.436 794.576 218.68C794.55 218.925 794.511 219.183 794.459 219.454ZM809.342 223.743C809.753 223.743 810.131 223.626 810.475 223.391C810.824 223.157 811.118 222.821 811.358 222.384C811.613 221.915 811.811 221.389 811.951 220.805C812.097 220.222 812.17 219.654 812.17 219.102C812.17 218.483 812.024 218.001 811.733 217.657C811.441 217.308 811.035 217.134 810.514 217.134C809.712 217.134 809.035 217.574 808.483 218.454C807.936 219.329 807.662 220.43 807.662 221.759C807.662 222.378 807.811 222.865 808.108 223.219C808.404 223.568 808.816 223.743 809.342 223.743ZM812.701 224.313C812.425 225.725 811.938 226.743 811.24 227.368C810.548 227.998 809.558 228.313 808.272 228.313C807.844 228.313 807.423 228.277 807.006 228.204C806.594 228.131 806.193 228.024 805.803 227.884L806.092 226.462C806.472 226.691 806.865 226.865 807.272 226.985C807.683 227.105 808.097 227.165 808.514 227.165C809.29 227.165 809.891 226.956 810.318 226.54C810.746 226.123 811.055 225.43 811.248 224.462L811.436 223.548C811.134 224.001 810.756 224.347 810.303 224.587C809.85 224.821 809.337 224.938 808.764 224.938C807.962 224.938 807.324 224.66 806.85 224.102C806.376 223.54 806.139 222.779 806.139 221.821C806.139 221.097 806.243 220.378 806.451 219.665C806.66 218.946 806.951 218.311 807.326 217.759C807.712 217.175 808.175 216.722 808.717 216.399C809.259 216.076 809.818 215.915 810.397 215.915C810.923 215.915 811.384 216.042 811.779 216.298C812.175 216.548 812.462 216.894 812.639 217.337L812.85 216.157H814.287L812.701 224.313ZM824.233 217.93C823.998 217.701 823.725 217.529 823.412 217.415C823.105 217.3 822.753 217.243 822.358 217.243C821.503 217.243 820.772 217.542 820.162 218.141C819.553 218.735 819.149 219.55 818.951 220.587L818.115 224.876H816.678L818.373 216.126H819.811L819.498 217.837C819.847 217.212 820.298 216.735 820.85 216.407C821.407 216.079 822.037 215.915 822.74 215.915C823.11 215.915 823.443 215.964 823.74 216.063C824.042 216.157 824.298 216.295 824.506 216.477L824.233 217.93ZM830.029 220.477C829.41 220.477 828.949 220.498 828.647 220.54C828.344 220.576 828.081 220.641 827.858 220.735C827.503 220.876 827.219 221.108 827.006 221.43C826.792 221.748 826.686 222.097 826.686 222.477C826.686 222.91 826.818 223.256 827.084 223.516C827.355 223.772 827.719 223.899 828.178 223.899C828.949 223.899 829.613 223.623 830.17 223.071C830.733 222.519 831.113 221.761 831.311 220.798L831.373 220.477H830.029ZM832.928 219.884L831.951 224.876H830.514L830.764 223.579C830.389 224.068 829.946 224.446 829.436 224.712C828.925 224.972 828.384 225.102 827.811 225.102C827.014 225.102 826.376 224.886 825.897 224.454C825.423 224.016 825.186 223.438 825.186 222.719C825.186 221.699 825.587 220.884 826.389 220.274C827.196 219.66 828.287 219.352 829.662 219.352H831.584L831.678 218.876C831.688 218.829 831.696 218.779 831.701 218.727C831.706 218.675 831.709 218.602 831.709 218.509C831.709 218.066 831.545 217.727 831.217 217.493C830.889 217.253 830.42 217.134 829.811 217.134C829.363 217.134 828.878 217.201 828.358 217.337C827.842 217.467 827.295 217.665 826.717 217.93L826.99 216.524C827.553 216.321 828.087 216.17 828.592 216.071C829.097 215.967 829.581 215.915 830.045 215.915C831.014 215.915 831.766 216.128 832.303 216.555C832.844 216.983 833.115 217.574 833.115 218.329C833.115 218.496 833.1 218.714 833.068 218.985C833.037 219.256 832.99 219.555 832.928 219.884ZM839.623 217.134C839.165 217.134 838.761 217.248 838.412 217.477C838.063 217.701 837.769 218.04 837.529 218.493C837.274 218.962 837.076 219.496 836.936 220.094C836.795 220.688 836.725 221.285 836.725 221.884C836.725 222.55 836.858 223.05 837.123 223.384C837.389 223.717 837.785 223.884 838.311 223.884C838.753 223.884 839.152 223.766 839.506 223.532C839.865 223.298 840.17 222.951 840.42 222.493C840.675 222.04 840.876 221.514 841.022 220.915C841.167 220.311 841.24 219.712 841.24 219.118C841.24 218.493 841.097 218.006 840.811 217.657C840.529 217.308 840.134 217.134 839.623 217.134ZM841.717 217.243L842.615 212.719H844.053L841.686 224.876H840.248L840.459 223.774C840.121 224.212 839.735 224.542 839.303 224.766C838.876 224.99 838.402 225.102 837.881 225.102C837.032 225.102 836.371 224.829 835.897 224.282C835.428 223.735 835.193 222.972 835.193 221.993C835.193 221.248 835.298 220.501 835.506 219.751C835.714 218.996 835.998 218.337 836.358 217.774C836.748 217.16 837.206 216.696 837.733 216.384C838.264 216.071 838.852 215.915 839.498 215.915C840.003 215.915 840.446 216.029 840.826 216.259C841.206 216.483 841.503 216.811 841.717 217.243ZM851.233 219.727C851.264 219.587 851.285 219.472 851.295 219.384C851.305 219.29 851.311 219.201 851.311 219.118C851.311 218.493 851.141 218.006 850.803 217.657C850.464 217.308 849.993 217.134 849.389 217.134C848.748 217.134 848.162 217.368 847.631 217.837C847.105 218.305 846.727 218.936 846.498 219.727H851.233ZM851.412 224.43C850.865 224.654 850.331 224.821 849.811 224.93C849.29 225.045 848.761 225.102 848.225 225.102C847.063 225.102 846.18 224.813 845.576 224.235C844.972 223.652 844.67 222.803 844.67 221.688C844.67 220.876 844.826 220.079 845.139 219.298C845.451 218.516 845.884 217.842 846.436 217.274C846.868 216.826 847.344 216.485 847.865 216.251C848.391 216.016 848.938 215.899 849.506 215.899C850.475 215.899 851.248 216.199 851.826 216.798C852.41 217.391 852.701 218.186 852.701 219.18C852.701 219.358 852.688 219.579 852.662 219.844C852.636 220.105 852.592 220.438 852.529 220.844H846.225C846.193 221.011 846.17 221.162 846.154 221.298C846.139 221.433 846.131 221.553 846.131 221.657C846.131 222.381 846.331 222.933 846.733 223.313C847.134 223.693 847.717 223.884 848.483 223.884C848.941 223.884 849.441 223.811 849.983 223.665C850.529 223.514 851.1 223.292 851.693 223.001L851.412 224.43Z" fill="black"/>
<path d="M843.841 262.026H639.841C631.557 262.026 624.841 268.742 624.841 277.026C624.841 285.311 631.557 292.026 639.841 292.026H843.841C852.125 292.026 858.841 285.311 858.841 277.026C858.841 268.742 852.125 262.026 843.841 262.026Z" fill="#F2F2F2"/>
<path d="M668.258 274.659C668.023 274.43 667.75 274.258 667.438 274.143C667.13 274.029 666.779 273.971 666.383 273.971C665.529 273.971 664.797 274.271 664.188 274.87C663.578 275.464 663.175 276.279 662.977 277.315L662.141 281.604H660.703L662.398 272.854H663.836L663.523 274.565C663.872 273.94 664.323 273.464 664.875 273.135C665.432 272.807 666.063 272.643 666.766 272.643C667.135 272.643 667.469 272.693 667.766 272.792C668.068 272.885 668.323 273.023 668.531 273.206L668.258 274.659ZM675.977 276.456C676.008 276.315 676.029 276.2 676.039 276.112C676.05 276.018 676.055 275.93 676.055 275.846C676.055 275.221 675.885 274.734 675.547 274.385C675.208 274.036 674.737 273.862 674.133 273.862C673.492 273.862 672.906 274.096 672.375 274.565C671.849 275.034 671.471 275.664 671.242 276.456H675.977ZM676.156 281.159C675.609 281.383 675.076 281.549 674.555 281.659C674.034 281.773 673.505 281.831 672.969 281.831C671.807 281.831 670.925 281.542 670.32 280.964C669.716 280.38 669.414 279.531 669.414 278.417C669.414 277.604 669.57 276.807 669.883 276.026C670.195 275.245 670.628 274.57 671.18 274.003C671.612 273.555 672.089 273.214 672.609 272.979C673.135 272.745 673.682 272.628 674.25 272.628C675.219 272.628 675.992 272.927 676.57 273.526C677.154 274.12 677.445 274.914 677.445 275.909C677.445 276.086 677.432 276.307 677.406 276.573C677.38 276.833 677.336 277.167 677.273 277.573H670.969C670.938 277.74 670.914 277.891 670.898 278.026C670.883 278.161 670.875 278.281 670.875 278.385C670.875 279.109 671.076 279.661 671.477 280.042C671.878 280.422 672.461 280.612 673.227 280.612C673.685 280.612 674.185 280.539 674.727 280.393C675.273 280.242 675.844 280.021 676.438 279.729L676.156 281.159ZM684.133 273.745C684.336 273.391 684.599 273.12 684.922 272.932C685.25 272.74 685.615 272.643 686.016 272.643C686.464 272.643 686.82 272.786 687.086 273.073C687.357 273.354 687.492 273.734 687.492 274.214C687.492 274.495 687.469 274.812 687.422 275.167C687.375 275.521 687.297 275.977 687.188 276.534L686.195 281.604H684.883L685.859 276.596C685.953 276.117 686.023 275.727 686.07 275.424C686.122 275.117 686.148 274.901 686.148 274.776C686.148 274.448 686.089 274.211 685.969 274.065C685.849 273.919 685.656 273.846 685.391 273.846C685 273.846 684.695 274.016 684.477 274.354C684.258 274.687 684.036 275.435 683.813 276.596L682.836 281.604H681.523L682.5 276.596C682.599 276.091 682.669 275.693 682.711 275.401C682.758 275.104 682.781 274.896 682.781 274.776C682.781 274.458 682.719 274.224 682.594 274.073C682.474 273.922 682.286 273.846 682.031 273.846C681.646 273.846 681.346 274.003 681.133 274.315C680.925 274.622 680.703 275.383 680.469 276.596L679.492 281.604H678.18L679.875 272.854H681.188L681.039 273.604C681.268 273.292 681.526 273.055 681.813 272.893C682.104 272.727 682.417 272.643 682.75 272.643C683.141 272.643 683.456 272.742 683.695 272.94C683.935 273.133 684.081 273.401 684.133 273.745ZM693.367 273.862C692.513 273.862 691.8 274.307 691.227 275.198C690.659 276.089 690.375 277.221 690.375 278.596C690.375 279.268 690.521 279.773 690.813 280.112C691.104 280.445 691.542 280.612 692.125 280.612C692.979 280.612 693.69 280.167 694.258 279.276C694.831 278.385 695.117 277.253 695.117 275.878C695.117 275.206 694.971 274.703 694.68 274.37C694.388 274.031 693.951 273.862 693.367 273.862ZM693.5 272.643C694.521 272.643 695.297 272.922 695.828 273.479C696.365 274.036 696.633 274.852 696.633 275.924C696.633 276.643 696.526 277.359 696.313 278.073C696.099 278.781 695.8 279.419 695.414 279.987C695.003 280.602 694.503 281.062 693.914 281.37C693.326 281.677 692.648 281.831 691.883 281.831C690.909 281.831 690.159 281.547 689.633 280.979C689.107 280.406 688.844 279.591 688.844 278.534C688.844 277.831 688.951 277.128 689.164 276.424C689.378 275.721 689.68 275.075 690.07 274.487C690.482 273.883 690.977 273.424 691.555 273.112C692.138 272.799 692.786 272.643 693.5 272.643ZM703.57 270.37L703.094 272.854H706.352L706.133 273.971H702.867L701.938 278.721C701.906 278.878 701.883 279.023 701.867 279.159C701.852 279.289 701.844 279.411 701.844 279.526C701.844 279.87 701.945 280.112 702.148 280.253C702.352 280.388 702.719 280.456 703.25 280.456H704.867L704.641 281.604H702.898C702.029 281.604 701.388 281.461 700.977 281.174C700.57 280.883 700.367 280.43 700.367 279.815C700.367 279.685 700.378 279.531 700.398 279.354C700.419 279.177 700.453 278.966 700.5 278.721L701.43 273.971H699.094L699.313 272.854H701.648L702.133 270.37H703.57ZM714.539 276.456C714.57 276.315 714.591 276.2 714.602 276.112C714.612 276.018 714.617 275.93 714.617 275.846C714.617 275.221 714.448 274.734 714.109 274.385C713.771 274.036 713.3 273.862 712.695 273.862C712.055 273.862 711.469 274.096 710.938 274.565C710.411 275.034 710.034 275.664 709.805 276.456H714.539ZM714.719 281.159C714.172 281.383 713.638 281.549 713.117 281.659C712.596 281.773 712.068 281.831 711.531 281.831C710.37 281.831 709.487 281.542 708.883 280.964C708.279 280.38 707.977 279.531 707.977 278.417C707.977 277.604 708.133 276.807 708.445 276.026C708.758 275.245 709.19 274.57 709.742 274.003C710.175 273.555 710.651 273.214 711.172 272.979C711.698 272.745 712.245 272.628 712.813 272.628C713.781 272.628 714.555 272.927 715.133 273.526C715.716 274.12 716.008 274.914 716.008 275.909C716.008 276.086 715.995 276.307 715.969 276.573C715.943 276.833 715.898 277.167 715.836 277.573H709.531C709.5 277.74 709.477 277.891 709.461 278.026C709.445 278.161 709.438 278.281 709.438 278.385C709.438 279.109 709.638 279.661 710.039 280.042C710.44 280.422 711.023 280.612 711.789 280.612C712.247 280.612 712.747 280.539 713.289 280.393C713.836 280.242 714.406 280.021 715 279.729L714.719 281.159ZM729.289 272.854H732.969L731.484 280.487H734.336L734.109 281.604H726.969L727.195 280.487H730.047L731.305 273.971H729.07L729.289 272.854ZM732.188 269.448H733.625L733.273 271.268H731.836L732.188 269.448ZM744.531 276.182L743.477 281.604H742.039L743.094 276.174C743.099 276.154 743.107 276.117 743.117 276.065C743.195 275.695 743.234 275.409 743.234 275.206C743.234 274.784 743.112 274.461 742.867 274.237C742.628 274.008 742.281 273.893 741.828 273.893C741.167 273.893 740.604 274.135 740.141 274.62C739.677 275.104 739.359 275.784 739.188 276.659L738.227 281.604H736.789L738.5 272.854H739.938L739.688 274.167C740.078 273.661 740.5 273.281 740.953 273.026C741.411 272.771 741.896 272.643 742.406 272.643C743.13 272.643 743.693 272.833 744.094 273.214C744.495 273.589 744.695 274.115 744.695 274.792C744.695 274.958 744.68 275.164 744.648 275.409C744.622 275.654 744.583 275.911 744.531 276.182ZM754.188 273.159L753.914 274.565C753.544 274.331 753.154 274.154 752.742 274.034C752.336 273.909 751.932 273.846 751.531 273.846C750.818 273.846 750.263 273.979 749.867 274.245C749.477 274.51 749.281 274.883 749.281 275.362C749.281 275.872 749.857 276.273 751.008 276.565C751.086 276.586 751.143 276.602 751.18 276.612L751.742 276.753C752.352 276.914 752.807 277.156 753.109 277.479C753.411 277.797 753.563 278.195 753.563 278.674C753.563 279.617 753.188 280.38 752.438 280.964C751.688 281.542 750.693 281.831 749.453 281.831C749.031 281.831 748.591 281.784 748.133 281.69C747.675 281.602 747.188 281.466 746.672 281.284L746.961 279.799C747.451 280.075 747.925 280.284 748.383 280.424C748.846 280.56 749.294 280.628 749.727 280.628C750.419 280.628 750.984 280.474 751.422 280.167C751.859 279.854 752.078 279.458 752.078 278.979C752.078 278.464 751.568 278.07 750.547 277.799C750.453 277.779 750.38 277.76 750.328 277.745L749.805 277.604C749.133 277.432 748.638 277.18 748.32 276.846C748.008 276.513 747.852 276.078 747.852 275.542C747.852 274.656 748.195 273.953 748.883 273.432C749.57 272.906 750.497 272.643 751.664 272.643C752.122 272.643 752.563 272.687 752.984 272.776C753.406 272.859 753.807 272.987 754.188 273.159ZM761.414 270.37L760.938 272.854H764.195L763.977 273.971H760.711L759.781 278.721C759.75 278.878 759.727 279.023 759.711 279.159C759.695 279.289 759.688 279.411 759.688 279.526C759.688 279.87 759.789 280.112 759.992 280.253C760.195 280.388 760.563 280.456 761.094 280.456H762.711L762.484 281.604H760.742C759.872 281.604 759.232 281.461 758.82 281.174C758.414 280.883 758.211 280.43 758.211 279.815C758.211 279.685 758.221 279.531 758.242 279.354C758.263 279.177 758.297 278.966 758.344 278.721L759.273 273.971H756.938L757.156 272.854H759.492L759.977 270.37H761.414ZM774.305 274.659C774.07 274.43 773.797 274.258 773.484 274.143C773.177 274.029 772.826 273.971 772.43 273.971C771.576 273.971 770.844 274.271 770.234 274.87C769.625 275.464 769.221 276.279 769.023 277.315L768.188 281.604H766.75L768.445 272.854H769.883L769.57 274.565C769.919 273.94 770.37 273.464 770.922 273.135C771.479 272.807 772.109 272.643 772.813 272.643C773.182 272.643 773.516 272.693 773.813 272.792C774.115 272.885 774.37 273.023 774.578 273.206L774.305 274.659ZM775.813 278.276L776.852 272.854H778.297L777.242 278.276C777.206 278.469 777.177 278.654 777.156 278.831C777.135 279.008 777.125 279.159 777.125 279.284C777.125 279.695 777.245 280.013 777.484 280.237C777.729 280.456 778.073 280.565 778.516 280.565C779.177 280.565 779.737 280.325 780.195 279.846C780.654 279.362 780.969 278.68 781.141 277.799L782.102 272.854H783.547L781.844 281.604H780.406L780.664 280.292C780.284 280.802 779.862 281.185 779.398 281.44C778.935 281.69 778.43 281.815 777.883 281.815C777.201 281.815 776.661 281.625 776.266 281.245C775.87 280.859 775.672 280.339 775.672 279.682C775.672 279.479 775.682 279.258 775.703 279.018C775.729 278.773 775.766 278.526 775.813 278.276ZM791.68 281.206C791.3 281.409 790.891 281.562 790.453 281.667C790.021 281.776 789.57 281.831 789.102 281.831C787.935 281.831 787.052 281.539 786.453 280.956C785.854 280.367 785.555 279.5 785.555 278.354C785.555 277.578 785.693 276.818 785.969 276.073C786.25 275.323 786.628 274.693 787.102 274.182C787.586 273.667 788.117 273.281 788.695 273.026C789.279 272.771 789.917 272.643 790.609 272.643C791.073 272.643 791.521 272.7 791.953 272.815C792.385 272.924 792.807 273.091 793.219 273.315L792.93 274.737C792.586 274.435 792.232 274.214 791.867 274.073C791.503 273.932 791.099 273.862 790.656 273.862C790.083 273.862 789.576 273.979 789.133 274.214C788.69 274.443 788.313 274.789 788 275.253C787.708 275.68 787.479 276.169 787.313 276.721C787.151 277.268 787.07 277.812 787.07 278.354C787.07 279.104 787.247 279.669 787.602 280.049C787.961 280.424 788.495 280.612 789.203 280.612C789.703 280.612 790.182 280.531 790.641 280.37C791.104 280.208 791.552 279.964 791.984 279.635L791.68 281.206ZM799.977 270.37L799.5 272.854H802.758L802.539 273.971H799.273L798.344 278.721C798.313 278.878 798.289 279.023 798.273 279.159C798.258 279.289 798.25 279.411 798.25 279.526C798.25 279.87 798.352 280.112 798.555 280.253C798.758 280.388 799.125 280.456 799.656 280.456H801.273L801.047 281.604H799.305C798.435 281.604 797.794 281.461 797.383 281.174C796.977 280.883 796.773 280.43 796.773 279.815C796.773 279.685 796.784 279.531 796.805 279.354C796.826 279.177 796.859 278.966 796.906 278.721L797.836 273.971H795.5L795.719 272.854H798.055L798.539 270.37H799.977ZM806.414 272.854H810.094L808.609 280.487H811.461L811.234 281.604H804.094L804.32 280.487H807.172L808.43 273.971H806.195L806.414 272.854ZM809.313 269.448H810.75L810.398 271.268H808.961L809.313 269.448ZM818.695 273.862C817.841 273.862 817.128 274.307 816.555 275.198C815.987 276.089 815.703 277.221 815.703 278.596C815.703 279.268 815.849 279.773 816.141 280.112C816.432 280.445 816.87 280.612 817.453 280.612C818.307 280.612 819.018 280.167 819.586 279.276C820.159 278.385 820.445 277.253 820.445 275.878C820.445 275.206 820.3 274.703 820.008 274.37C819.716 274.031 819.279 273.862 818.695 273.862ZM818.828 272.643C819.849 272.643 820.625 272.922 821.156 273.479C821.693 274.036 821.961 274.852 821.961 275.924C821.961 276.643 821.854 277.359 821.641 278.073C821.427 278.781 821.128 279.419 820.742 279.987C820.331 280.602 819.831 281.062 819.242 281.37C818.654 281.677 817.977 281.831 817.211 281.831C816.237 281.831 815.487 281.547 814.961 280.979C814.435 280.406 814.172 279.591 814.172 278.534C814.172 277.831 814.279 277.128 814.492 276.424C814.706 275.721 815.008 275.075 815.398 274.487C815.81 273.883 816.305 273.424 816.883 273.112C817.466 272.799 818.115 272.643 818.828 272.643ZM831.297 276.182L830.242 281.604H828.805L829.859 276.174C829.865 276.154 829.872 276.117 829.883 276.065C829.961 275.695 830 275.409 830 275.206C830 274.784 829.878 274.461 829.633 274.237C829.393 274.008 829.047 273.893 828.594 273.893C827.932 273.893 827.37 274.135 826.906 274.62C826.443 275.104 826.125 275.784 825.953 276.659L824.992 281.604H823.555L825.266 272.854H826.703L826.453 274.167C826.844 273.661 827.266 273.281 827.719 273.026C828.177 272.771 828.661 272.643 829.172 272.643C829.896 272.643 830.458 272.833 830.859 273.214C831.26 273.589 831.461 274.115 831.461 274.792C831.461 274.958 831.445 275.164 831.414 275.409C831.388 275.654 831.349 275.911 831.297 276.182Z" fill="black"/>
<path d="M661.948 321.721L661.706 322.916H660.081C659.586 322.916 659.213 323.025 658.963 323.244C658.713 323.458 658.536 323.827 658.432 324.353L658.268 325.127H661.276L661.073 326.244H658.065L656.573 333.877H655.135L656.62 326.244H654.284L654.51 325.127H656.831L656.956 324.517C657.153 323.512 657.502 322.796 658.002 322.369C658.508 321.937 659.247 321.721 660.221 321.721H661.948ZM666.549 330.689C666.513 330.872 666.484 331.033 666.463 331.174C666.448 331.314 666.44 331.432 666.44 331.525C666.44 331.905 666.555 332.189 666.784 332.377C667.018 332.564 667.372 332.658 667.846 332.658H669.495L669.252 333.877H667.635C666.734 333.877 666.062 333.713 665.62 333.385C665.182 333.051 664.963 332.543 664.963 331.861C664.963 331.715 664.976 331.538 665.002 331.33C665.028 331.122 665.065 330.898 665.112 330.658L666.76 322.76H664.292L664.518 321.635H668.424L666.549 330.689ZM678.831 328.728C678.862 328.588 678.883 328.473 678.893 328.385C678.903 328.291 678.909 328.202 678.909 328.119C678.909 327.494 678.739 327.007 678.401 326.658C678.062 326.309 677.591 326.135 676.987 326.135C676.346 326.135 675.76 326.369 675.229 326.838C674.703 327.307 674.325 327.937 674.096 328.728H678.831ZM679.01 333.432C678.463 333.655 677.93 333.822 677.409 333.932C676.888 334.046 676.359 334.103 675.823 334.103C674.661 334.103 673.778 333.814 673.174 333.236C672.57 332.653 672.268 331.804 672.268 330.689C672.268 329.877 672.424 329.08 672.737 328.299C673.049 327.517 673.482 326.843 674.034 326.275C674.466 325.827 674.943 325.486 675.463 325.252C675.989 325.017 676.536 324.9 677.104 324.9C678.073 324.9 678.846 325.2 679.424 325.799C680.008 326.392 680.299 327.187 680.299 328.182C680.299 328.359 680.286 328.58 680.26 328.846C680.234 329.106 680.19 329.439 680.127 329.846H673.823C673.792 330.012 673.768 330.163 673.752 330.299C673.737 330.434 673.729 330.554 673.729 330.658C673.729 331.382 673.93 331.934 674.331 332.314C674.732 332.695 675.315 332.885 676.081 332.885C676.539 332.885 677.039 332.812 677.581 332.666C678.127 332.515 678.698 332.293 679.292 332.002L679.01 333.432ZM690.581 325.127L686.581 329.4L689.065 333.877H687.526L685.62 330.408L682.362 333.877H680.596L685.002 329.221L682.713 325.127H684.245L685.94 328.213L688.823 325.127H690.581ZM693.581 325.127H697.26L695.776 332.76H698.627L698.401 333.877H691.26L691.487 332.76H694.338L695.596 326.244H693.362L693.581 325.127ZM696.479 321.721H697.917L697.565 323.541H696.127L696.479 321.721ZM704.635 332.885C705.073 332.885 705.469 332.767 705.823 332.533C706.177 332.299 706.474 331.958 706.713 331.51C706.969 331.02 707.169 330.473 707.315 329.869C707.466 329.265 707.542 328.682 707.542 328.119C707.542 327.452 707.409 326.952 707.143 326.619C706.883 326.286 706.489 326.119 705.963 326.119C705.531 326.119 705.135 326.239 704.776 326.478C704.422 326.718 704.112 327.067 703.846 327.525C703.596 327.973 703.396 328.502 703.245 329.111C703.094 329.715 703.018 330.307 703.018 330.885C703.018 331.525 703.156 332.02 703.432 332.369C703.713 332.713 704.114 332.885 704.635 332.885ZM703.815 326.244C704.138 325.807 704.513 325.476 704.94 325.252C705.367 325.028 705.846 324.916 706.377 324.916C707.232 324.916 707.896 325.187 708.37 325.728C708.844 326.265 709.081 327.017 709.081 327.986C709.081 328.741 708.974 329.494 708.76 330.244C708.547 330.994 708.252 331.65 707.877 332.213C707.482 332.812 706.997 333.278 706.424 333.611C705.857 333.939 705.25 334.103 704.604 334.103C704.094 334.103 703.664 333.991 703.315 333.767C702.971 333.543 702.711 333.213 702.534 332.775L702.331 333.877H700.885L703.252 321.721H704.698L703.815 326.244ZM714.752 330.689C714.716 330.872 714.687 331.033 714.667 331.174C714.651 331.314 714.643 331.432 714.643 331.525C714.643 331.905 714.758 332.189 714.987 332.377C715.221 332.564 715.575 332.658 716.049 332.658H717.698L717.456 333.877H715.838C714.937 333.877 714.265 333.713 713.823 333.385C713.385 333.051 713.167 332.543 713.167 331.861C713.167 331.715 713.18 331.538 713.206 331.33C713.232 331.122 713.268 330.898 713.315 330.658L714.963 322.76H712.495L712.721 321.635H716.627L714.752 330.689ZM727.034 328.728C727.065 328.588 727.086 328.473 727.096 328.385C727.107 328.291 727.112 328.202 727.112 328.119C727.112 327.494 726.943 327.007 726.604 326.658C726.265 326.309 725.794 326.135 725.19 326.135C724.549 326.135 723.963 326.369 723.432 326.838C722.906 327.307 722.528 327.937 722.299 328.728H727.034ZM727.213 333.432C726.667 333.655 726.133 333.822 725.612 333.932C725.091 334.046 724.562 334.103 724.026 334.103C722.864 334.103 721.982 333.814 721.377 333.236C720.773 332.653 720.471 331.804 720.471 330.689C720.471 329.877 720.627 329.08 720.94 328.299C721.252 327.517 721.685 326.843 722.237 326.275C722.669 325.827 723.146 325.486 723.667 325.252C724.193 325.017 724.739 324.9 725.307 324.9C726.276 324.9 727.049 325.2 727.627 325.799C728.211 326.392 728.502 327.187 728.502 328.182C728.502 328.359 728.489 328.58 728.463 328.846C728.437 329.106 728.393 329.439 728.331 329.846H722.026C721.995 330.012 721.971 330.163 721.956 330.299C721.94 330.434 721.932 330.554 721.932 330.658C721.932 331.382 722.133 331.934 722.534 332.314C722.935 332.695 723.518 332.885 724.284 332.885C724.742 332.885 725.242 332.812 725.784 332.666C726.331 332.515 726.901 332.293 727.495 332.002L727.213 333.432ZM747.401 325.432L747.127 326.838C746.758 326.603 746.367 326.426 745.956 326.307C745.549 326.182 745.146 326.119 744.745 326.119C744.031 326.119 743.476 326.252 743.081 326.517C742.69 326.783 742.495 327.155 742.495 327.635C742.495 328.145 743.07 328.546 744.221 328.838C744.299 328.859 744.357 328.874 744.393 328.885L744.956 329.025C745.565 329.187 746.021 329.429 746.323 329.752C746.625 330.07 746.776 330.468 746.776 330.947C746.776 331.89 746.401 332.653 745.651 333.236C744.901 333.814 743.906 334.103 742.667 334.103C742.245 334.103 741.805 334.057 741.346 333.963C740.888 333.874 740.401 333.739 739.885 333.557L740.174 332.072C740.664 332.348 741.138 332.557 741.596 332.697C742.06 332.833 742.508 332.9 742.94 332.9C743.633 332.9 744.198 332.747 744.635 332.439C745.073 332.127 745.292 331.731 745.292 331.252C745.292 330.736 744.781 330.343 743.76 330.072C743.667 330.051 743.594 330.033 743.542 330.017L743.018 329.877C742.346 329.705 741.851 329.452 741.534 329.119C741.221 328.786 741.065 328.351 741.065 327.814C741.065 326.929 741.409 326.226 742.096 325.705C742.784 325.179 743.711 324.916 744.877 324.916C745.336 324.916 745.776 324.96 746.198 325.049C746.62 325.132 747.021 325.26 747.401 325.432ZM755.971 333.478C755.591 333.682 755.182 333.835 754.745 333.939C754.312 334.049 753.862 334.103 753.393 334.103C752.226 334.103 751.344 333.812 750.745 333.228C750.146 332.64 749.846 331.773 749.846 330.627C749.846 329.851 749.984 329.09 750.26 328.346C750.542 327.596 750.919 326.965 751.393 326.455C751.877 325.939 752.409 325.554 752.987 325.299C753.57 325.043 754.208 324.916 754.901 324.916C755.364 324.916 755.812 324.973 756.245 325.088C756.677 325.197 757.099 325.364 757.51 325.588L757.221 327.01C756.877 326.708 756.523 326.486 756.159 326.346C755.794 326.205 755.39 326.135 754.948 326.135C754.375 326.135 753.867 326.252 753.424 326.486C752.982 326.715 752.604 327.062 752.292 327.525C752 327.952 751.771 328.442 751.604 328.994C751.443 329.541 751.362 330.085 751.362 330.627C751.362 331.377 751.539 331.942 751.893 332.322C752.252 332.697 752.786 332.885 753.495 332.885C753.995 332.885 754.474 332.804 754.932 332.642C755.396 332.481 755.844 332.236 756.276 331.908L755.971 333.478ZM766.667 328.455L765.612 333.877H764.174L765.229 328.447C765.234 328.426 765.242 328.39 765.252 328.338C765.331 327.968 765.37 327.682 765.37 327.478C765.37 327.057 765.247 326.734 765.002 326.51C764.763 326.28 764.417 326.166 763.963 326.166C763.302 326.166 762.739 326.408 762.276 326.892C761.812 327.377 761.495 328.057 761.323 328.932L760.362 333.877H758.924L761.292 321.721H762.729L761.823 326.439C762.213 325.934 762.635 325.554 763.088 325.299C763.547 325.043 764.031 324.916 764.542 324.916C765.265 324.916 765.828 325.106 766.229 325.486C766.63 325.861 766.831 326.387 766.831 327.064C766.831 327.231 766.815 327.437 766.784 327.682C766.758 327.926 766.719 328.184 766.667 328.455ZM775.237 328.728C775.268 328.588 775.289 328.473 775.299 328.385C775.31 328.291 775.315 328.202 775.315 328.119C775.315 327.494 775.146 327.007 774.807 326.658C774.469 326.309 773.997 326.135 773.393 326.135C772.752 326.135 772.167 326.369 771.635 326.838C771.109 327.307 770.732 327.937 770.502 328.728H775.237ZM775.417 333.432C774.87 333.655 774.336 333.822 773.815 333.932C773.294 334.046 772.765 334.103 772.229 334.103C771.068 334.103 770.185 333.814 769.581 333.236C768.976 332.653 768.674 331.804 768.674 330.689C768.674 329.877 768.831 329.08 769.143 328.299C769.456 327.517 769.888 326.843 770.44 326.275C770.872 325.827 771.349 325.486 771.87 325.252C772.396 325.017 772.943 324.9 773.51 324.9C774.479 324.9 775.252 325.2 775.831 325.799C776.414 326.392 776.706 327.187 776.706 328.182C776.706 328.359 776.693 328.58 776.667 328.846C776.64 329.106 776.596 329.439 776.534 329.846H770.229C770.198 330.012 770.174 330.163 770.159 330.299C770.143 330.434 770.135 330.554 770.135 330.658C770.135 331.382 770.336 331.934 770.737 332.314C771.138 332.695 771.721 332.885 772.487 332.885C772.945 332.885 773.445 332.812 773.987 332.666C774.534 332.515 775.104 332.293 775.698 332.002L775.417 333.432ZM782.909 326.135C782.45 326.135 782.047 326.249 781.698 326.478C781.349 326.702 781.055 327.041 780.815 327.494C780.56 327.963 780.362 328.497 780.221 329.096C780.081 329.689 780.01 330.286 780.01 330.885C780.01 331.551 780.143 332.051 780.409 332.385C780.674 332.718 781.07 332.885 781.596 332.885C782.039 332.885 782.437 332.767 782.792 332.533C783.151 332.299 783.456 331.952 783.706 331.494C783.961 331.041 784.161 330.515 784.307 329.916C784.453 329.312 784.526 328.713 784.526 328.119C784.526 327.494 784.383 327.007 784.096 326.658C783.815 326.309 783.419 326.135 782.909 326.135ZM785.002 326.244L785.901 321.721H787.338L784.971 333.877H783.534L783.745 332.775C783.406 333.213 783.021 333.543 782.588 333.767C782.161 333.991 781.687 334.103 781.167 334.103C780.318 334.103 779.656 333.83 779.182 333.283C778.713 332.736 778.479 331.973 778.479 330.994C778.479 330.249 778.583 329.502 778.792 328.752C779 327.997 779.284 327.338 779.643 326.775C780.034 326.161 780.492 325.697 781.018 325.385C781.549 325.072 782.138 324.916 782.784 324.916C783.289 324.916 783.732 325.03 784.112 325.26C784.492 325.484 784.789 325.812 785.002 326.244ZM788.307 330.549L789.346 325.127H790.792L789.737 330.549C789.7 330.741 789.672 330.926 789.651 331.103C789.63 331.28 789.62 331.432 789.62 331.557C789.62 331.968 789.739 332.286 789.979 332.51C790.224 332.728 790.568 332.838 791.01 332.838C791.672 332.838 792.232 332.598 792.69 332.119C793.148 331.635 793.463 330.952 793.635 330.072L794.596 325.127H796.042L794.338 333.877H792.901L793.159 332.564C792.778 333.075 792.357 333.458 791.893 333.713C791.43 333.963 790.924 334.088 790.377 334.088C789.695 334.088 789.156 333.898 788.76 333.517C788.364 333.132 788.167 332.611 788.167 331.955C788.167 331.752 788.177 331.53 788.198 331.291C788.224 331.046 788.26 330.799 788.307 330.549ZM801.518 330.689C801.482 330.872 801.453 331.033 801.432 331.174C801.417 331.314 801.409 331.432 801.409 331.525C801.409 331.905 801.523 332.189 801.752 332.377C801.987 332.564 802.341 332.658 802.815 332.658H804.463L804.221 333.877H802.604C801.703 333.877 801.031 333.713 800.588 333.385C800.151 333.051 799.932 332.543 799.932 331.861C799.932 331.715 799.945 331.538 799.971 331.33C799.997 331.122 800.034 330.898 800.081 330.658L801.729 322.76H799.26L799.487 321.635H803.393L801.518 330.689ZM809.268 325.127H812.948L811.463 332.76H814.315L814.088 333.877H806.948L807.174 332.76H810.026L811.284 326.244H809.049L809.268 325.127ZM812.167 321.721H813.604L813.252 323.541H811.815L812.167 321.721ZM824.51 328.455L823.456 333.877H822.018L823.073 328.447C823.078 328.426 823.086 328.39 823.096 328.338C823.174 327.968 823.213 327.682 823.213 327.478C823.213 327.057 823.091 326.734 822.846 326.51C822.607 326.28 822.26 326.166 821.807 326.166C821.146 326.166 820.583 326.408 820.12 326.892C819.656 327.377 819.338 328.057 819.167 328.932L818.206 333.877H816.768L818.479 325.127H819.917L819.667 326.439C820.057 325.934 820.479 325.554 820.932 325.299C821.39 325.043 821.875 324.916 822.385 324.916C823.109 324.916 823.672 325.106 824.073 325.486C824.474 325.861 824.674 326.387 824.674 327.064C824.674 327.231 824.659 327.437 824.627 327.682C824.601 327.926 824.562 328.184 824.51 328.455ZM829.752 332.744C830.164 332.744 830.542 332.627 830.885 332.392C831.234 332.158 831.528 331.822 831.768 331.385C832.023 330.916 832.221 330.39 832.362 329.807C832.508 329.223 832.581 328.655 832.581 328.103C832.581 327.484 832.435 327.002 832.143 326.658C831.851 326.309 831.445 326.135 830.924 326.135C830.122 326.135 829.445 326.575 828.893 327.455C828.346 328.33 828.073 329.432 828.073 330.76C828.073 331.379 828.221 331.866 828.518 332.221C828.815 332.57 829.226 332.744 829.752 332.744ZM833.112 333.314C832.836 334.726 832.349 335.744 831.651 336.369C830.958 336.999 829.969 337.314 828.682 337.314C828.255 337.314 827.833 337.278 827.417 337.205C827.005 337.132 826.604 337.025 826.213 336.885L826.502 335.463C826.883 335.692 827.276 335.866 827.682 335.986C828.094 336.106 828.508 336.166 828.924 336.166C829.7 336.166 830.302 335.958 830.729 335.541C831.156 335.124 831.466 334.432 831.659 333.463L831.846 332.549C831.544 333.002 831.167 333.348 830.713 333.588C830.26 333.822 829.747 333.939 829.174 333.939C828.372 333.939 827.734 333.661 827.26 333.103C826.786 332.541 826.549 331.78 826.549 330.822C826.549 330.098 826.653 329.379 826.862 328.666C827.07 327.947 827.362 327.312 827.737 326.76C828.122 326.176 828.586 325.723 829.127 325.4C829.669 325.077 830.229 324.916 830.807 324.916C831.333 324.916 831.794 325.043 832.19 325.299C832.586 325.549 832.872 325.895 833.049 326.338L833.26 325.158H834.698L833.112 333.314Z" fill="black"/>
<path d="M844.227 370.877H640.227C631.943 370.877 625.227 377.593 625.227 385.877C625.227 394.161 631.943 400.877 640.227 400.877H844.227C852.512 400.877 859.227 394.161 859.227 385.877C859.227 377.593 852.512 370.877 844.227 370.877Z" fill="#F2F2F2"/>
<path d="M670.26 386.455L669.206 391.877H667.768L668.823 386.447C668.828 386.426 668.836 386.39 668.846 386.338C668.924 385.968 668.963 385.682 668.963 385.478C668.963 385.057 668.841 384.734 668.596 384.51C668.357 384.28 668.01 384.166 667.557 384.166C666.896 384.166 666.333 384.408 665.87 384.892C665.406 385.377 665.088 386.057 664.917 386.932L663.956 391.877H662.518L664.229 383.127H665.667L665.417 384.439C665.807 383.934 666.229 383.554 666.682 383.299C667.14 383.043 667.625 382.916 668.135 382.916C668.859 382.916 669.422 383.106 669.823 383.486C670.224 383.861 670.424 384.387 670.424 385.064C670.424 385.231 670.409 385.437 670.377 385.682C670.351 385.926 670.312 386.184 670.26 386.455ZM672.62 388.549L673.659 383.127H675.104L674.049 388.549C674.013 388.741 673.984 388.926 673.963 389.103C673.943 389.28 673.932 389.432 673.932 389.557C673.932 389.968 674.052 390.286 674.292 390.51C674.536 390.728 674.88 390.838 675.323 390.838C675.984 390.838 676.544 390.598 677.002 390.119C677.461 389.635 677.776 388.952 677.948 388.072L678.909 383.127H680.354L678.651 391.877H677.213L677.471 390.564C677.091 391.075 676.669 391.458 676.206 391.713C675.742 391.963 675.237 392.088 674.69 392.088C674.008 392.088 673.469 391.898 673.073 391.517C672.677 391.132 672.479 390.611 672.479 389.955C672.479 389.752 672.489 389.53 672.51 389.291C672.536 389.046 672.573 388.799 672.62 388.549ZM686.987 384.017C687.19 383.663 687.453 383.392 687.776 383.205C688.104 383.012 688.469 382.916 688.87 382.916C689.318 382.916 689.674 383.059 689.94 383.346C690.211 383.627 690.346 384.007 690.346 384.486C690.346 384.767 690.323 385.085 690.276 385.439C690.229 385.793 690.151 386.249 690.042 386.807L689.049 391.877H687.737L688.713 386.869C688.807 386.39 688.877 385.999 688.924 385.697C688.976 385.39 689.002 385.174 689.002 385.049C689.002 384.721 688.943 384.484 688.823 384.338C688.703 384.192 688.51 384.119 688.245 384.119C687.854 384.119 687.549 384.288 687.331 384.627C687.112 384.96 686.89 385.708 686.667 386.869L685.69 391.877H684.377L685.354 386.869C685.453 386.364 685.523 385.965 685.565 385.674C685.612 385.377 685.635 385.168 685.635 385.049C685.635 384.731 685.573 384.497 685.448 384.346C685.328 384.195 685.14 384.119 684.885 384.119C684.5 384.119 684.2 384.275 683.987 384.588C683.778 384.895 683.557 385.655 683.323 386.869L682.346 391.877H681.034L682.729 383.127H684.042L683.893 383.877C684.122 383.564 684.38 383.327 684.667 383.166C684.958 382.999 685.271 382.916 685.604 382.916C685.995 382.916 686.31 383.015 686.549 383.213C686.789 383.405 686.935 383.674 686.987 384.017ZM698.112 386.728C698.143 386.588 698.164 386.473 698.174 386.385C698.185 386.291 698.19 386.202 698.19 386.119C698.19 385.494 698.021 385.007 697.682 384.658C697.344 384.309 696.872 384.135 696.268 384.135C695.627 384.135 695.042 384.369 694.51 384.838C693.984 385.307 693.607 385.937 693.377 386.728H698.112ZM698.292 391.432C697.745 391.655 697.211 391.822 696.69 391.932C696.169 392.046 695.64 392.103 695.104 392.103C693.943 392.103 693.06 391.814 692.456 391.236C691.851 390.653 691.549 389.804 691.549 388.689C691.549 387.877 691.706 387.08 692.018 386.299C692.331 385.517 692.763 384.843 693.315 384.275C693.747 383.827 694.224 383.486 694.745 383.252C695.271 383.017 695.818 382.9 696.385 382.9C697.354 382.9 698.127 383.2 698.706 383.799C699.289 384.392 699.581 385.187 699.581 386.182C699.581 386.359 699.568 386.58 699.542 386.846C699.515 387.106 699.471 387.439 699.409 387.846H693.104C693.073 388.012 693.049 388.163 693.034 388.299C693.018 388.434 693.01 388.554 693.01 388.658C693.01 389.382 693.211 389.934 693.612 390.314C694.013 390.695 694.596 390.885 695.362 390.885C695.82 390.885 696.32 390.812 696.862 390.666C697.409 390.515 697.979 390.293 698.573 390.002L698.292 391.432ZM709.674 384.932C709.44 384.702 709.167 384.53 708.854 384.416C708.547 384.301 708.195 384.244 707.799 384.244C706.945 384.244 706.213 384.543 705.604 385.142C704.995 385.736 704.591 386.551 704.393 387.588L703.557 391.877H702.12L703.815 383.127H705.252L704.94 384.838C705.289 384.213 705.739 383.736 706.292 383.408C706.849 383.08 707.479 382.916 708.182 382.916C708.552 382.916 708.885 382.965 709.182 383.064C709.484 383.158 709.739 383.296 709.948 383.478L709.674 384.932ZM715.502 384.135C714.648 384.135 713.935 384.58 713.362 385.471C712.794 386.361 712.51 387.494 712.51 388.869C712.51 389.541 712.656 390.046 712.948 390.385C713.239 390.718 713.677 390.885 714.26 390.885C715.114 390.885 715.825 390.439 716.393 389.549C716.966 388.658 717.252 387.525 717.252 386.15C717.252 385.478 717.107 384.976 716.815 384.642C716.523 384.304 716.086 384.135 715.502 384.135ZM715.635 382.916C716.656 382.916 717.432 383.195 717.963 383.752C718.5 384.309 718.768 385.124 718.768 386.197C718.768 386.916 718.661 387.632 718.448 388.346C718.234 389.054 717.935 389.692 717.549 390.26C717.138 390.874 716.638 391.335 716.049 391.642C715.461 391.95 714.784 392.103 714.018 392.103C713.044 392.103 712.294 391.82 711.768 391.252C711.242 390.679 710.979 389.864 710.979 388.807C710.979 388.103 711.086 387.4 711.299 386.697C711.513 385.994 711.815 385.348 712.206 384.76C712.617 384.155 713.112 383.697 713.69 383.385C714.273 383.072 714.922 382.916 715.635 382.916ZM720.823 388.549L721.862 383.127H723.307L722.252 388.549C722.216 388.741 722.187 388.926 722.167 389.103C722.146 389.28 722.135 389.432 722.135 389.557C722.135 389.968 722.255 390.286 722.495 390.51C722.739 390.728 723.083 390.838 723.526 390.838C724.187 390.838 724.747 390.598 725.206 390.119C725.664 389.635 725.979 388.952 726.151 388.072L727.112 383.127H728.557L726.854 391.877H725.417L725.674 390.564C725.294 391.075 724.872 391.458 724.409 391.713C723.945 391.963 723.44 392.088 722.893 392.088C722.211 392.088 721.672 391.898 721.276 391.517C720.88 391.132 720.682 390.611 720.682 389.955C720.682 389.752 720.693 389.53 720.713 389.291C720.739 389.046 720.776 388.799 720.823 388.549ZM737.76 383.432L737.487 384.838C737.117 384.603 736.726 384.426 736.315 384.307C735.909 384.182 735.505 384.119 735.104 384.119C734.39 384.119 733.836 384.252 733.44 384.517C733.049 384.783 732.854 385.155 732.854 385.635C732.854 386.145 733.43 386.546 734.581 386.838C734.659 386.859 734.716 386.874 734.752 386.885L735.315 387.025C735.924 387.187 736.38 387.429 736.682 387.752C736.984 388.07 737.135 388.468 737.135 388.947C737.135 389.89 736.76 390.653 736.01 391.236C735.26 391.814 734.265 392.103 733.026 392.103C732.604 392.103 732.164 392.057 731.706 391.963C731.247 391.874 730.76 391.739 730.245 391.557L730.534 390.072C731.023 390.348 731.497 390.557 731.956 390.697C732.419 390.833 732.867 390.9 733.299 390.9C733.992 390.9 734.557 390.747 734.995 390.439C735.432 390.127 735.651 389.731 735.651 389.252C735.651 388.736 735.14 388.343 734.12 388.072C734.026 388.051 733.953 388.033 733.901 388.017L733.377 387.877C732.706 387.705 732.211 387.452 731.893 387.119C731.581 386.786 731.424 386.351 731.424 385.814C731.424 384.929 731.768 384.226 732.456 383.705C733.143 383.179 734.07 382.916 735.237 382.916C735.695 382.916 736.135 382.96 736.557 383.049C736.979 383.132 737.38 383.26 737.76 383.432ZM750.917 390.775L750.049 395.205H748.612L750.963 383.127H752.401L752.182 384.244C752.5 383.817 752.883 383.489 753.331 383.26C753.778 383.03 754.263 382.916 754.784 382.916C755.627 382.916 756.281 383.187 756.745 383.728C757.208 384.27 757.44 385.028 757.44 386.002C757.44 386.747 757.336 387.494 757.127 388.244C756.924 388.994 756.64 389.655 756.276 390.228C755.885 390.843 755.424 391.309 754.893 391.627C754.362 391.945 753.778 392.103 753.143 392.103C752.622 392.103 752.177 391.994 751.807 391.775C751.443 391.557 751.146 391.223 750.917 390.775ZM753.073 390.885C753.495 390.885 753.88 390.77 754.229 390.541C754.578 390.307 754.87 389.968 755.104 389.525C755.359 389.046 755.56 388.507 755.706 387.908C755.851 387.304 755.924 386.708 755.924 386.119C755.924 385.458 755.789 384.963 755.518 384.635C755.252 384.301 754.854 384.135 754.323 384.135C753.88 384.135 753.479 384.252 753.12 384.486C752.765 384.721 752.463 385.067 752.213 385.525C751.958 385.984 751.758 386.51 751.612 387.103C751.466 387.697 751.393 388.291 751.393 388.885C751.393 389.525 751.539 390.02 751.831 390.369C752.122 390.713 752.536 390.885 753.073 390.885ZM763.674 387.478C763.055 387.478 762.594 387.499 762.292 387.541C761.989 387.577 761.726 387.642 761.502 387.736C761.148 387.877 760.864 388.109 760.651 388.432C760.437 388.749 760.331 389.098 760.331 389.478C760.331 389.911 760.463 390.257 760.729 390.517C761 390.773 761.364 390.9 761.823 390.9C762.594 390.9 763.258 390.624 763.815 390.072C764.377 389.52 764.758 388.762 764.956 387.799L765.018 387.478H763.674ZM766.573 386.885L765.596 391.877H764.159L764.409 390.58C764.034 391.07 763.591 391.447 763.081 391.713C762.57 391.973 762.028 392.103 761.456 392.103C760.659 392.103 760.021 391.887 759.542 391.455C759.068 391.017 758.831 390.439 758.831 389.721C758.831 388.7 759.232 387.885 760.034 387.275C760.841 386.661 761.932 386.353 763.307 386.353H765.229L765.323 385.877C765.333 385.83 765.341 385.78 765.346 385.728C765.351 385.676 765.354 385.603 765.354 385.51C765.354 385.067 765.19 384.728 764.862 384.494C764.534 384.254 764.065 384.135 763.456 384.135C763.008 384.135 762.523 384.202 762.002 384.338C761.487 384.468 760.94 384.666 760.362 384.932L760.635 383.525C761.198 383.322 761.732 383.171 762.237 383.072C762.742 382.968 763.226 382.916 763.69 382.916C764.659 382.916 765.411 383.129 765.948 383.557C766.489 383.984 766.76 384.575 766.76 385.33C766.76 385.497 766.745 385.715 766.713 385.986C766.682 386.257 766.635 386.557 766.573 386.885ZM773.909 380.642L773.432 383.127H776.69L776.471 384.244H773.206L772.276 388.994C772.245 389.15 772.221 389.296 772.206 389.432C772.19 389.562 772.182 389.684 772.182 389.799C772.182 390.142 772.284 390.385 772.487 390.525C772.69 390.661 773.057 390.728 773.588 390.728H775.206L774.979 391.877H773.237C772.367 391.877 771.726 391.734 771.315 391.447C770.909 391.155 770.706 390.702 770.706 390.088C770.706 389.958 770.716 389.804 770.737 389.627C770.758 389.45 770.792 389.239 770.838 388.994L771.768 384.244H769.432L769.651 383.127H771.987L772.471 380.642H773.909ZM785.948 386.455L784.893 391.877H783.456L784.51 386.447C784.515 386.426 784.523 386.39 784.534 386.338C784.612 385.968 784.651 385.682 784.651 385.478C784.651 385.057 784.528 384.734 784.284 384.51C784.044 384.28 783.698 384.166 783.245 384.166C782.583 384.166 782.021 384.408 781.557 384.892C781.094 385.377 780.776 386.057 780.604 386.932L779.643 391.877H778.206L780.573 379.721H782.01L781.104 384.439C781.495 383.934 781.917 383.554 782.37 383.299C782.828 383.043 783.312 382.916 783.823 382.916C784.547 382.916 785.109 383.106 785.51 383.486C785.911 383.861 786.112 384.387 786.112 385.064C786.112 385.231 786.096 385.437 786.065 385.682C786.039 385.926 786 386.184 785.948 386.455ZM787.909 383.127H789.284L789.401 390.197L791.495 385.682H792.76L793.143 390.197L795.971 383.127H797.463L793.667 391.877H792.377L791.909 387.01L789.588 391.877H788.292L787.909 383.127ZM802.237 387.478C801.617 387.478 801.156 387.499 800.854 387.541C800.552 387.577 800.289 387.642 800.065 387.736C799.711 387.877 799.427 388.109 799.213 388.432C799 388.749 798.893 389.098 798.893 389.478C798.893 389.911 799.026 390.257 799.292 390.517C799.562 390.773 799.927 390.9 800.385 390.9C801.156 390.9 801.82 390.624 802.377 390.072C802.94 389.52 803.32 388.762 803.518 387.799L803.581 387.478H802.237ZM805.135 386.885L804.159 391.877H802.721L802.971 390.58C802.596 391.07 802.153 391.447 801.643 391.713C801.133 391.973 800.591 392.103 800.018 392.103C799.221 392.103 798.583 391.887 798.104 391.455C797.63 391.017 797.393 390.439 797.393 389.721C797.393 388.7 797.794 387.885 798.596 387.275C799.403 386.661 800.495 386.353 801.87 386.353H803.792L803.885 385.877C803.896 385.83 803.903 385.78 803.909 385.728C803.914 385.676 803.917 385.603 803.917 385.51C803.917 385.067 803.752 384.728 803.424 384.494C803.096 384.254 802.627 384.135 802.018 384.135C801.57 384.135 801.086 384.202 800.565 384.338C800.049 384.468 799.502 384.666 798.924 384.932L799.198 383.525C799.76 383.322 800.294 383.171 800.799 383.072C801.305 382.968 801.789 382.916 802.252 382.916C803.221 382.916 803.974 383.129 804.51 383.557C805.052 383.984 805.323 384.575 805.323 385.33C805.323 385.497 805.307 385.715 805.276 385.986C805.245 386.257 805.198 386.557 805.135 386.885ZM812.612 389.064C812.289 389.622 811.859 390.372 811.323 391.314C810.515 392.747 809.971 393.653 809.69 394.033C809.388 394.429 809.042 394.723 808.651 394.916C808.265 395.109 807.823 395.205 807.323 395.205H806.167L806.393 394.002H807.237C807.659 394.002 808.021 393.879 808.323 393.635C808.63 393.395 808.94 392.981 809.252 392.392L809.588 391.736L807.893 383.127H809.323L810.667 389.861L814.44 383.127H816.042L812.612 389.064ZM824.526 383.432L824.252 384.838C823.883 384.603 823.492 384.426 823.081 384.307C822.674 384.182 822.271 384.119 821.87 384.119C821.156 384.119 820.601 384.252 820.206 384.517C819.815 384.783 819.62 385.155 819.62 385.635C819.62 386.145 820.195 386.546 821.346 386.838C821.424 386.859 821.482 386.874 821.518 386.885L822.081 387.025C822.69 387.187 823.146 387.429 823.448 387.752C823.75 388.07 823.901 388.468 823.901 388.947C823.901 389.89 823.526 390.653 822.776 391.236C822.026 391.814 821.031 392.103 819.792 392.103C819.37 392.103 818.93 392.057 818.471 391.963C818.013 391.874 817.526 391.739 817.01 391.557L817.299 390.072C817.789 390.348 818.263 390.557 818.721 390.697C819.185 390.833 819.633 390.9 820.065 390.9C820.758 390.9 821.323 390.747 821.76 390.439C822.198 390.127 822.417 389.731 822.417 389.252C822.417 388.736 821.906 388.343 820.885 388.072C820.792 388.051 820.719 388.033 820.667 388.017L820.143 387.877C819.471 387.705 818.976 387.452 818.659 387.119C818.346 386.786 818.19 386.351 818.19 385.814C818.19 384.929 818.534 384.226 819.221 383.705C819.909 383.179 820.836 382.916 822.002 382.916C822.461 382.916 822.901 382.96 823.323 383.049C823.745 383.132 824.146 383.26 824.526 383.432Z" fill="black"/>
<path d="M840.414 428.422H635.6C627.536 428.422 621 434.958 621 443.021C621 451.084 627.536 457.621 635.6 457.621H840.414C848.477 457.621 855.014 451.084 855.014 443.021C855.014 434.958 848.477 428.422 840.414 428.422Z" fill="#F2F2F2"/>
<path d="M663.088 447.32C662.771 447.757 662.396 448.088 661.963 448.312C661.536 448.536 661.057 448.648 660.526 448.648C659.672 448.648 659.005 448.38 658.526 447.843C658.047 447.302 657.807 446.544 657.807 445.57C657.807 444.83 657.914 444.083 658.127 443.328C658.341 442.573 658.635 441.903 659.01 441.32C659.401 440.705 659.867 440.242 660.409 439.929C660.956 439.617 661.568 439.461 662.245 439.461C662.765 439.461 663.2 439.573 663.549 439.797C663.903 440.015 664.172 440.346 664.354 440.789L664.565 439.672H666.002L663.667 451.75H662.229L663.088 447.32ZM662.26 440.679C661.818 440.679 661.419 440.794 661.065 441.023C660.711 441.252 660.414 441.591 660.174 442.039C659.919 442.528 659.716 443.075 659.565 443.679C659.419 444.283 659.346 444.867 659.346 445.429C659.346 446.096 659.476 446.596 659.737 446.929C660.002 447.263 660.401 447.429 660.932 447.429C661.359 447.429 661.752 447.312 662.112 447.078C662.471 446.838 662.781 446.492 663.042 446.039C663.292 445.596 663.492 445.07 663.643 444.461C663.794 443.846 663.87 443.247 663.87 442.664C663.87 442.023 663.729 441.533 663.448 441.195C663.172 440.851 662.776 440.679 662.26 440.679ZM667.799 445.093L668.838 439.672H670.284L669.229 445.093C669.193 445.286 669.164 445.471 669.143 445.648C669.122 445.825 669.112 445.976 669.112 446.101C669.112 446.513 669.232 446.83 669.471 447.054C669.716 447.273 670.06 447.382 670.502 447.382C671.164 447.382 671.724 447.143 672.182 446.664C672.64 446.179 672.956 445.497 673.127 444.617L674.088 439.672H675.534L673.831 448.422H672.393L672.651 447.109C672.271 447.619 671.849 448.002 671.385 448.257C670.922 448.507 670.417 448.632 669.87 448.632C669.187 448.632 668.648 448.442 668.252 448.062C667.857 447.677 667.659 447.156 667.659 446.5C667.659 446.297 667.669 446.075 667.69 445.836C667.716 445.591 667.752 445.343 667.799 445.093ZM681.729 444.023C681.109 444.023 680.648 444.044 680.346 444.086C680.044 444.122 679.781 444.187 679.557 444.281C679.203 444.422 678.919 444.653 678.706 444.976C678.492 445.294 678.385 445.643 678.385 446.023C678.385 446.455 678.518 446.802 678.784 447.062C679.055 447.317 679.419 447.445 679.877 447.445C680.648 447.445 681.312 447.169 681.87 446.617C682.432 446.065 682.812 445.307 683.01 444.343L683.073 444.023H681.729ZM684.627 443.429L683.651 448.422H682.213L682.463 447.125C682.088 447.614 681.646 447.992 681.135 448.257C680.625 448.518 680.083 448.648 679.51 448.648C678.713 448.648 678.075 448.432 677.596 448C677.122 447.562 676.885 446.984 676.885 446.265C676.885 445.244 677.286 444.429 678.088 443.82C678.896 443.205 679.987 442.898 681.362 442.898H683.284L683.377 442.422C683.388 442.375 683.396 442.325 683.401 442.273C683.406 442.221 683.409 442.148 683.409 442.054C683.409 441.612 683.245 441.273 682.917 441.039C682.588 440.799 682.12 440.679 681.51 440.679C681.062 440.679 680.578 440.747 680.057 440.882C679.542 441.013 678.995 441.211 678.417 441.476L678.69 440.07C679.252 439.867 679.786 439.716 680.292 439.617C680.797 439.513 681.281 439.461 681.745 439.461C682.713 439.461 683.466 439.674 684.002 440.101C684.544 440.528 684.815 441.119 684.815 441.875C684.815 442.041 684.799 442.26 684.768 442.531C684.737 442.802 684.69 443.101 684.627 443.429ZM690.651 445.234C690.614 445.416 690.586 445.578 690.565 445.718C690.549 445.859 690.542 445.976 690.542 446.07C690.542 446.45 690.656 446.734 690.885 446.922C691.12 447.109 691.474 447.203 691.948 447.203H693.596L693.354 448.422H691.737C690.836 448.422 690.164 448.257 689.721 447.929C689.284 447.596 689.065 447.088 689.065 446.406C689.065 446.26 689.078 446.083 689.104 445.875C689.13 445.666 689.167 445.442 689.213 445.203L690.862 437.304H688.393L688.62 436.179H692.526L690.651 445.234ZM698.401 439.672H702.081L700.596 447.304H703.448L703.221 448.422H696.081L696.307 447.304H699.159L700.417 440.789H698.182L698.401 439.672ZM701.299 436.265H702.737L702.385 438.086H700.948L701.299 436.265ZM711.245 437.187L710.768 439.672H714.026L713.807 440.789H710.542L709.612 445.539C709.581 445.695 709.557 445.841 709.542 445.976C709.526 446.106 709.518 446.229 709.518 446.343C709.518 446.687 709.62 446.929 709.823 447.07C710.026 447.205 710.393 447.273 710.924 447.273H712.542L712.315 448.422H710.573C709.703 448.422 709.062 448.278 708.651 447.992C708.245 447.7 708.042 447.247 708.042 446.632C708.042 446.502 708.052 446.349 708.073 446.172C708.094 445.994 708.127 445.783 708.174 445.539L709.104 440.789H706.768L706.987 439.672H709.323L709.807 437.187H711.245ZM721.026 445.609C720.703 446.166 720.273 446.916 719.737 447.859C718.93 449.291 718.385 450.198 718.104 450.578C717.802 450.974 717.456 451.268 717.065 451.461C716.68 451.653 716.237 451.75 715.737 451.75H714.581L714.807 450.547H715.651C716.073 450.547 716.435 450.424 716.737 450.179C717.044 449.94 717.354 449.526 717.667 448.937L718.002 448.281L716.307 439.672H717.737L719.081 446.406L722.854 439.672H724.456L721.026 445.609ZM740.01 440.562C740.213 440.208 740.476 439.937 740.799 439.75C741.127 439.557 741.492 439.461 741.893 439.461C742.341 439.461 742.698 439.604 742.963 439.89C743.234 440.172 743.37 440.552 743.37 441.031C743.37 441.312 743.346 441.63 743.299 441.984C743.252 442.338 743.174 442.794 743.065 443.351L742.073 448.422H740.76L741.737 443.414C741.831 442.935 741.901 442.544 741.948 442.242C742 441.935 742.026 441.718 742.026 441.593C742.026 441.265 741.966 441.028 741.846 440.882C741.726 440.737 741.534 440.664 741.268 440.664C740.877 440.664 740.573 440.833 740.354 441.172C740.135 441.505 739.914 442.252 739.69 443.414L738.713 448.422H737.401L738.377 443.414C738.476 442.908 738.547 442.51 738.588 442.218C738.635 441.922 738.659 441.713 738.659 441.593C738.659 441.276 738.596 441.041 738.471 440.89C738.351 440.739 738.164 440.664 737.909 440.664C737.523 440.664 737.224 440.82 737.01 441.132C736.802 441.44 736.581 442.2 736.346 443.414L735.37 448.422H734.057L735.752 439.672H737.065L736.917 440.422C737.146 440.109 737.403 439.872 737.69 439.711C737.982 439.544 738.294 439.461 738.627 439.461C739.018 439.461 739.333 439.56 739.573 439.757C739.812 439.95 739.958 440.218 740.01 440.562ZM751.135 443.273C751.167 443.132 751.187 443.018 751.198 442.929C751.208 442.836 751.213 442.747 751.213 442.664C751.213 442.039 751.044 441.552 750.706 441.203C750.367 440.854 749.896 440.679 749.292 440.679C748.651 440.679 748.065 440.914 747.534 441.382C747.008 441.851 746.63 442.481 746.401 443.273H751.135ZM751.315 447.976C750.768 448.2 750.234 448.367 749.713 448.476C749.193 448.591 748.664 448.648 748.127 448.648C746.966 448.648 746.083 448.359 745.479 447.781C744.875 447.198 744.573 446.349 744.573 445.234C744.573 444.422 744.729 443.625 745.042 442.843C745.354 442.062 745.786 441.388 746.338 440.82C746.771 440.372 747.247 440.031 747.768 439.797C748.294 439.562 748.841 439.445 749.409 439.445C750.377 439.445 751.151 439.744 751.729 440.343C752.312 440.937 752.604 441.731 752.604 442.726C752.604 442.903 752.591 443.125 752.565 443.39C752.539 443.651 752.495 443.984 752.432 444.39H746.127C746.096 444.557 746.073 444.708 746.057 444.843C746.042 444.979 746.034 445.099 746.034 445.203C746.034 445.927 746.234 446.479 746.635 446.859C747.036 447.239 747.62 447.429 748.385 447.429C748.844 447.429 749.344 447.356 749.885 447.211C750.432 447.06 751.002 446.838 751.596 446.547L751.315 447.976ZM761.846 443L760.792 448.422H759.354L760.409 442.992C760.414 442.971 760.422 442.935 760.432 442.882C760.51 442.513 760.549 442.226 760.549 442.023C760.549 441.601 760.427 441.278 760.182 441.054C759.943 440.825 759.596 440.711 759.143 440.711C758.482 440.711 757.919 440.953 757.456 441.437C756.992 441.922 756.674 442.601 756.502 443.476L755.542 448.422H754.104L755.815 439.672H757.252L757.002 440.984C757.393 440.479 757.815 440.099 758.268 439.843C758.726 439.588 759.211 439.461 759.721 439.461C760.445 439.461 761.008 439.651 761.409 440.031C761.81 440.406 762.01 440.932 762.01 441.609C762.01 441.776 761.995 441.981 761.963 442.226C761.937 442.471 761.898 442.729 761.846 443ZM769.088 437.187L768.612 439.672H771.87L771.651 440.789H768.385L767.456 445.539C767.424 445.695 767.401 445.841 767.385 445.976C767.37 446.106 767.362 446.229 767.362 446.343C767.362 446.687 767.463 446.929 767.667 447.07C767.87 447.205 768.237 447.273 768.768 447.273H770.385L770.159 448.422H768.417C767.547 448.422 766.906 448.278 766.495 447.992C766.088 447.7 765.885 447.247 765.885 446.632C765.885 446.502 765.896 446.349 765.917 446.172C765.937 445.994 765.971 445.783 766.018 445.539L766.948 440.789H764.612L764.831 439.672H767.167L767.651 437.187H769.088ZM778.167 440.679C777.312 440.679 776.599 441.125 776.026 442.015C775.458 442.906 775.174 444.039 775.174 445.414C775.174 446.086 775.32 446.591 775.612 446.929C775.903 447.263 776.341 447.429 776.924 447.429C777.778 447.429 778.489 446.984 779.057 446.093C779.63 445.203 779.917 444.07 779.917 442.695C779.917 442.023 779.771 441.52 779.479 441.187C779.187 440.849 778.75 440.679 778.167 440.679ZM778.299 439.461C779.32 439.461 780.096 439.739 780.627 440.297C781.164 440.854 781.432 441.669 781.432 442.742C781.432 443.461 781.325 444.177 781.112 444.89C780.898 445.599 780.599 446.237 780.213 446.804C779.802 447.419 779.302 447.88 778.713 448.187C778.125 448.494 777.448 448.648 776.682 448.648C775.708 448.648 774.958 448.364 774.432 447.797C773.906 447.224 773.643 446.408 773.643 445.351C773.643 444.648 773.75 443.945 773.963 443.242C774.177 442.539 774.479 441.893 774.87 441.304C775.281 440.7 775.776 440.242 776.354 439.929C776.937 439.617 777.586 439.461 778.299 439.461ZM791.62 441.476C791.385 441.247 791.112 441.075 790.799 440.961C790.492 440.846 790.14 440.789 789.745 440.789C788.89 440.789 788.159 441.088 787.549 441.687C786.94 442.281 786.536 443.096 786.338 444.132L785.502 448.422H784.065L785.76 439.672H787.198L786.885 441.382C787.234 440.757 787.685 440.281 788.237 439.953C788.794 439.625 789.424 439.461 790.127 439.461C790.497 439.461 790.831 439.51 791.127 439.609C791.43 439.703 791.685 439.841 791.893 440.023L791.62 441.476ZM800.424 439.976L800.151 441.382C799.781 441.148 799.39 440.971 798.979 440.851C798.573 440.726 798.169 440.664 797.768 440.664C797.055 440.664 796.5 440.797 796.104 441.062C795.713 441.328 795.518 441.7 795.518 442.179C795.518 442.69 796.094 443.091 797.245 443.382C797.323 443.403 797.38 443.419 797.417 443.429L797.979 443.57C798.588 443.731 799.044 443.974 799.346 444.297C799.648 444.614 799.799 445.013 799.799 445.492C799.799 446.435 799.424 447.198 798.674 447.781C797.924 448.359 796.93 448.648 795.69 448.648C795.268 448.648 794.828 448.601 794.37 448.507C793.911 448.419 793.424 448.283 792.909 448.101L793.198 446.617C793.687 446.893 794.161 447.101 794.62 447.242C795.083 447.377 795.531 447.445 795.963 447.445C796.656 447.445 797.221 447.291 797.659 446.984C798.096 446.672 798.315 446.276 798.315 445.797C798.315 445.281 797.805 444.888 796.784 444.617C796.69 444.596 796.617 444.578 796.565 444.562L796.042 444.422C795.37 444.25 794.875 443.997 794.557 443.664C794.245 443.33 794.088 442.895 794.088 442.359C794.088 441.474 794.432 440.77 795.12 440.25C795.807 439.724 796.734 439.461 797.901 439.461C798.359 439.461 798.799 439.505 799.221 439.593C799.643 439.677 800.044 439.804 800.424 439.976ZM810.049 443L808.995 448.422H807.557L808.612 442.992C808.617 442.971 808.625 442.935 808.635 442.882C808.713 442.513 808.752 442.226 808.752 442.023C808.752 441.601 808.63 441.278 808.385 441.054C808.146 440.825 807.799 440.711 807.346 440.711C806.685 440.711 806.122 440.953 805.659 441.437C805.195 441.922 804.877 442.601 804.706 443.476L803.745 448.422H802.307L804.674 436.265H806.112L805.206 440.984C805.596 440.479 806.018 440.099 806.471 439.843C806.93 439.588 807.414 439.461 807.924 439.461C808.648 439.461 809.211 439.651 809.612 440.031C810.013 440.406 810.213 440.932 810.213 441.609C810.213 441.776 810.198 441.981 810.167 442.226C810.14 442.471 810.101 442.729 810.049 443ZM814.088 439.672H817.768L816.284 447.304H819.135L818.909 448.422H811.768L811.995 447.304H814.846L816.104 440.789H813.87L814.088 439.672ZM816.987 436.265H818.424L818.073 438.086H816.635L816.987 436.265ZM823.221 447.32L822.354 451.75H820.917L823.268 439.672H824.706L824.487 440.789C824.805 440.362 825.187 440.033 825.635 439.804C826.083 439.575 826.568 439.461 827.088 439.461C827.932 439.461 828.586 439.731 829.049 440.273C829.513 440.815 829.745 441.573 829.745 442.547C829.745 443.291 829.64 444.039 829.432 444.789C829.229 445.539 828.945 446.2 828.581 446.773C828.19 447.388 827.729 447.854 827.198 448.172C826.667 448.489 826.083 448.648 825.448 448.648C824.927 448.648 824.482 448.539 824.112 448.32C823.747 448.101 823.45 447.768 823.221 447.32ZM825.377 447.429C825.799 447.429 826.185 447.315 826.534 447.086C826.883 446.851 827.174 446.513 827.409 446.07C827.664 445.591 827.864 445.052 828.01 444.453C828.156 443.849 828.229 443.252 828.229 442.664C828.229 442.002 828.094 441.507 827.823 441.179C827.557 440.846 827.159 440.679 826.627 440.679C826.185 440.679 825.784 440.797 825.424 441.031C825.07 441.265 824.768 441.612 824.518 442.07C824.263 442.528 824.062 443.054 823.917 443.648C823.771 444.242 823.698 444.836 823.698 445.429C823.698 446.07 823.844 446.565 824.135 446.914C824.427 447.257 824.841 447.429 825.377 447.429Z" fill="black"/>
</g>
<rect x="46.5" y="41.9104" width="904" height="494.358" rx="43.5" stroke="#3F3D56" stroke-width="3"/>
</g>
<rect x="46.5" y="41.9104" width="904" height="494.358" rx="43.5" stroke="#3F3D56" stroke-width="3"/>
<defs>
<clipPath id="clip0">
</clipPath>
<clipPath id="clip1">
</clipPath>
</defs>
</svg>
