<svg width="907" height="498" viewBox="0 0 907 498" fill="none" xmlns="http://www.w3.org/2000/svg">
<g clip-path="url(#clip0)">
<path d="M907 89.0342V193.717L905.292 191.081L782.742 2.18004L781.589 0.4104H849.504L850.649 2.18004L905.292 86.3974L907 89.0342Z" fill="#38A169"/>
<path d="M423.268 425.889C434.787 461.804 430.742 495.525 430.742 495.525C430.742 495.525 408.021 471.018 396.502 435.103C384.983 399.188 389.029 365.466 389.029 365.466C389.029 365.466 411.75 389.974 423.268 425.889Z" fill="#38A169"/>
<path d="M438.215 425.889C426.696 461.804 430.742 495.525 430.742 495.525C430.742 495.525 453.463 471.018 464.981 435.103C476.5 399.188 472.455 365.466 472.455 365.466C472.455 365.466 449.734 389.974 438.215 425.889Z" fill="#38A169"/>
<path d="M442.854 426.277C443.626 464.114 430.153 495.096 430.153 495.096C430.153 495.096 415.428 464.732 414.655 426.895C413.883 389.058 427.357 358.076 427.357 358.076C427.357 358.076 442.082 388.44 442.854 426.277Z" fill="#3F3D56"/>
<path d="M430.145 497.375C448.136 497.375 462.72 496.546 462.72 495.523C462.72 494.5 448.136 493.671 430.145 493.671C412.155 493.671 397.57 494.5 397.57 495.523C397.57 496.546 412.155 497.375 430.145 497.375Z" fill="#3F3D56"/>
<path d="M119.578 496.099C129.785 496.099 138.061 487.526 138.061 476.95C138.061 466.375 129.785 457.802 119.578 457.802C109.37 457.802 101.094 466.375 101.094 476.95C101.094 487.526 109.37 496.099 119.578 496.099Z" fill="#F2F2F2"/>
<path d="M122.968 445.971C116.342 445.981 109.99 448.713 105.305 453.568C100.62 458.423 97.9852 465.005 97.9783 471.87C97.9783 472.012 97.9783 472.153 97.9869 472.295C98.0683 477.075 99.4225 481.738 101.9 485.771C104.378 489.804 107.882 493.05 112.028 495.15C113.495 495.899 115.031 496.492 116.614 496.92C120.783 498.052 125.163 498.052 129.331 496.92C130.914 496.492 132.45 495.899 133.917 495.15C139 492.585 143.093 488.311 145.528 483.025C147.964 477.74 148.598 471.755 147.327 466.048C146.057 460.341 142.956 455.249 138.532 451.602C134.108 447.956 128.622 445.971 122.968 445.971ZM129.083 495.15C127.091 495.717 125.034 496.003 122.968 495.999C122.558 495.999 122.148 495.99 121.747 495.964H121.738C120.089 495.879 118.453 495.606 116.862 495.15C113.497 494.195 110.381 492.471 107.743 490.106C105.105 487.74 103.011 484.793 101.617 481.479V481.47C99.7278 476.958 99.2157 471.955 100.149 467.133C101.082 462.311 103.416 457.899 106.837 454.489C110.259 451.08 114.605 448.836 119.292 448.057C123.98 447.279 128.785 448.004 133.064 450.135C137.342 452.266 140.89 455.701 143.231 459.98C145.572 464.258 146.595 469.176 146.162 474.074C145.728 478.972 143.861 483.616 140.808 487.383C137.756 491.15 133.665 493.86 129.083 495.15V495.15Z" fill="#3F3D56"/>
<path d="M350.167 345.491H211.808V370.944H350.167V345.491Z" fill="#F2F2F2"/>
<path d="M797.616 269.396H592.802C584.738 269.396 578.202 275.933 578.202 283.996C578.202 292.059 584.738 298.595 592.802 298.595H797.616C805.679 298.595 812.216 292.059 812.216 283.996C812.216 275.933 805.679 269.396 797.616 269.396Z" fill="#F2F2F2"/>
<path d="M193.864 337.784V373.177H378.342V337.784H193.864ZM376.634 371.407H195.572V339.554H376.634V371.407Z" fill="#3F3D56"/>
<path d="M501.328 147.548C506.045 147.548 509.868 143.586 509.868 138.699C509.868 133.813 506.045 129.851 501.328 129.851C496.611 129.851 492.787 133.813 492.787 138.699C492.787 143.586 496.611 147.548 501.328 147.548Z" fill="#3F3D56"/>
<path d="M501.328 202.406C506.045 202.406 509.868 198.445 509.868 193.558C509.868 188.671 506.045 184.71 501.328 184.71C496.611 184.71 492.787 188.671 492.787 193.558C492.787 198.445 496.611 202.406 501.328 202.406Z" fill="#3F3D56"/>
<path d="M501.328 257.265C506.045 257.265 509.868 253.304 509.868 248.417C509.868 243.53 506.045 239.569 501.328 239.569C496.611 239.569 492.787 243.53 492.787 248.417C492.787 253.304 496.611 257.265 501.328 257.265Z" fill="#3F3D56"/>
<path d="M501.328 312.124C506.045 312.124 509.868 308.163 509.868 303.276C509.868 298.389 506.045 294.428 501.328 294.428C496.611 294.428 492.787 298.389 492.787 303.276C492.787 308.163 496.611 312.124 501.328 312.124Z" fill="#3F3D56"/>
<path d="M501.328 366.983C506.045 366.983 509.868 363.022 509.868 358.135C509.868 353.248 506.045 349.287 501.328 349.287C496.611 349.287 492.787 353.248 492.787 358.135C492.787 363.022 496.611 366.983 501.328 366.983Z" fill="#3F3D56"/>
<path d="M501.328 421.842C506.045 421.842 509.868 417.881 509.868 412.994C509.868 408.107 506.045 404.146 501.328 404.146C496.611 404.146 492.787 408.107 492.787 412.994C492.787 417.881 496.611 421.842 501.328 421.842Z" fill="#3F3D56"/>
<path d="M811.014 143.401H577V145.171H811.014V143.401Z" fill="#3F3D56"/>
<path d="M806.014 198.318H572V200.087H806.014V198.318Z" fill="#3F3D56"/>
<path d="M807.014 253.234H573V255.004H807.014V253.234Z" fill="#3F3D56"/>
<path d="M808.014 308.151H574V309.921H808.014V308.151Z" fill="#3F3D56"/>
<path d="M810.014 363.068H576V364.837H810.014V363.068Z" fill="#3F3D56"/>
<path d="M810.014 420.057H576V421.826H810.014V420.057Z" fill="#3F3D56"/>
<path d="M854.364 463.363L831.914 444.282L850.332 421.023L872.783 440.105L854.364 463.363ZM834.318 444.036L854.127 460.873L870.379 440.35L850.569 423.513L834.318 444.036Z" fill="#3F3D56"/>
<path d="M529.1 47.3663L507.971 29.4077L490.636 51.2981L511.766 69.2567L529.1 47.3663Z" fill="#38A169"/>
<path d="M399.694 193.558C399.732 218.516 392.072 242.834 377.83 262.964C376.207 265.264 374.507 267.512 372.722 269.679C367.681 275.835 362.043 281.439 355.897 286.402C355.282 286.898 354.659 287.393 354.027 287.88C351.721 289.667 349.35 291.363 346.913 292.968C346.17 293.455 345.427 293.932 344.675 294.392C342.975 295.463 341.245 296.484 339.482 297.454C338.62 297.932 337.749 298.401 336.877 298.852C318.976 308.105 299.034 312.3 279.067 311.012C259.1 309.724 239.814 302.999 223.159 291.517C222.271 290.915 221.399 290.296 220.537 289.659C218.914 288.473 217.317 287.234 215.762 285.96C214.328 284.792 212.927 283.58 211.552 282.341C204.313 275.819 197.899 268.375 192.464 260.185C191.405 258.584 190.38 256.956 189.389 255.301C180.176 239.812 174.556 222.321 172.968 204.201C171.381 186.082 173.87 167.828 180.24 150.874C186.61 133.919 196.688 118.725 209.682 106.486C222.675 94.2472 238.231 85.2958 255.127 80.3353C272.023 75.3749 289.799 74.5404 307.059 77.8975C324.319 81.2546 340.592 88.7118 354.601 99.6834C368.61 110.655 379.973 124.842 387.797 141.13C395.621 157.419 399.693 175.364 399.694 193.558Z" fill="#F2F2F2"/>
<path d="M281.825 187.752C298.917 187.752 312.772 173.398 312.772 155.691C312.772 137.984 298.917 123.63 281.825 123.63C264.734 123.63 250.879 137.984 250.879 155.691C250.879 173.398 264.734 187.752 281.825 187.752Z" fill="#A0616A"/>
<path d="M260.55 171.054C260.55 171.054 270.865 195.099 256.681 204.45C242.498 213.801 279.891 252.541 279.891 252.541L321.153 207.122C321.153 207.122 299.233 192.427 303.101 168.382L260.55 171.054Z" fill="#A0616A"/>
<path d="M355.897 286.403C355.283 286.898 354.659 287.394 354.027 287.88C351.721 289.668 349.35 291.363 346.913 292.968C346.17 293.455 345.427 293.932 344.675 294.392L344.359 292.614L347.331 291.012L355.897 286.403Z" fill="#A0616A"/>
<path d="M344.675 294.393C345.427 293.933 346.17 293.455 346.913 292.968L346.938 292.614L347.331 291.013L363.704 224.492L314.074 200.832L285.053 219.147L259.055 202.539C259.055 202.539 243.784 203.114 239.915 207.123C236.883 210.264 222.014 217.493 215.694 220.483C213.935 221.315 212.842 221.82 212.842 221.82C212.842 221.82 213.815 252.134 215.762 285.96C217.317 287.234 218.914 288.473 220.537 289.659C221.399 290.296 222.27 290.915 223.159 291.517C239.814 302.999 259.1 309.724 279.067 311.012C299.034 312.3 318.976 308.105 336.877 298.852L344.675 294.393Z" fill="#38A169"/>
<path d="M223.159 220.483V291.517C222.27 290.915 221.399 290.296 220.537 289.659C218.914 288.473 217.317 287.234 215.762 285.96C214.328 284.792 212.927 283.58 211.552 282.341C204.313 275.82 197.899 268.375 192.464 260.185C191.405 258.584 190.38 256.956 189.389 255.301C190.226 252.452 191.165 249.305 192.207 245.86C198.656 224.492 212.842 220.483 212.842 220.483H223.159Z" fill="#38A169"/>
<path d="M344.675 294.393C345.427 293.932 346.17 293.455 346.913 292.968C349.347 291.366 351.718 289.671 354.027 287.88C354.659 287.394 355.283 286.898 355.897 286.403C362.043 281.439 367.681 275.835 372.723 269.679C374.508 267.512 376.207 265.264 377.83 262.964C372.577 245.957 363.704 224.492 363.704 224.492L345.649 223.156C345.649 223.156 338.321 283.925 336.877 298.852L344.675 294.393Z" fill="#38A169"/>
<path d="M262.851 118.582C261.303 119.948 259.688 121.228 258.011 122.419C255.896 124.237 253.943 126.247 252.175 128.425L250.18 130.739C248.482 132.709 246.68 134.957 246.752 137.597C246.778 138.576 247.069 139.527 247.183 140.5C247.634 144.358 245.357 148.6 247.231 151.967C247.773 152.941 248.611 153.702 249.209 154.64C249.969 155.843 250.305 157.28 250.162 158.709C252.176 158.795 253.828 156.925 254.459 154.942C255.091 152.959 255.006 150.817 255.313 148.753C255.621 146.689 256.485 144.504 258.295 143.585C262.157 141.625 266.592 146.722 270.714 145.452C273.592 144.565 275.11 140.868 278.053 140.249C280.159 139.805 282.186 141.101 284.144 142.02C286.102 142.939 288.741 143.365 290.125 141.661C291.041 140.534 291.139 138.726 292.355 137.96C293.812 137.042 295.636 138.32 296.739 139.668C297.842 141.015 299.06 142.663 300.765 142.614C303.027 142.549 304.759 139.429 306.905 140.169C309.328 141.004 308.214 145.021 309.684 147.184C310.927 149.013 313.529 148.905 315.668 148.603C316.029 148.641 316.393 148.583 316.727 148.436C317.06 148.288 317.352 148.055 317.575 147.759C317.798 147.463 317.944 147.113 318.001 146.742C318.058 146.371 318.023 145.991 317.9 145.638L317.006 133.363C317.002 132.518 316.824 131.682 316.482 130.914C315.86 129.746 314.572 129.155 313.696 128.178C311.855 126.123 311.943 122.522 309.653 121.028C308.464 120.252 306.908 120.275 305.727 119.486C304.213 118.474 303.725 116.446 302.665 114.937C301.148 112.779 298.497 111.778 295.934 111.504C293.372 111.229 290.785 111.56 288.21 111.473C282.974 111.297 277.739 109.77 272.478 110.664C267.888 111.443 265.96 115.478 262.851 118.582Z" fill="#2F2E41"/>
<path d="M872.869 112.514C874.843 112.514 876.444 110.856 876.444 108.81C876.444 106.764 874.843 105.106 872.869 105.106C870.894 105.106 869.293 106.764 869.293 108.81C869.293 110.856 870.894 112.514 872.869 112.514Z" fill="#3F3D56"/>
<path d="M848.101 67.3881C850.075 67.3881 851.676 65.7298 851.676 63.6841C851.676 61.6384 850.075 59.98 848.101 59.98C846.126 59.98 844.526 61.6384 844.526 63.6841C844.526 65.7298 846.126 67.3881 848.101 67.3881Z" fill="#3F3D56"/>
<path d="M837.852 18.7228C839.827 18.7228 841.427 17.0645 841.427 15.0188C841.427 12.9731 839.827 11.3147 837.852 11.3147C835.877 11.3147 834.277 12.9731 834.277 15.0188C834.277 17.0645 835.877 18.7228 837.852 18.7228Z" fill="#3F3D56"/>
<path d="M798 109H594C585.716 109 579 115.716 579 124C579 132.284 585.716 139 594 139H798C806.284 139 813 132.284 813 124C813 115.716 806.284 109 798 109Z" fill="#F2F2F2"/>
<path d="M618.081 129.672H620.526L622.252 120.758L619.502 121.352L619.776 119.914L622.526 119.336H624.112L622.096 129.672H624.51L624.252 131H617.823L618.081 129.672ZM632.393 119.125C633.638 119.083 634.484 119.565 634.932 120.57C635.385 121.576 635.432 123.078 635.073 125.078C634.713 127.083 634.122 128.607 633.299 129.648C632.476 130.69 631.443 131.229 630.198 131.266C628.953 131.302 628.107 130.82 627.659 129.82C627.211 128.815 627.164 127.312 627.518 125.312C627.883 123.307 628.474 121.784 629.292 120.742C630.114 119.701 631.148 119.161 632.393 119.125ZM630.424 130C631.164 129.979 631.786 129.568 632.292 128.766C632.797 127.964 633.195 126.75 633.487 125.125C633.648 124.26 633.739 123.482 633.76 122.789L628.979 128.766C629.213 129.615 629.695 130.026 630.424 130ZM632.167 120.391C631.432 120.411 630.812 120.823 630.307 121.625C629.802 122.427 629.401 123.641 629.104 125.266C628.969 126 628.893 126.69 628.877 127.336L633.573 121.375C633.307 120.693 632.838 120.365 632.167 120.391ZM642.034 119.125C643.278 119.083 644.125 119.565 644.573 120.57C645.026 121.576 645.073 123.078 644.713 125.078C644.354 127.083 643.763 128.607 642.94 129.648C642.117 130.69 641.083 131.229 639.838 131.266C638.594 131.302 637.747 130.82 637.299 129.82C636.851 128.815 636.805 127.312 637.159 125.312C637.523 123.307 638.114 121.784 638.932 120.742C639.755 119.701 640.789 119.161 642.034 119.125ZM640.065 130C640.805 129.979 641.427 129.568 641.932 128.766C642.437 127.964 642.836 126.75 643.127 125.125C643.289 124.26 643.38 123.482 643.401 122.789L638.62 128.766C638.854 129.615 639.336 130.026 640.065 130ZM641.807 120.391C641.073 120.411 640.453 120.823 639.948 121.625C639.443 122.427 639.042 123.641 638.745 125.266C638.609 126 638.534 126.69 638.518 127.336L643.213 121.375C642.948 120.693 642.479 120.365 641.807 120.391ZM651.221 128.508C651.221 128.914 651.357 129.255 651.627 129.531C651.903 129.807 652.245 129.945 652.651 129.945C653.052 129.945 653.39 129.807 653.667 129.531C653.948 129.25 654.088 128.909 654.088 128.508C654.088 128.107 653.948 127.766 653.667 127.484C653.385 127.203 653.047 127.062 652.651 127.062C652.245 127.062 651.903 127.201 651.627 127.477C651.357 127.753 651.221 128.096 651.221 128.508ZM650.167 128.508C650.167 127.805 650.406 127.214 650.885 126.734C651.364 126.25 651.953 126.008 652.651 126.008C652.984 126.008 653.299 126.07 653.596 126.195C653.898 126.32 654.169 126.503 654.409 126.742C654.648 126.987 654.833 127.26 654.963 127.562C655.094 127.865 655.159 128.18 655.159 128.508C655.159 129.201 654.917 129.789 654.432 130.273C653.948 130.758 653.354 131 652.651 131C651.943 131 651.351 130.763 650.877 130.289C650.403 129.81 650.167 129.216 650.167 128.508ZM646.432 127.562L646.088 126.68L654.799 123.195L655.19 124.078L646.432 127.562ZM647.096 122.312C647.096 122.724 647.232 123.068 647.502 123.344C647.778 123.615 648.122 123.75 648.534 123.75C648.935 123.75 649.276 123.612 649.557 123.336C649.838 123.055 649.979 122.714 649.979 122.312C649.979 121.911 649.838 121.573 649.557 121.297C649.276 121.016 648.935 120.875 648.534 120.875C648.133 120.875 647.792 121.013 647.51 121.289C647.234 121.565 647.096 121.906 647.096 122.312ZM646.042 122.312C646.042 121.609 646.281 121.018 646.76 120.539C647.239 120.055 647.831 119.812 648.534 119.812C648.867 119.812 649.185 119.875 649.487 120C649.794 120.125 650.065 120.305 650.299 120.539C650.534 120.773 650.713 121.044 650.838 121.352C650.969 121.654 651.034 121.974 651.034 122.312C651.034 123.01 650.792 123.602 650.307 124.086C649.823 124.565 649.232 124.805 648.534 124.805C647.831 124.805 647.239 124.565 646.76 124.086C646.281 123.607 646.042 123.016 646.042 122.312ZM674.792 118.844L674.549 120.039H672.924C672.43 120.039 672.057 120.148 671.807 120.367C671.557 120.581 671.38 120.951 671.276 121.477L671.112 122.25H674.12L673.917 123.367H670.909L669.417 131H667.979L669.463 123.367H667.127L667.354 122.25H669.674L669.799 121.641C669.997 120.635 670.346 119.919 670.846 119.492C671.351 119.06 672.091 118.844 673.065 118.844H674.792ZM683.956 124.055C683.721 123.826 683.448 123.654 683.135 123.539C682.828 123.424 682.476 123.367 682.081 123.367C681.226 123.367 680.495 123.667 679.885 124.266C679.276 124.859 678.872 125.674 678.674 126.711L677.838 131H676.401L678.096 122.25H679.534L679.221 123.961C679.57 123.336 680.021 122.859 680.573 122.531C681.13 122.203 681.76 122.039 682.463 122.039C682.833 122.039 683.167 122.089 683.463 122.188C683.765 122.281 684.021 122.419 684.229 122.602L683.956 124.055ZM691.674 125.852C691.706 125.711 691.726 125.596 691.737 125.508C691.747 125.414 691.752 125.326 691.752 125.242C691.752 124.617 691.583 124.13 691.245 123.781C690.906 123.432 690.435 123.258 689.831 123.258C689.19 123.258 688.604 123.492 688.073 123.961C687.547 124.43 687.169 125.06 686.94 125.852H691.674ZM691.854 130.555C691.307 130.779 690.773 130.945 690.252 131.055C689.732 131.169 689.203 131.227 688.667 131.227C687.505 131.227 686.622 130.938 686.018 130.359C685.414 129.776 685.112 128.927 685.112 127.812C685.112 127 685.268 126.203 685.581 125.422C685.893 124.641 686.325 123.966 686.877 123.398C687.31 122.951 687.786 122.609 688.307 122.375C688.833 122.141 689.38 122.023 689.948 122.023C690.917 122.023 691.69 122.323 692.268 122.922C692.851 123.516 693.143 124.31 693.143 125.305C693.143 125.482 693.13 125.703 693.104 125.969C693.078 126.229 693.034 126.562 692.971 126.969H686.667C686.635 127.135 686.612 127.286 686.596 127.422C686.581 127.557 686.573 127.677 686.573 127.781C686.573 128.505 686.773 129.057 687.174 129.438C687.575 129.818 688.159 130.008 688.924 130.008C689.383 130.008 689.883 129.935 690.424 129.789C690.971 129.638 691.542 129.417 692.135 129.125L691.854 130.555ZM701.315 125.852C701.346 125.711 701.367 125.596 701.377 125.508C701.388 125.414 701.393 125.326 701.393 125.242C701.393 124.617 701.224 124.13 700.885 123.781C700.547 123.432 700.075 123.258 699.471 123.258C698.831 123.258 698.245 123.492 697.713 123.961C697.187 124.43 696.81 125.06 696.581 125.852H701.315ZM701.495 130.555C700.948 130.779 700.414 130.945 699.893 131.055C699.372 131.169 698.844 131.227 698.307 131.227C697.146 131.227 696.263 130.938 695.659 130.359C695.055 129.776 694.752 128.927 694.752 127.812C694.752 127 694.909 126.203 695.221 125.422C695.534 124.641 695.966 123.966 696.518 123.398C696.95 122.951 697.427 122.609 697.948 122.375C698.474 122.141 699.021 122.023 699.588 122.023C700.557 122.023 701.331 122.323 701.909 122.922C702.492 123.516 702.784 124.31 702.784 125.305C702.784 125.482 702.771 125.703 702.745 125.969C702.719 126.229 702.674 126.562 702.612 126.969H696.307C696.276 127.135 696.252 127.286 696.237 127.422C696.221 127.557 696.213 127.677 696.213 127.781C696.213 128.505 696.414 129.057 696.815 129.438C697.216 129.818 697.799 130.008 698.565 130.008C699.023 130.008 699.523 129.935 700.065 129.789C700.612 129.638 701.182 129.417 701.776 129.125L701.495 130.555ZM717.956 127.812C717.919 127.995 717.89 128.156 717.87 128.297C717.854 128.438 717.846 128.555 717.846 128.648C717.846 129.029 717.961 129.312 718.19 129.5C718.424 129.688 718.778 129.781 719.252 129.781H720.901L720.659 131H719.042C718.14 131 717.469 130.836 717.026 130.508C716.588 130.174 716.37 129.667 716.37 128.984C716.37 128.839 716.383 128.661 716.409 128.453C716.435 128.245 716.471 128.021 716.518 127.781L718.167 119.883H715.698L715.924 118.758H719.831L717.956 127.812ZM730.237 125.852C730.268 125.711 730.289 125.596 730.299 125.508C730.31 125.414 730.315 125.326 730.315 125.242C730.315 124.617 730.146 124.13 729.807 123.781C729.469 123.432 728.997 123.258 728.393 123.258C727.752 123.258 727.167 123.492 726.635 123.961C726.109 124.43 725.732 125.06 725.502 125.852H730.237ZM730.417 130.555C729.87 130.779 729.336 130.945 728.815 131.055C728.294 131.169 727.765 131.227 727.229 131.227C726.068 131.227 725.185 130.938 724.581 130.359C723.976 129.776 723.674 128.927 723.674 127.812C723.674 127 723.831 126.203 724.143 125.422C724.456 124.641 724.888 123.966 725.44 123.398C725.872 122.951 726.349 122.609 726.87 122.375C727.396 122.141 727.943 122.023 728.51 122.023C729.479 122.023 730.252 122.323 730.831 122.922C731.414 123.516 731.706 124.31 731.706 125.305C731.706 125.482 731.693 125.703 731.667 125.969C731.64 126.229 731.596 126.562 731.534 126.969H725.229C725.198 127.135 725.174 127.286 725.159 127.422C725.143 127.557 725.135 127.677 725.135 127.781C725.135 128.505 725.336 129.057 725.737 129.438C726.138 129.818 726.721 130.008 727.487 130.008C727.945 130.008 728.445 129.935 728.987 129.789C729.534 129.638 730.104 129.417 730.698 129.125L730.417 130.555ZM740.963 122.555L740.69 123.961C740.32 123.727 739.93 123.549 739.518 123.43C739.112 123.305 738.708 123.242 738.307 123.242C737.594 123.242 737.039 123.375 736.643 123.641C736.252 123.906 736.057 124.279 736.057 124.758C736.057 125.268 736.633 125.669 737.784 125.961C737.862 125.982 737.919 125.997 737.956 126.008L738.518 126.148C739.127 126.31 739.583 126.552 739.885 126.875C740.187 127.193 740.338 127.591 740.338 128.07C740.338 129.013 739.963 129.776 739.213 130.359C738.463 130.938 737.469 131.227 736.229 131.227C735.807 131.227 735.367 131.18 734.909 131.086C734.45 130.997 733.963 130.862 733.448 130.68L733.737 129.195C734.226 129.471 734.7 129.68 735.159 129.82C735.622 129.956 736.07 130.023 736.502 130.023C737.195 130.023 737.76 129.87 738.198 129.562C738.635 129.25 738.854 128.854 738.854 128.375C738.854 127.859 738.344 127.466 737.323 127.195C737.229 127.174 737.156 127.156 737.104 127.141L736.581 127C735.909 126.828 735.414 126.576 735.096 126.242C734.784 125.909 734.627 125.474 734.627 124.938C734.627 124.052 734.971 123.349 735.659 122.828C736.346 122.302 737.273 122.039 738.44 122.039C738.898 122.039 739.338 122.083 739.76 122.172C740.182 122.255 740.583 122.383 740.963 122.555ZM750.604 122.555L750.331 123.961C749.961 123.727 749.57 123.549 749.159 123.43C748.752 123.305 748.349 123.242 747.948 123.242C747.234 123.242 746.68 123.375 746.284 123.641C745.893 123.906 745.698 124.279 745.698 124.758C745.698 125.268 746.273 125.669 747.424 125.961C747.502 125.982 747.56 125.997 747.596 126.008L748.159 126.148C748.768 126.31 749.224 126.552 749.526 126.875C749.828 127.193 749.979 127.591 749.979 128.07C749.979 129.013 749.604 129.776 748.854 130.359C748.104 130.938 747.109 131.227 745.87 131.227C745.448 131.227 745.008 131.18 744.549 131.086C744.091 130.997 743.604 130.862 743.088 130.68L743.377 129.195C743.867 129.471 744.341 129.68 744.799 129.82C745.263 129.956 745.711 130.023 746.143 130.023C746.836 130.023 747.401 129.87 747.838 129.562C748.276 129.25 748.495 128.854 748.495 128.375C748.495 127.859 747.984 127.466 746.963 127.195C746.87 127.174 746.797 127.156 746.745 127.141L746.221 127C745.549 126.828 745.055 126.576 744.737 126.242C744.424 125.909 744.268 125.474 744.268 124.938C744.268 124.052 744.612 123.349 745.299 122.828C745.987 122.302 746.914 122.039 748.081 122.039C748.539 122.039 748.979 122.083 749.401 122.172C749.823 122.255 750.224 122.383 750.604 122.555ZM757.268 123.258C756.414 123.258 755.7 123.703 755.127 124.594C754.56 125.484 754.276 126.617 754.276 127.992C754.276 128.664 754.422 129.169 754.713 129.508C755.005 129.841 755.443 130.008 756.026 130.008C756.88 130.008 757.591 129.562 758.159 128.672C758.732 127.781 759.018 126.648 759.018 125.273C759.018 124.602 758.872 124.099 758.581 123.766C758.289 123.427 757.851 123.258 757.268 123.258ZM757.401 122.039C758.422 122.039 759.198 122.318 759.729 122.875C760.265 123.432 760.534 124.247 760.534 125.32C760.534 126.039 760.427 126.755 760.213 127.469C760 128.177 759.7 128.815 759.315 129.383C758.903 129.997 758.403 130.458 757.815 130.766C757.226 131.073 756.549 131.227 755.784 131.227C754.81 131.227 754.06 130.943 753.534 130.375C753.008 129.802 752.745 128.987 752.745 127.93C752.745 127.227 752.851 126.523 753.065 125.82C753.278 125.117 753.581 124.471 753.971 123.883C754.383 123.279 754.877 122.82 755.456 122.508C756.039 122.195 756.687 122.039 757.401 122.039ZM769.87 125.578L768.815 131H767.377L768.432 125.57C768.437 125.549 768.445 125.513 768.456 125.461C768.534 125.091 768.573 124.805 768.573 124.602C768.573 124.18 768.45 123.857 768.206 123.633C767.966 123.404 767.62 123.289 767.167 123.289C766.505 123.289 765.943 123.531 765.479 124.016C765.015 124.5 764.698 125.18 764.526 126.055L763.565 131H762.127L763.838 122.25H765.276L765.026 123.562C765.417 123.057 765.838 122.677 766.292 122.422C766.75 122.167 767.234 122.039 767.745 122.039C768.469 122.039 769.031 122.229 769.432 122.609C769.833 122.984 770.034 123.51 770.034 124.188C770.034 124.354 770.018 124.56 769.987 124.805C769.961 125.049 769.922 125.307 769.87 125.578ZM779.526 122.555L779.252 123.961C778.883 123.727 778.492 123.549 778.081 123.43C777.674 123.305 777.271 123.242 776.87 123.242C776.156 123.242 775.601 123.375 775.206 123.641C774.815 123.906 774.62 124.279 774.62 124.758C774.62 125.268 775.195 125.669 776.346 125.961C776.424 125.982 776.482 125.997 776.518 126.008L777.081 126.148C777.69 126.31 778.146 126.552 778.448 126.875C778.75 127.193 778.901 127.591 778.901 128.07C778.901 129.013 778.526 129.776 777.776 130.359C777.026 130.938 776.031 131.227 774.792 131.227C774.37 131.227 773.93 131.18 773.471 131.086C773.013 130.997 772.526 130.862 772.01 130.68L772.299 129.195C772.789 129.471 773.263 129.68 773.721 129.82C774.185 129.956 774.633 130.023 775.065 130.023C775.758 130.023 776.323 129.87 776.76 129.562C777.198 129.25 777.417 128.854 777.417 128.375C777.417 127.859 776.906 127.466 775.885 127.195C775.792 127.174 775.719 127.156 775.667 127.141L775.143 127C774.471 126.828 773.976 126.576 773.659 126.242C773.346 125.909 773.19 125.474 773.19 124.938C773.19 124.052 773.534 123.349 774.221 122.828C774.909 122.302 775.836 122.039 777.002 122.039C777.461 122.039 777.901 122.083 778.323 122.172C778.745 122.255 779.146 122.383 779.526 122.555Z" fill="black"/>
<path d="M801.094 164H596.521C588.395 164 581.807 170.587 581.807 178.713C581.807 186.84 588.395 193.427 596.521 193.427H801.094C809.22 193.427 815.807 186.84 815.807 178.713C815.807 170.587 809.22 164 801.094 164Z" fill="#F2F2F2"/>
<path d="M597.67 183.548H600.115L601.842 174.634L599.092 175.227L599.365 173.79L602.115 173.212H603.701L601.686 183.548H604.1L603.842 184.876H597.412L597.67 183.548ZM614.506 176.43L614.233 177.837C613.863 177.602 613.472 177.425 613.061 177.305C612.654 177.18 612.251 177.118 611.85 177.118C611.136 177.118 610.581 177.251 610.186 177.516C609.795 177.782 609.6 178.154 609.6 178.634C609.6 179.144 610.175 179.545 611.326 179.837C611.404 179.858 611.462 179.873 611.498 179.884L612.061 180.024C612.67 180.186 613.126 180.428 613.428 180.751C613.73 181.068 613.881 181.467 613.881 181.946C613.881 182.889 613.506 183.652 612.756 184.235C612.006 184.813 611.011 185.102 609.772 185.102C609.35 185.102 608.91 185.055 608.451 184.962C607.993 184.873 607.506 184.738 606.99 184.555L607.279 183.071C607.769 183.347 608.243 183.555 608.701 183.696C609.165 183.831 609.613 183.899 610.045 183.899C610.738 183.899 611.303 183.746 611.74 183.438C612.178 183.126 612.397 182.73 612.397 182.251C612.397 181.735 611.886 181.342 610.865 181.071C610.772 181.05 610.699 181.032 610.647 181.016L610.123 180.876C609.451 180.704 608.956 180.451 608.639 180.118C608.326 179.785 608.17 179.35 608.17 178.813C608.17 177.928 608.514 177.225 609.201 176.704C609.889 176.178 610.816 175.915 611.983 175.915C612.441 175.915 612.881 175.959 613.303 176.048C613.725 176.131 614.126 176.259 614.506 176.43ZM621.733 173.641L621.256 176.126H624.514L624.295 177.243H621.029L620.1 181.993C620.068 182.149 620.045 182.295 620.029 182.43C620.014 182.561 620.006 182.683 620.006 182.798C620.006 183.141 620.108 183.384 620.311 183.524C620.514 183.66 620.881 183.727 621.412 183.727H623.029L622.803 184.876H621.061C620.191 184.876 619.55 184.733 619.139 184.446C618.733 184.154 618.529 183.701 618.529 183.087C618.529 182.956 618.54 182.803 618.561 182.626C618.581 182.449 618.615 182.238 618.662 181.993L619.592 177.243H617.256L617.475 176.126H619.811L620.295 173.641H621.733ZM641.014 173.641L640.537 176.126H643.795L643.576 177.243H640.311L639.381 181.993C639.35 182.149 639.326 182.295 639.311 182.43C639.295 182.561 639.287 182.683 639.287 182.798C639.287 183.141 639.389 183.384 639.592 183.524C639.795 183.66 640.162 183.727 640.693 183.727H642.311L642.084 184.876H640.342C639.472 184.876 638.831 184.733 638.42 184.446C638.014 184.154 637.811 183.701 637.811 183.087C637.811 182.956 637.821 182.803 637.842 182.626C637.863 182.449 637.897 182.238 637.943 181.993L638.873 177.243H636.537L636.756 176.126H639.092L639.576 173.641H641.014ZM653.053 179.454L651.998 184.876H650.561L651.615 179.446C651.621 179.425 651.628 179.389 651.639 179.337C651.717 178.967 651.756 178.68 651.756 178.477C651.756 178.055 651.634 177.733 651.389 177.509C651.149 177.279 650.803 177.165 650.35 177.165C649.688 177.165 649.126 177.407 648.662 177.891C648.199 178.376 647.881 179.055 647.709 179.93L646.748 184.876H645.311L647.678 172.719H649.115L648.209 177.438C648.6 176.933 649.022 176.553 649.475 176.298C649.933 176.042 650.417 175.915 650.928 175.915C651.652 175.915 652.214 176.105 652.615 176.485C653.016 176.86 653.217 177.386 653.217 178.063C653.217 178.23 653.201 178.436 653.17 178.68C653.144 178.925 653.105 179.183 653.053 179.454ZM663.545 177.93C663.311 177.701 663.037 177.529 662.725 177.415C662.417 177.3 662.066 177.243 661.67 177.243C660.816 177.243 660.084 177.542 659.475 178.141C658.865 178.735 658.462 179.55 658.264 180.587L657.428 184.876H655.99L657.686 176.126H659.123L658.811 177.837C659.16 177.212 659.61 176.735 660.162 176.407C660.72 176.079 661.35 175.915 662.053 175.915C662.423 175.915 662.756 175.964 663.053 176.063C663.355 176.157 663.61 176.295 663.818 176.477L663.545 177.93ZM669.373 177.134C668.519 177.134 667.805 177.579 667.233 178.469C666.665 179.36 666.381 180.493 666.381 181.868C666.381 182.54 666.527 183.045 666.818 183.384C667.11 183.717 667.548 183.884 668.131 183.884C668.985 183.884 669.696 183.438 670.264 182.548C670.837 181.657 671.123 180.524 671.123 179.149C671.123 178.477 670.977 177.975 670.686 177.641C670.394 177.303 669.956 177.134 669.373 177.134ZM669.506 175.915C670.527 175.915 671.303 176.193 671.834 176.751C672.371 177.308 672.639 178.123 672.639 179.196C672.639 179.915 672.532 180.631 672.318 181.344C672.105 182.053 671.805 182.691 671.42 183.259C671.009 183.873 670.509 184.334 669.92 184.641C669.331 184.949 668.654 185.102 667.889 185.102C666.915 185.102 666.165 184.818 665.639 184.251C665.113 183.678 664.85 182.863 664.85 181.805C664.85 181.102 664.956 180.399 665.17 179.696C665.384 178.993 665.686 178.347 666.076 177.759C666.488 177.154 666.983 176.696 667.561 176.384C668.144 176.071 668.792 175.915 669.506 175.915ZM674.693 181.548L675.733 176.126H677.178L676.123 181.548C676.087 181.74 676.058 181.925 676.037 182.102C676.016 182.279 676.006 182.43 676.006 182.555C676.006 182.967 676.126 183.285 676.365 183.509C676.61 183.727 676.954 183.837 677.397 183.837C678.058 183.837 678.618 183.597 679.076 183.118C679.535 182.634 679.85 181.951 680.022 181.071L680.983 176.126H682.428L680.725 184.876H679.287L679.545 183.563C679.165 184.074 678.743 184.456 678.279 184.712C677.816 184.962 677.311 185.087 676.764 185.087C676.081 185.087 675.542 184.897 675.147 184.516C674.751 184.131 674.553 183.61 674.553 182.954C674.553 182.751 674.563 182.529 674.584 182.29C674.61 182.045 674.647 181.798 674.693 181.548ZM687.217 183.743C687.628 183.743 688.006 183.626 688.35 183.391C688.699 183.157 688.993 182.821 689.233 182.384C689.488 181.915 689.686 181.389 689.826 180.805C689.972 180.222 690.045 179.654 690.045 179.102C690.045 178.483 689.899 178.001 689.608 177.657C689.316 177.308 688.91 177.134 688.389 177.134C687.587 177.134 686.91 177.574 686.358 178.454C685.811 179.329 685.537 180.43 685.537 181.759C685.537 182.378 685.686 182.865 685.983 183.219C686.279 183.568 686.691 183.743 687.217 183.743ZM690.576 184.313C690.3 185.725 689.813 186.743 689.115 187.368C688.423 187.998 687.433 188.313 686.147 188.313C685.72 188.313 685.298 188.277 684.881 188.204C684.47 188.131 684.068 188.024 683.678 187.884L683.967 186.462C684.347 186.691 684.74 186.865 685.147 186.985C685.558 187.105 685.972 187.165 686.389 187.165C687.165 187.165 687.766 186.956 688.193 186.54C688.621 186.123 688.93 185.43 689.123 184.462L689.311 183.548C689.009 184.001 688.631 184.347 688.178 184.587C687.725 184.821 687.212 184.938 686.639 184.938C685.837 184.938 685.199 184.66 684.725 184.102C684.251 183.54 684.014 182.779 684.014 181.821C684.014 181.097 684.118 180.378 684.326 179.665C684.535 178.946 684.826 178.311 685.201 177.759C685.587 177.175 686.05 176.722 686.592 176.399C687.134 176.076 687.693 175.915 688.272 175.915C688.798 175.915 689.259 176.042 689.654 176.298C690.05 176.548 690.337 176.894 690.514 177.337L690.725 176.157H692.162L690.576 184.313ZM701.256 179.454L700.201 184.876H698.764L699.818 179.446C699.824 179.425 699.831 179.389 699.842 179.337C699.92 178.967 699.959 178.68 699.959 178.477C699.959 178.055 699.837 177.733 699.592 177.509C699.352 177.279 699.006 177.165 698.553 177.165C697.891 177.165 697.329 177.407 696.865 177.891C696.402 178.376 696.084 179.055 695.912 179.93L694.951 184.876H693.514L695.881 172.719H697.318L696.412 177.438C696.803 176.933 697.225 176.553 697.678 176.298C698.136 176.042 698.621 175.915 699.131 175.915C699.855 175.915 700.417 176.105 700.818 176.485C701.22 176.86 701.42 177.386 701.42 178.063C701.42 178.23 701.404 178.436 701.373 178.68C701.347 178.925 701.308 179.183 701.256 179.454ZM713.358 183.548H715.803L717.529 174.634L714.779 175.227L715.053 173.79L717.803 173.212H719.389L717.373 183.548H719.787L719.529 184.876H713.1L713.358 183.548ZM723.873 183.548H729.217L728.967 184.876H721.826L722.084 183.548L724.514 181.407L724.818 181.134C727.615 178.68 729.014 176.925 729.014 175.868C729.014 175.384 728.847 175.003 728.514 174.727C728.18 174.451 727.717 174.313 727.123 174.313C726.644 174.313 726.128 174.402 725.576 174.579C725.024 174.751 724.42 175.014 723.764 175.368L724.084 173.774C724.667 173.519 725.23 173.326 725.772 173.196C726.318 173.066 726.844 173.001 727.35 173.001C728.313 173.001 729.092 173.253 729.686 173.759C730.279 174.264 730.576 174.92 730.576 175.727C730.576 176.227 730.483 176.704 730.295 177.157C730.113 177.605 729.808 178.097 729.381 178.634C729.209 178.852 728.899 179.167 728.451 179.579C728.003 179.99 727.311 180.6 726.373 181.407L723.873 183.548ZM737.42 173.641L736.943 176.126H740.201L739.983 177.243H736.717L735.787 181.993C735.756 182.149 735.733 182.295 735.717 182.43C735.701 182.561 735.693 182.683 735.693 182.798C735.693 183.141 735.795 183.384 735.998 183.524C736.201 183.66 736.568 183.727 737.1 183.727H738.717L738.49 184.876H736.748C735.878 184.876 735.238 184.733 734.826 184.446C734.42 184.154 734.217 183.701 734.217 183.087C734.217 182.956 734.227 182.803 734.248 182.626C734.269 182.449 734.303 182.238 734.35 181.993L735.279 177.243H732.943L733.162 176.126H735.498L735.983 173.641H737.42ZM749.459 179.454L748.404 184.876H746.967L748.022 179.446C748.027 179.425 748.035 179.389 748.045 179.337C748.123 178.967 748.162 178.68 748.162 178.477C748.162 178.055 748.04 177.733 747.795 177.509C747.555 177.279 747.209 177.165 746.756 177.165C746.094 177.165 745.532 177.407 745.068 177.891C744.605 178.376 744.287 179.055 744.115 179.93L743.154 184.876H741.717L744.084 172.719H745.522L744.615 177.438C745.006 176.933 745.428 176.553 745.881 176.298C746.339 176.042 746.824 175.915 747.334 175.915C748.058 175.915 748.621 176.105 749.022 176.485C749.423 176.86 749.623 177.386 749.623 178.063C749.623 178.23 749.608 178.436 749.576 178.68C749.55 178.925 749.511 179.183 749.459 179.454ZM764.342 183.743C764.753 183.743 765.131 183.626 765.475 183.391C765.824 183.157 766.118 182.821 766.358 182.384C766.613 181.915 766.811 181.389 766.951 180.805C767.097 180.222 767.17 179.654 767.17 179.102C767.17 178.483 767.024 178.001 766.733 177.657C766.441 177.308 766.035 177.134 765.514 177.134C764.712 177.134 764.035 177.574 763.483 178.454C762.936 179.329 762.662 180.43 762.662 181.759C762.662 182.378 762.811 182.865 763.108 183.219C763.404 183.568 763.816 183.743 764.342 183.743ZM767.701 184.313C767.425 185.725 766.938 186.743 766.24 187.368C765.548 187.998 764.558 188.313 763.272 188.313C762.844 188.313 762.423 188.277 762.006 188.204C761.594 188.131 761.193 188.024 760.803 187.884L761.092 186.462C761.472 186.691 761.865 186.865 762.272 186.985C762.683 187.105 763.097 187.165 763.514 187.165C764.29 187.165 764.891 186.956 765.318 186.54C765.746 186.123 766.055 185.43 766.248 184.462L766.436 183.548C766.134 184.001 765.756 184.347 765.303 184.587C764.85 184.821 764.337 184.938 763.764 184.938C762.962 184.938 762.324 184.66 761.85 184.102C761.376 183.54 761.139 182.779 761.139 181.821C761.139 181.097 761.243 180.378 761.451 179.665C761.66 178.946 761.951 178.311 762.326 177.759C762.712 177.175 763.175 176.722 763.717 176.399C764.259 176.076 764.818 175.915 765.397 175.915C765.923 175.915 766.384 176.042 766.779 176.298C767.175 176.548 767.462 176.894 767.639 177.337L767.85 176.157H769.287L767.701 184.313ZM779.233 177.93C778.998 177.701 778.725 177.529 778.412 177.415C778.105 177.3 777.753 177.243 777.358 177.243C776.503 177.243 775.772 177.542 775.162 178.141C774.553 178.735 774.149 179.55 773.951 180.587L773.115 184.876H771.678L773.373 176.126H774.811L774.498 177.837C774.847 177.212 775.298 176.735 775.85 176.407C776.407 176.079 777.037 175.915 777.74 175.915C778.11 175.915 778.443 175.964 778.74 176.063C779.042 176.157 779.298 176.295 779.506 176.477L779.233 177.93ZM785.029 180.477C784.41 180.477 783.949 180.498 783.647 180.54C783.344 180.576 783.081 180.641 782.858 180.735C782.503 180.876 782.219 181.108 782.006 181.43C781.792 181.748 781.686 182.097 781.686 182.477C781.686 182.91 781.818 183.256 782.084 183.516C782.355 183.772 782.719 183.899 783.178 183.899C783.949 183.899 784.613 183.623 785.17 183.071C785.733 182.519 786.113 181.761 786.311 180.798L786.373 180.477H785.029ZM787.928 179.884L786.951 184.876H785.514L785.764 183.579C785.389 184.068 784.946 184.446 784.436 184.712C783.925 184.972 783.384 185.102 782.811 185.102C782.014 185.102 781.376 184.886 780.897 184.454C780.423 184.016 780.186 183.438 780.186 182.719C780.186 181.699 780.587 180.884 781.389 180.274C782.196 179.66 783.287 179.352 784.662 179.352H786.584L786.678 178.876C786.688 178.829 786.696 178.779 786.701 178.727C786.706 178.675 786.709 178.602 786.709 178.509C786.709 178.066 786.545 177.727 786.217 177.493C785.889 177.253 785.42 177.134 784.811 177.134C784.363 177.134 783.878 177.201 783.358 177.337C782.842 177.467 782.295 177.665 781.717 177.93L781.99 176.524C782.553 176.321 783.087 176.17 783.592 176.071C784.097 175.967 784.581 175.915 785.045 175.915C786.014 175.915 786.766 176.128 787.303 176.555C787.844 176.983 788.115 177.574 788.115 178.329C788.115 178.496 788.1 178.714 788.068 178.985C788.037 179.256 787.99 179.555 787.928 179.884ZM794.623 177.134C794.165 177.134 793.761 177.248 793.412 177.477C793.063 177.701 792.769 178.04 792.529 178.493C792.274 178.962 792.076 179.496 791.936 180.094C791.795 180.688 791.725 181.285 791.725 181.884C791.725 182.55 791.858 183.05 792.123 183.384C792.389 183.717 792.785 183.884 793.311 183.884C793.753 183.884 794.152 183.766 794.506 183.532C794.865 183.298 795.17 182.951 795.42 182.493C795.675 182.04 795.876 181.514 796.022 180.915C796.167 180.311 796.24 179.712 796.24 179.118C796.24 178.493 796.097 178.006 795.811 177.657C795.529 177.308 795.134 177.134 794.623 177.134ZM796.717 177.243L797.615 172.719H799.053L796.686 184.876H795.248L795.459 183.774C795.121 184.212 794.735 184.542 794.303 184.766C793.876 184.99 793.402 185.102 792.881 185.102C792.032 185.102 791.371 184.829 790.897 184.282C790.428 183.735 790.193 182.972 790.193 181.993C790.193 181.248 790.298 180.501 790.506 179.751C790.714 178.996 790.998 178.337 791.358 177.774C791.748 177.16 792.206 176.696 792.733 176.384C793.264 176.071 793.852 175.915 794.498 175.915C795.003 175.915 795.446 176.029 795.826 176.259C796.206 176.483 796.503 176.811 796.717 177.243ZM806.233 179.727C806.264 179.587 806.285 179.472 806.295 179.384C806.305 179.29 806.311 179.201 806.311 179.118C806.311 178.493 806.141 178.006 805.803 177.657C805.464 177.308 804.993 177.134 804.389 177.134C803.748 177.134 803.162 177.368 802.631 177.837C802.105 178.305 801.727 178.936 801.498 179.727H806.233ZM806.412 184.43C805.865 184.654 805.331 184.821 804.811 184.93C804.29 185.045 803.761 185.102 803.225 185.102C802.063 185.102 801.18 184.813 800.576 184.235C799.972 183.652 799.67 182.803 799.67 181.688C799.67 180.876 799.826 180.079 800.139 179.298C800.451 178.516 800.884 177.842 801.436 177.274C801.868 176.826 802.344 176.485 802.865 176.251C803.391 176.016 803.938 175.899 804.506 175.899C805.475 175.899 806.248 176.199 806.826 176.798C807.41 177.391 807.701 178.186 807.701 179.18C807.701 179.358 807.688 179.579 807.662 179.844C807.636 180.105 807.592 180.438 807.529 180.844H801.225C801.193 181.011 801.17 181.162 801.154 181.298C801.139 181.433 801.131 181.553 801.131 181.657C801.131 182.381 801.331 182.933 801.733 183.313C802.134 183.693 802.717 183.884 803.483 183.884C803.941 183.884 804.441 183.811 804.983 183.665C805.529 183.514 806.1 183.292 806.693 183.001L806.412 184.43Z" fill="black"/>
<path d="M798.841 222.026H594.841C586.557 222.026 579.841 228.742 579.841 237.026C579.841 245.311 586.557 252.026 594.841 252.026H798.841C807.125 252.026 813.841 245.311 813.841 237.026C813.841 228.742 807.125 222.026 798.841 222.026Z" fill="#F2F2F2"/>
<path d="M623.258 234.659C623.023 234.43 622.75 234.258 622.438 234.143C622.13 234.029 621.779 233.971 621.383 233.971C620.529 233.971 619.797 234.271 619.188 234.87C618.578 235.464 618.175 236.279 617.977 237.315L617.141 241.604H615.703L617.398 232.854H618.836L618.523 234.565C618.872 233.94 619.323 233.464 619.875 233.135C620.432 232.807 621.063 232.643 621.766 232.643C622.135 232.643 622.469 232.693 622.766 232.792C623.068 232.885 623.323 233.023 623.531 233.206L623.258 234.659ZM630.977 236.456C631.008 236.315 631.029 236.2 631.039 236.112C631.05 236.018 631.055 235.93 631.055 235.846C631.055 235.221 630.885 234.734 630.547 234.385C630.208 234.036 629.737 233.862 629.133 233.862C628.492 233.862 627.906 234.096 627.375 234.565C626.849 235.034 626.471 235.664 626.242 236.456H630.977ZM631.156 241.159C630.609 241.383 630.076 241.549 629.555 241.659C629.034 241.773 628.505 241.831 627.969 241.831C626.807 241.831 625.925 241.542 625.32 240.964C624.716 240.38 624.414 239.531 624.414 238.417C624.414 237.604 624.57 236.807 624.883 236.026C625.195 235.245 625.628 234.57 626.18 234.003C626.612 233.555 627.089 233.214 627.609 232.979C628.135 232.745 628.682 232.628 629.25 232.628C630.219 232.628 630.992 232.927 631.57 233.526C632.154 234.12 632.445 234.914 632.445 235.909C632.445 236.086 632.432 236.307 632.406 236.573C632.38 236.833 632.336 237.167 632.273 237.573H625.969C625.938 237.74 625.914 237.891 625.898 238.026C625.883 238.161 625.875 238.281 625.875 238.385C625.875 239.109 626.076 239.661 626.477 240.042C626.878 240.422 627.461 240.612 628.227 240.612C628.685 240.612 629.185 240.539 629.727 240.393C630.273 240.242 630.844 240.021 631.438 239.729L631.156 241.159ZM639.133 233.745C639.336 233.391 639.599 233.12 639.922 232.932C640.25 232.74 640.615 232.643 641.016 232.643C641.464 232.643 641.82 232.786 642.086 233.073C642.357 233.354 642.492 233.734 642.492 234.214C642.492 234.495 642.469 234.812 642.422 235.167C642.375 235.521 642.297 235.977 642.188 236.534L641.195 241.604H639.883L640.859 236.596C640.953 236.117 641.023 235.727 641.07 235.424C641.122 235.117 641.148 234.901 641.148 234.776C641.148 234.448 641.089 234.211 640.969 234.065C640.849 233.919 640.656 233.846 640.391 233.846C640 233.846 639.695 234.016 639.477 234.354C639.258 234.687 639.036 235.435 638.813 236.596L637.836 241.604H636.523L637.5 236.596C637.599 236.091 637.669 235.693 637.711 235.401C637.758 235.104 637.781 234.896 637.781 234.776C637.781 234.458 637.719 234.224 637.594 234.073C637.474 233.922 637.286 233.846 637.031 233.846C636.646 233.846 636.346 234.003 636.133 234.315C635.925 234.622 635.703 235.383 635.469 236.596L634.492 241.604H633.18L634.875 232.854H636.188L636.039 233.604C636.268 233.292 636.526 233.055 636.813 232.893C637.104 232.727 637.417 232.643 637.75 232.643C638.141 232.643 638.456 232.742 638.695 232.94C638.935 233.133 639.081 233.401 639.133 233.745ZM648.367 233.862C647.513 233.862 646.8 234.307 646.227 235.198C645.659 236.089 645.375 237.221 645.375 238.596C645.375 239.268 645.521 239.773 645.813 240.112C646.104 240.445 646.542 240.612 647.125 240.612C647.979 240.612 648.69 240.167 649.258 239.276C649.831 238.385 650.117 237.253 650.117 235.878C650.117 235.206 649.971 234.703 649.68 234.37C649.388 234.031 648.951 233.862 648.367 233.862ZM648.5 232.643C649.521 232.643 650.297 232.922 650.828 233.479C651.365 234.036 651.633 234.852 651.633 235.924C651.633 236.643 651.526 237.359 651.313 238.073C651.099 238.781 650.8 239.419 650.414 239.987C650.003 240.602 649.503 241.062 648.914 241.37C648.326 241.677 647.648 241.831 646.883 241.831C645.909 241.831 645.159 241.547 644.633 240.979C644.107 240.406 643.844 239.591 643.844 238.534C643.844 237.831 643.951 237.128 644.164 236.424C644.378 235.721 644.68 235.075 645.07 234.487C645.482 233.883 645.977 233.424 646.555 233.112C647.138 232.799 647.786 232.643 648.5 232.643ZM658.57 230.37L658.094 232.854H661.352L661.133 233.971H657.867L656.938 238.721C656.906 238.878 656.883 239.023 656.867 239.159C656.852 239.289 656.844 239.411 656.844 239.526C656.844 239.87 656.945 240.112 657.148 240.253C657.352 240.388 657.719 240.456 658.25 240.456H659.867L659.641 241.604H657.898C657.029 241.604 656.388 241.461 655.977 241.174C655.57 240.883 655.367 240.43 655.367 239.815C655.367 239.685 655.378 239.531 655.398 239.354C655.419 239.177 655.453 238.966 655.5 238.721L656.43 233.971H654.094L654.313 232.854H656.648L657.133 230.37H658.57ZM669.539 236.456C669.57 236.315 669.591 236.2 669.602 236.112C669.612 236.018 669.617 235.93 669.617 235.846C669.617 235.221 669.448 234.734 669.109 234.385C668.771 234.036 668.3 233.862 667.695 233.862C667.055 233.862 666.469 234.096 665.938 234.565C665.411 235.034 665.034 235.664 664.805 236.456H669.539ZM669.719 241.159C669.172 241.383 668.638 241.549 668.117 241.659C667.596 241.773 667.068 241.831 666.531 241.831C665.37 241.831 664.487 241.542 663.883 240.964C663.279 240.38 662.977 239.531 662.977 238.417C662.977 237.604 663.133 236.807 663.445 236.026C663.758 235.245 664.19 234.57 664.742 234.003C665.175 233.555 665.651 233.214 666.172 232.979C666.698 232.745 667.245 232.628 667.813 232.628C668.781 232.628 669.555 232.927 670.133 233.526C670.716 234.12 671.008 234.914 671.008 235.909C671.008 236.086 670.995 236.307 670.969 236.573C670.943 236.833 670.898 237.167 670.836 237.573H664.531C664.5 237.74 664.477 237.891 664.461 238.026C664.445 238.161 664.438 238.281 664.438 238.385C664.438 239.109 664.638 239.661 665.039 240.042C665.44 240.422 666.023 240.612 666.789 240.612C667.247 240.612 667.747 240.539 668.289 240.393C668.836 240.242 669.406 240.021 670 239.729L669.719 241.159ZM684.289 232.854H687.969L686.484 240.487H689.336L689.109 241.604H681.969L682.195 240.487H685.047L686.305 233.971H684.07L684.289 232.854ZM687.188 229.448H688.625L688.273 231.268H686.836L687.188 229.448ZM699.531 236.182L698.477 241.604H697.039L698.094 236.174C698.099 236.154 698.107 236.117 698.117 236.065C698.195 235.695 698.234 235.409 698.234 235.206C698.234 234.784 698.112 234.461 697.867 234.237C697.628 234.008 697.281 233.893 696.828 233.893C696.167 233.893 695.604 234.135 695.141 234.62C694.677 235.104 694.359 235.784 694.188 236.659L693.227 241.604H691.789L693.5 232.854H694.938L694.688 234.167C695.078 233.661 695.5 233.281 695.953 233.026C696.411 232.771 696.896 232.643 697.406 232.643C698.13 232.643 698.693 232.833 699.094 233.214C699.495 233.589 699.695 234.115 699.695 234.792C699.695 234.958 699.68 235.164 699.648 235.409C699.622 235.654 699.583 235.911 699.531 236.182ZM709.188 233.159L708.914 234.565C708.544 234.331 708.154 234.154 707.742 234.034C707.336 233.909 706.932 233.846 706.531 233.846C705.818 233.846 705.263 233.979 704.867 234.245C704.477 234.51 704.281 234.883 704.281 235.362C704.281 235.872 704.857 236.273 706.008 236.565C706.086 236.586 706.143 236.602 706.18 236.612L706.742 236.753C707.352 236.914 707.807 237.156 708.109 237.479C708.411 237.797 708.563 238.195 708.563 238.674C708.563 239.617 708.188 240.38 707.438 240.964C706.688 241.542 705.693 241.831 704.453 241.831C704.031 241.831 703.591 241.784 703.133 241.69C702.675 241.602 702.188 241.466 701.672 241.284L701.961 239.799C702.451 240.075 702.925 240.284 703.383 240.424C703.846 240.56 704.294 240.628 704.727 240.628C705.419 240.628 705.984 240.474 706.422 240.167C706.859 239.854 707.078 239.458 707.078 238.979C707.078 238.464 706.568 238.07 705.547 237.799C705.453 237.779 705.38 237.76 705.328 237.745L704.805 237.604C704.133 237.432 703.638 237.18 703.32 236.846C703.008 236.513 702.852 236.078 702.852 235.542C702.852 234.656 703.195 233.953 703.883 233.432C704.57 232.906 705.497 232.643 706.664 232.643C707.122 232.643 707.563 232.687 707.984 232.776C708.406 232.859 708.807 232.987 709.188 233.159ZM716.414 230.37L715.938 232.854H719.195L718.977 233.971H715.711L714.781 238.721C714.75 238.878 714.727 239.023 714.711 239.159C714.695 239.289 714.688 239.411 714.688 239.526C714.688 239.87 714.789 240.112 714.992 240.253C715.195 240.388 715.563 240.456 716.094 240.456H717.711L717.484 241.604H715.742C714.872 241.604 714.232 241.461 713.82 241.174C713.414 240.883 713.211 240.43 713.211 239.815C713.211 239.685 713.221 239.531 713.242 239.354C713.263 239.177 713.297 238.966 713.344 238.721L714.273 233.971H711.938L712.156 232.854H714.492L714.977 230.37H716.414ZM729.305 234.659C729.07 234.43 728.797 234.258 728.484 234.143C728.177 234.029 727.826 233.971 727.43 233.971C726.576 233.971 725.844 234.271 725.234 234.87C724.625 235.464 724.221 236.279 724.023 237.315L723.188 241.604H721.75L723.445 232.854H724.883L724.57 234.565C724.919 233.94 725.37 233.464 725.922 233.135C726.479 232.807 727.109 232.643 727.813 232.643C728.182 232.643 728.516 232.693 728.813 232.792C729.115 232.885 729.37 233.023 729.578 233.206L729.305 234.659ZM730.813 238.276L731.852 232.854H733.297L732.242 238.276C732.206 238.469 732.177 238.654 732.156 238.831C732.135 239.008 732.125 239.159 732.125 239.284C732.125 239.695 732.245 240.013 732.484 240.237C732.729 240.456 733.073 240.565 733.516 240.565C734.177 240.565 734.737 240.325 735.195 239.846C735.654 239.362 735.969 238.68 736.141 237.799L737.102 232.854H738.547L736.844 241.604H735.406L735.664 240.292C735.284 240.802 734.862 241.185 734.398 241.44C733.935 241.69 733.43 241.815 732.883 241.815C732.201 241.815 731.661 241.625 731.266 241.245C730.87 240.859 730.672 240.339 730.672 239.682C730.672 239.479 730.682 239.258 730.703 239.018C730.729 238.773 730.766 238.526 730.813 238.276ZM746.68 241.206C746.3 241.409 745.891 241.562 745.453 241.667C745.021 241.776 744.57 241.831 744.102 241.831C742.935 241.831 742.052 241.539 741.453 240.956C740.854 240.367 740.555 239.5 740.555 238.354C740.555 237.578 740.693 236.818 740.969 236.073C741.25 235.323 741.628 234.693 742.102 234.182C742.586 233.667 743.117 233.281 743.695 233.026C744.279 232.771 744.917 232.643 745.609 232.643C746.073 232.643 746.521 232.7 746.953 232.815C747.385 232.924 747.807 233.091 748.219 233.315L747.93 234.737C747.586 234.435 747.232 234.214 746.867 234.073C746.503 233.932 746.099 233.862 745.656 233.862C745.083 233.862 744.576 233.979 744.133 234.214C743.69 234.443 743.313 234.789 743 235.253C742.708 235.68 742.479 236.169 742.313 236.721C742.151 237.268 742.07 237.812 742.07 238.354C742.07 239.104 742.247 239.669 742.602 240.049C742.961 240.424 743.495 240.612 744.203 240.612C744.703 240.612 745.182 240.531 745.641 240.37C746.104 240.208 746.552 239.964 746.984 239.635L746.68 241.206ZM754.977 230.37L754.5 232.854H757.758L757.539 233.971H754.273L753.344 238.721C753.313 238.878 753.289 239.023 753.273 239.159C753.258 239.289 753.25 239.411 753.25 239.526C753.25 239.87 753.352 240.112 753.555 240.253C753.758 240.388 754.125 240.456 754.656 240.456H756.273L756.047 241.604H754.305C753.435 241.604 752.794 241.461 752.383 241.174C751.977 240.883 751.773 240.43 751.773 239.815C751.773 239.685 751.784 239.531 751.805 239.354C751.826 239.177 751.859 238.966 751.906 238.721L752.836 233.971H750.5L750.719 232.854H753.055L753.539 230.37H754.977ZM761.414 232.854H765.094L763.609 240.487H766.461L766.234 241.604H759.094L759.32 240.487H762.172L763.43 233.971H761.195L761.414 232.854ZM764.313 229.448H765.75L765.398 231.268H763.961L764.313 229.448ZM773.695 233.862C772.841 233.862 772.128 234.307 771.555 235.198C770.987 236.089 770.703 237.221 770.703 238.596C770.703 239.268 770.849 239.773 771.141 240.112C771.432 240.445 771.87 240.612 772.453 240.612C773.307 240.612 774.018 240.167 774.586 239.276C775.159 238.385 775.445 237.253 775.445 235.878C775.445 235.206 775.3 234.703 775.008 234.37C774.716 234.031 774.279 233.862 773.695 233.862ZM773.828 232.643C774.849 232.643 775.625 232.922 776.156 233.479C776.693 234.036 776.961 234.852 776.961 235.924C776.961 236.643 776.854 237.359 776.641 238.073C776.427 238.781 776.128 239.419 775.742 239.987C775.331 240.602 774.831 241.062 774.242 241.37C773.654 241.677 772.977 241.831 772.211 241.831C771.237 241.831 770.487 241.547 769.961 240.979C769.435 240.406 769.172 239.591 769.172 238.534C769.172 237.831 769.279 237.128 769.492 236.424C769.706 235.721 770.008 235.075 770.398 234.487C770.81 233.883 771.305 233.424 771.883 233.112C772.466 232.799 773.115 232.643 773.828 232.643ZM786.297 236.182L785.242 241.604H783.805L784.859 236.174C784.865 236.154 784.872 236.117 784.883 236.065C784.961 235.695 785 235.409 785 235.206C785 234.784 784.878 234.461 784.633 234.237C784.393 234.008 784.047 233.893 783.594 233.893C782.932 233.893 782.37 234.135 781.906 234.62C781.443 235.104 781.125 235.784 780.953 236.659L779.992 241.604H778.555L780.266 232.854H781.703L781.453 234.167C781.844 233.661 782.266 233.281 782.719 233.026C783.177 232.771 783.661 232.643 784.172 232.643C784.896 232.643 785.458 232.833 785.859 233.214C786.26 233.589 786.461 234.115 786.461 234.792C786.461 234.958 786.445 235.164 786.414 235.409C786.388 235.654 786.349 235.911 786.297 236.182Z" fill="black"/>
<path d="M616.948 281.721L616.706 282.916H615.081C614.586 282.916 614.213 283.025 613.963 283.244C613.713 283.458 613.536 283.827 613.432 284.353L613.268 285.127H616.276L616.073 286.244H613.065L611.573 293.877H610.135L611.62 286.244H609.284L609.51 285.127H611.831L611.956 284.517C612.153 283.512 612.502 282.796 613.002 282.369C613.508 281.937 614.247 281.721 615.221 281.721H616.948ZM621.549 290.689C621.513 290.872 621.484 291.033 621.463 291.174C621.448 291.314 621.44 291.432 621.44 291.525C621.44 291.905 621.555 292.189 621.784 292.377C622.018 292.564 622.372 292.658 622.846 292.658H624.495L624.252 293.877H622.635C621.734 293.877 621.062 293.713 620.62 293.385C620.182 293.051 619.963 292.543 619.963 291.861C619.963 291.715 619.976 291.538 620.002 291.33C620.028 291.122 620.065 290.898 620.112 290.658L621.76 282.76H619.292L619.518 281.635H623.424L621.549 290.689ZM633.831 288.728C633.862 288.588 633.883 288.473 633.893 288.385C633.903 288.291 633.909 288.202 633.909 288.119C633.909 287.494 633.739 287.007 633.401 286.658C633.062 286.309 632.591 286.135 631.987 286.135C631.346 286.135 630.76 286.369 630.229 286.838C629.703 287.307 629.325 287.937 629.096 288.728H633.831ZM634.01 293.432C633.463 293.655 632.93 293.822 632.409 293.932C631.888 294.046 631.359 294.103 630.823 294.103C629.661 294.103 628.778 293.814 628.174 293.236C627.57 292.653 627.268 291.804 627.268 290.689C627.268 289.877 627.424 289.08 627.737 288.299C628.049 287.517 628.482 286.843 629.034 286.275C629.466 285.827 629.943 285.486 630.463 285.252C630.989 285.017 631.536 284.9 632.104 284.9C633.073 284.9 633.846 285.2 634.424 285.799C635.008 286.392 635.299 287.187 635.299 288.182C635.299 288.359 635.286 288.58 635.26 288.846C635.234 289.106 635.19 289.439 635.127 289.846H628.823C628.792 290.012 628.768 290.163 628.752 290.299C628.737 290.434 628.729 290.554 628.729 290.658C628.729 291.382 628.93 291.934 629.331 292.314C629.732 292.695 630.315 292.885 631.081 292.885C631.539 292.885 632.039 292.812 632.581 292.666C633.127 292.515 633.698 292.293 634.292 292.002L634.01 293.432ZM645.581 285.127L641.581 289.4L644.065 293.877H642.526L640.62 290.408L637.362 293.877H635.596L640.002 289.221L637.713 285.127H639.245L640.94 288.213L643.823 285.127H645.581ZM648.581 285.127H652.26L650.776 292.76H653.627L653.401 293.877H646.26L646.487 292.76H649.338L650.596 286.244H648.362L648.581 285.127ZM651.479 281.721H652.917L652.565 283.541H651.127L651.479 281.721ZM659.635 292.885C660.073 292.885 660.469 292.767 660.823 292.533C661.177 292.299 661.474 291.958 661.713 291.51C661.969 291.02 662.169 290.473 662.315 289.869C662.466 289.265 662.542 288.682 662.542 288.119C662.542 287.452 662.409 286.952 662.143 286.619C661.883 286.286 661.489 286.119 660.963 286.119C660.531 286.119 660.135 286.239 659.776 286.478C659.422 286.718 659.112 287.067 658.846 287.525C658.596 287.973 658.396 288.502 658.245 289.111C658.094 289.715 658.018 290.307 658.018 290.885C658.018 291.525 658.156 292.02 658.432 292.369C658.713 292.713 659.114 292.885 659.635 292.885ZM658.815 286.244C659.138 285.807 659.513 285.476 659.94 285.252C660.367 285.028 660.846 284.916 661.377 284.916C662.232 284.916 662.896 285.187 663.37 285.728C663.844 286.265 664.081 287.017 664.081 287.986C664.081 288.741 663.974 289.494 663.76 290.244C663.547 290.994 663.252 291.65 662.877 292.213C662.482 292.812 661.997 293.278 661.424 293.611C660.857 293.939 660.25 294.103 659.604 294.103C659.094 294.103 658.664 293.991 658.315 293.767C657.971 293.543 657.711 293.213 657.534 292.775L657.331 293.877H655.885L658.252 281.721H659.698L658.815 286.244ZM669.752 290.689C669.716 290.872 669.687 291.033 669.667 291.174C669.651 291.314 669.643 291.432 669.643 291.525C669.643 291.905 669.758 292.189 669.987 292.377C670.221 292.564 670.575 292.658 671.049 292.658H672.698L672.456 293.877H670.838C669.937 293.877 669.265 293.713 668.823 293.385C668.385 293.051 668.167 292.543 668.167 291.861C668.167 291.715 668.18 291.538 668.206 291.33C668.232 291.122 668.268 290.898 668.315 290.658L669.963 282.76H667.495L667.721 281.635H671.627L669.752 290.689ZM682.034 288.728C682.065 288.588 682.086 288.473 682.096 288.385C682.107 288.291 682.112 288.202 682.112 288.119C682.112 287.494 681.943 287.007 681.604 286.658C681.265 286.309 680.794 286.135 680.19 286.135C679.549 286.135 678.963 286.369 678.432 286.838C677.906 287.307 677.528 287.937 677.299 288.728H682.034ZM682.213 293.432C681.667 293.655 681.133 293.822 680.612 293.932C680.091 294.046 679.562 294.103 679.026 294.103C677.864 294.103 676.982 293.814 676.377 293.236C675.773 292.653 675.471 291.804 675.471 290.689C675.471 289.877 675.627 289.08 675.94 288.299C676.252 287.517 676.685 286.843 677.237 286.275C677.669 285.827 678.146 285.486 678.667 285.252C679.193 285.017 679.739 284.9 680.307 284.9C681.276 284.9 682.049 285.2 682.627 285.799C683.211 286.392 683.502 287.187 683.502 288.182C683.502 288.359 683.489 288.58 683.463 288.846C683.437 289.106 683.393 289.439 683.331 289.846H677.026C676.995 290.012 676.971 290.163 676.956 290.299C676.94 290.434 676.932 290.554 676.932 290.658C676.932 291.382 677.133 291.934 677.534 292.314C677.935 292.695 678.518 292.885 679.284 292.885C679.742 292.885 680.242 292.812 680.784 292.666C681.331 292.515 681.901 292.293 682.495 292.002L682.213 293.432ZM702.401 285.432L702.127 286.838C701.758 286.603 701.367 286.426 700.956 286.307C700.549 286.182 700.146 286.119 699.745 286.119C699.031 286.119 698.476 286.252 698.081 286.517C697.69 286.783 697.495 287.155 697.495 287.635C697.495 288.145 698.07 288.546 699.221 288.838C699.299 288.859 699.357 288.874 699.393 288.885L699.956 289.025C700.565 289.187 701.021 289.429 701.323 289.752C701.625 290.07 701.776 290.468 701.776 290.947C701.776 291.89 701.401 292.653 700.651 293.236C699.901 293.814 698.906 294.103 697.667 294.103C697.245 294.103 696.805 294.057 696.346 293.963C695.888 293.874 695.401 293.739 694.885 293.557L695.174 292.072C695.664 292.348 696.138 292.557 696.596 292.697C697.06 292.833 697.508 292.9 697.94 292.9C698.633 292.9 699.198 292.747 699.635 292.439C700.073 292.127 700.292 291.731 700.292 291.252C700.292 290.736 699.781 290.343 698.76 290.072C698.667 290.051 698.594 290.033 698.542 290.017L698.018 289.877C697.346 289.705 696.851 289.452 696.534 289.119C696.221 288.786 696.065 288.351 696.065 287.814C696.065 286.929 696.409 286.226 697.096 285.705C697.784 285.179 698.711 284.916 699.877 284.916C700.336 284.916 700.776 284.96 701.198 285.049C701.62 285.132 702.021 285.26 702.401 285.432ZM710.971 293.478C710.591 293.682 710.182 293.835 709.745 293.939C709.312 294.049 708.862 294.103 708.393 294.103C707.226 294.103 706.344 293.812 705.745 293.228C705.146 292.64 704.846 291.773 704.846 290.627C704.846 289.851 704.984 289.09 705.26 288.346C705.542 287.596 705.919 286.965 706.393 286.455C706.877 285.939 707.409 285.554 707.987 285.299C708.57 285.043 709.208 284.916 709.901 284.916C710.364 284.916 710.812 284.973 711.245 285.088C711.677 285.197 712.099 285.364 712.51 285.588L712.221 287.01C711.877 286.708 711.523 286.486 711.159 286.346C710.794 286.205 710.39 286.135 709.948 286.135C709.375 286.135 708.867 286.252 708.424 286.486C707.982 286.715 707.604 287.062 707.292 287.525C707 287.952 706.771 288.442 706.604 288.994C706.443 289.541 706.362 290.085 706.362 290.627C706.362 291.377 706.539 291.942 706.893 292.322C707.252 292.697 707.786 292.885 708.495 292.885C708.995 292.885 709.474 292.804 709.932 292.642C710.396 292.481 710.844 292.236 711.276 291.908L710.971 293.478ZM721.667 288.455L720.612 293.877H719.174L720.229 288.447C720.234 288.426 720.242 288.39 720.252 288.338C720.331 287.968 720.37 287.682 720.37 287.478C720.37 287.057 720.247 286.734 720.002 286.51C719.763 286.28 719.417 286.166 718.963 286.166C718.302 286.166 717.739 286.408 717.276 286.892C716.812 287.377 716.495 288.057 716.323 288.932L715.362 293.877H713.924L716.292 281.721H717.729L716.823 286.439C717.213 285.934 717.635 285.554 718.088 285.299C718.547 285.043 719.031 284.916 719.542 284.916C720.265 284.916 720.828 285.106 721.229 285.486C721.63 285.861 721.831 286.387 721.831 287.064C721.831 287.231 721.815 287.437 721.784 287.682C721.758 287.926 721.719 288.184 721.667 288.455ZM730.237 288.728C730.268 288.588 730.289 288.473 730.299 288.385C730.31 288.291 730.315 288.202 730.315 288.119C730.315 287.494 730.146 287.007 729.807 286.658C729.469 286.309 728.997 286.135 728.393 286.135C727.752 286.135 727.167 286.369 726.635 286.838C726.109 287.307 725.732 287.937 725.502 288.728H730.237ZM730.417 293.432C729.87 293.655 729.336 293.822 728.815 293.932C728.294 294.046 727.765 294.103 727.229 294.103C726.068 294.103 725.185 293.814 724.581 293.236C723.976 292.653 723.674 291.804 723.674 290.689C723.674 289.877 723.831 289.08 724.143 288.299C724.456 287.517 724.888 286.843 725.44 286.275C725.872 285.827 726.349 285.486 726.87 285.252C727.396 285.017 727.943 284.9 728.51 284.9C729.479 284.9 730.252 285.2 730.831 285.799C731.414 286.392 731.706 287.187 731.706 288.182C731.706 288.359 731.693 288.58 731.667 288.846C731.64 289.106 731.596 289.439 731.534 289.846H725.229C725.198 290.012 725.174 290.163 725.159 290.299C725.143 290.434 725.135 290.554 725.135 290.658C725.135 291.382 725.336 291.934 725.737 292.314C726.138 292.695 726.721 292.885 727.487 292.885C727.945 292.885 728.445 292.812 728.987 292.666C729.534 292.515 730.104 292.293 730.698 292.002L730.417 293.432ZM737.909 286.135C737.45 286.135 737.047 286.249 736.698 286.478C736.349 286.702 736.055 287.041 735.815 287.494C735.56 287.963 735.362 288.497 735.221 289.096C735.081 289.689 735.01 290.286 735.01 290.885C735.01 291.551 735.143 292.051 735.409 292.385C735.674 292.718 736.07 292.885 736.596 292.885C737.039 292.885 737.437 292.767 737.792 292.533C738.151 292.299 738.456 291.952 738.706 291.494C738.961 291.041 739.161 290.515 739.307 289.916C739.453 289.312 739.526 288.713 739.526 288.119C739.526 287.494 739.383 287.007 739.096 286.658C738.815 286.309 738.419 286.135 737.909 286.135ZM740.002 286.244L740.901 281.721H742.338L739.971 293.877H738.534L738.745 292.775C738.406 293.213 738.021 293.543 737.588 293.767C737.161 293.991 736.687 294.103 736.167 294.103C735.318 294.103 734.656 293.83 734.182 293.283C733.713 292.736 733.479 291.973 733.479 290.994C733.479 290.249 733.583 289.502 733.792 288.752C734 287.997 734.284 287.338 734.643 286.775C735.034 286.161 735.492 285.697 736.018 285.385C736.549 285.072 737.138 284.916 737.784 284.916C738.289 284.916 738.732 285.03 739.112 285.26C739.492 285.484 739.789 285.812 740.002 286.244ZM743.307 290.549L744.346 285.127H745.792L744.737 290.549C744.7 290.741 744.672 290.926 744.651 291.103C744.63 291.28 744.62 291.432 744.62 291.557C744.62 291.968 744.739 292.286 744.979 292.51C745.224 292.728 745.568 292.838 746.01 292.838C746.672 292.838 747.232 292.598 747.69 292.119C748.148 291.635 748.463 290.952 748.635 290.072L749.596 285.127H751.042L749.338 293.877H747.901L748.159 292.564C747.778 293.075 747.357 293.458 746.893 293.713C746.43 293.963 745.924 294.088 745.377 294.088C744.695 294.088 744.156 293.898 743.76 293.517C743.364 293.132 743.167 292.611 743.167 291.955C743.167 291.752 743.177 291.53 743.198 291.291C743.224 291.046 743.26 290.799 743.307 290.549ZM756.518 290.689C756.482 290.872 756.453 291.033 756.432 291.174C756.417 291.314 756.409 291.432 756.409 291.525C756.409 291.905 756.523 292.189 756.752 292.377C756.987 292.564 757.341 292.658 757.815 292.658H759.463L759.221 293.877H757.604C756.703 293.877 756.031 293.713 755.588 293.385C755.151 293.051 754.932 292.543 754.932 291.861C754.932 291.715 754.945 291.538 754.971 291.33C754.997 291.122 755.034 290.898 755.081 290.658L756.729 282.76H754.26L754.487 281.635H758.393L756.518 290.689ZM764.268 285.127H767.948L766.463 292.76H769.315L769.088 293.877H761.948L762.174 292.76H765.026L766.284 286.244H764.049L764.268 285.127ZM767.167 281.721H768.604L768.252 283.541H766.815L767.167 281.721ZM779.51 288.455L778.456 293.877H777.018L778.073 288.447C778.078 288.426 778.086 288.39 778.096 288.338C778.174 287.968 778.213 287.682 778.213 287.478C778.213 287.057 778.091 286.734 777.846 286.51C777.607 286.28 777.26 286.166 776.807 286.166C776.146 286.166 775.583 286.408 775.12 286.892C774.656 287.377 774.338 288.057 774.167 288.932L773.206 293.877H771.768L773.479 285.127H774.917L774.667 286.439C775.057 285.934 775.479 285.554 775.932 285.299C776.39 285.043 776.875 284.916 777.385 284.916C778.109 284.916 778.672 285.106 779.073 285.486C779.474 285.861 779.674 286.387 779.674 287.064C779.674 287.231 779.659 287.437 779.627 287.682C779.601 287.926 779.562 288.184 779.51 288.455ZM784.752 292.744C785.164 292.744 785.542 292.627 785.885 292.392C786.234 292.158 786.528 291.822 786.768 291.385C787.023 290.916 787.221 290.39 787.362 289.807C787.508 289.223 787.581 288.655 787.581 288.103C787.581 287.484 787.435 287.002 787.143 286.658C786.851 286.309 786.445 286.135 785.924 286.135C785.122 286.135 784.445 286.575 783.893 287.455C783.346 288.33 783.073 289.432 783.073 290.76C783.073 291.379 783.221 291.866 783.518 292.221C783.815 292.57 784.226 292.744 784.752 292.744ZM788.112 293.314C787.836 294.726 787.349 295.744 786.651 296.369C785.958 296.999 784.969 297.314 783.682 297.314C783.255 297.314 782.833 297.278 782.417 297.205C782.005 297.132 781.604 297.025 781.213 296.885L781.502 295.463C781.883 295.692 782.276 295.866 782.682 295.986C783.094 296.106 783.508 296.166 783.924 296.166C784.7 296.166 785.302 295.958 785.729 295.541C786.156 295.124 786.466 294.432 786.659 293.463L786.846 292.549C786.544 293.002 786.167 293.348 785.713 293.588C785.26 293.822 784.747 293.939 784.174 293.939C783.372 293.939 782.734 293.661 782.26 293.103C781.786 292.541 781.549 291.78 781.549 290.822C781.549 290.098 781.653 289.379 781.862 288.666C782.07 287.947 782.362 287.312 782.737 286.76C783.122 286.176 783.586 285.723 784.127 285.4C784.669 285.077 785.229 284.916 785.807 284.916C786.333 284.916 786.794 285.043 787.19 285.299C787.586 285.549 787.872 285.895 788.049 286.338L788.26 285.158H789.698L788.112 293.314Z" fill="black"/>
<path d="M799.227 330.877H595.227C586.943 330.877 580.227 337.593 580.227 345.877C580.227 354.161 586.943 360.877 595.227 360.877H799.227C807.512 360.877 814.227 354.161 814.227 345.877C814.227 337.593 807.512 330.877 799.227 330.877Z" fill="#F2F2F2"/>
<path d="M625.26 346.455L624.206 351.877H622.768L623.823 346.447C623.828 346.426 623.836 346.39 623.846 346.338C623.924 345.968 623.963 345.682 623.963 345.478C623.963 345.057 623.841 344.734 623.596 344.51C623.357 344.28 623.01 344.166 622.557 344.166C621.896 344.166 621.333 344.408 620.87 344.892C620.406 345.377 620.088 346.057 619.917 346.932L618.956 351.877H617.518L619.229 343.127H620.667L620.417 344.439C620.807 343.934 621.229 343.554 621.682 343.299C622.14 343.043 622.625 342.916 623.135 342.916C623.859 342.916 624.422 343.106 624.823 343.486C625.224 343.861 625.424 344.387 625.424 345.064C625.424 345.231 625.409 345.437 625.377 345.682C625.351 345.926 625.312 346.184 625.26 346.455ZM627.62 348.549L628.659 343.127H630.104L629.049 348.549C629.013 348.741 628.984 348.926 628.963 349.103C628.943 349.28 628.932 349.432 628.932 349.557C628.932 349.968 629.052 350.286 629.292 350.51C629.536 350.728 629.88 350.838 630.323 350.838C630.984 350.838 631.544 350.598 632.002 350.119C632.461 349.635 632.776 348.952 632.948 348.072L633.909 343.127H635.354L633.651 351.877H632.213L632.471 350.564C632.091 351.075 631.669 351.458 631.206 351.713C630.742 351.963 630.237 352.088 629.69 352.088C629.008 352.088 628.469 351.898 628.073 351.517C627.677 351.132 627.479 350.611 627.479 349.955C627.479 349.752 627.489 349.53 627.51 349.291C627.536 349.046 627.573 348.799 627.62 348.549ZM641.987 344.017C642.19 343.663 642.453 343.392 642.776 343.205C643.104 343.012 643.469 342.916 643.87 342.916C644.318 342.916 644.674 343.059 644.94 343.346C645.211 343.627 645.346 344.007 645.346 344.486C645.346 344.767 645.323 345.085 645.276 345.439C645.229 345.793 645.151 346.249 645.042 346.807L644.049 351.877H642.737L643.713 346.869C643.807 346.39 643.877 345.999 643.924 345.697C643.976 345.39 644.002 345.174 644.002 345.049C644.002 344.721 643.943 344.484 643.823 344.338C643.703 344.192 643.51 344.119 643.245 344.119C642.854 344.119 642.549 344.288 642.331 344.627C642.112 344.96 641.89 345.708 641.667 346.869L640.69 351.877H639.377L640.354 346.869C640.453 346.364 640.523 345.965 640.565 345.674C640.612 345.377 640.635 345.168 640.635 345.049C640.635 344.731 640.573 344.497 640.448 344.346C640.328 344.195 640.14 344.119 639.885 344.119C639.5 344.119 639.2 344.275 638.987 344.588C638.778 344.895 638.557 345.655 638.323 346.869L637.346 351.877H636.034L637.729 343.127H639.042L638.893 343.877C639.122 343.564 639.38 343.327 639.667 343.166C639.958 342.999 640.271 342.916 640.604 342.916C640.995 342.916 641.31 343.015 641.549 343.213C641.789 343.405 641.935 343.674 641.987 344.017ZM653.112 346.728C653.143 346.588 653.164 346.473 653.174 346.385C653.185 346.291 653.19 346.202 653.19 346.119C653.19 345.494 653.021 345.007 652.682 344.658C652.344 344.309 651.872 344.135 651.268 344.135C650.627 344.135 650.042 344.369 649.51 344.838C648.984 345.307 648.607 345.937 648.377 346.728H653.112ZM653.292 351.432C652.745 351.655 652.211 351.822 651.69 351.932C651.169 352.046 650.64 352.103 650.104 352.103C648.943 352.103 648.06 351.814 647.456 351.236C646.851 350.653 646.549 349.804 646.549 348.689C646.549 347.877 646.706 347.08 647.018 346.299C647.331 345.517 647.763 344.843 648.315 344.275C648.747 343.827 649.224 343.486 649.745 343.252C650.271 343.017 650.818 342.9 651.385 342.9C652.354 342.9 653.127 343.2 653.706 343.799C654.289 344.392 654.581 345.187 654.581 346.182C654.581 346.359 654.568 346.58 654.542 346.846C654.515 347.106 654.471 347.439 654.409 347.846H648.104C648.073 348.012 648.049 348.163 648.034 348.299C648.018 348.434 648.01 348.554 648.01 348.658C648.01 349.382 648.211 349.934 648.612 350.314C649.013 350.695 649.596 350.885 650.362 350.885C650.82 350.885 651.32 350.812 651.862 350.666C652.409 350.515 652.979 350.293 653.573 350.002L653.292 351.432ZM664.674 344.932C664.44 344.702 664.167 344.53 663.854 344.416C663.547 344.301 663.195 344.244 662.799 344.244C661.945 344.244 661.213 344.543 660.604 345.142C659.995 345.736 659.591 346.551 659.393 347.588L658.557 351.877H657.12L658.815 343.127H660.252L659.94 344.838C660.289 344.213 660.739 343.736 661.292 343.408C661.849 343.08 662.479 342.916 663.182 342.916C663.552 342.916 663.885 342.965 664.182 343.064C664.484 343.158 664.739 343.296 664.948 343.478L664.674 344.932ZM670.502 344.135C669.648 344.135 668.935 344.58 668.362 345.471C667.794 346.361 667.51 347.494 667.51 348.869C667.51 349.541 667.656 350.046 667.948 350.385C668.239 350.718 668.677 350.885 669.26 350.885C670.114 350.885 670.825 350.439 671.393 349.549C671.966 348.658 672.252 347.525 672.252 346.15C672.252 345.478 672.107 344.976 671.815 344.642C671.523 344.304 671.086 344.135 670.502 344.135ZM670.635 342.916C671.656 342.916 672.432 343.195 672.963 343.752C673.5 344.309 673.768 345.124 673.768 346.197C673.768 346.916 673.661 347.632 673.448 348.346C673.234 349.054 672.935 349.692 672.549 350.26C672.138 350.874 671.638 351.335 671.049 351.642C670.461 351.95 669.784 352.103 669.018 352.103C668.044 352.103 667.294 351.82 666.768 351.252C666.242 350.679 665.979 349.864 665.979 348.807C665.979 348.103 666.086 347.4 666.299 346.697C666.513 345.994 666.815 345.348 667.206 344.76C667.617 344.155 668.112 343.697 668.69 343.385C669.273 343.072 669.922 342.916 670.635 342.916ZM675.823 348.549L676.862 343.127H678.307L677.252 348.549C677.216 348.741 677.187 348.926 677.167 349.103C677.146 349.28 677.135 349.432 677.135 349.557C677.135 349.968 677.255 350.286 677.495 350.51C677.739 350.728 678.083 350.838 678.526 350.838C679.187 350.838 679.747 350.598 680.206 350.119C680.664 349.635 680.979 348.952 681.151 348.072L682.112 343.127H683.557L681.854 351.877H680.417L680.674 350.564C680.294 351.075 679.872 351.458 679.409 351.713C678.945 351.963 678.44 352.088 677.893 352.088C677.211 352.088 676.672 351.898 676.276 351.517C675.88 351.132 675.682 350.611 675.682 349.955C675.682 349.752 675.693 349.53 675.713 349.291C675.739 349.046 675.776 348.799 675.823 348.549ZM692.76 343.432L692.487 344.838C692.117 344.603 691.726 344.426 691.315 344.307C690.909 344.182 690.505 344.119 690.104 344.119C689.39 344.119 688.836 344.252 688.44 344.517C688.049 344.783 687.854 345.155 687.854 345.635C687.854 346.145 688.43 346.546 689.581 346.838C689.659 346.859 689.716 346.874 689.752 346.885L690.315 347.025C690.924 347.187 691.38 347.429 691.682 347.752C691.984 348.07 692.135 348.468 692.135 348.947C692.135 349.89 691.76 350.653 691.01 351.236C690.26 351.814 689.265 352.103 688.026 352.103C687.604 352.103 687.164 352.057 686.706 351.963C686.247 351.874 685.76 351.739 685.245 351.557L685.534 350.072C686.023 350.348 686.497 350.557 686.956 350.697C687.419 350.833 687.867 350.9 688.299 350.9C688.992 350.9 689.557 350.747 689.995 350.439C690.432 350.127 690.651 349.731 690.651 349.252C690.651 348.736 690.14 348.343 689.12 348.072C689.026 348.051 688.953 348.033 688.901 348.017L688.377 347.877C687.706 347.705 687.211 347.452 686.893 347.119C686.581 346.786 686.424 346.351 686.424 345.814C686.424 344.929 686.768 344.226 687.456 343.705C688.143 343.179 689.07 342.916 690.237 342.916C690.695 342.916 691.135 342.96 691.557 343.049C691.979 343.132 692.38 343.26 692.76 343.432ZM705.917 350.775L705.049 355.205H703.612L705.963 343.127H707.401L707.182 344.244C707.5 343.817 707.883 343.489 708.331 343.26C708.778 343.03 709.263 342.916 709.784 342.916C710.627 342.916 711.281 343.187 711.745 343.728C712.208 344.27 712.44 345.028 712.44 346.002C712.44 346.747 712.336 347.494 712.127 348.244C711.924 348.994 711.64 349.655 711.276 350.228C710.885 350.843 710.424 351.309 709.893 351.627C709.362 351.945 708.778 352.103 708.143 352.103C707.622 352.103 707.177 351.994 706.807 351.775C706.443 351.557 706.146 351.223 705.917 350.775ZM708.073 350.885C708.495 350.885 708.88 350.77 709.229 350.541C709.578 350.307 709.87 349.968 710.104 349.525C710.359 349.046 710.56 348.507 710.706 347.908C710.851 347.304 710.924 346.708 710.924 346.119C710.924 345.458 710.789 344.963 710.518 344.635C710.252 344.301 709.854 344.135 709.323 344.135C708.88 344.135 708.479 344.252 708.12 344.486C707.765 344.721 707.463 345.067 707.213 345.525C706.958 345.984 706.758 346.51 706.612 347.103C706.466 347.697 706.393 348.291 706.393 348.885C706.393 349.525 706.539 350.02 706.831 350.369C707.122 350.713 707.536 350.885 708.073 350.885ZM718.674 347.478C718.055 347.478 717.594 347.499 717.292 347.541C716.989 347.577 716.726 347.642 716.502 347.736C716.148 347.877 715.864 348.109 715.651 348.432C715.437 348.749 715.331 349.098 715.331 349.478C715.331 349.911 715.463 350.257 715.729 350.517C716 350.773 716.364 350.9 716.823 350.9C717.594 350.9 718.258 350.624 718.815 350.072C719.377 349.52 719.758 348.762 719.956 347.799L720.018 347.478H718.674ZM721.573 346.885L720.596 351.877H719.159L719.409 350.58C719.034 351.07 718.591 351.447 718.081 351.713C717.57 351.973 717.028 352.103 716.456 352.103C715.659 352.103 715.021 351.887 714.542 351.455C714.068 351.017 713.831 350.439 713.831 349.721C713.831 348.7 714.232 347.885 715.034 347.275C715.841 346.661 716.932 346.353 718.307 346.353H720.229L720.323 345.877C720.333 345.83 720.341 345.78 720.346 345.728C720.351 345.676 720.354 345.603 720.354 345.51C720.354 345.067 720.19 344.728 719.862 344.494C719.534 344.254 719.065 344.135 718.456 344.135C718.008 344.135 717.523 344.202 717.002 344.338C716.487 344.468 715.94 344.666 715.362 344.932L715.635 343.525C716.198 343.322 716.732 343.171 717.237 343.072C717.742 342.968 718.226 342.916 718.69 342.916C719.659 342.916 720.411 343.129 720.948 343.557C721.489 343.984 721.76 344.575 721.76 345.33C721.76 345.497 721.745 345.715 721.713 345.986C721.682 346.257 721.635 346.557 721.573 346.885ZM728.909 340.642L728.432 343.127H731.69L731.471 344.244H728.206L727.276 348.994C727.245 349.15 727.221 349.296 727.206 349.432C727.19 349.562 727.182 349.684 727.182 349.799C727.182 350.142 727.284 350.385 727.487 350.525C727.69 350.661 728.057 350.728 728.588 350.728H730.206L729.979 351.877H728.237C727.367 351.877 726.726 351.734 726.315 351.447C725.909 351.155 725.706 350.702 725.706 350.088C725.706 349.958 725.716 349.804 725.737 349.627C725.758 349.45 725.792 349.239 725.838 348.994L726.768 344.244H724.432L724.651 343.127H726.987L727.471 340.642H728.909ZM740.948 346.455L739.893 351.877H738.456L739.51 346.447C739.515 346.426 739.523 346.39 739.534 346.338C739.612 345.968 739.651 345.682 739.651 345.478C739.651 345.057 739.528 344.734 739.284 344.51C739.044 344.28 738.698 344.166 738.245 344.166C737.583 344.166 737.021 344.408 736.557 344.892C736.094 345.377 735.776 346.057 735.604 346.932L734.643 351.877H733.206L735.573 339.721H737.01L736.104 344.439C736.495 343.934 736.917 343.554 737.37 343.299C737.828 343.043 738.312 342.916 738.823 342.916C739.547 342.916 740.109 343.106 740.51 343.486C740.911 343.861 741.112 344.387 741.112 345.064C741.112 345.231 741.096 345.437 741.065 345.682C741.039 345.926 741 346.184 740.948 346.455ZM742.909 343.127H744.284L744.401 350.197L746.495 345.682H747.76L748.143 350.197L750.971 343.127H752.463L748.667 351.877H747.377L746.909 347.01L744.588 351.877H743.292L742.909 343.127ZM757.237 347.478C756.617 347.478 756.156 347.499 755.854 347.541C755.552 347.577 755.289 347.642 755.065 347.736C754.711 347.877 754.427 348.109 754.213 348.432C754 348.749 753.893 349.098 753.893 349.478C753.893 349.911 754.026 350.257 754.292 350.517C754.562 350.773 754.927 350.9 755.385 350.9C756.156 350.9 756.82 350.624 757.377 350.072C757.94 349.52 758.32 348.762 758.518 347.799L758.581 347.478H757.237ZM760.135 346.885L759.159 351.877H757.721L757.971 350.58C757.596 351.07 757.153 351.447 756.643 351.713C756.133 351.973 755.591 352.103 755.018 352.103C754.221 352.103 753.583 351.887 753.104 351.455C752.63 351.017 752.393 350.439 752.393 349.721C752.393 348.7 752.794 347.885 753.596 347.275C754.403 346.661 755.495 346.353 756.87 346.353H758.792L758.885 345.877C758.896 345.83 758.903 345.78 758.909 345.728C758.914 345.676 758.917 345.603 758.917 345.51C758.917 345.067 758.752 344.728 758.424 344.494C758.096 344.254 757.627 344.135 757.018 344.135C756.57 344.135 756.086 344.202 755.565 344.338C755.049 344.468 754.502 344.666 753.924 344.932L754.198 343.525C754.76 343.322 755.294 343.171 755.799 343.072C756.305 342.968 756.789 342.916 757.252 342.916C758.221 342.916 758.974 343.129 759.51 343.557C760.052 343.984 760.323 344.575 760.323 345.33C760.323 345.497 760.307 345.715 760.276 345.986C760.245 346.257 760.198 346.557 760.135 346.885ZM767.612 349.064C767.289 349.622 766.859 350.372 766.323 351.314C765.515 352.747 764.971 353.653 764.69 354.033C764.388 354.429 764.042 354.723 763.651 354.916C763.265 355.109 762.823 355.205 762.323 355.205H761.167L761.393 354.002H762.237C762.659 354.002 763.021 353.879 763.323 353.635C763.63 353.395 763.94 352.981 764.252 352.392L764.588 351.736L762.893 343.127H764.323L765.667 349.861L769.44 343.127H771.042L767.612 349.064ZM779.526 343.432L779.252 344.838C778.883 344.603 778.492 344.426 778.081 344.307C777.674 344.182 777.271 344.119 776.87 344.119C776.156 344.119 775.601 344.252 775.206 344.517C774.815 344.783 774.62 345.155 774.62 345.635C774.62 346.145 775.195 346.546 776.346 346.838C776.424 346.859 776.482 346.874 776.518 346.885L777.081 347.025C777.69 347.187 778.146 347.429 778.448 347.752C778.75 348.07 778.901 348.468 778.901 348.947C778.901 349.89 778.526 350.653 777.776 351.236C777.026 351.814 776.031 352.103 774.792 352.103C774.37 352.103 773.93 352.057 773.471 351.963C773.013 351.874 772.526 351.739 772.01 351.557L772.299 350.072C772.789 350.348 773.263 350.557 773.721 350.697C774.185 350.833 774.633 350.9 775.065 350.9C775.758 350.9 776.323 350.747 776.76 350.439C777.198 350.127 777.417 349.731 777.417 349.252C777.417 348.736 776.906 348.343 775.885 348.072C775.792 348.051 775.719 348.033 775.667 348.017L775.143 347.877C774.471 347.705 773.976 347.452 773.659 347.119C773.346 346.786 773.19 346.351 773.19 345.814C773.19 344.929 773.534 344.226 774.221 343.705C774.909 343.179 775.836 342.916 777.002 342.916C777.461 342.916 777.901 342.96 778.323 343.049C778.745 343.132 779.146 343.26 779.526 343.432Z" fill="black"/>
<path d="M795.414 388.422H590.6C582.536 388.422 576 394.958 576 403.021C576 411.084 582.536 417.621 590.6 417.621H795.414C803.477 417.621 810.014 411.084 810.014 403.021C810.014 394.958 803.477 388.422 795.414 388.422Z" fill="#F2F2F2"/>
<path d="M618.088 407.32C617.771 407.757 617.396 408.088 616.963 408.312C616.536 408.536 616.057 408.648 615.526 408.648C614.672 408.648 614.005 408.38 613.526 407.843C613.047 407.302 612.807 406.544 612.807 405.57C612.807 404.83 612.914 404.083 613.127 403.328C613.341 402.573 613.635 401.903 614.01 401.32C614.401 400.705 614.867 400.242 615.409 399.929C615.956 399.617 616.568 399.461 617.245 399.461C617.765 399.461 618.2 399.573 618.549 399.797C618.903 400.015 619.172 400.346 619.354 400.789L619.565 399.672H621.002L618.667 411.75H617.229L618.088 407.32ZM617.26 400.679C616.818 400.679 616.419 400.794 616.065 401.023C615.711 401.252 615.414 401.591 615.174 402.039C614.919 402.528 614.716 403.075 614.565 403.679C614.419 404.283 614.346 404.867 614.346 405.429C614.346 406.096 614.476 406.596 614.737 406.929C615.002 407.263 615.401 407.429 615.932 407.429C616.359 407.429 616.752 407.312 617.112 407.078C617.471 406.838 617.781 406.492 618.042 406.039C618.292 405.596 618.492 405.07 618.643 404.461C618.794 403.846 618.87 403.247 618.87 402.664C618.87 402.023 618.729 401.533 618.448 401.195C618.172 400.851 617.776 400.679 617.26 400.679ZM622.799 405.093L623.838 399.672H625.284L624.229 405.093C624.193 405.286 624.164 405.471 624.143 405.648C624.122 405.825 624.112 405.976 624.112 406.101C624.112 406.513 624.232 406.83 624.471 407.054C624.716 407.273 625.06 407.382 625.502 407.382C626.164 407.382 626.724 407.143 627.182 406.664C627.64 406.179 627.956 405.497 628.127 404.617L629.088 399.672H630.534L628.831 408.422H627.393L627.651 407.109C627.271 407.619 626.849 408.002 626.385 408.257C625.922 408.507 625.417 408.632 624.87 408.632C624.187 408.632 623.648 408.442 623.252 408.062C622.857 407.677 622.659 407.156 622.659 406.5C622.659 406.297 622.669 406.075 622.69 405.836C622.716 405.591 622.752 405.343 622.799 405.093ZM636.729 404.023C636.109 404.023 635.648 404.044 635.346 404.086C635.044 404.122 634.781 404.187 634.557 404.281C634.203 404.422 633.919 404.653 633.706 404.976C633.492 405.294 633.385 405.643 633.385 406.023C633.385 406.455 633.518 406.802 633.784 407.062C634.055 407.317 634.419 407.445 634.877 407.445C635.648 407.445 636.312 407.169 636.87 406.617C637.432 406.065 637.812 405.307 638.01 404.343L638.073 404.023H636.729ZM639.627 403.429L638.651 408.422H637.213L637.463 407.125C637.088 407.614 636.646 407.992 636.135 408.257C635.625 408.518 635.083 408.648 634.51 408.648C633.713 408.648 633.075 408.432 632.596 408C632.122 407.562 631.885 406.984 631.885 406.265C631.885 405.244 632.286 404.429 633.088 403.82C633.896 403.205 634.987 402.898 636.362 402.898H638.284L638.377 402.422C638.388 402.375 638.396 402.325 638.401 402.273C638.406 402.221 638.409 402.148 638.409 402.054C638.409 401.612 638.245 401.273 637.917 401.039C637.588 400.799 637.12 400.679 636.51 400.679C636.062 400.679 635.578 400.747 635.057 400.882C634.542 401.013 633.995 401.211 633.417 401.476L633.69 400.07C634.252 399.867 634.786 399.716 635.292 399.617C635.797 399.513 636.281 399.461 636.745 399.461C637.713 399.461 638.466 399.674 639.002 400.101C639.544 400.528 639.815 401.119 639.815 401.875C639.815 402.041 639.799 402.26 639.768 402.531C639.737 402.802 639.69 403.101 639.627 403.429ZM645.651 405.234C645.614 405.416 645.586 405.578 645.565 405.718C645.549 405.859 645.542 405.976 645.542 406.07C645.542 406.45 645.656 406.734 645.885 406.922C646.12 407.109 646.474 407.203 646.948 407.203H648.596L648.354 408.422H646.737C645.836 408.422 645.164 408.257 644.721 407.929C644.284 407.596 644.065 407.088 644.065 406.406C644.065 406.26 644.078 406.083 644.104 405.875C644.13 405.666 644.167 405.442 644.213 405.203L645.862 397.304H643.393L643.62 396.179H647.526L645.651 405.234ZM653.401 399.672H657.081L655.596 407.304H658.448L658.221 408.422H651.081L651.307 407.304H654.159L655.417 400.789H653.182L653.401 399.672ZM656.299 396.265H657.737L657.385 398.086H655.948L656.299 396.265ZM666.245 397.187L665.768 399.672H669.026L668.807 400.789H665.542L664.612 405.539C664.581 405.695 664.557 405.841 664.542 405.976C664.526 406.106 664.518 406.229 664.518 406.343C664.518 406.687 664.62 406.929 664.823 407.07C665.026 407.205 665.393 407.273 665.924 407.273H667.542L667.315 408.422H665.573C664.703 408.422 664.062 408.278 663.651 407.992C663.245 407.7 663.042 407.247 663.042 406.632C663.042 406.502 663.052 406.349 663.073 406.172C663.094 405.994 663.127 405.783 663.174 405.539L664.104 400.789H661.768L661.987 399.672H664.323L664.807 397.187H666.245ZM676.026 405.609C675.703 406.166 675.273 406.916 674.737 407.859C673.93 409.291 673.385 410.198 673.104 410.578C672.802 410.974 672.456 411.268 672.065 411.461C671.68 411.653 671.237 411.75 670.737 411.75H669.581L669.807 410.547H670.651C671.073 410.547 671.435 410.424 671.737 410.179C672.044 409.94 672.354 409.526 672.667 408.937L673.002 408.281L671.307 399.672H672.737L674.081 406.406L677.854 399.672H679.456L676.026 405.609ZM695.01 400.562C695.213 400.208 695.476 399.937 695.799 399.75C696.127 399.557 696.492 399.461 696.893 399.461C697.341 399.461 697.698 399.604 697.963 399.89C698.234 400.172 698.37 400.552 698.37 401.031C698.37 401.312 698.346 401.63 698.299 401.984C698.252 402.338 698.174 402.794 698.065 403.351L697.073 408.422H695.76L696.737 403.414C696.831 402.935 696.901 402.544 696.948 402.242C697 401.935 697.026 401.718 697.026 401.593C697.026 401.265 696.966 401.028 696.846 400.882C696.726 400.737 696.534 400.664 696.268 400.664C695.877 400.664 695.573 400.833 695.354 401.172C695.135 401.505 694.914 402.252 694.69 403.414L693.713 408.422H692.401L693.377 403.414C693.476 402.908 693.547 402.51 693.588 402.218C693.635 401.922 693.659 401.713 693.659 401.593C693.659 401.276 693.596 401.041 693.471 400.89C693.351 400.739 693.164 400.664 692.909 400.664C692.523 400.664 692.224 400.82 692.01 401.132C691.802 401.44 691.581 402.2 691.346 403.414L690.37 408.422H689.057L690.752 399.672H692.065L691.917 400.422C692.146 400.109 692.403 399.872 692.69 399.711C692.982 399.544 693.294 399.461 693.627 399.461C694.018 399.461 694.333 399.56 694.573 399.757C694.812 399.95 694.958 400.218 695.01 400.562ZM706.135 403.273C706.167 403.132 706.187 403.018 706.198 402.929C706.208 402.836 706.213 402.747 706.213 402.664C706.213 402.039 706.044 401.552 705.706 401.203C705.367 400.854 704.896 400.679 704.292 400.679C703.651 400.679 703.065 400.914 702.534 401.382C702.008 401.851 701.63 402.481 701.401 403.273H706.135ZM706.315 407.976C705.768 408.2 705.234 408.367 704.713 408.476C704.193 408.591 703.664 408.648 703.127 408.648C701.966 408.648 701.083 408.359 700.479 407.781C699.875 407.198 699.573 406.349 699.573 405.234C699.573 404.422 699.729 403.625 700.042 402.843C700.354 402.062 700.786 401.388 701.338 400.82C701.771 400.372 702.247 400.031 702.768 399.797C703.294 399.562 703.841 399.445 704.409 399.445C705.377 399.445 706.151 399.744 706.729 400.343C707.312 400.937 707.604 401.731 707.604 402.726C707.604 402.903 707.591 403.125 707.565 403.39C707.539 403.651 707.495 403.984 707.432 404.39H701.127C701.096 404.557 701.073 404.708 701.057 404.843C701.042 404.979 701.034 405.099 701.034 405.203C701.034 405.927 701.234 406.479 701.635 406.859C702.036 407.239 702.62 407.429 703.385 407.429C703.844 407.429 704.344 407.356 704.885 407.211C705.432 407.06 706.002 406.838 706.596 406.547L706.315 407.976ZM716.846 403L715.792 408.422H714.354L715.409 402.992C715.414 402.971 715.422 402.935 715.432 402.882C715.51 402.513 715.549 402.226 715.549 402.023C715.549 401.601 715.427 401.278 715.182 401.054C714.943 400.825 714.596 400.711 714.143 400.711C713.482 400.711 712.919 400.953 712.456 401.437C711.992 401.922 711.674 402.601 711.502 403.476L710.542 408.422H709.104L710.815 399.672H712.252L712.002 400.984C712.393 400.479 712.815 400.099 713.268 399.843C713.726 399.588 714.211 399.461 714.721 399.461C715.445 399.461 716.008 399.651 716.409 400.031C716.81 400.406 717.01 400.932 717.01 401.609C717.01 401.776 716.995 401.981 716.963 402.226C716.937 402.471 716.898 402.729 716.846 403ZM724.088 397.187L723.612 399.672H726.87L726.651 400.789H723.385L722.456 405.539C722.424 405.695 722.401 405.841 722.385 405.976C722.37 406.106 722.362 406.229 722.362 406.343C722.362 406.687 722.463 406.929 722.667 407.07C722.87 407.205 723.237 407.273 723.768 407.273H725.385L725.159 408.422H723.417C722.547 408.422 721.906 408.278 721.495 407.992C721.088 407.7 720.885 407.247 720.885 406.632C720.885 406.502 720.896 406.349 720.917 406.172C720.937 405.994 720.971 405.783 721.018 405.539L721.948 400.789H719.612L719.831 399.672H722.167L722.651 397.187H724.088ZM733.167 400.679C732.312 400.679 731.599 401.125 731.026 402.015C730.458 402.906 730.174 404.039 730.174 405.414C730.174 406.086 730.32 406.591 730.612 406.929C730.903 407.263 731.341 407.429 731.924 407.429C732.778 407.429 733.489 406.984 734.057 406.093C734.63 405.203 734.917 404.07 734.917 402.695C734.917 402.023 734.771 401.52 734.479 401.187C734.187 400.849 733.75 400.679 733.167 400.679ZM733.299 399.461C734.32 399.461 735.096 399.739 735.627 400.297C736.164 400.854 736.432 401.669 736.432 402.742C736.432 403.461 736.325 404.177 736.112 404.89C735.898 405.599 735.599 406.237 735.213 406.804C734.802 407.419 734.302 407.88 733.713 408.187C733.125 408.494 732.448 408.648 731.682 408.648C730.708 408.648 729.958 408.364 729.432 407.797C728.906 407.224 728.643 406.408 728.643 405.351C728.643 404.648 728.75 403.945 728.963 403.242C729.177 402.539 729.479 401.893 729.87 401.304C730.281 400.7 730.776 400.242 731.354 399.929C731.937 399.617 732.586 399.461 733.299 399.461ZM746.62 401.476C746.385 401.247 746.112 401.075 745.799 400.961C745.492 400.846 745.14 400.789 744.745 400.789C743.89 400.789 743.159 401.088 742.549 401.687C741.94 402.281 741.536 403.096 741.338 404.132L740.502 408.422H739.065L740.76 399.672H742.198L741.885 401.382C742.234 400.757 742.685 400.281 743.237 399.953C743.794 399.625 744.424 399.461 745.127 399.461C745.497 399.461 745.831 399.51 746.127 399.609C746.43 399.703 746.685 399.841 746.893 400.023L746.62 401.476ZM755.424 399.976L755.151 401.382C754.781 401.148 754.39 400.971 753.979 400.851C753.573 400.726 753.169 400.664 752.768 400.664C752.055 400.664 751.5 400.797 751.104 401.062C750.713 401.328 750.518 401.7 750.518 402.179C750.518 402.69 751.094 403.091 752.245 403.382C752.323 403.403 752.38 403.419 752.417 403.429L752.979 403.57C753.588 403.731 754.044 403.974 754.346 404.297C754.648 404.614 754.799 405.013 754.799 405.492C754.799 406.435 754.424 407.198 753.674 407.781C752.924 408.359 751.93 408.648 750.69 408.648C750.268 408.648 749.828 408.601 749.37 408.507C748.911 408.419 748.424 408.283 747.909 408.101L748.198 406.617C748.687 406.893 749.161 407.101 749.62 407.242C750.083 407.377 750.531 407.445 750.963 407.445C751.656 407.445 752.221 407.291 752.659 406.984C753.096 406.672 753.315 406.276 753.315 405.797C753.315 405.281 752.805 404.888 751.784 404.617C751.69 404.596 751.617 404.578 751.565 404.562L751.042 404.422C750.37 404.25 749.875 403.997 749.557 403.664C749.245 403.33 749.088 402.895 749.088 402.359C749.088 401.474 749.432 400.77 750.12 400.25C750.807 399.724 751.734 399.461 752.901 399.461C753.359 399.461 753.799 399.505 754.221 399.593C754.643 399.677 755.044 399.804 755.424 399.976ZM765.049 403L763.995 408.422H762.557L763.612 402.992C763.617 402.971 763.625 402.935 763.635 402.882C763.713 402.513 763.752 402.226 763.752 402.023C763.752 401.601 763.63 401.278 763.385 401.054C763.146 400.825 762.799 400.711 762.346 400.711C761.685 400.711 761.122 400.953 760.659 401.437C760.195 401.922 759.877 402.601 759.706 403.476L758.745 408.422H757.307L759.674 396.265H761.112L760.206 400.984C760.596 400.479 761.018 400.099 761.471 399.843C761.93 399.588 762.414 399.461 762.924 399.461C763.648 399.461 764.211 399.651 764.612 400.031C765.013 400.406 765.213 400.932 765.213 401.609C765.213 401.776 765.198 401.981 765.167 402.226C765.14 402.471 765.101 402.729 765.049 403ZM769.088 399.672H772.768L771.284 407.304H774.135L773.909 408.422H766.768L766.995 407.304H769.846L771.104 400.789H768.87L769.088 399.672ZM771.987 396.265H773.424L773.073 398.086H771.635L771.987 396.265ZM778.221 407.32L777.354 411.75H775.917L778.268 399.672H779.706L779.487 400.789C779.805 400.362 780.187 400.033 780.635 399.804C781.083 399.575 781.568 399.461 782.088 399.461C782.932 399.461 783.586 399.731 784.049 400.273C784.513 400.815 784.745 401.573 784.745 402.547C784.745 403.291 784.64 404.039 784.432 404.789C784.229 405.539 783.945 406.2 783.581 406.773C783.19 407.388 782.729 407.854 782.198 408.172C781.667 408.489 781.083 408.648 780.448 408.648C779.927 408.648 779.482 408.539 779.112 408.32C778.747 408.101 778.45 407.768 778.221 407.32ZM780.377 407.429C780.799 407.429 781.185 407.315 781.534 407.086C781.883 406.851 782.174 406.513 782.409 406.07C782.664 405.591 782.864 405.052 783.01 404.453C783.156 403.849 783.229 403.252 783.229 402.664C783.229 402.002 783.094 401.507 782.823 401.179C782.557 400.846 782.159 400.679 781.627 400.679C781.185 400.679 780.784 400.797 780.424 401.031C780.07 401.265 779.768 401.612 779.518 402.07C779.263 402.528 779.062 403.054 778.917 403.648C778.771 404.242 778.698 404.836 778.698 405.429C778.698 406.07 778.844 406.565 779.135 406.914C779.427 407.257 779.841 407.429 780.377 407.429Z" fill="black"/>
</g>
<rect x="1.5" y="1.9104" width="904" height="494.358" rx="43.5" stroke="#3F3D56" stroke-width="3"/>
<defs>
<clipPath id="clip0">
</clipPath>
</defs>
</svg>
