<svg width="458" height="354" viewBox="0 0 458 354" fill="none" xmlns="http://www.w3.org/2000/svg">
<path d="M226.753 285.249C197.734 285.249 169.613 275.194 147.182 256.796C124.75 238.399 109.396 212.798 103.734 184.355C98.0733 155.913 102.456 126.388 116.135 100.813C129.814 75.2372 151.944 55.1929 178.754 44.0952C205.563 32.9975 235.394 31.533 263.163 39.9512C290.932 48.3694 314.922 66.1495 331.043 90.262C347.165 114.374 354.422 143.327 351.578 172.188C348.734 201.048 335.964 228.03 315.445 248.535C303.825 260.212 290.003 269.469 274.779 275.77C259.555 282.072 243.231 285.294 226.753 285.249ZM226.753 35.3696C158.042 35.3696 102.141 91.2341 102.141 159.901C102.141 228.568 158.042 284.432 226.753 284.432C295.464 284.432 351.365 228.568 351.365 159.901C351.365 91.2341 295.464 35.3696 226.753 35.3696Z" fill="#3F3D56"/>
<path d="M237.318 271.407C234.995 279.988 227.04 285.302 227.04 285.302C227.04 285.302 222.85 276.705 225.172 268.124C227.495 259.543 235.451 254.229 235.451 254.229C235.451 254.229 239.641 262.827 237.318 271.407Z" fill="#68D391"/>
<path d="M216.188 271.407C218.51 279.988 226.466 285.302 226.466 285.302C226.466 285.302 230.656 276.705 228.334 268.124C226.011 259.543 218.055 254.229 218.055 254.229C218.055 254.229 213.865 262.827 216.188 271.407Z" fill="#68D391"/>
<path d="M219.601 269.563C225.974 275.764 226.753 285.295 226.753 285.295C226.753 285.295 217.198 284.774 210.824 278.573C204.451 272.373 203.672 262.842 203.672 262.842C203.672 262.842 213.227 263.363 219.601 269.563Z" fill="#3F3D56"/>
<path d="M233.905 269.563C227.531 275.764 226.753 285.295 226.753 285.295C226.753 285.295 236.308 284.774 242.682 278.573C249.055 272.373 249.834 262.842 249.834 262.842C249.834 262.842 240.279 263.363 233.905 269.563Z" fill="#3F3D56"/>
<path d="M216.188 48.8671C218.51 40.2865 226.466 34.9724 226.466 34.9724C226.466 34.9724 230.656 43.5701 228.334 52.1506C226.011 60.7312 218.055 66.0454 218.055 66.0454C218.055 66.0454 213.865 57.4477 216.188 48.8671Z" fill="#68D391"/>
<path d="M237.318 48.8671C234.995 40.2865 227.04 34.9724 227.04 34.9724C227.04 34.9724 222.85 43.5701 225.172 52.1506C227.495 60.7312 235.451 66.0454 235.451 66.0454C235.451 66.0454 239.641 57.4477 237.318 48.8671Z" fill="#68D391"/>
<path d="M233.905 50.7112C227.531 44.5108 226.753 34.9794 226.753 34.9794C226.753 34.9794 236.308 35.5007 242.682 41.7011C249.055 47.9015 249.834 57.433 249.834 57.433C249.834 57.433 240.279 56.9116 233.905 50.7112Z" fill="#3F3D56"/>
<path d="M219.601 50.7112C225.974 44.5108 226.753 34.9794 226.753 34.9794C226.753 34.9794 217.198 35.5007 210.824 41.7011C204.451 47.9015 203.672 57.433 203.672 57.433C203.672 57.433 213.227 56.9116 219.601 50.7112Z" fill="#3F3D56"/>
<path d="M168.362 5.1759H5.97656V170.197H168.362V5.1759Z" fill="#68D391"/>
<path d="M162.226 9.36438H17.5694H9.37036V18.1436V163.877H17.5694V18.1436H162.226V9.36438Z" fill="#3F3D56"/>
<path opacity="0.3" d="M162.226 9.36438H17.5694H9.37036V18.1436V163.877H17.5694V18.1436H162.226V9.36438Z" fill="black"/>
<path opacity="0.1" d="M138.8 18.1436H132.358H17.5696V39.2135H132.358V163.877H162.227V18.1436H138.8Z" fill="black"/>
<path d="M0 0V173.242H171.597V0H0ZM162.226 163.877H9.37047V9.36443H162.226V163.877Z" fill="#3F3D56"/>
<path d="M120.424 179.629C120.424 179.629 128.184 194.653 132.548 198.045C136.913 201.438 125.516 205.557 125.516 205.557L112.18 184.717L120.424 179.629Z" fill="#A0616A"/>
<path d="M73.3829 143.038C73.3829 143.038 109.512 152.488 112.665 158.789C115.817 165.089 125.516 180.356 125.516 180.356L111.21 191.745L97.1459 170.663L58.3491 153.215L73.3829 143.038Z" fill="#2F2E41"/>
<path d="M124.304 199.499C124.304 199.499 120.909 196.591 119.939 198.53C118.969 200.468 116.06 210.404 116.06 210.404C116.06 210.404 120.182 214.281 128.669 211.858C128.669 211.858 130.851 210.161 134.246 211.858C137.64 213.554 150.249 210.161 149.764 204.588C149.279 199.014 136.428 199.499 136.428 199.499C136.428 199.499 131.015 193.439 130.327 195.742C129.638 198.045 130.608 198.288 130.608 198.288C130.608 198.288 126.244 202.892 124.304 199.499Z" fill="#2F2E41"/>
<path d="M82.8398 194.41L80.415 214.765H92.2966C92.2966 214.765 91.3266 199.014 91.5691 197.076C91.8116 195.137 82.8398 194.41 82.8398 194.41Z" fill="#A0616A"/>
<path d="M89.6293 149.581C89.6293 149.581 96.1762 159.274 92.2966 160C88.4169 160.727 85.2646 149.581 85.2646 149.581H89.6293Z" fill="#A0616A"/>
<path d="M40.1634 148.611C40.1634 148.611 35.3138 162.908 54.4697 166.786C73.6256 170.663 79.4452 173.813 79.4452 173.813L81.87 198.53L98.6011 199.499C98.6011 199.499 106.603 161.939 96.1763 157.093C85.7496 152.246 63.684 146.673 63.684 146.673L40.1634 148.611Z" fill="#2F2E41"/>
<path d="M81.8699 211.615C81.8699 211.615 85.2646 209.919 85.7496 209.919C85.7496 209.919 87.8809 205.006 91.7861 205.524L100.298 217.916C100.298 217.916 113.15 227.124 104.178 229.547C95.2063 231.97 88.1744 230.032 88.1744 230.032L84.5372 227.366C84.5372 227.366 85.0221 224.701 81.8699 225.185C81.8699 225.185 75.3229 222.52 75.5654 220.581C75.8079 218.643 80.9583 210.204 80.9583 210.204L81.8699 211.615Z" fill="#2F2E41"/>
<path d="M83.9309 101.479C89.2876 101.479 93.6301 97.1398 93.6301 91.7865C93.6301 86.4333 89.2876 82.0936 83.9309 82.0936C78.5742 82.0936 74.2317 86.4333 74.2317 91.7865C74.2317 97.1398 78.5742 101.479 83.9309 101.479Z" fill="#A0616A"/>
<path d="M76.0503 88.7575C76.0503 88.7575 67.321 95.0579 65.6237 95.3002C63.9263 95.5425 73.6255 107.416 73.6255 107.416C73.6255 107.416 78.2326 99.9043 81.1424 98.9351C84.0522 97.9658 76.0503 88.7575 76.0503 88.7575Z" fill="#A0616A"/>
<path d="M69.5033 96.7542C69.5033 96.7542 65.8661 91.9077 63.6838 91.9077C61.5015 91.9077 41.8606 94.0886 40.1632 110.324C38.4659 126.56 39.4358 154.912 39.4358 154.912C39.4358 154.912 37.9809 147.884 54.2271 150.792C54.2271 150.792 73.6255 146.673 77.0202 146.673C80.4149 146.673 81.8698 112.021 81.8698 112.021L76.3488 103.466C76.3488 103.466 73.868 108.143 69.5033 96.7542Z" fill="#D0CDE1"/>
<path d="M78.2327 110.082L81.8699 112.021L86.2345 138.676L92.2965 152.488C92.2965 152.488 85.7496 150.236 85.2646 152.937L75.5654 138.918L78.2327 110.082Z" fill="#D0CDE1"/>
<path d="M81.7501 83.8373L87.0267 84.496C86.926 85.569 86.954 86.8984 87.9054 87.406C88.3527 87.6446 88.9202 87.6324 89.3166 87.9483C90.2701 88.708 89.3374 90.3417 89.8757 91.4352L91.419 91.8432C91.6044 92.1899 91.8565 92.4965 92.161 92.7454C92.4654 92.9943 92.8161 93.1806 93.1928 93.2935C93.5696 93.4064 93.9649 93.4437 94.3562 93.4034C94.7474 93.363 95.1268 93.2457 95.4725 93.0582C96.5095 92.4359 97.0379 91.247 97.5045 90.1317C98.062 88.7993 98.6309 87.3677 98.3519 85.9507C98.0521 84.4283 96.8075 83.1631 96.751 81.6126C96.7257 80.9189 96.8723 80.0541 96.2872 79.6801C96.0179 79.5537 95.7281 79.4768 95.4316 79.4532C94.0835 79.1719 93.3329 77.7776 92.3276 76.837C90.2209 74.8659 86.9856 74.9176 84.1048 75.0896C83.2801 75.0925 82.4619 75.2351 81.6849 75.5111C80.8065 75.9513 80.03 76.5702 79.405 77.3279C77.8601 78.9747 76.3559 80.6994 75.3367 82.7139C74.3176 84.7284 73.8155 87.0821 74.3694 89.2705C74.3148 89.0599 76.1485 87.682 76.3767 87.4612C77.0933 86.7677 77.1586 86.4365 77.5464 85.6385C78.4504 83.7783 79.7074 83.5823 81.7501 83.8373Z" fill="#2F2E41"/>
<path opacity="0.1" d="M66.2297 115.049L66.9574 132.012L77.7431 144.653L67.9273 130.558L66.2297 115.049Z" fill="black"/>
<path opacity="0.1" d="M46.8315 119.654L55.3182 139.282L66.2297 148.248L54.5906 140.251L46.8315 119.654Z" fill="black"/>
<path d="M92.931 135.563L98.059 139.088C98.3144 139.289 98.4927 139.572 98.5641 139.889C98.6354 140.206 98.5954 140.538 98.4508 140.829L97.7649 142.244L97.9237 142.353L97.1445 143.96L96.9856 143.851L91.3371 155.5C91.2785 155.653 91.1861 155.791 91.0669 155.903C90.9477 156.016 90.8046 156.1 90.6483 156.15C90.492 156.2 90.3265 156.214 90.1641 156.191C90.0016 156.169 89.8463 156.11 89.7098 156.019L84.8907 152.706C84.597 152.475 84.392 152.15 84.3099 151.785C84.2279 151.421 84.2739 151.039 84.4402 150.704L91.5719 135.997C91.6209 135.869 91.698 135.754 91.7976 135.66C91.8972 135.565 92.0166 135.495 92.1471 135.453C92.2777 135.412 92.4159 135.4 92.5516 135.419C92.6872 135.438 92.8169 135.487 92.931 135.563Z" fill="#3F3D56"/>
<path d="M84.9714 150.576L90.4907 154.37L97.6908 139.521L92.1711 135.727L84.9714 150.576Z" fill="white"/>
<path d="M82.5749 147.307C82.5749 147.307 92.1932 153.968 88.8414 156.051C85.4895 158.135 78.5073 148.889 78.5073 148.889L82.5749 147.307Z" fill="#A0616A"/>
<path d="M53.9846 97.9658C53.9846 97.9658 41.3756 101.601 45.0128 112.747C45.8902 115.436 46.951 118.323 48.0557 121.155C51.5305 130.063 55.4395 138.434 55.4395 138.434L66.3993 148.337L81.1423 152.488L82.8397 151.034C82.8397 151.034 83.3247 146.43 81.1423 145.946C78.96 145.461 75.5653 143.522 75.5653 143.522L66.836 130.679C66.836 130.679 66.5935 98.6927 53.9846 97.9658Z" fill="#D0CDE1"/>
<path d="M293.646 288.835H452.166V127.743L293.646 127.743V288.835Z" fill="#68D391"/>
<path d="M299.636 131.832H440.849H448.853V140.402V282.666H440.849V140.402H299.636V131.832Z" fill="#3F3D56"/>
<path opacity="0.3" d="M299.636 131.832H440.849H448.853V140.402V282.666H440.849V140.402H299.636V131.832Z" fill="black"/>
<path opacity="0.1" d="M322.505 140.402H328.793H440.849V160.97H328.793V282.666H299.636V140.402H322.505Z" fill="black"/>
<path d="M290.489 122.691V291.807H458V122.691H290.489ZM299.636 131.832H448.853V282.666H299.636V131.832Z" fill="#3F3D56"/>
<path d="M388.37 202.422C384.763 196.331 377.627 196.047 377.627 196.047C377.627 196.047 370.673 195.159 366.212 204.435C362.054 213.082 356.315 221.43 365.288 223.455L366.909 218.413L367.912 223.83C369.19 223.922 370.471 223.944 371.751 223.895C381.36 223.585 390.511 223.986 390.217 220.54C389.825 215.959 391.841 208.283 388.37 202.422Z" fill="#2F2E41"/>
<path d="M362.371 251.582L361.612 265.233L383.872 267.508L384.631 253.352L377.042 248.549L362.371 251.582Z" fill="#A0616A"/>
<path d="M422.195 281.538C421.528 275.089 395.026 272.162 388.657 271.551L386.275 270.162L385.517 262.073C385.517 262.073 361.992 260.051 360.221 259.798C358.45 259.545 356.932 262.831 356.932 263.59C356.932 264.138 356.601 268.052 355.272 270.372C352.402 272.676 343.652 279.928 343.652 282.676C343.652 285.962 350.608 327.294 350.608 327.294L351.367 335.889L358.45 337.153L357.944 310.357C357.944 310.357 360.474 294.936 356.932 290.639V288.869C356.932 288.869 367.319 286.165 370.98 283.22C372.041 282.992 375.022 282.431 376.668 282.919C376.894 283.052 377.154 283.188 377.444 283.327C377.481 283.361 377.516 283.396 377.548 283.434L377.577 283.39C382.313 285.605 394.461 288.399 399.429 287.605C403.261 287.021 407.179 287.732 410.559 289.627C407.777 293.167 409.8 303.278 409.8 303.278L410.053 325.019L413.595 329.316H418.401V317.435C418.401 317.435 422.954 288.869 422.195 281.538Z" fill="#2F2E41"/>
<path d="M375.398 219.098C380.009 219.098 383.746 215.363 383.746 210.756C383.746 206.149 380.009 202.414 375.398 202.414C370.788 202.414 367.051 206.149 367.051 210.756C367.051 215.363 370.788 219.098 375.398 219.098Z" fill="#A0616A"/>
<path d="M370.339 216.065C370.339 216.065 371.604 221.626 369.833 222.132C368.432 222.596 367.077 223.188 365.786 223.901L363.762 230.474V237.046L388.299 239.827L389.058 237.552V234.266L386.275 229.21L385.011 227.946C385.011 227.946 379.446 221.879 380.71 216.065H370.339Z" fill="#A0616A"/>
<path d="M392.22 236.162C392.22 236.162 392.979 245.009 392.22 249.054C391.461 253.099 391.714 259.166 391.714 259.166L386.149 258.155V244.504L387.414 237.173L392.22 236.162Z" fill="#A0616A"/>
<path d="M378.5 201.235C381.35 201.235 383.66 198.926 383.66 196.078C383.66 193.23 381.35 190.922 378.5 190.922C375.651 190.922 373.34 193.23 373.34 196.078C373.34 198.926 375.651 201.235 378.5 201.235Z" fill="#2F2E41"/>
<path d="M372.797 194.721C372.797 193.448 373.269 192.219 374.121 191.272C374.974 190.326 376.147 189.728 377.414 189.594C377.233 189.574 377.052 189.565 376.871 189.565C375.502 189.565 374.19 190.108 373.222 191.075C372.254 192.042 371.711 193.354 371.711 194.721C371.711 196.089 372.254 197.401 373.222 198.368C374.19 199.335 375.502 199.878 376.871 199.878C377.052 199.878 377.233 199.868 377.414 199.849C376.147 199.715 374.974 199.117 374.121 198.17C373.269 197.223 372.797 195.995 372.797 194.721Z" fill="#2F2E41"/>
<path d="M386.776 201.835L379.725 198.145L369.989 199.654L367.975 208.546L372.989 208.353L374.39 205.086V208.299L376.704 208.21L378.047 203.009L378.886 208.546L387.111 208.378L386.776 201.835Z" fill="#2F2E41"/>
<path d="M358.057 327.399C358.057 327.399 361.646 329.087 362.702 329.721C363.758 330.354 367.98 329.087 367.136 332.886C366.291 336.684 362.702 340.271 362.702 340.271C362.702 340.271 361.013 342.17 361.013 343.436C361.013 344.702 356.79 354.409 351.722 353.987C346.655 353.565 347.499 348.5 347.499 348.5L348.555 343.014C348.555 343.014 350.667 333.73 351.089 333.941C351.511 334.152 352.567 335.629 352.567 335.629C352.567 335.629 357.845 333.519 358.057 327.399Z" fill="#D0CDE1"/>
<path d="M410.7 321.08C410.7 321.08 407.11 322.768 406.055 323.401C404.999 324.034 400.776 322.768 401.621 326.566C402.465 330.364 406.055 333.951 406.055 333.951C406.055 333.951 407.744 335.85 407.744 337.116C407.744 338.382 411.967 348.089 417.034 347.667C422.102 347.245 421.257 342.181 421.257 342.181L420.202 336.694C420.202 336.694 418.09 327.41 417.668 327.621C417.246 327.832 416.19 329.309 416.19 329.309C416.19 329.309 410.911 327.199 410.7 321.08Z" fill="#D0CDE1"/>
<path d="M382.869 260.934V258.928H382.423V258.036C382.423 257.831 382.383 257.628 382.304 257.439C382.226 257.25 382.111 257.078 381.966 256.933C381.821 256.788 381.649 256.673 381.459 256.595C381.27 256.516 381.067 256.476 380.862 256.476H375.508C375.094 256.476 374.697 256.64 374.404 256.933C374.112 257.225 373.947 257.622 373.947 258.036V272.971C373.947 273.385 374.112 273.782 374.404 274.075C374.697 274.367 375.094 274.532 375.508 274.532H380.862C381.276 274.532 381.673 274.367 381.966 274.075C382.259 273.782 382.423 273.385 382.423 272.971V263.609H382.869V261.603H382.423V260.934H382.869Z" fill="#D0CDE1"/>
<path d="M378.408 261.826C378.901 261.826 379.3 261.426 379.3 260.934C379.3 260.442 378.901 260.042 378.408 260.042C377.915 260.042 377.516 260.442 377.516 260.934C377.516 261.426 377.915 261.826 378.408 261.826Z" fill="#3F3D56"/>
<path d="M356.047 231.864L351.494 250.571C351.494 250.571 349.723 254.616 353.77 257.143C357.818 259.671 366.924 262.958 366.924 262.958C366.924 262.958 375.019 274.081 376.031 269.53C377.042 264.98 369.96 259.166 369.96 259.166L357.565 251.329L362.371 238.184L356.047 231.864Z" fill="#A0616A"/>
<path d="M388.932 255.374C388.932 255.374 392.726 254.868 392.473 259.166C392.22 263.463 387.161 263.969 387.161 263.969C387.161 263.969 384.884 273.575 381.596 271.805C378.307 270.036 383.367 260.43 383.367 260.43L387.667 257.143L388.932 255.374Z" fill="#A0616A"/>
<path d="M364.521 230.221L368.568 221.879L360.474 224.66C360.474 224.66 355.921 226.935 355.668 232.243C355.415 237.552 361.486 240.333 361.486 240.333C361.486 240.333 362.497 247.917 361.992 248.928C361.486 249.939 361.992 253.984 361.992 253.984C361.992 253.984 371.73 251.329 376.537 254.616C381.343 257.902 385.264 256.006 385.264 256.006C385.264 256.006 385.011 249.686 387.034 248.675C389.058 247.664 390.829 242.861 389.058 239.827C389.058 239.827 393.105 240.333 392.852 236.541C392.599 232.749 390.576 229.463 387.287 227.946C383.999 226.429 383.635 226.187 383.635 226.187L388.299 234.771V237.046C388.299 237.046 380.043 231.78 371.874 231.341C369.21 231.219 366.593 232.08 364.521 233.76L364.521 233.76V230.221Z" fill="#2F2E41"/>
</svg>
