<svg width="99" height="99" viewBox="0 0 99 99" fill="none" xmlns="http://www.w3.org/2000/svg">
<path d="M38.0477 51.7237C32.3779 51.7237 27.1152 48.9075 23.9702 44.1897L20.828 39.4764C20.3836 38.8101 20.5638 37.9096 21.2301 37.4654C21.8965 37.0213 22.7969 37.2013 23.2411 37.8676L26.3834 42.5809C28.9893 46.4897 33.3495 48.8234 38.0475 48.8234H58.7727C59.5738 48.8234 60.2229 49.4725 60.2229 50.2735C60.2229 51.0746 59.5738 51.7237 58.7727 51.7237H38.0477ZM80.1832 53.0084C79.5579 52.508 78.645 52.6093 78.1448 53.2348L73.8938 58.5485C71.9567 60.9698 69.0676 62.3585 65.9668 62.3585H34.8045C34.0034 62.3585 33.3543 63.0076 33.3543 63.8087C33.3543 64.6098 34.0034 65.2589 34.8045 65.2589H65.9667C69.9531 65.2589 73.668 63.4736 76.1584 60.3605L80.4094 55.0468C80.9098 54.4213 80.8085 53.5086 80.1832 53.0084Z" fill="#916050"/>
<path d="M61.875 17.2268V42.3047C61.875 56.036 50.641 67.0235 36.9094 67.0606C36.7501 67.061 36.5912 67.0637 36.4328 67.0683C31.0497 67.2273 26.8066 71.7229 26.8066 77.1083C26.8066 78.9027 27.7034 80.5783 29.1963 81.5738L29.9537 82.0788C31.4466 83.074 32.3434 84.7497 32.3434 86.5442V94.7461H6.50391V86.6626C6.50391 84.8034 7.46606 83.0767 9.04716 82.0985L10.5745 81.1536C11.7376 80.4341 12.5713 79.2946 12.9348 77.9763C15.847 67.4176 25.5494 59.6457 37.0287 59.6778C46.6849 59.7048 54.4919 51.7997 54.4919 42.1436V17.3151C54.4919 15.3135 56.0485 13.6088 58.0488 13.5377C60.1491 13.463 61.875 15.1433 61.875 17.2268Z" fill="#855D51"/>
<path d="M98.9998 19.9088C98.9998 24.4493 95.319 28.1303 90.7786 28.1303H74.28C73.6176 31.9222 70.3115 34.8056 66.3299 34.8056H6.61752C2.96284 34.8056 0 31.8427 0 28.1881C0 26.025 1.05709 23.9986 2.83116 22.7609L14.7925 14.4157C20.8221 10.209 27.9972 7.95344 35.3493 7.95344C39.5854 7.95344 43.7832 8.70368 47.7506 10.1628C51.8593 3.91302 58.8939 0.000976562 66.5917 0.000976562C70.5296 0.000976562 74.3989 1.03216 77.8146 2.99205L94.8701 12.7779C97.4245 14.2436 98.9998 16.9636 98.9998 19.9088Z" fill="#38A169"/>
<path d="M98.9998 19.9081C98.9998 24.4485 95.319 28.1295 90.7784 28.1295H74.2798C73.6176 31.9214 70.3115 34.8048 66.3299 34.8048H6.61753C3.03671 34.8048 0.122017 31.9601 0.00561523 28.4077C0.841893 28.7896 1.77079 29.004 2.75035 29.004H62.4627C65.6578 29.004 68.4178 27.1474 69.7259 24.4545C70.3637 23.1412 71.7182 22.3285 73.1783 22.3285H86.9114C91.4519 22.3285 95.1329 18.6477 95.1329 14.1071C95.1329 13.6925 95.0984 13.2834 95.0375 12.8806C97.4914 14.3679 98.9998 17.0287 98.9998 19.9081Z" fill="#2F855A"/>
<path d="M47.8435 98.9998H8.46961C5.52958 98.9998 3.14624 96.6165 3.14624 93.6765C3.14624 91.5372 4.42705 89.6055 6.39757 88.7729L19.6775 83.1616C22.5953 81.9288 25.7306 81.2936 28.898 81.2936C33.7459 81.2936 38.477 82.7809 42.453 85.5548L50.3403 91.0576C51.5102 91.8738 52.2072 93.2099 52.2072 94.6363C52.207 97.0463 50.2533 98.9998 47.8435 98.9998Z" fill="#D2B48C"/>
<path d="M42.4529 85.555L46.3806 88.2952C46.3967 88.4464 46.4063 88.599 46.4063 88.7527C46.4063 91.1626 44.4526 93.1163 42.0428 93.1163H3.1792C3.38126 91.2055 4.60097 89.5322 6.39766 88.773L19.6776 83.1617C22.5953 81.9291 25.7307 81.2937 28.8981 81.2937C33.7458 81.2939 38.4769 82.7812 42.4529 85.555Z" fill="#E6C8A0"/>
<path d="M43.6396 37.1255C43.6396 40.1152 41.2158 42.5392 38.2259 42.5392H13.7649C10.4342 42.5392 7.73438 39.8393 7.73438 36.5087C7.73438 35.7855 7.86451 35.0684 8.11839 34.3912L8.39547 33.652C10.5688 27.8563 16.1095 24.0165 22.2993 24.0165C24.8925 24.0165 27.4402 24.6956 29.6893 25.9861L40.92 32.43C42.6022 33.395 43.6396 35.1863 43.6396 37.1255ZM97.4257 49.3769L90.7747 44.7367C87.4221 42.3976 83.4325 41.1435 79.3445 41.1435C76.6736 41.1435 74.0296 41.6791 71.5693 42.7186L60.3709 47.4503C58.7092 48.1524 57.6293 49.7812 57.6293 51.5853C57.6293 54.0643 59.6391 56.0741 62.1183 56.0741H95.3202C97.3524 56.0741 98.9998 54.4267 98.9998 52.3945C98.9998 51.192 98.412 50.0653 97.4257 49.3769Z" fill="#4ED68D"/>
<path d="M43.6397 37.1255C43.6397 40.1152 41.2159 42.5392 38.226 42.5392H35.4704C36.2613 41.5981 36.7383 40.3846 36.7383 39.0591C36.7383 37.1197 35.7009 35.3286 34.0189 34.3634L22.7882 27.9195C20.5391 26.629 17.9912 25.9499 15.3982 25.9499C15.2524 25.9499 15.1074 25.954 14.9624 25.9583C17.1516 24.7134 19.6662 24.0164 22.2996 24.0164C24.8927 24.0164 27.4404 24.6954 29.6896 25.9859L40.9203 32.4298C42.6023 33.395 43.6397 35.1863 43.6397 37.1255ZM97.4258 49.3769L90.7748 44.7367C87.4221 42.3976 83.4326 41.1435 79.3446 41.1435C77.6428 41.1435 75.9523 41.3618 74.313 41.7886C76.5938 42.3812 78.7657 43.3731 80.7203 44.7367L87.3713 49.3769C88.3576 50.0653 88.9454 51.192 88.9454 52.3947C88.9454 54.4269 87.298 56.0743 85.2658 56.0743H95.3205C97.3527 56.0743 99.0001 54.4269 99.0001 52.3947C98.9999 51.192 98.4121 50.0653 97.4258 49.3769Z" fill="#42C17D"/>
</svg>
