<svg width="446" height="356" viewBox="0 0 446 356" fill="none" xmlns="http://www.w3.org/2000/svg">
<g clip-path="url(#clip0)">
<path opacity="0.1" d="M128.123 61.0554H94.6675C92.7377 61.0554 91.1733 62.6177 91.1733 64.5449V69.7769C91.1733 71.7042 92.7377 73.2665 94.6675 73.2665H128.123C130.053 73.2665 131.617 71.7042 131.617 69.7769V64.5449C131.617 62.6177 130.053 61.0554 128.123 61.0554Z" fill="#68D391"/>
<path opacity="0.1" d="M170.448 73.2665H136.993C135.063 73.2665 133.499 74.8288 133.499 76.756V81.988C133.499 83.9153 135.063 85.4776 136.993 85.4776H170.448C172.378 85.4776 173.943 83.9153 173.943 81.988V76.756C173.943 74.8288 172.378 73.2665 170.448 73.2665Z" fill="#68D391"/>
<path opacity="0.1" d="M212.774 85.4776H179.318C177.388 85.4776 175.824 87.0399 175.824 88.9671V94.1991C175.824 96.1263 177.388 97.6886 179.318 97.6886H212.774C214.704 97.6886 216.268 96.1263 216.268 94.1991V88.9671C216.268 87.0399 214.704 85.4776 212.774 85.4776Z" fill="#68D391"/>
<path opacity="0.1" d="M128.123 42.7388H94.6675C92.7377 42.7388 91.1733 44.3011 91.1733 46.2283V51.4603C91.1733 53.3875 92.7377 54.9499 94.6675 54.9499H128.123C130.053 54.9499 131.617 53.3875 131.617 51.4603V46.2283C131.617 44.3011 130.053 42.7388 128.123 42.7388Z" fill="#68D391"/>
<path opacity="0.1" d="M170.448 54.9499H136.993C135.063 54.9499 133.499 56.5122 133.499 58.4394V63.6714C133.499 65.5986 135.063 67.1609 136.993 67.1609H170.448C172.378 67.1609 173.943 65.5986 173.943 63.6714V58.4394C173.943 56.5122 172.378 54.9499 170.448 54.9499Z" fill="#68D391"/>
<path opacity="0.1" d="M212.774 67.1609H179.318C177.388 67.1609 175.824 68.7233 175.824 70.6505V75.8825C175.824 77.8097 177.388 79.372 179.318 79.372H212.774C214.704 79.372 216.268 77.8097 216.268 75.8825V70.6505C216.268 68.7233 214.704 67.1609 212.774 67.1609Z" fill="#68D391"/>
<path opacity="0.1" d="M259.802 61.0554H226.346C224.416 61.0554 222.852 62.6177 222.852 64.5449V69.7769C222.852 71.7042 224.416 73.2665 226.346 73.2665H259.802C261.732 73.2665 263.296 71.7042 263.296 69.7769V64.5449C263.296 62.6177 261.732 61.0554 259.802 61.0554Z" fill="#68D391"/>
<path opacity="0.1" d="M302.127 73.2665H268.671C266.742 73.2665 265.177 74.8288 265.177 76.756V81.988C265.177 83.9153 266.742 85.4776 268.671 85.4776H302.127C304.057 85.4776 305.621 83.9153 305.621 81.988V76.756C305.621 74.8288 304.057 73.2665 302.127 73.2665Z" fill="#68D391"/>
<path opacity="0.1" d="M344.452 85.4776H310.997C309.067 85.4776 307.502 87.0399 307.502 88.9671V94.1991C307.502 96.1263 309.067 97.6886 310.997 97.6886H344.452C346.382 97.6886 347.947 96.1263 347.947 94.1991V88.9671C347.947 87.0399 346.382 85.4776 344.452 85.4776Z" fill="#68D391"/>
<path opacity="0.1" d="M259.802 42.7388H226.346C224.416 42.7388 222.852 44.3011 222.852 46.2283V51.4603C222.852 53.3875 224.416 54.9499 226.346 54.9499H259.802C261.732 54.9499 263.296 53.3875 263.296 51.4603V46.2283C263.296 44.3011 261.732 42.7388 259.802 42.7388Z" fill="#68D391"/>
<path opacity="0.1" d="M302.127 54.9499H268.671C266.742 54.9499 265.177 56.5122 265.177 58.4394V63.6714C265.177 65.5986 266.742 67.1609 268.671 67.1609H302.127C304.057 67.1609 305.621 65.5986 305.621 63.6714V58.4394C305.621 56.5122 304.057 54.9499 302.127 54.9499Z" fill="#68D391"/>
<path opacity="0.1" d="M344.452 67.1609H310.997C309.067 67.1609 307.502 68.7233 307.502 70.6505V75.8825C307.502 77.8097 309.067 79.372 310.997 79.372H344.452C346.382 79.372 347.947 77.8097 347.947 75.8825V70.6505C347.947 68.7233 346.382 67.1609 344.452 67.1609Z" fill="#68D391"/>
<path opacity="0.1" d="M128.123 18.3166H94.6675C92.7377 18.3166 91.1733 19.8789 91.1733 21.8062V27.0381C91.1733 28.9654 92.7377 30.5277 94.6675 30.5277H128.123C130.053 30.5277 131.617 28.9654 131.617 27.0381V21.8062C131.617 19.8789 130.053 18.3166 128.123 18.3166Z" fill="#68D391"/>
<path opacity="0.1" d="M170.448 30.5277H136.993C135.063 30.5277 133.499 32.09 133.499 34.0173V39.2492C133.499 41.1765 135.063 42.7388 136.993 42.7388H170.448C172.378 42.7388 173.943 41.1765 173.943 39.2492V34.0173C173.943 32.09 172.378 30.5277 170.448 30.5277Z" fill="#68D391"/>
<path opacity="0.1" d="M212.774 42.7388H179.318C177.388 42.7388 175.824 44.3011 175.824 46.2283V51.4603C175.824 53.3875 177.388 54.9499 179.318 54.9499H212.774C214.704 54.9499 216.268 53.3875 216.268 51.4603V46.2283C216.268 44.3011 214.704 42.7388 212.774 42.7388Z" fill="#68D391"/>
<path opacity="0.1" d="M128.123 0H94.6675C92.7377 0 91.1733 1.56233 91.1733 3.48955V8.72153C91.1733 10.6488 92.7377 12.2111 94.6675 12.2111H128.123C130.053 12.2111 131.617 10.6488 131.617 8.72153V3.48955C131.617 1.56233 130.053 0 128.123 0Z" fill="#68D391"/>
<path opacity="0.1" d="M170.448 12.2111H136.993C135.063 12.2111 133.499 13.7734 133.499 15.7006V20.9326C133.499 22.8598 135.063 24.4222 136.993 24.4222H170.448C172.378 24.4222 173.943 22.8598 173.943 20.9326V15.7006C173.943 13.7734 172.378 12.2111 170.448 12.2111Z" fill="#68D391"/>
<path opacity="0.1" d="M212.774 24.4222H179.318C177.388 24.4222 175.824 25.9845 175.824 27.9117V33.1437C175.824 35.0709 177.388 36.6332 179.318 36.6332H212.774C214.704 36.6332 216.268 35.0709 216.268 33.1437V27.9117C216.268 25.9845 214.704 24.4222 212.774 24.4222Z" fill="#68D391"/>
<path opacity="0.1" d="M259.802 18.3166H226.346C224.416 18.3166 222.852 19.8789 222.852 21.8062V27.0381C222.852 28.9654 224.416 30.5277 226.346 30.5277H259.802C261.732 30.5277 263.296 28.9654 263.296 27.0381V21.8062C263.296 19.8789 261.732 18.3166 259.802 18.3166Z" fill="#68D391"/>
<path opacity="0.1" d="M302.127 30.5277H268.671C266.742 30.5277 265.177 32.09 265.177 34.0173V39.2492C265.177 41.1765 266.742 42.7388 268.671 42.7388H302.127C304.057 42.7388 305.621 41.1765 305.621 39.2492V34.0173C305.621 32.09 304.057 30.5277 302.127 30.5277Z" fill="#68D391"/>
<path opacity="0.1" d="M344.452 42.7388H310.997C309.067 42.7388 307.502 44.3011 307.502 46.2283V51.4603C307.502 53.3875 309.067 54.9499 310.997 54.9499H344.452C346.382 54.9499 347.947 53.3875 347.947 51.4603V46.2283C347.947 44.3011 346.382 42.7388 344.452 42.7388Z" fill="#68D391"/>
<path opacity="0.1" d="M259.802 0H226.346C224.416 0 222.852 1.56233 222.852 3.48955V8.72153C222.852 10.6488 224.416 12.2111 226.346 12.2111H259.802C261.732 12.2111 263.296 10.6488 263.296 8.72153V3.48955C263.296 1.56233 261.732 0 259.802 0Z" fill="#68D391"/>
<path opacity="0.1" d="M302.127 12.2111H268.671C266.742 12.2111 265.177 13.7734 265.177 15.7006V20.9326C265.177 22.8598 266.742 24.4222 268.671 24.4222H302.127C304.057 24.4222 305.621 22.8598 305.621 20.9326V15.7006C305.621 13.7734 304.057 12.2111 302.127 12.2111Z" fill="#68D391"/>
<path opacity="0.1" d="M344.452 24.4222H310.997C309.067 24.4222 307.502 25.9845 307.502 27.9117V33.1437C307.502 35.0709 309.067 36.6332 310.997 36.6332H344.452C346.382 36.6332 347.947 35.0709 347.947 33.1437V27.9117C347.947 25.9845 346.382 24.4222 344.452 24.4222Z" fill="#68D391"/>
<path opacity="0.1" d="M128.123 278.507H94.6675C92.7377 278.507 91.1733 280.069 91.1733 281.996V287.228C91.1733 289.155 92.7377 290.718 94.6675 290.718H128.123C130.053 290.718 131.617 289.155 131.617 287.228V281.996C131.617 280.069 130.053 278.507 128.123 278.507Z" fill="#68D391"/>
<path opacity="0.1" d="M170.448 290.718H136.993C135.063 290.718 133.499 292.28 133.499 294.207V299.439C133.499 301.366 135.063 302.929 136.993 302.929H170.448C172.378 302.929 173.943 301.366 173.943 299.439V294.207C173.943 292.28 172.378 290.718 170.448 290.718Z" fill="#68D391"/>
<path opacity="0.1" d="M212.774 302.929H179.318C177.388 302.929 175.824 304.491 175.824 306.418V311.65C175.824 313.578 177.388 315.14 179.318 315.14H212.774C214.704 315.14 216.268 313.578 216.268 311.65V306.418C216.268 304.491 214.704 302.929 212.774 302.929Z" fill="#68D391"/>
<path opacity="0.1" d="M128.123 260.19H94.6675C92.7377 260.19 91.1733 261.752 91.1733 263.68V268.912C91.1733 270.839 92.7377 272.401 94.6675 272.401H128.123C130.053 272.401 131.617 270.839 131.617 268.912V263.68C131.617 261.752 130.053 260.19 128.123 260.19Z" fill="#68D391"/>
<path opacity="0.1" d="M170.448 272.401H136.993C135.063 272.401 133.499 273.963 133.499 275.891V281.123C133.499 283.05 135.063 284.612 136.993 284.612H170.448C172.378 284.612 173.943 283.05 173.943 281.123V275.891C173.943 273.963 172.378 272.401 170.448 272.401Z" fill="#68D391"/>
<path opacity="0.1" d="M212.774 284.612H179.318C177.388 284.612 175.824 286.174 175.824 288.102V293.334C175.824 295.261 177.388 296.823 179.318 296.823H212.774C214.704 296.823 216.268 295.261 216.268 293.334V288.102C216.268 286.174 214.704 284.612 212.774 284.612Z" fill="#68D391"/>
<path opacity="0.1" d="M259.802 278.507H226.346C224.416 278.507 222.852 280.069 222.852 281.996V287.228C222.852 289.155 224.416 290.718 226.346 290.718H259.802C261.732 290.718 263.296 289.155 263.296 287.228V281.996C263.296 280.069 261.732 278.507 259.802 278.507Z" fill="#68D391"/>
<path opacity="0.1" d="M302.127 290.718H268.671C266.742 290.718 265.177 292.28 265.177 294.207V299.439C265.177 301.366 266.742 302.929 268.671 302.929H302.127C304.057 302.929 305.621 301.366 305.621 299.439V294.207C305.621 292.28 304.057 290.718 302.127 290.718Z" fill="#68D391"/>
<path opacity="0.1" d="M344.452 302.929H310.997C309.067 302.929 307.502 304.491 307.502 306.418V311.65C307.502 313.578 309.067 315.14 310.997 315.14H344.452C346.382 315.14 347.947 313.578 347.947 311.65V306.418C347.947 304.491 346.382 302.929 344.452 302.929Z" fill="#68D391"/>
<path opacity="0.1" d="M259.802 260.19H226.346C224.416 260.19 222.852 261.752 222.852 263.68V268.912C222.852 270.839 224.416 272.401 226.346 272.401H259.802C261.732 272.401 263.296 270.839 263.296 268.912V263.68C263.296 261.752 261.732 260.19 259.802 260.19Z" fill="#68D391"/>
<path opacity="0.1" d="M302.127 272.401H268.671C266.742 272.401 265.177 273.963 265.177 275.891V281.123C265.177 283.05 266.742 284.612 268.671 284.612H302.127C304.057 284.612 305.621 283.05 305.621 281.123V275.891C305.621 273.963 304.057 272.401 302.127 272.401Z" fill="#68D391"/>
<path opacity="0.1" d="M344.452 284.612H310.997C309.067 284.612 307.502 286.174 307.502 288.102V293.334C307.502 295.261 309.067 296.823 310.997 296.823H344.452C346.382 296.823 347.947 295.261 347.947 293.334V288.102C347.947 286.174 346.382 284.612 344.452 284.612Z" fill="#68D391"/>
<path opacity="0.1" d="M128.123 235.768H94.6675C92.7377 235.768 91.1733 237.33 91.1733 239.257V244.489C91.1733 246.417 92.7377 247.979 94.6675 247.979H128.123C130.053 247.979 131.617 246.417 131.617 244.489V239.257C131.617 237.33 130.053 235.768 128.123 235.768Z" fill="#68D391"/>
<path opacity="0.1" d="M170.448 247.979H136.993C135.063 247.979 133.499 249.541 133.499 251.468V256.7C133.499 258.628 135.063 260.19 136.993 260.19H170.448C172.378 260.19 173.943 258.628 173.943 256.7V251.468C173.943 249.541 172.378 247.979 170.448 247.979Z" fill="#68D391"/>
<path opacity="0.1" d="M212.774 260.19H179.318C177.388 260.19 175.824 261.752 175.824 263.68V268.912C175.824 270.839 177.388 272.401 179.318 272.401H212.774C214.704 272.401 216.268 270.839 216.268 268.912V263.68C216.268 261.752 214.704 260.19 212.774 260.19Z" fill="#68D391"/>
<path opacity="0.1" d="M128.123 217.451H94.6675C92.7377 217.451 91.1733 219.013 91.1733 220.941V226.173C91.1733 228.1 92.7377 229.662 94.6675 229.662H128.123C130.053 229.662 131.617 228.1 131.617 226.173V220.941C131.617 219.013 130.053 217.451 128.123 217.451Z" fill="#68D391"/>
<path opacity="0.1" d="M170.448 229.662H136.993C135.063 229.662 133.499 231.225 133.499 233.152V238.384C133.499 240.311 135.063 241.873 136.993 241.873H170.448C172.378 241.873 173.943 240.311 173.943 238.384V233.152C173.943 231.225 172.378 229.662 170.448 229.662Z" fill="#68D391"/>
<path opacity="0.1" d="M212.774 241.873H179.318C177.388 241.873 175.824 243.436 175.824 245.363V250.595C175.824 252.522 177.388 254.084 179.318 254.084H212.774C214.704 254.084 216.268 252.522 216.268 250.595V245.363C216.268 243.436 214.704 241.873 212.774 241.873Z" fill="#68D391"/>
<path opacity="0.1" d="M259.802 235.768H226.346C224.416 235.768 222.852 237.33 222.852 239.257V244.489C222.852 246.417 224.416 247.979 226.346 247.979H259.802C261.732 247.979 263.296 246.417 263.296 244.489V239.257C263.296 237.33 261.732 235.768 259.802 235.768Z" fill="#68D391"/>
<path opacity="0.1" d="M302.127 247.979H268.671C266.742 247.979 265.177 249.541 265.177 251.468V256.7C265.177 258.628 266.742 260.19 268.671 260.19H302.127C304.057 260.19 305.621 258.628 305.621 256.7V251.468C305.621 249.541 304.057 247.979 302.127 247.979Z" fill="#68D391"/>
<path opacity="0.1" d="M344.452 260.19H310.997C309.067 260.19 307.502 261.752 307.502 263.68V268.912C307.502 270.839 309.067 272.401 310.997 272.401H344.452C346.382 272.401 347.947 270.839 347.947 268.912V263.68C347.947 261.752 346.382 260.19 344.452 260.19Z" fill="#68D391"/>
<path opacity="0.1" d="M259.802 217.451H226.346C224.416 217.451 222.852 219.013 222.852 220.941V226.173C222.852 228.1 224.416 229.662 226.346 229.662H259.802C261.732 229.662 263.296 228.1 263.296 226.173V220.941C263.296 219.013 261.732 217.451 259.802 217.451Z" fill="#68D391"/>
<path opacity="0.1" d="M302.127 229.662H268.671C266.742 229.662 265.177 231.225 265.177 233.152V238.384C265.177 240.311 266.742 241.873 268.671 241.873H302.127C304.057 241.873 305.621 240.311 305.621 238.384V233.152C305.621 231.225 304.057 229.662 302.127 229.662Z" fill="#68D391"/>
<path opacity="0.1" d="M344.452 241.873H310.997C309.067 241.873 307.502 243.436 307.502 245.363V250.595C307.502 252.522 309.067 254.084 310.997 254.084H344.452C346.382 254.084 347.947 252.522 347.947 250.595V245.363C347.947 243.436 346.382 241.873 344.452 241.873Z" fill="#68D391"/>
<path opacity="0.1" d="M226.849 356C340.74 356 433.067 348.43 433.067 339.092C433.067 329.755 340.74 322.185 226.849 322.185C112.958 322.185 20.6312 329.755 20.6312 339.092C20.6312 348.43 112.958 356 226.849 356Z" fill="#68D391"/>
<path d="M39.8093 87.7319C59.2554 96.1482 70.4292 113.563 70.4292 113.563C70.4292 113.563 50.0708 117.32 30.62 108.909C11.1692 100.497 0 83.0776 0 83.0776C0 83.0776 20.3584 79.3157 39.8093 87.7319Z" fill="#68D391"/>
<path d="M99.4878 55.4195C105.503 45.5567 115.745 40.8602 115.745 40.8602C115.745 40.8602 116.216 52.1037 110.22 61.9384C104.224 71.773 93.9573 76.4648 93.9573 76.4648C93.9573 76.4648 93.4682 65.226 99.4878 55.4195Z" fill="#68D391"/>
<path d="M55.2721 65.9727C59.5752 81.3117 71.4357 91.4093 71.4357 91.4093C71.4357 91.4093 76.3219 76.6292 72.0188 61.2855C67.7157 45.9418 55.8506 35.8489 55.8506 35.8489C55.8506 35.8489 50.9644 50.629 55.2721 65.9727Z" fill="#46455B"/>
<path d="M395.346 65.2823H59.2929C57.4203 65.2823 55.9022 66.7984 55.9022 68.6685V233.321C55.9022 235.191 57.4203 236.707 59.2929 236.707H395.346C397.219 236.707 398.737 235.191 398.737 233.321V68.6685C398.737 66.7984 397.219 65.2823 395.346 65.2823Z" fill="#3F3D56"/>
<path opacity="0.1" d="M55.9022 226.375H398.737V233.321C398.737 234.219 398.38 235.08 397.744 235.715C397.108 236.35 396.245 236.707 395.346 236.707H59.2929C58.3937 236.707 57.5312 236.35 56.8953 235.715C56.2595 235.08 55.9022 234.219 55.9022 233.321V226.375Z" fill="black"/>
<path d="M113.512 213.694H90.4678C89.8185 213.694 89.2921 214.22 89.2921 214.868V225.201C89.2921 225.849 89.8185 226.375 90.4678 226.375H113.512C114.161 226.375 114.687 225.849 114.687 225.201V214.868C114.687 214.22 114.161 213.694 113.512 213.694Z" fill="#68D391"/>
<path d="M138.201 224.496H122.682C122.163 224.496 121.742 224.917 121.742 225.435C121.742 225.954 122.163 226.375 122.682 226.375H138.201C138.721 226.375 139.142 225.954 139.142 225.435C139.142 224.917 138.721 224.496 138.201 224.496Z" fill="#68D391"/>
<path d="M106.293 98.8065C118.704 101.094 131.364 98.8064 143.722 97.2566L181.284 92.56C182.803 92.3674 185.013 91.461 185.907 93.3162C186.41 94.3541 186.071 96.6038 186.109 97.7967C186.208 101.084 186.198 104.372 186.109 107.659C185.94 113.944 185.479 120.213 184.891 126.469C183.748 138.713 182.13 150.891 181.321 163.182C180.908 169.438 180.701 175.713 180.884 181.969C180.926 183.462 180.988 184.956 181.077 186.444C181.176 188.112 181.923 190.587 180.103 191.7C179.064 192.339 177.018 192.306 175.829 192.494C173.947 192.79 172.066 193.024 170.148 193.217C157.502 194.48 144.691 193.954 131.998 193.879L93.6705 193.682L84.3213 193.63C83.4748 193.63 80.4227 194.137 79.9007 193.132C79.6797 192.705 80.2675 190.704 80.371 190.169C80.5152 189.286 80.672 188.404 80.8413 187.525C81.9323 181.349 83.2209 175.21 84.5189 169.077C87.3076 155.926 90.1622 142.71 91.3097 129.278C91.8788 122.538 91.5025 115.738 92.1985 109.012C92.523 105.889 92.9087 98.9192 97.0707 98.6421C100.598 98.4072 104.228 98.6421 107.765 98.6421C107.952 98.6421 108.131 98.5679 108.264 98.4357C108.396 98.3036 108.47 98.1244 108.47 97.9376C108.47 97.7507 108.396 97.5715 108.264 97.4394C108.131 97.3073 107.952 97.2331 107.765 97.2331C104.426 97.2331 101.082 97.1439 97.7432 97.2096C95.5234 97.2519 93.9809 97.7779 92.9228 99.8162C90.2187 105.048 90.4961 112.027 90.4115 117.738C90.2093 131.41 88.1071 144.791 85.3701 158.162C83.9921 164.892 82.5061 171.599 81.1375 178.333C80.4933 181.551 79.8772 184.777 79.3128 188.013C79.0495 189.554 77.7186 192.949 78.8896 194.363C80.0606 195.777 83.6629 195.016 85.276 195.025L96.4969 195.091L117.998 195.213C131.89 195.293 145.829 195.683 159.717 195.274C166.348 195.077 173.355 194.804 179.812 193.222C181.735 192.752 182.662 191.869 182.737 189.821C182.85 186.646 182.333 183.373 182.267 180.184C181.796 152.897 188.216 125.99 187.557 98.6937C187.515 96.8386 188.216 92.1608 186.184 91.0383C185.272 90.5311 184.087 90.8082 183.127 90.9209C181.293 91.1323 179.464 91.3906 177.63 91.6066L153.81 94.5748C146.196 95.5142 138.587 96.5286 130.959 97.3928C122.884 98.3321 114.73 98.891 106.683 97.3928C105.794 97.2284 105.413 98.5857 106.307 98.7501L106.293 98.8065Z" fill="#68D391"/>
<path d="M91.3191 115.409L185.291 110.806C186.198 110.759 186.203 109.35 185.291 109.397L91.3191 114C90.4162 114.042 90.4115 115.451 91.3191 115.409Z" fill="#68D391"/>
<path d="M120.27 103.794C120.007 104.072 119.816 104.41 119.714 104.779C119.612 105.147 119.601 105.535 119.683 105.909C119.765 106.282 119.937 106.63 120.184 106.922C120.432 107.214 120.747 107.442 121.102 107.584C122.367 108.162 123.853 107.678 125.109 107.364C126.99 106.894 128.871 106.476 130.804 106.133C135.011 105.389 139.272 104.993 143.544 104.95C145.491 104.926 147.424 105.015 149.371 105.1C150.781 105.156 152.3 105.269 153.495 104.395C154.859 103.4 155.301 101.455 153.965 100.244C152.084 98.5293 148.03 99.525 145.858 99.7035C137.974 100.358 130.141 101.525 122.409 103.198C121.525 103.386 121.897 104.748 122.786 104.555C127.887 103.456 133.027 102.573 138.206 101.906C140.752 101.593 143.302 101.328 145.858 101.112C147.062 101.014 148.265 100.925 149.469 100.854C149.94 100.826 150.438 100.774 150.918 100.788C152.409 100.821 152.583 100.554 151.689 102.352C150.894 103.944 151.148 103.761 149.77 103.71C149.187 103.71 148.604 103.644 148.021 103.616C146.826 103.566 145.632 103.539 144.437 103.536C141.895 103.536 139.358 103.658 136.828 103.902C134.684 104.109 132.544 104.4 130.423 104.776C129.097 105.011 127.78 105.283 126.468 105.584C125.889 105.72 125.306 105.861 124.728 106.006C124.45 106.081 124.168 106.147 123.891 106.218C122.862 106.575 121.986 106.105 121.262 104.809C121.892 104.156 120.9 103.155 120.265 103.813L120.27 103.794Z" fill="#68D391"/>
<path d="M137.303 123.839C130.498 123.576 123.148 125.413 118.666 130.884C115.158 135.163 113.159 142.503 116.874 147.322C120.867 152.488 129.623 151.577 134.905 149.374C140.492 147.026 146.605 142.184 148.284 136.125C150.377 128.559 143.581 122.839 136.504 122.754C135.596 122.754 135.596 124.163 136.504 124.163C140.539 124.21 144.498 125.939 146.38 129.691C148.35 133.646 146.652 137.797 144.028 140.963C139.824 146.002 133.249 149.802 126.553 149.694C122.532 149.633 118.087 148.257 116.841 144.02C115.816 140.587 116.597 136.835 118.384 133.791C122.249 127.216 130.117 124.99 137.331 125.272C138.239 125.304 138.239 123.896 137.331 123.863L137.303 123.839Z" fill="#68D391"/>
<path d="M130.545 134.275C130.255 134.168 129.942 134.135 129.636 134.181C129.33 134.227 129.041 134.349 128.795 134.537C128.549 134.724 128.355 134.971 128.23 135.253C128.105 135.536 128.054 135.846 128.081 136.154C128.222 137.985 130.244 138.502 131.763 138.394C133.075 138.281 134.608 137.797 134.148 136.158C134.063 135.868 133.916 135.6 133.718 135.371C133.52 135.143 133.275 134.959 133 134.834C132.579 134.667 132.123 134.611 131.674 134.669C131.5 134.669 129.906 135.252 130.583 134.552L129.473 134.406C129.596 134.528 129.691 134.675 129.749 134.838C129.808 135 129.829 135.174 129.812 135.346C129.814 135.468 129.848 135.589 129.91 135.694C129.973 135.8 130.062 135.888 130.168 135.949C130.275 136.01 130.396 136.042 130.519 136.043C130.642 136.043 130.763 136.012 130.87 135.952C131.031 135.884 131.208 135.863 131.381 135.89C131.554 135.918 131.715 135.993 131.848 136.107C131.98 136.221 132.078 136.37 132.13 136.537C132.183 136.703 132.187 136.881 132.144 137.051C132.106 137.213 132.127 137.384 132.203 137.533C132.279 137.682 132.405 137.799 132.559 137.864C132.713 137.929 132.885 137.938 133.045 137.889C133.205 137.84 133.342 137.736 133.433 137.595C133.903 136.75 134.472 135.069 133.767 134.186C133.296 133.589 132.389 133.768 131.824 134.115C131.476 134.361 131.152 134.64 130.856 134.947C130.287 135.449 129.915 135.684 130.127 134.721C130.479 132.969 132.154 131.574 133.682 130.875L132.647 130.081C132.105 132.117 131.135 134.014 129.802 135.646L131.006 136.144C130.972 135.499 131.138 134.86 131.481 134.312C131.825 133.765 132.329 133.337 132.925 133.087H132.234L132.6 133.688C132.464 134.576 133.823 134.956 133.959 134.059C134.138 132.899 133.405 131.391 132.045 131.96C130.423 132.636 129.581 134.491 129.614 136.144C129.614 136.708 130.414 137.145 130.823 136.647C132.318 134.832 133.41 132.72 134.025 130.452C134.058 130.317 134.051 130.176 134.005 130.046C133.958 129.915 133.875 129.801 133.765 129.717C133.655 129.632 133.522 129.582 133.384 129.572C133.246 129.561 133.107 129.591 132.986 129.658C131.577 130.294 130.387 131.33 129.562 132.636C128.989 133.575 128.269 135.04 128.852 136.121C128.948 136.294 129.077 136.446 129.232 136.568C129.386 136.691 129.564 136.782 129.754 136.836C129.945 136.889 130.144 136.905 130.34 136.881C130.536 136.858 130.726 136.796 130.898 136.698C131.333 136.441 131.73 136.125 132.078 135.759C132.252 135.604 132.445 135.336 132.676 135.289C132.883 135.148 132.873 135.228 132.643 135.538C132.64 136.025 132.498 136.501 132.234 136.91L133.522 137.45C133.638 137.011 133.625 136.549 133.483 136.118C133.342 135.687 133.078 135.306 132.724 135.021C132.371 134.736 131.942 134.56 131.49 134.514C131.038 134.467 130.583 134.552 130.178 134.759L131.241 135.369C131.263 134.772 131.075 134.185 130.71 133.711C130.654 133.62 130.579 133.542 130.489 133.484C130.4 133.425 130.298 133.388 130.192 133.374C130.086 133.36 129.978 133.37 129.877 133.403C129.775 133.436 129.682 133.492 129.605 133.566C128.89 134.313 128.753 135.604 129.652 136.294C130.324 136.806 130.653 136.294 131.392 136.177C133.898 135.853 132.436 136.98 131.552 137.018C131.156 137.06 130.757 137.031 130.371 136.933C129.39 136.601 129.329 136.174 130.188 135.651C131.03 135.994 131.392 134.632 130.564 134.294L130.545 134.275Z" fill="#68D391"/>
<path d="M129.412 136.849C129.99 138.727 127.601 139.347 126.468 139.995C125.673 140.441 124.979 141.047 124.432 141.775C123.247 143.363 122.804 145.382 122.414 147.284C122.235 148.172 123.595 148.548 123.778 147.66C123.993 146.262 124.393 144.899 124.968 143.607C125.814 141.926 127.028 141.362 128.608 140.498C130.188 139.634 131.331 138.295 130.771 136.473C130.508 135.609 129.144 135.98 129.412 136.849V136.849Z" fill="#68D391"/>
<path d="M131.763 135.905C131.427 135.951 131.12 136.121 130.902 136.382C130.685 136.642 130.573 136.975 130.588 137.314C130.588 137.873 130.959 138.229 131.213 138.676C131.816 139.588 132.276 140.588 132.577 141.639C132.803 142.649 133.024 144.457 132.497 145.396C131.523 147.139 129.765 146.805 128.264 146.805C126.854 146.805 125.763 147.275 125.81 145.312C125.838 144.208 126.609 143.09 127.22 142.222L125.932 142.052C126.204 143.487 126.347 144.942 126.36 146.401C126.36 147.054 127.361 147.416 127.672 146.754C128.428 145.165 129.028 143.508 129.464 141.804L128.076 141.616L128.321 145.185C128.325 145.337 128.378 145.484 128.472 145.604C128.566 145.724 128.697 145.81 128.844 145.85C128.991 145.89 129.148 145.882 129.29 145.827C129.432 145.771 129.552 145.671 129.633 145.542C129.798 145.36 129.918 145.144 129.986 144.908C130.033 144.687 129.6 143.198 129.426 143.729L130.809 143.917L130.907 140.526L129.497 140.714C129.795 141.67 129.885 142.679 129.76 143.673C129.671 144.457 130.992 144.636 131.171 143.861L132.055 139.305L130.766 139.469C131.072 140.099 131.157 140.814 131.006 141.498C130.903 142.4 132.314 142.391 132.417 141.498C132.537 140.563 132.387 139.613 131.984 138.76C131.913 138.643 131.809 138.548 131.684 138.489C131.56 138.429 131.421 138.407 131.285 138.425C131.148 138.443 131.02 138.5 130.915 138.59C130.811 138.679 130.734 138.797 130.696 138.929L129.807 143.485L131.194 143.673C131.335 142.553 131.228 141.416 130.879 140.343C130.832 140.181 130.728 140.042 130.587 139.95C130.446 139.858 130.276 139.819 130.109 139.841C129.942 139.863 129.788 139.945 129.676 140.07C129.563 140.196 129.5 140.358 129.497 140.526L129.398 143.917C129.398 144.739 130.541 144.856 130.785 144.105L130.86 143.875C130.893 143.755 130.894 143.628 130.862 143.508C130.831 143.388 130.769 143.278 130.682 143.189C129.219 141.602 128.923 144.128 128.415 144.828L129.732 145.185L129.487 141.616C129.435 140.855 128.307 140.62 128.1 141.428C127.702 143.016 127.151 144.563 126.454 146.045L127.771 146.401C127.755 144.816 127.598 143.234 127.3 141.677C127.178 141.029 126.327 141.057 126.012 141.508C125.071 142.86 123.444 145.814 124.7 147.435C125.795 148.844 129.243 148.299 130.715 148.21C133.038 148.078 133.88 146.608 134.134 144.42C134.255 143.371 134.196 142.311 133.96 141.282C133.833 140.728 132.549 137.215 132.163 137.285C133.057 137.121 132.676 135.759 131.787 135.923L131.763 135.905Z" fill="#68D391"/>
<path d="M129.031 139.07L125.179 144.147L126.397 144.856L129.219 140.78L127.93 140.235L126.524 145.594C126.486 145.756 126.507 145.927 126.583 146.076C126.659 146.225 126.785 146.342 126.939 146.407C127.093 146.472 127.265 146.481 127.425 146.432C127.585 146.383 127.722 146.279 127.813 146.138C128.453 145.08 129.171 144.07 129.962 143.119L128.786 142.433C128.471 143.646 127.862 144.764 127.013 145.688L128.194 146.373C128.266 145.724 128.439 145.091 128.706 144.495C129.068 143.682 127.921 142.964 127.488 143.781C127.09 144.525 126.636 145.238 126.129 145.913L127.418 146.082L127.705 144.744L126.416 144.575L126.623 145.749C126.657 145.867 126.721 145.974 126.809 146.06C126.897 146.146 127.006 146.208 127.125 146.239C127.244 146.27 127.369 146.27 127.488 146.238C127.607 146.207 127.716 146.145 127.803 146.059C128.996 144.826 129.953 143.385 130.625 141.808H129.412C129.731 142.396 129.955 143.03 130.075 143.687C130.244 144.532 131.368 144.218 131.458 143.499C131.66 141.926 131.763 140.342 131.768 138.755H130.357V141.71C130.357 142.475 131.613 142.701 131.744 141.897C131.838 141.185 132.073 140.498 132.436 139.878H131.199C131.497 140.358 131.659 140.91 131.669 141.475C131.669 141.662 131.743 141.841 131.876 141.973C132.008 142.105 132.187 142.179 132.375 142.179C132.562 142.179 132.741 142.105 132.873 141.973C133.006 141.841 133.08 141.662 133.08 141.475L133.259 140.535H131.9C132.036 141.367 132.553 146.049 130.714 145.5C130.404 145.425 130.315 145.443 130.446 145.551L130.865 144.659L131.848 142.578L130.531 142.222C130.616 143.189 130.705 144.57 130.122 145.396C129.652 146.068 128.203 146.336 127.465 145.941C126.977 145.594 126.561 145.157 126.237 144.654L125.273 145.594C126.054 146.162 127.319 147.557 128.325 147.637C129.092 147.698 129.736 147.064 130.239 146.556C131.011 145.76 131.613 144.815 132.008 143.779C132.404 142.744 132.584 141.638 132.539 140.531C132.539 140.344 132.465 140.165 132.333 140.033C132.2 139.9 132.021 139.826 131.834 139.826C131.647 139.826 131.467 139.9 131.335 140.033C131.203 140.165 131.128 140.344 131.128 140.531V142.137C131.128 142.324 131.203 142.503 131.335 142.635C131.467 142.767 131.647 142.841 131.834 142.841C132.021 142.841 132.2 142.767 132.333 142.635C132.465 142.503 132.539 142.324 132.539 142.137V138.197C132.539 138.01 132.465 137.831 132.333 137.698C132.2 137.566 132.021 137.492 131.834 137.492C131.647 137.492 131.467 137.566 131.335 137.698C131.203 137.831 131.128 138.01 131.128 138.197C131.126 139.141 131.044 140.084 130.884 141.015L132.271 141.202C132.161 140.08 132.109 138.953 132.116 137.826C132.114 137.657 132.051 137.494 131.939 137.368C131.827 137.241 131.673 137.159 131.506 137.137C131.338 137.114 131.168 137.152 131.026 137.244C130.885 137.336 130.781 137.476 130.733 137.638C130.522 138.535 130.263 139.418 130.014 140.296L131.302 140.127L131.204 139.751C131.138 138.854 129.727 138.849 129.793 139.751C129.808 140.131 129.908 140.503 130.084 140.841C130.357 141.414 131.208 141.212 131.373 140.672C131.641 139.789 131.881 138.906 132.092 138.013L130.705 137.826C130.698 138.953 130.75 140.08 130.86 141.202C130.931 141.926 132.097 142.236 132.243 141.39C132.431 140.329 132.53 139.255 132.539 138.178H131.128V142.118H132.539V140.512H131.128C131.211 142.284 130.595 144.017 129.412 145.34C129.229 145.548 129.03 145.743 128.819 145.922C128.485 146.242 128.18 146.195 127.912 145.777C127.244 145.5 126.552 144.786 125.969 144.368C125.386 143.95 124.587 144.776 125.001 145.331C126.082 146.768 127.695 148.369 129.703 147.679C131.815 146.932 132.102 144.077 131.942 142.198C131.89 141.573 130.954 141.151 130.63 141.846C130.16 142.837 129.689 143.823 129.219 144.819C129.054 145.166 128.749 145.645 128.796 146.059C128.951 147.115 130.235 146.942 131.025 146.881C134.086 146.65 133.602 142.315 133.249 140.136C133.132 139.413 132.078 139.526 131.89 140.136C131.741 140.565 131.663 141.016 131.66 141.47H133.071C133.019 140.663 132.793 139.876 132.407 139.164C132.344 139.059 132.255 138.972 132.148 138.912C132.042 138.851 131.921 138.82 131.798 138.82C131.676 138.82 131.555 138.851 131.449 138.912C131.342 138.972 131.253 139.059 131.189 139.164C130.769 139.889 130.485 140.685 130.352 141.512L131.763 141.7V138.746C131.763 138.559 131.689 138.38 131.557 138.248C131.424 138.116 131.245 138.042 131.058 138.042C130.871 138.042 130.691 138.116 130.559 138.248C130.427 138.38 130.352 138.559 130.352 138.746C130.348 140.332 130.244 141.916 130.042 143.49L131.429 143.302C131.27 142.534 130.999 141.793 130.625 141.104C130.562 140.999 130.473 140.912 130.366 140.851C130.259 140.791 130.139 140.759 130.016 140.759C129.893 140.759 129.773 140.791 129.666 140.851C129.559 140.912 129.47 140.999 129.407 141.104C128.794 142.575 127.912 143.919 126.806 145.068L127.987 145.378L127.78 144.204C127.672 143.579 126.788 143.56 126.491 144.034C126.258 144.388 126.099 144.785 126.025 145.202C125.952 145.619 125.965 146.046 126.063 146.458C126.181 147.125 127.027 147.054 127.352 146.627C127.859 145.953 128.313 145.242 128.711 144.499L127.493 143.785C127.168 144.487 126.946 145.232 126.835 145.998C126.75 146.618 127.488 147.266 128.015 146.683C129.026 145.579 129.758 144.248 130.15 142.804C130.324 142.165 129.44 141.559 128.97 142.118C128.105 143.154 127.319 144.253 126.618 145.406L127.907 145.951L129.341 140.611C129.379 140.448 129.358 140.277 129.282 140.128C129.207 139.979 129.08 139.862 128.926 139.797C128.772 139.732 128.6 139.723 128.44 139.772C128.281 139.821 128.143 139.925 128.053 140.066L125.231 144.147C124.704 144.903 125.913 145.556 126.449 144.856L130.286 139.784C130.832 139.061 129.609 138.375 129.068 139.07H129.031Z" fill="#68D391"/>
<path d="M189.029 156.02C194.673 152.573 199.159 147.43 204.144 143.128C209.552 138.464 215.229 134.12 221.074 130.006C232.427 122.022 244.348 114.878 256.261 107.753C256.415 107.656 256.525 107.502 256.569 107.325C256.612 107.148 256.585 106.961 256.493 106.803C256.401 106.646 256.251 106.53 256.075 106.48C255.9 106.43 255.711 106.451 255.55 106.537C243.638 113.662 231.712 120.791 220.359 128.789C215.003 132.547 209.773 136.529 204.76 140.756C199.305 145.359 194.447 151.089 188.3 154.804C187.524 155.273 188.234 156.494 189.01 156.02H189.029Z" fill="#68D391"/>
<path d="M274.475 85.8768C268.361 86.4967 261.777 88.0513 258.015 93.3913C254.765 97.9845 254.836 105.997 257.888 110.712C261.354 116.071 268.436 116.264 273.938 114.531C279.441 112.797 285.136 109.759 285.084 103.193C285.056 99.6706 283.781 96.0026 282.375 92.8089C281.162 90.052 279.013 87.6427 275.758 87.948C274.86 88.0325 274.851 89.4415 275.758 89.3569C280.118 88.953 281.519 94.1239 282.554 97.3881C283.494 100.436 284.364 104.043 282.888 107.072C281.411 110.102 277.851 111.647 274.808 112.755C271.516 113.948 267.9 114.676 264.462 113.695C257.653 111.792 255.771 103.174 257.733 97.0593C259.99 90.0145 267.985 87.9433 274.498 87.2857C275.392 87.1965 275.401 85.7875 274.498 85.8768H274.475Z" fill="#68D391"/>
<path d="M283.88 140.357C277.767 140.977 271.183 142.532 267.42 147.872C264.171 152.465 264.241 160.477 267.293 165.192C270.759 170.551 277.842 170.744 283.344 169.011C288.846 167.278 294.541 164.239 294.49 157.673C294.461 154.151 293.187 150.483 291.781 147.289C290.568 144.532 288.418 142.123 285.164 142.428C284.266 142.513 284.256 143.922 285.164 143.837C289.524 143.433 290.925 148.604 291.96 151.868C292.9 154.916 293.77 158.523 292.293 161.553C290.817 164.582 287.257 166.127 284.214 167.235C280.922 168.428 277.306 169.156 273.868 168.175C267.058 166.273 265.177 157.654 267.138 151.54C269.396 144.495 277.39 142.423 283.904 141.766C284.797 141.677 284.807 140.268 283.904 140.357H283.88Z" fill="#68D391"/>
<path d="M265.252 99.5954L269.706 104.668C269.794 104.753 269.903 104.813 270.021 104.844C270.14 104.875 270.264 104.874 270.383 104.842C270.501 104.811 270.609 104.749 270.697 104.663C270.784 104.578 270.848 104.471 270.882 104.353C271.822 101.883 271.643 99.323 271.864 96.7258C272.108 94.0415 272.783 91.4138 273.863 88.9436C276.033 83.9335 279.712 79.7228 284.388 76.8969C285.164 76.4273 284.454 75.2062 283.678 75.6805C279.067 78.4534 275.368 82.5117 273.035 87.3562C271.894 89.7136 271.102 92.2244 270.684 94.8096C270.214 97.8577 270.642 101.051 269.513 103.977L270.693 103.663L266.263 98.5998C265.661 97.9188 264.669 98.9191 265.266 99.5954H265.252Z" fill="#68D391"/>
<path d="M191.301 161.51C215.558 160.771 239.821 160.615 264.091 161.041C264.998 161.041 264.998 159.632 264.091 159.632C239.827 159.2 215.564 159.356 191.301 160.101C190.393 160.13 190.388 161.539 191.301 161.51Z" fill="#68D391"/>
<path d="M269.16 147.618C277.453 150.868 285.429 154.871 292.99 159.575C293.761 160.045 294.471 158.838 293.7 158.359C286.04 153.596 277.958 149.546 269.555 146.261C268.714 145.927 268.347 147.289 269.184 147.618H269.16Z" fill="#68D391"/>
<path d="M284.219 141.235C275.81 151.025 270.939 163.353 270.388 176.239C270.35 177.145 271.761 177.145 271.799 176.239C272.333 163.722 277.057 151.747 285.216 142.231C285.804 141.545 284.811 140.545 284.219 141.235Z" fill="#68D391"/>
<path d="M96.1301 156.396L148.693 155.71L154.736 155.63C155.823 155.63 156.909 155.593 157.996 155.588C159.524 155.588 160.554 156.856 160.526 158.406C160.455 161.694 158.386 161.576 155.677 161.694L149.145 161.989L122.546 163.159C117.782 163.37 113.013 163.629 108.249 163.793C103.951 163.924 95.7774 162.525 97.6867 156.278C97.9501 155.41 96.591 155.038 96.3229 155.903C95.3823 158.974 97.0471 162.093 99.7277 163.704C103.532 165.986 108.545 165.211 112.745 165.023L145.401 163.544L153.33 163.192C155.362 163.098 158.188 163.511 160.055 162.567C162.247 161.463 162.632 157.081 161.25 155.236C160.54 154.296 159.543 154.212 158.428 154.17C155.503 154.057 152.526 154.249 149.596 154.287L133.315 154.503L96.1113 154.973C95.2036 154.973 95.2036 156.382 96.1113 156.382L96.1301 156.396Z" fill="#68D391"/>
<path d="M308.499 328.995C307.314 329.737 305.96 330.155 304.737 330.808C303.514 331.46 302.325 332.442 301.977 333.795C301.847 334.214 301.868 334.666 302.038 335.072C302.342 335.562 302.808 335.931 303.355 336.115C305.838 337.216 308.521 337.8 311.239 337.831C313.957 337.862 316.652 337.339 319.161 336.293C320.043 335.869 320.955 335.509 321.888 335.213C323.038 334.979 324.209 334.859 325.382 334.856C326.616 334.784 327.843 334.627 329.055 334.386C329.665 334.319 330.242 334.079 330.72 333.696C331.156 333.194 331.419 332.565 331.468 331.902C332.024 328.243 331.185 324.509 329.117 321.438C328.856 321.008 328.506 320.638 328.091 320.353C327.585 320.092 327.029 319.943 326.459 319.916C324.108 319.63 321.644 319.104 319.269 319.047C317.566 319.01 316.711 319.818 315.507 320.987C313.019 323.472 311.566 327.083 308.499 328.995Z" fill="#323444"/>
<path d="M343.154 328.647C343.154 330.949 343.432 333.386 344.829 335.222C345.467 336.016 346.241 336.692 347.114 337.218C350.067 339.097 353.98 339.787 357.093 338.195C357.596 337.97 358.026 337.609 358.335 337.153C358.805 336.335 358.556 335.316 358.293 334.415L353.787 318.822C350.876 319.268 346.597 319.583 344.01 321.058C342.134 322.124 343.154 326.59 343.154 328.647Z" fill="#323444"/>
<path d="M305.856 232.635C305.584 233.495 304.596 233.894 304.055 234.617C303.42 235.467 303.486 236.646 303.717 237.679C304.001 239.203 304.718 240.613 305.781 241.742C306.321 242.301 306.986 242.723 307.723 242.973C308.459 243.223 309.244 243.294 310.014 243.179C311.528 242.892 312.835 241.554 312.887 240.018C312.86 239.32 312.71 238.631 312.445 237.985L309.238 228.723C309.225 228.657 309.198 228.596 309.159 228.541C309.12 228.487 309.07 228.442 309.012 228.408C308.891 228.381 308.764 228.403 308.659 228.469C307.902 228.826 306.383 229.202 305.941 229.986C305.499 230.771 306.176 231.785 305.856 232.635Z" fill="#FBB3B2"/>
<path d="M304.356 232.17C305.527 231.987 306.552 231.301 307.648 230.851C308.744 230.4 310.117 230.226 311.039 230.977C311.302 231.193 311.556 231.489 311.899 231.485C311.432 229.188 310.726 226.947 309.793 224.797C309.76 224.694 309.696 224.603 309.609 224.538C309.481 224.486 309.338 224.486 309.209 224.538L306.045 225.365C304.874 225.67 304.737 225.576 304.826 226.727C304.85 227.239 305.113 232.17 304.356 232.17Z" fill="#323444"/>
<path d="M304.008 165.291C303.538 166.014 303.538 166.916 303.538 167.766C303.538 171.923 303.58 176.103 304.196 180.217C304.342 181.203 304.525 182.189 304.619 183.185C304.726 184.571 304.748 185.962 304.685 187.351L304.215 205.433C304.159 207.645 304.046 210.021 302.677 211.759C302.262 212.341 302.067 213.052 302.127 213.764C302.484 218.301 303.237 222.801 303.985 227.286C305.189 226.743 306.504 226.494 307.823 226.556C309.143 226.619 310.428 226.993 311.575 227.647C313.948 220.197 315.26 212.45 315.474 204.634C315.582 200.788 315.417 196.918 316.01 193.118C317.002 186.722 316.598 180.16 315.869 173.726C315.638 171.688 315.149 169.588 313.842 168.01C312.604 166.63 310.956 165.682 309.139 165.305C307.399 164.85 305.842 165.319 304.008 165.291Z" fill="#5B5583"/>
<path opacity="0.1" d="M304.008 165.291C303.538 166.014 303.538 166.916 303.538 167.766C303.538 171.923 303.58 176.103 304.196 180.217C304.342 181.203 304.525 182.189 304.619 183.185C304.726 184.571 304.748 185.962 304.685 187.351L304.215 205.433C304.159 207.645 304.046 210.021 302.677 211.759C302.262 212.341 302.067 213.052 302.127 213.764C302.484 218.301 303.237 222.801 303.985 227.286C305.189 226.743 306.504 226.494 307.823 226.556C309.143 226.619 310.428 226.993 311.575 227.647C313.948 220.197 315.26 212.45 315.474 204.634C315.582 200.788 315.417 196.918 316.01 193.118C317.002 186.722 316.598 180.16 315.869 173.726C315.638 171.688 315.149 169.588 313.842 168.01C312.604 166.63 310.956 165.682 309.139 165.305C307.399 164.85 305.842 165.319 304.008 165.291Z" fill="black"/>
<path d="M309.755 217.728C306.601 233.87 308.323 250.584 314.702 265.746C315.254 266.868 315.64 268.064 315.85 269.297C316.109 271.598 315.046 273.81 314.439 276.036C313.028 281.099 313.842 286.491 314.745 291.671C315.121 293.831 315.508 295.99 315.906 298.148C316.297 300.252 316.673 302.539 315.695 304.446C316.536 307.949 317.035 311.42 317.877 314.924C317.966 315.201 317.993 315.494 317.957 315.783C317.787 316.242 317.488 316.641 317.096 316.934C316.469 317.569 316.018 318.357 315.788 319.219C315.558 320.081 315.556 320.988 315.784 321.851C317.933 320.311 320.929 320.851 323.384 321.851C325.839 322.852 328.256 324.2 330.908 324.2C330.523 321.09 330.151 317.826 331.299 314.91C331.966 313.219 333.142 311.622 333.109 309.814C333.076 308.194 332.084 306.747 331.844 305.146C331.755 304.149 331.793 303.145 331.957 302.158C332.587 296.41 331.872 290.605 331.157 284.866C331.077 283.734 330.81 282.623 330.367 281.578C330.034 280.902 329.535 280.254 329.544 279.498C329.544 278.619 330.255 277.905 330.518 277.069C330.988 275.529 330.123 273.434 331.426 272.481C334.859 269.963 333.542 263.952 333.467 259.702C333.407 256.035 333.25 252.372 332.996 248.712C335.158 254.781 336.042 261.231 335.592 267.658C335.442 269.762 335.164 271.974 335.987 273.918C336.617 275.412 337.868 276.642 338.207 278.225C338.419 279.202 338.268 280.211 338.315 281.207C338.362 282.203 338.701 283.288 339.561 283.79C339.627 288.318 340.032 293.16 340.102 297.687C340.056 300.002 340.246 302.315 340.667 304.591C340.878 305.315 340.995 306.064 341.015 306.818C340.909 307.763 340.658 308.686 340.272 309.556C339.452 311.979 339.238 314.566 339.647 317.091C340.057 319.617 341.079 322.004 342.623 324.045C343.733 322.077 346.047 321.034 348.304 320.87C350.561 320.705 352.79 321.274 354.977 321.847C354.643 319.102 355.19 316.323 356.539 313.909C356.9 313.365 357.178 312.77 357.362 312.143C357.615 310.95 357.023 309.762 356.703 308.583C356.181 306.705 356.365 304.681 356.487 302.717C356.897 296.142 356.606 289.543 355.617 283.029C355.464 281.746 355.163 280.486 354.719 279.272C354.549 278.84 354.342 278.427 354.201 277.99C353.979 277.206 353.853 276.399 353.825 275.585L353.284 268.071C352.903 262.806 354.634 257.607 355.843 252.469C356.383 250.167 356.971 247.871 357.333 245.532C357.827 242.348 357.907 239.093 358.631 235.951C359.28 233.133 360.451 230.386 360.696 227.497C361.072 223.021 359.21 218.696 357.404 214.591C356.651 212.9 353.806 213.069 351.977 212.769C339.002 210.641 325.335 210.627 313.099 215.422C311.833 215.946 310.694 216.732 309.755 217.728V217.728Z" fill="#3C354C"/>
<path d="M319.109 134.369L320.548 139.958C320.939 141.24 321.156 142.568 321.192 143.908C321.207 144.396 321.099 144.881 320.877 145.317C320.64 145.675 320.337 145.984 319.984 146.228C319.001 146.974 318.319 148.717 317.195 149.234C317.773 150.239 318.573 149.586 319.617 150.088C321.456 150.981 323.139 152.263 325.133 152.704C327.014 153.118 328.989 152.728 330.856 152.235C333.504 151.516 336.138 150.525 338.268 148.792C340.398 147.059 341.612 145.528 341.602 142.79C339.251 143.067 337.158 140.695 336.119 138.563C335.759 137.752 335.493 136.903 335.329 136.031L334.069 130.494C332.695 130.795 331.576 131.776 330.264 132.288C328.952 132.8 327.4 132.847 325.942 132.913C323.354 133.03 320.781 133.364 318.248 133.909C317.9 133.979 317.463 134.2 317.548 134.538" fill="#FBB3B2"/>
<path opacity="0.1" d="M319.109 134.369L320.548 139.958C320.939 141.24 321.156 142.568 321.192 143.908C321.207 144.396 321.099 144.881 320.877 145.317C320.64 145.675 320.337 145.984 319.984 146.228C319.001 146.974 318.319 148.717 317.195 149.234C317.773 150.239 318.573 149.586 319.617 150.088C321.456 150.981 323.139 152.263 325.133 152.704C327.014 153.118 328.989 152.728 330.856 152.235C333.504 151.516 336.138 150.525 338.268 148.792C340.398 147.059 341.612 145.528 341.602 142.79C339.251 143.067 337.158 140.695 336.119 138.563C335.759 137.752 335.493 136.903 335.329 136.031L334.069 130.494C332.695 130.795 331.576 131.776 330.264 132.288C328.952 132.8 327.4 132.847 325.942 132.913C323.354 133.03 320.781 133.364 318.248 133.909C317.9 133.979 317.463 134.2 317.548 134.538" fill="black"/>
<path d="M325.288 137.45C332.166 137.45 337.741 131.882 337.741 125.013C337.741 118.145 332.166 112.577 325.288 112.577C318.411 112.577 312.835 118.145 312.835 125.013C312.835 131.882 318.411 137.45 325.288 137.45Z" fill="#FBB3B2"/>
<path d="M328.717 145.514C329.383 144.077 330.344 142.797 331.538 141.757C333.293 140.221 335.691 138.976 336.105 136.684L339.905 141.104C340.111 141.309 340.272 141.555 340.375 141.827C340.423 142.082 340.416 142.344 340.354 142.596C340.293 142.848 340.178 143.084 340.018 143.288C339.077 144.786 337.596 145.857 336.194 146.942C332.982 149.483 329.907 152.192 326.981 155.057C326.853 155.207 326.68 155.312 326.488 155.358C326.306 155.363 326.127 155.312 325.975 155.212C323.451 153.889 321.217 152.075 319.405 149.877C319.269 149.713 319.1 149.525 318.878 149.539C318.745 149.563 318.622 149.627 318.526 149.722C317.261 150.755 315.878 151.99 314.256 151.831C316.358 150.323 317.548 147.806 317.99 145.256C318.077 144.383 318.257 143.522 318.526 142.686C318.665 142.269 318.905 141.892 319.225 141.589C319.545 141.286 319.935 141.066 320.36 140.949C319.335 142.513 320.035 144.73 321.413 145.993C322.752 147.128 324.357 147.905 326.078 148.252C327.677 148.553 328.148 146.744 328.717 145.514Z" fill="#323444"/>
<path d="M312.515 219.006C314.288 219.443 315.967 220.185 317.689 220.734C320.826 221.715 324.127 222.062 327.4 221.753C328.407 221.731 329.387 221.42 330.222 220.856C330.443 220.678 330.645 220.466 330.88 220.302C331.273 220.066 331.7 219.891 332.145 219.781C336.457 218.433 340.069 215.526 343.573 212.679C343.686 212.586 343.813 212.468 343.803 212.318C343.787 212.216 343.737 212.121 343.662 212.05L341.819 209.937C336.984 210.759 332.032 210.449 327.127 210.326C326.12 210.282 325.111 210.309 324.108 210.406C323.139 210.519 322.184 210.763 321.23 210.97C317.604 211.759 313.898 212.06 310.225 212.576C309.968 212.595 309.719 212.672 309.496 212.802C309.341 212.921 309.209 213.068 309.106 213.234L307.817 215.042C307.317 215.65 306.949 216.355 306.736 217.113C306.435 218.522 307.065 218.992 308.264 218.808C309.681 218.601 311.124 218.668 312.515 219.006Z" fill="#323444"/>
<path d="M326.93 152.906C325.491 151.434 323.86 150.162 322.081 149.125C321.362 148.67 320.565 148.351 319.73 148.186C319.309 148.103 318.876 148.113 318.46 148.216C318.044 148.318 317.656 148.51 317.322 148.778C316.903 149.149 316.64 149.666 316.236 150.055C315.727 150.482 315.143 150.812 314.514 151.028C312.374 151.941 310.344 153.096 308.466 154.47C307.443 155.185 306.521 156.035 305.725 156.997C303.594 159.721 303.275 163.427 303.331 166.883C303.373 169.288 305.682 171.073 307.272 172.871C308.763 174.641 310.112 176.526 311.307 178.507C312.163 179.86 313.056 181.325 312.948 182.936C312.859 184.256 312.088 185.496 312.21 186.811C312.252 187.28 312.403 187.712 312.445 188.168C312.53 189.107 312.158 190.047 312.064 190.986C311.937 192.315 312.37 193.635 312.393 194.973C312.376 195.89 312.259 196.801 312.045 197.693C311.142 201.985 310.009 206.302 310.239 210.683L307.634 211.153C307.881 211.395 308.067 211.691 308.178 212.018C308.289 212.345 308.321 212.693 308.272 213.035C308.223 213.376 308.094 213.701 307.896 213.984C307.698 214.267 307.436 214.499 307.131 214.661C311.199 216.019 315.596 215.333 319.908 215.328C323.478 215.328 327.033 215.798 330.598 215.732C334.163 215.666 337.84 215.023 340.779 213.008C341.579 212.463 342.313 211.825 343.154 211.35C344.282 210.767 345.497 210.37 346.752 210.176C349.077 209.733 351.44 209.523 353.806 209.547C354.963 209.547 356.223 209.594 357.145 208.899C358.161 208.128 358.42 206.734 358.556 205.47C358.692 204.136 358.777 202.798 358.801 201.459C358.84 200.417 358.785 199.373 358.636 198.341C358.495 197.586 358.311 196.84 358.086 196.105L356.313 189.868C355.579 187.294 356.6 184.472 356.816 181.804C356.868 181.175 356.877 180.442 356.393 180.038C356.219 179.893 355.979 179.794 355.922 179.569C355.897 179.462 355.894 179.351 355.914 179.242C355.933 179.134 355.974 179.031 356.035 178.939C356.976 177.061 358.387 175.403 359.675 173.707C361.84 170.733 363.849 167.65 365.695 164.469C365.117 157.813 362.31 151.546 357.728 146.679C356.788 145.659 355.711 144.683 354.394 144.222C353.534 143.96 352.641 143.816 351.742 143.795C348.055 143.546 344.217 143.325 341.005 141.475C340.775 141.315 340.514 141.205 340.239 141.151C339.529 141.071 339.011 141.771 338.55 142.325C337.365 143.734 335.62 144.542 334.087 145.58C331.228 147.519 328.994 150.187 326.93 152.906Z" fill="#5B5583"/>
<path d="M366.015 166.39C366.748 168.71 366.678 171.19 366.918 173.609C367.06 175.068 367.316 176.515 367.684 177.934C367.852 178.715 368.155 179.46 368.578 180.137C369.001 180.757 369.608 181.259 369.876 181.959C370.022 182.433 370.087 182.929 370.069 183.425L370.125 186.665C370.246 188.382 369.984 190.105 369.358 191.709L367.331 197.866C366.236 201.201 365.112 204.587 363.137 207.49C362.858 207.981 362.437 208.376 361.928 208.622C361.53 208.727 361.121 208.79 360.71 208.809C359.993 208.937 359.343 209.31 358.872 209.865C358.4 210.42 358.138 211.121 358.128 211.848C357.657 211.161 357.07 210.562 356.393 210.078L352.268 206.79C350.858 205.644 349.386 204.479 347.674 203.817C349.976 203.099 352.02 201.729 353.558 199.873C355.096 198.017 356.061 195.756 356.336 193.362C356.335 192.65 356.496 191.947 356.807 191.305C357.15 190.751 357.785 190.328 357.832 189.676C357.888 188.854 356.957 188.234 356.957 187.412C356.957 186.867 357.362 186.416 357.54 185.904C357.707 185.272 357.707 184.607 357.54 183.974L356.971 180.818C356.938 180.502 356.842 180.195 356.689 179.916C356.476 179.649 356.24 179.4 355.984 179.174C355.005 178.08 355.438 176.356 355.984 175.008C357.236 172.016 358.85 169.188 360.79 166.587C361.48 165.714 362.119 164.801 362.704 163.854C363.202 162.99 363.315 161.792 363.842 161.036C364.519 162.811 365.436 164.563 366.015 166.39Z" fill="#5B5583"/>
<path d="M347.528 204.01C347.318 204.165 347.137 204.356 346.992 204.573C346.438 205.268 345.7 205.793 344.862 206.09C345.332 206.428 345.76 206.762 346.202 207.105C349.473 209.627 352.468 212.488 355.137 215.638C355.433 214.582 357.206 214.657 357.639 213.647C357.741 213.358 357.773 213.049 357.733 212.745C357.643 211.163 357.417 209.592 357.056 208.049C356.913 207.254 356.592 206.503 356.115 205.851C355.457 205.057 354.432 204.676 353.454 204.348C351.972 203.831 349.033 203.103 347.528 204.01Z" fill="#323444"/>
<path d="M341.649 207.701C340.239 208.744 339.002 210.049 337.417 210.763C336.298 211.271 335.023 211.491 334.045 212.247C334.576 213.417 335.959 214.023 337.243 213.976C338.528 213.85 339.76 213.399 340.822 212.665C341.664 212.149 342.651 211.548 343.568 211.909C343.709 212.623 343.098 213.295 343.098 214.018C343.098 214.741 343.7 215.267 344.292 215.648C347.114 217.465 350.745 217.315 354.107 217.104C354.3 217.111 354.49 217.055 354.648 216.944C354.721 216.859 354.776 216.761 354.811 216.654C354.846 216.548 354.859 216.436 354.85 216.324C354.893 215.582 354.911 214.845 354.916 214.103C355.011 213.504 354.933 212.891 354.692 212.336C354.45 211.78 354.055 211.304 353.552 210.965C351.728 209.399 349.759 208.007 347.674 206.809C345.605 205.611 343.507 206.32 341.649 207.701Z" fill="#FBB3B2"/>
<path d="M329.662 119.814C327.574 120.063 326.055 121.693 326.267 123.463C326.478 125.234 328.34 126.455 330.428 126.202C332.517 125.948 334.036 124.323 333.824 122.557C333.612 120.791 331.75 119.565 329.662 119.814ZM330.372 125.713C328.604 125.924 327.028 124.887 326.845 123.393C326.662 121.899 327.955 120.519 329.718 120.307C331.482 120.096 333.062 121.134 333.245 122.627C333.429 124.121 332.136 125.502 330.372 125.713V125.713Z" fill="#3C354C"/>
<path d="M319.485 121.035C317.397 121.284 315.878 122.914 316.09 124.68C316.301 126.446 318.164 127.672 320.252 127.423C322.34 127.174 323.859 125.544 323.647 123.773C323.436 122.003 321.573 120.786 319.485 121.035ZM320.195 126.929C318.427 127.141 316.852 126.103 316.673 124.614C316.494 123.125 317.778 121.74 319.546 121.524C321.315 121.308 322.89 122.35 323.069 123.844C323.247 125.337 321.959 126.718 320.195 126.929Z" fill="#3C354C"/>
<path d="M311.928 121.942L316.466 122.909L316.019 124.102L311.74 122.848L311.928 121.942Z" fill="#3C354C"/>
<path d="M337.224 118.908L333.039 120.923L333.758 121.975L337.619 119.744L337.224 118.908Z" fill="#3C354C"/>
<path d="M323.229 122.609L326.412 122.228L326.248 123.017L323.515 123.2L323.229 122.609Z" fill="#3C354C"/>
<path d="M317.054 121.543C317.353 120.899 317.514 120.2 317.524 119.49C317.535 119.065 317.608 118.645 317.74 118.241C317.972 117.728 318.323 117.279 318.766 116.931C320.233 115.691 322.335 115.052 324.409 114.963C326.67 114.859 328.92 115.344 330.937 116.372C331.553 116.66 332.104 117.069 332.559 117.574C333.217 118.377 333.358 119.415 334.022 120.209C334.474 120.69 335.043 121.047 335.675 121.245C336.306 121.442 336.977 121.474 337.624 121.336C337.854 120.519 337.553 119.655 337.671 118.819C337.856 118.102 338.107 117.404 338.419 116.733C339.148 114.587 338.085 112.098 335.893 110.816C335.127 110.346 334.219 110.041 333.645 109.407C333.072 108.773 332.935 108.115 332.54 107.481C331.491 105.804 328.778 105.02 326.713 105.795C326.064 106.039 325.491 106.41 324.832 106.673C323.61 107.176 322.217 107.265 320.872 107.434C319.547 107.556 318.25 107.896 317.035 108.439C315.873 109.012 314.9 109.933 314.632 111.032C314.505 111.539 314.533 112.065 314.406 112.567C313.757 115.118 309.567 116.358 309.332 118.959C309.247 119.899 309.76 120.8 310.399 121.566C310.841 122.087 311.9 123.482 312.647 123.684C313.395 123.886 313.964 123.177 314.679 122.933C315.808 122.58 316.489 122.505 317.054 121.543Z" fill="#CBCEDA"/>
<path d="M370.106 286.96C370.106 310.556 384.929 329.652 403.247 329.652Z" fill="#46455B"/>
<path d="M403.247 329.657C403.247 305.794 419.791 286.486 440.234 286.486Z" fill="#68D391"/>
<path d="M382.117 289.102C382.117 311.519 391.57 329.657 403.247 329.657Z" fill="#68D391"/>
<path d="M403.247 329.657C403.247 299.167 422.368 274.491 445.995 274.491Z" fill="#46455B"/>
<path opacity="0.1" d="M401.812 337.81C406.363 337.81 410.052 337.188 410.052 336.42C410.052 335.652 406.363 335.03 401.812 335.03C397.262 335.03 393.573 335.652 393.573 336.42C393.573 337.188 397.262 337.81 401.812 337.81Z" fill="#68D391"/>
<path d="M396.277 329.958C396.277 329.958 400.98 329.812 402.391 328.807C403.802 327.802 409.619 326.595 409.972 328.21C410.324 329.826 417.026 336.246 411.726 336.288C406.426 336.331 399.395 335.462 397.984 334.602C396.574 333.743 396.277 329.958 396.277 329.958Z" fill="#A8A8A8"/>
<path opacity="0.2" d="M411.825 335.725C406.52 335.767 399.499 334.898 398.083 334.039C397.006 333.386 396.578 331.033 396.432 329.953H396.277C396.277 329.953 396.573 333.738 397.989 334.598C399.405 335.457 406.426 336.326 411.731 336.284C413.264 336.284 413.79 335.725 413.762 334.922C413.551 335.41 412.991 335.716 411.825 335.725Z" fill="black"/>
<path d="M10.5767 300.75C10.5767 319.536 22.3666 334.715 36.9406 334.715Z" fill="#46455B"/>
<path d="M36.9406 334.715C36.9406 315.732 50.1084 300.369 66.366 300.369Z" fill="#68D391"/>
<path d="M20.1281 302.459C20.1281 320.306 27.6525 334.725 36.9406 334.725Z" fill="#68D391"/>
<path d="M36.9406 334.715C36.9406 310.457 52.1541 290.826 70.9512 290.826Z" fill="#46455B"/>
<path opacity="0.1" d="M35.7978 341.206C39.4184 341.206 42.3535 340.71 42.3535 340.097C42.3535 339.485 39.4184 338.989 35.7978 338.989C32.1772 338.989 29.2421 339.485 29.2421 340.097C29.2421 340.71 32.1772 341.206 35.7978 341.206Z" fill="#68D391"/>
<path d="M31.396 334.955C31.396 334.955 35.1347 334.837 36.2587 334.015C37.3827 333.193 42.0149 332.254 42.2924 333.546C42.5699 334.837 47.9122 339.938 43.7032 339.971C39.4942 340.003 33.8932 339.313 32.7692 338.632C31.6452 337.951 31.396 334.955 31.396 334.955Z" fill="#A8A8A8"/>
<path opacity="0.2" d="M43.7644 339.562C39.5319 339.595 33.9543 338.904 32.8304 338.219C31.9744 337.702 31.6358 335.828 31.5183 334.969H31.396C31.396 334.969 31.6311 337.979 32.7551 338.665C33.8791 339.351 39.4707 340.036 43.6891 340.003C44.9072 340.003 45.3304 339.562 45.3069 338.919C45.1376 339.294 44.672 339.534 43.7644 339.562Z" fill="black"/>
</g>
<defs>
<clipPath id="clip0">
<rect width="446" height="356" fill="white"/>
</clipPath>
</defs>
</svg>
