<svg width="461" height="368" viewBox="0 0 461 368" fill="none" xmlns="http://www.w3.org/2000/svg">
<g clip-path="url(#clip0)">
<path opacity="0.1" d="M132.432 63.1135H97.8513C95.8566 63.1135 94.2396 64.7284 94.2396 66.7206V72.129C94.2396 74.1212 95.8566 75.7362 97.8513 75.7362H132.432C134.427 75.7362 136.044 74.1212 136.044 72.129V66.7206C136.044 64.7284 134.427 63.1135 132.432 63.1135Z" fill="#68D391"/>
<path opacity="0.1" d="M176.181 75.7361H141.6C139.605 75.7361 137.988 77.3511 137.988 79.3433V84.7517C137.988 86.7439 139.605 88.3588 141.6 88.3588H176.181C178.176 88.3588 179.793 86.7439 179.793 84.7517V79.3433C179.793 77.3511 178.176 75.7361 176.181 75.7361Z" fill="#68D391"/>
<path opacity="0.1" d="M219.93 88.3588H185.349C183.354 88.3588 181.737 89.9738 181.737 91.966V97.3744C181.737 99.3665 183.354 100.982 185.349 100.982H219.93C221.925 100.982 223.542 99.3665 223.542 97.3744V91.966C223.542 89.9738 221.925 88.3588 219.93 88.3588Z" fill="#68D391"/>
<path opacity="0.1" d="M132.432 44.1794H97.8513C95.8566 44.1794 94.2396 45.7944 94.2396 47.7866V53.1949C94.2396 55.1871 95.8566 56.8021 97.8513 56.8021H132.432C134.427 56.8021 136.044 55.1871 136.044 53.1949V47.7866C136.044 45.7944 134.427 44.1794 132.432 44.1794Z" fill="#68D391"/>
<path opacity="0.1" d="M176.181 56.8021H141.6C139.605 56.8021 137.988 58.4171 137.988 60.4093V65.8176C137.988 67.8098 139.605 69.4248 141.6 69.4248H176.181C178.176 69.4248 179.793 67.8098 179.793 65.8176V60.4093C179.793 58.4171 178.176 56.8021 176.181 56.8021Z" fill="#68D391"/>
<path opacity="0.1" d="M219.93 69.4248H185.349C183.354 69.4248 181.737 71.0398 181.737 73.032V78.4403C181.737 80.4325 183.354 82.0475 185.349 82.0475H219.93C221.925 82.0475 223.542 80.4325 223.542 78.4403V73.032C223.542 71.0398 221.925 69.4248 219.93 69.4248Z" fill="#68D391"/>
<path opacity="0.1" d="M268.54 63.1135H233.959C231.964 63.1135 230.347 64.7284 230.347 66.7206V72.129C230.347 74.1212 231.964 75.7362 233.959 75.7362H268.54C270.534 75.7362 272.151 74.1212 272.151 72.129V66.7206C272.151 64.7284 270.534 63.1135 268.54 63.1135Z" fill="#68D391"/>
<path opacity="0.1" d="M312.288 75.7361H277.707C275.713 75.7361 274.096 77.3511 274.096 79.3433V84.7517C274.096 86.7439 275.713 88.3588 277.707 88.3588H312.288C314.283 88.3588 315.9 86.7439 315.9 84.7517V79.3433C315.9 77.3511 314.283 75.7361 312.288 75.7361Z" fill="#68D391"/>
<path opacity="0.1" d="M356.037 88.3588H321.456C319.461 88.3588 317.844 89.9738 317.844 91.966V97.3744C317.844 99.3665 319.461 100.982 321.456 100.982H356.037C358.032 100.982 359.649 99.3665 359.649 97.3744V91.966C359.649 89.9738 358.032 88.3588 356.037 88.3588Z" fill="#68D391"/>
<path opacity="0.1" d="M268.54 44.1794H233.959C231.964 44.1794 230.347 45.7944 230.347 47.7866V53.1949C230.347 55.1871 231.964 56.8021 233.959 56.8021H268.54C270.534 56.8021 272.151 55.1871 272.151 53.1949V47.7866C272.151 45.7944 270.534 44.1794 268.54 44.1794Z" fill="#68D391"/>
<path opacity="0.1" d="M312.288 56.8021H277.707C275.713 56.8021 274.096 58.4171 274.096 60.4093V65.8176C274.096 67.8098 275.713 69.4248 277.707 69.4248H312.288C314.283 69.4248 315.9 67.8098 315.9 65.8176V60.4093C315.9 58.4171 314.283 56.8021 312.288 56.8021Z" fill="#68D391"/>
<path opacity="0.1" d="M356.037 69.4248H321.456C319.461 69.4248 317.844 71.0398 317.844 73.032V78.4403C317.844 80.4325 319.461 82.0475 321.456 82.0475H356.037C358.032 82.0475 359.649 80.4325 359.649 78.4403V73.032C359.649 71.0398 358.032 69.4248 356.037 69.4248Z" fill="#68D391"/>
<path opacity="0.1" d="M132.432 18.934H97.8513C95.8566 18.934 94.2396 20.549 94.2396 22.5412V27.9496C94.2396 29.9417 95.8566 31.5567 97.8513 31.5567H132.432C134.427 31.5567 136.044 29.9417 136.044 27.9496V22.5412C136.044 20.549 134.427 18.934 132.432 18.934Z" fill="#68D391"/>
<path opacity="0.1" d="M176.181 31.5567H141.6C139.605 31.5567 137.988 33.1717 137.988 35.1639V40.5722C137.988 42.5644 139.605 44.1794 141.6 44.1794H176.181C178.176 44.1794 179.793 42.5644 179.793 40.5722V35.1639C179.793 33.1717 178.176 31.5567 176.181 31.5567Z" fill="#68D391"/>
<path opacity="0.1" d="M219.93 44.1794H185.349C183.354 44.1794 181.737 45.7944 181.737 47.7866V53.1949C181.737 55.1871 183.354 56.8021 185.349 56.8021H219.93C221.925 56.8021 223.542 55.1871 223.542 53.1949V47.7866C223.542 45.7944 221.925 44.1794 219.93 44.1794Z" fill="#68D391"/>
<path opacity="0.1" d="M132.432 0H97.8513C95.8566 0 94.2396 1.61499 94.2396 3.60718V9.01551C94.2396 11.0077 95.8566 12.6227 97.8513 12.6227H132.432C134.427 12.6227 136.044 11.0077 136.044 9.01551V3.60718C136.044 1.61499 134.427 0 132.432 0Z" fill="#68D391"/>
<path opacity="0.1" d="M176.181 12.6227H141.6C139.605 12.6227 137.988 14.2377 137.988 16.2299V21.6382C137.988 23.6304 139.605 25.2454 141.6 25.2454H176.181C178.176 25.2454 179.793 23.6304 179.793 21.6382V16.2299C179.793 14.2377 178.176 12.6227 176.181 12.6227Z" fill="#68D391"/>
<path opacity="0.1" d="M219.93 25.2454H185.349C183.354 25.2454 181.737 26.8604 181.737 28.8526V34.2609C181.737 36.2531 183.354 37.8681 185.349 37.8681H219.93C221.925 37.8681 223.542 36.2531 223.542 34.2609V28.8526C223.542 26.8604 221.925 25.2454 219.93 25.2454Z" fill="#68D391"/>
<path opacity="0.1" d="M268.54 18.934H233.959C231.964 18.934 230.347 20.549 230.347 22.5412V27.9496C230.347 29.9417 231.964 31.5567 233.959 31.5567H268.54C270.534 31.5567 272.151 29.9417 272.151 27.9496V22.5412C272.151 20.549 270.534 18.934 268.54 18.934Z" fill="#68D391"/>
<path opacity="0.1" d="M312.288 31.5567H277.707C275.713 31.5567 274.096 33.1717 274.096 35.1639V40.5722C274.096 42.5644 275.713 44.1794 277.707 44.1794H312.288C314.283 44.1794 315.9 42.5644 315.9 40.5722V35.1639C315.9 33.1717 314.283 31.5567 312.288 31.5567Z" fill="#68D391"/>
<path opacity="0.1" d="M356.037 44.1794H321.456C319.461 44.1794 317.844 45.7944 317.844 47.7866V53.1949C317.844 55.1871 319.461 56.8021 321.456 56.8021H356.037C358.032 56.8021 359.649 55.1871 359.649 53.1949V47.7866C359.649 45.7944 358.032 44.1794 356.037 44.1794Z" fill="#68D391"/>
<path opacity="0.1" d="M268.54 0H233.959C231.964 0 230.347 1.61499 230.347 3.60718V9.01551C230.347 11.0077 231.964 12.6227 233.959 12.6227H268.54C270.534 12.6227 272.151 11.0077 272.151 9.01551V3.60718C272.151 1.61499 270.534 0 268.54 0Z" fill="#68D391"/>
<path opacity="0.1" d="M312.288 12.6227H277.707C275.713 12.6227 274.096 14.2377 274.096 16.2299V21.6382C274.096 23.6304 275.713 25.2454 277.707 25.2454H312.288C314.283 25.2454 315.9 23.6304 315.9 21.6382V16.2299C315.9 14.2377 314.283 12.6227 312.288 12.6227Z" fill="#68D391"/>
<path opacity="0.1" d="M356.037 25.2454H321.456C319.461 25.2454 317.844 26.8604 317.844 28.8526V34.2609C317.844 36.2531 319.461 37.8681 321.456 37.8681H356.037C358.032 37.8681 359.649 36.2531 359.649 34.2609V28.8526C359.649 26.8604 358.032 25.2454 356.037 25.2454Z" fill="#68D391"/>
<path opacity="0.1" d="M132.432 287.894H97.8513C95.8566 287.894 94.2396 289.509 94.2396 291.502V296.91C94.2396 298.902 95.8566 300.517 97.8513 300.517H132.432C134.427 300.517 136.044 298.902 136.044 296.91V291.502C136.044 289.509 134.427 287.894 132.432 287.894Z" fill="#68D391"/>
<path opacity="0.1" d="M176.181 300.517H141.6C139.605 300.517 137.988 302.132 137.988 304.124V309.533C137.988 311.525 139.605 313.14 141.6 313.14H176.181C178.176 313.14 179.793 311.525 179.793 309.533V304.124C179.793 302.132 178.176 300.517 176.181 300.517Z" fill="#68D391"/>
<path opacity="0.1" d="M219.93 313.14H185.349C183.354 313.14 181.737 314.755 181.737 316.747V322.155C181.737 324.148 183.354 325.763 185.349 325.763H219.93C221.925 325.763 223.542 324.148 223.542 322.155V316.747C223.542 314.755 221.925 313.14 219.93 313.14Z" fill="#68D391"/>
<path opacity="0.1" d="M132.432 268.96H97.8513C95.8566 268.96 94.2396 270.575 94.2396 272.568V277.976C94.2396 279.968 95.8566 281.583 97.8513 281.583H132.432C134.427 281.583 136.044 279.968 136.044 277.976V272.568C136.044 270.575 134.427 268.96 132.432 268.96Z" fill="#68D391"/>
<path opacity="0.1" d="M176.181 281.583H141.6C139.605 281.583 137.988 283.198 137.988 285.19V290.599C137.988 292.591 139.605 294.206 141.6 294.206H176.181C178.176 294.206 179.793 292.591 179.793 290.599V285.19C179.793 283.198 178.176 281.583 176.181 281.583Z" fill="#68D391"/>
<path opacity="0.1" d="M219.93 294.206H185.349C183.354 294.206 181.737 295.821 181.737 297.813V303.221C181.737 305.214 183.354 306.828 185.349 306.828H219.93C221.925 306.828 223.542 305.214 223.542 303.221V297.813C223.542 295.821 221.925 294.206 219.93 294.206Z" fill="#68D391"/>
<path opacity="0.1" d="M268.54 287.894H233.959C231.964 287.894 230.347 289.509 230.347 291.502V296.91C230.347 298.902 231.964 300.517 233.959 300.517H268.54C270.534 300.517 272.151 298.902 272.151 296.91V291.502C272.151 289.509 270.534 287.894 268.54 287.894Z" fill="#68D391"/>
<path opacity="0.1" d="M312.288 300.517H277.707C275.713 300.517 274.096 302.132 274.096 304.124V309.533C274.096 311.525 275.713 313.14 277.707 313.14H312.288C314.283 313.14 315.9 311.525 315.9 309.533V304.124C315.9 302.132 314.283 300.517 312.288 300.517Z" fill="#68D391"/>
<path opacity="0.1" d="M356.037 313.14H321.456C319.461 313.14 317.844 314.755 317.844 316.747V322.155C317.844 324.148 319.461 325.763 321.456 325.763H356.037C358.032 325.763 359.649 324.148 359.649 322.155V316.747C359.649 314.755 358.032 313.14 356.037 313.14Z" fill="#68D391"/>
<path opacity="0.1" d="M268.54 268.96H233.959C231.964 268.96 230.347 270.575 230.347 272.568V277.976C230.347 279.968 231.964 281.583 233.959 281.583H268.54C270.534 281.583 272.151 279.968 272.151 277.976V272.568C272.151 270.575 270.534 268.96 268.54 268.96Z" fill="#68D391"/>
<path opacity="0.1" d="M312.288 281.583H277.707C275.713 281.583 274.096 283.198 274.096 285.19V290.599C274.096 292.591 275.713 294.206 277.707 294.206H312.288C314.283 294.206 315.9 292.591 315.9 290.599V285.19C315.9 283.198 314.283 281.583 312.288 281.583Z" fill="#68D391"/>
<path opacity="0.1" d="M356.037 294.206H321.456C319.461 294.206 317.844 295.821 317.844 297.813V303.221C317.844 305.214 319.461 306.828 321.456 306.828H356.037C358.032 306.828 359.649 305.214 359.649 303.221V297.813C359.649 295.821 358.032 294.206 356.037 294.206Z" fill="#68D391"/>
<path opacity="0.1" d="M132.432 243.715H97.8513C95.8566 243.715 94.2396 245.33 94.2396 247.322V252.731C94.2396 254.723 95.8566 256.338 97.8513 256.338H132.432C134.427 256.338 136.044 254.723 136.044 252.731V247.322C136.044 245.33 134.427 243.715 132.432 243.715Z" fill="#68D391"/>
<path opacity="0.1" d="M176.181 256.338H141.6C139.605 256.338 137.988 257.953 137.988 259.945V265.353C137.988 267.345 139.605 268.96 141.6 268.96H176.181C178.176 268.96 179.793 267.345 179.793 265.353V259.945C179.793 257.953 178.176 256.338 176.181 256.338Z" fill="#68D391"/>
<path opacity="0.1" d="M219.93 268.96H185.349C183.354 268.96 181.737 270.575 181.737 272.568V277.976C181.737 279.968 183.354 281.583 185.349 281.583H219.93C221.925 281.583 223.542 279.968 223.542 277.976V272.568C223.542 270.575 221.925 268.96 219.93 268.96Z" fill="#68D391"/>
<path opacity="0.1" d="M132.432 224.781H97.8513C95.8566 224.781 94.2396 226.396 94.2396 228.388V233.797C94.2396 235.789 95.8566 237.404 97.8513 237.404H132.432C134.427 237.404 136.044 235.789 136.044 233.797V228.388C136.044 226.396 134.427 224.781 132.432 224.781Z" fill="#68D391"/>
<path opacity="0.1" d="M176.181 237.404H141.6C139.605 237.404 137.988 239.019 137.988 241.011V246.419C137.988 248.411 139.605 250.026 141.6 250.026H176.181C178.176 250.026 179.793 248.411 179.793 246.419V241.011C179.793 239.019 178.176 237.404 176.181 237.404Z" fill="#68D391"/>
<path opacity="0.1" d="M219.93 250.026H185.349C183.354 250.026 181.737 251.641 181.737 253.634V259.042C181.737 261.034 183.354 262.649 185.349 262.649H219.93C221.925 262.649 223.542 261.034 223.542 259.042V253.634C223.542 251.641 221.925 250.026 219.93 250.026Z" fill="#68D391"/>
<path opacity="0.1" d="M268.54 243.715H233.959C231.964 243.715 230.347 245.33 230.347 247.322V252.731C230.347 254.723 231.964 256.338 233.959 256.338H268.54C270.534 256.338 272.151 254.723 272.151 252.731V247.322C272.151 245.33 270.534 243.715 268.54 243.715Z" fill="#68D391"/>
<path opacity="0.1" d="M312.288 256.338H277.707C275.713 256.338 274.096 257.953 274.096 259.945V265.353C274.096 267.345 275.713 268.96 277.707 268.96H312.288C314.283 268.96 315.9 267.345 315.9 265.353V259.945C315.9 257.953 314.283 256.338 312.288 256.338Z" fill="#68D391"/>
<path opacity="0.1" d="M356.037 268.96H321.456C319.461 268.96 317.844 270.575 317.844 272.568V277.976C317.844 279.968 319.461 281.583 321.456 281.583H356.037C358.032 281.583 359.649 279.968 359.649 277.976V272.568C359.649 270.575 358.032 268.96 356.037 268.96Z" fill="#68D391"/>
<path opacity="0.1" d="M268.54 224.781H233.959C231.964 224.781 230.347 226.396 230.347 228.388V233.797C230.347 235.789 231.964 237.404 233.959 237.404H268.54C270.534 237.404 272.151 235.789 272.151 233.797V228.388C272.151 226.396 270.534 224.781 268.54 224.781Z" fill="#68D391"/>
<path opacity="0.1" d="M312.288 237.404H277.707C275.713 237.404 274.096 239.019 274.096 241.011V246.419C274.096 248.411 275.713 250.026 277.707 250.026H312.288C314.283 250.026 315.9 248.411 315.9 246.419V241.011C315.9 239.019 314.283 237.404 312.288 237.404Z" fill="#68D391"/>
<path opacity="0.1" d="M356.037 250.026H321.456C319.461 250.026 317.844 251.641 317.844 253.634V259.042C317.844 261.034 319.461 262.649 321.456 262.649H356.037C358.032 262.649 359.649 261.034 359.649 259.042V253.634C359.649 251.641 358.032 250.026 356.037 250.026Z" fill="#68D391"/>
<path opacity="0.1" d="M234.479 368C352.2 368 447.632 360.175 447.632 350.522C447.632 340.87 352.2 333.045 234.479 333.045C116.757 333.045 21.3251 340.87 21.3251 350.522C21.3251 360.175 116.757 368 234.479 368Z" fill="#68D391"/>
<path d="M41.1481 90.6892C61.2482 99.3891 72.7979 117.391 72.7979 117.391C72.7979 117.391 51.7548 121.275 31.6498 112.58C11.5448 103.885 0 85.878 0 85.878C0 85.878 21.0431 81.9892 41.1481 90.6892Z" fill="#68D391"/>
<path d="M102.834 57.2876C109.051 47.0923 119.638 42.2375 119.638 42.2375C119.638 42.2375 120.124 53.86 113.927 64.0262C107.729 74.1923 97.1173 79.0423 97.1173 79.0423C97.1173 79.0423 96.6118 67.4246 102.834 57.2876Z" fill="#68D391"/>
<path d="M57.131 68.1965C61.5788 84.0526 73.8382 94.4906 73.8382 94.4906C73.8382 94.4906 78.8887 79.2122 74.4409 63.3514C69.9932 47.4905 57.7289 37.0573 57.7289 37.0573C57.7289 37.0573 52.6784 52.3356 57.131 68.1965Z" fill="#46455B"/>
<path d="M408.642 67.4828H61.2871C59.3515 67.4828 57.7823 69.05 57.7823 70.9832V241.186C57.7823 243.119 59.3515 244.686 61.2871 244.686H408.642C410.578 244.686 412.147 243.119 412.147 241.186V70.9832C412.147 69.05 410.578 67.4828 408.642 67.4828Z" fill="#3F3D56"/>
<path opacity="0.1" d="M57.7823 234.005H412.147V241.186C412.147 242.114 411.778 243.004 411.121 243.661C410.463 244.317 409.572 244.686 408.642 244.686H61.2871C60.3576 244.686 59.4661 244.317 58.8089 243.661C58.1516 243.004 57.7823 242.114 57.7823 241.186V234.005Z" fill="black"/>
<path d="M117.329 220.897H93.5105C92.8394 220.897 92.2953 221.44 92.2953 222.111V232.792C92.2953 233.462 92.8394 234.005 93.5105 234.005H117.329C118 234.005 118.545 233.462 118.545 232.792V222.111C118.545 221.44 118 220.897 117.329 220.897Z" fill="#68D391"/>
<path d="M142.849 232.063H126.808C126.271 232.063 125.836 232.498 125.836 233.034C125.836 233.571 126.271 234.005 126.808 234.005H142.849C143.386 234.005 143.822 233.571 143.822 233.034C143.822 232.498 143.386 232.063 142.849 232.063Z" fill="#68D391"/>
<path d="M109.868 102.137C122.696 104.501 135.781 102.137 148.556 100.535L187.381 95.68C188.951 95.4809 191.235 94.544 192.159 96.4616C192.679 97.5346 192.329 99.8601 192.368 101.093C192.47 104.492 192.46 107.89 192.368 111.288C192.193 117.784 191.717 124.266 191.109 130.732C189.928 143.389 188.256 155.978 187.42 168.683C186.992 175.15 186.778 181.636 186.968 188.102C187.011 189.646 187.074 191.19 187.167 192.729C187.269 194.453 188.042 197.011 186.161 198.162C185.086 198.822 182.972 198.788 181.742 198.982C179.798 199.288 177.853 199.531 175.87 199.73C162.799 201.036 149.557 200.492 136.438 200.414L96.8208 200.21L87.1572 200.157C86.2822 200.157 83.1274 200.681 82.5879 199.642C82.3594 199.201 82.967 197.132 83.074 196.579C83.223 195.666 83.3851 194.755 83.5601 193.846C84.6878 187.462 86.0197 181.116 87.3614 174.776C90.2439 161.182 93.1945 147.52 94.3806 133.635C94.9688 126.669 94.5799 119.639 95.2993 112.687C95.6347 109.458 96.0333 102.254 100.335 101.967C103.981 101.724 107.734 101.967 111.389 101.967C111.583 101.967 111.768 101.89 111.905 101.754C112.041 101.617 112.118 101.432 112.118 101.239C112.118 101.046 112.041 100.86 111.905 100.724C111.768 100.587 111.583 100.511 111.389 100.511C107.938 100.511 104.482 100.418 101.03 100.486C98.736 100.53 97.1416 101.074 96.0479 103.181C93.2529 108.589 93.5397 115.803 93.4522 121.707C93.2431 135.84 91.0703 149.671 88.2412 163.493C86.8169 170.45 85.2809 177.383 83.8663 184.345C83.2004 187.67 82.5636 191.006 81.9803 194.351C81.708 195.943 80.3324 199.453 81.5428 200.914C82.7532 202.376 86.4767 201.589 88.144 201.599L99.7423 201.667L121.967 201.793C136.326 201.876 150.734 202.279 165.088 201.856C171.942 201.652 179.185 201.371 185.859 199.735C187.847 199.249 188.805 198.336 188.883 196.22C188.999 192.938 188.465 189.554 188.397 186.258C187.911 158.051 194.546 130.237 193.865 102.02C193.822 100.103 194.546 95.2673 192.446 94.107C191.503 93.5827 190.278 93.8691 189.286 93.9856C187.39 94.2041 185.5 94.4711 183.604 94.6945L158.983 97.7627C151.113 98.7337 143.248 99.7824 135.363 100.676C127.017 101.647 118.588 102.224 110.271 100.676C109.352 100.506 108.959 101.909 109.882 102.079L109.868 102.137Z" fill="#68D391"/>
<path d="M94.3904 119.299L191.522 114.541C192.461 114.493 192.465 113.036 191.522 113.085L94.3904 117.843C93.4571 117.886 93.4522 119.343 94.3904 119.299Z" fill="#68D391"/>
<path d="M124.314 107.293C124.043 107.58 123.846 107.93 123.74 108.311C123.634 108.692 123.623 109.093 123.708 109.479C123.793 109.865 123.971 110.225 124.227 110.526C124.482 110.828 124.808 111.063 125.175 111.211C126.482 111.808 128.019 111.308 129.316 110.983C131.261 110.497 133.205 110.065 135.203 109.711C139.551 108.942 143.956 108.533 148.371 108.487C150.384 108.463 152.382 108.555 154.394 108.643C155.852 108.701 157.423 108.817 158.657 107.914C160.067 106.885 160.524 104.875 159.143 103.623C157.199 101.851 153.009 102.88 150.763 103.064C142.614 103.74 134.518 104.947 126.526 106.676C125.612 106.87 125.996 108.278 126.915 108.079C132.188 106.943 137.501 106.031 142.854 105.341C145.486 105.018 148.122 104.744 150.763 104.521C152.007 104.419 153.252 104.327 154.496 104.254C154.982 104.225 155.498 104.171 155.993 104.186C157.534 104.22 157.714 103.943 156.791 105.802C155.969 107.448 156.232 107.259 154.807 107.205C154.205 107.205 153.602 107.138 152.999 107.108C151.764 107.057 150.53 107.029 149.295 107.026C146.667 107.026 144.045 107.152 141.43 107.405C139.213 107.618 137.002 107.919 134.809 108.308C133.439 108.55 132.077 108.832 130.721 109.143C130.123 109.283 129.521 109.429 128.923 109.58C128.636 109.657 128.344 109.725 128.057 109.798C126.995 110.167 126.089 109.681 125.34 108.342C125.992 107.667 124.966 106.633 124.31 107.312L124.314 107.293Z" fill="#68D391"/>
<path d="M141.921 128.014C134.887 127.742 127.289 129.64 122.657 135.296C119.031 139.719 116.965 147.307 120.805 152.288C124.932 157.628 133.983 156.686 139.442 154.41C145.217 151.982 151.536 146.977 153.271 140.714C155.434 132.893 148.41 126.979 141.095 126.892C140.156 126.892 140.156 128.348 141.095 128.348C145.265 128.397 149.358 130.184 151.303 134.063C153.339 138.151 151.585 142.442 148.872 145.714C144.526 150.924 137.731 154.851 130.809 154.74C126.653 154.677 122.059 153.254 120.771 148.875C119.711 145.326 120.518 141.447 122.365 138.301C126.361 131.504 134.493 129.203 141.95 129.494C142.888 129.528 142.888 128.072 141.95 128.038L141.921 128.014Z" fill="#68D391"/>
<path d="M134.936 138.801C134.636 138.69 134.313 138.657 133.996 138.704C133.68 138.751 133.381 138.878 133.127 139.071C132.872 139.265 132.671 139.52 132.542 139.812C132.413 140.105 132.36 140.425 132.389 140.743C132.534 142.636 134.625 143.17 136.195 143.059C137.551 142.942 139.136 142.442 138.659 140.748C138.572 140.448 138.42 140.17 138.216 139.934C138.011 139.698 137.758 139.509 137.473 139.379C137.038 139.206 136.566 139.148 136.102 139.209C135.922 139.209 134.275 139.811 134.975 139.087L133.827 138.937C133.955 139.062 134.052 139.215 134.113 139.383C134.173 139.551 134.195 139.73 134.177 139.908C134.18 140.035 134.215 140.159 134.279 140.268C134.344 140.378 134.436 140.468 134.546 140.531C134.656 140.594 134.781 140.628 134.908 140.628C135.035 140.629 135.16 140.596 135.271 140.534C135.438 140.465 135.621 140.443 135.799 140.471C135.978 140.499 136.145 140.577 136.282 140.695C136.419 140.813 136.52 140.967 136.574 141.139C136.628 141.311 136.633 141.495 136.588 141.67C136.549 141.838 136.571 142.015 136.649 142.169C136.728 142.323 136.858 142.444 137.017 142.511C137.176 142.579 137.354 142.588 137.52 142.537C137.685 142.486 137.827 142.379 137.92 142.233C138.406 141.36 138.995 139.622 138.265 138.709C137.779 138.092 136.841 138.277 136.258 138.636C135.898 138.89 135.563 139.178 135.257 139.495C134.668 140.015 134.284 140.258 134.503 139.262C134.868 137.451 136.598 136.009 138.178 135.286L137.109 134.466C136.548 136.57 135.545 138.531 134.168 140.219L135.412 140.733C135.377 140.067 135.548 139.405 135.903 138.84C136.258 138.274 136.779 137.832 137.395 137.573H136.681L137.06 138.194C136.919 139.112 138.324 139.505 138.465 138.578C138.65 137.379 137.891 135.82 136.486 136.408C134.809 137.107 133.939 139.024 133.973 140.733C133.973 141.316 134.8 141.767 135.223 141.253C136.768 139.377 137.897 137.194 138.533 134.849C138.567 134.71 138.559 134.564 138.511 134.429C138.464 134.294 138.377 134.176 138.264 134.089C138.15 134.002 138.013 133.95 137.87 133.939C137.727 133.929 137.584 133.96 137.459 134.029C136.002 134.686 134.772 135.756 133.92 137.107C133.327 138.078 132.583 139.592 133.186 140.709C133.285 140.888 133.418 141.045 133.578 141.172C133.738 141.299 133.922 141.393 134.118 141.448C134.315 141.504 134.521 141.52 134.724 141.495C134.926 141.471 135.122 141.407 135.3 141.306C135.75 141.04 136.16 140.713 136.52 140.335C136.7 140.175 136.9 139.898 137.138 139.85C137.352 139.704 137.342 139.787 137.104 140.107C137.101 140.61 136.954 141.102 136.681 141.525L138.013 142.083C138.133 141.63 138.119 141.151 137.972 140.706C137.826 140.26 137.554 139.867 137.188 139.572C136.823 139.278 136.38 139.096 135.913 139.048C135.446 139 134.975 139.088 134.557 139.301L135.655 139.932C135.678 139.314 135.484 138.708 135.106 138.218C135.048 138.124 134.971 138.044 134.878 137.983C134.785 137.923 134.68 137.884 134.571 137.87C134.461 137.855 134.35 137.866 134.245 137.9C134.139 137.934 134.043 137.992 133.964 138.068C133.225 138.84 133.084 140.175 134.012 140.889C134.707 141.418 135.048 140.889 135.811 140.767C138.402 140.432 136.89 141.597 135.976 141.636C135.567 141.68 135.154 141.65 134.756 141.549C133.742 141.206 133.678 140.764 134.566 140.224C135.436 140.578 135.811 139.17 134.955 138.82L134.936 138.801Z" fill="#68D391"/>
<path d="M133.764 141.462C134.362 143.403 131.893 144.044 130.721 144.714C129.899 145.175 129.182 145.801 128.616 146.554C127.391 148.195 126.935 150.283 126.531 152.249C126.346 153.167 127.751 153.555 127.941 152.637C128.163 151.193 128.577 149.784 129.171 148.448C130.046 146.71 131.3 146.127 132.933 145.234C134.566 144.34 135.748 142.957 135.169 141.073C134.897 140.18 133.487 140.563 133.764 141.462Z" fill="#68D391"/>
<path d="M136.195 140.486C135.847 140.534 135.53 140.71 135.305 140.979C135.08 141.248 134.964 141.592 134.979 141.942C134.979 142.52 135.363 142.889 135.626 143.35C136.249 144.294 136.724 145.327 137.036 146.414C137.269 147.457 137.497 149.326 136.953 150.297C135.947 152.099 134.129 151.754 132.578 151.754C131.12 151.754 129.992 152.239 130.041 150.21C130.07 149.069 130.867 147.914 131.499 147.016L130.167 146.841C130.448 148.323 130.596 149.828 130.609 151.336C130.609 152.011 131.645 152.385 131.966 151.7C132.747 150.059 133.367 148.345 133.818 146.583L132.384 146.389L132.636 150.079C132.641 150.236 132.696 150.388 132.793 150.512C132.89 150.636 133.025 150.725 133.177 150.767C133.329 150.808 133.491 150.799 133.638 150.742C133.785 150.685 133.909 150.582 133.993 150.448C134.163 150.26 134.288 150.036 134.357 149.793C134.406 149.564 133.959 148.025 133.779 148.574L135.208 148.768L135.31 145.263L133.852 145.457C134.16 146.446 134.253 147.488 134.124 148.516C134.032 149.326 135.398 149.511 135.582 148.71L136.496 144.001L135.164 144.171C135.481 144.822 135.568 145.561 135.412 146.268C135.305 147.2 136.763 147.19 136.87 146.268C136.994 145.301 136.839 144.319 136.423 143.437C136.349 143.316 136.242 143.218 136.113 143.157C135.985 143.095 135.841 143.073 135.7 143.091C135.559 143.11 135.426 143.169 135.318 143.261C135.21 143.354 135.131 143.476 135.091 143.612L134.173 148.321L135.607 148.516C135.752 147.358 135.641 146.183 135.281 145.074C135.232 144.906 135.125 144.762 134.979 144.667C134.833 144.572 134.658 144.532 134.485 144.555C134.312 144.578 134.153 144.662 134.037 144.792C133.921 144.922 133.855 145.089 133.852 145.263L133.75 148.768C133.75 149.618 134.931 149.739 135.184 148.962L135.261 148.724C135.295 148.6 135.296 148.47 135.263 148.346C135.231 148.221 135.167 148.107 135.077 148.016C133.565 146.375 133.259 148.987 132.734 149.71L134.095 150.079L133.842 146.389C133.789 145.603 132.622 145.36 132.408 146.195C131.997 147.837 131.427 149.435 130.707 150.967L132.068 151.336C132.052 149.697 131.889 148.063 131.582 146.452C131.455 145.782 130.575 145.812 130.25 146.278C129.278 147.676 127.596 150.73 128.894 152.404C130.026 153.861 133.589 153.298 135.111 153.205C137.512 153.07 138.382 151.55 138.645 149.288C138.77 148.204 138.709 147.107 138.465 146.045C138.334 145.472 137.007 141.84 136.608 141.913C137.531 141.743 137.138 140.335 136.219 140.505L136.195 140.486Z" fill="#68D391"/>
<path d="M133.37 143.758L129.389 149.006L130.648 149.739L133.565 145.525L132.233 144.962L130.78 150.501C130.74 150.67 130.762 150.846 130.84 151C130.919 151.154 131.049 151.275 131.208 151.342C131.368 151.41 131.545 151.419 131.711 151.368C131.876 151.317 132.018 151.21 132.111 151.064C132.773 149.97 133.515 148.926 134.333 147.943L133.118 147.234C132.791 148.488 132.162 149.643 131.285 150.598L132.505 151.307C132.58 150.636 132.759 149.981 133.035 149.365C133.409 148.525 132.223 147.783 131.776 148.627C131.365 149.397 130.895 150.134 130.371 150.831L131.703 151.006L132 149.623L130.668 149.448L130.882 150.662C130.917 150.784 130.983 150.895 131.074 150.983C131.165 151.072 131.277 151.136 131.4 151.168C131.523 151.201 131.653 151.2 131.776 151.168C131.899 151.135 132.011 151.071 132.102 150.982C133.335 149.708 134.323 148.219 135.018 146.588H133.764C134.094 147.195 134.325 147.851 134.45 148.53C134.625 149.404 135.786 149.079 135.879 148.336C136.087 146.71 136.195 145.072 136.2 143.433H134.741V146.486C134.741 147.278 136.039 147.511 136.175 146.681C136.271 145.944 136.514 145.234 136.89 144.593H135.611C135.919 145.089 136.087 145.66 136.097 146.244C136.097 146.437 136.174 146.622 136.311 146.759C136.448 146.895 136.633 146.972 136.827 146.972C137.02 146.972 137.205 146.895 137.342 146.759C137.479 146.622 137.556 146.437 137.556 146.244L137.74 145.273H136.336C136.477 146.132 137.011 150.972 135.111 150.404C134.79 150.327 134.697 150.346 134.834 150.458L135.266 149.535L136.282 147.384L134.921 147.016C135.009 148.016 135.101 149.443 134.498 150.297C134.012 150.992 132.515 151.268 131.752 150.861C131.248 150.502 130.817 150.05 130.483 149.53L129.487 150.501C130.293 151.089 131.601 152.531 132.641 152.613C133.434 152.676 134.1 152.021 134.62 151.497C135.418 150.673 136.04 149.696 136.448 148.626C136.857 147.555 137.043 146.413 136.997 145.268C136.997 145.075 136.92 144.889 136.783 144.753C136.646 144.616 136.461 144.54 136.268 144.54C136.074 144.54 135.889 144.616 135.752 144.753C135.615 144.889 135.538 145.075 135.538 145.268V146.928C135.538 147.121 135.615 147.306 135.752 147.443C135.889 147.58 136.074 147.656 136.268 147.656C136.461 147.656 136.646 147.58 136.783 147.443C136.92 147.306 136.997 147.121 136.997 146.928V142.855C136.997 142.662 136.92 142.477 136.783 142.34C136.646 142.203 136.461 142.127 136.268 142.127C136.074 142.127 135.889 142.203 135.752 142.34C135.615 142.477 135.538 142.662 135.538 142.855C135.536 143.831 135.451 144.806 135.286 145.768L136.72 145.962C136.605 144.802 136.552 143.637 136.559 142.471C136.557 142.297 136.492 142.129 136.376 141.998C136.26 141.868 136.102 141.783 135.928 141.759C135.755 141.736 135.58 141.775 135.433 141.87C135.286 141.965 135.179 142.11 135.13 142.277C134.911 143.204 134.644 144.117 134.386 145.025L135.718 144.85L135.616 144.462C135.548 143.535 134.09 143.53 134.158 144.462C134.174 144.855 134.277 145.24 134.459 145.588C134.741 146.18 135.621 145.972 135.791 145.413C136.068 144.501 136.316 143.588 136.535 142.666L135.101 142.471C135.094 143.637 135.147 144.802 135.261 145.962C135.334 146.71 136.54 147.03 136.69 146.156C136.885 145.06 136.987 143.949 136.997 142.835H135.538V146.909H136.997V145.248H135.538C135.624 147.08 134.987 148.872 133.764 150.239C133.575 150.454 133.37 150.655 133.152 150.841C132.807 151.171 132.491 151.123 132.214 150.691C131.523 150.404 130.809 149.666 130.206 149.234C129.603 148.802 128.777 149.657 129.205 150.229C130.323 151.715 131.99 153.371 134.066 152.657C136.248 151.885 136.545 148.933 136.379 146.991C136.326 146.346 135.359 145.909 135.023 146.627C134.537 147.652 134.051 148.671 133.565 149.7C133.395 150.06 133.079 150.555 133.127 150.982C133.288 152.074 134.615 151.895 135.431 151.832C138.596 151.594 138.095 147.113 137.731 144.86C137.609 144.112 136.52 144.229 136.326 144.86C136.171 145.303 136.091 145.769 136.088 146.239H137.546C137.493 145.404 137.259 144.591 136.861 143.855C136.795 143.746 136.703 143.657 136.593 143.594C136.483 143.532 136.358 143.499 136.231 143.499C136.104 143.499 135.98 143.532 135.869 143.594C135.759 143.657 135.667 143.746 135.602 143.855C135.167 144.604 134.874 145.427 134.736 146.282L136.195 146.477V143.423C136.195 143.23 136.118 143.045 135.981 142.908C135.844 142.771 135.659 142.695 135.466 142.695C135.272 142.695 135.087 142.771 134.95 142.908C134.813 143.045 134.736 143.23 134.736 143.423C134.731 145.062 134.624 146.7 134.416 148.326L135.85 148.132C135.685 147.338 135.405 146.573 135.018 145.86C134.953 145.751 134.861 145.662 134.751 145.599C134.64 145.537 134.516 145.504 134.389 145.504C134.262 145.504 134.137 145.537 134.027 145.599C133.917 145.662 133.825 145.751 133.759 145.86C133.125 147.381 132.214 148.77 131.071 149.958L132.291 150.278L132.077 149.064C131.966 148.419 131.052 148.399 130.746 148.89C130.504 149.255 130.34 149.665 130.264 150.096C130.188 150.527 130.201 150.969 130.303 151.395C130.425 152.084 131.3 152.011 131.635 151.569C132.159 150.873 132.629 150.138 133.04 149.37L131.781 148.632C131.445 149.358 131.216 150.128 131.1 150.919C131.013 151.56 131.776 152.23 132.32 151.628C133.365 150.486 134.122 149.111 134.527 147.618C134.707 146.957 133.793 146.331 133.307 146.909C132.413 147.979 131.601 149.115 130.877 150.307L132.209 150.87L133.691 145.35C133.73 145.182 133.709 145.006 133.63 144.852C133.552 144.698 133.422 144.577 133.262 144.509C133.103 144.442 132.925 144.433 132.76 144.484C132.595 144.535 132.453 144.642 132.359 144.787L129.443 149.006C128.898 149.788 130.148 150.462 130.702 149.739L134.668 144.496C135.232 143.748 133.968 143.039 133.409 143.758H133.37Z" fill="#68D391"/>
<path d="M195.387 161.279C201.22 157.716 205.857 152.4 211.01 147.953C216.6 143.132 222.467 138.641 228.509 134.388C240.244 126.135 252.566 118.75 264.879 111.386C265.039 111.285 265.153 111.126 265.198 110.943C265.242 110.76 265.214 110.566 265.119 110.403C265.024 110.24 264.869 110.121 264.688 110.069C264.506 110.018 264.312 110.039 264.145 110.128C251.832 117.493 239.505 124.863 227.771 133.131C222.234 137.014 216.828 141.131 211.647 145.501C206.008 150.259 200.987 156.182 194.633 160.022C193.831 160.507 194.565 161.77 195.367 161.279H195.387Z" fill="#68D391"/>
<path d="M283.706 88.7715C277.387 89.4123 270.581 91.0193 266.692 96.5393C263.333 101.287 263.406 109.57 266.561 114.444C270.144 119.984 277.464 120.183 283.152 118.391C288.839 116.6 294.726 113.459 294.672 106.671C294.643 103.03 293.326 99.2386 291.872 95.9373C290.618 93.0875 288.397 90.5969 285.033 90.9125C284.104 90.9999 284.095 92.4564 285.033 92.369C289.539 91.9515 290.988 97.2967 292.057 100.671C293.029 103.822 293.928 107.55 292.402 110.682C290.876 113.813 287.196 115.41 284.051 116.556C280.648 117.789 276.91 118.542 273.357 117.527C266.318 115.561 264.374 106.652 266.401 100.331C268.734 93.0487 276.998 90.9077 283.73 90.228C284.654 90.1357 284.663 88.6793 283.73 88.7715H283.706Z" fill="#68D391"/>
<path d="M293.428 145.088C287.108 145.729 280.303 147.336 276.414 152.856C273.055 157.604 273.128 165.886 276.283 170.761C279.866 176.3 287.186 176.499 292.874 174.708C298.561 172.916 304.448 169.775 304.394 162.988C304.365 159.347 303.048 155.555 301.594 152.254C300.34 149.404 298.119 146.914 294.755 147.229C293.826 147.317 293.817 148.773 294.755 148.686C299.261 148.268 300.709 153.613 301.779 156.987C302.751 160.138 303.65 163.867 302.124 166.998C300.598 170.13 296.918 171.727 293.773 172.873C290.37 174.106 286.632 174.858 283.079 173.844C276.04 171.877 274.096 162.969 276.123 156.648C278.456 149.365 286.72 147.224 293.452 146.545C294.376 146.452 294.385 144.996 293.452 145.088H293.428Z" fill="#68D391"/>
<path d="M274.173 102.953L278.777 108.196C278.868 108.284 278.98 108.347 279.103 108.378C279.225 108.41 279.354 108.409 279.476 108.376C279.599 108.344 279.711 108.28 279.801 108.191C279.891 108.103 279.957 107.992 279.992 107.871C280.964 105.317 280.779 102.671 281.008 99.9863C281.26 97.2114 281.957 94.4951 283.074 91.9417C285.317 86.7627 289.119 82.4101 293.953 79.489C294.755 79.0035 294.021 77.7412 293.219 78.2315C288.453 81.0979 284.629 85.293 282.218 90.3008C281.038 92.7377 280.22 95.3331 279.788 98.0055C279.302 101.156 279.744 104.458 278.577 107.482L279.798 107.157L275.219 101.923C274.596 101.219 273.571 102.254 274.188 102.953H274.173Z" fill="#68D391"/>
<path d="M197.735 166.954C222.808 166.191 247.887 166.029 272.973 166.469C273.911 166.469 273.911 165.013 272.973 165.013C247.893 164.566 222.814 164.728 197.735 165.498C196.796 165.527 196.792 166.984 197.735 166.954Z" fill="#68D391"/>
<path d="M278.213 152.594C286.784 155.954 295.029 160.091 302.843 164.954C303.641 165.44 304.375 164.192 303.577 163.697C295.66 158.774 287.306 154.587 278.621 151.191C277.751 150.846 277.372 152.254 278.237 152.594H278.213Z" fill="#68D391"/>
<path d="M293.778 145.996C285.086 156.116 280.051 168.859 279.482 182.179C279.443 183.116 280.901 183.116 280.94 182.179C281.492 169.241 286.376 156.862 294.808 147.025C295.416 146.316 294.39 145.282 293.778 145.996Z" fill="#68D391"/>
<path d="M99.3631 161.668L153.694 160.959L159.941 160.876C161.063 160.876 162.186 160.837 163.309 160.833C164.889 160.833 165.954 162.143 165.924 163.745C165.851 167.144 163.713 167.023 160.913 167.144L154.161 167.45L126.667 168.659C121.743 168.877 116.814 169.144 111.89 169.314C107.447 169.45 98.9985 168.003 100.972 161.546C101.244 160.648 99.8395 160.265 99.5624 161.158C98.5902 164.333 100.311 167.557 103.082 169.222C107.014 171.581 112.196 170.78 116.537 170.586L150.291 169.057L158.487 168.693C160.587 168.595 163.508 169.023 165.438 168.047C167.703 166.906 168.102 162.376 166.673 160.468C165.939 159.497 164.908 159.41 163.756 159.366C160.733 159.25 157.656 159.449 154.627 159.488L137.799 159.711L99.3436 160.197C98.4055 160.197 98.4055 161.653 99.3436 161.653L99.3631 161.668Z" fill="#68D391"/>
<path d="M318.875 340.084C317.65 340.851 316.25 341.284 314.986 341.958C313.722 342.633 312.492 343.648 312.133 345.046C311.999 345.48 312.021 345.947 312.196 346.367C312.51 346.873 312.992 347.254 313.557 347.444C316.125 348.583 318.898 349.187 321.707 349.219C324.516 349.25 327.302 348.709 329.895 347.629C330.807 347.191 331.749 346.818 332.714 346.512C333.903 346.27 335.113 346.147 336.326 346.143C337.601 346.069 338.869 345.907 340.122 345.658C340.752 345.588 341.349 345.34 341.843 344.944C342.294 344.425 342.565 343.775 342.616 343.09C343.191 339.307 342.324 335.447 340.185 332.273C339.916 331.828 339.555 331.446 339.126 331.151C338.603 330.881 338.027 330.727 337.439 330.7C335.008 330.404 332.461 329.86 330.007 329.802C328.247 329.763 327.362 330.598 326.118 331.807C323.546 334.375 322.044 338.108 318.875 340.084Z" fill="#323444"/>
<path d="M354.695 339.725C354.695 342.104 354.982 344.624 356.426 346.522C357.086 347.343 357.886 348.041 358.788 348.585C361.841 350.527 365.885 351.241 369.103 349.595C369.623 349.362 370.068 348.989 370.387 348.517C370.873 347.673 370.615 346.619 370.343 345.687L365.686 329.569C362.677 330.03 358.254 330.355 355.58 331.88C353.641 332.982 354.695 337.599 354.695 339.725Z" fill="#323444"/>
<path d="M316.143 240.477C315.861 241.365 314.84 241.778 314.281 242.526C313.625 243.404 313.693 244.623 313.931 245.691C314.225 247.266 314.966 248.723 316.065 249.89C316.623 250.468 317.311 250.905 318.072 251.163C318.833 251.422 319.645 251.495 320.44 251.376C322.005 251.08 323.357 249.696 323.41 248.109C323.382 247.387 323.227 246.675 322.953 246.006L319.638 236.433C319.624 236.365 319.597 236.301 319.556 236.245C319.516 236.189 319.464 236.142 319.405 236.107C319.28 236.08 319.149 236.102 319.04 236.171C318.258 236.54 316.687 236.928 316.23 237.739C315.774 238.549 316.474 239.598 316.143 240.477Z" fill="#FBB3B2"/>
<path d="M314.592 239.996C315.803 239.807 316.862 239.098 317.995 238.632C319.128 238.166 320.547 237.986 321.5 238.763C321.772 238.986 322.035 239.292 322.389 239.287C321.907 236.913 321.177 234.596 320.212 232.374C320.178 232.268 320.111 232.174 320.022 232.107C319.89 232.053 319.741 232.053 319.609 232.107L316.338 232.961C315.127 233.277 314.986 233.18 315.079 234.369C315.103 234.899 315.375 239.996 314.592 239.996Z" fill="#323444"/>
<path d="M314.233 170.863C313.747 171.61 313.747 172.542 313.747 173.421C313.747 177.718 313.79 182.039 314.427 186.292C314.578 187.311 314.767 188.331 314.865 189.36C314.975 190.793 314.997 192.231 314.933 193.666L314.447 212.357C314.388 214.644 314.272 217.101 312.857 218.897C312.428 219.499 312.227 220.234 312.288 220.97C312.658 225.66 313.435 230.311 314.208 234.947C315.453 234.386 316.812 234.128 318.176 234.193C319.54 234.258 320.869 234.645 322.054 235.321C324.506 227.619 325.863 219.611 326.084 211.532C326.196 207.556 326.025 203.555 326.638 199.628C327.664 193.016 327.245 186.233 326.492 179.582C326.254 177.475 325.748 175.305 324.397 173.674C323.118 172.246 321.414 171.266 319.536 170.877C317.737 170.406 316.128 170.892 314.233 170.863Z" fill="#5B5583"/>
<path opacity="0.1" d="M314.233 170.863C313.747 171.61 313.747 172.542 313.747 173.421C313.747 177.718 313.79 182.039 314.427 186.292C314.578 187.311 314.767 188.331 314.865 189.36C314.975 190.793 314.997 192.231 314.933 193.666L314.447 212.357C314.388 214.644 314.272 217.101 312.857 218.897C312.428 219.499 312.227 220.234 312.288 220.97C312.658 225.66 313.435 230.311 314.208 234.947C315.453 234.386 316.812 234.128 318.176 234.193C319.54 234.258 320.869 234.645 322.054 235.321C324.506 227.619 325.863 219.611 326.084 211.532C326.196 207.556 326.025 203.555 326.638 199.628C327.664 193.016 327.245 186.233 326.492 179.582C326.254 177.475 325.748 175.305 324.397 173.674C323.118 172.246 321.414 171.266 319.536 170.877C317.737 170.406 316.128 170.892 314.233 170.863Z" fill="black"/>
<path d="M320.173 225.067C316.913 241.753 318.693 259.031 325.287 274.704C325.856 275.864 326.256 277.1 326.473 278.374C326.74 280.753 325.641 283.04 325.014 285.341C323.556 290.574 324.397 296.148 325.33 301.503C325.719 303.736 326.119 305.968 326.531 308.198C326.934 310.373 327.323 312.737 326.312 314.708C327.182 318.33 327.698 321.917 328.568 325.539C328.66 325.826 328.688 326.129 328.65 326.428C328.475 326.902 328.166 327.315 327.761 327.617C327.112 328.274 326.646 329.088 326.408 329.979C326.171 330.87 326.169 331.808 326.405 332.7C328.626 331.108 331.723 331.666 334.26 332.7C336.797 333.734 339.296 335.128 342.037 335.128C341.639 331.914 341.255 328.54 342.441 325.525C343.131 323.777 344.346 322.126 344.312 320.257C344.278 318.582 343.253 317.087 343.005 315.431C342.913 314.401 342.952 313.364 343.121 312.344C343.773 306.401 343.034 300.401 342.295 294.468C342.212 293.298 341.936 292.15 341.478 291.07C341.133 290.37 340.618 289.7 340.628 288.919C340.628 288.011 341.362 287.273 341.634 286.409C342.12 284.816 341.226 282.651 342.572 281.666C346.121 279.063 344.76 272.849 344.682 268.456C344.62 264.665 344.458 260.879 344.196 257.095C346.43 263.369 347.343 270.037 346.879 276.68C346.723 278.855 346.437 281.141 347.287 283.151C347.939 284.695 349.232 285.967 349.582 287.603C349.8 288.613 349.645 289.657 349.694 290.686C349.742 291.715 350.092 292.837 350.982 293.356C351.05 298.036 351.468 303.042 351.541 307.722C351.493 310.114 351.689 312.505 352.124 314.858C352.342 315.607 352.463 316.38 352.484 317.16C352.374 318.137 352.115 319.091 351.716 319.99C350.868 322.495 350.647 325.17 351.071 327.78C351.494 330.39 352.55 332.858 354.146 334.967C355.293 332.933 357.685 331.855 360.018 331.686C362.352 331.516 364.656 332.103 366.916 332.695C366.57 329.859 367.135 326.986 368.53 324.491C368.904 323.928 369.19 323.313 369.38 322.665C369.643 321.432 369.03 320.204 368.7 318.985C368.16 317.043 368.35 314.951 368.476 312.921C368.9 306.125 368.599 299.303 367.577 292.57C367.419 291.244 367.108 289.94 366.649 288.686C366.474 288.239 366.26 287.812 366.114 287.36C365.884 286.551 365.754 285.716 365.725 284.875L365.166 277.107C364.772 271.665 366.561 266.29 367.81 260.979C368.369 258.6 368.977 256.226 369.351 253.808C369.862 250.517 369.944 247.152 370.693 243.904C371.364 240.991 372.574 238.151 372.827 235.166C373.216 230.539 371.291 226.068 369.424 221.824C368.646 220.077 365.706 220.251 363.815 219.941C350.403 217.741 336.277 217.727 323.629 222.684C322.321 223.225 321.143 224.037 320.173 225.067Z" fill="#3C354C"/>
<path d="M329.841 138.898L331.329 144.675C331.733 146 331.957 147.374 331.995 148.758C332.01 149.264 331.898 149.764 331.669 150.215C331.424 150.585 331.111 150.905 330.745 151.157C329.729 151.929 329.025 153.73 327.863 154.264C328.461 155.303 329.287 154.628 330.366 155.147C332.267 156.07 334.007 157.395 336.068 157.852C338.013 158.279 340.054 157.876 341.984 157.366C344.721 156.623 347.443 155.599 349.645 153.808C351.847 152.016 353.101 150.433 353.091 147.603C350.661 147.889 348.498 145.438 347.423 143.234C347.051 142.396 346.777 141.518 346.607 140.617L345.304 134.893C343.885 135.204 342.728 136.218 341.371 136.747C340.015 137.277 338.411 137.325 336.904 137.393C334.229 137.515 331.569 137.859 328.952 138.422C328.592 138.495 328.14 138.723 328.227 139.073" fill="#FBB3B2"/>
<path opacity="0.1" d="M329.841 138.898L331.329 144.675C331.733 146 331.957 147.374 331.995 148.758C332.01 149.264 331.898 149.764 331.669 150.215C331.424 150.585 331.111 150.905 330.745 151.157C329.729 151.929 329.025 153.73 327.863 154.264C328.461 155.303 329.287 154.628 330.366 155.147C332.267 156.07 334.007 157.395 336.068 157.852C338.013 158.279 340.054 157.876 341.984 157.366C344.721 156.623 347.443 155.599 349.645 153.808C351.847 152.016 353.101 150.433 353.091 147.603C350.661 147.889 348.498 145.438 347.423 143.234C347.051 142.396 346.777 141.518 346.607 140.617L345.304 134.893C343.885 135.204 342.728 136.218 341.371 136.747C340.015 137.277 338.411 137.325 336.904 137.393C334.229 137.515 331.569 137.859 328.952 138.422C328.592 138.495 328.14 138.723 328.227 139.073" fill="black"/>
<path d="M336.229 142.083C343.337 142.083 349.1 136.327 349.1 129.227C349.1 122.127 343.337 116.371 336.229 116.371C329.12 116.371 323.357 122.127 323.357 129.227C323.357 136.327 329.12 142.083 336.229 142.083Z" fill="#FBB3B2"/>
<path d="M339.772 150.419C340.461 148.934 341.454 147.611 342.689 146.535C344.502 144.947 346.981 143.661 347.409 141.292L351.336 145.86C351.55 146.072 351.716 146.327 351.823 146.608C351.872 146.871 351.865 147.142 351.801 147.402C351.737 147.663 351.619 147.907 351.453 148.118C350.481 149.666 348.95 150.773 347.501 151.895C344.181 154.521 341.002 157.322 337.979 160.284C337.845 160.438 337.667 160.547 337.468 160.595C337.28 160.6 337.095 160.547 336.938 160.444C334.329 159.076 332.021 157.201 330.147 154.929C330.007 154.759 329.832 154.565 329.603 154.579C329.465 154.605 329.338 154.671 329.238 154.769C327.931 155.837 326.502 157.114 324.825 156.949C326.998 155.39 328.227 152.788 328.684 150.152C328.775 149.25 328.96 148.359 329.238 147.496C329.383 147.064 329.631 146.675 329.961 146.361C330.292 146.048 330.695 145.821 331.134 145.7C330.075 147.317 330.799 149.608 332.223 150.914C333.607 152.087 335.266 152.891 337.045 153.249C338.698 153.56 339.184 151.691 339.772 150.419Z" fill="#323444"/>
<path d="M323.026 226.388C324.859 226.839 326.594 227.607 328.373 228.175C331.616 229.189 335.028 229.547 338.411 229.228C339.452 229.205 340.465 228.883 341.328 228.301C341.556 228.116 341.765 227.898 342.008 227.728C342.415 227.484 342.855 227.303 343.316 227.189C347.773 225.796 351.506 222.791 355.128 219.848C355.245 219.751 355.376 219.63 355.366 219.475C355.349 219.369 355.298 219.272 355.22 219.198L353.315 217.013C348.318 217.863 343.199 217.542 338.129 217.416C337.088 217.37 336.045 217.398 335.008 217.499C334.007 217.615 333.02 217.868 332.033 218.081C328.286 218.897 324.455 219.208 320.659 219.742C320.393 219.761 320.136 219.841 319.905 219.975C319.745 220.098 319.609 220.25 319.502 220.421L318.17 222.29C317.653 222.919 317.272 223.648 317.052 224.431C316.741 225.888 317.392 226.373 318.632 226.184C320.096 225.97 321.588 226.039 323.026 226.388Z" fill="#323444"/>
<path d="M337.925 158.06C336.438 156.539 334.752 155.224 332.913 154.152C332.17 153.681 331.346 153.352 330.483 153.181C330.048 153.096 329.601 153.106 329.171 153.212C328.741 153.317 328.339 153.516 327.994 153.793C327.561 154.176 327.289 154.71 326.871 155.113C326.345 155.555 325.742 155.896 325.092 156.118C322.879 157.063 320.782 158.257 318.841 159.677C317.783 160.416 316.829 161.295 316.007 162.289C313.805 165.105 313.474 168.935 313.533 172.508C313.576 174.994 315.963 176.839 317.606 178.698C319.147 180.528 320.542 182.476 321.777 184.524C322.662 185.923 323.585 187.437 323.473 189.102C323.381 190.467 322.584 191.748 322.71 193.108C322.754 193.593 322.909 194.04 322.953 194.511C323.041 195.482 322.657 196.453 322.559 197.424C322.428 198.798 322.875 200.162 322.9 201.546C322.882 202.493 322.761 203.435 322.54 204.356C321.607 208.794 320.435 213.256 320.673 217.785L317.98 218.271C318.236 218.52 318.428 218.826 318.543 219.164C318.657 219.502 318.691 219.862 318.64 220.215C318.589 220.569 318.456 220.905 318.251 221.197C318.046 221.489 317.775 221.729 317.46 221.897C321.665 223.3 326.21 222.591 330.668 222.587C334.357 222.587 338.032 223.072 341.717 223.004C345.401 222.936 349.202 222.271 352.241 220.188C353.067 219.625 353.825 218.965 354.695 218.474C355.861 217.871 357.117 217.461 358.414 217.261C360.817 216.803 363.259 216.585 365.705 216.61C366.901 216.61 368.204 216.659 369.157 215.94C370.207 215.144 370.474 213.702 370.615 212.396C370.756 211.017 370.844 209.634 370.868 208.25C370.909 207.173 370.852 206.094 370.698 205.026C370.552 204.246 370.362 203.475 370.129 202.716L368.296 196.268C367.538 193.608 368.593 190.69 368.816 187.932C368.87 187.282 368.88 186.525 368.379 186.107C368.199 185.957 367.951 185.855 367.893 185.622C367.867 185.511 367.864 185.396 367.884 185.284C367.904 185.172 367.947 185.066 368.01 184.971C368.982 183.029 370.44 181.315 371.772 179.563C374.009 176.488 376.086 173.301 377.994 170.013C377.396 163.133 374.496 156.654 369.759 151.623C368.787 150.569 367.674 149.559 366.313 149.084C365.424 148.812 364.501 148.664 363.571 148.642C359.76 148.385 355.794 148.156 352.474 146.244C352.236 146.079 351.966 145.965 351.682 145.909C350.948 145.826 350.413 146.549 349.936 147.122C348.712 148.579 346.908 149.414 345.323 150.487C342.368 152.492 340.059 155.249 337.925 158.06Z" fill="#5B5583"/>
<path d="M378.325 171.999C379.083 174.397 379.01 176.96 379.258 179.461C379.405 180.97 379.67 182.465 380.05 183.932C380.224 184.739 380.537 185.509 380.974 186.209C381.411 186.85 382.038 187.369 382.315 188.093C382.467 188.583 382.534 189.095 382.515 189.607L382.573 192.957C382.698 194.732 382.427 196.513 381.781 198.171L379.686 204.536C378.553 207.983 377.391 211.483 375.35 214.484C375.062 214.992 374.626 215.4 374.1 215.654C373.689 215.763 373.267 215.828 372.841 215.848C372.1 215.98 371.428 216.366 370.941 216.939C370.454 217.512 370.183 218.237 370.173 218.989C369.686 218.279 369.079 217.66 368.379 217.159L364.116 213.76C362.658 212.576 361.136 211.372 359.367 210.687C361.747 209.945 363.859 208.529 365.449 206.61C367.038 204.692 368.036 202.354 368.321 199.88C368.319 199.144 368.485 198.417 368.807 197.754C369.162 197.181 369.818 196.744 369.867 196.069C369.925 195.22 368.962 194.579 368.962 193.729C368.962 193.166 369.38 192.7 369.565 192.171C369.738 191.517 369.738 190.829 369.565 190.175L368.977 186.913C368.942 186.586 368.843 186.269 368.685 185.981C368.465 185.704 368.221 185.448 367.956 185.214C366.945 184.083 367.392 182.301 367.956 180.907C369.251 177.815 370.919 174.891 372.924 172.203C373.638 171.3 374.298 170.356 374.903 169.377C375.418 168.484 375.534 167.246 376.079 166.464C376.779 168.299 377.727 170.11 378.325 171.999Z" fill="#5B5583"/>
<path d="M359.216 210.886C358.999 211.047 358.812 211.244 358.662 211.469C358.089 212.187 357.326 212.73 356.46 213.037C356.946 213.387 357.388 213.731 357.845 214.086C361.226 216.693 364.322 219.65 367.081 222.907C367.387 221.815 369.22 221.892 369.667 220.849C369.773 220.55 369.806 220.23 369.764 219.916C369.672 218.281 369.437 216.657 369.064 215.062C368.917 214.24 368.585 213.463 368.092 212.789C367.412 211.969 366.352 211.576 365.341 211.236C363.81 210.702 360.772 209.949 359.216 210.886Z" fill="#323444"/>
<path d="M353.14 214.702C351.682 215.78 350.403 217.13 348.765 217.868C347.608 218.392 346.291 218.62 345.28 219.402C345.829 220.611 347.258 221.237 348.585 221.188C349.913 221.058 351.186 220.592 352.284 219.834C353.154 219.3 354.175 218.678 355.123 219.052C355.269 219.79 354.637 220.484 354.637 221.232C354.637 221.98 355.259 222.523 355.872 222.917C358.788 224.796 362.541 224.64 366.017 224.422C366.216 224.429 366.412 224.371 366.576 224.257C366.651 224.169 366.708 224.067 366.744 223.957C366.78 223.847 366.794 223.731 366.785 223.616C366.828 222.849 366.848 222.087 366.853 221.319C366.951 220.701 366.87 220.067 366.621 219.493C366.371 218.918 365.963 218.427 365.443 218.076C363.557 216.457 361.523 215.019 359.367 213.78C357.228 212.542 355.06 213.275 353.14 214.702Z" fill="#FBB3B2"/>
<path d="M340.749 123.853C338.591 124.11 337.021 125.795 337.24 127.625C337.458 129.455 339.383 130.718 341.542 130.456C343.7 130.193 345.27 128.514 345.051 126.688C344.832 124.863 342.907 123.596 340.749 123.853ZM341.483 129.951C339.655 130.169 338.027 129.096 337.837 127.552C337.648 126.008 338.985 124.581 340.808 124.363C342.63 124.144 344.264 125.217 344.453 126.761C344.643 128.305 343.306 129.732 341.483 129.951Z" fill="#3C354C"/>
<path d="M330.23 125.115C328.072 125.372 326.502 127.057 326.721 128.883C326.939 130.708 328.864 131.975 331.023 131.718C333.181 131.46 334.751 129.776 334.532 127.946C334.313 126.115 332.388 124.858 330.23 125.115ZM330.964 131.208C329.136 131.426 327.508 130.354 327.323 128.815C327.139 127.276 328.466 125.843 330.293 125.62C332.121 125.397 333.75 126.475 333.934 128.018C334.119 129.562 332.787 130.99 330.964 131.208Z" fill="#3C354C"/>
<path d="M322.419 126.052L327.109 127.052L326.648 128.285L322.224 126.989L322.419 126.052Z" fill="#3C354C"/>
<path d="M348.566 122.916L344.24 124.999L344.983 126.086L348.974 123.78L348.566 122.916Z" fill="#3C354C"/>
<path d="M334.099 126.742L337.39 126.348L337.22 127.164L334.396 127.353L334.099 126.742Z" fill="#3C354C"/>
<path d="M327.717 125.639C328.027 124.974 328.192 124.251 328.203 123.518C328.215 123.079 328.29 122.644 328.427 122.226C328.666 121.696 329.029 121.232 329.486 120.872C331.003 119.59 333.176 118.93 335.32 118.838C337.657 118.73 339.982 119.232 342.067 120.294C342.703 120.592 343.274 121.015 343.744 121.537C344.424 122.367 344.57 123.44 345.255 124.261C345.723 124.759 346.312 125.127 346.964 125.331C347.616 125.536 348.31 125.568 348.979 125.426C349.217 124.581 348.906 123.688 349.028 122.824C349.219 122.083 349.478 121.362 349.8 120.668C350.554 118.449 349.455 115.876 347.19 114.551C346.398 114.065 345.46 113.75 344.867 113.094C344.274 112.439 344.133 111.759 343.724 111.104C342.64 109.371 339.835 108.56 337.701 109.361C337.031 109.614 336.438 109.997 335.757 110.269C334.493 110.788 333.054 110.881 331.664 111.055C330.294 111.182 328.954 111.533 327.698 112.094C326.497 112.687 325.491 113.638 325.214 114.774C325.082 115.299 325.112 115.842 324.98 116.362C324.309 118.998 319.978 120.28 319.735 122.969C319.648 123.94 320.178 124.872 320.839 125.664C321.296 126.203 322.389 127.645 323.162 127.853C323.935 128.062 324.523 127.329 325.262 127.077C326.429 126.712 327.134 126.635 327.717 125.639Z" fill="#CBCEDA"/>
<path d="M382.554 296.633C382.554 321.024 397.875 340.764 416.809 340.764L382.554 296.633Z" fill="#46455B"/>
<path d="M416.809 340.769C416.809 316.101 433.91 296.143 455.041 296.143L416.809 340.769Z" fill="#68D391"/>
<path d="M394.969 298.847C394.969 322.019 404.739 340.769 416.809 340.769L394.969 298.847Z" fill="#68D391"/>
<path d="M416.809 340.769C416.809 309.251 436.574 283.744 460.995 283.744L416.809 340.769Z" fill="#46455B"/>
<path opacity="0.1" d="M415.326 349.197C420.03 349.197 423.843 348.554 423.843 347.76C423.843 346.966 420.03 346.323 415.326 346.323C410.623 346.323 406.81 346.966 406.81 347.76C406.81 348.554 410.623 349.197 415.326 349.197Z" fill="#68D391"/>
<path d="M409.605 341.08C409.605 341.08 414.466 340.929 415.924 339.89C417.383 338.851 423.396 337.604 423.76 339.274C424.125 340.944 431.052 347.58 425.573 347.624C420.095 347.668 412.828 346.77 411.37 345.881C409.911 344.993 409.605 341.08 409.605 341.08Z" fill="#A8A8A8"/>
<path opacity="0.2" d="M425.675 347.041C420.192 347.085 412.935 346.187 411.472 345.299C410.358 344.624 409.916 342.191 409.765 341.075H409.605C409.605 341.075 409.911 344.988 411.374 345.876C412.838 346.765 420.095 347.663 425.578 347.619C427.163 347.619 427.707 347.041 427.678 346.211C427.459 346.716 426.881 347.032 425.675 347.041Z" fill="black"/>
<path d="M10.9324 310.887C10.9324 330.307 23.1188 345.998 38.183 345.998L10.9324 310.887Z" fill="#46455B"/>
<path d="M38.1829 345.998C38.1829 326.374 51.7936 310.494 68.598 310.494L38.1829 345.998Z" fill="#68D391"/>
<path d="M20.8049 312.654C20.8049 331.103 28.5825 346.007 38.1829 346.007L20.8049 312.654Z" fill="#68D391"/>
<path d="M38.1829 345.998C38.1829 320.922 53.9081 300.629 73.3374 300.629L38.1829 345.998Z" fill="#46455B"/>
<path opacity="0.1" d="M37.0017 352.707C40.744 352.707 43.7779 352.194 43.7779 351.561C43.7779 350.929 40.744 350.416 37.0017 350.416C33.2593 350.416 30.2255 350.929 30.2255 351.561C30.2255 352.194 33.2593 352.707 37.0017 352.707Z" fill="#68D391"/>
<path d="M32.4519 346.245C32.4519 346.245 36.3164 346.124 37.4781 345.274C38.6399 344.425 43.428 343.454 43.7148 344.789C44.0016 346.124 49.5236 351.396 45.1731 351.43C40.8225 351.464 35.0331 350.751 33.8713 350.047C32.7095 349.343 32.4519 346.245 32.4519 346.245Z" fill="#A8A8A8"/>
<path opacity="0.2" d="M45.2363 351.008C40.8614 351.042 35.0963 350.328 33.9345 349.619C33.0498 349.085 32.6998 347.148 32.5783 346.26H32.4519C32.4519 346.26 32.695 349.372 33.8567 350.081C35.0185 350.789 40.7982 351.498 45.1585 351.464C46.4175 351.464 46.855 351.008 46.8307 350.343C46.6557 350.731 46.1744 350.979 45.2363 351.008Z" fill="black"/>
</g>
<defs>
<clipPath id="clip0">
<rect width="461" height="368" fill="white"/>
</clipPath>
</defs>
</svg>
