<svg width="418" height="334" viewBox="0 0 418 334" fill="none" xmlns="http://www.w3.org/2000/svg">
<g clip-path="url(#clip0)">
<path opacity="0.1" d="M120.08 57.2823H88.7243C86.9157 57.2823 85.4495 58.7481 85.4495 60.5562V65.4649C85.4495 67.273 86.9157 68.7388 88.7243 68.7388H120.08C121.888 68.7388 123.354 67.273 123.354 65.4649V60.5562C123.354 58.7481 121.888 57.2823 120.08 57.2823Z" fill="#68D391"/>
<path opacity="0.1" d="M159.748 68.7388H128.392C126.584 68.7388 125.117 70.2046 125.117 72.0127V76.9214C125.117 78.7295 126.584 80.1953 128.392 80.1953H159.748C161.556 80.1953 163.022 78.7295 163.022 76.9214V72.0127C163.022 70.2046 161.556 68.7388 159.748 68.7388Z" fill="#68D391"/>
<path opacity="0.1" d="M199.416 80.1953H168.06C166.252 80.1953 164.786 81.661 164.786 83.4692V88.3778C164.786 90.1859 166.252 91.6517 168.06 91.6517H199.416C201.224 91.6517 202.691 90.1859 202.691 88.3778V83.4692C202.691 81.661 201.224 80.1953 199.416 80.1953Z" fill="#68D391"/>
<path opacity="0.1" d="M120.08 40.0976H88.7243C86.9157 40.0976 85.4495 41.5634 85.4495 43.3715V48.2802C85.4495 50.0883 86.9157 51.5541 88.7243 51.5541H120.08C121.888 51.5541 123.354 50.0883 123.354 48.2802V43.3715C123.354 41.5634 121.888 40.0976 120.08 40.0976Z" fill="#68D391"/>
<path opacity="0.1" d="M159.748 51.5541H128.392C126.584 51.5541 125.117 53.0199 125.117 54.828V59.7367C125.117 61.5448 126.584 63.0106 128.392 63.0106H159.748C161.556 63.0106 163.022 61.5448 163.022 59.7367V54.828C163.022 53.0199 161.556 51.5541 159.748 51.5541Z" fill="#68D391"/>
<path opacity="0.1" d="M199.416 63.0106H168.06C166.252 63.0106 164.786 64.4763 164.786 66.2845V71.1931C164.786 73.0013 166.252 74.467 168.06 74.467H199.416C201.224 74.467 202.691 73.0013 202.691 71.1931V66.2845C202.691 64.4763 201.224 63.0106 199.416 63.0106Z" fill="#68D391"/>
<path opacity="0.1" d="M243.491 57.2823H212.136C210.327 57.2823 208.861 58.7481 208.861 60.5562V65.4649C208.861 67.273 210.327 68.7388 212.136 68.7388H243.491C245.3 68.7388 246.766 67.273 246.766 65.4649V60.5562C246.766 58.7481 245.3 57.2823 243.491 57.2823Z" fill="#68D391"/>
<path opacity="0.1" d="M283.16 68.7388H251.804C249.995 68.7388 248.529 70.2046 248.529 72.0127V76.9214C248.529 78.7295 249.995 80.1953 251.804 80.1953H283.16C284.968 80.1953 286.434 78.7295 286.434 76.9214V72.0127C286.434 70.2046 284.968 68.7388 283.16 68.7388Z" fill="#68D391"/>
<path opacity="0.1" d="M322.828 80.1953H291.472C289.663 80.1953 288.197 81.661 288.197 83.4692V88.3778C288.197 90.1859 289.663 91.6517 291.472 91.6517H322.828C324.636 91.6517 326.102 90.1859 326.102 88.3778V83.4692C326.102 81.661 324.636 80.1953 322.828 80.1953Z" fill="#68D391"/>
<path opacity="0.1" d="M243.491 40.0976H212.136C210.327 40.0976 208.861 41.5634 208.861 43.3715V48.2802C208.861 50.0883 210.327 51.5541 212.136 51.5541H243.491C245.3 51.5541 246.766 50.0883 246.766 48.2802V43.3715C246.766 41.5634 245.3 40.0976 243.491 40.0976Z" fill="#68D391"/>
<path opacity="0.1" d="M283.16 51.5541H251.804C249.995 51.5541 248.529 53.0199 248.529 54.828V59.7367C248.529 61.5448 249.995 63.0106 251.804 63.0106H283.16C284.968 63.0106 286.434 61.5448 286.434 59.7367V54.828C286.434 53.0199 284.968 51.5541 283.16 51.5541Z" fill="#68D391"/>
<path opacity="0.1" d="M322.828 63.0106H291.472C289.663 63.0106 288.197 64.4763 288.197 66.2845V71.1931C288.197 73.0013 289.663 74.467 291.472 74.467H322.828C324.636 74.467 326.102 73.0013 326.102 71.1931V66.2845C326.102 64.4763 324.636 63.0106 322.828 63.0106Z" fill="#68D391"/>
<path opacity="0.1" d="M120.08 17.1847H88.7243C86.9157 17.1847 85.4495 18.6505 85.4495 20.4586V25.3673C85.4495 27.1754 86.9157 28.6412 88.7243 28.6412H120.08C121.888 28.6412 123.354 27.1754 123.354 25.3673V20.4586C123.354 18.6505 121.888 17.1847 120.08 17.1847Z" fill="#68D391"/>
<path opacity="0.1" d="M159.748 28.6412H128.392C126.584 28.6412 125.117 30.1069 125.117 31.9151V36.8237C125.117 38.6318 126.584 40.0976 128.392 40.0976H159.748C161.556 40.0976 163.022 38.6318 163.022 36.8237V31.9151C163.022 30.1069 161.556 28.6412 159.748 28.6412Z" fill="#68D391"/>
<path opacity="0.1" d="M199.416 40.0976H168.06C166.252 40.0976 164.786 41.5634 164.786 43.3715V48.2802C164.786 50.0883 166.252 51.5541 168.06 51.5541H199.416C201.224 51.5541 202.691 50.0883 202.691 48.2802V43.3715C202.691 41.5634 201.224 40.0976 199.416 40.0976Z" fill="#68D391"/>
<path opacity="0.1" d="M120.08 0H88.7243C86.9157 0 85.4495 1.46578 85.4495 3.2739V8.18256C85.4495 9.99069 86.9157 11.4565 88.7243 11.4565H120.08C121.888 11.4565 123.354 9.99069 123.354 8.18256V3.2739C123.354 1.46578 121.888 0 120.08 0Z" fill="#68D391"/>
<path opacity="0.1" d="M159.748 11.4565H128.392C126.584 11.4565 125.117 12.9222 125.117 14.7304V19.639C125.117 21.4472 126.584 22.9129 128.392 22.9129H159.748C161.556 22.9129 163.022 21.4472 163.022 19.639V14.7304C163.022 12.9222 161.556 11.4565 159.748 11.4565Z" fill="#68D391"/>
<path opacity="0.1" d="M199.416 22.9129H168.06C166.252 22.9129 164.786 24.3787 164.786 26.1868V31.0955C164.786 32.9036 166.252 34.3694 168.06 34.3694H199.416C201.224 34.3694 202.691 32.9036 202.691 31.0955V26.1868C202.691 24.3787 201.224 22.9129 199.416 22.9129Z" fill="#68D391"/>
<path opacity="0.1" d="M243.491 17.1847H212.136C210.327 17.1847 208.861 18.6505 208.861 20.4586V25.3673C208.861 27.1754 210.327 28.6412 212.136 28.6412H243.491C245.3 28.6412 246.766 27.1754 246.766 25.3673V20.4586C246.766 18.6505 245.3 17.1847 243.491 17.1847Z" fill="#68D391"/>
<path opacity="0.1" d="M283.16 28.6412H251.804C249.995 28.6412 248.529 30.1069 248.529 31.9151V36.8237C248.529 38.6318 249.995 40.0976 251.804 40.0976H283.16C284.968 40.0976 286.434 38.6318 286.434 36.8237V31.9151C286.434 30.1069 284.968 28.6412 283.16 28.6412Z" fill="#68D391"/>
<path opacity="0.1" d="M322.828 40.0976H291.472C289.663 40.0976 288.197 41.5634 288.197 43.3715V48.2802C288.197 50.0883 289.663 51.5541 291.472 51.5541H322.828C324.636 51.5541 326.102 50.0883 326.102 48.2802V43.3715C326.102 41.5634 324.636 40.0976 322.828 40.0976Z" fill="#68D391"/>
<path opacity="0.1" d="M243.491 0H212.136C210.327 0 208.861 1.46578 208.861 3.2739V8.18256C208.861 9.99069 210.327 11.4565 212.136 11.4565H243.491C245.3 11.4565 246.766 9.99069 246.766 8.18256V3.2739C246.766 1.46578 245.3 0 243.491 0Z" fill="#68D391"/>
<path opacity="0.1" d="M283.16 11.4565H251.804C249.995 11.4565 248.529 12.9222 248.529 14.7304V19.639C248.529 21.4472 249.995 22.9129 251.804 22.9129H283.16C284.968 22.9129 286.434 21.4472 286.434 19.639V14.7304C286.434 12.9222 284.968 11.4565 283.16 11.4565Z" fill="#68D391"/>
<path opacity="0.1" d="M322.828 22.9129H291.472C289.663 22.9129 288.197 24.3787 288.197 26.1868V31.0955C288.197 32.9036 289.663 34.3694 291.472 34.3694H322.828C324.636 34.3694 326.102 32.9036 326.102 31.0955V26.1868C326.102 24.3787 324.636 22.9129 322.828 22.9129Z" fill="#68D391"/>
<path opacity="0.1" d="M120.08 261.296H88.7243C86.9157 261.296 85.4495 262.761 85.4495 264.569V269.478C85.4495 271.286 86.9157 272.752 88.7243 272.752H120.08C121.888 272.752 123.354 271.286 123.354 269.478V264.569C123.354 262.761 121.888 261.296 120.08 261.296Z" fill="#68D391"/>
<path opacity="0.1" d="M159.748 272.752H128.392C126.584 272.752 125.117 274.218 125.117 276.026V280.935C125.117 282.743 126.584 284.208 128.392 284.208H159.748C161.556 284.208 163.022 282.743 163.022 280.935V276.026C163.022 274.218 161.556 272.752 159.748 272.752Z" fill="#68D391"/>
<path opacity="0.1" d="M199.416 284.208H168.06C166.252 284.208 164.786 285.674 164.786 287.482V292.391C164.786 294.199 166.252 295.665 168.06 295.665H199.416C201.224 295.665 202.691 294.199 202.691 292.391V287.482C202.691 285.674 201.224 284.208 199.416 284.208Z" fill="#68D391"/>
<path opacity="0.1" d="M120.08 244.111H88.7243C86.9157 244.111 85.4495 245.577 85.4495 247.385V252.293C85.4495 254.102 86.9157 255.567 88.7243 255.567H120.08C121.888 255.567 123.354 254.102 123.354 252.293V247.385C123.354 245.577 121.888 244.111 120.08 244.111Z" fill="#68D391"/>
<path opacity="0.1" d="M159.748 255.567H128.392C126.584 255.567 125.117 257.033 125.117 258.841V263.75C125.117 265.558 126.584 267.024 128.392 267.024H159.748C161.556 267.024 163.022 265.558 163.022 263.75V258.841C163.022 257.033 161.556 255.567 159.748 255.567Z" fill="#68D391"/>
<path opacity="0.1" d="M199.416 267.024H168.06C166.252 267.024 164.786 268.49 164.786 270.298V275.206C164.786 277.014 166.252 278.48 168.06 278.48H199.416C201.224 278.48 202.691 277.014 202.691 275.206V270.298C202.691 268.49 201.224 267.024 199.416 267.024Z" fill="#68D391"/>
<path opacity="0.1" d="M243.491 261.296H212.136C210.327 261.296 208.861 262.761 208.861 264.569V269.478C208.861 271.286 210.327 272.752 212.136 272.752H243.491C245.3 272.752 246.766 271.286 246.766 269.478V264.569C246.766 262.761 245.3 261.296 243.491 261.296Z" fill="#68D391"/>
<path opacity="0.1" d="M283.16 272.752H251.804C249.995 272.752 248.529 274.218 248.529 276.026V280.935C248.529 282.743 249.995 284.208 251.804 284.208H283.16C284.968 284.208 286.434 282.743 286.434 280.935V276.026C286.434 274.218 284.968 272.752 283.16 272.752Z" fill="#68D391"/>
<path opacity="0.1" d="M322.828 284.208H291.472C289.663 284.208 288.197 285.674 288.197 287.482V292.391C288.197 294.199 289.663 295.665 291.472 295.665H322.828C324.636 295.665 326.102 294.199 326.102 292.391V287.482C326.102 285.674 324.636 284.208 322.828 284.208Z" fill="#68D391"/>
<path opacity="0.1" d="M243.491 244.111H212.136C210.327 244.111 208.861 245.577 208.861 247.385V252.293C208.861 254.102 210.327 255.567 212.136 255.567H243.491C245.3 255.567 246.766 254.102 246.766 252.293V247.385C246.766 245.577 245.3 244.111 243.491 244.111Z" fill="#68D391"/>
<path opacity="0.1" d="M283.16 255.567H251.804C249.995 255.567 248.529 257.033 248.529 258.841V263.75C248.529 265.558 249.995 267.024 251.804 267.024H283.16C284.968 267.024 286.434 265.558 286.434 263.75V258.841C286.434 257.033 284.968 255.567 283.16 255.567Z" fill="#68D391"/>
<path opacity="0.1" d="M322.828 267.024H291.472C289.663 267.024 288.197 268.49 288.197 270.298V275.206C288.197 277.014 289.663 278.48 291.472 278.48H322.828C324.636 278.48 326.102 277.014 326.102 275.206V270.298C326.102 268.49 324.636 267.024 322.828 267.024Z" fill="#68D391"/>
<path opacity="0.1" d="M120.08 221.198H88.7243C86.9157 221.198 85.4495 222.664 85.4495 224.472V229.38C85.4495 231.189 86.9157 232.654 88.7243 232.654H120.08C121.888 232.654 123.354 231.189 123.354 229.38V224.472C123.354 222.664 121.888 221.198 120.08 221.198Z" fill="#68D391"/>
<path opacity="0.1" d="M159.748 232.654H128.392C126.584 232.654 125.117 234.12 125.117 235.928V240.837C125.117 242.645 126.584 244.111 128.392 244.111H159.748C161.556 244.111 163.022 242.645 163.022 240.837V235.928C163.022 234.12 161.556 232.654 159.748 232.654Z" fill="#68D391"/>
<path opacity="0.1" d="M199.416 244.111H168.06C166.252 244.111 164.786 245.577 164.786 247.385V252.293C164.786 254.102 166.252 255.567 168.06 255.567H199.416C201.224 255.567 202.691 254.102 202.691 252.293V247.385C202.691 245.577 201.224 244.111 199.416 244.111Z" fill="#68D391"/>
<path opacity="0.1" d="M120.08 204.013H88.7243C86.9157 204.013 85.4495 205.479 85.4495 207.287V212.196C85.4495 214.004 86.9157 215.47 88.7243 215.47H120.08C121.888 215.47 123.354 214.004 123.354 212.196V207.287C123.354 205.479 121.888 204.013 120.08 204.013Z" fill="#68D391"/>
<path opacity="0.1" d="M159.748 215.47H128.392C126.584 215.47 125.117 216.935 125.117 218.744V223.652C125.117 225.46 126.584 226.926 128.392 226.926H159.748C161.556 226.926 163.022 225.46 163.022 223.652V218.744C163.022 216.935 161.556 215.47 159.748 215.47Z" fill="#68D391"/>
<path opacity="0.1" d="M199.416 226.926H168.06C166.252 226.926 164.786 228.392 164.786 230.2V235.109C164.786 236.917 166.252 238.383 168.06 238.383H199.416C201.224 238.383 202.691 236.917 202.691 235.109V230.2C202.691 228.392 201.224 226.926 199.416 226.926Z" fill="#68D391"/>
<path opacity="0.1" d="M243.491 221.198H212.136C210.327 221.198 208.861 222.664 208.861 224.472V229.38C208.861 231.189 210.327 232.654 212.136 232.654H243.491C245.3 232.654 246.766 231.189 246.766 229.38V224.472C246.766 222.664 245.3 221.198 243.491 221.198Z" fill="#68D391"/>
<path opacity="0.1" d="M283.16 232.654H251.804C249.995 232.654 248.529 234.12 248.529 235.928V240.837C248.529 242.645 249.995 244.111 251.804 244.111H283.16C284.968 244.111 286.434 242.645 286.434 240.837V235.928C286.434 234.12 284.968 232.654 283.16 232.654Z" fill="#68D391"/>
<path opacity="0.1" d="M322.828 244.111H291.472C289.663 244.111 288.197 245.577 288.197 247.385V252.293C288.197 254.102 289.663 255.567 291.472 255.567H322.828C324.636 255.567 326.102 254.102 326.102 252.293V247.385C326.102 245.577 324.636 244.111 322.828 244.111Z" fill="#68D391"/>
<path opacity="0.1" d="M243.491 204.013H212.136C210.327 204.013 208.861 205.479 208.861 207.287V212.196C208.861 214.004 210.327 215.47 212.136 215.47H243.491C245.3 215.47 246.766 214.004 246.766 212.196V207.287C246.766 205.479 245.3 204.013 243.491 204.013Z" fill="#68D391"/>
<path opacity="0.1" d="M283.16 215.47H251.804C249.995 215.47 248.529 216.935 248.529 218.744V223.652C248.529 225.46 249.995 226.926 251.804 226.926H283.16C284.968 226.926 286.434 225.46 286.434 223.652V218.744C286.434 216.935 284.968 215.47 283.16 215.47Z" fill="#68D391"/>
<path opacity="0.1" d="M322.828 226.926H291.472C289.663 226.926 288.197 228.392 288.197 230.2V235.109C288.197 236.917 289.663 238.383 291.472 238.383H322.828C324.636 238.383 326.102 236.917 326.102 235.109V230.2C326.102 228.392 324.636 226.926 322.828 226.926Z" fill="#68D391"/>
<path opacity="0.1" d="M212.608 334C319.349 334 405.879 326.898 405.879 318.137C405.879 309.376 319.349 302.274 212.608 302.274C105.867 302.274 19.3359 309.376 19.3359 318.137C19.3359 326.898 105.867 334 212.608 334Z" fill="#68D391"/>
<path d="M37.31 82.3103C55.5353 90.2064 66.0077 106.545 66.0077 106.545C66.0077 106.545 46.9273 110.07 28.6976 102.178C10.468 94.2867 0 77.9436 0 77.9436C0 77.9436 19.0803 74.4141 37.31 82.3103Z" fill="#68D391"/>
<path d="M93.2419 51.9947C98.8792 42.7414 108.479 38.3351 108.479 38.3351C108.479 38.3351 108.92 48.8838 103.3 58.1107C97.6804 67.3376 88.0586 71.7395 88.0586 71.7395C88.0586 71.7395 87.6003 61.1951 93.2419 51.9947Z" fill="#68D391"/>
<path d="M51.802 61.8957C55.835 76.2868 66.9508 85.7604 66.9508 85.7604C66.9508 85.7604 71.5303 71.8937 67.4974 57.4982C63.4644 43.1027 52.3442 33.6335 52.3442 33.6335C52.3442 33.6335 47.7647 47.5003 51.802 61.8957Z" fill="#46455B"/>
<path d="M370.526 61.248H55.5706C53.8155 61.248 52.3927 62.6704 52.3927 64.425V218.902C52.3927 220.657 53.8155 222.079 55.5706 222.079H370.526C372.281 222.079 373.704 220.657 373.704 218.902V64.425C373.704 62.6704 372.281 61.248 370.526 61.248Z" fill="#3F3D56"/>
<path opacity="0.1" d="M52.3927 212.385H373.704V218.902C373.704 219.745 373.369 220.553 372.773 221.149C372.177 221.744 371.369 222.079 370.526 222.079H55.5706C54.7277 222.079 53.9194 221.744 53.3235 221.149C52.7275 220.553 52.3927 219.745 52.3927 218.902V212.385Z" fill="black"/>
<path d="M106.385 200.488H84.7883C84.1797 200.488 83.6864 200.981 83.6864 201.59V211.284C83.6864 211.892 84.1797 212.385 84.7883 212.385H106.385C106.994 212.385 107.487 211.892 107.487 211.284V201.59C107.487 200.981 106.994 200.488 106.385 200.488Z" fill="#68D391"/>
<path d="M129.525 210.623H114.98C114.493 210.623 114.099 211.017 114.099 211.504C114.099 211.991 114.493 212.385 114.98 212.385H129.525C130.012 212.385 130.407 211.991 130.407 211.504C130.407 211.017 130.012 210.623 129.525 210.623Z" fill="#68D391"/>
<path d="M99.6197 92.7004C111.251 94.8463 123.116 92.7004 134.699 91.2463L169.903 86.84C171.326 86.6593 173.398 85.8089 174.235 87.5494C174.707 88.5232 174.39 90.6339 174.425 91.7531C174.517 94.8375 174.509 97.9219 174.425 101.006C174.266 106.902 173.834 112.784 173.283 118.654C172.212 130.141 170.696 141.567 169.938 153.098C169.55 158.967 169.356 164.854 169.528 170.723C169.568 172.125 169.625 173.526 169.709 174.923C169.801 176.487 170.502 178.809 168.796 179.853C167.822 180.453 165.905 180.422 164.79 180.598C163.027 180.876 161.264 181.096 159.466 181.277C147.614 182.462 135.607 181.968 123.711 181.898L87.7898 181.713L79.0275 181.664C78.2342 181.664 75.3737 182.14 74.8844 181.197C74.6773 180.796 75.2282 178.919 75.3252 178.417C75.4604 177.588 75.6073 176.761 75.766 175.936C76.7885 170.142 77.9962 164.383 79.2127 158.628C81.8264 146.29 84.5017 133.891 85.5772 121.289C86.1105 114.966 85.7579 108.585 86.4102 102.275C86.7143 99.3452 87.0758 92.8062 90.9765 92.5462C94.2821 92.3259 97.6848 92.5462 100.999 92.5462C101.175 92.5462 101.343 92.4766 101.467 92.3526C101.591 92.2287 101.66 92.0605 101.66 91.8852C101.66 91.71 101.591 91.5418 101.467 91.4179C101.343 91.2939 101.175 91.2243 100.999 91.2243C97.8699 91.2243 94.7361 91.1406 91.6067 91.2023C89.5264 91.2419 88.0807 91.7354 87.089 93.6478C84.5546 98.5564 84.8147 105.104 84.7353 110.462C84.5458 123.289 82.5756 135.843 80.0104 148.388C78.719 154.702 77.3262 160.994 76.0436 167.313C75.4398 170.331 74.8624 173.358 74.3335 176.394C74.0867 177.84 72.8393 181.025 73.9368 182.352C75.0343 183.678 78.4105 182.964 79.9223 182.973L90.4387 183.035L110.59 183.149C123.61 183.224 136.674 183.59 149.69 183.206C155.904 183.021 162.472 182.766 168.523 181.281C170.326 180.84 171.194 180.012 171.265 178.091C171.37 175.112 170.886 172.041 170.824 169.049C170.383 143.448 176.399 118.204 175.782 92.5947C175.743 90.8542 176.399 86.4655 174.495 85.4123C173.64 84.9365 172.53 85.1964 171.63 85.3022C169.911 85.5005 168.197 85.7428 166.478 85.9455L144.154 88.7303C137.018 89.6116 129.886 90.5633 122.737 91.3741C115.17 92.2554 107.527 92.7797 99.9855 91.3741C99.1525 91.2199 98.7955 92.4933 99.6329 92.6475L99.6197 92.7004Z" fill="#68D391"/>
<path d="M85.586 108.277L173.658 103.959C174.509 103.915 174.513 102.593 173.658 102.637L85.586 106.955C84.7398 106.995 84.7354 108.316 85.586 108.277Z" fill="#68D391"/>
<path d="M112.719 97.3799C112.473 97.6409 112.294 97.958 112.198 98.3038C112.102 98.6496 112.092 99.0135 112.169 99.364C112.246 99.7144 112.407 100.041 112.639 100.315C112.871 100.589 113.166 100.802 113.499 100.936C114.685 101.478 116.078 101.024 117.254 100.729C119.017 100.288 120.78 99.896 122.592 99.5743C126.535 98.8765 130.528 98.5051 134.532 98.4639C136.357 98.4419 138.168 98.5256 139.993 98.6049C141.315 98.6578 142.739 98.7635 143.858 97.9439C145.137 97.0098 145.551 95.1856 144.299 94.0488C142.536 92.4405 138.737 93.3746 136.701 93.542C129.312 94.1557 121.971 95.2508 114.724 96.8203C113.896 96.9966 114.244 98.2744 115.077 98.0938C119.858 97.0627 124.675 96.2343 129.529 95.6086C131.915 95.3148 134.306 95.0666 136.701 94.8639C137.829 94.7714 138.957 94.6877 140.086 94.6216C140.526 94.5951 140.994 94.5467 141.443 94.5599C142.84 94.5907 143.003 94.3396 142.166 96.0272C141.421 97.5209 141.659 97.3491 140.368 97.3006C139.821 97.3006 139.275 97.2389 138.728 97.2125C137.609 97.1655 136.489 97.1405 135.369 97.1376C132.986 97.1376 130.609 97.2522 128.238 97.4813C126.228 97.6752 124.223 97.9484 122.235 98.3009C120.992 98.5212 119.758 98.7767 118.528 99.0587C117.986 99.1865 117.439 99.3187 116.897 99.4553C116.637 99.5258 116.373 99.5875 116.113 99.6536C115.149 99.9885 114.328 99.5478 113.649 98.3317C114.24 97.7192 113.31 96.7807 112.715 97.3976L112.719 97.3799Z" fill="#68D391"/>
<path d="M128.683 116.186C122.305 115.939 115.416 117.662 111.216 122.796C107.928 126.81 106.055 133.697 109.537 138.218C113.279 143.065 121.486 142.21 126.435 140.143C131.672 137.94 137.401 133.397 138.975 127.713C140.936 120.615 134.567 115.248 127.934 115.168C127.083 115.168 127.083 116.49 127.934 116.49C131.716 116.534 135.427 118.156 137.19 121.676C139.037 125.387 137.445 129.282 134.986 132.252C131.046 136.98 124.884 140.544 118.608 140.443C114.839 140.386 110.674 139.095 109.506 135.12C108.545 131.899 109.277 128.379 110.952 125.523C114.575 119.354 121.948 117.266 128.71 117.53C129.56 117.561 129.56 116.239 128.71 116.208L128.683 116.186Z" fill="#68D391"/>
<path d="M122.35 125.977C122.078 125.876 121.785 125.846 121.498 125.889C121.211 125.932 120.94 126.047 120.709 126.222C120.479 126.398 120.297 126.63 120.179 126.895C120.062 127.16 120.014 127.451 120.04 127.74C120.172 129.458 122.067 129.943 123.491 129.841C124.721 129.736 126.158 129.282 125.726 127.744C125.646 127.472 125.509 127.22 125.323 127.006C125.138 126.791 124.908 126.619 124.65 126.501C124.256 126.345 123.828 126.292 123.407 126.347C123.244 126.347 121.75 126.894 122.385 126.237L121.345 126.1C121.46 126.214 121.548 126.352 121.603 126.505C121.658 126.658 121.678 126.82 121.662 126.982C121.664 127.097 121.696 127.21 121.754 127.309C121.813 127.408 121.896 127.49 121.996 127.547C122.096 127.605 122.209 127.635 122.325 127.636C122.44 127.636 122.553 127.607 122.654 127.55C122.805 127.487 122.971 127.467 123.133 127.493C123.295 127.518 123.446 127.589 123.57 127.696C123.694 127.803 123.786 127.943 123.835 128.099C123.884 128.255 123.889 128.422 123.848 128.581C123.813 128.734 123.832 128.894 123.903 129.034C123.974 129.173 124.093 129.283 124.237 129.345C124.381 129.406 124.543 129.414 124.692 129.368C124.842 129.322 124.971 129.224 125.056 129.092C125.497 128.299 126.03 126.722 125.369 125.893C124.928 125.334 124.077 125.501 123.548 125.827C123.222 126.058 122.918 126.319 122.64 126.607C122.107 127.079 121.759 127.299 121.957 126.396C122.288 124.752 123.857 123.443 125.289 122.787L124.32 122.042C123.811 123.952 122.902 125.732 121.653 127.264L122.781 127.731C122.749 127.126 122.905 126.526 123.227 126.012C123.549 125.499 124.021 125.097 124.58 124.862H123.932L124.276 125.426C124.148 126.259 125.422 126.616 125.549 125.774C125.717 124.686 125.029 123.272 123.756 123.805C122.235 124.439 121.446 126.18 121.477 127.731C121.477 128.26 122.226 128.669 122.61 128.202C124.011 126.5 125.035 124.519 125.611 122.39C125.642 122.264 125.635 122.132 125.592 122.009C125.548 121.887 125.47 121.779 125.367 121.7C125.264 121.621 125.14 121.574 125.01 121.564C124.881 121.555 124.751 121.583 124.637 121.646C123.317 122.242 122.201 123.214 121.428 124.439C120.891 125.32 120.216 126.695 120.763 127.709C120.852 127.871 120.973 128.014 121.118 128.129C121.264 128.244 121.43 128.329 121.608 128.38C121.787 128.43 121.973 128.445 122.157 128.422C122.341 128.4 122.519 128.342 122.68 128.251C123.088 128.009 123.46 127.713 123.786 127.369C123.95 127.224 124.13 126.973 124.346 126.929C124.54 126.797 124.531 126.872 124.315 127.162C124.312 127.619 124.179 128.065 123.932 128.449L125.14 128.956C125.248 128.544 125.236 128.11 125.103 127.706C124.97 127.301 124.723 126.944 124.392 126.677C124.06 126.41 123.659 126.245 123.235 126.201C122.812 126.157 122.385 126.237 122.006 126.431L123.002 127.004C123.023 126.443 122.847 125.893 122.504 125.448C122.452 125.363 122.381 125.29 122.297 125.235C122.213 125.18 122.118 125.145 122.019 125.132C121.919 125.119 121.818 125.128 121.723 125.159C121.628 125.19 121.54 125.242 121.468 125.312C120.798 126.012 120.67 127.224 121.512 127.872C122.142 128.352 122.451 127.872 123.143 127.762C125.492 127.458 124.121 128.515 123.293 128.55C122.922 128.59 122.548 128.563 122.186 128.471C121.267 128.16 121.209 127.759 122.015 127.268C122.804 127.59 123.143 126.312 122.367 125.995L122.35 125.977Z" fill="#68D391"/>
<path d="M121.287 128.392C121.829 130.154 119.59 130.736 118.528 131.344C117.783 131.762 117.133 132.331 116.62 133.014C115.509 134.503 115.095 136.398 114.729 138.183C114.561 139.015 115.835 139.368 116.007 138.535C116.209 137.224 116.584 135.945 117.122 134.732C117.916 133.155 119.053 132.626 120.534 131.815C122.015 131.005 123.086 129.749 122.561 128.039C122.314 127.228 121.036 127.577 121.287 128.392V128.392Z" fill="#68D391"/>
<path d="M123.491 127.506C123.176 127.55 122.888 127.709 122.684 127.954C122.48 128.198 122.375 128.51 122.389 128.828C122.389 129.352 122.737 129.687 122.975 130.106C123.54 130.962 123.971 131.9 124.254 132.886C124.465 133.834 124.672 135.53 124.179 136.411C123.266 138.046 121.618 137.733 120.212 137.733C118.89 137.733 117.867 138.174 117.911 136.332C117.938 135.296 118.66 134.248 119.233 133.433L118.026 133.274C118.28 134.619 118.415 135.985 118.427 137.354C118.427 137.967 119.366 138.306 119.656 137.685C120.365 136.194 120.927 134.639 121.336 133.04L120.036 132.864L120.265 136.213C120.269 136.356 120.318 136.494 120.407 136.606C120.495 136.719 120.617 136.8 120.755 136.837C120.893 136.875 121.04 136.867 121.173 136.815C121.306 136.763 121.419 136.669 121.494 136.548C121.649 136.378 121.762 136.174 121.825 135.953C121.869 135.746 121.464 134.349 121.301 134.847L122.596 135.023L122.689 131.842L121.367 132.018C121.646 132.915 121.73 133.862 121.613 134.794C121.53 135.53 122.768 135.697 122.936 134.97L123.764 130.696L122.557 130.85C122.844 131.442 122.923 132.112 122.781 132.754C122.684 133.6 124.007 133.591 124.104 132.754C124.216 131.877 124.075 130.985 123.698 130.185C123.631 130.075 123.534 129.986 123.417 129.931C123.301 129.875 123.171 129.854 123.043 129.871C122.915 129.888 122.794 129.941 122.696 130.025C122.598 130.109 122.527 130.22 122.491 130.344L121.658 134.618L122.958 134.794C123.09 133.744 122.989 132.677 122.662 131.67C122.618 131.518 122.521 131.387 122.389 131.301C122.256 131.215 122.097 131.179 121.941 131.199C121.784 131.22 121.64 131.296 121.535 131.414C121.429 131.532 121.37 131.684 121.367 131.842L121.274 135.023C121.274 135.794 122.345 135.905 122.574 135.2L122.645 134.984C122.675 134.871 122.676 134.753 122.647 134.64C122.617 134.527 122.559 134.424 122.477 134.34C121.107 132.851 120.829 135.222 120.353 135.878L121.587 136.213L121.358 132.864C121.309 132.15 120.252 131.93 120.058 132.688C119.685 134.178 119.168 135.629 118.515 137.019L119.749 137.354C119.735 135.866 119.587 134.383 119.308 132.921C119.194 132.313 118.396 132.34 118.101 132.763C117.219 134.032 115.694 136.803 116.871 138.324C117.898 139.646 121.129 139.134 122.508 139.051C124.686 138.927 125.474 137.548 125.712 135.495C125.826 134.511 125.771 133.516 125.549 132.551C125.43 132.031 124.227 128.735 123.866 128.802C124.703 128.647 124.346 127.369 123.513 127.524L123.491 127.506Z" fill="#68D391"/>
<path d="M120.93 130.476L117.321 135.239L118.462 135.905L121.107 132.08L119.899 131.569L118.581 136.596C118.546 136.749 118.565 136.909 118.636 137.049C118.707 137.189 118.826 137.299 118.97 137.36C119.114 137.421 119.276 137.429 119.425 137.383C119.575 137.337 119.704 137.239 119.789 137.107C120.388 136.114 121.062 135.167 121.803 134.274L120.701 133.631C120.405 134.769 119.835 135.818 119.039 136.684L120.146 137.328C120.213 136.719 120.376 136.124 120.626 135.565C120.966 134.803 119.89 134.129 119.485 134.895C119.112 135.594 118.686 136.263 118.211 136.896L119.419 137.055L119.687 135.799L118.48 135.64L118.674 136.742C118.705 136.853 118.766 136.953 118.848 137.034C118.931 137.114 119.033 137.172 119.144 137.202C119.256 137.231 119.373 137.231 119.484 137.201C119.596 137.171 119.698 137.113 119.78 137.033C120.898 135.876 121.794 134.524 122.424 133.045H121.287C121.586 133.596 121.796 134.191 121.909 134.807C122.067 135.6 123.121 135.305 123.205 134.631C123.394 133.155 123.491 131.669 123.496 130.181H122.173V132.952C122.173 133.671 123.35 133.882 123.473 133.129C123.561 132.46 123.781 131.816 124.121 131.234H122.962C123.242 131.684 123.394 132.202 123.403 132.732C123.403 132.907 123.473 133.075 123.597 133.199C123.721 133.323 123.889 133.393 124.064 133.393C124.239 133.393 124.408 133.323 124.532 133.199C124.656 133.075 124.725 132.907 124.725 132.732L124.893 131.851H123.619C123.747 132.631 124.232 137.024 122.508 136.508C122.217 136.438 122.134 136.455 122.257 136.557L122.649 135.719L123.57 133.767L122.336 133.433C122.416 134.34 122.499 135.636 121.953 136.411C121.512 137.041 120.155 137.293 119.463 136.922C119.006 136.597 118.615 136.187 118.312 135.715L117.409 136.596C118.14 137.129 119.326 138.438 120.269 138.513C120.988 138.57 121.591 137.975 122.063 137.5C122.786 136.752 123.351 135.866 123.721 134.894C124.091 133.922 124.261 132.885 124.218 131.846C124.218 131.671 124.149 131.503 124.025 131.379C123.901 131.255 123.733 131.185 123.557 131.185C123.382 131.185 123.214 131.255 123.09 131.379C122.966 131.503 122.896 131.671 122.896 131.846V133.353C122.896 133.529 122.966 133.697 123.09 133.821C123.214 133.945 123.382 134.014 123.557 134.014C123.733 134.014 123.901 133.945 124.025 133.821C124.149 133.697 124.218 133.529 124.218 133.353V129.656C124.218 129.481 124.149 129.313 124.025 129.189C123.901 129.065 123.733 128.995 123.557 128.995C123.382 128.995 123.214 129.065 123.09 129.189C122.966 129.313 122.896 129.481 122.896 129.656C122.894 130.542 122.817 131.427 122.667 132.3L123.967 132.476C123.864 131.424 123.815 130.366 123.822 129.308C123.82 129.15 123.761 128.997 123.656 128.879C123.551 128.76 123.407 128.683 123.25 128.662C123.093 128.641 122.933 128.676 122.8 128.763C122.668 128.849 122.57 128.98 122.526 129.132C122.328 129.974 122.085 130.802 121.852 131.626L123.059 131.467L122.967 131.115C122.905 130.273 121.583 130.269 121.644 131.115C121.659 131.472 121.752 131.821 121.918 132.137C122.173 132.675 122.971 132.485 123.125 131.978C123.377 131.15 123.601 130.322 123.8 129.484L122.499 129.308C122.493 130.366 122.541 131.424 122.645 132.476C122.711 133.155 123.804 133.446 123.941 132.653C124.117 131.657 124.21 130.649 124.218 129.639H122.896V133.336H124.218V131.829H122.896C122.974 133.491 122.396 135.117 121.287 136.358C121.116 136.554 120.93 136.736 120.732 136.905C120.419 137.204 120.133 137.16 119.881 136.768C119.255 136.508 118.608 135.838 118.061 135.446C117.514 135.054 116.765 135.83 117.153 136.35C118.167 137.698 119.679 139.2 121.561 138.553C123.54 137.852 123.808 135.173 123.659 133.411C123.61 132.824 122.733 132.428 122.429 133.08C121.988 134.01 121.547 134.935 121.107 135.869C120.952 136.195 120.666 136.645 120.71 137.033C120.855 138.024 122.059 137.861 122.799 137.804C125.668 137.588 125.214 133.521 124.884 131.476C124.774 130.798 123.786 130.903 123.61 131.476C123.47 131.879 123.397 132.301 123.394 132.728H124.716C124.669 131.97 124.456 131.232 124.095 130.564C124.036 130.465 123.952 130.384 123.852 130.327C123.752 130.271 123.639 130.241 123.524 130.241C123.409 130.241 123.296 130.271 123.196 130.327C123.096 130.384 123.013 130.465 122.953 130.564C122.559 131.244 122.293 131.991 122.169 132.767L123.491 132.943V130.172C123.491 129.997 123.421 129.828 123.297 129.704C123.173 129.581 123.005 129.511 122.83 129.511C122.655 129.511 122.486 129.581 122.362 129.704C122.239 129.828 122.169 129.997 122.169 130.172C122.164 131.66 122.067 133.146 121.878 134.622L123.178 134.446C123.029 133.726 122.775 133.031 122.424 132.384C122.365 132.285 122.282 132.204 122.182 132.147C122.082 132.09 121.969 132.061 121.854 132.061C121.739 132.061 121.626 132.09 121.526 132.147C121.426 132.204 121.342 132.285 121.283 132.384C120.708 133.764 119.882 135.025 118.846 136.103L119.952 136.394L119.758 135.292C119.657 134.706 118.828 134.688 118.55 135.133C118.331 135.465 118.183 135.837 118.114 136.229C118.045 136.62 118.057 137.021 118.149 137.407C118.259 138.033 119.053 137.967 119.357 137.566C119.832 136.934 120.258 136.267 120.631 135.57L119.489 134.9C119.184 135.558 118.976 136.257 118.872 136.975C118.793 137.557 119.485 138.165 119.978 137.619C120.926 136.582 121.612 135.334 121.979 133.979C122.142 133.38 121.314 132.811 120.873 133.336C120.062 134.307 119.325 135.338 118.669 136.42L119.877 136.931L121.221 131.921C121.257 131.769 121.237 131.608 121.166 131.469C121.095 131.329 120.977 131.219 120.832 131.158C120.688 131.097 120.527 131.088 120.377 131.135C120.227 131.181 120.098 131.278 120.014 131.41L117.369 135.239C116.875 135.949 118.008 136.561 118.511 135.905L122.107 131.146C122.618 130.467 121.472 129.824 120.966 130.476H120.93Z" fill="#68D391"/>
<path d="M177.162 146.378C182.451 143.144 186.656 138.319 191.328 134.283C196.397 129.907 201.717 125.832 207.195 121.972C217.835 114.481 229.008 107.779 240.173 101.094C240.317 101.003 240.421 100.859 240.461 100.693C240.502 100.526 240.476 100.351 240.39 100.203C240.304 100.055 240.164 99.9465 239.999 99.8999C239.834 99.8533 239.658 99.8725 239.507 99.9532C228.343 106.638 217.165 113.326 206.525 120.83C201.505 124.356 196.604 128.092 191.905 132.058C186.793 136.376 182.239 141.752 176.479 145.237C175.752 145.678 176.417 146.823 177.144 146.378H177.162Z" fill="#68D391"/>
<path d="M257.243 80.5698C251.513 81.1514 245.343 82.6099 241.816 87.6199C238.771 91.9293 238.837 99.4465 241.697 103.87C244.946 108.898 251.584 109.079 256.74 107.453C261.897 105.827 267.235 102.976 267.186 96.8159C267.16 93.5112 265.965 90.0698 264.648 87.0735C263.51 84.487 261.496 82.2266 258.446 82.513C257.604 82.5923 257.596 83.9142 258.446 83.8349C262.532 83.4559 263.845 88.3073 264.815 91.3697C265.697 94.2294 266.512 97.6135 265.128 100.456C263.744 103.298 260.408 104.747 257.556 105.787C254.471 106.906 251.081 107.589 247.859 106.668C241.477 104.884 239.714 96.7983 241.552 91.0613C243.668 84.4518 251.16 82.5086 257.265 81.8917C258.102 81.808 258.111 80.4861 257.265 80.5698H257.243Z" fill="#68D391"/>
<path d="M266.058 131.683C260.328 132.265 254.158 133.723 250.632 138.733C247.586 143.043 247.652 150.56 250.513 154.984C253.761 160.012 260.399 160.192 265.556 158.566C270.713 156.94 276.05 154.089 276.002 147.929C275.975 144.625 274.781 141.183 273.463 138.187C272.326 135.6 270.311 133.34 267.261 133.626C266.42 133.706 266.411 135.028 267.261 134.948C271.347 134.569 272.661 139.421 273.63 142.483C274.512 145.343 275.327 148.727 273.943 151.569C272.559 154.411 269.223 155.861 266.371 156.901C263.286 158.02 259.896 158.703 256.674 157.782C250.292 155.997 248.529 147.912 250.367 142.175C252.483 135.565 259.976 133.622 266.08 133.005C266.918 132.921 266.926 131.6 266.08 131.683H266.058Z" fill="#68D391"/>
<path d="M248.6 93.4407L252.774 98.1995C252.856 98.2792 252.958 98.3362 253.069 98.3649C253.18 98.3937 253.297 98.3931 253.408 98.3634C253.519 98.3337 253.62 98.2758 253.702 98.1954C253.784 98.1149 253.844 98.0146 253.875 97.9043C254.757 95.5866 254.589 93.1851 254.797 90.7484C255.025 88.2299 255.658 85.7646 256.67 83.4471C258.703 78.7466 262.151 74.7962 266.534 72.1449C267.261 71.7043 266.596 70.5586 265.868 71.0036C261.547 73.6052 258.08 77.4126 255.894 81.9578C254.824 84.1695 254.082 86.5251 253.69 88.9506C253.25 91.8103 253.651 94.8066 252.593 97.5518L253.699 97.2566L249.547 92.5065C248.983 91.8676 248.053 92.8062 248.613 93.4407H248.6Z" fill="#68D391"/>
<path d="M179.291 151.529C202.025 150.836 224.765 150.689 247.511 151.089C248.362 151.089 248.362 149.767 247.511 149.767C224.771 149.361 202.031 149.508 179.291 150.207C178.44 150.234 178.436 151.556 179.291 151.529Z" fill="#68D391"/>
<path d="M252.262 138.495C260.034 141.545 267.51 145.3 274.596 149.714C275.318 150.155 275.984 149.022 275.261 148.573C268.082 144.104 260.507 140.305 252.633 137.222C251.844 136.909 251.5 138.187 252.284 138.495H252.262Z" fill="#68D391"/>
<path d="M266.375 132.507C258.495 141.692 253.929 153.258 253.413 165.348C253.378 166.198 254.7 166.198 254.735 165.348C255.236 153.605 259.664 142.37 267.31 133.441C267.861 132.798 266.931 131.859 266.375 132.507Z" fill="#68D391"/>
<path d="M90.095 146.731L139.358 146.088L145.022 146.013C146.04 146.013 147.058 145.977 148.076 145.973C149.509 145.973 150.474 147.163 150.448 148.617C150.382 151.701 148.442 151.591 145.904 151.701L139.781 151.979L114.852 153.076C110.387 153.274 105.918 153.517 101.453 153.671C97.4247 153.794 89.7644 152.481 91.5539 146.621C91.8007 145.806 90.5269 145.457 90.2757 146.268C89.3942 149.15 90.9544 152.076 93.4667 153.587C97.0325 155.729 101.731 155.002 105.667 154.825L136.273 153.437L143.704 153.107C145.608 153.019 148.257 153.406 150.007 152.521C152.061 151.485 152.422 147.374 151.126 145.643C150.461 144.761 149.527 144.682 148.482 144.642C145.74 144.537 142.95 144.717 140.205 144.752L124.946 144.955L90.0773 145.396C89.2267 145.396 89.2267 146.718 90.0773 146.718L90.095 146.731Z" fill="#68D391"/>
<path d="M289.132 308.664C288.021 309.36 286.752 309.752 285.606 310.364C284.46 310.977 283.345 311.898 283.018 313.167C282.897 313.561 282.917 313.985 283.076 314.365C283.361 314.825 283.797 315.171 284.31 315.344C286.638 316.377 289.152 316.925 291.699 316.954C294.247 316.983 296.773 316.492 299.124 315.511C299.951 315.114 300.805 314.775 301.68 314.498C302.758 314.278 303.855 314.166 304.955 314.163C306.111 314.095 307.261 313.948 308.397 313.722C308.968 313.659 309.509 313.434 309.957 313.074C310.366 312.603 310.612 312.013 310.658 311.391C311.18 307.958 310.393 304.455 308.454 301.574C308.21 301.17 307.883 300.823 307.494 300.556C307.019 300.311 306.498 300.171 305.964 300.146C303.76 299.877 301.451 299.384 299.225 299.331C297.63 299.296 296.827 300.054 295.699 301.151C293.367 303.482 292.005 306.87 289.132 308.664Z" fill="#323444"/>
<path d="M321.611 308.338C321.611 310.497 321.871 312.784 323.18 314.506C323.779 315.251 324.504 315.885 325.322 316.379C328.09 318.142 331.757 318.789 334.675 317.296C335.146 317.084 335.549 316.745 335.839 316.317C336.279 315.551 336.046 314.595 335.799 313.749L331.576 299.12C328.848 299.538 324.837 299.833 322.413 301.217C320.655 302.217 321.611 306.408 321.611 308.338Z" fill="#323444"/>
<path d="M286.655 218.259C286.399 219.065 285.473 219.44 284.967 220.118C284.372 220.916 284.433 222.022 284.649 222.991C284.916 224.421 285.588 225.744 286.584 226.803C287.09 227.327 287.714 227.723 288.404 227.958C289.094 228.193 289.83 228.259 290.551 228.151C291.97 227.882 293.196 226.626 293.244 225.186C293.218 224.53 293.078 223.885 292.83 223.278L289.824 214.588C289.811 214.527 289.786 214.469 289.75 214.418C289.713 214.367 289.666 214.325 289.612 214.293C289.499 214.268 289.38 214.289 289.282 214.35C288.572 214.685 287.148 215.038 286.734 215.774C286.32 216.51 286.954 217.461 286.655 218.259Z" fill="#FBB3B2"/>
<path d="M285.249 217.823C286.346 217.651 287.307 217.008 288.334 216.584C289.361 216.161 290.648 215.998 291.512 216.703C291.759 216.906 291.997 217.184 292.318 217.179C291.881 215.025 291.219 212.922 290.344 210.905C290.313 210.808 290.253 210.723 290.172 210.662C290.052 210.614 289.917 210.614 289.797 210.662L286.831 211.438C285.733 211.724 285.606 211.636 285.689 212.716C285.711 213.196 285.958 217.823 285.249 217.823Z" fill="#323444"/>
<path d="M284.922 155.076C284.482 155.755 284.482 156.601 284.482 157.399C284.482 161.298 284.521 165.22 285.099 169.08C285.235 170.005 285.407 170.93 285.495 171.865C285.595 173.165 285.616 174.47 285.557 175.773L285.116 192.737C285.063 194.813 284.958 197.042 283.675 198.673C283.286 199.219 283.103 199.886 283.159 200.554C283.494 204.811 284.2 209.032 284.9 213.24C286.029 212.731 287.262 212.497 288.498 212.556C289.735 212.615 290.939 212.965 292.014 213.579C294.238 206.589 295.468 199.321 295.668 191.988C295.769 188.38 295.615 184.749 296.171 181.184C297.101 175.183 296.722 169.027 296.038 162.99C295.822 161.078 295.364 159.108 294.139 157.628C292.979 156.332 291.434 155.443 289.731 155.09C288.1 154.662 286.641 155.103 284.922 155.076Z" fill="#5B5583"/>
<path opacity="0.1" d="M284.922 155.076C284.482 155.755 284.482 156.601 284.482 157.399C284.482 161.298 284.521 165.22 285.099 169.08C285.235 170.005 285.407 170.93 285.495 171.865C285.595 173.165 285.616 174.47 285.557 175.773L285.116 192.737C285.063 194.813 284.958 197.042 283.675 198.673C283.286 199.219 283.103 199.886 283.159 200.554C283.494 204.811 284.2 209.032 284.9 213.24C286.029 212.731 287.262 212.497 288.498 212.556C289.735 212.615 290.939 212.965 292.014 213.579C294.238 206.589 295.468 199.321 295.668 191.988C295.769 188.38 295.615 184.749 296.171 181.184C297.101 175.183 296.722 169.027 296.038 162.99C295.822 161.078 295.364 159.108 294.139 157.628C292.979 156.332 291.434 155.443 289.731 155.09C288.1 154.662 286.641 155.103 284.922 155.076Z" fill="black"/>
<path d="M290.309 204.273C287.352 219.417 288.966 235.098 294.945 249.323C295.462 250.377 295.824 251.498 296.021 252.655C296.263 254.814 295.267 256.889 294.698 258.978C293.376 263.728 294.139 268.786 294.985 273.646C295.338 275.673 295.7 277.699 296.074 279.723C296.439 281.697 296.792 283.843 295.875 285.632C296.664 288.919 297.131 292.175 297.92 295.462C298.004 295.722 298.03 295.998 297.995 296.269C297.836 296.699 297.556 297.074 297.189 297.348C296.601 297.944 296.178 298.683 295.962 299.492C295.747 300.301 295.746 301.152 295.959 301.962C297.973 300.516 300.781 301.023 303.082 301.962C305.382 302.9 307.648 304.165 310.134 304.165C309.772 301.248 309.424 298.185 310.5 295.449C311.125 293.863 312.227 292.365 312.196 290.668C312.166 289.148 311.236 287.791 311.011 286.288C310.927 285.353 310.963 284.412 311.117 283.486C311.707 278.092 311.037 272.646 310.367 267.262C310.292 266.2 310.041 265.158 309.627 264.177C309.314 263.543 308.847 262.935 308.856 262.225C308.856 261.401 309.521 260.731 309.768 259.947C310.209 258.502 309.398 256.537 310.619 255.642C313.836 253.28 312.602 247.64 312.531 243.653C312.476 240.213 312.329 236.776 312.091 233.342C314.117 239.036 314.945 245.088 314.524 251.117C314.383 253.091 314.123 255.166 314.894 256.99C315.485 258.392 316.657 259.546 316.974 261.031C317.173 261.948 317.032 262.895 317.076 263.829C317.12 264.763 317.437 265.781 318.244 266.253C318.305 270.5 318.684 275.043 318.751 279.291C318.708 281.462 318.885 283.633 319.279 285.768C319.477 286.448 319.587 287.15 319.606 287.857C319.506 288.744 319.271 289.61 318.909 290.426C318.141 292.7 317.94 295.127 318.324 297.496C318.708 299.865 319.666 302.104 321.113 304.019C322.153 302.173 324.322 301.195 326.437 301.041C328.553 300.886 330.642 301.42 332.692 301.957C332.378 299.383 332.891 296.775 334.155 294.51C334.494 294 334.754 293.442 334.926 292.854C335.164 291.734 334.609 290.62 334.309 289.514C333.82 287.751 333.992 285.852 334.106 284.01C334.491 277.842 334.218 271.65 333.291 265.539C333.148 264.335 332.866 263.152 332.449 262.014C332.291 261.608 332.097 261.221 331.964 260.811C331.756 260.076 331.638 259.318 331.612 258.555L331.105 251.505C330.748 246.565 332.37 241.687 333.503 236.867C334.01 234.708 334.56 232.553 334.9 230.359C335.363 227.371 335.438 224.318 336.116 221.37C336.725 218.726 337.822 216.148 338.051 213.438C338.404 209.239 336.658 205.181 334.966 201.33C334.261 199.743 331.594 199.902 329.88 199.62C317.719 197.624 304.911 197.611 293.442 202.11C292.256 202.601 291.188 203.338 290.309 204.273V204.273Z" fill="#3C354C"/>
<path d="M299.075 126.065L300.424 131.309C300.791 132.511 300.994 133.758 301.028 135.014C301.042 135.473 300.94 135.927 300.732 136.336C300.51 136.672 300.226 136.962 299.895 137.191C298.974 137.892 298.335 139.526 297.281 140.011C297.823 140.954 298.573 140.342 299.551 140.813C301.275 141.65 302.852 142.853 304.721 143.267C306.484 143.655 308.335 143.29 310.085 142.827C312.567 142.153 315.035 141.223 317.032 139.597C319.028 137.971 320.165 136.535 320.157 133.966C317.953 134.226 315.991 132 315.017 130C314.68 129.24 314.431 128.443 314.277 127.625L313.096 122.43C311.809 122.712 310.76 123.633 309.53 124.113C308.3 124.593 306.846 124.638 305.479 124.699C303.054 124.809 300.642 125.122 298.269 125.633C297.942 125.699 297.532 125.907 297.612 126.224" fill="#FBB3B2"/>
<path opacity="0.1" d="M299.075 126.065L300.424 131.309C300.791 132.511 300.994 133.758 301.028 135.014C301.042 135.473 300.94 135.927 300.732 136.336C300.51 136.672 300.226 136.962 299.895 137.191C298.974 137.892 298.335 139.526 297.281 140.011C297.823 140.954 298.573 140.342 299.551 140.813C301.275 141.65 302.852 142.853 304.721 143.267C306.484 143.655 308.335 143.29 310.085 142.827C312.567 142.153 315.035 141.223 317.032 139.597C319.028 137.971 320.165 136.535 320.157 133.966C317.953 134.226 315.991 132 315.017 130C314.68 129.24 314.431 128.443 314.277 127.625L313.096 122.43C311.809 122.712 310.76 123.633 309.53 124.113C308.3 124.593 306.846 124.638 305.479 124.699C303.054 124.809 300.642 125.122 298.269 125.633C297.942 125.699 297.532 125.907 297.612 126.224" fill="black"/>
<path d="M304.867 128.956C311.313 128.956 316.538 123.732 316.538 117.288C316.538 110.844 311.313 105.62 304.867 105.62C298.421 105.62 293.196 110.844 293.196 117.288C293.196 123.732 298.421 128.956 304.867 128.956Z" fill="#FBB3B2"/>
<path d="M308.08 136.521C308.704 135.174 309.605 133.973 310.724 132.996C312.368 131.555 314.616 130.388 315.004 128.237L318.565 132.384C318.759 132.576 318.909 132.807 319.006 133.062C319.051 133.302 319.044 133.547 318.987 133.784C318.929 134.02 318.821 134.241 318.671 134.433C317.79 135.838 316.401 136.843 315.088 137.861C312.077 140.245 309.195 142.786 306.453 145.475C306.333 145.615 306.171 145.714 305.991 145.757C305.82 145.762 305.653 145.714 305.51 145.62C303.145 144.379 301.051 142.677 299.353 140.615C299.225 140.461 299.066 140.284 298.859 140.298C298.734 140.321 298.619 140.38 298.529 140.469C297.343 141.439 296.047 142.598 294.527 142.448C296.497 141.033 297.612 138.672 298.026 136.279C298.108 135.46 298.277 134.652 298.529 133.869C298.659 133.477 298.884 133.123 299.184 132.839C299.484 132.554 299.849 132.348 300.248 132.238C299.287 133.706 299.944 135.786 301.235 136.971C302.49 138.036 303.994 138.765 305.607 139.09C307.106 139.372 307.547 137.676 308.08 136.521Z" fill="#323444"/>
<path d="M292.896 205.472C294.557 205.881 296.131 206.578 297.744 207.093C300.684 208.014 303.778 208.339 306.846 208.049C307.79 208.029 308.708 207.737 309.49 207.208C309.697 207.04 309.887 206.842 310.107 206.688C310.476 206.467 310.876 206.302 311.293 206.199C315.335 204.934 318.72 202.207 322.003 199.536C322.109 199.448 322.228 199.338 322.219 199.197C322.204 199.101 322.158 199.013 322.087 198.946L320.359 196.963C315.828 197.734 311.187 197.443 306.59 197.329C305.646 197.287 304.701 197.312 303.76 197.404C302.852 197.509 301.958 197.739 301.063 197.932C297.665 198.673 294.192 198.955 290.749 199.439C290.508 199.457 290.275 199.53 290.066 199.651C289.921 199.763 289.797 199.9 289.7 200.056L288.493 201.753C288.024 202.323 287.679 202.985 287.479 203.696C287.197 205.018 287.787 205.458 288.911 205.287C290.239 205.092 291.592 205.155 292.896 205.472Z" fill="#323444"/>
<path d="M306.405 143.457C305.057 142.076 303.528 140.883 301.861 139.91C301.187 139.482 300.44 139.183 299.657 139.029C299.263 138.951 298.857 138.96 298.467 139.056C298.077 139.152 297.713 139.332 297.4 139.584C297.008 139.932 296.761 140.417 296.382 140.782C295.905 141.183 295.358 141.492 294.769 141.694C292.763 142.551 290.861 143.635 289.101 144.924C288.141 145.595 287.277 146.393 286.531 147.295C284.535 149.851 284.235 153.327 284.288 156.57C284.327 158.826 286.492 160.501 287.981 162.188C289.379 163.849 290.643 165.617 291.763 167.476C292.565 168.745 293.403 170.12 293.301 171.631C293.218 172.869 292.495 174.033 292.609 175.266C292.649 175.707 292.79 176.112 292.83 176.54C292.909 177.421 292.561 178.302 292.473 179.183C292.354 180.43 292.759 181.669 292.781 182.924C292.765 183.784 292.656 184.64 292.455 185.476C291.609 189.503 290.547 193.553 290.763 197.664L288.321 198.104C288.552 198.331 288.727 198.609 288.831 198.915C288.935 199.222 288.965 199.549 288.919 199.869C288.873 200.19 288.752 200.495 288.566 200.76C288.38 201.025 288.135 201.243 287.849 201.396C291.662 202.669 295.783 202.026 299.824 202.021C303.17 202.021 306.502 202.462 309.843 202.4C313.184 202.339 316.631 201.735 319.385 199.845C320.135 199.334 320.822 198.734 321.611 198.289C322.668 197.742 323.807 197.37 324.983 197.188C327.162 196.772 329.376 196.575 331.594 196.597C332.678 196.597 333.86 196.641 334.724 195.989C335.676 195.267 335.918 193.958 336.046 192.773C336.174 191.521 336.253 190.265 336.275 189.01C336.312 188.032 336.26 187.052 336.121 186.084C335.988 185.376 335.816 184.675 335.605 183.986L333.943 178.135C333.256 175.72 334.212 173.072 334.415 170.569C334.463 169.979 334.472 169.291 334.018 168.912C333.855 168.776 333.63 168.683 333.578 168.472C333.554 168.371 333.551 168.267 333.569 168.166C333.587 168.064 333.626 167.967 333.683 167.881C334.565 166.119 335.887 164.563 337.095 162.973C339.123 160.182 341.006 157.289 342.736 154.305C342.195 148.061 339.564 142.181 335.27 137.614C334.389 136.658 333.379 135.741 332.145 135.31C331.339 135.063 330.502 134.929 329.659 134.909C326.204 134.675 322.607 134.468 319.597 132.732C319.381 132.582 319.136 132.479 318.878 132.428C318.213 132.353 317.728 133.01 317.296 133.53C316.185 134.851 314.55 135.609 313.113 136.583C310.433 138.403 308.34 140.906 306.405 143.457Z" fill="#5B5583"/>
<path d="M343.036 156.108C343.724 158.284 343.658 160.611 343.883 162.88C344.016 164.249 344.256 165.606 344.601 166.938C344.758 167.67 345.042 168.37 345.438 169.005C345.835 169.587 346.404 170.058 346.655 170.715C346.792 171.159 346.853 171.624 346.836 172.089L346.888 175.13C347.002 176.741 346.756 178.357 346.17 179.862L344.27 185.639C343.243 188.767 342.19 191.944 340.339 194.667C340.078 195.128 339.683 195.499 339.206 195.729C338.833 195.828 338.45 195.887 338.065 195.906C337.393 196.025 336.783 196.376 336.342 196.896C335.9 197.416 335.654 198.074 335.645 198.756C335.204 198.112 334.653 197.55 334.018 197.095L330.153 194.011C328.831 192.936 327.451 191.843 325.847 191.222C328.004 190.548 329.92 189.262 331.361 187.521C332.803 185.78 333.707 183.658 333.965 181.413C333.964 180.745 334.115 180.085 334.406 179.483C334.728 178.963 335.323 178.567 335.367 177.954C335.42 177.183 334.547 176.601 334.547 175.83C334.547 175.319 334.926 174.896 335.094 174.416C335.25 173.822 335.25 173.198 335.094 172.605L334.56 169.644C334.529 169.347 334.439 169.06 334.296 168.798C334.096 168.547 333.875 168.314 333.635 168.102C332.718 167.075 333.124 165.458 333.635 164.193C334.809 161.386 336.322 158.733 338.139 156.293C338.786 155.473 339.385 154.617 339.933 153.728C340.401 152.917 340.506 151.794 341 151.084C341.635 152.75 342.494 154.393 343.036 156.108Z" fill="#5B5583"/>
<path d="M325.71 191.402C325.513 191.548 325.343 191.727 325.208 191.931C324.688 192.583 323.997 193.076 323.211 193.354C323.652 193.671 324.053 193.984 324.467 194.306C327.533 196.673 330.34 199.356 332.842 202.312C333.119 201.321 334.781 201.391 335.186 200.444C335.282 200.173 335.312 199.883 335.275 199.598C335.19 198.114 334.978 196.639 334.64 195.192C334.506 194.446 334.205 193.741 333.758 193.13C333.141 192.385 332.18 192.028 331.264 191.719C329.875 191.235 327.121 190.552 325.71 191.402Z" fill="#323444"/>
<path d="M320.201 194.866C318.878 195.844 317.719 197.069 316.234 197.739C315.185 198.214 313.99 198.422 313.074 199.131C313.572 200.228 314.867 200.797 316.071 200.752C317.275 200.634 318.429 200.211 319.425 199.523C320.214 199.038 321.139 198.474 321.999 198.814C322.131 199.483 321.558 200.114 321.558 200.792C321.558 201.471 322.122 201.964 322.678 202.321C325.322 204.026 328.725 203.885 331.876 203.687C332.057 203.694 332.235 203.641 332.383 203.537C332.451 203.458 332.503 203.365 332.536 203.265C332.568 203.166 332.581 203.06 332.573 202.956C332.612 202.259 332.63 201.568 332.634 200.871C332.723 200.31 332.65 199.735 332.424 199.214C332.198 198.692 331.827 198.246 331.356 197.928C329.646 196.458 327.801 195.153 325.847 194.028C323.907 192.905 321.942 193.57 320.201 194.866Z" fill="#FBB3B2"/>
<path d="M308.966 112.41C307.009 112.643 305.585 114.172 305.783 115.834C305.982 117.495 307.727 118.641 309.684 118.403C311.641 118.165 313.065 116.64 312.866 114.983C312.668 113.326 310.923 112.176 308.966 112.41ZM309.631 117.944C307.974 118.143 306.497 117.169 306.326 115.768C306.154 114.366 307.366 113.071 309.019 112.873C310.671 112.674 312.152 113.648 312.324 115.049C312.496 116.451 311.284 117.746 309.631 117.944V117.944Z" fill="#3C354C"/>
<path d="M299.428 113.556C297.471 113.789 296.047 115.318 296.245 116.975C296.444 118.632 298.189 119.782 300.146 119.548C302.103 119.315 303.527 117.786 303.328 116.124C303.13 114.463 301.385 113.322 299.428 113.556ZM300.093 119.086C298.436 119.284 296.96 118.31 296.792 116.913C296.625 115.516 297.828 114.217 299.485 114.014C301.142 113.811 302.619 114.789 302.786 116.191C302.954 117.592 301.746 118.887 300.093 119.086Z" fill="#3C354C"/>
<path d="M292.345 114.406L296.598 115.314L296.179 116.433L292.168 115.256L292.345 114.406Z" fill="#3C354C"/>
<path d="M316.053 111.56L312.13 113.45L312.805 114.437L316.423 112.344L316.053 111.56Z" fill="#3C354C"/>
<path d="M302.936 115.032L305.92 114.675L305.766 115.415L303.205 115.587L302.936 115.032Z" fill="#3C354C"/>
<path d="M297.149 114.031C297.43 113.428 297.58 112.772 297.59 112.106C297.6 111.707 297.669 111.313 297.793 110.934C298.009 110.453 298.339 110.031 298.753 109.704C300.129 108.541 302.099 107.942 304.043 107.858C306.162 107.761 308.27 108.216 310.16 109.18C310.738 109.451 311.255 109.834 311.681 110.308C312.298 111.062 312.43 112.035 313.052 112.78C313.476 113.232 314.009 113.567 314.601 113.752C315.192 113.937 315.822 113.967 316.428 113.838C316.644 113.071 316.362 112.26 316.472 111.476C316.646 110.804 316.88 110.149 317.173 109.519C317.856 107.506 316.86 105.17 314.806 103.967C314.087 103.527 313.237 103.24 312.699 102.646C312.161 102.051 312.033 101.434 311.663 100.839C310.68 99.2659 308.137 98.53 306.202 99.2571C305.594 99.4862 305.056 99.8343 304.439 100.081C303.293 100.553 301.989 100.636 300.728 100.795C299.486 100.91 298.27 101.228 297.132 101.738C296.043 102.275 295.13 103.139 294.879 104.17C294.76 104.646 294.787 105.14 294.668 105.611C294.059 108.004 290.132 109.167 289.912 111.608C289.833 112.489 290.313 113.335 290.912 114.054C291.327 114.543 292.318 115.851 293.019 116.041C293.72 116.23 294.253 115.565 294.923 115.336C295.981 115.005 296.62 114.935 297.149 114.031Z" fill="#CBCEDA"/>
<path d="M346.871 269.227C346.871 291.364 360.763 309.28 377.931 309.28Z" fill="#46455B"/>
<path d="M377.931 309.285C377.931 286.896 393.437 268.782 412.596 268.782Z" fill="#68D391"/>
<path d="M358.128 271.236C358.128 292.268 366.987 309.285 377.931 309.285Z" fill="#68D391"/>
<path d="M377.931 309.285C377.931 280.679 395.852 257.528 417.996 257.528Z" fill="#46455B"/>
<path opacity="0.1" d="M376.587 316.934C380.851 316.934 384.309 316.35 384.309 315.63C384.309 314.91 380.851 314.326 376.587 314.326C372.322 314.326 368.865 314.91 368.865 315.63C368.865 316.35 372.322 316.934 376.587 316.934Z" fill="#68D391"/>
<path d="M371.399 309.567C371.399 309.567 375.806 309.43 377.129 308.487C378.451 307.544 383.903 306.412 384.234 307.928C384.564 309.444 390.845 315.467 385.878 315.507C380.91 315.546 374.321 314.731 372.999 313.925C371.676 313.118 371.399 309.567 371.399 309.567Z" fill="#A8A8A8"/>
<path opacity="0.2" d="M385.97 314.978C380.998 315.017 374.418 314.202 373.091 313.396C372.082 312.783 371.681 310.576 371.544 309.562H371.399C371.399 309.562 371.676 313.114 373.003 313.92C374.33 314.727 380.91 315.542 385.882 315.502C387.319 315.502 387.813 314.978 387.786 314.224C387.588 314.683 387.063 314.969 385.97 314.978Z" fill="black"/>
<path d="M9.9126 282.164C9.9126 299.789 20.9624 314.03 34.6214 314.03Z" fill="#46455B"/>
<path d="M34.6213 314.03C34.6213 296.22 46.9625 281.807 62.1995 281.807Z" fill="#68D391"/>
<path d="M18.8644 283.768C18.8644 300.512 25.9165 314.039 34.6214 314.039Z" fill="#68D391"/>
<path d="M34.6213 314.03C34.6213 291.272 48.8798 272.853 66.4968 272.853Z" fill="#46455B"/>
<path opacity="0.1" d="M33.5504 320.12C36.9437 320.12 39.6945 319.654 39.6945 319.08C39.6945 318.506 36.9437 318.04 33.5504 318.04C30.1571 318.04 27.4062 318.506 27.4062 319.08C27.4062 319.654 30.1571 320.12 33.5504 320.12Z" fill="#68D391"/>
<path d="M29.4249 314.255C29.4249 314.255 32.9289 314.145 33.9823 313.374C35.0358 312.603 39.3772 311.722 39.6372 312.933C39.8973 314.145 44.9043 318.93 40.9595 318.961C37.0147 318.992 31.7653 318.344 30.7119 317.705C29.6585 317.066 29.4249 314.255 29.4249 314.255Z" fill="#A8A8A8"/>
<path opacity="0.2" d="M41.0168 318.578C37.05 318.609 31.8226 317.961 30.7692 317.318C29.9671 316.833 29.6497 315.075 29.5395 314.268H29.4249C29.4249 314.268 29.6453 317.093 30.6987 317.736C31.7521 318.38 36.9927 319.023 40.9463 318.992C42.0879 318.992 42.4845 318.578 42.4625 317.974C42.3038 318.327 41.8675 318.551 41.0168 318.578Z" fill="black"/>
</g>
<defs>
<clipPath id="clip0">
<rect width="418" height="334" fill="white"/>
</clipPath>
</defs>
</svg>
