<svg width="500" height="300" viewBox="0 0 399 262" fill="none" xmlns="http://www.w3.org/2000/svg">
<g clip-path="url(#clip0)">
<path d="M147.906 75.7129C81.1748 128.653 114.796 151.426 73.9528 151.426C33.1098 151.426 0 117.528 0 75.7129C0 33.8978 33.1098 0 73.9528 0C114.796 0 214.637 22.773 147.906 75.7129Z" fill="#F2F2F2"/>
<path d="M163.59 153.879C163.59 162.678 131.921 182.678 90.1704 182.678C48.4196 182.678 12.2305 162.678 12.2305 153.879C12.2305 151.679 15.7753 154.412 19.5975 152.508C30.7249 146.957 57.2579 151.049 87.3727 150.82C88.3017 150.812 89.2343 150.807 90.1704 150.807C131.921 150.807 163.59 145.081 163.59 153.879Z" fill="#3F3D56"/>
<path opacity="0.1" d="M163.59 153.879C163.59 162.678 131.921 182.678 90.1704 182.678C48.4196 182.678 12.2305 162.678 12.2305 153.879C12.2305 151.679 15.7753 154.412 19.5975 152.508C30.7249 146.957 57.2579 151.049 87.3727 150.82C88.3017 150.812 89.2343 150.807 90.1704 150.807C131.921 150.807 163.59 145.081 163.59 153.879Z" fill="black"/>
<path d="M163.422 153.715C163.422 162.513 129.577 169.65 87.8263 169.65C46.0755 169.65 12.2305 162.513 12.2305 153.715C12.2305 151.514 14.3429 149.421 18.1651 147.517C29.2925 141.966 54.9139 138.021 85.0286 137.793C85.9576 137.784 86.8902 137.78 87.8263 137.78C129.577 137.78 163.422 144.916 163.422 153.715Z" fill="#3F3D56"/>
<path opacity="0.1" d="M85.9276 138.119C82.7165 143.479 78.362 148.025 73.1905 151.416C68.0189 154.807 62.1646 156.955 56.0665 157.7C49.9685 158.445 43.7848 157.767 37.9792 155.716C32.1736 153.666 26.8968 150.296 22.5443 145.86C33.0926 141.441 57.3803 138.301 85.9276 138.119Z" fill="black"/>
<path d="M52.0794 151.137C72.7928 151.137 89.5844 132.718 89.5844 109.996C89.5844 87.2753 72.7928 68.8562 52.0794 68.8562C31.366 68.8562 14.5745 87.2753 14.5745 109.996C14.5745 132.718 31.366 151.137 52.0794 151.137Z" fill="#3F3D56"/>
<path d="M92.8821 46.2532V55.8974L88.0449 61.6317C88.0449 61.6317 86.0081 60.8498 86.0081 55.6367L85.2443 48.0777L92.8821 46.2532Z" fill="#FFB9B9"/>
<path d="M88.0449 55.8974C88.0449 55.8974 95.9373 50.4236 96.1919 48.5991C96.4465 46.7745 107.649 38.4336 105.866 43.6466C104.084 48.8597 98.4833 51.2056 98.4833 51.2056C98.4833 51.2056 94.1551 63.1957 90.3362 62.935C86.5173 62.6744 86.5173 57.7219 88.0449 55.8974Z" fill="#FFB9B9"/>
<path d="M83.4622 114.544L82.6984 119.236L86.772 118.194V114.544H83.4622Z" fill="#FFB9B9"/>
<path d="M84.2259 117.151C84.2259 117.151 88.9341 114.295 89.1259 115.593C89.3178 116.89 91.3546 121.843 92.373 122.364C93.3913 122.885 94.6643 128.62 92.373 128.359C90.5983 128.157 84.0892 124.672 81.244 123.11C80.8938 122.917 80.6292 122.594 80.5049 122.207C80.3805 121.82 80.4058 121.399 80.5755 121.03C80.7424 120.714 80.8575 120.372 80.9162 120.018C80.9162 119.497 84.2259 117.151 84.2259 117.151Z" fill="#2F2E41"/>
<path d="M81.9346 64.2383C81.9346 64.2383 100.52 73.1006 98.7378 79.8776C96.9556 86.6546 90.3362 115.326 90.3362 115.326C90.3362 115.326 82.953 117.151 82.4438 115.326C81.9346 113.502 87.2811 85.0906 86.7719 84.048C86.2627 83.0054 76.8427 76.2284 76.8427 76.2284L57.4935 67.8875L65.6405 60.0679L81.9346 64.2383Z" fill="#2F2E41"/>
<path d="M95.9373 116.108L98.2287 122.104L94.1551 123.928L91.6091 119.236L95.9373 116.108Z" fill="#FFB9B9"/>
<path d="M82.1892 21.491C82.1892 21.491 79.8979 24.6189 81.68 26.1828C83.4622 27.7467 82.1892 33.4811 82.1892 33.4811L79.8979 39.9975L70.7325 38.1729V27.4861L71.2417 22.273C71.2417 22.273 75.8244 17.8419 76.3336 14.4534C76.8427 11.0649 82.1892 21.491 82.1892 21.491Z" fill="#FFB9B9"/>
<path opacity="0.1" d="M82.1892 21.491C82.1892 21.491 79.8979 24.6189 81.68 26.1828C83.4622 27.7467 82.1892 33.4811 82.1892 33.4811L79.8979 39.9975L70.7325 38.1729V27.4861L71.2417 22.273C71.2417 22.273 75.8244 17.8419 76.3336 14.4534C76.8427 11.0649 82.1892 21.491 82.1892 21.491Z" fill="black"/>
<path d="M66.9135 62.1531C66.9135 62.1531 78.8795 75.7071 78.8795 76.2284C78.8795 76.7497 85.2443 87.4365 85.2443 87.4365L97.7194 115.848C97.7194 115.848 92.8821 122.625 90.8454 122.103C88.8086 121.582 74.2968 91.3463 74.2968 91.3463C74.2968 91.3463 71.7508 84.5693 64.8768 83.0054C58.0027 81.4415 52.6562 75.9677 55.2022 69.712C57.7481 63.4564 66.9135 62.1531 66.9135 62.1531Z" fill="#2F2E41"/>
<path d="M82.1892 23.3156C86.6887 23.3156 90.3362 19.5813 90.3362 14.9747C90.3362 10.3681 86.6887 6.63379 82.1892 6.63379C77.6897 6.63379 74.0422 10.3681 74.0422 14.9747C74.0422 19.5813 77.6897 23.3156 82.1892 23.3156Z" fill="#FFB9B9"/>
<path d="M81.9346 28.5288C81.9346 28.5288 80.9162 34.5238 79.8978 35.0451C78.8795 35.5664 78.1157 37.391 75.8243 34.7845C73.533 32.1779 71.4962 26.9648 71.4962 26.9648L63.6038 36.8697L62.84 64.2383C62.84 64.2383 71.7508 61.8925 74.5514 64.2383C77.3519 66.5842 83.4622 66.3236 83.4622 66.3236L82.1892 61.1105L83.2076 52.2483L82.953 44.168L82.6984 38.4336L81.9346 28.5288Z" fill="#F2F2F2"/>
<path d="M81.0377 24.1415C81.0377 24.1415 84.4805 25.9223 84.7351 26.9649C84.9897 28.0075 89.5724 30.0927 89.5724 30.0927C89.5724 30.0927 91.3546 31.9173 91.3546 32.9599C91.3546 34.0025 85.2443 45.9926 85.2443 45.9926C85.2443 45.9926 83.9713 54.0729 84.4805 55.6368C84.9897 57.2007 83.4622 63.1958 83.4622 63.1958L86.5173 66.8449H83.7168C83.7168 66.8449 80.6616 65.281 80.6616 64.499C80.6616 63.717 81.1708 58.2433 81.4254 55.8974C81.68 53.5516 81.68 45.2106 81.1708 42.3434C80.6616 39.4762 80.9162 31.9173 80.9162 30.0927C80.9162 28.2681 81.0377 24.1415 81.0377 24.1415Z" fill="#3F3D56"/>
<path d="M73.1511 20.1836C73.1511 20.1836 72.0054 20.4485 68.6957 21.4912C65.386 22.5338 60.2941 24.0977 58.5119 26.1829C57.261 27.725 56.153 29.383 55.2022 31.1353L56.2206 49.9024C56.2206 49.9024 54.1838 53.8122 54.4384 55.8974C54.693 57.9827 56.7298 58.2433 55.2022 62.6744C53.6746 67.1056 50.6195 71.0154 53.42 71.5367C56.2206 72.058 63.6038 70.2334 66.9135 71.276C70.2233 72.3186 74.0422 67.3662 74.0422 67.3662C74.0422 67.3662 68.9503 67.8875 69.7141 65.8023C70.4779 63.7171 78.8795 40.2582 77.0973 35.0452C75.3152 29.8321 73.1511 20.1836 73.1511 20.1836Z" fill="#3F3D56"/>
<path d="M90.0816 31.6566L91.3546 32.6992C91.3546 32.6992 94.9189 45.7319 93.9006 47.0352C92.8822 48.3384 84.7351 51.2056 84.2259 49.3811C83.7167 47.5565 90.0816 31.6566 90.0816 31.6566Z" fill="#3F3D56"/>
<path d="M52.4017 40.7794C52.4017 40.7794 48.5828 51.9875 48.5828 55.1154C48.5828 58.2432 49.0919 76.489 49.0919 76.489C49.0919 76.489 49.3465 84.3086 54.693 81.1807C60.0395 78.0529 54.693 75.9677 54.693 75.9677C54.693 75.9677 54.9476 55.376 56.9844 52.5088C59.0211 49.6416 59.7849 45.4712 59.7849 45.4712L52.4017 40.7794Z" fill="#FFB9B9"/>
<path d="M94.1551 121.843C94.1551 121.843 97.974 119.758 98.7378 121.321C99.5016 122.885 103.575 131.487 103.066 132.53C102.557 133.572 99.7562 137.743 96.4465 136.7C93.1367 135.657 92.8822 130.184 92.8822 130.184L92.6276 123.928L94.1551 121.843Z" fill="#2F2E41"/>
<path d="M83.7845 12.96C83.2233 13.2305 82.5576 13.3921 82.2049 13.9145C81.9436 14.3016 81.9176 14.8046 81.727 15.2327C81.5189 15.6567 81.1607 15.9834 80.7254 16.1464C80.2902 16.3093 79.8106 16.2962 79.3845 16.1098C79.2804 15.5906 78.9855 15.1321 78.5607 14.829C78.3462 14.6845 78.0921 14.6144 77.8357 14.6288C77.5793 14.6432 77.3341 14.7414 77.1363 14.9091C76.6116 15.4213 76.7973 16.3144 76.5524 17.0131C76.3226 17.5046 76.0063 17.9486 75.6195 18.3229C75.0622 18.9811 74.6183 19.7531 73.9472 20.2886C73.2762 20.8241 72.2585 21.0562 71.5918 20.515C71.0312 20.0599 70.915 19.2204 71.0511 18.5013C71.1873 17.7822 71.5249 17.12 71.7153 16.414C72.334 14.1198 71.3476 11.6705 71.6528 9.31108C72.0438 6.28782 74.5537 3.89976 77.3552 2.86339C78.521 2.37735 79.7973 2.23891 81.0367 2.46405C82.3179 2.75693 83.4123 3.592 84.6394 4.0696C85.9516 4.58033 87.3784 4.66951 88.7516 4.9681C90.1248 5.26668 91.5379 5.84398 92.3348 7.02721C92.8906 7.85249 93.0816 8.8774 93.5422 9.76199C94.0724 10.7717 94.9312 11.5594 95.9696 11.9884L94.518 11.9037C94.7613 12.5671 95.1582 13.1601 95.6746 13.6319C94.9939 13.7741 94.2863 13.6783 93.6651 13.36C93.6763 13.6654 93.7486 13.9653 93.8774 14.241C94.0063 14.5168 94.189 14.7626 94.4143 14.9632C93.2973 14.9287 92.1194 14.876 91.1755 14.2634C90.7132 13.9634 90.3362 13.5455 89.9012 13.2054C88.9739 12.4804 87.8234 12.1363 86.7019 11.8068C86.113 11.6338 85.4042 11.3932 84.8716 11.7809C84.4281 12.1038 84.3581 12.6836 83.7845 12.96Z" fill="#2F2E41"/>
<path d="M59.0211 28.0074L55.2022 31.1353L50.1103 43.1254C50.1103 43.1254 57.2389 48.8597 59.0211 48.0778C60.8032 47.2958 63.8584 33.4812 63.8584 33.4812L59.0211 28.0074Z" fill="#3F3D56"/>
<path d="M116.299 42.3144L100.23 51.3511C100.136 51.4144 100.031 51.4561 99.9203 51.4732C99.8097 51.4903 99.6968 51.4824 99.5895 51.45C99.4823 51.4176 99.3833 51.3615 99.2994 51.2857C99.2156 51.2099 99.1491 51.1162 99.1044 51.0113L95.1679 42.5872C95.0933 42.3471 95.1055 42.0875 95.2021 41.8557C95.2987 41.624 95.4734 41.4354 95.6944 41.3245L109.036 34.284C109.2 34.1828 109.395 34.1472 109.584 34.1841C109.772 34.221 109.94 34.3277 110.057 34.4838L116.721 40.9116C116.787 41.0313 116.828 41.1634 116.842 41.2999C116.856 41.4364 116.843 41.5745 116.804 41.7056C116.764 41.8368 116.699 41.9584 116.612 42.0631C116.525 42.1677 116.419 42.2532 116.299 42.3144V42.3144Z" fill="#2F2E41"/>
<path d="M115.227 41.07L100.162 49.8853L96.1529 42.4883L109.076 35.2932L115.227 41.07Z" fill="#38A169"/>
<path d="M102.587 38.522C102.665 38.4257 102.664 38.2921 102.584 38.2236C102.504 38.1551 102.375 38.1776 102.297 38.2739C102.218 38.3702 102.219 38.5038 102.3 38.5723C102.38 38.6408 102.508 38.6182 102.587 38.522Z" fill="#F2F2F2"/>
<path d="M108.132 46.0485C108.184 45.9843 108.183 45.8953 108.13 45.8496C108.076 45.804 107.991 45.819 107.938 45.8832C107.886 45.9473 107.887 46.0364 107.94 46.0821C107.994 46.1277 108.079 46.1127 108.132 46.0485Z" fill="#F2F2F2"/>
<path d="M32.4948 150.738C32.4948 156.709 29.0281 158.794 24.751 158.794C24.6519 158.794 24.5528 158.793 24.4545 158.79C24.2563 158.786 24.0596 158.776 23.8658 158.763C20.0056 158.483 17.0071 156.291 17.0071 150.738C17.0071 144.993 24.1787 137.742 24.7189 137.204L24.7196 137.203C24.7403 137.182 24.751 137.172 24.751 137.172C24.751 137.172 32.4948 144.768 32.4948 150.738Z" fill="#38A169"/>
<path d="M24.4688 157.88L27.3012 153.829L24.4616 158.326L24.4545 158.79C24.2564 158.786 24.0597 158.776 23.8658 158.763L24.1708 152.789L24.1687 152.743L24.1737 152.735L24.2029 152.17L21.3563 147.662L24.2115 151.747L24.2186 151.866L24.4488 147.353L22.012 142.695L24.4787 146.561L24.7189 137.204L24.7196 137.172V137.203L24.6797 144.582L27.1059 141.656L24.6698 145.217L24.6056 149.258L26.8714 145.38L24.5963 149.853L24.5607 152.1L27.8485 146.701L24.5479 152.883L24.4688 157.88Z" fill="#3F3D56"/>
<path d="M140.656 138.396C140.656 144.367 137.19 146.452 132.913 146.452C132.813 146.452 132.714 146.45 132.616 146.448C132.418 146.444 132.221 146.434 132.027 146.421C128.167 146.141 125.169 143.949 125.169 138.396C125.169 132.65 132.34 125.399 132.88 124.862L132.881 124.861C132.902 124.84 132.913 124.83 132.913 124.83C132.913 124.83 140.656 132.426 140.656 138.396Z" fill="#38A169"/>
<path d="M132.63 145.538L135.463 141.487L132.623 145.983L132.616 146.448C132.418 146.444 132.221 146.434 132.027 146.421L132.332 140.447L132.33 140.401L132.335 140.393L132.364 139.828L129.518 135.32L132.373 139.405L132.38 139.524L132.61 135.011L130.173 130.353L132.64 134.219L132.88 124.862L132.881 124.83V124.861L132.841 132.24L135.267 129.314L132.831 132.875L132.767 136.916L135.033 133.038L132.758 137.511L132.722 139.758L136.01 134.359L132.709 140.541L132.63 145.538Z" fill="#3F3D56"/>
<path d="M301.119 89.6417H172.38V162.214H301.119V89.6417Z" fill="#F2F2F2"/>
<path opacity="0.3" d="M193.954 126.729C199.814 126.729 204.565 121.865 204.565 115.866C204.565 109.866 199.814 105.003 193.954 105.003C188.094 105.003 183.344 109.866 183.344 115.866C183.344 121.865 188.094 126.729 193.954 126.729Z" fill="#38A169"/>
<path opacity="0.3" d="M236.75 126.729C242.609 126.729 247.36 121.865 247.36 115.866C247.36 109.866 242.609 105.003 236.75 105.003C230.89 105.003 226.139 109.866 226.139 115.866C226.139 121.865 230.89 126.729 236.75 126.729Z" fill="#38A169"/>
<path opacity="0.3" d="M279.545 126.729C285.405 126.729 290.155 121.865 290.155 115.866C290.155 109.866 285.405 105.003 279.545 105.003C273.685 105.003 268.934 109.866 268.934 115.866C268.934 121.865 273.685 126.729 279.545 126.729Z" fill="#38A169"/>
<path opacity="0.3" d="M208.278 134.876H179.277V137.772H208.278V134.876Z" fill="#38A169"/>
<path opacity="0.3" d="M251.427 134.876H222.425V137.772H251.427V134.876Z" fill="#38A169"/>
<path d="M294.576 134.876H265.574V137.772H294.576V134.876Z" fill="#38A169"/>
<path d="M399 231.584C399 240.877 365.552 262 321.456 262C277.359 262 239.137 240.877 239.137 231.584C239.137 229.259 242.881 232.146 246.918 230.135C258.67 224.272 286.694 228.594 318.501 228.353C319.482 228.344 320.467 228.339 321.456 228.339C365.552 228.339 399 222.291 399 231.584Z" fill="#3F3D56"/>
<path opacity="0.1" d="M399 231.584C399 240.877 365.552 262 321.456 262C277.359 262 239.137 240.877 239.137 231.584C239.137 229.259 242.881 232.146 246.918 230.135C258.67 224.272 286.694 228.594 318.501 228.353C319.482 228.344 320.467 228.339 321.456 228.339C365.552 228.339 399 222.291 399 231.584Z" fill="black"/>
<path d="M398.823 231.41C398.823 240.703 363.077 248.24 318.98 248.24C274.883 248.24 239.137 240.703 239.137 231.41C239.137 229.086 241.368 226.875 245.405 224.864C257.157 219.001 284.218 214.834 316.025 214.593C317.006 214.584 317.991 214.58 318.98 214.58C363.077 214.58 398.823 222.117 398.823 231.41Z" fill="#3F3D56"/>
<path d="M323.116 216.464C333.672 216.464 342.229 206.529 342.229 194.272C342.229 182.016 333.672 172.08 323.116 172.08C312.56 172.08 304.003 182.016 304.003 194.272C304.003 206.529 312.56 216.464 323.116 216.464Z" fill="#36334A"/>
<path d="M331.513 154.119L302.788 155.024C302.788 155.024 273.32 183.338 294.311 191.029C294.311 191.029 324.221 192.35 330.408 187.373C330.408 187.373 338.141 156.155 331.513 154.119ZM330.187 162.489L299.473 164.525C299.473 164.525 301.683 156.833 310.521 156.833C319.36 156.833 329.303 154.797 330.187 159.548C331.071 164.298 330.187 162.489 330.187 162.489Z" fill="#3F3D56"/>
<path d="M360.9 171.99L323.116 170.633L331.955 132.402C331.955 132.402 367.308 129.687 366.424 138.962C365.54 148.237 360.9 171.99 360.9 171.99Z" fill="#36334A"/>
<path d="M324.424 190.265C324.424 190.265 301.683 194.386 293.508 182.17C285.332 169.954 324.442 176.514 324.442 176.514L327.756 185.789L324.424 190.265Z" fill="#36334A"/>
<path d="M317.592 242.118C323.328 242.118 327.977 237.357 327.977 231.485C327.977 225.613 323.328 220.853 317.592 220.853C311.857 220.853 307.207 225.613 307.207 231.485C307.207 237.357 311.857 242.118 317.592 242.118Z" fill="#36334A"/>
<path d="M318.586 239.177C322.186 239.177 325.105 235.733 325.105 231.485C325.105 227.238 322.186 223.794 318.586 223.794C314.986 223.794 312.068 227.238 312.068 231.485C312.068 235.733 314.986 239.177 318.586 239.177Z" fill="#3F3D56"/>
<path d="M374.379 131.271C374.379 131.271 365.761 126.294 365.319 138.057L358.028 192.802H361.121L369.518 134.211C369.518 134.211 373.716 134.89 374.379 134.89C375.042 134.89 374.379 131.271 374.379 131.271Z" fill="#3F3D56"/>
<path d="M382.965 137.311C382.887 137.602 382.748 137.871 382.559 138.103C382.37 138.334 382.135 138.521 381.869 138.652C381.604 138.782 381.314 138.853 381.02 138.86C380.725 138.867 380.433 138.809 380.162 138.69L370.165 134.314L371.979 130.225L381.831 134.819C382.279 135.028 382.639 135.394 382.847 135.851C383.055 136.308 383.097 136.825 382.965 137.311V137.311Z" fill="#36334A"/>
<path d="M322.232 188.956C322.232 188.956 306.323 187.147 301.904 202.756C297.485 218.365 297.927 230.354 294.17 229.449C290.414 228.545 282.46 225.377 282.46 225.377L283.122 230.128C283.122 230.128 297.043 237.367 299.253 229.676C301.462 221.984 302.788 193.707 315.383 194.386C327.977 195.064 330.187 193.707 330.187 193.707L322.232 188.956Z" fill="#3F3D56"/>
<path d="M291.961 181.491C291.961 181.491 279.587 183.075 274.726 192.35C269.865 201.625 267.434 218.365 267.434 218.365H272.074C272.074 218.365 274.726 185.111 288.646 186.92L291.961 181.491Z" fill="#3F3D56"/>
<path d="M283.564 233.295L263.899 220.853C263.899 220.853 262.794 216.329 275.389 214.519C275.389 214.519 299.201 223.045 296.907 226.247C294.612 229.449 286.879 234.426 283.564 233.295Z" fill="#36334A"/>
<path d="M320.075 161.784C320.68 162.46 331.824 173.314 331.824 173.314C331.824 173.314 330.716 180.89 318.794 181.83L298.923 183.397C298.923 183.397 295.167 197.509 290.701 202.018C286.235 206.528 288.285 206.78 286.609 208.978C284.933 211.176 287.285 211.765 284.741 211.978C282.197 212.192 276.941 209.043 276.884 206.607C276.826 204.171 278.311 202.776 278.97 202.156C279.63 201.536 281.302 195.607 282.305 194.352C283.308 193.098 287.104 178.015 287.104 178.015C287.104 178.015 290.894 170.719 296.147 170.136C301.4 169.554 307.244 166.939 307.244 166.939" fill="#2F2E41"/>
<path opacity="0.1" d="M320.075 161.784C320.68 162.46 331.824 173.314 331.824 173.314C331.824 173.314 330.716 180.89 318.794 181.83L298.923 183.397C298.923 183.397 295.167 197.509 290.701 202.018C286.235 206.528 288.285 206.78 286.609 208.978C284.933 211.176 287.285 211.765 284.741 211.978C282.197 212.192 276.941 209.043 276.884 206.607C276.826 204.171 278.311 202.776 278.97 202.156C279.63 201.536 281.302 195.607 282.305 194.352C283.308 193.098 287.104 178.015 287.104 178.015C287.104 178.015 290.894 170.719 296.147 170.136C301.4 169.554 307.244 166.939 307.244 166.939" fill="black"/>
<path d="M300.799 125.557C300.799 125.557 296.618 113.924 293.755 117.631C290.893 121.338 298.361 127.425 298.361 127.425L300.799 125.557Z" fill="#A0616A"/>
<path d="M322.828 131.63L320.447 130.599C320.447 130.599 316.077 133.623 315.789 134.604C315.501 135.586 316.125 135.242 314.408 136.106C312.691 136.97 308.002 139.061 307.378 139.404C306.755 139.748 299.696 126.963 301.384 125.127C301.384 125.127 298.225 126.293 296.787 125.851C296.787 125.851 300.377 143.675 300.924 146.09C301.47 148.505 302.746 148.79 305.124 148.879C307.502 148.967 321.945 144.629 321.945 144.629L322.828 131.63Z" fill="#575A89"/>
<path d="M285.576 208.232C285.576 208.232 285.455 210.76 285.868 211.051C286.28 211.342 288.828 217.494 284.903 218.087C280.979 218.681 278.824 217.908 277.875 218.235C276.926 218.562 261.282 217.24 261.403 214.712C261.523 212.183 269.345 212.844 269.345 212.844C269.345 212.844 277.093 209.096 278.543 206.759C279.994 204.421 285.576 208.232 285.576 208.232Z" fill="#2F2E41"/>
<path opacity="0.1" d="M285.576 208.232C285.576 208.232 285.455 210.76 285.868 211.051C286.28 211.342 288.828 217.494 284.903 218.087C280.979 218.681 278.824 217.908 277.875 218.235C276.926 218.562 261.282 217.24 261.403 214.712C261.523 212.183 269.345 212.844 269.345 212.844C269.345 212.844 277.093 209.096 278.543 206.759C279.994 204.421 285.576 208.232 285.576 208.232Z" fill="black"/>
<path d="M293.648 221.551C293.648 221.551 291.269 232.164 289.523 232.055C287.778 231.947 275.457 225.808 273.941 224.592C271.994 223.031 272.071 220.272 274.305 220.852C276.54 221.431 282.859 220.911 283.933 219.743L286.696 216.739L293.648 221.551Z" fill="#2F2E41"/>
<path d="M318.04 162.586C318.692 163.214 338.522 180.437 338.522 180.437C338.522 180.437 337.956 188.075 326.131 189.9L306.424 192.942C306.424 192.942 303.68 207.296 299.546 212.126C295.413 216.956 297.475 217.054 295.959 219.371C294.444 221.688 296.832 222.101 294.309 222.503C291.787 222.905 286.321 220.156 286.091 217.731C285.861 215.306 287.243 213.804 287.856 213.136C288.47 212.468 289.717 206.43 290.628 205.105C291.54 203.78 294.255 188.454 294.255 188.454C294.255 188.454 297.516 180.895 302.714 179.923C307.912 178.952 313.555 175.908 313.555 175.908" fill="#2F2E41"/>
<path d="M336.294 125.274C341.487 125.274 345.696 120.964 345.696 115.648C345.696 110.331 341.487 106.021 336.294 106.021C331.101 106.021 326.891 110.331 326.891 115.648C326.891 120.964 331.101 125.274 336.294 125.274Z" fill="#A0616A"/>
<path d="M341.222 121.657C341.222 121.657 339.812 127.538 341.96 130.552C344.108 133.566 327.594 132.131 327.594 132.131C327.594 132.131 332.064 122.589 330.415 120.37C328.765 118.151 341.222 121.657 341.222 121.657Z" fill="#A0616A"/>
<path d="M320.114 130.903C318.119 133.073 318.799 145.375 318.799 145.375L320.074 156.361C320.074 156.361 318.549 158.354 319.047 159.15C319.546 159.945 320.361 160.73 318.788 161.103C317.215 161.476 313.59 162.075 314.751 163.823C315.13 164.318 315.535 164.791 315.966 165.239C316.336 165.64 316.775 166.105 317.274 166.623C318.44 167.829 319.924 169.312 321.569 170.876C322.035 171.322 322.513 171.772 323.003 172.226C329.281 178.041 337.089 184.196 338.704 181.242C341.409 176.294 343.289 175.587 343.164 171.375C343.04 167.163 346.522 156.354 346.522 156.354C346.522 156.354 350.571 137.907 344.865 132.408L343.973 130.947C343.559 130.268 342.947 129.739 342.223 129.436C341.499 129.133 340.701 129.07 339.94 129.257C337.156 129.939 332.887 130.88 331.037 130.728C328.179 130.492 328.806 129.289 328.806 129.289C328.806 129.289 322.109 128.734 320.114 130.903Z" fill="#575A89"/>
<path d="M311.298 170.253C311.298 170.253 299.665 173.207 301.372 177.37C303.078 181.533 313.148 173.925 313.148 173.925L311.298 170.253Z" fill="#A0616A"/>
<path d="M341.497 119.17C341.266 118.882 341.495 118.463 341.696 118.153C342.776 116.493 342.982 114.131 341.794 112.551C341.326 111.962 340.741 111.482 340.077 111.144C339.145 110.638 338.128 110.319 337.08 110.202C336.522 110.194 335.97 110.082 335.451 109.874C335.123 109.703 333.576 109.149 333.244 108.987C332.514 108.632 331.498 108.785 331.03 108.11C330.583 107.464 331.001 106.579 331.435 105.925C332.426 104.432 334.931 103.196 336.651 102.804C337.956 102.507 339.319 102.925 340.528 103.508C341.923 104.217 343.246 105.064 344.478 106.038C346.17 107.322 347.837 108.744 348.853 110.633C349.87 112.521 350.114 114.981 348.966 116.788C348.727 117.165 348.435 117.505 348.211 117.891C347.665 118.833 347.566 119.972 347.18 120.994C346.893 121.741 346.456 122.418 345.897 122.982C345.339 123.545 344.671 123.982 343.938 124.265C342.762 124.71 341.315 124.833 340.621 125.902L340.296 123.674C340.212 123.393 340.224 123.091 340.331 122.818C340.437 122.545 340.632 122.318 340.883 122.174L342.549 120.738C342.881 120.507 343.133 120.174 343.269 119.788C343.629 118.249 341.883 119.648 341.497 119.17Z" fill="#2F2E41"/>
<path opacity="0.1" d="M324.82 161.565L317.274 166.623C318.77 168.172 320.792 170.177 323.003 172.226C325.097 171.072 327.233 169.822 329.144 168.566C336.136 163.972 342.13 152.436 344.816 146.84C347.502 141.244 345.316 136.934 345.316 136.934C343.537 136.127 341.654 135.585 339.725 135.323C336.225 134.783 324.82 161.565 324.82 161.565Z" fill="black"/>
<path opacity="0.1" d="M323.823 159.975L315.966 165.239C316.336 165.64 316.775 166.105 317.274 166.623C318.44 167.829 319.924 169.312 321.569 170.876C323.801 169.656 326.104 168.318 328.147 166.975C335.139 162.381 341.133 150.846 343.819 145.25C346.505 139.654 339.279 141.661 339.279 141.661C339.279 141.661 343.028 139.923 339.528 139.383C336.028 138.843 323.823 159.975 323.823 159.975Z" fill="black"/>
<path d="M344.971 135.972C344.971 135.972 347.157 140.282 344.471 145.878C341.785 151.474 335.791 163.01 328.799 167.604C321.808 172.198 311.805 176.723 311.805 176.723C311.805 176.723 310.856 171.402 309.255 170.803L324.475 160.603C324.475 160.603 335.88 133.821 339.38 134.361C341.309 134.622 343.191 135.165 344.971 135.972Z" fill="#575A89"/>
<path d="M314.057 192.802V219.27H316.929V192.349L314.057 192.802Z" fill="#3F3D56"/>
<path d="M318.255 209.09C318.255 209.09 323.779 231.259 320.244 234.426C320.244 234.426 315.603 220.401 312.068 222.21L313.173 209.09H318.255Z" fill="#36334A"/>
<path d="M361.121 160.905L332.396 161.81C332.396 161.81 306.986 187.147 327.977 194.838C327.977 194.838 353.83 199.136 360.016 194.159C360.016 194.159 367.75 162.941 361.121 160.905ZM359.795 169.275L329.082 171.311C329.082 171.311 331.292 163.62 340.13 163.62C348.968 163.62 358.912 161.584 359.795 166.334C360.679 171.085 359.795 169.275 359.795 169.275V169.275Z" fill="#3F3D56"/>
<path d="M354.603 242.118C370.528 242.118 383.438 227.128 383.438 208.637C383.438 190.147 370.528 175.157 354.603 175.157C338.678 175.157 325.768 190.147 325.768 208.637C325.768 227.128 338.678 242.118 354.603 242.118Z" fill="#36334A"/>
<path d="M355.929 233.521C367.949 233.521 377.693 222.38 377.693 208.637C377.693 194.894 367.949 183.753 355.929 183.753C343.908 183.753 334.164 194.894 334.164 208.637C334.164 222.38 343.908 233.521 355.929 233.521Z" fill="#3F3D56"/>
<path d="M361.563 208.298C361.563 207.864 361.52 207.431 361.437 207.005L377.693 198.684L376.588 196.195L360.167 204.386C360.001 204.211 359.819 204.055 359.621 203.919L359.634 203.922L364.436 179.455L360.188 179.356L357.365 203.434L357.636 203.492C357.416 203.539 357.203 203.613 357.002 203.714L342.8 188.789L340.793 191.671L355.385 205.415C355.019 206.134 354.799 206.922 354.739 207.731L334.164 216.329L333.722 219.948L355.169 210.714C355.369 211.222 355.652 211.691 356.007 212.101L349.41 235.105H351.841L357.378 213.037C357.624 213.118 357.88 213.16 358.138 213.162C358.637 213.157 359.124 213.008 359.543 212.731L371.064 228.318L374.6 225.83L361.1 210.733C361.41 209.96 361.567 209.133 361.563 208.298Z" fill="#36334A"/>
<path d="M285.823 126.576C291.683 126.576 296.433 121.712 296.433 115.713C296.433 109.713 291.683 104.85 285.823 104.85C279.963 104.85 275.212 109.713 275.212 115.713C275.212 121.712 279.963 126.576 285.823 126.576Z" fill="#38A169"/>
<path d="M393.145 227.19C393.145 233.162 389.678 235.246 385.401 235.246C385.302 235.246 385.203 235.245 385.105 235.243C384.906 235.238 384.71 235.229 384.516 235.215C380.656 234.935 377.657 232.743 377.657 227.19C377.657 221.445 384.829 214.194 385.369 213.656L385.37 213.655C385.39 213.634 385.401 213.624 385.401 213.624C385.401 213.624 393.145 221.22 393.145 227.19Z" fill="#38A169"/>
<path d="M385.119 234.333L387.951 230.281L385.112 234.778L385.105 235.243C384.906 235.238 384.71 235.229 384.516 235.215L384.821 229.242L384.819 229.195L384.824 229.187L384.853 228.622L382.006 224.115L384.862 228.199L384.869 228.319L385.099 223.805L382.662 219.148L385.129 223.014L385.369 213.656L385.37 213.624V213.655L385.33 221.034L387.756 218.109L385.32 221.67L385.256 225.711L387.521 221.832L385.246 226.305L385.211 228.552L388.499 223.154L385.198 229.336L385.119 234.333Z" fill="#3F3D56"/>
</g>
<defs>
<clipPath id="clip0">
<rect width="399" height="262" fill="white"/>
</clipPath>
</defs>
</svg>
