<svg width="400" height="300" viewBox="0 0 716 618" fill="none" xmlns="http://www.w3.org/2000/svg">
    <path d="M390.82 172.106C427.231 172.106 456.748 142.585 456.748 106.169C456.748 69.7534 427.231 40.2324 390.82 40.2324C354.409 40.2324 324.892 69.7534 324.892 106.169C324.892 142.585 354.409 172.106 390.82 172.106Z" fill="#FFB8B8" />
    <path d="M341.613 139.138C341.613 139.138 354.035 232.788 334.925 243.299C315.816 253.811 448.627 254.767 448.627 254.767C448.627 254.767 419.007 173.54 432.384 148.694L341.613 139.138Z" fill="#FFB8B8" />
    <path d="M545.607 255.24L534.561 305.543L511.206 411.968L510.507 417.796L502.447 485.27L497.086 530.094L493.491 560.204C471.633 571.439 455.791 579.196 455.791 579.196C455.791 579.196 454.429 572.363 452.232 563.621C436.892 568.22 408.508 575.851 384.454 577.375C393.213 587.14 397.238 596.313 391.779 603.083C375.3 623.491 307.271 580.738 283.477 564.795C282.923 568.612 282.713 572.472 282.849 576.326L264.64 562.32L266.442 530.094L269.482 475.568L273.301 407.189C272.097 404.261 271.087 401.257 270.28 398.195C264.703 378.361 257.934 338.756 252.743 305.543C248.566 278.814 245.428 256.227 244.764 251.421C244.675 250.793 244.63 250.47 244.63 250.47L345.428 205.924C352.591 222.539 386.041 227.534 386.041 227.534C413.753 225.624 435.476 211.008 435.476 211.008L545.607 255.24Z" fill="#D0CDE1" />
    <path d="M463.439 560.088C463.439 560.088 459.171 561.549 452.232 563.62C436.892 568.22 408.508 575.851 384.454 577.375C363.744 578.702 346.243 575.51 343.043 561.997C341.671 556.187 343.617 551.408 347.857 547.481C360.516 535.743 393.581 531.538 419.804 530.094C427.21 529.691 434.059 529.502 439.761 529.431C449.444 529.305 455.791 529.502 455.791 529.502L455.944 530.094L463.439 560.088Z" fill="#A0616A" />
    <path d="M335.974 43.799L323.648 38.8634C323.648 38.8634 349.422 10.4833 385.282 12.9512L375.196 1.84589C375.196 1.84589 399.85 -8.02534 422.263 17.8868C434.045 31.5082 447.676 47.5195 456.174 65.556H469.375L463.866 77.6895L483.15 89.8229L463.357 87.6435C464.536 94.2879 464.717 101.071 463.894 107.769C463.045 114.469 459.626 120.577 454.36 124.804C454.36 124.804 439.072 93.1555 439.072 88.2199V100.559C439.072 100.559 426.745 89.4538 426.745 82.0504L420.021 90.6878L416.66 77.1146L375.196 90.6878L381.92 79.5826L356.146 83.2843L366.232 69.7112C366.232 69.7112 337.095 85.7521 335.975 99.3252C334.854 112.898 326.326 125.759 326.326 125.759C326.326 125.759 303.476 62.3077 335.974 43.799Z" fill="#2F2E41" />
    <path d="M617.267 486.499C610.552 493.779 593.912 504.746 573.74 516.617C566.236 521.029 558.248 525.575 550.098 530.094C530.652 540.881 510.292 551.569 493.491 560.204C471.633 571.439 455.791 579.196 455.791 579.196C455.791 579.196 454.429 572.363 452.232 563.62C449.292 551.919 444.863 536.792 440.245 530.094C440.084 529.861 439.923 529.646 439.761 529.431C438.417 527.664 437.063 526.633 435.727 526.633L502.447 485.27L531.28 467.391L510.507 417.796L484.454 355.586L500.179 305.543L515.985 255.24H545.607C545.607 255.24 555.415 276.653 567.957 306.512C569.831 310.977 571.768 315.631 573.74 320.437C599.542 383.203 631.71 470.852 617.267 486.499Z" fill="#D0CDE1" />
    <path d="M391.779 603.083C375.3 623.491 307.271 580.738 283.477 564.795C278.295 561.325 275.211 559.128 275.211 559.128L296.979 530.094L303.873 520.904C303.873 520.904 310.041 524.176 319.159 529.503C319.491 529.7 319.822 529.897 320.163 530.094C328.026 534.712 337.897 540.747 347.857 547.481C361.601 556.779 375.497 567.387 384.454 577.375C393.213 587.14 397.239 596.313 391.779 603.083Z" fill="#A0616A" />
    <path d="M319.159 529.503C316.726 529.493 314.296 529.691 311.897 530.094C291.286 533.636 285.207 552.296 283.477 564.795C282.923 568.612 282.713 572.472 282.849 576.326L264.64 562.32L258.006 557.218C242.039 551.65 227.811 541.76 215.474 530.094C204.772 519.795 195.172 508.409 186.83 496.12C178.52 484.008 171.113 471.3 164.667 458.101C162.869 454.418 161.902 450.384 161.835 446.286C161.769 442.187 162.604 438.124 164.282 434.385L186.83 384.127L219.787 310.672C220.029 308.924 220.295 307.214 220.584 305.543C227.12 268.063 244.63 251.421 244.63 251.421H258.006L266.953 305.543L278.07 372.784L270.28 398.195L252.277 456.882L269.482 475.568L319.159 529.503Z" fill="#D0CDE1" />
    <path d="M334.298 372.838L345.733 386.181C349.982 385.37 354.419 384.418 358.988 383.349L355.704 372.838L363.735 382.208C412.145 370.3 472.15 347.147 472.15 347.147C472.15 347.147 407.369 351.898 358.999 341.329C337.598 336.653 315.579 347.263 306.797 367.335C301.693 379.001 302.494 389.108 320.599 389.108C326.716 389.004 332.816 388.43 338.846 387.391L334.298 372.838Z" fill="#68D391" />
    <path d="M594.988 592.143V597.586C594.991 599.08 594.714 600.561 594.172 601.953C593.931 602.573 593.64 603.173 593.302 603.746C592.234 605.54 590.718 607.025 588.902 608.056C587.087 609.088 585.035 609.629 582.947 609.628H182.598C180.511 609.629 178.459 609.088 176.643 608.056C174.828 607.025 173.312 605.54 172.243 603.746C171.905 603.173 171.614 602.573 171.374 601.953C170.831 600.561 170.555 599.08 170.558 597.586V592.143C170.557 590.562 170.868 588.996 171.473 587.535C172.078 586.073 172.965 584.746 174.083 583.627C175.202 582.509 176.529 581.622 177.99 581.017C179.451 580.412 181.017 580.101 182.598 580.101H205.675V577.564C205.675 577.498 205.688 577.432 205.713 577.371C205.738 577.31 205.775 577.255 205.822 577.208C205.869 577.162 205.924 577.125 205.985 577.1C206.046 577.074 206.111 577.061 206.177 577.062H218.218C218.284 577.061 218.349 577.074 218.41 577.1C218.471 577.125 218.526 577.162 218.573 577.208C218.62 577.255 218.657 577.31 218.682 577.371C218.707 577.432 218.72 577.498 218.72 577.564V580.101H226.242V577.564C226.242 577.498 226.254 577.432 226.28 577.371C226.305 577.31 226.342 577.255 226.388 577.208C226.435 577.162 226.49 577.125 226.551 577.1C226.612 577.074 226.678 577.061 226.744 577.062H238.784C238.85 577.061 238.916 577.074 238.977 577.1C239.037 577.125 239.093 577.162 239.139 577.208C239.186 577.255 239.223 577.31 239.248 577.371C239.274 577.432 239.286 577.498 239.286 577.564V580.101H246.817V577.564C246.817 577.498 246.83 577.432 246.855 577.371C246.88 577.31 246.917 577.255 246.964 577.208C247.011 577.162 247.066 577.125 247.127 577.1C247.188 577.074 247.253 577.061 247.319 577.062H259.36C259.426 577.061 259.491 577.074 259.552 577.1C259.613 577.125 259.668 577.162 259.715 577.208C259.762 577.255 259.799 577.31 259.824 577.371C259.849 577.432 259.862 577.498 259.862 577.564V580.101H267.384V577.564C267.384 577.498 267.397 577.432 267.422 577.371C267.447 577.31 267.484 577.255 267.531 577.208C267.577 577.162 267.633 577.125 267.694 577.1C267.755 577.074 267.82 577.061 267.886 577.062H279.926C279.992 577.061 280.058 577.074 280.119 577.1C280.18 577.125 280.235 577.162 280.282 577.208C280.328 577.255 280.365 577.31 280.39 577.371C280.416 577.432 280.429 577.498 280.428 577.564V580.101H287.95V577.564C287.95 577.498 287.963 577.432 287.988 577.371C288.014 577.31 288.051 577.255 288.097 577.208C288.144 577.162 288.199 577.125 288.26 577.1C288.321 577.074 288.387 577.061 288.452 577.062H300.493C300.559 577.061 300.624 577.074 300.685 577.1C300.746 577.125 300.802 577.162 300.848 577.208C300.895 577.255 300.932 577.31 300.957 577.371C300.982 577.432 300.995 577.498 300.995 577.564V580.101H308.526V577.564C308.526 577.498 308.539 577.432 308.564 577.371C308.589 577.31 308.626 577.255 308.673 577.208C308.719 577.162 308.775 577.125 308.836 577.1C308.897 577.074 308.962 577.061 309.028 577.062H321.069C321.135 577.061 321.2 577.074 321.261 577.1C321.322 577.125 321.377 577.162 321.424 577.208C321.47 577.255 321.507 577.31 321.533 577.371C321.558 577.432 321.571 577.498 321.571 577.564V580.101H329.093V577.564C329.092 577.498 329.105 577.432 329.131 577.371C329.156 577.31 329.193 577.255 329.239 577.208C329.286 577.162 329.341 577.125 329.402 577.1C329.463 577.074 329.529 577.061 329.595 577.062H423.91C423.976 577.061 424.042 577.074 424.103 577.1C424.164 577.125 424.219 577.162 424.266 577.208C424.312 577.255 424.349 577.31 424.375 577.371C424.4 577.432 424.413 577.498 424.413 577.564V580.101H431.943V577.564C431.943 577.498 431.956 577.432 431.981 577.371C432.007 577.31 432.044 577.255 432.09 577.208C432.137 577.162 432.192 577.125 432.253 577.1C432.314 577.074 432.38 577.061 432.445 577.062H444.486C444.619 577.063 444.746 577.116 444.84 577.21C444.934 577.304 444.987 577.431 444.988 577.564V580.101H452.51V577.564C452.51 577.498 452.523 577.432 452.548 577.371C452.573 577.31 452.61 577.255 452.657 577.208C452.704 577.162 452.759 577.125 452.82 577.1C452.881 577.074 452.946 577.061 453.012 577.062H465.053C465.119 577.061 465.184 577.074 465.245 577.1C465.306 577.125 465.361 577.162 465.408 577.208C465.455 577.255 465.492 577.31 465.517 577.371C465.542 577.432 465.555 577.498 465.555 577.564V580.101H473.077V577.564C473.077 577.498 473.09 577.432 473.115 577.371C473.14 577.31 473.177 577.255 473.224 577.208C473.27 577.162 473.326 577.125 473.386 577.1C473.447 577.074 473.513 577.061 473.579 577.062H485.619C485.685 577.061 485.751 577.074 485.812 577.1C485.872 577.125 485.928 577.162 485.975 577.208C486.021 577.255 486.058 577.31 486.083 577.371C486.109 577.432 486.121 577.498 486.121 577.564V580.101H493.652V577.564C493.652 577.498 493.665 577.432 493.69 577.371C493.715 577.31 493.752 577.255 493.799 577.208C493.846 577.162 493.901 577.125 493.962 577.1C494.023 577.074 494.088 577.061 494.154 577.062H506.195C506.327 577.063 506.452 577.117 506.545 577.211C506.637 577.305 506.689 577.432 506.688 577.564V580.101H514.219V577.564C514.219 577.498 514.232 577.432 514.257 577.371C514.282 577.31 514.319 577.255 514.366 577.208C514.412 577.162 514.468 577.125 514.529 577.1C514.59 577.074 514.655 577.061 514.721 577.062H526.761C526.827 577.061 526.893 577.074 526.954 577.1C527.015 577.125 527.07 577.162 527.117 577.208C527.163 577.255 527.2 577.31 527.225 577.371C527.251 577.432 527.264 577.498 527.264 577.564V580.101H534.785V577.564C534.785 577.498 534.798 577.432 534.823 577.371C534.849 577.31 534.886 577.255 534.932 577.208C534.979 577.162 535.034 577.125 535.095 577.1C535.156 577.074 535.222 577.061 535.287 577.062H547.328C547.394 577.061 547.459 577.074 547.52 577.1C547.581 577.125 547.637 577.162 547.683 577.208C547.73 577.255 547.767 577.31 547.792 577.371C547.817 577.432 547.83 577.498 547.83 577.564V580.101H582.947C584.529 580.101 586.095 580.412 587.556 581.017C589.017 581.622 590.344 582.509 591.462 583.627C592.58 584.746 593.467 586.073 594.072 587.535C594.677 588.996 594.988 590.562 594.988 592.143V592.143Z" fill="#3F3D56" />
    <path d="M711.403 601.953H54.2408V603.746H711.403V601.953Z" fill="#3F3D56" />
    <path d="M562.752 362.93H413.53V359.854H345.867V362.93H196.029C193.352 362.93 190.785 363.994 188.892 365.887C186.999 367.78 185.935 370.348 185.935 373.025V577.385C185.935 580.062 186.999 582.63 188.892 584.523C190.785 586.416 193.352 587.48 196.029 587.48H562.752C565.429 587.48 567.997 586.416 569.89 584.523C571.783 582.63 572.846 580.062 572.846 577.385V373.025C572.846 371.699 572.585 370.387 572.078 369.162C571.57 367.937 570.827 366.824 569.89 365.887C568.952 364.949 567.84 364.206 566.615 363.698C565.39 363.191 564.078 362.93 562.752 362.93V362.93Z" fill="#3F3D56" />
    <path d="M379.684 456.693C392.063 456.693 402.098 446.657 402.098 434.277C402.098 421.897 392.063 411.86 379.684 411.86C367.306 411.86 357.271 421.897 357.271 434.277C357.271 446.657 367.306 456.693 379.684 456.693Z" stroke="#D0CDE1" stroke-width="2" stroke-miterlimit="10" />
    <path d="M372.512 464.764C384.891 464.764 394.925 454.727 394.925 442.347C394.925 429.967 384.891 419.93 372.512 419.93C360.133 419.93 350.098 429.967 350.098 442.347C350.098 454.727 360.133 464.764 372.512 464.764Z" fill="#D0CDE1" />
    <path d="M97.2261 592.894H72.123V618H97.2261V592.894Z" fill="#D0CDE1" />
    <path d="M81.9885 573.167V603.654H112.471V573.167H81.9885ZM111.144 602.327H83.3064V574.494H111.144V602.327Z" fill="#3F3D56" />
    <path d="M678.183 592.894H653.08V618H678.183V592.894Z" fill="#D0CDE1" />
    <path d="M662.945 573.167V603.654H693.428V573.167H662.945ZM692.101 602.327H664.263V574.494H692.101V602.327Z" fill="#3F3D56" />
    <path d="M84.7947 206.334C124.08 206.334 155.926 174.483 155.926 135.192C155.926 95.902 124.08 64.0508 84.7947 64.0508C45.5097 64.0508 13.663 95.902 13.663 135.192C13.663 174.483 45.5097 206.334 84.7947 206.334Z" fill="#68D391" />
    <path d="M109.583 50.6525C103.142 49.8333 96.624 49.8333 90.1834 50.6525C75.8348 52.5367 62.3278 58.4982 51.2651 67.8295C40.2025 77.1608 32.0485 89.4702 27.7708 103.297C25.8253 109.599 24.7235 116.13 24.4944 122.721C24.4621 123.637 24.4405 124.564 24.4405 125.491C24.4605 145.497 32.4153 164.677 46.5592 178.823C60.7032 192.969 79.8807 200.924 99.8833 200.944C101.489 200.944 103.095 200.891 104.679 200.794C108.398 200.56 112.094 200.049 115.737 199.263C133.132 195.522 148.645 185.753 159.536 171.682C170.428 157.612 175.998 140.144 175.261 122.365C174.525 104.585 167.53 87.6381 155.513 74.5163C143.495 61.3944 127.227 52.9422 109.583 50.6525H109.583ZM123.497 194.887H123.486C117.41 196.96 111.086 198.218 104.679 198.627C103.095 198.735 101.489 198.789 99.8832 198.789C80.4535 198.765 61.8264 191.035 48.0875 177.294C34.3487 163.553 26.6197 144.924 26.5959 125.491C26.5959 124.564 26.6175 123.637 26.6498 122.721C27.3907 103.783 35.4275 85.866 49.0777 72.7202C62.7279 59.5744 80.9334 52.219 99.8832 52.1939C117.246 52.1949 134.044 58.3607 147.286 69.5929C160.527 80.8251 169.352 96.3941 172.187 113.526C175.022 130.658 171.684 148.241 162.767 163.141C153.85 178.041 139.933 189.291 123.497 194.887H123.497Z" fill="#3F3D56" />
    <path d="M100.961 56.5055H98.8055V71.5961H100.961V56.5055Z" fill="#3F3D56" />
    <path d="M51.8718 75.9488L50.3476 77.4731L61.0168 88.1438L62.541 86.6194L51.8718 75.9488Z" fill="#3F3D56" />
    <path d="M30.907 124.413V126.569H45.9955V124.413H30.907Z" fill="#3F3D56" />
    <path d="M50.3476 173.509L51.8718 175.034L62.541 164.363L61.0168 162.839L50.3476 173.509Z" fill="#3F3D56" />
    <path d="M137.226 86.6194L138.75 88.1438L149.419 77.4731L147.895 75.9487L137.226 86.6194Z" fill="#3F3D56" />
    <path d="M153.771 124.413V126.569H168.859V124.413H153.771Z" fill="#3F3D56" />
    <path d="M138.75 162.839L137.226 164.363L147.895 175.034L149.419 173.509L138.75 162.839Z" fill="#3F3D56" />
    <path d="M100.961 179.386H98.8055V194.477H100.961V179.386Z" fill="#3F3D56" />
    <path d="M103.116 121.18C102.184 120.48 101.049 120.102 99.8832 120.102C98.7172 120.102 97.5827 120.48 96.65 121.18C96.0114 121.665 95.4856 122.283 95.1088 122.99C94.6314 123.902 94.4248 124.931 94.5136 125.957C94.6024 126.982 94.9828 127.96 95.6099 128.776C96.237 129.592 97.0845 130.211 98.0523 130.561C99.0201 130.911 100.068 130.976 101.071 130.749C102.075 130.522 102.993 130.012 103.716 129.28C104.439 128.548 104.938 127.624 105.153 126.618C105.368 125.612 105.291 124.565 104.93 123.601C104.569 122.637 103.94 121.797 103.117 121.18H103.116ZM99.8832 128.725C99.0265 128.722 98.2055 128.381 97.5997 127.775C96.9939 127.169 96.6525 126.348 96.65 125.491C96.6541 124.837 96.853 124.199 97.2212 123.659C97.537 123.201 97.9654 122.833 98.4651 122.59C98.9648 122.346 99.5189 122.236 100.074 122.27C100.628 122.303 101.165 122.479 101.632 122.781C102.099 123.082 102.48 123.499 102.739 123.991C102.997 124.484 103.124 125.034 103.108 125.59C103.092 126.145 102.932 126.687 102.645 127.163C102.358 127.639 101.953 128.033 101.469 128.307C100.985 128.58 100.439 128.724 99.8832 128.725V128.725Z" fill="#3F3D56" />
    <path d="M109.583 31.7137H90.1835V51.116H109.583V31.7137Z" fill="#3F3D56" />
    <path d="M99.8832 34.9474C114.169 34.9474 125.749 30.8454 125.749 25.7852C125.749 20.7251 114.169 16.623 99.8832 16.623C85.5978 16.623 74.0172 20.7251 74.0172 25.7852C74.0172 30.8454 85.5978 34.9474 99.8832 34.9474Z" fill="#3F3D56" />
    <path d="M103.116 84.5309H96.65V121.18H103.116V84.5309Z" fill="#3F3D56" />
    <path d="M202.618 197.66H0V199.816H202.618V197.66Z" fill="#3F3D56" />
    <path d="M135.013 537.777C135.85 566.425 119.113 576.924 98.1086 577.538C97.6207 577.552 97.135 577.561 96.6515 577.564C95.6775 577.571 94.7129 577.555 93.7577 577.515C74.7616 576.727 59.725 566.642 58.947 539.999C58.1419 512.427 92.3601 476.602 94.9274 473.952L94.9319 473.95C95.0295 473.849 95.0794 473.798 95.0794 473.798C95.0794 473.798 134.177 509.131 135.013 537.777Z" fill="#D0CDE1" />
    <path d="M96.5964 573.196L109.939 553.352L96.6237 575.331L96.6515 577.564C95.6775 577.571 94.7129 577.555 93.7577 577.515L94.4195 548.811L94.4014 548.59L94.4258 548.547L94.4891 545.835L79.8774 524.617L94.4719 543.805L94.5237 544.378L95.0235 522.691L82.403 500.694L95.0594 518.882L94.9273 473.952L94.9276 473.802L94.9319 473.95L95.7697 509.36L107.272 494.976L95.8074 512.411L96.0584 531.809L106.643 512.877L96.0973 534.661L96.237 545.447L111.63 519.075L96.2838 549.21L96.5964 573.196Z" fill="#3F3D56" />
    <path d="M715.97 537.777C716.806 566.425 700.07 576.924 679.066 577.538C678.578 577.552 678.092 577.561 677.608 577.564C676.634 577.571 675.67 577.555 674.715 577.515C655.719 576.727 640.682 566.642 639.904 539.999C639.099 512.427 673.317 476.602 675.884 473.952L675.889 473.95C675.986 473.849 676.036 473.798 676.036 473.798C676.036 473.798 715.133 509.131 715.97 537.777Z" fill="#D0CDE1" />
    <path d="M677.553 573.196L690.896 553.352L677.581 575.331L677.608 577.564C676.634 577.571 675.67 577.555 674.715 577.515L675.376 548.811L675.358 548.59L675.383 548.547L675.446 545.835L660.834 524.617L675.429 543.805L675.481 544.378L675.98 522.691L663.36 500.694L676.016 518.882L675.884 473.952L675.885 473.802L675.889 473.95L676.727 509.36L688.229 494.976L676.764 512.411L677.015 531.809L687.6 512.877L677.054 534.661L677.194 545.447L692.586 519.075L677.241 549.21L677.553 573.196Z" fill="#3F3D56" />
</svg>
