<svg width="684" height="518" viewBox="0 0 684 465" fill="none" xmlns="http://www.w3.org/2000/svg">
    <g clip-path="url(#clip0)">
        <rect x="-255" y="-3544" width="1440" height="4960" fill="white" />
        <g clip-path="url(#clip1)">
            <path opacity="0.1" d="M42.2057 271.727C65.3273 301.148 56.3446 344.119 41.6544 378.543C36.7318 390.07 31.1735 402.258 33.223 414.616C35.7589 429.725 49.2362 440.778 63.3881 446.632C89.1817 457.308 120.054 454.764 143.759 440.005C164.241 427.252 178.912 406.516 199.744 394.347C234.611 373.981 278.986 381.671 316.843 395.703C343.629 405.627 372.912 418.536 399.523 408.164C418.247 400.863 431.193 383.099 438.249 364.265C441.654 355.178 444.125 345.333 450.631 338.122C454.522 333.839 459.542 330.795 464.711 328.231C511.908 304.815 571.511 317.354 617.352 291.386C648.309 273.863 668.129 240.763 676.904 206.261C685.679 171.759 684.687 135.582 682.43 100.055C680.847 74.8017 678.007 47.8479 661.883 28.3578C644.826 7.74493 615.556 0.0735099 589.101 3.99359C562.645 7.91368 538.661 21.8806 517.563 38.3268C491.199 58.8877 466.741 84.4851 434.371 92.8445C412.319 98.5169 389.133 95.4405 366.394 94.3372C328.381 92.5394 290.356 96.5374 252.55 100.905C216.36 105.091 179.91 109.7 145.432 121.479C121.04 129.787 101.492 144.922 78.4544 155.468C63.4399 162.361 47.0635 164.263 32.8404 173.044C15.3289 183.857 -0.729703 202.665 3.75841 224.673C8.02601 245.617 29.9347 256.112 42.2057 271.727Z" fill="#38A169" />
            <path d="M126.086 400.337C126.086 400.337 123.946 336.888 89.6427 301.037C75.2444 285.992 65.7882 266.885 63.2847 246.207C62.1144 236.394 61.8452 226.494 62.4805 216.631" stroke="#535461" stroke-width="2" stroke-miterlimit="10" />
            <path d="M40.9933 193.929C43.3411 201.016 62.9669 217.294 62.9669 217.294C62.9669 217.294 68.9792 192.495 66.6313 185.414C65.5038 182.012 63.0719 179.197 59.8706 177.589C56.6692 175.981 52.9607 175.712 49.5609 176.84C46.1611 177.968 43.3485 180.402 41.7417 183.606C40.135 186.809 39.8658 190.52 40.9933 193.922V193.929Z" fill="#38A169" />
            <path d="M32.8343 240.197C38.6714 244.87 63.9657 247.869 63.9657 247.869C63.9657 247.869 55.5343 223.784 49.6972 219.117C46.8891 217.052 43.3918 216.153 39.9366 216.608C36.4814 217.063 33.3359 218.838 31.158 221.561C28.9801 224.283 27.9385 227.743 28.2509 231.216C28.5633 234.69 30.2056 237.908 32.8343 240.197V240.197Z" fill="#38A169" />
            <path d="M55.9558 306.949C63.3366 308.04 86.7046 297.863 86.7046 297.863C86.7046 297.863 67.2864 281.326 59.9056 280.236C56.3622 279.711 52.7558 280.617 49.8798 282.754C47.0039 284.891 45.0939 288.083 44.5702 291.629C44.0464 295.175 44.9517 298.784 47.0869 301.662C49.2221 304.54 52.4124 306.451 55.9558 306.975V306.949Z" fill="#38A169" />
            <path d="M84.8302 353.51C91.9191 355.833 116.675 349.733 116.675 349.733C116.675 349.733 100.325 330.152 93.2357 327.828C89.8325 326.709 86.1244 326.989 82.9274 328.606C79.7303 330.223 77.3061 333.045 76.188 336.45C75.0699 339.856 75.3496 343.567 76.9655 346.766C78.5813 349.965 81.401 352.391 84.8043 353.51H84.8302Z" fill="#38A169" />
            <path d="M91.316 240.308C87.8721 246.928 65.9114 259.895 65.9114 259.895C65.9114 259.895 63.9138 234.46 67.3577 227.834C68.1762 226.259 69.2966 224.862 70.6548 223.721C72.013 222.58 73.5824 221.718 75.2736 221.184C76.9647 220.65 78.7444 220.455 80.511 220.609C82.2776 220.763 83.9965 221.264 85.5696 222.083C87.1427 222.902 88.5393 224.023 89.6794 225.383C90.8195 226.742 91.681 228.312 92.2146 230.005C92.7482 231.697 92.9435 233.478 92.7893 235.246C92.6351 237.013 92.1345 238.734 91.316 240.308Z" fill="#38A169" />
            <path d="M124.4 295.189C119.133 300.478 94.3058 306.268 94.3058 306.268C94.3058 306.268 100.007 281.397 105.267 276.108C106.518 274.851 108.005 273.852 109.642 273.17C111.279 272.488 113.035 272.135 114.808 272.132C116.581 272.129 118.338 272.475 119.977 273.151C121.617 273.827 123.108 274.82 124.364 276.072C125.62 277.324 126.618 278.812 127.299 280.451C127.981 282.089 128.334 283.845 128.337 285.62C128.34 287.394 127.994 289.152 127.319 290.793C126.643 292.434 125.651 293.925 124.4 295.182V295.189Z" fill="#38A169" />
            <path d="M149.24 352.945C144.946 359.046 121.449 368.957 121.449 368.957C121.449 368.957 122.862 343.483 127.163 337.375C128.157 335.861 129.446 334.563 130.953 333.557C132.459 332.552 134.152 331.86 135.932 331.523C137.711 331.185 139.54 331.21 141.309 331.594C143.079 331.978 144.753 332.715 146.232 333.76C147.712 334.805 148.966 336.137 149.92 337.677C150.875 339.217 151.51 340.933 151.788 342.723C152.066 344.514 151.982 346.342 151.54 348.099C151.097 349.857 150.306 351.507 149.214 352.952L149.24 352.945Z" fill="#38A169" />
            <path d="M427.529 357.255C427.529 357.255 417.23 353.763 412.274 362.843C410.967 365.305 410.302 368.057 410.341 370.844C410.379 373.632 411.12 376.365 412.495 378.789C415.738 384.676 422.457 392.321 435.195 391.64C445.974 391.062 449.528 382.833 450.514 375.174C450.887 372.303 450.517 369.384 449.44 366.696C448.363 364.009 446.614 361.644 444.361 359.826C442.108 358.009 439.427 356.801 436.574 356.318C433.721 355.835 430.792 356.092 428.067 357.066L427.529 357.255Z" fill="#38A169" />
            <path opacity="0.1" d="M414.674 379.607C413.299 377.182 412.558 374.45 412.52 371.662C412.481 368.875 413.146 366.122 414.454 363.661C419.409 354.574 429.708 358.072 429.708 358.072L430.233 357.884C434.16 356.462 438.477 356.56 442.336 358.157C440.206 356.888 437.822 356.108 435.354 355.872C432.887 355.636 430.398 355.951 428.067 356.794L427.542 356.982C427.542 356.982 417.243 353.49 412.287 362.57C410.98 365.032 410.315 367.784 410.354 370.572C410.392 373.359 411.133 376.092 412.508 378.517C414.655 382.411 418.293 387.025 424.182 389.55C420.163 387.169 416.875 383.729 414.674 379.607Z" fill="white" />
            <path opacity="0.2" d="M422.211 361.623C422.211 361.623 426.031 364.628 435.299 361.623Z" fill="black" />
            <path d="M421.393 339.79C421.393 339.79 427.938 357.527 427.393 362.168L432.581 361.623C432.581 361.623 423.852 346.046 426.037 339.79H421.393Z" fill="#38A169" />
            <path opacity="0.2" d="M421.393 339.79C421.393 339.79 427.938 357.527 427.393 362.168L432.581 361.623C432.581 361.623 423.852 346.046 426.037 339.79H421.393Z" fill="black" />
            <path d="M448.108 341.269C448.108 341.269 437.809 335.999 433.191 340.354C428.573 344.709 427.873 355.84 427.873 355.84C427.873 355.84 444.677 358.15 448.108 341.269Z" fill="#38A169" />
            <path opacity="0.1" d="M448.108 341.269C448.108 341.269 437.809 335.999 433.191 340.354C428.573 344.709 427.873 355.84 427.873 355.84C427.873 355.84 444.677 358.15 448.108 341.269Z" fill="white" />
            <path d="M427.879 355.84C427.879 355.84 430.584 342.918 448.108 341.269" stroke="#38A169" stroke-miterlimit="10" />
            <path d="M131.826 278.516C131.826 278.516 133.927 244.208 117.278 223.128C110.238 214.331 106.239 203.486 105.883 192.222C105.757 186.871 106.122 181.52 106.972 176.236" stroke="#535461" stroke-width="2" stroke-miterlimit="10" />
            <path d="M96.5629 162.893C97.4645 166.832 107.206 176.619 107.206 176.619C107.206 176.619 111.746 163.561 110.819 159.628C110.606 158.691 110.21 157.804 109.655 157.019C109.1 156.235 108.395 155.567 107.582 155.055C106.769 154.543 105.863 154.196 104.916 154.034C103.969 153.872 103 153.898 102.063 154.111C101.126 154.324 100.24 154.72 99.4561 155.276C98.672 155.831 98.005 156.536 97.493 157.35C96.9811 158.163 96.6344 159.07 96.4725 160.018C96.3107 160.965 96.337 161.936 96.55 162.873L96.5629 162.893Z" fill="#38A169" />
            <path d="M89.7788 187.413C92.678 190.229 106.168 193.15 106.168 193.15C106.168 193.15 102.867 179.735 99.9679 176.924C99.2793 176.255 98.4657 175.728 97.5734 175.373C96.6812 175.018 95.7279 174.843 94.7679 174.856C93.8079 174.87 92.86 175.073 91.9784 175.454C91.0968 175.834 90.2987 176.385 89.6297 177.074C88.9606 177.763 88.4338 178.577 88.0792 179.47C87.7247 180.363 87.5493 181.317 87.5631 182.277C87.577 183.238 87.7798 184.186 88.16 185.069C88.5401 185.951 89.0902 186.75 89.7788 187.419V187.413Z" fill="#38A169" />
            <path d="M98.8264 224.582C102.718 225.549 115.864 221.252 115.864 221.252C115.864 221.252 106.246 211.342 102.329 210.375C101.396 210.145 100.428 210.101 99.4789 210.245C98.5296 210.389 97.6181 210.719 96.7963 211.216C95.1367 212.22 93.9434 213.842 93.4789 215.726C93.0145 217.61 93.317 219.602 94.3198 221.262C95.3227 222.923 96.9437 224.117 98.8264 224.582V224.582Z" fill="#38A169" />
            <path d="M111.999 251.153C115.702 252.769 129.355 250.751 129.355 250.751C129.355 250.751 121.572 239.354 117.849 237.77C116.966 237.363 116.01 237.137 115.038 237.104C114.066 237.071 113.097 237.233 112.188 237.58C111.28 237.926 110.449 238.451 109.745 239.123C109.042 239.795 108.48 240.601 108.091 241.493C107.703 242.385 107.496 243.346 107.483 244.319C107.471 245.293 107.652 246.258 108.018 247.16C108.383 248.062 108.924 248.883 109.61 249.573C110.296 250.263 111.112 250.809 112.012 251.179L111.999 251.153Z" fill="#38A169" />
            <path d="M121.306 190.482C119.114 193.877 106.609 199.731 106.609 199.731C106.609 199.731 106.836 185.92 109.035 182.525C110.089 180.897 111.747 179.755 113.643 179.349C115.54 178.944 117.519 179.309 119.146 180.364C120.773 181.419 121.915 183.078 122.32 184.976C122.725 186.873 122.36 188.854 121.306 190.482V190.482Z" fill="#38A169" />
            <path d="M136.32 221.759C133.214 224.355 119.529 226.185 119.529 226.185C119.529 226.185 123.874 213.075 126.987 210.492C128.48 209.253 130.404 208.659 132.335 208.84C134.266 209.021 136.046 209.961 137.283 211.456C138.521 212.95 139.115 214.875 138.934 216.807C138.754 218.739 137.813 220.52 136.32 221.759Z" fill="#38A169" />
            <path d="M146.743 254.164C144.116 257.234 130.944 261.368 130.944 261.368C130.944 261.368 133.013 247.739 135.646 244.643C136.271 243.914 137.034 243.314 137.89 242.88C138.747 242.445 139.681 242.184 140.638 242.11C141.596 242.037 142.558 242.152 143.471 242.451C144.384 242.75 145.229 243.226 145.958 243.851C146.687 244.477 147.286 245.24 147.72 246.097C148.155 246.954 148.416 247.889 148.489 248.847C148.563 249.805 148.447 250.769 148.149 251.682C147.85 252.596 147.375 253.441 146.749 254.171L146.743 254.164Z" fill="#38A169" />
            <path opacity="0.5" d="M96.5629 162.893C97.4645 166.832 107.206 176.619 107.206 176.619C107.206 176.619 111.746 163.561 110.819 159.628C110.606 158.691 110.21 157.804 109.655 157.019C109.1 156.235 108.395 155.567 107.582 155.055C106.769 154.543 105.863 154.196 104.916 154.034C103.969 153.872 103 153.898 102.063 154.111C101.126 154.324 100.24 154.72 99.4561 155.276C98.672 155.831 98.005 156.536 97.493 157.35C96.9811 158.163 96.6344 159.07 96.4725 160.018C96.3107 160.965 96.337 161.936 96.55 162.873L96.5629 162.893Z" fill="white" />
            <path opacity="0.5" d="M89.7788 187.413C92.678 190.229 106.168 193.15 106.168 193.15C106.168 193.15 102.867 179.735 99.9679 176.924C99.2793 176.255 98.4657 175.728 97.5734 175.373C96.6812 175.018 95.7279 174.843 94.7679 174.856C93.8079 174.87 92.86 175.073 91.9784 175.454C91.0968 175.834 90.2987 176.385 89.6297 177.074C88.9606 177.763 88.4338 178.577 88.0792 179.47C87.7247 180.363 87.5493 181.317 87.5631 182.277C87.577 183.238 87.7798 184.186 88.16 185.069C88.5401 185.951 89.0902 186.75 89.7788 187.419V187.413Z" fill="white" />
            <path opacity="0.5" d="M98.8264 224.582C102.718 225.549 115.864 221.252 115.864 221.252C115.864 221.252 106.246 211.342 102.329 210.375C101.396 210.145 100.428 210.101 99.4789 210.245C98.5296 210.389 97.6181 210.719 96.7963 211.216C95.1367 212.22 93.9434 213.842 93.4789 215.726C93.0145 217.61 93.317 219.602 94.3198 221.262C95.3227 222.923 96.9437 224.117 98.8264 224.582V224.582Z" fill="white" />
            <path opacity="0.5" d="M111.999 251.153C115.702 252.769 129.355 250.751 129.355 250.751C129.355 250.751 121.572 239.354 117.849 237.77C116.966 237.363 116.01 237.137 115.038 237.104C114.066 237.071 113.097 237.233 112.188 237.58C111.28 237.926 110.449 238.451 109.745 239.123C109.042 239.795 108.48 240.601 108.091 241.493C107.703 242.385 107.496 243.346 107.483 244.319C107.471 245.293 107.652 246.258 108.018 247.16C108.383 248.062 108.924 248.883 109.61 249.573C110.296 250.263 111.112 250.809 112.012 251.179L111.999 251.153Z" fill="white" />
            <path opacity="0.5" d="M121.306 190.482C119.114 193.877 106.609 199.731 106.609 199.731C106.609 199.731 106.836 185.92 109.035 182.525C110.089 180.897 111.747 179.755 113.643 179.349C115.54 178.944 117.519 179.309 119.146 180.364C120.773 181.419 121.915 183.078 122.32 184.976C122.725 186.873 122.36 188.854 121.306 190.482V190.482Z" fill="white" />
            <path opacity="0.5" d="M136.32 221.759C133.214 224.355 119.529 226.185 119.529 226.185C119.529 226.185 123.874 213.075 126.987 210.492C128.48 209.253 130.404 208.659 132.335 208.84C134.266 209.021 136.046 209.961 137.283 211.456C138.521 212.95 139.115 214.875 138.934 216.807C138.754 218.739 137.813 220.52 136.32 221.759Z" fill="white" />
            <path opacity="0.5" d="M146.743 254.164C144.116 257.234 130.944 261.368 130.944 261.368C130.944 261.368 133.013 247.739 135.646 244.643C136.271 243.914 137.034 243.314 137.89 242.88C138.747 242.445 139.681 242.184 140.638 242.11C141.596 242.037 142.558 242.152 143.471 242.451C144.384 242.75 145.229 243.226 145.958 243.851C146.687 244.477 147.286 245.24 147.72 246.097C148.155 246.954 148.416 247.889 148.489 248.847C148.563 249.805 148.447 250.769 148.149 251.682C147.85 252.596 147.375 253.441 146.749 254.171L146.743 254.164Z" fill="white" />
            <path d="M330.204 16.2335V27.494V239.471H657.681V27.494V16.2335H330.204Z" fill="url(#paint0_linear)" />
            <path d="M654.211 26.3583H335.062V235.427H654.211V26.3583Z" fill="white" />
            <path d="M654.211 16.4153H335.062V31.7971H654.211V16.4153Z" fill="#EEEEEE" />
            <path d="M347.203 27.6044C349.263 27.6044 350.933 25.9335 350.933 23.8725C350.933 21.8114 349.263 20.1406 347.203 20.1406C345.144 20.1406 343.474 21.8114 343.474 23.8725C343.474 25.9335 345.144 27.6044 347.203 27.6044Z" fill="#FF5252" />
            <path d="M357.457 27.6044C359.517 27.6044 361.187 25.9335 361.187 23.8725C361.187 21.8114 359.517 20.1406 357.457 20.1406C355.398 20.1406 353.728 21.8114 353.728 23.8725C353.728 25.9335 355.398 27.6044 357.457 27.6044Z" fill="#FFFF00" />
            <path d="M367.705 27.6044C369.764 27.6044 371.434 25.9335 371.434 23.8725C371.434 21.8114 369.764 20.1406 367.705 20.1406C365.645 20.1406 363.975 21.8114 363.975 23.8725C363.975 25.9335 365.645 27.6044 367.705 27.6044Z" fill="#69F0AE" />
            <path opacity="0.5" d="M466.223 56.4338H347.294V61.3923H466.223V56.4338Z" fill="#38A169" />
            <path opacity="0.5" d="M466.223 66.3508H347.294V71.3093H466.223V66.3508Z" fill="#38A169" />
            <path opacity="0.5" d="M466.223 76.2678H347.294V81.2263H466.223V76.2678Z" fill="#38A169" />
            <path opacity="0.5" d="M466.216 86.1849H388.284V91.1434H466.216V86.1849Z" fill="#38A169" />
            <path opacity="0.5" d="M409.914 96.1084H347.294V101.067H409.914V96.1084Z" fill="#38A169" />
            <path opacity="0.5" d="M429.28 106.026H381.078V110.984H429.28V106.026Z" fill="#38A169" />
            <path opacity="0.5" d="M622.094 91.1499H481.989V171.843H622.094V91.1499Z" fill="#38A169" />
            <path d="M638.762 98.8083H498.658V179.501H638.762V98.8083Z" fill="#EEEEEE" />
            <path d="M577.044 179.482H498.658V164.723C517.81 155.766 547.275 150.736 577.044 179.482Z" fill="#38A169" />
            <g opacity="0.1">
                <path opacity="0.1" d="M637.861 177.392V179.482H540.101V179.034C540.101 179.034 588.206 132.188 637.861 177.392Z" fill="black" />
            </g>
            <path d="M638.762 177.392V179.482H541.003V179.034C541.003 179.034 589.108 132.188 638.762 177.392Z" fill="#38A169" />
            <path d="M514.878 120.447C518.858 120.447 522.084 117.218 522.084 113.236C522.084 109.254 518.858 106.026 514.878 106.026C510.899 106.026 507.673 109.254 507.673 113.236C507.673 117.218 510.899 120.447 514.878 120.447Z" fill="#38A169" />
            <path d="M576.24 107.771C575.416 107.771 574.495 107.771 573.873 107.823C573.591 107.839 573.314 107.896 573.049 107.992L568.807 109.517C572.232 109.602 575.805 109.576 579.308 109.517L598.985 109.368C600.989 109.368 603.104 109.335 604.777 109.212C605.899 109.134 606.723 109.011 607.754 108.92C611.477 108.589 616.912 108.654 621.763 108.667C626.614 108.68 632.471 108.557 634.177 108.07H623.767C622.645 108.07 621.465 108.07 620.472 108.011C619.312 107.947 618.605 107.817 617.586 107.726C615.9 107.583 613.578 107.564 611.412 107.557C599.556 107.551 587.836 107.836 576.24 107.771Z" fill="#F4F4F4" />
            <path d="M587.921 116.527C587.739 116.527 587.544 116.527 587.408 116.527C587.348 116.531 587.289 116.545 587.233 116.566L586.312 116.897C587.052 116.897 587.83 116.897 588.589 116.897L592.85 116.864C593.284 116.864 593.738 116.864 594.101 116.832L594.75 116.767C595.554 116.695 596.735 116.708 597.785 116.715C598.685 116.745 599.585 116.701 600.477 116.585H598.22C597.973 116.585 597.721 116.585 597.506 116.585C597.292 116.585 597.104 116.54 596.858 116.527C596.495 116.527 595.989 116.494 595.522 116.488C592.966 116.475 590.431 116.527 587.921 116.527Z" fill="#F4F4F4" />
            <path d="M557.736 129.144C557.554 129.144 557.36 129.144 557.224 129.144C557.164 129.148 557.105 129.161 557.049 129.183L556.128 129.514C556.867 129.514 557.645 129.514 558.404 129.514L562.665 129.481C563.1 129.481 563.554 129.481 563.917 129.449L564.566 129.384C565.37 129.312 566.55 129.325 567.601 129.332C568.5 129.362 569.4 129.318 570.292 129.202H568.035C567.789 129.202 567.536 129.202 567.322 129.202C567.108 129.202 566.92 129.157 566.673 129.144C566.31 129.144 565.804 129.111 565.337 129.105C562.788 129.098 560.246 129.157 557.736 129.144Z" fill="#F4F4F4" />
            <path d="M540.782 175.503H537.423C537.423 175.503 536.366 138.431 540.808 126.989H541.658C541.658 126.989 538.668 168.941 540.782 175.503Z" fill="#38A169" />
            <path d="M538.454 125.087C538.454 125.087 535.704 132.713 536.975 136.121C536.975 136.121 538.882 129.131 541.107 128.073C543.331 127.015 545.647 136.121 545.647 136.121C545.647 136.121 546.944 130.403 544.59 125.736C547.568 127.5 549.989 130.069 551.575 133.148C551.575 133.148 551.996 129.968 546.496 123.413C546.496 123.413 551.367 124.711 554.539 127.651C554.539 127.651 555.596 125.321 549.032 121.505C549.032 121.505 549.882 118.753 554.96 120.025C554.96 120.025 554.96 116.423 546.918 117.059C546.918 117.059 546.918 114.729 552.21 115.151C552.21 115.151 552.21 112.185 546.068 113.243C546.068 113.243 547.365 111.334 548.183 110.913C547.123 110.815 546.066 111.119 545.219 111.763C545.219 111.763 545.433 107.947 542.255 106.467L541.833 111.763C541.833 111.763 538.272 107.564 539.083 108.375C539.594 109.652 539.816 111.026 539.732 112.399C539.732 112.399 536.132 109.433 531.689 112.613C531.689 112.613 537.196 113.035 538.039 114.943C538.039 114.943 533.382 114.093 532.325 114.729C532.325 114.729 535.925 116.027 535.711 116.845C535.711 116.845 529.361 116.845 528.512 119.175C528.512 119.175 535.075 120.025 535.497 120.654C535.497 120.654 527.876 126.165 527.454 127.644C527.454 127.644 535.289 122.984 536.534 122.984C537.78 122.984 530.82 129.767 531.242 131.461C531.261 131.454 536.975 124.659 538.454 125.087Z" fill="#38A169" />
            <path d="M582.57 174.121H585.164C585.164 174.121 585.975 145.797 582.57 137.055H581.921C581.921 137.055 584.185 169.097 582.57 174.121Z" fill="#38A169" />
            <path d="M584.347 135.595C584.347 135.595 586.448 141.436 585.482 144.032C585.482 144.032 584.029 138.691 582.33 137.879C580.631 137.068 578.854 144.032 578.854 144.032C578.854 144.032 577.881 139.664 579.664 136.101C577.388 137.45 575.538 139.414 574.327 141.767C574.327 141.767 574.002 139.34 578.218 134.323C578.218 134.323 574.495 135.296 572.07 137.568C572.07 137.568 571.259 135.79 576.272 132.875C576.272 132.875 575.624 130.773 571.732 131.74C571.732 131.74 571.732 128.988 577.881 129.475C577.881 129.475 577.881 127.696 573.84 128.021C573.84 128.021 573.84 125.756 578.529 126.567C578.095 125.887 577.549 125.286 576.914 124.789C577.724 124.714 578.531 124.945 579.178 125.438C579.178 125.438 579.016 122.524 581.441 121.394L581.766 125.438C581.766 125.438 584.483 122.232 583.867 122.842C583.479 123.818 583.313 124.869 583.381 125.918C583.381 125.918 586.131 123.653 589.529 126.08C589.529 126.08 585.326 126.405 584.678 127.859C584.678 127.859 588.239 127.21 589.043 127.696C589.043 127.696 586.293 128.67 586.448 129.312C586.448 129.312 591.3 129.312 591.948 131.091C591.948 131.091 586.935 131.74 586.611 132.226C586.611 132.226 592.448 136.432 592.759 137.568C592.759 137.568 586.773 134.005 585.806 134.005C584.84 134.005 590.171 139.197 589.847 140.495C589.847 140.45 585.482 135.27 584.347 135.595Z" fill="#38A169" />
            <path d="M613.533 168.584H615.135C615.135 168.584 615.634 151.061 613.533 145.629H613.131C613.131 145.629 614.532 165.476 613.533 168.584Z" fill="#38A169" />
            <path d="M614.603 144.726C614.603 144.726 615.9 148.335 615.303 149.919C615.303 149.919 614.402 146.609 613.358 146.109C612.313 145.609 611.204 149.919 611.204 149.919C610.873 148.268 611.047 146.556 611.704 145.006C610.293 145.841 609.146 147.058 608.396 148.517C608.396 148.517 608.195 147.011 610.802 143.909C609.405 144.298 608.106 144.981 606.995 145.914C606.995 145.914 606.496 144.811 609.589 143.007C609.589 143.007 609.187 141.709 606.787 142.306C606.787 142.306 606.787 140.599 610.595 140.904C610.595 140.904 610.595 139.8 608.091 140.002C608.091 140.002 608.091 138.6 610.997 139.099C610.729 138.678 610.391 138.305 609.998 137.996C610.499 137.951 610.998 138.094 611.399 138.399C611.375 137.892 611.493 137.388 611.741 136.945C611.989 136.502 612.355 136.138 612.8 135.893L613.001 138.399C613.001 138.399 614.687 136.413 614.298 136.795C614.059 137.399 613.957 138.049 614 138.697C614.556 138.29 615.231 138.079 615.92 138.097C616.608 138.115 617.272 138.36 617.807 138.794C617.807 138.794 615.212 138.996 614.804 139.898C614.804 139.898 617.009 139.495 617.508 139.8C617.508 139.8 615.803 140.404 615.906 140.8C615.906 140.8 618.909 140.8 619.311 141.903C619.311 141.903 616.205 142.306 616.004 142.604C616.004 142.604 619.61 145.2 619.811 145.914C619.811 145.914 616.108 143.708 615.504 143.708C614.901 143.708 618.209 146.914 618.008 147.718C618.04 147.731 615.336 144.525 614.603 144.726Z" fill="#38A169" />
            <path d="M554.934 148.75L554.597 146.946C554.597 146.814 554.569 146.683 554.517 146.561C554.465 146.44 554.388 146.33 554.292 146.239L552.729 145.473C552.613 145.332 552.519 145.175 552.45 145.006V144.967C552.537 144.858 552.599 144.732 552.632 144.597C552.635 144.562 552.635 144.527 552.632 144.493V144.493C552.779 144.514 552.929 144.477 553.05 144.39C553.171 144.303 553.253 144.172 553.28 144.026V143.987C553.25 144.106 553.183 144.212 553.089 144.29C552.994 144.368 552.877 144.414 552.755 144.422C552.969 144.278 553.145 144.085 553.268 143.859C553.391 143.633 553.457 143.381 553.462 143.123C553.462 143.123 553.462 143.078 553.462 143.059C553.531 143.016 553.591 142.959 553.636 142.892C553.682 142.825 553.713 142.749 553.728 142.669V142.63C553.709 142.707 553.674 142.778 553.626 142.841C553.578 142.903 553.518 142.955 553.449 142.994C553.437 142.845 553.404 142.698 553.352 142.559H553.391C553.544 142.559 553.691 142.498 553.799 142.39C553.907 142.281 553.968 142.134 553.968 141.981C553.968 141.981 553.968 141.981 553.968 141.942C553.958 142.089 553.893 142.226 553.786 142.326C553.678 142.426 553.537 142.481 553.391 142.481H553.319C553.489 142.426 553.64 142.325 553.755 142.188C553.87 142.052 553.943 141.885 553.968 141.709C553.968 141.709 553.968 141.709 553.968 141.67C553.96 141.783 553.92 141.891 553.851 141.981C553.862 141.906 553.858 141.829 553.84 141.755C553.821 141.681 553.788 141.612 553.743 141.55C553.697 141.489 553.64 141.438 553.575 141.398C553.509 141.359 553.437 141.334 553.361 141.322C553.286 141.311 553.209 141.315 553.135 141.334C553.062 141.353 552.992 141.386 552.931 141.431C552.87 141.477 552.818 141.534 552.779 141.599C552.74 141.665 552.714 141.737 552.703 141.812L552.599 141.754C552.632 141.638 552.7 141.534 552.794 141.458C552.888 141.383 553.004 141.339 553.125 141.332H553.086C552.964 141.33 552.844 141.366 552.744 141.436C552.643 141.506 552.568 141.606 552.528 141.722C552.18 141.559 551.784 141.529 551.415 141.635C551.046 141.741 550.727 141.977 550.518 142.299C550.394 142.39 550.239 142.52 550.245 142.63C550.194 142.682 550.149 142.738 550.109 142.799C549.938 143.174 549.875 143.59 549.927 144C549.95 144.203 549.924 144.409 549.852 144.601C549.78 144.793 549.664 144.965 549.512 145.103C549.58 145.132 549.653 145.146 549.726 145.146C549.8 145.146 549.873 145.132 549.94 145.103C550.075 145.047 550.202 144.972 550.316 144.882C550.423 144.819 550.514 144.732 550.582 144.629V144.629C550.658 144.679 550.738 144.72 550.822 144.753C550.855 145.025 550.861 145.337 550.744 145.434V145.382C550.453 145.603 550.09 145.707 549.726 145.674C549.511 145.686 549.302 145.752 549.119 145.866C548.935 145.979 548.783 146.136 548.676 146.323L548.189 148.407V148.439V148.471C548.196 148.5 548.21 148.526 548.231 148.547C548.251 148.567 548.277 148.582 548.306 148.588L548.455 148.627C548.506 148.959 548.503 149.296 548.449 149.627C548.346 150.131 548.287 150.644 548.273 151.158C548.312 151.418 548.377 152.755 548.403 153.391C548.349 153.605 548.306 153.822 548.273 154.04L547.547 158.395C547.547 158.395 547.009 161.88 547.035 162.938L546.937 163.548C546.937 163.548 545.465 165.398 545.9 165.657C546.334 165.917 546.996 166.034 547.631 165.047C547.716 164.816 547.854 164.607 548.033 164.437C548.105 164.375 548.16 164.296 548.195 164.208C548.23 164.12 548.244 164.025 548.235 163.931L548.189 163.503H548.267H548.312C548.712 162.189 548.931 160.826 548.961 159.453C548.961 159.453 550.303 154.663 551.328 153.91L551.426 153.865L551.646 158.499L551.426 163.613L551.38 163.918C551.38 163.918 549.908 165.768 550.342 166.027C550.777 166.287 551.438 166.404 552.074 165.417C552.159 165.185 552.297 164.977 552.476 164.807C552.547 164.745 552.603 164.666 552.638 164.578C552.673 164.49 552.686 164.395 552.677 164.301L552.612 163.652C552.865 162.795 553.52 160.31 553.261 158.875L553.708 155.818C554.162 155.312 554.098 154.021 554.098 154.021C554.454 153.281 554.532 150.36 554.532 150.36L554.623 148.919H554.824H554.895L554.928 148.88V148.848L554.934 148.75ZM553.676 151.678C553.637 151.58 553.592 151.476 553.54 151.379H553.501V151.34V151.308V151.269C553.521 151.22 553.539 151.17 553.553 151.119C553.611 151.026 553.64 150.918 553.637 150.808C553.702 151.093 553.724 151.386 553.702 151.678H553.676ZM553.54 150.444L553.449 149.477V149.4L553.572 150.626L553.54 150.444ZM549.266 150.574C549.236 150.61 549.213 150.651 549.2 150.696C549.186 150.741 549.182 150.788 549.188 150.834C549.188 150.834 549.188 150.834 549.188 150.834C549.188 150.932 549.201 151.031 549.227 151.126L549.084 151.729V150.574C549.176 150.452 549.256 150.322 549.324 150.185C549.356 150.314 549.347 150.45 549.298 150.574H549.266Z" fill="url(#paint1_linear)" />
            <path d="M550.206 143.136C550.041 143.498 549.981 143.898 550.031 144.292C550.055 144.488 550.031 144.688 549.961 144.873C549.891 145.059 549.777 145.224 549.629 145.356C549.694 145.383 549.763 145.397 549.833 145.397C549.903 145.397 549.973 145.383 550.038 145.356C550.168 145.301 550.29 145.229 550.401 145.142C550.502 145.079 550.589 144.995 550.654 144.895C550.716 144.739 550.736 144.569 550.712 144.402C550.713 144.108 550.739 143.815 550.79 143.526C550.79 143.344 550.991 142.877 550.79 142.76C550.589 142.643 550.297 142.994 550.206 143.136Z" fill="#72351C" />
            <path d="M547.229 162.289L547.093 163.178C547.093 163.178 545.673 164.963 546.094 165.21C546.516 165.456 547.151 165.573 547.761 164.626C547.844 164.403 547.977 164.203 548.15 164.041V164.041C548.219 163.981 548.272 163.906 548.306 163.821C548.34 163.737 548.353 163.645 548.345 163.555L548.209 162.179L547.229 162.289Z" fill="#333333" />
            <path d="M551.503 162.646L551.367 163.535C551.367 163.535 549.947 165.32 550.368 165.567C550.79 165.813 551.426 165.93 552.035 164.982C552.118 164.76 552.251 164.56 552.424 164.398V164.398C552.493 164.338 552.546 164.263 552.58 164.178C552.614 164.094 552.627 164.002 552.619 163.912L552.483 162.536L551.503 162.646Z" fill="#333333" />
            <path d="M549.292 151.866C549.292 151.866 548.643 152.346 548.377 154.027L547.677 158.22C547.423 159.723 547.263 161.24 547.197 162.763L548.377 163.165C548.77 161.903 548.988 160.593 549.026 159.271C549.026 159.271 550.446 154.215 551.439 153.858L551.646 158.323L551.426 163.36L552.437 163.561C552.437 163.561 553.462 160.361 553.138 158.667L553.663 155.065C554.003 153.878 553.92 152.61 553.43 151.476L549.292 151.866Z" fill="#4D8AF0" />
            <g opacity="0.1">
                <path opacity="0.1" d="M551.322 153.923V153.845C550.329 154.202 548.909 159.258 548.909 159.258C548.884 160.565 548.679 161.862 548.299 163.113L548.429 163.159C548.822 161.896 549.04 160.586 549.078 159.265C549.078 159.265 550.336 154.65 551.322 153.923Z" fill="black" />
                <path opacity="0.1" d="M553.449 151.463H553.313C553.798 152.594 553.878 153.857 553.54 155.039L553.015 158.642C553.326 160.245 552.418 163.185 552.327 163.509H552.457C552.457 163.509 553.481 160.31 553.157 158.616L553.683 155.014C554.013 153.838 553.931 152.585 553.449 151.463Z" fill="black" />
            </g>
            <path d="M548.384 148.582C548.383 148.616 548.394 148.65 548.415 148.677C548.437 148.704 548.467 148.723 548.501 148.731C548.826 148.808 549.131 148.954 549.395 149.159C549.895 149.549 548.87 148.38 548.87 148.38L548.526 148.458L548.384 148.582V148.582Z" fill="#F55F44" />
            <path opacity="0.1" d="M548.384 148.582C548.383 148.616 548.394 148.65 548.415 148.677C548.437 148.704 548.467 148.723 548.501 148.731C548.826 148.808 549.131 148.954 549.395 149.159C549.895 149.549 548.87 148.38 548.87 148.38L548.526 148.458L548.384 148.582V148.582Z" fill="black" />
            <path d="M553.261 149.627C553.677 149.328 554.161 149.137 554.668 149.069C554.703 149.069 554.736 149.055 554.76 149.03C554.784 149.006 554.798 148.973 554.798 148.939V148.939C554.653 148.873 554.496 148.838 554.337 148.837C554.177 148.837 554.02 148.87 553.874 148.935C553.729 149 553.599 149.096 553.493 149.215C553.387 149.334 553.308 149.474 553.261 149.627V149.627Z" fill="#F55F44" />
            <path opacity="0.1" d="M554.798 148.919C554.653 148.853 554.496 148.818 554.337 148.818C554.177 148.817 554.02 148.851 553.874 148.916C553.729 148.981 553.599 149.076 553.493 149.195C553.387 149.315 553.308 149.455 553.261 149.607C553.261 149.607 554.13 148.958 554.733 149.049" fill="black" />
            <path d="M551.892 145.025C552.741 145.025 553.43 144.336 553.43 143.487C553.43 142.637 552.741 141.949 551.892 141.949C551.044 141.949 550.355 142.637 550.355 143.487C550.355 144.336 551.044 145.025 551.892 145.025Z" fill="#72351C" />
            <path d="M550.829 144.564C550.829 144.564 551.049 145.466 550.829 145.655C550.608 145.843 550.18 146.18 550.505 146.447C550.829 146.713 552.009 147.16 552.398 146.946C552.787 146.732 553.235 146.79 553.131 146.343C553.027 145.895 552.171 145.986 552.152 143.747L550.829 144.564Z" fill="#FDB797" />
            <path opacity="0.1" d="M548.656 148.329C548.69 148.817 548.659 149.308 548.565 149.789C548.467 150.274 548.41 150.767 548.397 151.262C548.442 151.587 548.539 153.735 548.539 153.735C548.539 153.735 548.371 155.617 549.285 155.442C550.2 155.267 549.143 153.3 549.143 153.3L549.188 150.704C549.442 150.369 549.603 149.973 549.655 149.555C549.694 148.978 548.656 148.329 548.656 148.329Z" fill="black" />
            <path d="M548.637 148.329C548.67 148.817 548.64 149.308 548.546 149.789C548.447 150.274 548.391 150.767 548.377 151.262C548.423 151.587 548.52 153.735 548.52 153.735C548.52 153.735 548.351 155.617 549.266 155.442C550.18 155.267 549.123 153.3 549.123 153.3L549.169 150.704C549.422 150.369 549.583 149.973 549.635 149.555C549.681 148.978 548.637 148.329 548.637 148.329Z" fill="#FDB797" />
            <path opacity="0.1" d="M554.493 148.452L554.37 150.457C554.37 150.457 554.292 153.268 553.948 153.982C553.948 153.982 554.039 155.929 553.125 155.929C552.21 155.929 553.28 153.767 553.28 153.767C553.28 153.767 553.773 151.574 553.52 150.873L553.28 148.465L554.493 148.452Z" fill="black" />
            <path d="M554.506 148.452L554.383 150.457C554.383 150.457 554.305 153.268 553.961 153.982C553.961 153.982 554.052 155.929 553.138 155.929C552.223 155.929 553.293 153.767 553.293 153.767C553.293 153.767 553.786 151.574 553.533 150.873L553.293 148.465L554.506 148.452Z" fill="#FDB797" />
            <path opacity="0.1" d="M551.529 146.505C551.529 146.505 552.269 146.849 552.677 145.856L554.188 146.596C554.281 146.684 554.354 146.789 554.404 146.907C554.454 147.024 554.48 147.15 554.48 147.277L554.804 149.017C554.667 148.963 554.52 148.937 554.373 148.94C554.225 148.943 554.08 148.976 553.945 149.037C553.81 149.097 553.689 149.184 553.588 149.292C553.487 149.4 553.409 149.527 553.358 149.666L553.449 150.646C553.522 150.888 553.506 151.148 553.404 151.379C553.395 151.4 553.39 151.422 553.39 151.444C553.39 151.466 553.395 151.488 553.404 151.509C553.43 151.58 553.44 151.657 553.431 151.733C553.422 151.809 553.396 151.882 553.353 151.945C553.311 152.009 553.254 152.061 553.187 152.098C553.12 152.135 553.045 152.156 552.969 152.158C552.563 152.161 552.158 152.192 551.756 152.249C551.432 152.34 550.459 152.061 550.128 152.249C549.798 152.437 549.117 152.106 549.117 152.106L549.305 151.314C549.305 151.314 549.181 150.925 549.305 150.788C549.423 150.226 549.396 149.643 549.227 149.094C549.227 149.094 548.669 148.569 548.345 148.66L548.812 146.654C548.91 146.468 549.055 146.31 549.232 146.196C549.41 146.083 549.613 146.017 549.824 146.005C550.173 146.037 550.522 145.938 550.803 145.726C550.803 145.726 550.44 146.382 551.529 146.505Z" fill="black" />
            <path opacity="0.1" d="M551.607 146.472C551.808 146.524 552.353 146.589 552.677 145.772L554.188 146.511C554.281 146.599 554.354 146.705 554.404 146.822C554.454 146.939 554.48 147.065 554.48 147.193L554.804 148.932C554.667 148.878 554.52 148.852 554.373 148.856C554.225 148.859 554.08 148.892 553.945 148.952C553.81 149.013 553.689 149.1 553.588 149.208C553.487 149.316 553.409 149.443 553.358 149.581L553.449 150.561L553.507 150.756C553.534 150.839 553.541 150.926 553.527 151.012C553.514 151.098 553.48 151.179 553.43 151.249C553.413 151.277 553.404 151.308 553.404 151.34C553.404 151.372 553.413 151.404 553.43 151.431C553.456 151.502 553.466 151.579 553.457 151.655C553.448 151.731 553.421 151.804 553.379 151.867C553.336 151.931 553.279 151.983 553.213 152.02C553.146 152.057 553.071 152.078 552.995 152.08C552.589 152.083 552.184 152.114 551.782 152.171C551.458 152.262 550.485 151.983 550.154 152.171C549.824 152.359 549.143 152.028 549.143 152.028L549.331 151.236C549.331 151.236 549.207 150.847 549.331 150.711C549.449 150.148 549.422 149.565 549.253 149.017C549.253 149.017 548.695 148.491 548.371 148.582L548.838 146.576C548.936 146.39 549.081 146.232 549.258 146.118C549.435 146.005 549.639 145.939 549.849 145.927C550.199 145.959 550.548 145.86 550.829 145.648C550.829 145.648 550.466 146.297 551.425 146.459L551.607 146.472Z" fill="black" />
            <path d="M551.607 146.505C551.808 146.557 552.353 146.622 552.677 145.804L554.188 146.544C554.281 146.632 554.354 146.737 554.404 146.855C554.454 146.972 554.48 147.098 554.48 147.225L554.804 148.965C554.667 148.911 554.52 148.884 554.373 148.888C554.225 148.891 554.08 148.924 553.945 148.985C553.81 149.045 553.689 149.132 553.588 149.24C553.487 149.348 553.409 149.475 553.358 149.614L553.449 150.594C553.522 150.836 553.506 151.096 553.404 151.327C553.395 151.347 553.39 151.37 553.39 151.392C553.39 151.414 553.395 151.436 553.404 151.457C553.43 151.528 553.44 151.605 553.431 151.681C553.422 151.757 553.396 151.83 553.353 151.893C553.311 151.957 553.254 152.009 553.187 152.046C553.12 152.083 553.045 152.104 552.969 152.106C552.563 152.109 552.158 152.14 551.756 152.197C551.432 152.288 550.459 152.008 550.128 152.197C549.798 152.385 549.117 152.054 549.117 152.054L549.305 151.262C549.305 151.262 549.181 150.873 549.305 150.736C549.423 150.174 549.396 149.591 549.227 149.042C549.227 149.042 548.669 148.517 548.345 148.608L548.812 146.602C548.91 146.416 549.055 146.258 549.232 146.144C549.41 146.031 549.613 145.965 549.824 145.953C550.173 145.985 550.522 145.886 550.803 145.674C550.803 145.674 550.44 146.323 551.4 146.485L551.607 146.505Z" fill="#F55F44" />
            <path opacity="0.1" d="M552.178 143.818L550.881 144.642C550.914 144.784 550.94 144.926 550.959 145.07C551.109 145.13 551.27 145.161 551.432 145.161C551.755 145.14 552.06 145.002 552.288 144.772C552.222 144.458 552.185 144.139 552.178 143.818V143.818Z" fill="black" />
            <path d="M551.38 145.083C552.082 145.083 552.651 144.514 552.651 143.811C552.651 143.109 552.082 142.539 551.38 142.539C550.678 142.539 550.109 143.109 550.109 143.811C550.109 144.514 550.678 145.083 551.38 145.083Z" fill="#FDB797" />
            <path d="M553.261 142.831C553.569 142.831 553.819 142.582 553.819 142.273C553.819 141.965 553.569 141.715 553.261 141.715C552.953 141.715 552.703 141.965 552.703 142.273C552.703 142.582 552.953 142.831 553.261 142.831Z" fill="#72351C" />
            <path d="M553.365 142.864C553.223 142.864 553.087 142.811 552.983 142.714C552.88 142.618 552.817 142.486 552.807 142.345C552.807 142.345 552.807 142.345 552.807 142.384C552.807 142.532 552.866 142.674 552.97 142.778C553.075 142.883 553.217 142.942 553.365 142.942C553.513 142.942 553.655 142.883 553.759 142.778C553.864 142.674 553.923 142.532 553.923 142.384C553.923 142.384 553.923 142.384 553.923 142.345C553.913 142.486 553.85 142.618 553.746 142.714C553.642 142.811 553.506 142.864 553.365 142.864V142.864Z" fill="#72351C" />
            <path d="M553.047 143.422C552.908 143.397 552.784 143.32 552.7 143.206C552.616 143.093 552.578 142.952 552.593 142.812V142.851C552.566 142.997 552.599 143.148 552.683 143.271C552.768 143.393 552.898 143.477 553.044 143.503C553.19 143.53 553.341 143.497 553.463 143.413C553.585 143.328 553.669 143.198 553.696 143.052V143.013C553.66 143.151 553.573 143.271 553.453 143.347C553.332 143.423 553.187 143.45 553.047 143.422Z" fill="#72351C" />
            <path d="M552.612 144.759C552.474 144.734 552.35 144.657 552.265 144.543C552.181 144.43 552.143 144.289 552.158 144.149V144.188C552.132 144.334 552.164 144.485 552.249 144.607C552.333 144.73 552.463 144.813 552.609 144.84C552.755 144.867 552.906 144.834 553.028 144.75C553.151 144.665 553.234 144.535 553.261 144.389V144.35C553.226 144.488 553.139 144.608 553.018 144.684C552.897 144.76 552.752 144.787 552.612 144.759V144.759Z" fill="#72351C" />
            <path d="M553.365 142.572C553.223 142.572 553.087 142.519 552.983 142.422C552.88 142.326 552.817 142.194 552.807 142.053C552.807 142.053 552.807 142.053 552.807 142.092C552.807 142.24 552.866 142.382 552.97 142.486C553.075 142.591 553.217 142.65 553.365 142.65C553.513 142.65 553.655 142.591 553.759 142.486C553.864 142.382 553.923 142.24 553.923 142.092C553.923 142.092 553.923 142.092 553.923 142.053C553.913 142.194 553.85 142.326 553.746 142.422C553.642 142.519 553.506 142.572 553.365 142.572V142.572Z" fill="#72351C" />
            <path d="M552.587 142.267C552.588 142.125 552.643 141.99 552.741 141.887C552.838 141.785 552.971 141.723 553.113 141.715H553.074C552.926 141.715 552.783 141.774 552.679 141.879C552.574 141.983 552.515 142.125 552.515 142.273C552.515 142.421 552.574 142.563 552.679 142.668C552.783 142.773 552.926 142.831 553.074 142.831H553.113C552.969 142.823 552.834 142.76 552.736 142.655C552.638 142.549 552.585 142.41 552.587 142.267V142.267Z" fill="#72351C" />
            <path opacity="0.1" d="M553.151 147.543C553.21 147.819 553.21 148.105 553.151 148.381C553.151 148.381 553.073 149.114 553.196 149.237" fill="black" />
            <path opacity="0.1" d="M549.376 147.68C549.435 147.956 549.435 148.241 549.376 148.517C549.376 148.517 549.298 149.25 549.422 149.373" fill="black" />
            <path opacity="0.1" d="M549.344 150.711C549.463 150.753 549.594 150.753 549.713 150.711C549.859 150.667 550.015 150.667 550.161 150.711" fill="black" />
            <path opacity="0.1" d="M549.532 149.627C549.973 149.649 550.415 149.58 550.829 149.426C550.829 149.426 552.411 149.815 552.865 149.536" fill="black" />
            <path d="M549.091 156.305H548.656C548.506 156.305 548.384 156.427 548.384 156.578V156.636C548.384 156.787 548.506 156.909 548.656 156.909H549.091C549.241 156.909 549.363 156.787 549.363 156.636V156.578C549.363 156.427 549.241 156.305 549.091 156.305Z" fill="#FDB797" />
            <path d="M548.384 156.461H548.909L549.363 156.532H549.201L548.384 156.461Z" fill="#F0E4E4" />
            <path d="M551.905 153.943H552.431L552.885 153.988H552.723L551.905 153.943Z" fill="#F0E4E4" />
            <path d="M551.905 154.053H552.431L552.885 154.098H552.723L551.905 154.053Z" fill="#F0E4E4" />
            <path d="M551.905 154.17H552.431L552.885 154.215H552.723L551.905 154.17Z" fill="#F0E4E4" />
            <path d="M551.905 154.267H552.431L552.885 154.313H552.723L551.905 154.267Z" fill="#F0E4E4" />
            <path d="M548.384 156.889H548.909L549.363 156.941H549.201L548.384 156.889Z" fill="#F0E4E4" />
            <path d="M548.384 156.837H548.909L549.363 156.889H549.201L548.384 156.837Z" fill="#F0E4E4" />
            <path d="M548.384 156.766H548.909L549.363 156.818H549.201L548.384 156.766Z" fill="#F0E4E4" />
            <path d="M548.384 156.727H548.909L549.363 156.779H549.201L548.384 156.727Z" fill="#F0E4E4" />
            <path d="M548.384 156.389H548.909L549.363 156.461H549.201L548.384 156.389Z" fill="#F0E4E4" />
            <path d="M548.384 156.299H548.909L549.363 156.37H549.201L548.384 156.299Z" fill="#F0E4E4" />
            <path opacity="0.1" d="M551.594 142.994C551.543 143.468 551.603 143.948 551.769 144.396C551.849 144.612 551.883 144.842 551.87 145.072C551.856 145.302 551.796 145.527 551.691 145.733C551.76 145.749 551.832 145.749 551.901 145.732C551.97 145.715 552.034 145.682 552.087 145.635C552.198 145.537 552.294 145.423 552.372 145.298C552.456 145.195 552.516 145.075 552.548 144.947C552.56 144.746 552.529 144.545 552.457 144.357C552.37 144.011 552.307 143.66 552.269 143.305C552.269 143.091 552.269 142.468 552.029 142.409C551.789 142.351 551.64 142.812 551.594 142.994Z" fill="black" />
            <path d="M551.627 142.981C551.576 143.455 551.636 143.935 551.802 144.383C551.884 144.6 551.92 144.833 551.908 145.065C551.896 145.297 551.835 145.525 551.73 145.732C551.799 145.749 551.871 145.749 551.94 145.732C552.009 145.715 552.073 145.682 552.126 145.635C552.237 145.537 552.333 145.423 552.411 145.298C552.495 145.195 552.554 145.075 552.586 144.947C552.599 144.746 552.568 144.545 552.496 144.357C552.409 144.011 552.346 143.66 552.308 143.305C552.308 143.091 552.308 142.468 552.068 142.41C551.828 142.351 551.691 142.799 551.627 142.981Z" fill="#72351C" />
            <path opacity="0.1" d="M551.082 143.312C551.186 143.422 551.212 143.591 551.302 143.721C551.384 143.809 551.485 143.878 551.598 143.922C551.71 143.965 551.831 143.983 551.951 143.974C552.014 143.97 552.076 143.984 552.132 144.013C552.23 144.078 552.236 144.22 552.301 144.318C552.335 144.355 552.376 144.385 552.421 144.406C552.467 144.426 552.517 144.437 552.567 144.437C552.617 144.437 552.667 144.426 552.713 144.406C552.759 144.385 552.799 144.355 552.833 144.318C552.941 144.162 552.996 143.975 552.989 143.785C553.009 143.57 553.009 143.352 552.989 143.136C552.982 142.88 552.881 142.634 552.703 142.448C552.555 142.34 552.385 142.266 552.204 142.234C551.956 142.147 551.69 142.126 551.432 142.176C551.308 142.217 551.19 142.276 551.082 142.351L550.628 142.656C550.459 142.773 550.148 143.007 550.453 143.136C550.673 143.182 550.92 143.136 551.082 143.312Z" fill="black" />
            <path d="M551.114 143.299C551.218 143.409 551.244 143.578 551.335 143.708C551.417 143.796 551.518 143.865 551.63 143.909C551.742 143.952 551.863 143.97 551.983 143.961C552.046 143.957 552.109 143.971 552.165 144C552.262 144.064 552.269 144.207 552.334 144.305C552.367 144.342 552.408 144.372 552.454 144.393C552.5 144.413 552.549 144.424 552.599 144.424C552.65 144.424 552.699 144.413 552.745 144.393C552.791 144.372 552.832 144.342 552.865 144.305C552.996 144.148 553.067 143.95 553.066 143.746C553.087 143.531 553.087 143.313 553.066 143.097C553.06 142.841 552.958 142.595 552.781 142.41C552.633 142.301 552.462 142.227 552.282 142.195C552.034 142.108 551.768 142.087 551.51 142.137C551.385 142.178 551.268 142.237 551.16 142.312L550.706 142.617C550.537 142.734 550.226 142.968 550.531 143.097C550.706 143.136 550.946 143.136 551.114 143.299Z" fill="#72351C" />
            <path d="M551.938 153.943H552.463L552.917 153.988H552.755L551.938 153.943Z" fill="#F0E4E4" />
            <path d="M551.938 154.053H552.463L552.917 154.098H552.755L551.938 154.053Z" fill="#F0E4E4" />
            <path d="M551.938 154.17H552.463L552.917 154.215H552.755L551.938 154.17Z" fill="#F0E4E4" />
            <path d="M551.938 154.267H552.463L552.917 154.313H552.755L551.938 154.267Z" fill="#F0E4E4" />
            <path d="M551.691 160.258H552.217L552.671 160.303H552.509L551.691 160.258Z" fill="#F0E4E4" />
            <path d="M551.691 160.361H552.217L552.671 160.407H552.509L551.691 160.361Z" fill="#F0E4E4" />
            <path d="M551.691 160.472H552.217L552.671 160.517H552.509L551.691 160.472Z" fill="#F0E4E4" />
            <path d="M551.691 160.582H552.217L552.671 160.628H552.509L551.691 160.582Z" fill="#F0E4E4" />
            <path opacity="0.2" d="M257.486 453.861H205.899V424.779H257.486V453.861ZM208.078 451.681H255.294V426.96H208.078V451.681Z" fill="#38A169" />
            <path d="M171.564 410.26C174.807 412.155 178.225 412.928 181.759 411.753C182.678 411.444 183.566 411.05 184.412 410.578C217.489 411.279 248.121 410.955 249.308 407.391C251.254 401.485 238.931 372.396 232.711 358.339C234.541 357.094 236.088 355.477 237.251 353.594C245.89 363.479 261.962 376.232 271.515 376.868C271.515 376.868 285.459 410.014 301.148 404.776C316.837 399.538 318.582 371.63 310.734 368.145L258.44 335V280.002C260.029 276.849 260.782 273.34 260.626 269.812C260.626 269.163 260.658 268.514 260.626 267.865L258.881 252.165C258.881 252.165 258.79 251.646 258.55 250.705C254.659 235.576 245.987 225.393 233.762 223.881C234.357 222.793 234.719 221.593 234.825 220.357C235.078 217.423 233.859 214.431 234.546 211.569C235.351 208.233 238.438 206.078 240.974 203.781C246.389 198.822 249.801 192.099 253.096 185.537C256.235 179.287 259.419 172.875 260.23 165.93C261.041 158.986 258.933 151.275 253.258 147.186C248.847 144 242.641 143.162 239.469 138.749C238.049 136.763 237.459 134.316 236.479 132.084C233.658 125.652 227.574 121.089 220.972 118.707C197.805 110.361 169.385 119.941 154.604 139.19C149.778 145.473 146.295 152.664 142.851 159.797L130.399 185.556C128.252 189.989 126.177 195.525 129.043 199.53C130.444 201.477 132.844 202.684 133.817 204.884C135.114 207.805 133.493 211.628 135.399 214.198C136.45 215.619 138.273 216.184 139.836 217.014C141.935 218.21 143.761 219.83 145.199 221.772L117.856 242.975C115.88 244.507 114.236 246.426 113.025 248.614C111.814 250.802 111.061 253.214 110.812 255.703L108.107 282.676C107.247 285.739 106.836 288.911 106.888 292.093C106.791 294.936 107.122 298.071 108.542 300.53L109.139 300.388C109.787 319.306 110.916 346.526 112.031 351.556C112.68 354.542 116.772 359.805 122.285 365.231L120.34 370.748H120.988L120.34 372.481H121.637C116.137 392.367 101.174 407.353 101.174 407.353C101.174 407.353 135.776 409.235 171.564 410.26ZM139.044 318.372V297.168C142.235 297.662 144.59 298.765 145.342 300.777L139.044 318.372ZM148.28 226.094L148.384 226.25H148.345L148.28 226.094Z" fill="url(#paint2_linear)" />
            <path d="M226.958 274.239C226.958 274.239 228.612 333.053 230.272 340.51C231.933 347.967 255.943 370.358 268.35 371.189C268.35 371.189 281.594 402.667 296.498 397.695C311.402 392.724 313.056 366.218 305.578 362.901L255.943 331.424V268.469L226.958 274.239Z" fill="#FDB797" />
            <path d="M228.203 346.338C228.203 346.338 249.73 392.73 247.246 400.207C244.761 407.684 106.505 400.207 106.505 400.207C106.505 400.207 132.169 374.525 127.201 346.338H228.203Z" fill="#565171" />
            <path d="M211.645 208.824C211.645 208.824 208.331 241.132 214.129 248.589C219.928 256.046 190.95 260.181 188.491 260.181C186.033 260.181 159.52 251.094 154.552 248.583C149.584 246.071 145.472 227.873 145.472 227.873C145.472 227.873 170.305 232.844 177.758 203.859L211.645 208.824Z" fill="#FDB797" />
            <path d="M220.323 125.95C226.595 128.209 232.374 132.544 235.052 138.652C235.986 140.774 236.544 143.098 237.893 144.986C240.902 149.192 246.798 149.984 250.988 153.015C256.364 156.909 258.356 164.223 257.61 170.817C256.864 177.411 253.835 183.506 250.858 189.438C247.725 195.675 244.489 202.055 239.346 206.766C236.946 208.967 234.002 211.011 233.236 214.178C232.588 216.898 233.742 219.734 233.496 222.525C232.899 229.411 224.675 232.617 217.807 233.383C214.823 233.714 211.405 233.733 209.304 231.585C208.227 230.482 207.689 228.989 207.002 227.6C205.439 224.437 203.031 221.769 200.046 219.892C197.06 218.015 193.613 217.002 190.087 216.965C186.562 216.929 183.095 217.871 180.071 219.686C177.048 221.501 174.586 224.119 172.958 227.249C171.35 230.352 170.409 234.11 167.478 236.005C162.99 238.906 156.99 235.499 153.689 231.306C150.388 227.113 147.982 221.843 143.267 219.331C141.781 218.54 140.024 218.033 139.057 216.657C137.248 214.217 138.785 210.589 137.559 207.811C136.632 205.721 134.355 204.566 133.019 202.723C130.295 198.92 132.267 193.637 134.316 189.451L146.146 164.982C149.389 158.207 152.729 151.353 157.308 145.408C171.324 127.119 198.317 118.019 220.323 125.95Z" fill="#8F5A6A" />
            <path opacity="0.1" d="M190.126 254.385C190.126 254.385 157.84 254.385 149.564 224.562L122.389 245.636C120.514 247.093 118.954 248.916 117.804 250.994C116.655 253.073 115.94 255.364 115.702 257.727L113.108 283.383C113.108 283.383 110.209 292.911 113.523 298.707C113.523 298.707 147.897 290.01 148.708 299.946L124.724 367.048C124.724 367.048 161.978 367.879 171.907 361.253C171.907 361.253 212.469 369.534 222.405 360.422C232.341 351.31 242.271 352.14 233.995 331.43C233.995 331.43 250.553 314.861 243.075 291.665C235.597 268.469 242.66 292.08 242.66 292.08C242.66 292.08 258.803 284.207 257.973 269.299L256.319 254.372C256.319 254.372 256.228 253.879 256.001 252.99C250.955 233.337 237.394 222.486 218.332 229.404C212.761 231.423 207.066 229.112 207.066 229.112C207.066 229.112 213.299 256.066 190.126 254.385Z" fill="black" />
            <path d="M190.126 252.73C190.126 252.73 157.84 252.73 149.564 222.907L122.389 243.981C120.514 245.437 118.955 247.259 117.805 249.336C116.656 251.414 115.94 253.703 115.702 256.066L113.108 281.722C113.108 281.722 110.209 291.249 113.523 297.045C113.523 297.045 147.897 288.348 148.708 298.285L124.711 365.387C124.711 365.387 161.965 366.218 171.895 359.591C171.895 359.591 212.456 367.873 222.392 358.76C232.328 349.648 242.258 350.479 233.982 329.769C233.982 329.769 250.54 313.199 243.062 290.003C235.584 266.807 242.647 290.419 242.647 290.419C242.647 290.419 258.79 282.546 257.96 267.638L256.306 252.71C256.306 252.71 256.215 252.217 255.988 251.328C250.942 231.676 237.381 220.824 218.319 227.743C212.748 229.761 207.054 227.451 207.054 227.451C207.054 227.451 213.299 254.385 190.126 252.73Z" fill="#42C17D" />
            <path d="M113.549 280.891C113.549 280.891 115.203 339.705 116.863 347.162C118.524 354.62 142.527 376.985 154.941 377.816C154.941 377.816 168.185 409.293 183.089 404.322C197.993 399.35 199.647 372.844 192.169 369.528L142.501 338.05V275.095L113.549 280.891Z" fill="#FDB797" />
            <path opacity="0.1" d="M149.143 282.961C149.143 282.961 130.12 295.89 113.549 294.812C113.549 294.812 111.895 272.609 116.863 271.37C121.831 270.13 143.351 271.37 149.143 282.961Z" fill="black" />
            <path d="M149.143 282.137C149.143 282.137 130.12 295.066 113.549 293.982C113.549 293.982 111.895 271.779 116.863 270.539C121.831 269.299 143.351 270.539 149.143 282.137Z" fill="#42C17D" />
            <path opacity="0.1" d="M176.052 205.507L209.992 210.479C209.992 210.479 209.226 217.956 209.077 226.542C202.482 229.324 195.237 230.191 188.172 229.043C181.107 227.896 174.508 224.779 169.132 220.052C171.972 216.547 174.424 211.835 176.052 205.507Z" fill="black" />
            <path d="M195.918 227.873C216.947 227.873 233.995 210.813 233.995 189.769C233.995 168.724 216.947 151.665 195.918 151.665C174.888 151.665 157.84 168.724 157.84 189.769C157.84 210.813 174.888 227.873 195.918 227.873Z" fill="#FDB797" />
            <path opacity="0.1" d="M185.897 182.448C187.467 183.174 189.257 183.187 190.988 183.174C197.725 183.131 204.455 182.882 211.178 182.428C216.276 182.084 221.711 181.487 225.642 178.222C230.934 173.829 231.771 165.593 229.04 159.278C226.31 152.963 220.738 148.309 214.856 144.752C211.528 142.641 207.922 141.005 204.141 139.891C193.226 136.925 181.156 140.54 172.485 147.842C163.813 155.143 158.287 165.612 155.362 176.548C154.351 180.332 153.053 184.836 149.311 185.985C151.802 190.132 157.879 190.787 162.25 188.711C168.684 185.647 171.979 173.926 177.758 172.083C184.185 170.051 180.436 179.942 185.897 182.448Z" fill="black" />
            <path d="M185.897 181.617C187.467 182.344 189.257 182.357 190.988 182.344C197.725 182.301 204.455 182.052 211.178 181.597C216.276 181.253 221.711 180.656 225.642 177.392C230.934 172.998 231.771 164.762 229.04 158.447C226.31 152.132 220.738 147.478 214.856 143.922C211.532 141.823 207.933 140.198 204.161 139.093C193.245 136.127 181.176 139.742 172.504 147.044C163.833 154.345 158.307 164.814 155.382 175.75C154.37 179.534 153.073 184.038 149.331 185.187C151.821 189.334 157.898 189.989 162.27 187.912C168.704 184.849 171.998 173.128 177.777 171.285C184.185 169.227 180.436 179.112 185.897 181.617Z" fill="#8F5A6A" />
            <path opacity="0.1" d="M234.41 329.353C221.99 326.033 209.188 324.362 196.333 324.382Z" fill="black" />
            <path opacity="0.1" d="M149.143 284.623C149.143 284.623 161.563 293.709 158.223 298.707Z" fill="black" />
            <g opacity="0.7">
                <path opacity="0.7" d="M492.399 378.549H85.9393V414.109H109.599V421.053V526.006H469.582V421.053V414.109H492.399V378.549Z" fill="url(#paint3_linear)" />
            </g>
            <path d="M465.905 399.259H113.257V526.006H465.905V399.259Z" fill="#E0E0E0" />
            <path opacity="0.1" d="M465.905 405.886H113.257V425.765H465.905V405.886Z" fill="black" />
            <path d="M488.261 385.176H90.0772V419.139H488.261V385.176Z" fill="#E0E0E0" />
            <path d="M237.257 376.816H169.527C167.199 376.816 165.311 378.705 165.311 381.035V383.365C165.311 385.695 167.199 387.583 169.527 387.583H237.257C239.586 387.583 241.473 385.695 241.473 383.365V381.035C241.473 378.705 239.586 376.816 237.257 376.816Z" fill="#535461" />
            <g opacity="0.7">
                <path opacity="0.7" d="M382.648 256.747H229.968C219.859 256.747 211.665 264.947 211.665 275.063V369.404C211.665 379.52 219.859 387.72 229.968 387.72H382.648C392.756 387.72 400.95 379.52 400.95 369.404V275.063C400.95 264.947 392.756 256.747 382.648 256.747Z" fill="url(#paint4_linear)" />
            </g>
            <path d="M376.947 259.168H232.452C222.838 259.168 215.044 266.967 215.044 276.588V370.3C215.044 379.921 222.838 387.72 232.452 387.72H376.947C386.561 387.72 394.354 379.921 394.354 370.3V276.588C394.354 266.967 386.561 259.168 376.947 259.168Z" fill="#3E3F49" />
            <path d="M379.431 259.168H234.936C225.322 259.168 217.528 266.967 217.528 276.588V370.3C217.528 379.921 225.322 387.72 234.936 387.72H379.431C389.045 387.72 396.838 379.921 396.838 370.3V276.588C396.838 266.967 389.045 259.168 379.431 259.168Z" fill="#535461" />
            <path d="M315.56 328.354C318.758 328.354 321.351 325.759 321.351 322.558C321.351 319.357 318.758 316.762 315.56 316.762C312.361 316.762 309.768 319.357 309.768 322.558C309.768 325.759 312.361 328.354 315.56 328.354Z" fill="#E0E0E0" />
        </g>
    </g>
    <defs>
        <linearGradient id="paint0_linear" x1="493.943" y1="239.471" x2="493.943" y2="16.227" gradientUnits="userSpaceOnUse">
            <stop stop-color="#808080" stop-opacity="0.25" />
            <stop offset="0.54" stop-color="#808080" stop-opacity="0.12" />
            <stop offset="1" stop-color="#808080" stop-opacity="0.1" />
        </linearGradient>
        <linearGradient id="paint1_linear" x1="8922.51" y1="7572.79" x2="8922.51" y2="6615.92" gradientUnits="userSpaceOnUse">
            <stop stop-color="#808080" stop-opacity="0.25" />
            <stop offset="0.54" stop-color="#808080" stop-opacity="0.12" />
            <stop offset="1" stop-color="#808080" stop-opacity="0.1" />
        </linearGradient>
        <linearGradient id="paint2_linear" x1="-113593" y1="201154" x2="-113593" y2="65552.4" gradientUnits="userSpaceOnUse">
            <stop stop-color="#808080" stop-opacity="0.25" />
            <stop offset="0.54" stop-color="#808080" stop-opacity="0.12" />
            <stop offset="1" stop-color="#808080" stop-opacity="0.1" />
        </linearGradient>
        <linearGradient id="paint3_linear" x1="179428" y1="119204" x2="179428" y2="85703.3" gradientUnits="userSpaceOnUse">
            <stop stop-color="#808080" stop-opacity="0.25" />
            <stop offset="0.54" stop-color="#808080" stop-opacity="0.12" />
            <stop offset="1" stop-color="#808080" stop-opacity="0.1" />
        </linearGradient>
        <linearGradient id="paint4_linear" x1="88733" y1="77893.2" x2="88733" y2="51463" gradientUnits="userSpaceOnUse">
            <stop stop-color="#808080" stop-opacity="0.25" />
            <stop offset="0.54" stop-color="#808080" stop-opacity="0.12" />
            <stop offset="1" stop-color="#808080" stop-opacity="0.1" />
        </linearGradient>
        <clipPath id="clip0">
            <rect x="-255" y="-3544" width="1440" height="4960" fill="white" />
        </clipPath>
        <clipPath id="clip1">
            <rect x="3" y="3" width="681" height="523" fill="white" />
        </clipPath>
    </defs>
</svg>
