<svg width="1117" height="518" viewBox="0 0 1117 518" fill="none" xmlns="http://www.w3.org/2000/svg">
    <g clip-path="url(#clip0)">
        <path d="M100.25 493.864L98.746 493.316C98.4157 493.195 65.5336 480.931 50.1301 453.122C34.7261 425.313 42.2687 391.83 42.3467 391.496L42.7017 389.971L44.2045 390.519C44.5349 390.641 77.4163 402.905 92.8204 430.713C108.224 458.523 100.682 492.005 100.604 492.34L100.25 493.864ZM52.5967 451.828C65.6197 475.34 91.6042 487.392 98.1879 490.144C99.4396 483.274 103.365 455.497 90.3538 432.007C77.3438 408.521 51.3491 396.45 44.7627 393.692C43.5102 400.565 39.586 428.34 52.5967 451.828Z" fill="#3F3D56" />
        <path d="M61.902 443.367C89.584 459.58 100.245 491.782 100.245 491.782C100.245 491.782 66.0251 497.699 38.3431 481.487C10.6612 465.274 0 433.071 0 433.071C0 433.071 34.2201 427.155 61.902 443.367Z" fill="#38A169" />
        <path d="M567.875 46.0538C572.091 46.0538 575.51 42.7263 575.51 38.6216C575.51 34.5168 572.091 31.1893 567.875 31.1893C563.658 31.1893 560.24 34.5168 560.24 38.6216C560.24 42.7263 563.658 46.0538 567.875 46.0538Z" fill="#38A169" />
        <path d="M989.598 458.542H916.951V453.447C916.951 453.314 916.924 453.183 916.872 453.06C916.82 452.937 916.743 452.826 916.647 452.732C916.551 452.638 916.436 452.564 916.31 452.513C916.184 452.462 916.049 452.436 915.913 452.436H891.006C890.869 452.436 890.734 452.462 890.608 452.513C890.483 452.564 890.368 452.638 890.272 452.732C890.175 452.826 890.099 452.937 890.047 453.06C889.995 453.183 889.968 453.314 889.968 453.447V458.542H874.401V453.447C874.401 453.314 874.374 453.183 874.322 453.06C874.269 452.937 874.193 452.826 874.097 452.732C874 452.638 873.886 452.564 873.76 452.513C873.634 452.462 873.499 452.436 873.363 452.436H848.455C848.319 452.436 848.184 452.462 848.058 452.513C847.932 452.564 847.818 452.638 847.721 452.732C847.625 452.826 847.548 452.937 847.496 453.06C847.444 453.183 847.417 453.314 847.417 453.447V458.542H831.85V453.447C831.85 453.314 831.823 453.183 831.771 453.06C831.719 452.937 831.643 452.826 831.546 452.732C831.45 452.638 831.335 452.564 831.209 452.513C831.083 452.462 830.949 452.436 830.812 452.436H805.905C805.768 452.436 805.633 452.462 805.507 452.513C805.382 452.564 805.267 452.638 805.171 452.732C805.074 452.826 804.998 452.937 804.946 453.06C804.894 453.183 804.867 453.314 804.867 453.447V458.542H789.3V453.447C789.3 453.314 789.273 453.183 789.221 453.06C789.168 452.937 789.092 452.826 788.996 452.732C788.899 452.638 788.785 452.564 788.659 452.513C788.533 452.462 788.398 452.436 788.262 452.436H763.354C763.218 452.436 763.083 452.462 762.957 452.513C762.831 452.564 762.717 452.638 762.62 452.732C762.524 452.826 762.448 452.937 762.395 453.06C762.343 453.183 762.316 453.314 762.316 453.447V458.542H746.749V453.447C746.749 453.314 746.722 453.183 746.67 453.06C746.618 452.937 746.542 452.826 746.445 452.732C746.349 452.638 746.234 452.564 746.108 452.513C745.983 452.462 745.848 452.436 745.711 452.436H720.804C720.667 452.436 720.533 452.462 720.407 452.513C720.281 452.564 720.166 452.638 720.07 452.732C719.974 452.826 719.897 452.937 719.845 453.06C719.793 453.183 719.766 453.314 719.766 453.447V458.542H704.199V453.447C704.199 453.314 704.172 453.183 704.12 453.06C704.068 452.937 703.991 452.826 703.895 452.732C703.798 452.638 703.684 452.564 703.558 452.513C703.432 452.462 703.297 452.436 703.161 452.436H678.253C678.117 452.436 677.982 452.462 677.856 452.513C677.73 452.564 677.616 452.638 677.519 452.732C677.423 452.826 677.347 452.937 677.294 453.06C677.242 453.183 677.216 453.314 677.216 453.447V458.542H661.648V453.447C661.648 453.314 661.621 453.183 661.569 453.06C661.517 452.937 661.441 452.826 661.344 452.732C661.248 452.638 661.133 452.564 661.008 452.513C660.882 452.462 660.747 452.436 660.61 452.436H465.501C465.365 452.436 465.23 452.462 465.104 452.513C464.978 452.564 464.864 452.638 464.767 452.732C464.671 452.826 464.594 452.937 464.542 453.06C464.49 453.183 464.463 453.314 464.463 453.447V458.542H448.896V453.447C448.896 453.314 448.869 453.183 448.817 453.06C448.765 452.937 448.688 452.826 448.592 452.732C448.496 452.638 448.381 452.564 448.255 452.513C448.129 452.462 447.994 452.436 447.858 452.436H422.951C422.814 452.436 422.679 452.462 422.553 452.513C422.427 452.564 422.313 452.638 422.217 452.732C422.12 452.826 422.044 452.937 421.992 453.06C421.94 453.183 421.913 453.314 421.913 453.447V458.542H406.345V453.447C406.345 453.314 406.319 453.183 406.266 453.06C406.214 452.937 406.138 452.826 406.042 452.732C405.945 452.638 405.831 452.564 405.705 452.513C405.579 452.462 405.444 452.436 405.308 452.436H380.4C380.264 452.436 380.129 452.462 380.003 452.513C379.877 452.564 379.763 452.638 379.666 452.732C379.57 452.826 379.493 452.937 379.441 453.06C379.389 453.183 379.362 453.314 379.362 453.447V458.542H363.795V453.447C363.795 453.314 363.768 453.183 363.716 453.06C363.664 452.937 363.587 452.826 363.491 452.732C363.395 452.638 363.28 452.564 363.154 452.513C363.028 452.462 362.893 452.436 362.757 452.436H337.85C337.713 452.436 337.578 452.462 337.452 452.513C337.327 452.564 337.212 452.638 337.116 452.732C337.019 452.826 336.943 452.937 336.891 453.06C336.839 453.183 336.812 453.314 336.812 453.447V458.542H321.245V453.447C321.245 453.314 321.218 453.183 321.166 453.06C321.113 452.937 321.037 452.826 320.941 452.732C320.844 452.638 320.73 452.564 320.604 452.513C320.478 452.462 320.343 452.436 320.207 452.436H295.299C295.163 452.436 295.028 452.462 294.902 452.513C294.776 452.564 294.662 452.638 294.565 452.732C294.469 452.826 294.392 452.937 294.34 453.06C294.288 453.183 294.261 453.314 294.261 453.447V458.542H278.694V453.447C278.694 453.314 278.667 453.183 278.615 453.06C278.563 452.937 278.487 452.826 278.39 452.732C278.294 452.638 278.179 452.564 278.053 452.513C277.928 452.462 277.793 452.436 277.656 452.436H252.749C252.612 452.436 252.477 452.462 252.352 452.513C252.226 452.564 252.111 452.638 252.015 452.732C251.918 452.826 251.842 452.937 251.79 453.06C251.738 453.183 251.711 453.314 251.711 453.447V458.542H236.144V453.447C236.144 453.314 236.117 453.183 236.065 453.06C236.012 452.937 235.936 452.826 235.84 452.732C235.743 452.638 235.629 452.564 235.503 452.513C235.377 452.462 235.242 452.436 235.106 452.436H210.198C210.062 452.436 209.927 452.462 209.801 452.513C209.675 452.564 209.561 452.638 209.464 452.732C209.368 452.826 209.292 452.937 209.239 453.06C209.187 453.183 209.16 453.314 209.16 453.447V458.542H161.421C154.815 458.542 148.48 461.097 143.809 465.644C139.137 470.191 136.513 476.358 136.513 482.789V493.753C136.513 500.183 139.138 506.351 143.809 510.898C148.48 515.445 154.815 518 161.421 518H989.598C996.204 518 1002.54 515.445 1007.21 510.898C1011.88 506.351 1014.51 500.183 1014.51 493.753V482.789C1014.51 476.358 1011.88 470.191 1007.21 465.644C1002.54 461.097 996.204 458.542 989.598 458.542V458.542Z" fill="#3F3D56" />
        <path d="M1116.95 493.125H34.0652V496.342H1116.95V493.125Z" fill="#3F3D56" />
    </g>
    <path d="M947.817 21.2793H642.229C640.519 21.2793 639.132 19.8929 639.132 18.1826V18.1826C639.132 16.4723 637.746 15.0858 636.035 15.0858H502.259C500.549 15.0858 499.162 16.4723 499.162 18.1826V18.1826C499.162 19.8929 497.776 21.2793 496.066 21.2793H189.205C186.463 21.2793 183.748 21.8051 181.214 22.8266C178.681 23.8481 176.379 25.3453 174.44 27.2328C172.501 29.1203 170.963 31.3611 169.914 33.8272C168.865 36.2933 168.325 38.9365 168.325 41.6058V453.08C168.325 458.471 170.524 463.641 174.44 467.453C178.356 471.265 183.667 473.406 189.205 473.406H947.817C950.559 473.406 953.274 472.881 955.808 471.859C958.341 470.838 960.643 469.34 962.582 467.453C964.521 465.565 966.059 463.325 967.108 460.858C968.157 458.392 968.697 455.749 968.697 453.08V41.6058C968.697 38.9365 968.157 36.2933 967.108 33.8272C966.059 31.361 964.521 29.1203 962.582 27.2328C960.643 25.3453 958.341 23.8481 955.808 22.8266C953.274 21.8051 950.559 21.2793 947.817 21.2793Z" fill="#3F3D56" />
    <rect x="205.91" y="47.4249" width="732.713" height="376.558" rx="8.5" fill="white" />
    <rect x="205.91" y="47.4249" width="732.713" height="376.558" rx="8.5" stroke="#3F3D56" stroke-width="3" />
    <path d="M856.381 287H661.381C655.858 287 651.381 291.477 651.381 297C651.381 302.523 655.858 307 661.381 307H856.381C861.904 307 866.381 302.523 866.381 297C866.381 291.477 861.904 287 856.381 287Z" fill="#F2F2F2" />
    <path d="M722.488 301.838H724.627L726.138 294.038L723.732 294.558L723.971 293.3L726.377 292.794H727.765L726.001 301.838H728.113L727.888 303H722.262L722.488 301.838ZM735.011 292.609C736.1 292.573 736.841 292.994 737.233 293.874C737.629 294.754 737.67 296.068 737.356 297.818C737.041 299.573 736.524 300.906 735.804 301.817C735.084 302.729 734.179 303.201 733.09 303.232C732.001 303.264 731.26 302.843 730.868 301.968C730.476 301.088 730.435 299.773 730.745 298.023C731.064 296.269 731.582 294.936 732.297 294.024C733.017 293.113 733.922 292.641 735.011 292.609ZM733.288 302.125C733.935 302.107 734.48 301.747 734.922 301.045C735.364 300.343 735.713 299.281 735.968 297.859C736.109 297.103 736.189 296.422 736.207 295.815L732.024 301.045C732.229 301.788 732.65 302.148 733.288 302.125ZM734.813 293.717C734.17 293.735 733.628 294.095 733.186 294.797C732.744 295.499 732.393 296.561 732.133 297.982C732.015 298.625 731.948 299.229 731.935 299.794L736.043 294.578C735.811 293.981 735.401 293.694 734.813 293.717ZM743.447 292.609C744.536 292.573 745.276 292.994 745.668 293.874C746.065 294.754 746.106 296.068 745.791 297.818C745.477 299.573 744.96 300.906 744.239 301.817C743.519 302.729 742.615 303.201 741.526 303.232C740.436 303.264 739.696 302.843 739.304 301.968C738.912 301.088 738.871 299.773 739.181 298.023C739.5 296.269 740.017 294.936 740.733 294.024C741.453 293.113 742.357 292.641 743.447 292.609ZM741.724 302.125C742.371 302.107 742.916 301.747 743.358 301.045C743.8 300.343 744.148 299.281 744.404 297.859C744.545 297.103 744.625 296.422 744.643 295.815L740.459 301.045C740.664 301.788 741.086 302.148 741.724 302.125ZM743.248 293.717C742.606 293.735 742.063 294.095 741.621 294.797C741.179 295.499 740.828 296.561 740.569 297.982C740.45 298.625 740.384 299.229 740.37 299.794L744.479 294.578C744.246 293.981 743.836 293.694 743.248 293.717ZM751.486 300.819C751.486 301.175 751.604 301.473 751.841 301.715C752.083 301.956 752.381 302.077 752.737 302.077C753.087 302.077 753.384 301.956 753.625 301.715C753.871 301.469 753.994 301.17 753.994 300.819C753.994 300.468 753.871 300.17 753.625 299.924C753.379 299.678 753.083 299.555 752.737 299.555C752.381 299.555 752.083 299.675 751.841 299.917C751.604 300.159 751.486 300.459 751.486 300.819ZM750.563 300.819C750.563 300.204 750.772 299.687 751.192 299.268C751.611 298.844 752.126 298.632 752.737 298.632C753.028 298.632 753.304 298.687 753.564 298.796C753.828 298.905 754.065 299.065 754.275 299.274C754.484 299.489 754.646 299.728 754.76 299.992C754.874 300.257 754.931 300.532 754.931 300.819C754.931 301.425 754.719 301.94 754.295 302.364C753.871 302.788 753.352 303 752.737 303C752.117 303 751.599 302.793 751.185 302.378C750.77 301.959 750.563 301.439 750.563 300.819ZM747.295 299.992L746.994 299.22L754.616 296.171L754.958 296.943L747.295 299.992ZM747.876 295.398C747.876 295.758 747.995 296.059 748.232 296.301C748.473 296.538 748.774 296.656 749.134 296.656C749.485 296.656 749.783 296.535 750.03 296.294C750.276 296.048 750.399 295.749 750.399 295.398C750.399 295.048 750.276 294.751 750.03 294.51C749.783 294.264 749.485 294.141 749.134 294.141C748.783 294.141 748.485 294.261 748.238 294.503C747.997 294.744 747.876 295.043 747.876 295.398ZM746.953 295.398C746.953 294.783 747.163 294.266 747.582 293.847C748.002 293.423 748.519 293.211 749.134 293.211C749.426 293.211 749.704 293.266 749.968 293.375C750.237 293.484 750.474 293.642 750.679 293.847C750.884 294.052 751.041 294.289 751.151 294.558C751.265 294.822 751.322 295.102 751.322 295.398C751.322 296.009 751.11 296.526 750.686 296.95C750.262 297.369 749.745 297.579 749.134 297.579C748.519 297.579 748.002 297.369 747.582 296.95C747.163 296.531 746.953 296.014 746.953 295.398ZM772.11 292.363L771.898 293.409H770.476C770.043 293.409 769.717 293.505 769.498 293.696C769.28 293.883 769.125 294.207 769.033 294.667L768.89 295.344H771.522L771.344 296.321H768.712L767.406 303H766.149L767.447 296.321H765.404L765.602 295.344H767.632L767.741 294.811C767.915 293.931 768.22 293.304 768.657 292.931C769.099 292.552 769.747 292.363 770.599 292.363H772.11ZM780.128 296.923C779.923 296.722 779.684 296.572 779.41 296.472C779.141 296.371 778.834 296.321 778.488 296.321C777.74 296.321 777.1 296.583 776.567 297.107C776.033 297.627 775.68 298.34 775.507 299.247L774.776 303H773.518L775.001 295.344H776.259L775.986 296.841C776.291 296.294 776.685 295.877 777.168 295.59C777.656 295.303 778.207 295.159 778.822 295.159C779.146 295.159 779.438 295.202 779.697 295.289C779.962 295.371 780.185 295.492 780.367 295.651L780.128 296.923ZM786.882 298.495C786.909 298.372 786.928 298.272 786.937 298.194C786.946 298.112 786.95 298.035 786.95 297.962C786.95 297.415 786.802 296.989 786.506 296.684C786.21 296.378 785.797 296.226 785.269 296.226C784.708 296.226 784.196 296.431 783.731 296.841C783.27 297.251 782.94 297.802 782.739 298.495H786.882ZM787.039 302.61C786.561 302.806 786.094 302.952 785.638 303.048C785.182 303.148 784.72 303.198 784.25 303.198C783.234 303.198 782.461 302.945 781.933 302.439C781.404 301.929 781.14 301.186 781.14 300.211C781.14 299.5 781.277 298.803 781.55 298.119C781.823 297.436 782.202 296.845 782.685 296.349C783.063 295.957 783.48 295.658 783.936 295.453C784.396 295.248 784.875 295.146 785.371 295.146C786.219 295.146 786.896 295.408 787.402 295.932C787.912 296.451 788.167 297.146 788.167 298.017C788.167 298.172 788.156 298.365 788.133 298.598C788.11 298.826 788.072 299.117 788.017 299.473H782.5C782.473 299.618 782.452 299.751 782.439 299.869C782.425 299.988 782.418 300.092 782.418 300.184C782.418 300.817 782.594 301.3 782.945 301.633C783.295 301.965 783.806 302.132 784.476 302.132C784.877 302.132 785.314 302.068 785.788 301.94C786.267 301.808 786.766 301.615 787.285 301.359L787.039 302.61ZM795.318 298.495C795.345 298.372 795.363 298.272 795.372 298.194C795.381 298.112 795.386 298.035 795.386 297.962C795.386 297.415 795.238 296.989 794.942 296.684C794.645 296.378 794.233 296.226 793.704 296.226C793.144 296.226 792.631 296.431 792.166 296.841C791.706 297.251 791.376 297.802 791.175 298.495H795.318ZM795.475 302.61C794.996 302.806 794.529 302.952 794.073 303.048C793.618 303.148 793.155 303.198 792.686 303.198C791.669 303.198 790.897 302.945 790.368 302.439C789.84 301.929 789.575 301.186 789.575 300.211C789.575 299.5 789.712 298.803 789.986 298.119C790.259 297.436 790.637 296.845 791.12 296.349C791.499 295.957 791.916 295.658 792.371 295.453C792.832 295.248 793.31 295.146 793.807 295.146C794.655 295.146 795.331 295.408 795.837 295.932C796.348 296.451 796.603 297.146 796.603 298.017C796.603 298.172 796.591 298.365 796.569 298.598C796.546 298.826 796.507 299.117 796.452 299.473H790.936C790.908 299.618 790.888 299.751 790.874 299.869C790.861 299.988 790.854 300.092 790.854 300.184C790.854 300.817 791.029 301.3 791.38 301.633C791.731 301.965 792.241 302.132 792.911 302.132C793.312 302.132 793.75 302.068 794.224 301.94C794.702 301.808 795.201 301.615 795.721 301.359L795.475 302.61Z" fill="black" />
    <path d="M866.381 311H651.381V312.497H866.381V311Z" fill="#3F3D56" />
    <path d="M610.928 306.297C614.754 306.297 617.856 303.274 617.856 299.545C617.856 295.815 614.754 292.792 610.928 292.792C607.102 292.792 604 295.815 604 299.545C604 303.274 607.102 306.297 610.928 306.297Z" fill="#3F3D56" />
    <path d="M856.381 249H661.381C655.858 249 651.381 253.477 651.381 259C651.381 264.523 655.858 269 661.381 269H856.381C861.904 269 866.381 264.523 866.381 259C866.381 253.477 861.904 249 856.381 249Z" fill="#F2F2F2" />
    <path d="M681.246 264.036L680.488 267.912H679.23L681.287 257.344H682.545L682.354 258.321C682.632 257.948 682.967 257.66 683.359 257.46C683.751 257.259 684.174 257.159 684.63 257.159C685.368 257.159 685.94 257.396 686.346 257.87C686.752 258.344 686.954 259.007 686.954 259.859C686.954 260.511 686.863 261.165 686.681 261.821C686.503 262.478 686.255 263.056 685.936 263.558C685.594 264.095 685.191 264.503 684.726 264.781C684.261 265.059 683.751 265.198 683.195 265.198C682.739 265.198 682.349 265.103 682.026 264.911C681.707 264.72 681.447 264.428 681.246 264.036ZM683.133 264.132C683.502 264.132 683.839 264.032 684.145 263.831C684.45 263.626 684.705 263.33 684.91 262.942C685.134 262.523 685.309 262.051 685.437 261.527C685.564 260.999 685.628 260.477 685.628 259.962C685.628 259.383 685.51 258.95 685.273 258.663C685.04 258.371 684.692 258.226 684.227 258.226C683.839 258.226 683.488 258.328 683.174 258.533C682.864 258.738 682.6 259.041 682.381 259.442C682.158 259.843 681.982 260.304 681.855 260.823C681.727 261.343 681.663 261.862 681.663 262.382C681.663 262.942 681.791 263.375 682.046 263.681C682.301 263.981 682.664 264.132 683.133 264.132ZM694.091 260.495C694.118 260.372 694.137 260.272 694.146 260.194C694.155 260.112 694.159 260.035 694.159 259.962C694.159 259.415 694.011 258.989 693.715 258.684C693.419 258.378 693.006 258.226 692.478 258.226C691.917 258.226 691.405 258.431 690.94 258.841C690.479 259.251 690.149 259.802 689.948 260.495H694.091ZM694.248 264.61C693.77 264.806 693.303 264.952 692.847 265.048C692.391 265.148 691.929 265.198 691.459 265.198C690.443 265.198 689.67 264.945 689.142 264.439C688.613 263.929 688.349 263.186 688.349 262.211C688.349 261.5 688.486 260.803 688.759 260.119C689.032 259.436 689.411 258.845 689.894 258.349C690.272 257.957 690.689 257.658 691.145 257.453C691.605 257.248 692.084 257.146 692.58 257.146C693.428 257.146 694.105 257.408 694.611 257.932C695.121 258.451 695.376 259.146 695.376 260.017C695.376 260.172 695.365 260.365 695.342 260.598C695.319 260.826 695.28 261.117 695.226 261.473H689.709C689.682 261.618 689.661 261.751 689.648 261.869C689.634 261.988 689.627 262.092 689.627 262.184C689.627 262.817 689.803 263.3 690.154 263.633C690.504 263.965 691.015 264.132 691.685 264.132C692.086 264.132 692.523 264.068 692.997 263.94C693.476 263.808 693.975 263.615 694.494 263.359L694.248 264.61ZM704.208 258.923C704.003 258.722 703.764 258.572 703.49 258.472C703.222 258.371 702.914 258.321 702.568 258.321C701.82 258.321 701.18 258.583 700.647 259.107C700.113 259.627 699.76 260.34 699.587 261.247L698.856 265H697.598L699.081 257.344H700.339L700.066 258.841C700.371 258.294 700.765 257.877 701.248 257.59C701.736 257.303 702.287 257.159 702.903 257.159C703.226 257.159 703.518 257.202 703.778 257.289C704.042 257.371 704.265 257.492 704.447 257.651L704.208 258.923ZM711.912 257.61L711.673 258.841C711.349 258.636 711.008 258.481 710.648 258.376C710.292 258.267 709.939 258.212 709.588 258.212C708.964 258.212 708.478 258.328 708.132 258.561C707.79 258.793 707.619 259.119 707.619 259.538C707.619 259.985 708.123 260.336 709.13 260.591C709.198 260.609 709.249 260.623 709.28 260.632L709.773 260.755C710.306 260.896 710.705 261.108 710.969 261.391C711.233 261.669 711.365 262.017 711.365 262.437C711.365 263.261 711.037 263.929 710.381 264.439C709.725 264.945 708.854 265.198 707.77 265.198C707.401 265.198 707.016 265.157 706.614 265.075C706.213 264.998 705.787 264.879 705.336 264.72L705.589 263.421C706.017 263.662 706.432 263.845 706.833 263.968C707.239 264.086 707.631 264.146 708.009 264.146C708.615 264.146 709.11 264.011 709.492 263.742C709.875 263.469 710.067 263.122 710.067 262.703C710.067 262.252 709.62 261.908 708.727 261.671C708.645 261.653 708.581 261.637 708.535 261.623L708.077 261.5C707.489 261.35 707.057 261.129 706.779 260.837C706.505 260.545 706.368 260.165 706.368 259.695C706.368 258.921 706.669 258.305 707.271 257.85C707.872 257.389 708.683 257.159 709.704 257.159C710.105 257.159 710.49 257.198 710.86 257.275C711.229 257.348 711.58 257.46 711.912 257.61ZM717.743 258.226C716.996 258.226 716.372 258.615 715.87 259.395C715.374 260.174 715.125 261.165 715.125 262.368C715.125 262.956 715.253 263.398 715.508 263.694C715.763 263.986 716.146 264.132 716.656 264.132C717.404 264.132 718.026 263.742 718.523 262.963C719.024 262.184 719.275 261.192 719.275 259.989C719.275 259.401 719.147 258.962 718.892 258.67C718.637 258.374 718.254 258.226 717.743 258.226ZM717.86 257.159C718.753 257.159 719.432 257.403 719.897 257.891C720.366 258.378 720.601 259.091 720.601 260.03C720.601 260.659 720.507 261.286 720.321 261.91C720.134 262.53 719.872 263.088 719.534 263.585C719.174 264.123 718.737 264.526 718.222 264.795C717.707 265.064 717.114 265.198 716.445 265.198C715.592 265.198 714.936 264.95 714.476 264.453C714.016 263.952 713.785 263.239 713.785 262.313C713.785 261.698 713.879 261.083 714.066 260.468C714.252 259.853 714.517 259.287 714.859 258.772C715.219 258.244 715.652 257.843 716.157 257.569C716.668 257.296 717.235 257.159 717.86 257.159ZM728.77 260.256L727.847 265H726.589L727.512 260.249C727.516 260.231 727.523 260.199 727.532 260.153C727.601 259.83 727.635 259.579 727.635 259.401C727.635 259.032 727.528 258.75 727.314 258.554C727.104 258.353 726.801 258.253 726.405 258.253C725.826 258.253 725.334 258.465 724.928 258.889C724.522 259.312 724.244 259.907 724.094 260.673L723.253 265H721.995L723.492 257.344H724.75L724.531 258.492C724.873 258.05 725.242 257.717 725.639 257.494C726.04 257.271 726.464 257.159 726.91 257.159C727.544 257.159 728.036 257.326 728.387 257.658C728.738 257.986 728.913 258.447 728.913 259.039C728.913 259.185 728.9 259.365 728.872 259.579C728.849 259.793 728.815 260.019 728.77 260.256ZM734.587 261.151C734.045 261.151 733.641 261.17 733.377 261.206C733.113 261.238 732.883 261.295 732.687 261.377C732.377 261.5 732.128 261.703 731.942 261.985C731.755 262.263 731.661 262.569 731.661 262.901C731.661 263.28 731.778 263.583 732.01 263.811C732.247 264.034 732.566 264.146 732.967 264.146C733.641 264.146 734.223 263.904 734.71 263.421C735.202 262.938 735.535 262.275 735.708 261.432L735.763 261.151H734.587ZM737.123 260.632L736.269 265H735.011L735.23 263.865C734.902 264.294 734.514 264.624 734.068 264.856C733.621 265.084 733.147 265.198 732.646 265.198C731.948 265.198 731.39 265.009 730.971 264.631C730.556 264.248 730.349 263.742 730.349 263.113C730.349 262.22 730.7 261.507 731.402 260.974C732.108 260.436 733.063 260.167 734.266 260.167H735.947L736.03 259.75C736.039 259.709 736.045 259.666 736.05 259.62C736.055 259.575 736.057 259.511 736.057 259.429C736.057 259.041 735.913 258.745 735.626 258.54C735.339 258.33 734.929 258.226 734.396 258.226C734.004 258.226 733.58 258.285 733.124 258.403C732.673 258.517 732.195 258.69 731.689 258.923L731.928 257.692C732.42 257.515 732.887 257.382 733.329 257.296C733.771 257.205 734.195 257.159 734.601 257.159C735.448 257.159 736.107 257.346 736.576 257.72C737.05 258.093 737.287 258.611 737.287 259.271C737.287 259.417 737.274 259.609 737.246 259.846C737.219 260.083 737.178 260.345 737.123 260.632ZM742.394 262.211C742.362 262.37 742.337 262.512 742.319 262.635C742.305 262.758 742.298 262.86 742.298 262.942C742.298 263.275 742.398 263.523 742.599 263.688C742.804 263.852 743.114 263.934 743.529 263.934H744.971L744.759 265H743.344C742.556 265 741.968 264.856 741.58 264.569C741.197 264.278 741.006 263.833 741.006 263.236C741.006 263.109 741.017 262.954 741.04 262.771C741.063 262.589 741.095 262.393 741.136 262.184L742.578 255.272H740.418L740.616 254.288H744.034L742.394 262.211ZM749.175 257.344H752.395L751.096 264.022H753.591L753.393 265H747.145L747.343 264.022H749.838L750.939 258.321H748.984L749.175 257.344ZM751.711 254.363H752.969L752.661 255.956H751.404L751.711 254.363ZM757.344 257.344H762.908L762.683 258.492L757.317 263.995H761.616L761.418 265H755.697L755.922 263.852L761.281 258.349H757.153L757.344 257.344ZM770.011 260.495C770.038 260.372 770.057 260.272 770.066 260.194C770.075 260.112 770.079 260.035 770.079 259.962C770.079 259.415 769.931 258.989 769.635 258.684C769.339 258.378 768.926 258.226 768.398 258.226C767.837 258.226 767.324 258.431 766.86 258.841C766.399 259.251 766.069 259.802 765.868 260.495H770.011ZM770.168 264.61C769.69 264.806 769.223 264.952 768.767 265.048C768.311 265.148 767.849 265.198 767.379 265.198C766.363 265.198 765.59 264.945 765.062 264.439C764.533 263.929 764.269 263.186 764.269 262.211C764.269 261.5 764.405 260.803 764.679 260.119C764.952 259.436 765.331 258.845 765.814 258.349C766.192 257.957 766.609 257.658 767.065 257.453C767.525 257.248 768.003 257.146 768.5 257.146C769.348 257.146 770.025 257.408 770.53 257.932C771.041 258.451 771.296 259.146 771.296 260.017C771.296 260.172 771.285 260.365 771.262 260.598C771.239 260.826 771.2 261.117 771.146 261.473H765.629C765.602 261.618 765.581 261.751 765.568 261.869C765.554 261.988 765.547 262.092 765.547 262.184C765.547 262.817 765.723 263.3 766.073 263.633C766.424 263.965 766.935 264.132 767.605 264.132C768.006 264.132 768.443 264.068 768.917 263.94C769.396 263.808 769.895 263.615 770.414 263.359L770.168 264.61ZM776.724 258.226C776.323 258.226 775.97 258.326 775.664 258.526C775.359 258.722 775.101 259.019 774.892 259.415C774.669 259.825 774.495 260.292 774.372 260.816C774.249 261.336 774.188 261.858 774.188 262.382C774.188 262.965 774.304 263.403 774.536 263.694C774.769 263.986 775.115 264.132 775.575 264.132C775.963 264.132 776.311 264.029 776.621 263.824C776.936 263.619 777.202 263.316 777.421 262.915C777.644 262.519 777.82 262.058 777.947 261.534C778.075 261.006 778.139 260.481 778.139 259.962C778.139 259.415 778.014 258.989 777.763 258.684C777.517 258.378 777.17 258.226 776.724 258.226ZM778.556 258.321L779.342 254.363H780.6L778.529 265H777.271L777.455 264.036C777.159 264.419 776.822 264.708 776.444 264.904C776.07 265.1 775.655 265.198 775.199 265.198C774.457 265.198 773.878 264.959 773.463 264.48C773.053 264.002 772.848 263.334 772.848 262.478C772.848 261.826 772.939 261.172 773.121 260.516C773.304 259.855 773.552 259.278 773.866 258.786C774.208 258.248 774.609 257.843 775.07 257.569C775.534 257.296 776.049 257.159 776.614 257.159C777.057 257.159 777.444 257.259 777.777 257.46C778.109 257.656 778.369 257.943 778.556 258.321ZM794.155 255.17L793.738 257.344H796.589L796.398 258.321H793.54L792.727 262.478C792.699 262.614 792.679 262.742 792.665 262.86C792.652 262.974 792.645 263.081 792.645 263.182C792.645 263.482 792.734 263.694 792.911 263.817C793.089 263.936 793.41 263.995 793.875 263.995H795.29L795.092 265H793.568C792.807 265 792.246 264.875 791.886 264.624C791.53 264.369 791.353 263.972 791.353 263.435C791.353 263.321 791.362 263.186 791.38 263.031C791.398 262.876 791.428 262.692 791.469 262.478L792.282 258.321H790.238L790.43 257.344H792.474L792.898 255.17H794.155ZM805.435 258.923C805.23 258.722 804.99 258.572 804.717 258.472C804.448 258.371 804.141 258.321 803.794 258.321C803.047 258.321 802.406 258.583 801.873 259.107C801.34 259.627 800.987 260.34 800.814 261.247L800.082 265H798.824L800.308 257.344H801.566L801.292 258.841C801.598 258.294 801.992 257.877 802.475 257.59C802.962 257.303 803.514 257.159 804.129 257.159C804.453 257.159 804.744 257.202 805.004 257.289C805.268 257.371 805.492 257.492 805.674 257.651L805.435 258.923ZM810.507 261.151C809.965 261.151 809.561 261.17 809.297 261.206C809.033 261.238 808.803 261.295 808.607 261.377C808.297 261.5 808.048 261.703 807.862 261.985C807.675 262.263 807.581 262.569 807.581 262.901C807.581 263.28 807.697 263.583 807.93 263.811C808.167 264.034 808.486 264.146 808.887 264.146C809.561 264.146 810.142 263.904 810.63 263.421C811.122 262.938 811.455 262.275 811.628 261.432L811.683 261.151H810.507ZM813.043 260.632L812.189 265H810.931L811.15 263.865C810.822 264.294 810.434 264.624 809.988 264.856C809.541 265.084 809.067 265.198 808.566 265.198C807.868 265.198 807.31 265.009 806.891 264.631C806.476 264.248 806.269 263.742 806.269 263.113C806.269 262.22 806.62 261.507 807.322 260.974C808.028 260.436 808.983 260.167 810.186 260.167H811.867L811.949 259.75C811.959 259.709 811.965 259.666 811.97 259.62C811.974 259.575 811.977 259.511 811.977 259.429C811.977 259.041 811.833 258.745 811.546 258.54C811.259 258.33 810.849 258.226 810.316 258.226C809.924 258.226 809.5 258.285 809.044 258.403C808.593 258.517 808.114 258.69 807.609 258.923L807.848 257.692C808.34 257.515 808.807 257.382 809.249 257.296C809.691 257.205 810.115 257.159 810.521 257.159C811.368 257.159 812.027 257.346 812.496 257.72C812.97 258.093 813.207 258.611 813.207 259.271C813.207 259.417 813.194 259.609 813.166 259.846C813.139 260.083 813.098 260.345 813.043 260.632ZM820.638 264.651C820.305 264.829 819.947 264.964 819.565 265.055C819.186 265.15 818.792 265.198 818.382 265.198C817.361 265.198 816.589 264.943 816.065 264.433C815.541 263.918 815.279 263.159 815.279 262.156C815.279 261.477 815.399 260.812 815.641 260.16C815.887 259.504 816.217 258.952 816.632 258.506C817.056 258.055 817.521 257.717 818.027 257.494C818.537 257.271 819.095 257.159 819.701 257.159C820.107 257.159 820.499 257.209 820.877 257.31C821.255 257.405 821.625 257.551 821.985 257.747L821.732 258.991C821.431 258.727 821.121 258.533 820.802 258.41C820.483 258.287 820.13 258.226 819.742 258.226C819.241 258.226 818.797 258.328 818.409 258.533C818.022 258.734 817.692 259.037 817.418 259.442C817.163 259.816 816.962 260.244 816.817 260.728C816.675 261.206 816.605 261.682 816.605 262.156C816.605 262.812 816.76 263.307 817.07 263.64C817.384 263.968 817.851 264.132 818.471 264.132C818.908 264.132 819.328 264.061 819.729 263.92C820.134 263.779 820.526 263.564 820.905 263.277L820.638 264.651ZM825.334 254.363H826.64L825.478 260.338L829.231 257.344H830.878L827.323 260.229L829.873 265H828.417L826.319 261.021L825.17 261.931L824.569 265H823.263L825.334 254.363ZM838.446 257.61L838.206 258.841C837.883 258.636 837.541 258.481 837.181 258.376C836.825 258.267 836.472 258.212 836.121 258.212C835.497 258.212 835.012 258.328 834.665 258.561C834.323 258.793 834.153 259.119 834.153 259.538C834.153 259.985 834.656 260.336 835.663 260.591C835.732 260.609 835.782 260.623 835.814 260.632L836.306 260.755C836.839 260.896 837.238 261.108 837.502 261.391C837.766 261.669 837.899 262.017 837.899 262.437C837.899 263.261 837.571 263.929 836.914 264.439C836.258 264.945 835.388 265.198 834.303 265.198C833.934 265.198 833.549 265.157 833.148 265.075C832.747 264.998 832.321 264.879 831.869 264.72L832.122 263.421C832.551 263.662 832.965 263.845 833.366 263.968C833.772 264.086 834.164 264.146 834.542 264.146C835.148 264.146 835.643 264.011 836.026 263.742C836.408 263.469 836.6 263.122 836.6 262.703C836.6 262.252 836.153 261.908 835.26 261.671C835.178 261.653 835.114 261.637 835.069 261.623L834.611 261.5C834.023 261.35 833.59 261.129 833.312 260.837C833.038 260.545 832.902 260.165 832.902 259.695C832.902 258.921 833.202 258.305 833.804 257.85C834.405 257.389 835.217 257.159 836.238 257.159C836.639 257.159 837.024 257.198 837.393 257.275C837.762 257.348 838.113 257.46 838.446 257.61Z" fill="black" />
    <path d="M866.381 273H651.381V274.497H866.381V273Z" fill="#3F3D56" />
    <path d="M610.928 268.297C614.754 268.297 617.856 265.274 617.856 261.545C617.856 257.815 614.754 254.792 610.928 254.792C607.102 254.792 604 257.815 604 261.545C604 265.274 607.102 268.297 610.928 268.297Z" fill="#3F3D56" />
    <path d="M856.381 211H661.381C655.858 211 651.381 215.477 651.381 221C651.381 226.523 655.858 231 661.381 231H856.381C861.904 231 866.381 226.523 866.381 221C866.381 215.477 861.904 211 856.381 211Z" fill="#F2F2F2" />
    <path d="M683.62 220.226C682.873 220.226 682.248 220.615 681.747 221.395C681.25 222.174 681.002 223.165 681.002 224.368C681.002 224.956 681.13 225.398 681.385 225.694C681.64 225.986 682.023 226.132 682.533 226.132C683.281 226.132 683.903 225.742 684.399 224.963C684.901 224.184 685.151 223.192 685.151 221.989C685.151 221.401 685.024 220.962 684.769 220.67C684.513 220.374 684.131 220.226 683.62 220.226ZM683.736 219.159C684.63 219.159 685.309 219.403 685.773 219.891C686.243 220.378 686.478 221.091 686.478 222.03C686.478 222.659 686.384 223.286 686.197 223.91C686.01 224.53 685.748 225.088 685.411 225.585C685.051 226.123 684.614 226.526 684.099 226.795C683.584 227.064 682.991 227.198 682.321 227.198C681.469 227.198 680.813 226.95 680.353 226.453C679.892 225.952 679.662 225.239 679.662 224.313C679.662 223.698 679.756 223.083 679.942 222.468C680.129 221.853 680.394 221.287 680.735 220.772C681.095 220.244 681.528 219.843 682.034 219.569C682.545 219.296 683.112 219.159 683.736 219.159ZM694.646 222.256L693.724 227H692.466L693.389 222.249C693.393 222.231 693.4 222.199 693.409 222.153C693.478 221.83 693.512 221.579 693.512 221.401C693.512 221.032 693.405 220.75 693.19 220.554C692.981 220.353 692.678 220.253 692.281 220.253C691.702 220.253 691.21 220.465 690.805 220.889C690.399 221.312 690.121 221.907 689.971 222.673L689.13 227H687.872L689.369 219.344H690.627L690.408 220.492C690.75 220.05 691.119 219.717 691.516 219.494C691.917 219.271 692.34 219.159 692.787 219.159C693.421 219.159 693.913 219.326 694.264 219.658C694.615 219.986 694.79 220.447 694.79 221.039C694.79 221.185 694.776 221.365 694.749 221.579C694.726 221.793 694.692 222.019 694.646 222.256ZM702.146 222.495C702.173 222.372 702.191 222.272 702.2 222.194C702.209 222.112 702.214 222.035 702.214 221.962C702.214 221.415 702.066 220.989 701.77 220.684C701.473 220.378 701.061 220.226 700.532 220.226C699.972 220.226 699.459 220.431 698.994 220.841C698.534 221.251 698.203 221.802 698.003 222.495H702.146ZM702.303 226.61C701.824 226.806 701.357 226.952 700.901 227.048C700.446 227.148 699.983 227.198 699.514 227.198C698.497 227.198 697.725 226.945 697.196 226.439C696.668 225.929 696.403 225.186 696.403 224.211C696.403 223.5 696.54 222.803 696.813 222.119C697.087 221.436 697.465 220.845 697.948 220.349C698.326 219.957 698.743 219.658 699.199 219.453C699.66 219.248 700.138 219.146 700.635 219.146C701.482 219.146 702.159 219.408 702.665 219.932C703.175 220.451 703.431 221.146 703.431 222.017C703.431 222.172 703.419 222.365 703.396 222.598C703.374 222.826 703.335 223.117 703.28 223.473H697.764C697.736 223.618 697.716 223.751 697.702 223.869C697.688 223.988 697.682 224.092 697.682 224.184C697.682 224.817 697.857 225.3 698.208 225.633C698.559 225.965 699.069 226.132 699.739 226.132C700.14 226.132 700.578 226.068 701.052 225.94C701.53 225.808 702.029 225.615 702.549 225.359L702.303 226.61ZM705.092 222.051H712.338L712.092 223.206H704.846L705.092 222.051ZM717.362 220.226C716.615 220.226 715.991 220.615 715.489 221.395C714.993 222.174 714.744 223.165 714.744 224.368C714.744 224.956 714.872 225.398 715.127 225.694C715.382 225.986 715.765 226.132 716.275 226.132C717.023 226.132 717.645 225.742 718.142 224.963C718.643 224.184 718.894 223.192 718.894 221.989C718.894 221.401 718.766 220.962 718.511 220.67C718.256 220.374 717.873 220.226 717.362 220.226ZM717.479 219.159C718.372 219.159 719.051 219.403 719.516 219.891C719.985 220.378 720.22 221.091 720.22 222.03C720.22 222.659 720.126 223.286 719.939 223.91C719.753 224.53 719.491 225.088 719.153 225.585C718.793 226.123 718.356 226.526 717.841 226.795C717.326 227.064 716.733 227.198 716.063 227.198C715.211 227.198 714.555 226.95 714.095 226.453C713.634 225.952 713.404 225.239 713.404 224.313C713.404 223.698 713.498 223.083 713.685 222.468C713.871 221.853 714.136 221.287 714.478 220.772C714.838 220.244 715.271 219.843 715.776 219.569C716.287 219.296 716.854 219.159 717.479 219.159ZM728.389 222.256L727.466 227H726.208L727.131 222.249C727.135 222.231 727.142 222.199 727.151 222.153C727.22 221.83 727.254 221.579 727.254 221.401C727.254 221.032 727.147 220.75 726.933 220.554C726.723 220.353 726.42 220.253 726.023 220.253C725.445 220.253 724.952 220.465 724.547 220.889C724.141 221.312 723.863 221.907 723.713 222.673L722.872 227H721.614L723.111 219.344H724.369L724.15 220.492C724.492 220.05 724.861 219.717 725.258 219.494C725.659 219.271 726.083 219.159 726.529 219.159C727.163 219.159 727.655 219.326 728.006 219.658C728.357 219.986 728.532 220.447 728.532 221.039C728.532 221.185 728.519 221.365 728.491 221.579C728.468 221.793 728.434 222.019 728.389 222.256ZM730.398 222.051H737.645L737.398 223.206H730.152L730.398 222.051ZM742.669 220.226C741.922 220.226 741.297 220.615 740.796 221.395C740.299 222.174 740.051 223.165 740.051 224.368C740.051 224.956 740.178 225.398 740.434 225.694C740.689 225.986 741.072 226.132 741.582 226.132C742.329 226.132 742.951 225.742 743.448 224.963C743.95 224.184 744.2 223.192 744.2 221.989C744.2 221.401 744.073 220.962 743.817 220.67C743.562 220.374 743.179 220.226 742.669 220.226ZM742.785 219.159C743.678 219.159 744.357 219.403 744.822 219.891C745.292 220.378 745.526 221.091 745.526 222.03C745.526 222.659 745.433 223.286 745.246 223.91C745.059 224.53 744.797 225.088 744.46 225.585C744.1 226.123 743.662 226.526 743.147 226.795C742.632 227.064 742.04 227.198 741.37 227.198C740.518 227.198 739.862 226.95 739.401 226.453C738.941 225.952 738.711 225.239 738.711 224.313C738.711 223.698 738.804 223.083 738.991 222.468C739.178 221.853 739.442 221.287 739.784 220.772C740.144 220.244 740.577 219.843 741.083 219.569C741.593 219.296 742.161 219.159 742.785 219.159ZM753.695 222.256L752.772 227H751.515L752.438 222.249C752.442 222.231 752.449 222.199 752.458 222.153C752.526 221.83 752.561 221.579 752.561 221.401C752.561 221.032 752.453 220.75 752.239 220.554C752.03 220.353 751.727 220.253 751.33 220.253C750.751 220.253 750.259 220.465 749.854 220.889C749.448 221.312 749.17 221.907 749.02 222.673L748.179 227H746.921L748.418 219.344H749.676L749.457 220.492C749.799 220.05 750.168 219.717 750.564 219.494C750.965 219.271 751.389 219.159 751.836 219.159C752.469 219.159 752.962 219.326 753.312 219.658C753.663 219.986 753.839 220.447 753.839 221.039C753.839 221.185 753.825 221.365 753.798 221.579C753.775 221.793 753.741 222.019 753.695 222.256ZM761.194 222.495C761.222 222.372 761.24 222.272 761.249 222.194C761.258 222.112 761.263 222.035 761.263 221.962C761.263 221.415 761.115 220.989 760.818 220.684C760.522 220.378 760.11 220.226 759.581 220.226C759.021 220.226 758.508 220.431 758.043 220.841C757.583 221.251 757.252 221.802 757.052 222.495H761.194ZM761.352 226.61C760.873 226.806 760.406 226.952 759.95 227.048C759.494 227.148 759.032 227.198 758.562 227.198C757.546 227.198 756.774 226.945 756.245 226.439C755.716 225.929 755.452 225.186 755.452 224.211C755.452 223.5 755.589 222.803 755.862 222.119C756.136 221.436 756.514 220.845 756.997 220.349C757.375 219.957 757.792 219.658 758.248 219.453C758.708 219.248 759.187 219.146 759.684 219.146C760.531 219.146 761.208 219.408 761.714 219.932C762.224 220.451 762.479 221.146 762.479 222.017C762.479 222.172 762.468 222.365 762.445 222.598C762.423 222.826 762.384 223.117 762.329 223.473H756.812C756.785 223.618 756.765 223.751 756.751 223.869C756.737 223.988 756.73 224.092 756.73 224.184C756.73 224.817 756.906 225.3 757.257 225.633C757.608 225.965 758.118 226.132 758.788 226.132C759.189 226.132 759.627 226.068 760.101 225.94C760.579 225.808 761.078 225.615 761.598 225.359L761.352 226.61ZM779.016 219.61L778.776 220.841C778.453 220.636 778.111 220.481 777.751 220.376C777.396 220.267 777.042 220.212 776.691 220.212C776.067 220.212 775.582 220.328 775.235 220.561C774.894 220.793 774.723 221.119 774.723 221.538C774.723 221.985 775.226 222.336 776.233 222.591C776.302 222.609 776.352 222.623 776.384 222.632L776.876 222.755C777.409 222.896 777.808 223.108 778.072 223.391C778.337 223.669 778.469 224.017 778.469 224.437C778.469 225.261 778.141 225.929 777.484 226.439C776.828 226.945 775.958 227.198 774.873 227.198C774.504 227.198 774.119 227.157 773.718 227.075C773.317 226.998 772.891 226.879 772.439 226.72L772.692 225.421C773.121 225.662 773.535 225.845 773.937 225.968C774.342 226.086 774.734 226.146 775.112 226.146C775.718 226.146 776.213 226.011 776.596 225.742C776.979 225.469 777.17 225.122 777.17 224.703C777.17 224.252 776.723 223.908 775.83 223.671C775.748 223.653 775.684 223.637 775.639 223.623L775.181 223.5C774.593 223.35 774.16 223.129 773.882 222.837C773.608 222.545 773.472 222.165 773.472 221.695C773.472 220.921 773.772 220.305 774.374 219.85C774.976 219.389 775.787 219.159 776.808 219.159C777.209 219.159 777.594 219.198 777.963 219.275C778.332 219.348 778.683 219.46 779.016 219.61ZM786.501 222.495C786.528 222.372 786.547 222.272 786.556 222.194C786.565 222.112 786.569 222.035 786.569 221.962C786.569 221.415 786.421 220.989 786.125 220.684C785.829 220.378 785.416 220.226 784.888 220.226C784.327 220.226 783.814 220.431 783.35 220.841C782.889 221.251 782.559 221.802 782.358 222.495H786.501ZM786.658 226.61C786.18 226.806 785.713 226.952 785.257 227.048C784.801 227.148 784.339 227.198 783.869 227.198C782.853 227.198 782.08 226.945 781.552 226.439C781.023 225.929 780.759 225.186 780.759 224.211C780.759 223.5 780.896 222.803 781.169 222.119C781.442 221.436 781.821 220.845 782.304 220.349C782.682 219.957 783.099 219.658 783.555 219.453C784.015 219.248 784.493 219.146 784.99 219.146C785.838 219.146 786.515 219.408 787.021 219.932C787.531 220.451 787.786 221.146 787.786 222.017C787.786 222.172 787.775 222.365 787.752 222.598C787.729 222.826 787.69 223.117 787.636 223.473H782.119C782.092 223.618 782.071 223.751 782.058 223.869C782.044 223.988 782.037 224.092 782.037 224.184C782.037 224.817 782.213 225.3 782.563 225.633C782.914 225.965 783.425 226.132 784.095 226.132C784.496 226.132 784.933 226.068 785.407 225.94C785.886 225.808 786.385 225.615 786.904 225.359L786.658 226.61ZM795.887 219.61L795.647 220.841C795.324 220.636 794.982 220.481 794.622 220.376C794.267 220.267 793.913 220.212 793.562 220.212C792.938 220.212 792.453 220.328 792.106 220.561C791.765 220.793 791.594 221.119 791.594 221.538C791.594 221.985 792.097 222.336 793.104 222.591C793.173 222.609 793.223 222.623 793.255 222.632L793.747 222.755C794.28 222.896 794.679 223.108 794.943 223.391C795.208 223.669 795.34 224.017 795.34 224.437C795.34 225.261 795.012 225.929 794.355 226.439C793.699 226.945 792.829 227.198 791.744 227.198C791.375 227.198 790.99 227.157 790.589 227.075C790.188 226.998 789.762 226.879 789.311 226.72L789.563 225.421C789.992 225.662 790.407 225.845 790.808 225.968C791.213 226.086 791.605 226.146 791.983 226.146C792.59 226.146 793.084 226.011 793.467 225.742C793.85 225.469 794.041 225.122 794.041 224.703C794.041 224.252 793.594 223.908 792.701 223.671C792.619 223.653 792.555 223.637 792.51 223.623L792.052 223.5C791.464 223.35 791.031 223.129 790.753 222.837C790.479 222.545 790.343 222.165 790.343 221.695C790.343 220.921 790.644 220.305 791.245 219.85C791.847 219.389 792.658 219.159 793.679 219.159C794.08 219.159 794.465 219.198 794.834 219.275C795.203 219.348 795.554 219.46 795.887 219.61ZM804.322 219.61L804.083 220.841C803.759 220.636 803.418 220.481 803.058 220.376C802.702 220.267 802.349 220.212 801.998 220.212C801.374 220.212 800.888 220.328 800.542 220.561C800.2 220.793 800.029 221.119 800.029 221.538C800.029 221.985 800.533 222.336 801.54 222.591C801.608 222.609 801.659 222.623 801.69 222.632L802.183 222.755C802.716 222.896 803.115 223.108 803.379 223.391C803.643 223.669 803.775 224.017 803.775 224.437C803.775 225.261 803.447 225.929 802.791 226.439C802.135 226.945 801.264 227.198 800.18 227.198C799.811 227.198 799.425 227.157 799.024 227.075C798.623 226.998 798.197 226.879 797.746 226.72L797.999 225.421C798.427 225.662 798.842 225.845 799.243 225.968C799.649 226.086 800.041 226.146 800.419 226.146C801.025 226.146 801.52 226.011 801.902 225.742C802.285 225.469 802.477 225.122 802.477 224.703C802.477 224.252 802.03 223.908 801.137 223.671C801.055 223.653 800.991 223.637 800.945 223.623L800.487 223.5C799.899 223.35 799.466 223.129 799.188 222.837C798.915 222.545 798.778 222.165 798.778 221.695C798.778 220.921 799.079 220.305 799.681 219.85C800.282 219.389 801.093 219.159 802.114 219.159C802.515 219.159 802.9 219.198 803.27 219.275C803.639 219.348 803.99 219.46 804.322 219.61ZM807.843 219.344H811.062L809.764 226.022H812.259L812.061 227H805.812L806.011 226.022H808.506L809.606 220.321H807.651L807.843 219.344ZM810.379 216.363H811.637L811.329 217.956H810.071L810.379 216.363ZM818.589 220.226C817.841 220.226 817.217 220.615 816.716 221.395C816.219 222.174 815.971 223.165 815.971 224.368C815.971 224.956 816.098 225.398 816.354 225.694C816.609 225.986 816.992 226.132 817.502 226.132C818.249 226.132 818.871 225.742 819.368 224.963C819.869 224.184 820.12 223.192 820.12 221.989C820.12 221.401 819.993 220.962 819.737 220.67C819.482 220.374 819.099 220.226 818.589 220.226ZM818.705 219.159C819.598 219.159 820.277 219.403 820.742 219.891C821.212 220.378 821.446 221.091 821.446 222.03C821.446 222.659 821.353 223.286 821.166 223.91C820.979 224.53 820.717 225.088 820.38 225.585C820.02 226.123 819.582 226.526 819.067 226.795C818.552 227.064 817.96 227.198 817.29 227.198C816.438 227.198 815.782 226.95 815.321 226.453C814.861 225.952 814.631 225.239 814.631 224.313C814.631 223.698 814.724 223.083 814.911 222.468C815.098 221.853 815.362 221.287 815.704 220.772C816.064 220.244 816.497 219.843 817.003 219.569C817.513 219.296 818.081 219.159 818.705 219.159ZM829.615 222.256L828.692 227H827.435L828.357 222.249C828.362 222.231 828.369 222.199 828.378 222.153C828.446 221.83 828.48 221.579 828.48 221.401C828.48 221.032 828.373 220.75 828.159 220.554C827.95 220.353 827.646 220.253 827.25 220.253C826.671 220.253 826.179 220.465 825.773 220.889C825.368 221.312 825.09 221.907 824.939 222.673L824.099 227H822.841L824.338 219.344H825.596L825.377 220.492C825.719 220.05 826.088 219.717 826.484 219.494C826.885 219.271 827.309 219.159 827.756 219.159C828.389 219.159 828.882 219.326 829.232 219.658C829.583 219.986 829.759 220.447 829.759 221.039C829.759 221.185 829.745 221.365 829.718 221.579C829.695 221.793 829.661 222.019 829.615 222.256ZM838.064 219.61L837.825 220.841C837.502 220.636 837.16 220.481 836.8 220.376C836.444 220.267 836.091 220.212 835.74 220.212C835.116 220.212 834.631 220.328 834.284 220.561C833.942 220.793 833.771 221.119 833.771 221.538C833.771 221.985 834.275 222.336 835.282 222.591C835.351 222.609 835.401 222.623 835.433 222.632L835.925 222.755C836.458 222.896 836.857 223.108 837.121 223.391C837.385 223.669 837.518 224.017 837.518 224.437C837.518 225.261 837.189 225.929 836.533 226.439C835.877 226.945 835.007 227.198 833.922 227.198C833.553 227.198 833.168 227.157 832.767 227.075C832.366 226.998 831.939 226.879 831.488 226.72L831.741 225.421C832.17 225.662 832.584 225.845 832.985 225.968C833.391 226.086 833.783 226.146 834.161 226.146C834.767 226.146 835.262 226.011 835.645 225.742C836.027 225.469 836.219 225.122 836.219 224.703C836.219 224.252 835.772 223.908 834.879 223.671C834.797 223.653 834.733 223.637 834.688 223.623L834.229 223.5C833.642 223.35 833.209 223.129 832.931 222.837C832.657 222.545 832.521 222.165 832.521 221.695C832.521 220.921 832.821 220.305 833.423 219.85C834.024 219.389 834.836 219.159 835.856 219.159C836.257 219.159 836.643 219.198 837.012 219.275C837.381 219.348 837.732 219.46 838.064 219.61Z" fill="black" />
    <path d="M866.381 235H651.381V236.497H866.381V235Z" fill="#3F3D56" />
    <path d="M610.928 230.297C614.754 230.297 617.856 227.274 617.856 223.545C617.856 219.815 614.754 216.792 610.928 216.792C607.102 216.792 604 219.815 604 223.545C604 227.274 607.102 230.297 610.928 230.297Z" fill="#3F3D56" />
    <path d="M856.381 173H661.381C655.858 173 651.381 177.477 651.381 183C651.381 188.523 655.858 193 661.381 193H856.381C861.904 193 866.381 188.523 866.381 183C866.381 177.477 861.904 173 856.381 173Z" fill="#F2F2F2" />
    <path d="M667.568 186.088L668.477 181.344H669.741L668.819 186.088C668.787 186.257 668.762 186.418 668.743 186.573C668.725 186.728 668.716 186.86 668.716 186.97C668.716 187.33 668.821 187.608 669.03 187.804C669.245 187.995 669.545 188.091 669.933 188.091C670.512 188.091 671.002 187.881 671.403 187.462C671.804 187.038 672.079 186.441 672.23 185.671L673.071 181.344H674.335L672.845 189H671.587L671.813 187.852C671.48 188.298 671.111 188.633 670.705 188.856C670.3 189.075 669.858 189.185 669.379 189.185C668.782 189.185 668.31 189.018 667.964 188.686C667.618 188.348 667.445 187.893 667.445 187.318C667.445 187.141 667.454 186.947 667.472 186.737C667.495 186.523 667.527 186.307 667.568 186.088ZM682.374 184.256L681.451 189H680.194L681.116 184.249C681.121 184.231 681.128 184.199 681.137 184.153C681.205 183.83 681.239 183.579 681.239 183.401C681.239 183.032 681.132 182.75 680.918 182.554C680.709 182.353 680.405 182.253 680.009 182.253C679.43 182.253 678.938 182.465 678.532 182.889C678.127 183.312 677.849 183.907 677.698 184.673L676.858 189H675.6L677.097 181.344H678.355L678.136 182.492C678.478 182.05 678.847 181.717 679.243 181.494C679.644 181.271 680.068 181.159 680.515 181.159C681.148 181.159 681.641 181.326 681.991 181.658C682.342 181.986 682.518 182.447 682.518 183.039C682.518 183.185 682.504 183.365 682.477 183.579C682.454 183.793 682.42 184.019 682.374 184.256ZM685.908 181.344H689.128L687.829 188.022H690.324L690.126 189H683.878L684.076 188.022H686.572L687.672 182.321H685.717L685.908 181.344ZM688.445 178.363H689.702L689.395 179.956H688.137L688.445 178.363ZM693.141 181.344H694.358L695.41 187.879L698.842 181.344H700.196L695.998 189H694.371L693.141 181.344ZM706.744 184.495C706.772 184.372 706.79 184.272 706.799 184.194C706.808 184.112 706.813 184.035 706.813 183.962C706.813 183.415 706.665 182.989 706.368 182.684C706.072 182.378 705.66 182.226 705.131 182.226C704.571 182.226 704.058 182.431 703.593 182.841C703.133 183.251 702.802 183.802 702.602 184.495H706.744ZM706.902 188.61C706.423 188.806 705.956 188.952 705.5 189.048C705.044 189.148 704.582 189.198 704.113 189.198C703.096 189.198 702.324 188.945 701.795 188.439C701.266 187.929 701.002 187.186 701.002 186.211C701.002 185.5 701.139 184.803 701.412 184.119C701.686 183.436 702.064 182.845 702.547 182.349C702.925 181.957 703.342 181.658 703.798 181.453C704.258 181.248 704.737 181.146 705.234 181.146C706.081 181.146 706.758 181.408 707.264 181.932C707.774 182.451 708.03 183.146 708.03 184.017C708.03 184.172 708.018 184.365 707.995 184.598C707.973 184.826 707.934 185.117 707.879 185.473H702.363C702.335 185.618 702.315 185.751 702.301 185.869C702.287 185.988 702.28 186.092 702.28 186.184C702.28 186.817 702.456 187.3 702.807 187.633C703.158 187.965 703.668 188.132 704.338 188.132C704.739 188.132 705.177 188.068 705.651 187.94C706.129 187.808 706.628 187.615 707.148 187.359L706.902 188.61ZM716.862 182.923C716.656 182.722 716.417 182.572 716.144 182.472C715.875 182.371 715.567 182.321 715.221 182.321C714.474 182.321 713.833 182.583 713.3 183.107C712.767 183.627 712.414 184.34 712.24 185.247L711.509 189H710.251L711.735 181.344H712.992L712.719 182.841C713.024 182.294 713.419 181.877 713.902 181.59C714.389 181.303 714.941 181.159 715.556 181.159C715.879 181.159 716.171 181.202 716.431 181.289C716.695 181.371 716.919 181.492 717.101 181.651L716.862 182.923ZM724.566 181.61L724.326 182.841C724.003 182.636 723.661 182.481 723.301 182.376C722.946 182.267 722.592 182.212 722.241 182.212C721.617 182.212 721.132 182.328 720.785 182.561C720.444 182.793 720.273 183.119 720.273 183.538C720.273 183.985 720.776 184.336 721.783 184.591C721.852 184.609 721.902 184.623 721.934 184.632L722.426 184.755C722.959 184.896 723.358 185.108 723.622 185.391C723.887 185.669 724.019 186.017 724.019 186.437C724.019 187.261 723.691 187.929 723.034 188.439C722.378 188.945 721.508 189.198 720.423 189.198C720.054 189.198 719.669 189.157 719.268 189.075C718.867 188.998 718.441 188.879 717.989 188.72L718.242 187.421C718.671 187.662 719.086 187.845 719.487 187.968C719.892 188.086 720.284 188.146 720.662 188.146C721.268 188.146 721.763 188.011 722.146 187.742C722.529 187.469 722.72 187.122 722.72 186.703C722.72 186.252 722.273 185.908 721.38 185.671C721.298 185.653 721.234 185.637 721.189 185.623L720.731 185.5C720.143 185.35 719.71 185.129 719.432 184.837C719.158 184.545 719.022 184.165 719.022 183.695C719.022 182.921 719.322 182.305 719.924 181.85C720.526 181.389 721.337 181.159 722.358 181.159C722.759 181.159 723.144 181.198 723.513 181.275C723.882 181.348 724.233 181.46 724.566 181.61ZM728.086 181.344H731.306L730.007 188.022H732.502L732.304 189H726.056L726.254 188.022H728.749L729.85 182.321H727.895L728.086 181.344ZM730.622 178.363H731.88L731.572 179.956H730.315L730.622 178.363ZM739.324 179.17L738.907 181.344H741.758L741.567 182.321H738.709L737.896 186.478C737.868 186.614 737.848 186.742 737.834 186.86C737.821 186.974 737.814 187.081 737.814 187.182C737.814 187.482 737.903 187.694 738.08 187.817C738.258 187.936 738.579 187.995 739.044 187.995H740.459L740.261 189H738.737C737.975 189 737.415 188.875 737.055 188.624C736.699 188.369 736.522 187.972 736.522 187.435C736.522 187.321 736.531 187.186 736.549 187.031C736.567 186.876 736.597 186.692 736.638 186.478L737.451 182.321H735.407L735.599 181.344H737.643L738.067 179.17H739.324ZM747.883 186.539C747.6 187.027 747.224 187.683 746.755 188.508C746.049 189.761 745.572 190.554 745.326 190.887C745.062 191.233 744.759 191.491 744.417 191.659C744.08 191.828 743.693 191.912 743.255 191.912H742.243L742.442 190.859H743.18C743.549 190.859 743.866 190.752 744.13 190.538C744.399 190.328 744.67 189.966 744.944 189.451L745.238 188.877L743.754 181.344H745.005L746.181 187.236L749.483 181.344H750.884L747.883 186.539ZM761.828 181.344H765.048L763.749 188.022H766.244L766.046 189H759.798L759.996 188.022H762.491L763.592 182.321H761.637L761.828 181.344ZM764.364 178.363H765.622L765.315 179.956H764.057L764.364 178.363ZM775.165 184.256L774.242 189H772.985L773.907 184.249C773.912 184.231 773.919 184.199 773.928 184.153C773.996 183.83 774.03 183.579 774.03 183.401C774.03 183.032 773.923 182.75 773.709 182.554C773.5 182.353 773.197 182.253 772.8 182.253C772.221 182.253 771.729 182.465 771.323 182.889C770.918 183.312 770.64 183.907 770.489 184.673L769.649 189H768.391L769.888 181.344H771.146L770.927 182.492C771.269 182.05 771.638 181.717 772.034 181.494C772.435 181.271 772.859 181.159 773.306 181.159C773.939 181.159 774.432 181.326 774.782 181.658C775.133 181.986 775.309 182.447 775.309 183.039C775.309 183.185 775.295 183.365 775.268 183.579C775.245 183.793 775.211 184.019 775.165 184.256ZM783.614 181.61L783.375 182.841C783.052 182.636 782.71 182.481 782.35 182.376C781.994 182.267 781.641 182.212 781.29 182.212C780.666 182.212 780.181 182.328 779.834 182.561C779.492 182.793 779.322 183.119 779.322 183.538C779.322 183.985 779.825 184.336 780.832 184.591C780.901 184.609 780.951 184.623 780.983 184.632L781.475 184.755C782.008 184.896 782.407 185.108 782.671 185.391C782.935 185.669 783.068 186.017 783.068 186.437C783.068 187.261 782.739 187.929 782.083 188.439C781.427 188.945 780.557 189.198 779.472 189.198C779.103 189.198 778.718 189.157 778.317 189.075C777.916 188.998 777.489 188.879 777.038 188.72L777.291 187.421C777.72 187.662 778.134 187.845 778.535 187.968C778.941 188.086 779.333 188.146 779.711 188.146C780.317 188.146 780.812 188.011 781.195 187.742C781.577 187.469 781.769 187.122 781.769 186.703C781.769 186.252 781.322 185.908 780.429 185.671C780.347 185.653 780.283 185.637 780.238 185.623L779.78 185.5C779.192 185.35 778.759 185.129 778.481 184.837C778.207 184.545 778.071 184.165 778.071 183.695C778.071 182.921 778.371 182.305 778.973 181.85C779.574 181.389 780.386 181.159 781.406 181.159C781.808 181.159 782.193 181.198 782.562 181.275C782.931 181.348 783.282 181.46 783.614 181.61ZM789.938 179.17L789.521 181.344H792.371L792.18 182.321H789.322L788.509 186.478C788.482 186.614 788.461 186.742 788.447 186.86C788.434 186.974 788.427 187.081 788.427 187.182C788.427 187.482 788.516 187.694 788.694 187.817C788.871 187.936 789.193 187.995 789.657 187.995H791.072L790.874 189H789.35C788.589 189 788.028 188.875 787.668 188.624C787.313 188.369 787.135 187.972 787.135 187.435C787.135 187.321 787.144 187.186 787.162 187.031C787.181 186.876 787.21 186.692 787.251 186.478L788.065 182.321H786.021L786.212 181.344H788.256L788.68 179.17H789.938ZM801.217 182.923C801.012 182.722 800.773 182.572 800.499 182.472C800.23 182.371 799.923 182.321 799.576 182.321C798.829 182.321 798.189 182.583 797.655 183.107C797.122 183.627 796.769 184.34 796.596 185.247L795.864 189H794.607L796.09 181.344H797.348L797.074 182.841C797.38 182.294 797.774 181.877 798.257 181.59C798.745 181.303 799.296 181.159 799.911 181.159C800.235 181.159 800.527 181.202 800.786 181.289C801.051 181.371 801.274 181.492 801.456 181.651L801.217 182.923ZM802.536 186.088L803.446 181.344H804.71L803.787 186.088C803.755 186.257 803.73 186.418 803.712 186.573C803.694 186.728 803.685 186.86 803.685 186.97C803.685 187.33 803.79 187.608 803.999 187.804C804.213 187.995 804.514 188.091 804.902 188.091C805.48 188.091 805.97 187.881 806.371 187.462C806.772 187.038 807.048 186.441 807.198 185.671L808.039 181.344H809.304L807.814 189H806.556L806.781 187.852C806.449 188.298 806.08 188.633 805.674 188.856C805.268 189.075 804.826 189.185 804.348 189.185C803.751 189.185 803.279 189.018 802.933 188.686C802.586 188.348 802.413 187.893 802.413 187.318C802.413 187.141 802.422 186.947 802.441 186.737C802.463 186.523 802.495 186.307 802.536 186.088ZM816.42 188.651C816.087 188.829 815.73 188.964 815.347 189.055C814.969 189.15 814.574 189.198 814.164 189.198C813.143 189.198 812.371 188.943 811.847 188.433C811.323 187.918 811.061 187.159 811.061 186.156C811.061 185.477 811.182 184.812 811.423 184.16C811.669 183.504 812 182.952 812.414 182.506C812.838 182.055 813.303 181.717 813.809 181.494C814.319 181.271 814.877 181.159 815.484 181.159C815.889 181.159 816.281 181.209 816.659 181.31C817.038 181.405 817.407 181.551 817.767 181.747L817.514 182.991C817.213 182.727 816.903 182.533 816.584 182.41C816.265 182.287 815.912 182.226 815.525 182.226C815.023 182.226 814.579 182.328 814.192 182.533C813.804 182.734 813.474 183.037 813.2 183.442C812.945 183.816 812.745 184.244 812.599 184.728C812.458 185.206 812.387 185.682 812.387 186.156C812.387 186.812 812.542 187.307 812.852 187.64C813.166 187.968 813.633 188.132 814.253 188.132C814.691 188.132 815.11 188.061 815.511 187.92C815.917 187.779 816.308 187.564 816.687 187.277L816.42 188.651ZM823.68 179.17L823.263 181.344H826.113L825.922 182.321H823.065L822.251 186.478C822.224 186.614 822.203 186.742 822.19 186.86C822.176 186.974 822.169 187.081 822.169 187.182C822.169 187.482 822.258 187.694 822.436 187.817C822.613 187.936 822.935 187.995 823.4 187.995H824.815L824.616 189H823.092C822.331 189 821.77 188.875 821.41 188.624C821.055 188.369 820.877 187.972 820.877 187.435C820.877 187.321 820.886 187.186 820.905 187.031C820.923 186.876 820.952 186.692 820.993 186.478L821.807 182.321H819.763L819.954 181.344H821.998L822.422 179.17H823.68ZM831.623 182.226C830.876 182.226 830.252 182.615 829.75 183.395C829.253 184.174 829.005 185.165 829.005 186.368C829.005 186.956 829.133 187.398 829.388 187.694C829.643 187.986 830.026 188.132 830.536 188.132C831.284 188.132 831.906 187.742 832.403 186.963C832.904 186.184 833.155 185.192 833.155 183.989C833.155 183.401 833.027 182.962 832.772 182.67C832.516 182.374 832.134 182.226 831.623 182.226ZM831.739 181.159C832.633 181.159 833.312 181.403 833.777 181.891C834.246 182.378 834.481 183.091 834.481 184.03C834.481 184.659 834.387 185.286 834.2 185.91C834.014 186.53 833.752 187.088 833.414 187.585C833.054 188.123 832.617 188.526 832.102 188.795C831.587 189.064 830.994 189.198 830.324 189.198C829.472 189.198 828.816 188.95 828.356 188.453C827.895 187.952 827.665 187.239 827.665 186.313C827.665 185.698 827.759 185.083 827.946 184.468C828.132 183.853 828.397 183.287 828.738 182.772C829.099 182.244 829.531 181.843 830.037 181.569C830.548 181.296 831.115 181.159 831.739 181.159ZM843.395 182.923C843.19 182.722 842.95 182.572 842.677 182.472C842.408 182.371 842.1 182.321 841.754 182.321C841.007 182.321 840.366 182.583 839.833 183.107C839.3 183.627 838.947 184.34 838.774 185.247L838.042 189H836.784L838.268 181.344H839.526L839.252 182.841C839.558 182.294 839.952 181.877 840.435 181.59C840.922 181.303 841.474 181.159 842.089 181.159C842.413 181.159 842.704 181.202 842.964 181.289C843.228 181.371 843.452 181.492 843.634 181.651L843.395 182.923ZM851.099 181.61L850.86 182.841C850.536 182.636 850.194 182.481 849.834 182.376C849.479 182.267 849.126 182.212 848.775 182.212C848.15 182.212 847.665 182.328 847.319 182.561C846.977 182.793 846.806 183.119 846.806 183.538C846.806 183.985 847.309 184.336 848.317 184.591C848.385 184.609 848.435 184.623 848.467 184.632L848.959 184.755C849.492 184.896 849.891 185.108 850.155 185.391C850.42 185.669 850.552 186.017 850.552 186.437C850.552 187.261 850.224 187.929 849.568 188.439C848.911 188.945 848.041 189.198 846.956 189.198C846.587 189.198 846.202 189.157 845.801 189.075C845.4 188.998 844.974 188.879 844.523 188.72L844.776 187.421C845.204 187.662 845.619 187.845 846.02 187.968C846.425 188.086 846.817 188.146 847.196 188.146C847.802 188.146 848.296 188.011 848.679 187.742C849.062 187.469 849.253 187.122 849.253 186.703C849.253 186.252 848.807 185.908 847.913 185.671C847.831 185.653 847.767 185.637 847.722 185.623L847.264 185.5C846.676 185.35 846.243 185.129 845.965 184.837C845.692 184.545 845.555 184.165 845.555 183.695C845.555 182.921 845.856 182.305 846.457 181.85C847.059 181.389 847.87 181.159 848.891 181.159C849.292 181.159 849.677 181.198 850.046 181.275C850.415 181.348 850.766 181.46 851.099 181.61Z" fill="black" />
    <path d="M866.381 197H651.381V198.497H866.381V197Z" fill="#3F3D56" />
    <path d="M610.928 192.297C614.754 192.297 617.856 189.274 617.856 185.545C617.856 181.815 614.754 178.792 610.928 178.792C607.102 178.792 604 181.815 604 185.545C604 189.274 607.102 192.297 610.928 192.297Z" fill="#3F3D56" />
    <path d="M856.381 135H661.381C655.858 135 651.381 139.477 651.381 145C651.381 150.523 655.858 155 661.381 155H856.381C861.904 155 866.381 150.523 866.381 145C866.381 139.477 861.904 135 856.381 135Z" fill="#F2F2F2" />
    <path d="M695.773 144.923C695.568 144.722 695.328 144.572 695.055 144.472C694.786 144.371 694.478 144.321 694.132 144.321C693.385 144.321 692.744 144.583 692.211 145.107C691.678 145.627 691.325 146.34 691.152 147.247L690.42 151H689.162L690.646 143.344H691.904L691.63 144.841C691.935 144.294 692.33 143.877 692.813 143.59C693.3 143.303 693.852 143.159 694.467 143.159C694.791 143.159 695.082 143.202 695.342 143.289C695.606 143.371 695.83 143.492 696.012 143.651L695.773 144.923ZM702.527 146.495C702.554 146.372 702.572 146.272 702.581 146.194C702.59 146.112 702.595 146.035 702.595 145.962C702.595 145.415 702.447 144.989 702.151 144.684C701.854 144.378 701.442 144.226 700.913 144.226C700.353 144.226 699.84 144.431 699.375 144.841C698.915 145.251 698.585 145.802 698.384 146.495H702.527ZM702.684 150.61C702.205 150.806 701.738 150.952 701.282 151.048C700.827 151.148 700.364 151.198 699.895 151.198C698.878 151.198 698.106 150.945 697.577 150.439C697.049 149.929 696.784 149.186 696.784 148.211C696.784 147.5 696.921 146.803 697.195 146.119C697.468 145.436 697.846 144.845 698.329 144.349C698.708 143.957 699.125 143.658 699.58 143.453C700.041 143.248 700.519 143.146 701.016 143.146C701.863 143.146 702.54 143.408 703.046 143.932C703.557 144.451 703.812 145.146 703.812 146.017C703.812 146.172 703.8 146.365 703.778 146.598C703.755 146.826 703.716 147.117 703.661 147.473H698.145C698.117 147.618 698.097 147.751 698.083 147.869C698.07 147.988 698.063 148.092 698.063 148.184C698.063 148.817 698.238 149.3 698.589 149.633C698.94 149.965 699.45 150.132 700.12 150.132C700.521 150.132 700.959 150.068 701.433 149.94C701.911 149.808 702.41 149.615 702.93 149.359L702.684 150.61ZM709.663 144.123C709.841 143.813 710.071 143.576 710.354 143.412C710.641 143.243 710.96 143.159 711.311 143.159C711.703 143.159 712.015 143.285 712.247 143.535C712.484 143.781 712.603 144.114 712.603 144.533C712.603 144.779 712.582 145.057 712.541 145.367C712.5 145.677 712.432 146.076 712.336 146.563L711.468 151H710.32L711.174 146.618C711.256 146.199 711.318 145.857 711.359 145.593C711.404 145.324 711.427 145.135 711.427 145.025C711.427 144.738 711.375 144.531 711.27 144.403C711.165 144.276 710.996 144.212 710.764 144.212C710.422 144.212 710.155 144.36 709.964 144.656C709.773 144.948 709.579 145.602 709.383 146.618L708.529 151H707.38L708.235 146.618C708.321 146.176 708.383 145.827 708.419 145.572C708.46 145.312 708.481 145.13 708.481 145.025C708.481 144.747 708.426 144.542 708.317 144.41C708.212 144.278 708.048 144.212 707.824 144.212C707.487 144.212 707.225 144.349 707.038 144.622C706.856 144.891 706.662 145.556 706.457 146.618L705.603 151H704.454L705.938 143.344H707.086L706.956 144C707.157 143.727 707.382 143.519 707.633 143.378C707.888 143.232 708.162 143.159 708.453 143.159C708.795 143.159 709.071 143.246 709.28 143.419C709.49 143.588 709.618 143.822 709.663 144.123ZM717.743 144.226C716.996 144.226 716.372 144.615 715.87 145.395C715.374 146.174 715.125 147.165 715.125 148.368C715.125 148.956 715.253 149.398 715.508 149.694C715.763 149.986 716.146 150.132 716.656 150.132C717.404 150.132 718.026 149.742 718.523 148.963C719.024 148.184 719.275 147.192 719.275 145.989C719.275 145.401 719.147 144.962 718.892 144.67C718.637 144.374 718.254 144.226 717.743 144.226ZM717.86 143.159C718.753 143.159 719.432 143.403 719.897 143.891C720.366 144.378 720.601 145.091 720.601 146.03C720.601 146.659 720.507 147.286 720.321 147.91C720.134 148.53 719.872 149.088 719.534 149.585C719.174 150.123 718.737 150.526 718.222 150.795C717.707 151.064 717.114 151.198 716.445 151.198C715.592 151.198 714.936 150.95 714.476 150.453C714.016 149.952 713.785 149.239 713.785 148.313C713.785 147.698 713.879 147.083 714.066 146.468C714.252 145.853 714.517 145.287 714.859 144.772C715.219 144.244 715.652 143.843 716.157 143.569C716.668 143.296 717.235 143.159 717.86 143.159ZM726.671 141.17L726.254 143.344H729.105L728.913 144.321H726.056L725.242 148.478C725.215 148.614 725.195 148.742 725.181 148.86C725.167 148.974 725.16 149.081 725.16 149.182C725.16 149.482 725.249 149.694 725.427 149.817C725.605 149.936 725.926 149.995 726.391 149.995H727.806L727.608 151H726.083C725.322 151 724.762 150.875 724.402 150.624C724.046 150.369 723.868 149.972 723.868 149.435C723.868 149.321 723.877 149.186 723.896 149.031C723.914 148.876 723.944 148.692 723.985 148.478L724.798 144.321H722.754L722.946 143.344H724.989L725.413 141.17H726.671ZM736.269 146.495C736.296 146.372 736.314 146.272 736.323 146.194C736.333 146.112 736.337 146.035 736.337 145.962C736.337 145.415 736.189 144.989 735.893 144.684C735.597 144.378 735.184 144.226 734.655 144.226C734.095 144.226 733.582 144.431 733.117 144.841C732.657 145.251 732.327 145.802 732.126 146.495H736.269ZM736.426 150.61C735.947 150.806 735.48 150.952 735.025 151.048C734.569 151.148 734.106 151.198 733.637 151.198C732.621 151.198 731.848 150.945 731.32 150.439C730.791 149.929 730.527 149.186 730.527 148.211C730.527 147.5 730.663 146.803 730.937 146.119C731.21 145.436 731.588 144.845 732.072 144.349C732.45 143.957 732.867 143.658 733.322 143.453C733.783 143.248 734.261 143.146 734.758 143.146C735.606 143.146 736.282 143.408 736.788 143.932C737.299 144.451 737.554 145.146 737.554 146.017C737.554 146.172 737.543 146.365 737.52 146.598C737.497 146.826 737.458 147.117 737.404 147.473H731.887C731.86 147.618 731.839 147.751 731.825 147.869C731.812 147.988 731.805 148.092 731.805 148.184C731.805 148.817 731.98 149.3 732.331 149.633C732.682 149.965 733.193 150.132 733.863 150.132C734.264 150.132 734.701 150.068 735.175 149.94C735.654 149.808 736.153 149.615 736.672 149.359L736.426 150.61ZM753.181 150.638C752.798 150.825 752.411 150.964 752.019 151.055C751.631 151.15 751.23 151.198 750.816 151.198C749.767 151.198 748.954 150.895 748.375 150.289C747.801 149.683 747.514 148.833 747.514 147.739C747.514 146.737 747.673 145.743 747.992 144.759C748.311 143.774 748.731 142.97 749.25 142.346C749.738 141.753 750.276 141.316 750.863 141.033C751.451 140.751 752.121 140.609 752.873 140.609C753.238 140.609 753.6 140.657 753.96 140.753C754.32 140.849 754.671 140.988 755.013 141.17L754.733 142.585C754.441 142.298 754.133 142.084 753.81 141.942C753.486 141.801 753.142 141.73 752.778 141.73C752.345 141.73 751.944 141.824 751.574 142.011C751.205 142.193 750.859 142.473 750.535 142.852C750.061 143.412 749.679 144.13 749.387 145.005C749.1 145.88 748.956 146.757 748.956 147.637C748.956 148.425 749.134 149.029 749.489 149.448C749.845 149.868 750.358 150.077 751.028 150.077C751.415 150.077 751.814 150.004 752.224 149.858C752.639 149.713 753.046 149.501 753.447 149.223L753.181 150.638ZM763.004 141.143L762.738 142.544C762.368 142.275 761.986 142.072 761.589 141.936C761.193 141.799 760.782 141.73 760.359 141.73C759.607 141.73 758.994 141.917 758.52 142.291C758.046 142.665 757.809 143.141 757.809 143.72C757.809 144.043 757.92 144.305 758.144 144.506C758.367 144.706 758.773 144.898 759.361 145.08L760.188 145.347C760.931 145.575 761.473 145.88 761.815 146.263C762.161 146.641 762.334 147.124 762.334 147.712C762.334 148.783 761.956 149.633 761.199 150.262C760.443 150.886 759.411 151.198 758.103 151.198C757.629 151.198 757.162 151.146 756.701 151.041C756.246 150.941 755.79 150.788 755.334 150.583L755.614 149.154C756.061 149.469 756.512 149.701 756.968 149.852C757.428 150.002 757.914 150.077 758.424 150.077C759.176 150.077 759.787 149.877 760.256 149.476C760.725 149.075 760.96 148.566 760.96 147.951C760.96 147.577 760.86 147.288 760.659 147.083C760.459 146.878 760.056 146.682 759.449 146.495L758.759 146.27C757.92 146.005 757.333 145.707 756.995 145.374C756.663 145.037 756.496 144.592 756.496 144.041C756.496 143.034 756.872 142.211 757.624 141.573C758.376 140.931 759.358 140.609 760.571 140.609C760.935 140.609 761.322 140.655 761.733 140.746C762.147 140.837 762.571 140.969 763.004 141.143ZM776.136 148.211C776.104 148.37 776.079 148.512 776.061 148.635C776.047 148.758 776.04 148.86 776.04 148.942C776.04 149.275 776.141 149.523 776.341 149.688C776.546 149.852 776.856 149.934 777.271 149.934H778.713L778.501 151H777.086C776.298 151 775.71 150.856 775.322 150.569C774.94 150.278 774.748 149.833 774.748 149.236C774.748 149.109 774.76 148.954 774.782 148.771C774.805 148.589 774.837 148.393 774.878 148.184L776.321 141.272H774.16L774.359 140.288H777.777L776.136 148.211ZM786.882 146.495C786.909 146.372 786.928 146.272 786.937 146.194C786.946 146.112 786.95 146.035 786.95 145.962C786.95 145.415 786.802 144.989 786.506 144.684C786.21 144.378 785.797 144.226 785.269 144.226C784.708 144.226 784.196 144.431 783.731 144.841C783.27 145.251 782.94 145.802 782.739 146.495H786.882ZM787.039 150.61C786.561 150.806 786.094 150.952 785.638 151.048C785.182 151.148 784.72 151.198 784.25 151.198C783.234 151.198 782.461 150.945 781.933 150.439C781.404 149.929 781.14 149.186 781.14 148.211C781.14 147.5 781.277 146.803 781.55 146.119C781.823 145.436 782.202 144.845 782.685 144.349C783.063 143.957 783.48 143.658 783.936 143.453C784.396 143.248 784.875 143.146 785.371 143.146C786.219 143.146 786.896 143.408 787.402 143.932C787.912 144.451 788.167 145.146 788.167 146.017C788.167 146.172 788.156 146.365 788.133 146.598C788.11 146.826 788.072 147.117 788.017 147.473H782.5C782.473 147.618 782.452 147.751 782.439 147.869C782.425 147.988 782.418 148.092 782.418 148.184C782.418 148.817 782.594 149.3 782.945 149.633C783.295 149.965 783.806 150.132 784.476 150.132C784.877 150.132 785.314 150.068 785.788 149.94C786.267 149.808 786.766 149.615 787.285 149.359L787.039 150.61ZM796.268 143.61L796.029 144.841C795.705 144.636 795.363 144.481 795.003 144.376C794.648 144.267 794.294 144.212 793.944 144.212C793.319 144.212 792.834 144.328 792.488 144.561C792.146 144.793 791.975 145.119 791.975 145.538C791.975 145.985 792.478 146.336 793.486 146.591C793.554 146.609 793.604 146.623 793.636 146.632L794.128 146.755C794.661 146.896 795.06 147.108 795.324 147.391C795.589 147.669 795.721 148.017 795.721 148.437C795.721 149.261 795.393 149.929 794.737 150.439C794.08 150.945 793.21 151.198 792.125 151.198C791.756 151.198 791.371 151.157 790.97 151.075C790.569 150.998 790.143 150.879 789.692 150.72L789.945 149.421C790.373 149.662 790.788 149.845 791.189 149.968C791.594 150.086 791.986 150.146 792.364 150.146C792.971 150.146 793.465 150.011 793.848 149.742C794.231 149.469 794.422 149.122 794.422 148.703C794.422 148.252 793.975 147.908 793.082 147.671C793 147.653 792.936 147.637 792.891 147.623L792.433 147.5C791.845 147.35 791.412 147.129 791.134 146.837C790.861 146.545 790.724 146.165 790.724 145.695C790.724 144.921 791.025 144.305 791.626 143.85C792.228 143.389 793.039 143.159 794.06 143.159C794.461 143.159 794.846 143.198 795.215 143.275C795.584 143.348 795.935 143.46 796.268 143.61ZM804.703 143.61L804.464 144.841C804.141 144.636 803.799 144.481 803.439 144.376C803.083 144.267 802.73 144.212 802.379 144.212C801.755 144.212 801.269 144.328 800.923 144.561C800.581 144.793 800.41 145.119 800.41 145.538C800.41 145.985 800.914 146.336 801.921 146.591C801.989 146.609 802.04 146.623 802.072 146.632L802.564 146.755C803.097 146.896 803.496 147.108 803.76 147.391C804.024 147.669 804.156 148.017 804.156 148.437C804.156 149.261 803.828 149.929 803.172 150.439C802.516 150.945 801.645 151.198 800.561 151.198C800.192 151.198 799.807 151.157 799.405 151.075C799.004 150.998 798.578 150.879 798.127 150.72L798.38 149.421C798.808 149.662 799.223 149.845 799.624 149.968C800.03 150.086 800.422 150.146 800.8 150.146C801.406 150.146 801.901 150.011 802.283 149.742C802.666 149.469 802.858 149.122 802.858 148.703C802.858 148.252 802.411 147.908 801.518 147.671C801.436 147.653 801.372 147.637 801.326 147.623L800.868 147.5C800.28 147.35 799.848 147.129 799.57 146.837C799.296 146.545 799.159 146.165 799.159 145.695C799.159 144.921 799.46 144.305 800.062 143.85C800.663 143.389 801.474 143.159 802.495 143.159C802.896 143.159 803.281 143.198 803.651 143.275C804.02 143.348 804.371 143.46 804.703 143.61ZM810.534 144.226C809.787 144.226 809.163 144.615 808.661 145.395C808.165 146.174 807.916 147.165 807.916 148.368C807.916 148.956 808.044 149.398 808.299 149.694C808.554 149.986 808.937 150.132 809.447 150.132C810.195 150.132 810.817 149.742 811.314 148.963C811.815 148.184 812.066 147.192 812.066 145.989C812.066 145.401 811.938 144.962 811.683 144.67C811.428 144.374 811.045 144.226 810.534 144.226ZM810.651 143.159C811.544 143.159 812.223 143.403 812.688 143.891C813.157 144.378 813.392 145.091 813.392 146.03C813.392 146.659 813.298 147.286 813.112 147.91C812.925 148.53 812.663 149.088 812.325 149.585C811.965 150.123 811.528 150.526 811.013 150.795C810.498 151.064 809.905 151.198 809.236 151.198C808.383 151.198 807.727 150.95 807.267 150.453C806.807 149.952 806.576 149.239 806.576 148.313C806.576 147.698 806.67 147.083 806.857 146.468C807.044 145.853 807.308 145.287 807.65 144.772C808.01 144.244 808.443 143.843 808.948 143.569C809.459 143.296 810.026 143.159 810.651 143.159ZM821.561 146.256L820.638 151H819.38L820.303 146.249C820.308 146.231 820.314 146.199 820.323 146.153C820.392 145.83 820.426 145.579 820.426 145.401C820.426 145.032 820.319 144.75 820.105 144.554C819.895 144.353 819.592 144.253 819.196 144.253C818.617 144.253 818.125 144.465 817.719 144.889C817.313 145.312 817.035 145.907 816.885 146.673L816.044 151H814.786L816.283 143.344H817.541L817.322 144.492C817.664 144.05 818.033 143.717 818.43 143.494C818.831 143.271 819.255 143.159 819.701 143.159C820.335 143.159 820.827 143.326 821.178 143.658C821.529 143.986 821.704 144.447 821.704 145.039C821.704 145.185 821.691 145.365 821.663 145.579C821.641 145.793 821.606 146.019 821.561 146.256ZM830.01 143.61L829.771 144.841C829.447 144.636 829.105 144.481 828.745 144.376C828.39 144.267 828.037 144.212 827.686 144.212C827.061 144.212 826.576 144.328 826.23 144.561C825.888 144.793 825.717 145.119 825.717 145.538C825.717 145.985 826.221 146.336 827.228 146.591C827.296 146.609 827.346 146.623 827.378 146.632L827.87 146.755C828.404 146.896 828.802 147.108 829.067 147.391C829.331 147.669 829.463 148.017 829.463 148.437C829.463 149.261 829.135 149.929 828.479 150.439C827.822 150.945 826.952 151.198 825.867 151.198C825.498 151.198 825.113 151.157 824.712 151.075C824.311 150.998 823.885 150.879 823.434 150.72L823.687 149.421C824.115 149.662 824.53 149.845 824.931 149.968C825.336 150.086 825.728 150.146 826.107 150.146C826.713 150.146 827.207 150.011 827.59 149.742C827.973 149.469 828.164 149.122 828.164 148.703C828.164 148.252 827.718 147.908 826.824 147.671C826.742 147.653 826.679 147.637 826.633 147.623L826.175 147.5C825.587 147.35 825.154 147.129 824.876 146.837C824.603 146.545 824.466 146.165 824.466 145.695C824.466 144.921 824.767 144.305 825.368 143.85C825.97 143.389 826.781 143.159 827.802 143.159C828.203 143.159 828.588 143.198 828.957 143.275C829.326 143.348 829.677 143.46 830.01 143.61Z" fill="black" />
    <path d="M866.381 159H651.381V160.497H866.381V159Z" fill="#3F3D56" />
    <path d="M610.928 154.297C614.754 154.297 617.856 151.274 617.856 147.545C617.856 143.815 614.754 140.792 610.928 140.792C607.102 140.792 604 143.815 604 147.545C604 151.274 607.102 154.297 610.928 154.297Z" fill="#3F3D56" />
    <path d="M546.996 369.691C556.339 397.099 553.058 422.834 553.058 422.834C553.058 422.834 534.627 404.131 525.284 376.722C515.94 349.314 519.222 323.579 519.222 323.579C519.222 323.579 537.652 342.282 546.996 369.691Z" fill="#38A169" />
    <path d="M559.12 369.691C549.776 397.099 553.058 422.834 553.058 422.834C553.058 422.834 571.488 404.131 580.831 376.722C590.175 349.314 586.893 323.579 586.893 323.579C586.893 323.579 568.463 342.282 559.12 369.691Z" fill="#38A169" />
    <path d="M562.883 369.986C563.509 398.862 552.58 422.505 552.58 422.505C552.58 422.505 540.635 399.333 540.009 370.458C539.383 341.582 550.312 317.939 550.312 317.939C550.312 317.939 562.256 341.111 562.883 369.986Z" fill="#3F3D56" />
    <path d="M552.574 424.245C567.167 424.245 578.997 423.612 578.997 422.832C578.997 422.051 567.167 421.418 552.574 421.418C537.98 421.418 526.15 422.051 526.15 422.832C526.15 423.612 537.98 424.245 552.574 424.245Z" fill="#3F3D56" />
    <path d="M487.699 308.335H375.469V327.76H487.699V308.335Z" fill="#F2F2F2" />
    <path d="M360.914 302.454V329.464H510.554V302.454H360.914ZM509.168 328.113H362.3V303.804H509.168V328.113Z" fill="#3F3D56" />
    <path d="M896.679 398.289L878.469 383.727L893.409 365.978L911.619 380.54L896.679 398.289ZM880.419 383.54L896.487 396.389L909.669 380.727L893.601 367.878L880.419 383.54Z" fill="#3F3D56" />
    <path d="M632.841 80.822L615.702 67.1169L601.641 83.8225L618.78 97.5276L632.841 80.822Z" fill="#38A169" />
    <path d="M527.873 192.388C527.904 211.435 521.69 229.993 510.138 245.355C508.822 247.11 507.443 248.826 505.995 250.48C501.905 255.178 497.332 259.454 492.347 263.242C491.849 263.62 491.343 263.998 490.83 264.37C488.96 265.734 487.036 267.028 485.059 268.252C484.457 268.624 483.854 268.989 483.244 269.34C481.866 270.157 480.462 270.935 479.032 271.676C478.333 272.041 477.626 272.399 476.919 272.743C462.399 279.805 446.223 283.006 430.026 282.023C413.83 281.04 398.186 275.908 384.676 267.145C383.956 266.686 383.249 266.213 382.55 265.727C381.233 264.822 379.938 263.877 378.677 262.905C377.513 262.013 376.377 261.088 375.262 260.143C369.389 255.166 364.187 249.485 359.778 243.234C358.919 242.012 358.088 240.77 357.284 239.507C349.811 227.687 345.252 214.338 343.964 200.51C342.677 186.683 344.696 172.752 349.863 159.814C355.03 146.875 363.205 135.28 373.744 125.94C384.284 116.599 396.902 109.768 410.608 105.983C424.313 102.197 438.732 101.56 452.732 104.122C466.732 106.684 479.933 112.375 491.296 120.748C502.659 129.121 511.876 139.948 518.223 152.378C524.569 164.808 527.872 178.504 527.873 192.388Z" fill="#F2F2F2" />
    <path d="M432.264 187.957C446.127 187.957 457.366 177.003 457.366 163.49C457.366 149.977 446.127 139.023 432.264 139.023C418.4 139.023 407.162 149.977 407.162 163.49C407.162 177.003 418.4 187.957 432.264 187.957Z" fill="#A0616A" />
    <path d="M415.006 175.213C415.006 175.213 423.374 193.564 411.868 200.7C400.363 207.836 430.695 237.401 430.695 237.401L464.165 202.739C464.165 202.739 446.384 191.525 449.522 173.174L415.006 175.213Z" fill="#A0616A" />
    <path d="M492.347 263.243C491.849 263.621 491.343 263.999 490.83 264.37C488.96 265.734 487.036 267.028 485.06 268.253C484.457 268.624 483.854 268.989 483.245 269.34L482.988 267.983L485.399 266.761L492.347 263.243Z" fill="#A0616A" />
    <path d="M483.245 269.339C483.854 268.988 484.457 268.623 485.06 268.252L485.08 267.982L485.399 266.76L498.68 215.994L458.422 197.938L434.882 211.916L413.794 199.241C413.794 199.241 401.407 199.68 398.269 202.739C395.809 205.136 383.748 210.653 378.622 212.936C377.195 213.57 376.308 213.955 376.308 213.955C376.308 213.955 377.098 237.089 378.677 262.904C379.938 263.876 381.233 264.822 382.55 265.727C383.249 266.213 383.956 266.685 384.677 267.145C398.187 275.907 413.83 281.039 430.026 282.022C446.223 283.005 462.399 279.804 476.919 272.742L483.245 269.339Z" fill="#38A169" />
    <path d="M384.676 212.936V267.145C383.956 266.685 383.249 266.213 382.549 265.727C381.233 264.822 379.938 263.876 378.677 262.904C377.513 262.013 376.377 261.088 375.261 260.142C369.389 255.165 364.187 249.484 359.778 243.234C358.919 242.012 358.088 240.769 357.284 239.507C357.963 237.332 358.725 234.931 359.57 232.302C364.801 215.994 376.308 212.936 376.308 212.936H384.676Z" fill="#38A169" />
    <path d="M483.244 269.34C483.854 268.989 484.457 268.624 485.06 268.253C487.034 267.03 488.958 265.736 490.83 264.37C491.343 263.999 491.849 263.62 492.347 263.242C497.332 259.454 501.906 255.178 505.995 250.48C507.443 248.826 508.822 247.111 510.138 245.355C505.877 232.377 498.679 215.995 498.679 215.995L484.034 214.975C484.034 214.975 478.09 261.352 476.919 272.743L483.244 269.34Z" fill="#38A169" />
    <path d="M416.873 135.17C415.617 136.212 414.307 137.19 412.947 138.099C411.232 139.486 409.648 141.019 408.213 142.682L406.595 144.448C405.217 145.951 403.756 147.667 403.814 149.681C403.835 150.429 404.071 151.154 404.163 151.896C404.53 154.841 402.683 158.078 404.203 160.648C404.643 161.391 405.322 161.972 405.807 162.688C406.423 163.606 406.696 164.702 406.58 165.793C408.214 165.858 409.554 164.432 410.066 162.918C410.578 161.405 410.509 159.77 410.759 158.195C411.008 156.62 411.709 154.952 413.177 154.251C416.31 152.755 419.907 156.645 423.251 155.676C425.586 154.999 426.817 152.178 429.204 151.705C430.912 151.366 432.557 152.356 434.145 153.057C435.733 153.758 437.873 154.083 438.996 152.783C439.74 151.922 439.819 150.543 440.805 149.958C441.987 149.257 443.467 150.233 444.361 151.262C445.256 152.29 446.244 153.547 447.627 153.51C449.461 153.46 450.866 151.079 452.608 151.644C454.573 152.282 453.669 155.347 454.861 156.998C455.87 158.393 457.981 158.311 459.716 158.081C460.008 158.109 460.304 158.066 460.574 157.953C460.845 157.84 461.081 157.663 461.262 157.437C461.443 157.21 461.562 156.943 461.608 156.66C461.654 156.377 461.626 156.087 461.526 155.818L460.801 146.45C460.798 145.805 460.653 145.167 460.376 144.581C459.871 143.69 458.827 143.239 458.116 142.493C456.622 140.925 456.694 138.177 454.836 137.037C453.872 136.445 452.61 136.462 451.652 135.86C450.424 135.087 450.028 133.54 449.168 132.388C447.938 130.741 445.787 129.978 443.709 129.768C441.63 129.559 439.532 129.812 437.443 129.745C433.196 129.61 428.949 128.445 424.682 129.127C420.958 129.722 419.395 132.802 416.873 135.17Z" fill="#2F2E41" />
    <path d="M328.761 0H230.735C222.451 0 215.735 6.71572 215.735 15V99.4145C215.735 107.699 222.451 114.415 230.735 114.415H328.761C337.045 114.415 343.761 107.699 343.761 99.4145V15C343.761 6.71573 337.045 0 328.761 0Z" fill="#855D51" />
    <path d="M316.363 19.0564H243.09C239.224 19.0564 236.09 22.1904 236.09 26.0564V74.7564C236.09 78.6224 239.224 81.7564 243.09 81.7564H316.363C320.229 81.7564 323.363 78.6223 323.363 74.7564V26.0564C323.363 22.1904 320.229 19.0564 316.363 19.0564Z" fill="white" />
    <path d="M286.5 68.1415H272.953C271.509 68.1415 270.339 69.3116 270.339 70.755C270.339 72.1984 271.509 73.3686 272.953 73.3686H286.5C287.944 73.3686 289.114 72.1984 289.114 70.755C289.114 69.3116 287.944 68.1415 286.5 68.1415Z" fill="#3F3D56" />
    <path d="M310.691 27.4443H248.761C248.143 27.4443 247.641 27.9458 247.641 28.5644C247.641 29.183 248.143 29.6845 248.761 29.6845H310.691C311.31 29.6845 311.811 29.183 311.811 28.5644C311.811 27.9458 311.31 27.4443 310.691 27.4443Z" fill="#3F3D56" />
    <path d="M310.691 34.5389H248.761C248.143 34.5389 247.641 35.0404 247.641 35.659C247.641 36.2776 248.143 36.7791 248.761 36.7791H310.691C311.31 36.7791 311.811 36.2776 311.811 35.659C311.811 35.0404 311.31 34.5389 310.691 34.5389Z" fill="#3F3D56" />
    <path d="M310.691 41.6323H248.761C248.143 41.6323 247.641 42.1338 247.641 42.7524C247.641 43.371 248.143 43.8725 248.761 43.8725H310.691C311.31 43.8725 311.811 43.371 311.811 42.7524C311.811 42.1338 311.31 41.6323 310.691 41.6323Z" fill="#3F3D56" />
    <path d="M310.691 48.7263H248.761C248.143 48.7263 247.641 49.2278 247.641 49.8464C247.641 50.465 248.143 50.9665 248.761 50.9665H310.691C311.31 50.9665 311.811 50.465 311.811 49.8464C311.811 49.2278 311.31 48.7263 310.691 48.7263Z" fill="#3F3D56" />
    <path d="M310.691 55.821H248.761C248.143 55.821 247.641 56.3225 247.641 56.9411C247.641 57.5597 248.143 58.0612 248.761 58.0612H310.691C311.31 58.0612 311.811 57.5597 311.811 56.9411C311.811 56.3225 311.31 55.821 310.691 55.821Z" fill="#3F3D56" />
    <path d="M282.3 87.9797H237.177C236.529 87.9797 236.004 88.5052 236.004 89.1534C236.004 89.8015 236.529 90.327 237.177 90.327H282.3C282.948 90.327 283.474 89.8015 283.474 89.1534C283.474 88.5052 282.948 87.9797 282.3 87.9797Z" fill="#F2F2F2" />
    <path d="M301.038 93.8478H237.177C236.529 93.8478 236.004 94.3732 236.004 95.0214C236.004 95.6696 236.529 96.195 237.177 96.195H301.038C301.687 96.195 302.212 95.6696 302.212 95.0214C302.212 94.3732 301.687 93.8478 301.038 93.8478Z" fill="#F2F2F2" />
    <path d="M278.642 14.8374C281.402 14.8374 283.639 12.7355 283.639 10.1428C283.639 7.55006 281.402 5.44824 278.642 5.44824C275.883 5.44824 273.645 7.55006 273.645 10.1428C273.645 12.7355 275.883 14.8374 278.642 14.8374Z" fill="#3F3D56" />
    <defs>
        <clipPath id="clip0">
            <rect width="1116.95" height="502.914" fill="white" transform="translate(0 15.0863)" />
        </clipPath>
    </defs>
</svg>
