<svg width="964" height="508" viewBox="0 0 964 508" fill="none" xmlns="http://www.w3.org/2000/svg">
<path d="M850.332 34.625H573.564V28.7225H448.066V34.625H170.157C167.699 34.625 165.264 35.126 162.993 36.0995C160.722 37.073 158.658 38.4999 156.919 40.2986C155.181 42.0974 153.802 44.2329 152.861 46.5831C151.92 48.9333 151.436 51.4522 151.436 53.9961V446.131C151.436 451.269 153.408 456.196 156.919 459.829C160.43 463.462 165.192 465.503 170.157 465.503H850.332C852.79 465.503 855.225 465.001 857.496 464.028C859.768 463.054 861.831 461.628 863.57 459.829C865.308 458.03 866.687 455.895 867.628 453.544C868.569 451.194 869.053 448.675 869.053 446.131V53.9961C869.053 51.4522 868.569 48.9333 867.628 46.5831C866.687 44.2328 865.308 42.0974 863.57 40.2986C861.831 38.4999 859.768 37.073 857.496 36.0995C855.225 35.126 852.79 34.625 850.332 34.625Z" fill="#3F3D56"/>
<g clip-path="url(#clip0)">
<rect x="185.29" y="59.6125" width="656.643" height="358.719" rx="43.5" fill="white"/>
<path d="M765.662 176.354H610.135C604.876 176.354 600.613 180.617 600.613 185.876C600.613 191.135 604.876 195.398 610.135 195.398H765.662C770.921 195.398 775.184 191.135 775.184 185.876C775.184 180.617 770.921 176.354 765.662 176.354Z" fill="#F2F2F2"/>
<path d="M324.404 181.902H324.048L324.466 179.503L323.71 179.769L323.771 179.425L324.826 179.044H324.888L324.404 181.902ZM326.792 181.329C326.812 181.184 326.732 181.081 326.552 181.021L326.185 180.913C325.875 180.807 325.725 180.63 325.736 180.382C325.745 180.196 325.83 180.044 325.99 179.925C326.151 179.805 326.341 179.747 326.558 179.749C326.772 179.752 326.945 179.814 327.078 179.937C327.212 180.058 327.276 180.216 327.271 180.411L326.919 180.41C326.922 180.304 326.889 180.218 326.82 180.152C326.751 180.085 326.659 180.051 326.544 180.048C326.422 180.046 326.317 180.076 326.228 180.138C326.146 180.197 326.098 180.273 326.085 180.369C326.068 180.491 326.143 180.58 326.31 180.636L326.488 180.685C326.73 180.747 326.902 180.829 327.003 180.929C327.105 181.029 327.152 181.154 327.144 181.302C327.136 181.434 327.093 181.548 327.015 181.646C326.937 181.744 326.833 181.818 326.703 181.87C326.572 181.921 326.434 181.945 326.287 181.941C326.063 181.938 325.878 181.873 325.732 181.745C325.586 181.617 325.516 181.451 325.521 181.249L325.874 181.251C325.874 181.37 325.912 181.465 325.988 181.536C326.063 181.608 326.167 181.644 326.298 181.644C326.427 181.647 326.539 181.62 326.632 181.564C326.726 181.507 326.779 181.428 326.792 181.329ZM328.437 179.277L328.347 179.788H328.732L328.683 180.068H328.3L328.08 181.382C328.076 181.416 328.075 181.447 328.078 181.476C328.087 181.578 328.142 181.628 328.244 181.628C328.287 181.628 328.344 181.622 328.415 181.609L328.388 181.904C328.303 181.927 328.218 181.939 328.13 181.939C327.99 181.936 327.884 181.885 327.814 181.785C327.744 181.683 327.716 181.547 327.732 181.376L327.947 180.068H327.574L327.622 179.788H327.996L328.085 179.277H328.437ZM330.706 179.277L330.617 179.788H331.001L330.953 180.068H330.57L330.349 181.382C330.345 181.416 330.345 181.447 330.347 181.476C330.356 181.578 330.412 181.628 330.513 181.628C330.556 181.628 330.613 181.622 330.685 181.609L330.658 181.904C330.573 181.927 330.487 181.939 330.4 181.939C330.259 181.936 330.154 181.885 330.083 181.785C330.013 181.683 329.986 181.547 330.001 181.376L330.216 180.068H329.843L329.892 179.788H330.265L330.355 179.277H330.706ZM331.722 180.046C331.907 179.844 332.12 179.746 332.361 179.751C332.559 179.754 332.705 179.822 332.8 179.956C332.897 180.089 332.932 180.276 332.908 180.517L332.677 181.902H332.324L332.556 180.511C332.564 180.447 332.565 180.388 332.558 180.333C332.536 180.151 332.428 180.058 332.236 180.054C332.02 180.049 331.833 180.162 331.677 180.394L331.415 181.902H331.062L331.583 178.902H331.937L331.722 180.046ZM334.533 180.111L334.367 180.093C334.14 180.093 333.962 180.195 333.831 180.4L333.572 181.902H333.218L333.585 179.788L333.927 179.786L333.874 180.033C334.024 179.836 334.201 179.74 334.404 179.745C334.447 179.745 334.503 179.755 334.572 179.775L334.533 180.111ZM335.685 179.749C335.862 179.752 336.014 179.8 336.14 179.894C336.266 179.988 336.359 180.117 336.419 180.283C336.481 180.447 336.501 180.626 336.482 180.822L336.478 180.865C336.453 181.07 336.392 181.257 336.294 181.423C336.197 181.589 336.07 181.717 335.915 181.81C335.761 181.902 335.591 181.946 335.406 181.941C335.23 181.938 335.078 181.89 334.951 181.796C334.824 181.703 334.732 181.575 334.673 181.413C334.615 181.252 334.594 181.074 334.611 180.88C334.63 180.661 334.69 180.465 334.789 180.29C334.887 180.116 335.014 179.981 335.169 179.886C335.326 179.79 335.497 179.744 335.685 179.749ZM334.966 180.882C334.957 180.964 334.957 181.05 334.966 181.138C334.979 181.292 335.025 181.414 335.103 181.505C335.182 181.596 335.288 181.644 335.419 181.648C335.537 181.652 335.645 181.623 335.744 181.562C335.843 181.499 335.926 181.406 335.994 181.281C336.061 181.156 336.105 181.017 336.124 180.865C336.135 180.745 336.137 180.644 336.13 180.562C336.115 180.404 336.067 180.28 335.988 180.189C335.908 180.098 335.803 180.05 335.671 180.044C335.489 180.04 335.334 180.112 335.206 180.259C335.079 180.406 335 180.599 334.97 180.837L334.966 180.882ZM338.087 181.693C337.922 181.863 337.712 181.946 337.456 181.941C337.255 181.936 337.105 181.863 337.007 181.724C336.911 181.585 336.875 181.395 336.9 181.154L337.126 179.788H337.48L337.251 181.16C337.245 181.217 337.244 181.273 337.247 181.328C337.254 181.421 337.282 181.495 337.331 181.548C337.381 181.602 337.45 181.63 337.539 181.634C337.791 181.642 337.986 181.54 338.124 181.328L338.39 179.788H338.744L338.376 181.902H338.042L338.087 181.693ZM339.009 180.841C339.04 180.611 339.102 180.411 339.195 180.242C339.289 180.071 339.402 179.945 339.535 179.865C339.669 179.783 339.815 179.744 339.974 179.747C340.219 179.753 340.404 179.845 340.529 180.025L340.599 179.788H340.923L340.572 181.857C340.534 182.126 340.425 182.342 340.244 182.503C340.063 182.666 339.839 182.744 339.574 182.736C339.43 182.733 339.293 182.699 339.162 182.634C339.031 182.569 338.928 182.48 338.853 182.367L339.054 182.15C339.182 182.339 339.35 182.436 339.56 182.441C339.728 182.446 339.87 182.399 339.986 182.3C340.103 182.201 340.18 182.061 340.218 181.878L340.257 181.691C340.085 181.863 339.884 181.946 339.654 181.941C339.522 181.937 339.408 181.902 339.31 181.835C339.214 181.768 339.139 181.671 339.085 181.544C339.032 181.417 339.003 181.275 338.997 181.119C338.995 181.042 338.999 180.949 339.009 180.841ZM339.351 181.042C339.347 181.229 339.379 181.373 339.447 181.476C339.516 181.578 339.619 181.631 339.757 181.636C339.968 181.641 340.15 181.538 340.302 181.326L340.468 180.355C340.39 180.162 340.249 180.062 340.044 180.054C339.853 180.049 339.695 180.127 339.572 180.288C339.449 180.45 339.377 180.668 339.355 180.943L339.351 181.042ZM341.765 180.046C341.95 179.844 342.163 179.746 342.404 179.751C342.602 179.754 342.748 179.822 342.843 179.956C342.94 180.089 342.975 180.276 342.951 180.517L342.72 181.902H342.367L342.599 180.511C342.607 180.447 342.608 180.388 342.601 180.333C342.579 180.151 342.471 180.058 342.279 180.054C342.063 180.049 341.876 180.162 341.72 180.394L341.458 181.902H341.105L341.626 178.902H341.98L341.765 180.046ZM345.361 181.902H345.005L345.423 179.503L344.667 179.769L344.728 179.425L345.783 179.044H345.845L345.361 181.902ZM348.236 181.902H346.425L346.468 181.626L347.517 180.607L347.708 180.417C347.928 180.197 348.05 179.994 348.074 179.808C348.091 179.665 348.063 179.548 347.99 179.458C347.917 179.367 347.814 179.319 347.681 179.314C347.511 179.309 347.368 179.359 347.253 179.464C347.139 179.568 347.069 179.712 347.044 179.894L346.695 179.896C346.712 179.721 346.765 179.567 346.855 179.433C346.946 179.298 347.065 179.194 347.212 179.122C347.361 179.05 347.522 179.015 347.695 179.019C347.93 179.024 348.117 179.096 348.255 179.234C348.395 179.37 348.455 179.548 348.435 179.767C348.413 180.017 348.269 180.28 348.003 180.556L347.824 180.738L346.91 181.607H348.283L348.236 181.902ZM349.574 179.277L349.484 179.788H349.869L349.82 180.068H349.437L349.216 181.382C349.212 181.416 349.212 181.447 349.214 181.476C349.223 181.578 349.279 181.628 349.38 181.628C349.423 181.628 349.481 181.622 349.552 181.609L349.525 181.904C349.44 181.927 349.354 181.939 349.267 181.939C349.126 181.936 349.021 181.885 348.951 181.785C348.88 181.683 348.853 181.547 348.869 181.376L349.083 180.068H348.71L348.759 179.788H349.132L349.222 179.277H349.574ZM350.589 180.046C350.774 179.844 350.987 179.746 351.228 179.751C351.426 179.754 351.572 179.822 351.667 179.956C351.764 180.089 351.8 180.276 351.775 180.517L351.544 181.902H351.191L351.423 180.511C351.431 180.447 351.432 180.388 351.425 180.333C351.403 180.151 351.296 180.058 351.103 180.054C350.887 180.049 350.701 180.162 350.544 180.394L350.283 181.902H349.929L350.451 178.902H350.804L350.589 180.046ZM353.169 180.841C353.201 180.611 353.262 180.411 353.355 180.242C353.449 180.071 353.562 179.945 353.695 179.865C353.829 179.783 353.975 179.744 354.134 179.747C354.379 179.753 354.564 179.845 354.689 180.025L354.759 179.788H355.083L354.732 181.857C354.694 182.126 354.585 182.342 354.404 182.503C354.223 182.666 353.999 182.744 353.734 182.736C353.591 182.733 353.453 182.699 353.322 182.634C353.192 182.569 353.089 182.48 353.013 182.367L353.214 182.15C353.342 182.339 353.511 182.436 353.72 182.441C353.888 182.446 354.03 182.399 354.146 182.3C354.263 182.201 354.341 182.061 354.378 181.878L354.417 181.691C354.246 181.863 354.044 181.946 353.814 181.941C353.682 181.937 353.568 181.902 353.47 181.835C353.374 181.768 353.299 181.671 353.246 181.544C353.192 181.417 353.163 181.275 353.158 181.119C353.155 181.042 353.159 180.949 353.169 180.841ZM353.511 181.042C353.507 181.229 353.539 181.373 353.607 181.476C353.676 181.578 353.779 181.631 353.917 181.636C354.128 181.641 354.31 181.538 354.462 181.326L354.628 180.355C354.55 180.162 354.409 180.062 354.205 180.054C354.013 180.049 353.856 180.127 353.732 180.288C353.609 180.45 353.537 180.668 353.515 180.943L353.511 181.042ZM356.58 180.111L356.414 180.093C356.187 180.093 356.009 180.195 355.878 180.4L355.619 181.902H355.265L355.632 179.788L355.974 179.786L355.921 180.033C356.071 179.836 356.247 179.74 356.451 179.745C356.494 179.745 356.55 179.755 356.619 179.775L356.58 180.111ZM357.812 181.902C357.803 181.864 357.798 181.827 357.798 181.79L357.804 181.679C357.61 181.859 357.404 181.946 357.187 181.941C357.001 181.938 356.849 181.88 356.732 181.765C356.616 181.649 356.563 181.505 356.574 181.331C356.587 181.107 356.684 180.933 356.867 180.808C357.05 180.682 357.291 180.619 357.589 180.619L357.958 180.62L357.982 180.453C357.995 180.326 357.97 180.227 357.908 180.154C357.846 180.079 357.754 180.041 357.63 180.038C357.509 180.036 357.402 180.066 357.308 180.128C357.216 180.189 357.159 180.271 357.138 180.372L356.783 180.374C356.794 180.251 356.843 180.141 356.927 180.046C357.012 179.95 357.121 179.876 357.253 179.824C357.386 179.77 357.524 179.745 357.665 179.747C357.886 179.753 358.057 179.82 358.179 179.949C358.302 180.076 358.353 180.246 358.333 180.458L358.162 181.505L358.152 181.656C358.149 181.727 358.157 181.798 358.175 181.869L358.171 181.902H357.812ZM357.257 181.628C357.371 181.631 357.477 181.604 357.578 181.548C357.679 181.491 357.766 181.412 357.839 181.312L357.915 180.876L357.648 180.874C357.425 180.874 357.255 180.91 357.136 180.98C357.018 181.05 356.951 181.15 356.935 181.279C356.923 181.378 356.946 181.46 357.003 181.527C357.062 181.592 357.147 181.626 357.257 181.628ZM358.753 180.841C358.779 180.626 358.839 180.432 358.931 180.259C359.024 180.086 359.137 179.956 359.273 179.87C359.408 179.785 359.557 179.744 359.72 179.747C359.956 179.753 360.137 179.839 360.263 180.005L360.466 178.902H360.82L360.3 181.902H359.978L360.015 181.675C359.848 181.857 359.643 181.946 359.398 181.941C359.203 181.936 359.047 181.859 358.931 181.712C358.815 181.564 358.753 181.365 358.744 181.117C358.74 181.04 358.743 180.948 358.753 180.841ZM359.093 181.044C359.089 181.231 359.122 181.375 359.193 181.478C359.263 181.581 359.366 181.634 359.501 181.636C359.706 181.645 359.887 181.542 360.046 181.328L360.214 180.351C360.136 180.158 359.994 180.059 359.789 180.054C359.649 180.05 359.526 180.092 359.419 180.181C359.314 180.268 359.233 180.391 359.177 180.55C359.122 180.708 359.095 180.872 359.093 181.044ZM361.773 181.941C361.51 181.936 361.304 181.839 361.156 181.65C361.007 181.461 360.945 181.219 360.968 180.925L360.978 180.841C361 180.632 361.062 180.44 361.164 180.267C361.266 180.094 361.391 179.964 361.539 179.876C361.686 179.788 361.845 179.745 362.015 179.749C362.233 179.755 362.403 179.827 362.527 179.966C362.65 180.106 362.718 180.294 362.73 180.533C362.734 180.617 362.731 180.702 362.722 180.786L362.701 180.949H361.32C361.296 181.14 361.328 181.303 361.414 181.437C361.501 181.571 361.63 181.641 361.802 181.646C362.011 181.651 362.203 181.557 362.38 181.365L362.583 181.536C362.495 181.664 362.38 181.764 362.24 181.837C362.1 181.909 361.945 181.943 361.773 181.941ZM361.997 180.044C361.852 180.04 361.724 180.09 361.615 180.193C361.507 180.296 361.421 180.449 361.357 180.652L362.384 180.654L362.392 180.622C362.413 180.458 362.386 180.322 362.312 180.214C362.239 180.105 362.134 180.048 361.997 180.044Z" fill="black"/>
<path d="M765.455 136.639H609.928C604.669 136.639 600.406 140.903 600.406 146.161C600.406 151.42 604.669 155.684 609.928 155.684H765.455C770.714 155.684 774.977 151.42 774.977 146.161C774.977 140.903 770.714 136.639 765.455 136.639Z" fill="#F2F2F2"/>
<path d="M327.369 143.813H327.013L327.431 141.415L326.675 141.681L326.736 141.337L327.79 140.956H327.853L327.369 143.813ZM329.31 143.853C329.07 143.847 328.891 143.763 328.771 143.599C328.651 143.433 328.596 143.196 328.607 142.886C328.609 142.789 328.617 142.694 328.628 142.601L328.699 142.126C328.761 141.721 328.88 141.419 329.056 141.22C329.232 141.021 329.464 140.924 329.751 140.931C329.994 140.936 330.174 141.019 330.292 141.181C330.412 141.341 330.468 141.574 330.458 141.88C330.455 141.978 330.447 142.073 330.435 142.167L330.367 142.626C330.298 143.054 330.176 143.368 330.001 143.565C329.827 143.763 329.596 143.859 329.31 143.853ZM330.093 142.103C330.111 141.945 330.12 141.823 330.119 141.735C330.112 141.405 329.984 141.235 329.734 141.226C329.552 141.219 329.404 141.287 329.29 141.429C329.178 141.569 329.1 141.791 329.056 142.093L328.972 142.659C328.954 142.81 328.945 142.933 328.947 143.028C328.953 143.373 329.081 143.55 329.33 143.56C329.503 143.567 329.645 143.504 329.757 143.368C329.871 143.233 329.951 143.018 329.999 142.724L330.093 142.103ZM331.509 143.853C331.27 143.847 331.09 143.763 330.97 143.599C330.85 143.433 330.796 143.196 330.806 142.886C330.809 142.789 330.816 142.694 330.828 142.601L330.898 142.126C330.96 141.721 331.08 141.419 331.255 141.22C331.431 141.021 331.663 140.924 331.951 140.931C332.193 140.936 332.373 141.019 332.492 141.181C332.611 141.341 332.667 141.574 332.658 141.88C332.654 141.978 332.646 142.073 332.634 142.167L332.566 142.626C332.497 143.054 332.375 143.368 332.201 143.565C332.026 143.763 331.796 143.859 331.509 143.853ZM332.292 142.103C332.311 141.945 332.319 141.823 332.318 141.735C332.311 141.405 332.183 141.235 331.933 141.226C331.751 141.219 331.603 141.287 331.49 141.429C331.378 141.569 331.3 141.791 331.255 142.093L331.171 142.659C331.153 142.81 331.145 142.933 331.146 143.028C331.152 143.373 331.28 143.55 331.529 143.56C331.702 143.567 331.845 143.504 331.956 143.368C332.07 143.233 332.15 143.018 332.199 142.724L332.292 142.103ZM333.812 140.927C333.97 140.932 334.095 140.99 334.187 141.101C334.281 141.21 334.322 141.349 334.312 141.517L334.3 141.667C334.281 141.841 334.212 141.984 334.093 142.095C333.976 142.205 333.836 142.258 333.673 142.253C333.516 142.25 333.389 142.193 333.294 142.081C333.199 141.969 333.157 141.831 333.167 141.667L333.179 141.542C333.196 141.354 333.264 141.205 333.382 141.093C333.502 140.979 333.645 140.924 333.812 140.927ZM333.431 141.671C333.425 141.776 333.443 141.86 333.488 141.923C333.533 141.984 333.598 142.016 333.681 142.019C333.77 142.021 333.846 141.99 333.912 141.925C333.978 141.858 334.018 141.772 334.033 141.667L334.05 141.515C334.059 141.416 334.042 141.333 333.999 141.267C333.956 141.2 333.891 141.166 333.804 141.163C333.714 141.16 333.636 141.192 333.57 141.259C333.503 141.325 333.463 141.411 333.449 141.517L333.431 141.671ZM334.876 142.528C335.038 142.534 335.165 142.592 335.257 142.704C335.35 142.815 335.391 142.952 335.38 143.116L335.369 143.247C335.352 143.431 335.284 143.58 335.165 143.694C335.048 143.808 334.906 143.862 334.74 143.856C334.583 143.854 334.457 143.797 334.361 143.687C334.266 143.576 334.223 143.437 334.234 143.269L334.246 143.136C334.262 142.955 334.329 142.808 334.445 142.694C334.561 142.581 334.705 142.526 334.876 142.528ZM334.497 143.272C334.491 143.377 334.509 143.461 334.552 143.524C334.596 143.587 334.662 143.619 334.747 143.622C334.839 143.625 334.916 143.593 334.98 143.526C335.045 143.46 335.085 143.374 335.099 143.269L335.117 143.114C335.126 143.017 335.109 142.935 335.066 142.868C335.023 142.802 334.958 142.767 334.871 142.765C334.778 142.762 334.699 142.794 334.634 142.86C334.569 142.927 334.529 143.012 334.515 143.116L334.497 143.272ZM333.49 143.595L333.296 143.454L335.017 141.251L335.21 141.39L333.49 143.595ZM336.863 143.813L337.183 141.979H336.857L336.906 141.7H337.23L337.265 141.45C337.299 141.238 337.381 141.072 337.511 140.952C337.648 140.827 337.822 140.766 338.035 140.769C338.101 140.769 338.185 140.78 338.287 140.802L338.244 141.097C338.181 141.084 338.118 141.076 338.054 141.073C337.932 141.073 337.832 141.112 337.755 141.188C337.68 141.264 337.633 141.365 337.615 141.491L337.583 141.7H338.021L337.972 141.979H337.535L337.216 143.813H336.863ZM339.372 142.022L339.206 142.005C338.98 142.005 338.802 142.107 338.671 142.312L338.412 143.813H338.058L338.425 141.7L338.767 141.698L338.714 141.944C338.864 141.748 339.04 141.652 339.244 141.657C339.287 141.657 339.343 141.667 339.412 141.687L339.372 142.022ZM340.265 143.853C340.002 143.847 339.796 143.75 339.648 143.562C339.499 143.373 339.437 143.131 339.46 142.837L339.47 142.753C339.492 142.543 339.554 142.352 339.656 142.179C339.759 142.006 339.884 141.875 340.031 141.788C340.178 141.7 340.337 141.657 340.507 141.661C340.725 141.666 340.895 141.739 341.019 141.878C341.143 142.017 341.21 142.206 341.222 142.444C341.226 142.529 341.223 142.614 341.214 142.698L341.193 142.86H339.812C339.789 143.052 339.82 143.215 339.906 143.349C339.993 143.483 340.122 143.552 340.294 143.558C340.503 143.563 340.695 143.469 340.872 143.276L341.076 143.448C340.987 143.576 340.872 143.676 340.732 143.749C340.593 143.821 340.437 143.855 340.265 143.853ZM340.49 141.956C340.344 141.952 340.216 142.002 340.107 142.104C339.999 142.207 339.913 142.36 339.849 142.563L340.876 142.565L340.884 142.534C340.905 142.37 340.878 142.234 340.804 142.126C340.731 142.017 340.626 141.96 340.49 141.956ZM342.339 143.853C342.076 143.847 341.871 143.75 341.722 143.562C341.574 143.373 341.511 143.131 341.535 142.837L341.544 142.753C341.567 142.543 341.628 142.352 341.73 142.179C341.833 142.006 341.958 141.875 342.105 141.788C342.252 141.7 342.411 141.657 342.581 141.661C342.799 141.666 342.97 141.739 343.093 141.878C343.217 142.017 343.285 142.206 343.296 142.444C343.3 142.529 343.298 142.614 343.289 142.698L343.267 142.86H341.886C341.863 143.052 341.894 143.215 341.98 143.349C342.067 143.483 342.197 143.552 342.369 143.558C342.577 143.563 342.77 143.469 342.947 143.276L343.15 143.448C343.061 143.576 342.947 143.676 342.806 143.749C342.667 143.821 342.511 143.855 342.339 143.853ZM342.564 141.956C342.418 141.952 342.29 142.002 342.181 142.104C342.073 142.207 341.987 142.36 341.923 142.563L342.951 142.565L342.958 142.534C342.979 142.37 342.953 142.234 342.878 142.126C342.805 142.017 342.701 141.96 342.564 141.956ZM344.863 143.813H344.511L345.031 140.813H345.384L344.863 143.813ZM346.355 143.853C346.092 143.847 345.886 143.75 345.738 143.562C345.589 143.373 345.527 143.131 345.55 142.837L345.56 142.753C345.582 142.543 345.644 142.352 345.746 142.179C345.848 142.006 345.973 141.875 346.121 141.788C346.268 141.7 346.427 141.657 346.597 141.661C346.815 141.666 346.985 141.739 347.109 141.878C347.233 142.017 347.3 142.206 347.312 142.444C347.316 142.529 347.313 142.614 347.304 142.698L347.283 142.86H345.902C345.878 143.052 345.91 143.215 345.996 143.349C346.083 143.483 346.212 143.552 346.384 143.558C346.593 143.563 346.785 143.469 346.962 143.276L347.165 143.448C347.077 143.576 346.962 143.676 346.822 143.749C346.682 143.821 346.527 143.855 346.355 143.853ZM346.58 141.956C346.434 141.952 346.306 142.002 346.197 142.104C346.089 142.207 346.003 142.36 345.939 142.563L346.966 142.565L346.974 142.534C346.995 142.37 346.968 142.234 346.894 142.126C346.821 142.017 346.716 141.96 346.58 141.956ZM348.824 143.241C348.843 143.095 348.763 142.993 348.583 142.933L348.216 142.825C347.906 142.718 347.757 142.541 347.767 142.294C347.776 142.108 347.861 141.955 348.021 141.837C348.182 141.717 348.372 141.659 348.589 141.661C348.803 141.664 348.976 141.726 349.109 141.849C349.243 141.97 349.307 142.128 349.302 142.323L348.951 142.321C348.953 142.216 348.92 142.13 348.851 142.063C348.782 141.997 348.69 141.963 348.576 141.96C348.453 141.957 348.348 141.987 348.259 142.05C348.177 142.108 348.13 142.185 348.117 142.28C348.1 142.403 348.175 142.492 348.341 142.548L348.519 142.597C348.761 142.659 348.933 142.741 349.035 142.841C349.136 142.941 349.183 143.065 349.175 143.214C349.167 143.345 349.124 143.46 349.046 143.558C348.968 143.655 348.864 143.73 348.734 143.782C348.604 143.833 348.465 143.856 348.318 143.853C348.094 143.85 347.909 143.785 347.763 143.657C347.617 143.528 347.547 143.363 347.552 143.161L347.906 143.163C347.906 143.282 347.943 143.377 348.019 143.448C348.095 143.52 348.198 143.556 348.33 143.556C348.458 143.558 348.57 143.532 348.664 143.476C348.757 143.418 348.811 143.34 348.824 143.241ZM350.843 143.241C350.863 143.095 350.783 142.993 350.603 142.933L350.236 142.825C349.926 142.718 349.776 142.541 349.787 142.294C349.796 142.108 349.88 141.955 350.04 141.837C350.202 141.717 350.391 141.659 350.609 141.661C350.822 141.664 350.996 141.726 351.128 141.849C351.262 141.97 351.327 142.128 351.322 142.323L350.97 142.321C350.973 142.216 350.94 142.13 350.871 142.063C350.802 141.997 350.71 141.963 350.595 141.96C350.473 141.957 350.367 141.987 350.279 142.05C350.197 142.108 350.149 142.185 350.136 142.28C350.119 142.403 350.194 142.492 350.361 142.548L350.539 142.597C350.781 142.659 350.953 142.741 351.054 142.841C351.156 142.941 351.203 143.065 351.195 143.214C351.187 143.345 351.144 143.46 351.066 143.558C350.988 143.655 350.884 143.73 350.753 143.782C350.623 143.833 350.484 143.856 350.337 143.853C350.113 143.85 349.928 143.785 349.783 143.657C349.637 143.528 349.567 143.363 349.572 143.161L349.925 143.163C349.925 143.282 349.963 143.377 350.039 143.448C350.114 143.52 350.218 143.556 350.349 143.556C350.478 143.558 350.589 143.532 350.683 143.476C350.777 143.418 350.83 143.34 350.843 143.241ZM352.728 141.661C352.905 141.664 353.057 141.712 353.183 141.806C353.309 141.899 353.402 142.029 353.462 142.194C353.524 142.358 353.544 142.538 353.525 142.733L353.521 142.776C353.496 142.982 353.435 143.168 353.337 143.335C353.24 143.5 353.113 143.629 352.958 143.722C352.803 143.814 352.634 143.858 352.449 143.853C352.273 143.85 352.121 143.802 351.994 143.708C351.867 143.614 351.775 143.487 351.716 143.325C351.658 143.164 351.637 142.986 351.654 142.792C351.673 142.573 351.733 142.377 351.831 142.202C351.93 142.028 352.057 141.893 352.212 141.798C352.369 141.701 352.54 141.656 352.728 141.661ZM352.009 142.794C352 142.876 352 142.961 352.009 143.05C352.022 143.203 352.068 143.326 352.146 143.417C352.225 143.508 352.331 143.556 352.462 143.56C352.58 143.563 352.688 143.535 352.787 143.474C352.886 143.411 352.969 143.317 353.037 143.192C353.104 143.067 353.148 142.929 353.167 142.776C353.178 142.657 353.18 142.556 353.173 142.474C353.158 142.316 353.11 142.192 353.031 142.101C352.951 142.009 352.846 141.961 352.714 141.956C352.532 141.952 352.377 142.024 352.249 142.171C352.122 142.318 352.043 142.511 352.013 142.749L352.009 142.794ZM354.49 141.698L354.439 141.966C354.629 141.757 354.845 141.656 355.087 141.661C355.287 141.666 355.434 141.735 355.529 141.868C355.624 142.001 355.659 142.188 355.634 142.429L355.404 143.813H355.05L355.283 142.423C355.29 142.359 355.291 142.3 355.285 142.245C355.262 142.063 355.155 141.97 354.962 141.966C354.75 141.962 354.564 142.075 354.404 142.306L354.142 143.813H353.789L354.156 141.7L354.49 141.698ZM357.257 143.241C357.277 143.095 357.197 142.993 357.017 142.933L356.65 142.825C356.34 142.718 356.19 142.541 356.201 142.294C356.21 142.108 356.294 141.955 356.455 141.837C356.616 141.717 356.805 141.659 357.023 141.661C357.236 141.664 357.41 141.726 357.542 141.849C357.677 141.97 357.741 142.128 357.736 142.323L357.384 142.321C357.387 142.216 357.354 142.13 357.285 142.063C357.216 141.997 357.124 141.963 357.009 141.96C356.887 141.957 356.781 141.987 356.693 142.05C356.611 142.108 356.563 142.185 356.55 142.28C356.533 142.403 356.608 142.492 356.775 142.548L356.953 142.597C357.195 142.659 357.367 142.741 357.468 142.841C357.57 142.941 357.617 143.065 357.609 143.214C357.601 143.345 357.558 143.46 357.48 143.558C357.402 143.655 357.298 143.73 357.167 143.782C357.037 143.833 356.899 143.856 356.751 143.853C356.527 143.85 356.343 143.785 356.197 143.657C356.051 143.528 355.981 143.363 355.986 143.161L356.339 143.163C356.339 143.282 356.377 143.377 356.453 143.448C356.528 143.52 356.632 143.556 356.763 143.556C356.892 143.558 357.003 143.532 357.097 143.476C357.191 143.418 357.244 143.34 357.257 143.241Z" fill="black"/>
<g clip-path="url(#clip1)">
<path d="M844.252 121.743V197.877L843.01 195.96L753.882 58.5758L753.043 57.2888H802.437L803.269 58.5758L843.01 119.825L844.252 121.743Z" fill="#38A169"/>
<path d="M492.444 366.731C500.821 392.851 497.879 417.376 497.879 417.376C497.879 417.376 481.354 399.552 472.977 373.432C464.6 347.312 467.542 322.787 467.542 322.787C467.542 322.787 484.066 340.611 492.444 366.731Z" fill="#38A169"/>
<path d="M503.314 366.731C494.937 392.851 497.879 417.376 497.879 417.376C497.879 417.376 514.403 399.552 522.781 373.432C531.158 347.312 528.216 322.787 528.216 322.787C528.216 322.787 511.692 340.611 503.314 366.731Z" fill="#38A169"/>
<path d="M506.688 367.013C507.25 394.531 497.451 417.064 497.451 417.064C497.451 417.064 486.741 394.98 486.18 367.462C485.618 339.944 495.417 317.412 495.417 317.412C495.417 317.412 506.127 339.495 506.688 367.013Z" fill="#3F3D56"/>
<path d="M497.445 418.722C510.529 418.722 521.136 418.119 521.136 417.375C521.136 416.631 510.529 416.028 497.445 416.028C484.361 416.028 473.754 416.631 473.754 417.375C473.754 418.119 484.361 418.722 497.445 418.722Z" fill="#3F3D56"/>
<path d="M271.576 417.793C278.999 417.793 285.018 411.558 285.018 403.867C285.018 396.175 278.999 389.94 271.576 389.94C264.152 389.94 258.133 396.175 258.133 403.867C258.133 411.558 264.152 417.793 271.576 417.793Z" fill="#F2F2F2"/>
<path d="M274.042 381.336C269.222 381.343 264.602 383.33 261.195 386.861C257.788 390.392 255.872 395.179 255.867 400.172C255.867 400.275 255.867 400.378 255.873 400.481C255.932 403.957 256.917 407.349 258.719 410.282C260.521 413.215 263.07 415.575 266.085 417.103C267.152 417.647 268.269 418.078 269.42 418.39C272.452 419.213 275.637 419.213 278.669 418.39C279.82 418.078 280.938 417.647 282.005 417.103C285.701 415.237 288.678 412.129 290.449 408.285C292.22 404.44 292.681 400.088 291.757 395.937C290.833 391.787 288.578 388.083 285.361 385.431C282.143 382.779 278.153 381.336 274.042 381.336ZM278.489 417.103C277.04 417.515 275.544 417.723 274.042 417.72C273.743 417.72 273.445 417.714 273.153 417.695H273.147C271.947 417.633 270.758 417.434 269.6 417.103C267.153 416.408 264.887 415.155 262.968 413.434C261.05 411.714 259.527 409.57 258.513 407.16V407.154C257.139 403.872 256.767 400.234 257.445 396.726C258.124 393.219 259.821 390.011 262.31 387.531C264.798 385.051 267.959 383.419 271.368 382.853C274.777 382.287 278.272 382.814 281.384 384.364C284.496 385.914 287.076 388.412 288.778 391.524C290.481 394.636 291.224 398.213 290.91 401.775C290.595 405.337 289.236 408.714 287.016 411.454C284.796 414.193 281.821 416.164 278.489 417.103V417.103Z" fill="#3F3D56"/>
<path d="M439.278 308.259H338.653V326.771H439.278V308.259Z" fill="#F2F2F2"/>
<path d="M325.603 302.654V328.395H459.77V302.654H325.603ZM458.528 327.108H326.845V303.941H458.528V327.108Z" fill="#3F3D56"/>
<path d="M549.215 164.299C552.645 164.299 555.426 161.418 555.426 157.864C555.426 154.31 552.645 151.428 549.215 151.428C545.784 151.428 543.003 154.31 543.003 157.864C543.003 161.418 545.784 164.299 549.215 164.299Z" fill="#3F3D56"/>
<path d="M549.215 204.197C552.645 204.197 555.426 201.315 555.426 197.761C555.426 194.207 552.645 191.326 549.215 191.326C545.784 191.326 543.003 194.207 543.003 197.761C543.003 201.315 545.784 204.197 549.215 204.197Z" fill="#3F3D56"/>
<path d="M549.215 244.094C552.645 244.094 555.426 241.213 555.426 237.659C555.426 234.105 552.645 231.224 549.215 231.224C545.784 231.224 543.003 234.105 543.003 237.659C543.003 241.213 545.784 244.094 549.215 244.094Z" fill="#3F3D56"/>
<path d="M549.215 283.992C552.645 283.992 555.426 281.111 555.426 277.557C555.426 274.003 552.645 271.122 549.215 271.122C545.784 271.122 543.003 274.003 543.003 277.557C543.003 281.111 545.784 283.992 549.215 283.992Z" fill="#3F3D56"/>
<path d="M549.215 323.89C552.645 323.89 555.426 321.009 555.426 317.455C555.426 313.901 552.645 311.02 549.215 311.02C545.784 311.02 543.003 313.901 543.003 317.455C543.003 321.009 545.784 323.89 549.215 323.89Z" fill="#3F3D56"/>
<path d="M549.215 363.788C552.645 363.788 555.426 360.907 555.426 357.353C555.426 353.799 552.645 350.918 549.215 350.918C545.784 350.918 543.003 353.799 543.003 357.353C543.003 360.907 545.784 363.788 549.215 363.788Z" fill="#3F3D56"/>
<path d="M774.443 161.283H604.25V162.57H774.443V161.283Z" fill="#3F3D56"/>
<path d="M770.807 201.223H600.613V202.51H770.807V201.223Z" fill="#3F3D56"/>
<path d="M771.534 241.162H601.341V242.449H771.534V241.162Z" fill="#3F3D56"/>
<path d="M772.262 281.103H602.068V282.39H772.262V281.103Z" fill="#3F3D56"/>
<path d="M772.262 281.102H602.068V282.389H772.262V281.102Z" fill="#3F3D56"/>
<path d="M773.716 362.489H603.522V363.776H773.716V362.489Z" fill="#3F3D56"/>
<path d="M805.971 393.985L789.644 380.108L803.039 363.192L819.366 377.07L805.971 393.985ZM791.392 379.929L805.799 392.174L817.618 377.248L803.211 365.003L791.392 379.929Z" fill="#3F3D56"/>
<path d="M569.413 91.4389L554.046 78.3779L541.439 94.2984L556.806 107.359L569.413 91.4389Z" fill="#38A169"/>
<path d="M475.298 197.761C475.326 215.913 469.755 233.599 459.397 248.239C458.217 249.912 456.981 251.546 455.683 253.123C452.016 257.6 447.916 261.675 443.446 265.285C442.999 265.646 442.546 266.006 442.086 266.36C440.409 267.66 438.684 268.893 436.912 270.06C436.371 270.414 435.831 270.762 435.284 271.096C434.048 271.875 432.789 272.617 431.508 273.323C430.88 273.67 430.247 274.011 429.613 274.34C416.594 281.069 402.091 284.12 387.569 283.183C373.047 282.247 359.021 277.356 346.908 269.005C346.262 268.567 345.628 268.117 345.001 267.653C343.821 266.791 342.659 265.89 341.529 264.964C340.485 264.114 339.467 263.232 338.467 262.332C333.202 257.588 328.537 252.174 324.584 246.218C323.814 245.053 323.069 243.869 322.348 242.666C315.648 231.401 311.56 218.68 310.405 205.502C309.251 192.324 311.061 179.049 315.694 166.718C320.327 154.387 327.656 143.337 337.106 134.436C346.556 125.535 357.87 119.024 370.158 115.417C382.446 111.809 395.374 111.202 407.927 113.644C420.48 116.085 432.315 121.509 442.503 129.488C452.692 137.468 460.956 147.786 466.646 159.632C472.336 171.478 475.298 184.529 475.298 197.761Z" fill="#F2F2F2"/>
<path d="M389.575 193.538C402.005 193.538 412.082 183.099 412.082 170.221C412.082 157.343 402.005 146.904 389.575 146.904C377.145 146.904 367.068 157.343 367.068 170.221C367.068 183.099 377.145 193.538 389.575 193.538Z" fill="#A0616A"/>
<path d="M374.102 181.394C374.102 181.394 381.604 198.882 371.288 205.683C360.973 212.484 388.168 240.658 388.168 240.658L418.177 207.626C418.177 207.626 402.235 196.939 405.048 179.451L374.102 181.394Z" fill="#A0616A"/>
<path d="M443.446 265.286C442.999 265.646 442.546 266.006 442.086 266.36C440.409 267.66 438.684 268.894 436.912 270.06C436.372 270.414 435.831 270.762 435.285 271.097L435.055 269.803L437.216 268.638L443.446 265.286Z" fill="#A0616A"/>
<path d="M435.284 271.096C435.831 270.761 436.371 270.414 436.912 270.06L436.93 269.802L437.216 268.638L449.124 220.258L413.029 203.051L391.922 216.371L373.015 204.293C373.015 204.293 361.909 204.711 359.095 207.626C356.89 209.911 346.076 215.168 341.479 217.343C340.2 217.948 339.405 218.315 339.405 218.315C339.405 218.315 340.113 240.362 341.529 264.963C342.659 265.89 343.821 266.791 345.001 267.653C345.628 268.116 346.262 268.567 346.908 269.004C359.021 277.355 373.047 282.246 387.569 283.183C402.091 284.119 416.594 281.069 429.613 274.339L435.284 271.096Z" fill="#38A169"/>
<path d="M346.908 217.343V269.004C346.262 268.567 345.628 268.116 345.001 267.653C343.821 266.791 342.659 265.89 341.529 264.963C340.485 264.114 339.467 263.232 338.467 262.331C333.202 257.588 328.537 252.174 324.584 246.218C323.814 245.053 323.068 243.869 322.348 242.665C322.957 240.593 323.64 238.305 324.398 235.799C329.087 220.258 339.405 217.343 339.405 217.343H346.908Z" fill="#38A169"/>
<path d="M435.284 271.096C435.831 270.762 436.371 270.414 436.912 270.06C438.682 268.896 440.407 267.662 442.086 266.36C442.546 266.006 442.999 265.646 443.446 265.285C447.916 261.675 452.016 257.6 455.683 253.123C456.981 251.546 458.217 249.912 459.397 248.239C455.577 235.87 449.123 220.259 449.123 220.259L435.993 219.287C435.993 219.287 430.663 263.484 429.613 274.34L435.284 271.096Z" fill="#38A169"/>
<path d="M375.776 143.233C374.65 144.225 373.475 145.157 372.255 146.023C370.718 147.345 369.297 148.807 368.011 150.391L366.56 152.074C365.325 153.507 364.015 155.142 364.067 157.061C364.086 157.774 364.297 158.465 364.38 159.173C364.708 161.979 363.053 165.064 364.416 167.513C364.81 168.221 365.419 168.775 365.854 169.457C366.406 170.331 366.651 171.377 366.547 172.416C368.012 172.478 369.213 171.119 369.672 169.676C370.132 168.234 370.07 166.676 370.293 165.175C370.517 163.674 371.146 162.085 372.462 161.417C375.271 159.991 378.496 163.698 381.494 162.774C383.587 162.129 384.691 159.441 386.831 158.99C388.363 158.667 389.838 159.61 391.261 160.279C392.685 160.947 394.604 161.256 395.611 160.017C396.278 159.197 396.349 157.883 397.233 157.326C398.293 156.658 399.619 157.588 400.422 158.568C401.224 159.548 402.11 160.746 403.35 160.71C404.994 160.663 406.254 158.394 407.815 158.932C409.577 159.54 408.767 162.461 409.836 164.034C410.74 165.364 412.633 165.286 414.189 165.066C414.451 165.094 414.716 165.052 414.958 164.944C415.201 164.837 415.413 164.668 415.575 164.452C415.737 164.237 415.844 163.982 415.885 163.713C415.927 163.443 415.901 163.167 415.811 162.91L415.162 153.983C415.159 153.367 415.029 152.76 414.78 152.201C414.328 151.352 413.391 150.922 412.754 150.211C411.415 148.717 411.479 146.098 409.814 145.011C408.949 144.447 407.817 144.464 406.959 143.89C405.857 143.154 405.503 141.679 404.731 140.581C403.628 139.012 401.7 138.284 399.836 138.085C397.973 137.885 396.091 138.126 394.218 138.062C390.411 137.934 386.603 136.824 382.777 137.473C379.439 138.041 378.037 140.975 375.776 143.233Z" fill="#2F2E41"/>
<path d="M819.429 138.819C820.865 138.819 822.029 137.613 822.029 136.125C822.029 134.637 820.865 133.431 819.429 133.431C817.993 133.431 816.829 134.637 816.829 136.125C816.829 137.613 817.993 138.819 819.429 138.819Z" fill="#3F3D56"/>
<path d="M801.416 106C802.852 106 804.016 104.794 804.016 103.306C804.016 101.819 802.852 100.612 801.416 100.612C799.98 100.612 798.815 101.819 798.815 103.306C798.815 104.794 799.98 106 801.416 106Z" fill="#3F3D56"/>
<path d="M793.962 70.6072C795.398 70.6072 796.563 69.4011 796.563 67.9133C796.563 66.4255 795.398 65.2194 793.962 65.2194C792.526 65.2194 791.362 66.4255 791.362 67.9133C791.362 69.4011 792.526 70.6072 793.962 70.6072Z" fill="#3F3D56"/>
<path d="M773.774 320.733H603.58V322.02H773.774V320.733Z" fill="#3F3D56"/>
</g>
<rect x="186.109" y="58.7888" width="656.643" height="358.719" rx="43.5" stroke="#3F3D56" stroke-width="3"/>
<path d="M765.876 257.252H609.507C604.481 257.252 600.406 261.327 600.406 266.353C600.406 271.38 604.481 275.454 609.507 275.454H765.876C770.903 275.454 774.977 271.38 774.977 266.353C774.977 261.327 770.903 257.252 765.876 257.252Z" fill="#F2F2F2"/>
<path d="M327.293 258.555C327.125 258.526 327.002 258.512 326.925 258.512C326.796 258.512 326.693 258.548 326.615 258.621C326.537 258.693 326.488 258.791 326.468 258.914L326.433 259.139H326.873L326.824 259.418H326.386L326.068 261.252H325.714L326.035 259.418H325.709L325.757 259.139H326.082L326.117 258.891C326.151 258.673 326.238 258.504 326.378 258.383C326.519 258.262 326.697 258.203 326.914 258.205C327.056 258.208 327.246 258.237 327.486 258.291L327.673 258.33L327.177 261.252H326.824L327.293 258.555ZM328.679 261.291C328.416 261.286 328.211 261.189 328.062 261C327.914 260.811 327.851 260.57 327.875 260.276L327.884 260.192C327.906 259.982 327.968 259.791 328.07 259.617C328.173 259.444 328.298 259.314 328.445 259.227C328.592 259.138 328.751 259.096 328.921 259.1C329.139 259.105 329.309 259.177 329.433 259.317C329.557 259.456 329.625 259.645 329.636 259.883C329.64 259.968 329.638 260.052 329.628 260.137L329.607 260.299H328.226C328.203 260.49 328.234 260.653 328.32 260.787C328.407 260.921 328.537 260.991 328.709 260.996C328.917 261.002 329.11 260.908 329.287 260.715L329.49 260.887C329.401 261.015 329.287 261.115 329.146 261.188C329.007 261.259 328.851 261.294 328.679 261.291ZM328.904 259.395C328.758 259.391 328.63 259.44 328.521 259.543C328.413 259.646 328.327 259.799 328.263 260.002L329.291 260.004L329.298 259.973C329.319 259.809 329.293 259.673 329.218 259.565C329.145 259.455 329.041 259.399 328.904 259.395ZM330.748 259.908L331.322 259.139H331.755L330.908 260.201L331.423 261.252H331.039L330.689 260.463L330.093 261.252H329.662L330.535 260.166L330.035 259.139H330.421L330.748 259.908ZM332.168 261.252H331.816L332.183 259.139H332.535L332.168 261.252ZM332.459 258.367C332.518 258.365 332.568 258.383 332.607 258.422C332.647 258.46 332.668 258.51 332.668 258.573C332.666 258.634 332.646 258.684 332.607 258.723C332.569 258.762 332.52 258.783 332.459 258.785C332.397 258.788 332.347 258.77 332.308 258.733C332.269 258.695 332.25 258.645 332.252 258.584C332.253 258.523 332.272 258.472 332.31 258.432C332.348 258.392 332.397 258.37 332.459 258.367ZM334.664 260.205C334.638 260.421 334.578 260.616 334.486 260.789C334.393 260.962 334.281 261.091 334.15 261.174C334.018 261.257 333.873 261.297 333.712 261.293C333.457 261.288 333.268 261.192 333.144 261.006L333.072 261.252H332.746L333.267 258.252H333.621L333.408 259.373C333.577 259.186 333.783 259.095 334.025 259.1C334.228 259.105 334.386 259.18 334.5 259.324C334.613 259.469 334.673 259.668 334.679 259.922C334.681 260.005 334.677 260.086 334.668 260.164L334.664 260.205ZM334.328 260C334.332 259.81 334.3 259.665 334.232 259.565C334.164 259.463 334.061 259.41 333.921 259.405C333.701 259.399 333.515 259.51 333.363 259.737L333.205 260.656C333.283 260.871 333.429 260.981 333.644 260.987C333.782 260.992 333.903 260.951 334.005 260.864C334.11 260.776 334.188 260.655 334.242 260.498C334.295 260.341 334.324 260.175 334.328 260ZM335.328 261.252H334.976L335.496 258.252H335.849L335.328 261.252ZM336.82 261.291C336.557 261.286 336.351 261.189 336.203 261C336.054 260.811 335.992 260.57 336.015 260.276L336.025 260.192C336.047 259.982 336.109 259.791 336.211 259.617C336.313 259.444 336.438 259.314 336.586 259.227C336.733 259.138 336.892 259.096 337.062 259.1C337.28 259.105 337.45 259.177 337.574 259.317C337.697 259.456 337.765 259.645 337.777 259.883C337.781 259.968 337.778 260.052 337.769 260.137L337.748 260.299H336.367C336.343 260.49 336.375 260.653 336.461 260.787C336.548 260.921 336.677 260.991 336.849 260.996C337.058 261.002 337.25 260.908 337.427 260.715L337.63 260.887C337.542 261.015 337.427 261.115 337.287 261.188C337.147 261.259 336.992 261.294 336.82 261.291ZM337.045 259.395C336.899 259.391 336.771 259.44 336.662 259.543C336.554 259.646 336.468 259.799 336.404 260.002L337.431 260.004L337.439 259.973C337.46 259.809 337.433 259.673 337.359 259.565C337.286 259.455 337.181 259.399 337.045 259.395ZM340.269 260.68C340.289 260.534 340.209 260.431 340.029 260.371L339.662 260.264C339.352 260.157 339.202 259.98 339.212 259.733C339.222 259.546 339.306 259.394 339.466 259.276C339.628 259.156 339.817 259.097 340.035 259.1C340.248 259.102 340.421 259.165 340.554 259.287C340.688 259.408 340.753 259.567 340.748 259.762L340.396 259.76C340.399 259.655 340.365 259.569 340.296 259.502C340.227 259.436 340.136 259.401 340.021 259.399C339.899 259.396 339.793 259.426 339.705 259.489C339.623 259.547 339.575 259.624 339.562 259.719C339.545 259.841 339.62 259.931 339.787 259.987L339.964 260.035C340.207 260.098 340.378 260.179 340.48 260.28C340.582 260.38 340.628 260.504 340.621 260.653C340.613 260.784 340.57 260.899 340.492 260.996C340.414 261.094 340.309 261.169 340.179 261.221C340.049 261.272 339.91 261.295 339.763 261.291C339.539 261.289 339.354 261.224 339.209 261.096C339.063 260.967 338.992 260.802 338.998 260.6L339.351 260.602C339.351 260.72 339.389 260.815 339.464 260.887C339.54 260.959 339.643 260.994 339.775 260.994C339.904 260.997 340.015 260.97 340.109 260.914C340.203 260.857 340.256 260.779 340.269 260.68ZM341.873 260.998C341.999 261.001 342.113 260.964 342.214 260.889C342.316 260.812 342.382 260.712 342.414 260.588L342.748 260.586C342.728 260.719 342.675 260.84 342.587 260.949C342.502 261.059 342.393 261.144 342.261 261.205C342.13 261.267 341.995 261.295 341.857 261.291C341.681 261.289 341.532 261.243 341.41 261.155C341.289 261.065 341.199 260.94 341.142 260.781C341.085 260.621 341.065 260.442 341.084 260.242L341.093 260.145C341.118 259.942 341.177 259.76 341.271 259.6C341.365 259.44 341.487 259.315 341.638 259.227C341.789 259.137 341.956 259.095 342.138 259.1C342.36 259.105 342.537 259.179 342.67 259.323C342.802 259.466 342.869 259.647 342.869 259.867L342.539 259.865C342.536 259.727 342.498 259.616 342.423 259.531C342.349 259.446 342.249 259.4 342.123 259.395C341.939 259.391 341.786 259.459 341.664 259.6C341.543 259.74 341.467 259.937 341.437 260.19L341.431 260.24C341.423 260.324 341.422 260.41 341.427 260.498C341.436 260.651 341.479 260.771 341.556 260.86C341.633 260.948 341.739 260.994 341.873 260.998ZM343.691 259.397C343.876 259.195 344.089 259.097 344.33 259.102C344.528 259.104 344.674 259.173 344.769 259.307C344.865 259.44 344.901 259.627 344.877 259.867L344.646 261.252H344.293L344.525 259.862C344.533 259.798 344.533 259.739 344.527 259.684C344.505 259.502 344.397 259.408 344.205 259.405C343.989 259.399 343.802 259.513 343.646 259.744L343.384 261.252H343.031L343.552 258.252H343.906L343.691 259.397ZM346.101 261.291C345.838 261.286 345.632 261.189 345.484 261C345.336 260.811 345.273 260.57 345.296 260.276L345.306 260.192C345.328 259.982 345.39 259.791 345.492 259.617C345.595 259.444 345.72 259.314 345.867 259.227C346.014 259.138 346.173 259.096 346.343 259.1C346.561 259.105 346.731 259.177 346.855 259.317C346.979 259.456 347.046 259.645 347.058 259.883C347.062 259.968 347.059 260.052 347.05 260.137L347.029 260.299H345.648C345.625 260.49 345.656 260.653 345.742 260.787C345.829 260.921 345.959 260.991 346.13 260.996C346.339 261.002 346.531 260.908 346.709 260.715L346.912 260.887C346.823 261.015 346.709 261.115 346.568 261.188C346.429 261.259 346.273 261.294 346.101 261.291ZM346.326 259.395C346.18 259.391 346.052 259.44 345.943 259.543C345.835 259.646 345.749 259.799 345.685 260.002L346.712 260.004L346.72 259.973C346.741 259.809 346.714 259.673 346.64 259.565C346.567 259.455 346.462 259.399 346.326 259.395ZM347.363 260.192C347.389 259.977 347.448 259.783 347.541 259.61C347.633 259.436 347.747 259.307 347.882 259.221C348.018 259.135 348.167 259.094 348.33 259.098C348.565 259.103 348.746 259.189 348.873 259.356L349.076 258.252H349.429L348.91 261.252H348.587L348.625 261.026C348.458 261.208 348.252 261.296 348.007 261.291C347.812 261.286 347.656 261.21 347.541 261.063C347.425 260.914 347.362 260.716 347.353 260.467C347.349 260.39 347.352 260.298 347.363 260.192ZM347.703 260.395C347.699 260.581 347.732 260.726 347.802 260.828C347.873 260.931 347.975 260.984 348.111 260.987C348.315 260.996 348.497 260.893 348.656 260.678L348.824 259.701C348.746 259.509 348.604 259.41 348.398 259.405C348.259 259.401 348.136 259.443 348.029 259.531C347.923 259.619 347.843 259.742 347.787 259.901C347.732 260.058 347.704 260.223 347.703 260.395ZM350.81 261.043C350.645 261.214 350.434 261.296 350.179 261.291C349.977 261.286 349.828 261.214 349.73 261.074C349.634 260.935 349.598 260.745 349.623 260.504L349.849 259.139H350.203L349.974 260.51C349.968 260.567 349.966 260.623 349.97 260.678C349.977 260.772 350.005 260.845 350.054 260.899C350.104 260.952 350.173 260.981 350.261 260.985C350.514 260.992 350.709 260.89 350.847 260.678L351.113 259.139H351.466L351.099 261.252H350.765L350.81 261.043ZM352.011 261.252H351.66L352.179 258.252H352.533L352.011 261.252ZM352.972 261.252H352.621L352.988 259.139H353.339L352.972 261.252ZM353.263 258.367C353.323 258.365 353.373 258.383 353.412 258.422C353.452 258.46 353.472 258.51 353.472 258.573C353.471 258.634 353.451 258.684 353.412 258.723C353.374 258.762 353.324 258.783 353.263 258.785C353.202 258.788 353.152 258.77 353.113 258.733C353.074 258.695 353.055 258.645 353.056 258.584C353.058 258.523 353.077 258.472 353.115 258.432C353.153 258.392 353.202 258.37 353.263 258.367ZM354.252 259.137L354.201 259.405C354.391 259.196 354.607 259.095 354.849 259.1C355.048 259.105 355.196 259.174 355.291 259.307C355.386 259.44 355.421 259.627 355.396 259.867L355.166 261.252H354.812L355.045 259.862C355.052 259.798 355.053 259.739 355.046 259.684C355.024 259.502 354.917 259.408 354.724 259.405C354.512 259.401 354.326 259.514 354.166 259.744L353.904 261.252H353.55L353.918 259.139L354.252 259.137ZM355.814 260.192C355.845 259.961 355.907 259.761 356 259.592C356.093 259.421 356.207 259.296 356.339 259.215C356.474 259.133 356.62 259.094 356.779 259.098C357.024 259.103 357.209 259.196 357.334 259.375L357.404 259.139H357.728L357.377 261.207C357.339 261.477 357.229 261.692 357.048 261.854C356.867 262.017 356.644 262.094 356.378 262.086C356.235 262.084 356.098 262.05 355.966 261.985C355.836 261.92 355.733 261.83 355.658 261.717L355.859 261.5C355.987 261.689 356.155 261.786 356.365 261.791C356.533 261.796 356.675 261.75 356.791 261.651C356.908 261.552 356.985 261.411 357.023 261.229L357.062 261.041C356.89 261.213 356.689 261.296 356.459 261.291C356.327 261.287 356.212 261.252 356.115 261.186C356.018 261.118 355.944 261.021 355.89 260.895C355.837 260.767 355.808 260.625 355.802 260.469C355.8 260.392 355.804 260.3 355.814 260.192ZM356.156 260.393C356.152 260.579 356.184 260.724 356.252 260.826C356.321 260.928 356.424 260.981 356.562 260.987C356.773 260.992 356.955 260.888 357.107 260.676L357.273 259.705C357.195 259.513 357.054 259.412 356.849 259.405C356.658 259.399 356.5 259.477 356.377 259.639C356.254 259.8 356.182 260.018 356.16 260.293L356.156 260.393Z" fill="black"/>
<path d="M765.455 215.99H609.928C604.669 215.99 600.406 220.253 600.406 225.512C600.406 230.771 604.669 235.034 609.928 235.034H765.455C770.714 235.034 774.977 230.771 774.977 225.512C774.977 220.253 770.714 215.99 765.455 215.99Z" fill="#F2F2F2"/>
<path d="M328.431 218.199L328.265 218.181C328.039 218.181 327.86 218.284 327.73 218.488L327.47 219.99H327.117L327.484 217.877L327.826 217.875L327.773 218.121C327.923 217.924 328.099 217.829 328.302 217.834C328.345 217.834 328.401 217.844 328.47 217.863L328.431 218.199ZM329.324 220.029C329.061 220.024 328.855 219.927 328.706 219.738C328.558 219.549 328.496 219.308 328.519 219.013L328.529 218.929C328.551 218.72 328.613 218.528 328.714 218.355C328.817 218.182 328.942 218.052 329.089 217.965C329.236 217.876 329.395 217.834 329.566 217.838C329.783 217.843 329.954 217.915 330.078 218.054C330.201 218.194 330.269 218.383 330.281 218.621C330.285 218.705 330.282 218.79 330.273 218.875L330.251 219.037H328.871C328.847 219.228 328.878 219.391 328.964 219.525C329.052 219.659 329.181 219.729 329.353 219.734C329.561 219.739 329.754 219.646 329.931 219.453L330.134 219.625C330.046 219.752 329.931 219.853 329.79 219.926C329.651 219.997 329.496 220.032 329.324 220.029ZM329.548 218.133C329.402 218.129 329.275 218.178 329.165 218.281C329.057 218.384 328.971 218.537 328.908 218.74L329.935 218.742L329.943 218.711C329.964 218.547 329.937 218.411 329.863 218.302C329.79 218.193 329.685 218.136 329.548 218.133ZM331.181 217.875L331.136 218.111C331.313 217.924 331.527 217.832 331.779 217.838C331.913 217.84 332.026 217.871 332.119 217.929C332.212 217.988 332.277 218.071 332.312 218.177C332.51 217.946 332.744 217.832 333.013 217.838C333.224 217.843 333.38 217.914 333.48 218.051C333.58 218.187 333.617 218.371 333.591 218.601L333.359 219.99H333.007L333.238 218.597C333.246 218.53 333.246 218.468 333.238 218.412C333.213 218.235 333.097 218.144 332.89 218.14C332.761 218.138 332.644 218.178 332.539 218.261C332.434 218.344 332.367 218.452 332.337 218.586L332.097 219.99H331.742L331.976 218.599C331.993 218.455 331.971 218.344 331.91 218.265C331.85 218.187 331.756 218.147 331.628 218.144C331.408 218.139 331.233 218.239 331.103 218.445L330.835 219.99H330.482L330.849 217.877L331.181 217.875ZM335.08 217.838C335.257 217.84 335.408 217.888 335.535 217.982C335.661 218.076 335.754 218.205 335.814 218.371C335.875 218.535 335.896 218.715 335.876 218.91L335.872 218.953C335.848 219.159 335.787 219.345 335.689 219.511C335.591 219.677 335.465 219.806 335.31 219.898C335.155 219.991 334.985 220.034 334.8 220.029C334.624 220.026 334.473 219.978 334.345 219.885C334.219 219.791 334.126 219.663 334.068 219.502C334.009 219.34 333.988 219.163 334.005 218.969C334.025 218.75 334.084 218.553 334.183 218.379C334.282 218.204 334.409 218.069 334.564 217.974C334.72 217.878 334.892 217.832 335.08 217.838ZM334.361 218.97C334.352 219.052 334.352 219.138 334.361 219.226C334.374 219.38 334.419 219.502 334.497 219.594C334.577 219.685 334.682 219.732 334.814 219.736C334.931 219.74 335.039 219.711 335.138 219.65C335.237 219.588 335.32 219.494 335.388 219.369C335.456 219.244 335.499 219.105 335.519 218.953C335.529 218.833 335.531 218.732 335.525 218.65C335.509 218.493 335.462 218.368 335.382 218.277C335.303 218.186 335.197 218.138 335.066 218.133C334.884 218.129 334.729 218.2 334.601 218.347C334.473 218.495 334.395 218.687 334.365 218.926L334.361 218.97ZM337.074 217.365L336.984 217.877H337.369L337.32 218.156H336.937L336.716 219.47C336.712 219.504 336.712 219.536 336.714 219.564C336.723 219.666 336.779 219.717 336.88 219.717C336.923 219.717 336.981 219.71 337.052 219.697L337.025 219.992C336.94 220.015 336.854 220.027 336.767 220.027C336.626 220.024 336.521 219.973 336.451 219.873C336.38 219.771 336.353 219.635 336.369 219.465L336.583 218.156H336.21L336.259 217.877H336.632L336.722 217.365H337.074ZM338.343 220.029C338.08 220.024 337.874 219.927 337.726 219.738C337.578 219.549 337.515 219.308 337.539 219.013L337.548 218.929C337.57 218.72 337.632 218.528 337.734 218.355C337.837 218.182 337.962 218.052 338.109 217.965C338.256 217.876 338.415 217.834 338.585 217.838C338.803 217.843 338.973 217.915 339.097 218.054C339.221 218.194 339.289 218.383 339.3 218.621C339.304 218.705 339.302 218.79 339.292 218.875L339.271 219.037H337.89C337.867 219.228 337.898 219.391 337.984 219.525C338.071 219.659 338.201 219.729 338.372 219.734C338.581 219.739 338.774 219.646 338.951 219.453L339.154 219.625C339.065 219.752 338.951 219.853 338.81 219.926C338.671 219.997 338.515 220.032 338.343 220.029ZM338.568 218.133C338.422 218.129 338.294 218.178 338.185 218.281C338.077 218.384 337.991 218.537 337.927 218.74L338.955 218.742L338.962 218.711C338.983 218.547 338.956 218.411 338.882 218.302C338.809 218.193 338.705 218.136 338.568 218.133ZM340.867 219.99H340.515L340.882 217.877H341.234L340.867 219.99ZM341.158 217.105C341.218 217.103 341.267 217.121 341.306 217.16C341.346 217.198 341.367 217.248 341.367 217.31C341.365 217.372 341.345 217.422 341.306 217.461C341.268 217.5 341.219 217.521 341.158 217.523C341.096 217.526 341.046 217.508 341.007 217.47C340.968 217.433 340.949 217.383 340.951 217.322C340.952 217.261 340.971 217.21 341.009 217.17C341.047 217.129 341.096 217.108 341.158 217.105ZM342.146 217.875L342.095 218.142C342.285 217.934 342.501 217.832 342.744 217.838C342.943 217.843 343.09 217.912 343.185 218.045C343.28 218.177 343.315 218.364 343.29 218.605L343.06 219.99H342.706L342.939 218.599C342.947 218.536 342.947 218.476 342.941 218.422C342.919 218.239 342.811 218.146 342.619 218.142C342.406 218.138 342.22 218.252 342.06 218.482L341.798 219.99H341.445L341.812 217.877L342.146 217.875ZM344.914 219.418C344.933 219.272 344.853 219.169 344.673 219.109L344.306 219.002C343.996 218.895 343.846 218.718 343.857 218.47C343.866 218.284 343.951 218.132 344.111 218.013C344.272 217.894 344.462 217.835 344.679 217.838C344.893 217.84 345.066 217.903 345.199 218.025C345.333 218.146 345.397 218.304 345.392 218.5L345.04 218.498C345.043 218.392 345.01 218.306 344.941 218.24C344.872 218.174 344.78 218.139 344.665 218.136C344.543 218.134 344.438 218.164 344.349 218.226C344.267 218.285 344.22 218.362 344.206 218.457C344.19 218.579 344.264 218.668 344.431 218.724L344.609 218.773C344.851 218.836 345.023 218.917 345.124 219.017C345.226 219.118 345.273 219.242 345.265 219.39C345.257 219.522 345.214 219.636 345.136 219.734C345.058 219.832 344.954 219.907 344.824 219.959C344.693 220.01 344.555 220.033 344.408 220.029C344.184 220.026 343.999 219.961 343.853 219.834C343.707 219.705 343.637 219.539 343.642 219.338L343.996 219.34C343.996 219.458 344.033 219.553 344.109 219.625C344.184 219.696 344.288 219.732 344.419 219.732C344.548 219.735 344.66 219.708 344.753 219.652C344.847 219.595 344.9 219.517 344.914 219.418ZM346.558 217.365L346.468 217.877H346.853L346.804 218.156H346.421L346.201 219.47C346.197 219.504 346.196 219.536 346.199 219.564C346.208 219.666 346.263 219.717 346.365 219.717C346.408 219.717 346.465 219.71 346.537 219.697L346.509 219.992C346.425 220.015 346.339 220.027 346.251 220.027C346.111 220.024 346.005 219.973 345.935 219.873C345.865 219.771 345.837 219.635 345.853 219.465L346.068 218.156H345.695L345.744 217.877H346.117L346.206 217.365H346.558ZM348.228 218.199L348.062 218.181C347.835 218.181 347.657 218.284 347.527 218.488L347.267 219.99H346.914L347.281 217.877L347.622 217.875L347.57 218.121C347.72 217.924 347.896 217.829 348.099 217.834C348.142 217.834 348.198 217.844 348.267 217.863L348.228 218.199ZM349.587 219.781C349.422 219.952 349.212 220.034 348.956 220.029C348.755 220.024 348.605 219.952 348.507 219.812C348.411 219.673 348.375 219.483 348.4 219.242L348.626 217.877H348.98L348.751 219.248C348.745 219.305 348.744 219.361 348.747 219.416C348.754 219.51 348.782 219.583 348.831 219.636C348.881 219.69 348.95 219.719 349.039 219.722C349.291 219.73 349.486 219.628 349.624 219.416L349.89 217.877H350.244L349.876 219.99H349.542L349.587 219.781ZM351.298 219.736C351.425 219.739 351.539 219.702 351.64 219.627C351.742 219.55 351.808 219.45 351.839 219.326L352.173 219.324C352.154 219.457 352.1 219.578 352.013 219.687C351.927 219.797 351.818 219.882 351.687 219.943C351.555 220.004 351.421 220.033 351.283 220.029C351.107 220.026 350.958 219.981 350.835 219.892C350.714 219.802 350.625 219.678 350.568 219.519C350.511 219.359 350.491 219.179 350.509 218.98L350.519 218.883C350.544 218.679 350.603 218.498 350.697 218.338C350.79 218.177 350.913 218.053 351.064 217.965C351.215 217.875 351.382 217.832 351.564 217.838C351.785 217.843 351.962 217.917 352.095 218.06C352.228 218.204 352.294 218.385 352.294 218.605L351.964 218.603C351.962 218.465 351.923 218.354 351.849 218.269C351.775 218.183 351.675 218.138 351.548 218.133C351.365 218.129 351.212 218.197 351.089 218.338C350.968 218.478 350.893 218.675 350.863 218.927L350.857 218.978C350.849 219.062 350.848 219.148 350.853 219.236C350.862 219.388 350.905 219.509 350.982 219.597C351.059 219.686 351.164 219.732 351.298 219.736ZM353.39 217.365L353.3 217.877H353.685L353.636 218.156H353.253L353.033 219.47C353.029 219.504 353.028 219.536 353.031 219.564C353.04 219.666 353.095 219.717 353.197 219.717C353.24 219.717 353.297 219.71 353.369 219.697L353.341 219.992C353.257 220.015 353.171 220.027 353.083 220.027C352.943 220.024 352.837 219.973 352.767 219.873C352.697 219.771 352.669 219.635 352.685 219.465L352.9 218.156H352.527L352.576 217.877H352.949L353.039 217.365H353.39ZM354.128 219.99H353.777L354.144 217.877H354.496L354.128 219.99ZM354.419 217.105C354.479 217.103 354.529 217.121 354.568 217.16C354.608 217.198 354.628 217.248 354.628 217.31C354.627 217.372 354.607 217.422 354.568 217.461C354.53 217.5 354.481 217.521 354.419 217.523C354.358 217.526 354.308 217.508 354.269 217.47C354.23 217.433 354.211 217.383 354.212 217.322C354.214 217.261 354.233 217.21 354.271 217.17C354.309 217.129 354.358 217.108 354.419 217.105ZM355.88 217.838C356.057 217.84 356.209 217.888 356.335 217.982C356.462 218.076 356.555 218.205 356.615 218.371C356.676 218.535 356.697 218.715 356.677 218.91L356.673 218.953C356.649 219.159 356.587 219.345 356.49 219.511C356.392 219.677 356.266 219.806 356.111 219.898C355.956 219.991 355.786 220.034 355.601 220.029C355.425 220.026 355.274 219.978 355.146 219.885C355.02 219.791 354.927 219.663 354.869 219.502C354.81 219.34 354.789 219.163 354.806 218.969C354.826 218.75 354.885 218.553 354.984 218.379C355.083 218.204 355.21 218.069 355.365 217.974C355.521 217.878 355.693 217.832 355.88 217.838ZM355.162 218.97C355.152 219.052 355.152 219.138 355.162 219.226C355.175 219.38 355.22 219.502 355.298 219.594C355.378 219.685 355.483 219.732 355.615 219.736C355.732 219.74 355.84 219.711 355.939 219.65C356.038 219.588 356.121 219.494 356.189 219.369C356.257 219.244 356.3 219.105 356.32 218.953C356.33 218.833 356.332 218.732 356.326 218.65C356.31 218.493 356.262 218.368 356.183 218.277C356.104 218.186 355.998 218.138 355.867 218.133C355.684 218.129 355.529 218.2 355.402 218.347C355.274 218.495 355.195 218.687 355.165 218.926L355.162 218.97ZM357.642 217.875L357.591 218.142C357.781 217.934 357.997 217.832 358.24 217.838C358.439 217.843 358.586 217.912 358.681 218.045C358.776 218.177 358.811 218.364 358.787 218.605L358.556 219.99H358.203L358.435 218.599C358.443 218.536 358.443 218.476 358.437 218.422C358.415 218.239 358.307 218.146 358.115 218.142C357.902 218.138 357.716 218.252 357.556 218.482L357.294 219.99H356.941L357.308 217.877L357.642 217.875Z" fill="black"/>
<path d="M765.455 336.603H609.928C604.669 336.603 600.406 340.866 600.406 346.125C600.406 351.384 604.669 355.647 609.928 355.647H765.455C770.714 355.647 774.977 351.384 774.977 346.125C774.977 340.866 770.714 336.603 765.455 336.603Z" fill="#F2F2F2"/>
<path d="M328.003 338.449C328.242 338.454 328.423 338.539 328.548 338.704L328.613 338.49H328.939L328.431 341.415H328.08L328.271 340.408C328.102 340.569 327.905 340.647 327.681 340.642C327.483 340.639 327.325 340.564 327.206 340.417C327.088 340.27 327.024 340.072 327.015 339.822C327.007 339.66 327.026 339.49 327.072 339.312C327.117 339.132 327.185 338.976 327.275 338.843C327.366 338.709 327.473 338.609 327.597 338.542C327.721 338.476 327.856 338.445 328.003 338.449ZM327.378 339.583L327.369 339.747C327.365 339.936 327.399 340.083 327.47 340.189C327.543 340.293 327.647 340.346 327.783 340.349C327.982 340.354 328.158 340.259 328.312 340.064L328.496 339.025C328.41 338.844 328.269 338.751 328.074 338.745C327.895 338.742 327.745 338.81 327.622 338.951C327.5 339.091 327.419 339.302 327.378 339.583ZM330.49 340.394C330.324 340.564 330.114 340.647 329.859 340.642C329.657 340.637 329.507 340.564 329.41 340.425C329.313 340.286 329.277 340.096 329.302 339.855L329.529 338.49H329.882L329.654 339.861C329.647 339.918 329.646 339.974 329.65 340.029C329.656 340.122 329.684 340.196 329.734 340.249C329.783 340.303 329.852 340.331 329.941 340.335C330.193 340.343 330.389 340.241 330.527 340.029L330.792 338.49H331.146L330.779 340.603H330.445L330.49 340.394ZM332.601 340.603C332.592 340.565 332.587 340.528 332.587 340.492L332.593 340.38C332.399 340.56 332.193 340.647 331.976 340.642C331.79 340.639 331.638 340.581 331.521 340.466C331.405 340.35 331.352 340.206 331.363 340.033C331.376 339.809 331.473 339.634 331.656 339.509C331.839 339.383 332.08 339.32 332.378 339.32L332.747 339.322L332.771 339.154C332.784 339.027 332.759 338.928 332.697 338.855C332.636 338.781 332.543 338.742 332.419 338.74C332.298 338.737 332.191 338.767 332.097 338.829C332.005 338.891 331.948 338.972 331.927 339.074L331.572 339.076C331.583 338.952 331.632 338.842 331.716 338.747C331.801 338.651 331.91 338.577 332.042 338.525C332.175 338.471 332.313 338.446 332.455 338.449C332.675 338.454 332.846 338.521 332.968 338.65C333.091 338.777 333.142 338.947 333.122 339.16L332.951 340.206L332.941 340.357C332.938 340.428 332.946 340.499 332.964 340.57L332.96 340.603H332.601ZM332.046 340.329C332.16 340.332 332.266 340.305 332.367 340.249C332.468 340.192 332.555 340.113 332.628 340.013L332.705 339.578L332.437 339.576C332.214 339.576 332.044 339.611 331.925 339.681C331.807 339.751 331.74 339.851 331.724 339.98C331.712 340.079 331.735 340.161 331.792 340.228C331.851 340.293 331.936 340.327 332.046 340.329ZM333.824 340.603H333.472L333.992 337.603H334.345L333.824 340.603ZM334.785 340.603H334.433L334.8 338.49H335.152L334.785 340.603ZM335.076 337.718C335.136 337.716 335.185 337.734 335.224 337.773C335.264 337.811 335.285 337.861 335.285 337.923C335.283 337.984 335.263 338.035 335.224 338.074C335.186 338.113 335.137 338.134 335.076 338.136C335.014 338.139 334.964 338.121 334.925 338.083C334.886 338.046 334.867 337.996 334.869 337.935C334.87 337.874 334.889 337.823 334.927 337.783C334.965 337.742 335.014 337.721 335.076 337.718ZM336.296 337.978L336.206 338.49H336.591L336.542 338.769H336.16L335.939 340.083C335.935 340.117 335.934 340.148 335.937 340.177C335.946 340.279 336.001 340.329 336.103 340.329C336.146 340.329 336.203 340.323 336.275 340.31L336.247 340.605C336.163 340.628 336.077 340.64 335.99 340.64C335.849 340.637 335.744 340.586 335.673 340.486C335.603 340.384 335.576 340.248 335.591 340.078L335.806 338.769H335.433L335.482 338.49H335.855L335.945 337.978H336.296ZM337.41 340.07L338.162 338.49H338.552L337.298 340.954C337.124 341.297 336.9 341.466 336.626 341.462C336.578 341.461 336.507 341.449 336.414 341.427L336.445 341.134L336.537 341.144C336.649 341.149 336.745 341.124 336.826 341.068C336.908 341.013 336.98 340.924 337.042 340.8L337.169 340.558L336.804 338.49H337.173L337.41 340.07ZM340.185 338.488L340.14 338.724C340.317 338.536 340.531 338.445 340.783 338.451C340.917 338.453 341.03 338.484 341.122 338.542C341.216 338.601 341.281 338.684 341.316 338.79C341.514 338.559 341.747 338.445 342.017 338.451C342.228 338.456 342.384 338.527 342.484 338.663C342.584 338.8 342.621 338.984 342.595 339.214L342.363 340.603H342.011L342.242 339.21C342.249 339.143 342.249 339.081 342.242 339.025C342.217 338.848 342.101 338.757 341.894 338.753C341.765 338.751 341.648 338.791 341.542 338.874C341.438 338.956 341.371 339.064 341.341 339.199L341.101 340.603H340.746L340.98 339.212C340.997 339.068 340.975 338.956 340.914 338.878C340.854 338.8 340.76 338.76 340.632 338.757C340.412 338.752 340.237 338.852 340.107 339.058L339.839 340.603H339.486L339.853 338.49L340.185 338.488ZM343.824 340.642C343.561 340.637 343.355 340.54 343.206 340.351C343.058 340.162 342.996 339.921 343.019 339.626L343.029 339.542C343.051 339.333 343.113 339.141 343.214 338.968C343.317 338.795 343.442 338.665 343.589 338.578C343.736 338.489 343.895 338.447 344.066 338.451C344.283 338.456 344.454 338.528 344.578 338.667C344.701 338.807 344.769 338.995 344.781 339.234C344.785 339.318 344.782 339.403 344.773 339.488L344.751 339.65H343.371C343.347 339.841 343.378 340.004 343.464 340.138C343.552 340.272 343.681 340.342 343.853 340.347C344.061 340.352 344.254 340.259 344.431 340.066L344.634 340.238C344.546 340.365 344.431 340.466 344.29 340.538C344.151 340.61 343.996 340.645 343.824 340.642ZM344.048 338.745C343.902 338.742 343.775 338.791 343.665 338.894C343.557 338.997 343.471 339.15 343.408 339.353L344.435 339.355L344.443 339.324C344.464 339.16 344.437 339.023 344.363 338.915C344.29 338.806 344.185 338.749 344.048 338.745ZM345.685 338.488L345.634 338.755C345.824 338.547 346.04 338.445 346.283 338.451C346.482 338.456 346.629 338.525 346.724 338.658C346.819 338.79 346.854 338.977 346.83 339.218L346.599 340.603H346.246L346.478 339.212C346.486 339.148 346.486 339.089 346.48 339.035C346.458 338.852 346.35 338.759 346.158 338.755C345.945 338.751 345.759 338.865 345.599 339.095L345.337 340.603H344.984L345.351 338.49L345.685 338.488ZM348.078 337.978L347.988 338.49H348.372L348.324 338.769H347.941L347.72 340.083C347.716 340.117 347.716 340.148 347.718 340.177C347.727 340.279 347.783 340.329 347.884 340.329C347.927 340.329 347.984 340.323 348.056 340.31L348.029 340.605C347.944 340.628 347.858 340.64 347.771 340.64C347.63 340.637 347.525 340.586 347.455 340.486C347.384 340.384 347.357 340.248 347.372 340.078L347.587 338.769H347.214L347.263 338.49H347.636L347.726 337.978H348.078ZM349.568 338.451C349.745 338.453 349.897 338.501 350.023 338.595C350.149 338.689 350.242 338.818 350.302 338.984C350.363 339.148 350.384 339.328 350.365 339.523L350.361 339.566C350.336 339.772 350.275 339.958 350.177 340.124C350.08 340.29 349.953 340.419 349.798 340.511C349.643 340.604 349.473 340.647 349.289 340.642C349.113 340.639 348.961 340.591 348.833 340.497C348.707 340.404 348.615 340.276 348.556 340.115C348.497 339.953 348.477 339.775 348.494 339.581C348.513 339.363 348.572 339.166 348.671 338.992C348.77 338.817 348.897 338.682 349.052 338.587C349.208 338.491 349.38 338.445 349.568 338.451ZM348.849 339.583C348.84 339.665 348.84 339.751 348.849 339.839C348.862 339.993 348.908 340.115 348.986 340.206C349.065 340.298 349.171 340.345 349.302 340.349C349.419 340.353 349.527 340.324 349.626 340.263C349.725 340.201 349.809 340.107 349.876 339.982C349.944 339.857 349.988 339.718 350.007 339.566C350.018 339.446 350.02 339.345 350.013 339.263C349.997 339.106 349.95 338.981 349.871 338.89C349.791 338.799 349.686 338.751 349.554 338.745C349.372 338.742 349.217 338.813 349.089 338.96C348.962 339.107 348.883 339.3 348.853 339.538L348.849 339.583ZM351.943 338.812L351.777 338.794C351.55 338.794 351.372 338.897 351.242 339.101L350.982 340.603H350.628L350.996 338.49L351.337 338.488L351.285 338.734C351.434 338.537 351.611 338.441 351.814 338.447C351.857 338.447 351.913 338.456 351.982 338.476L351.943 338.812ZM353.269 340.031C353.289 339.885 353.208 339.782 353.029 339.722L352.662 339.615C352.352 339.508 352.202 339.331 352.212 339.083C352.221 338.897 352.306 338.745 352.466 338.626C352.628 338.507 352.817 338.448 353.035 338.451C353.248 338.453 353.421 338.516 353.554 338.638C353.688 338.759 353.753 338.917 353.747 339.113L353.396 339.111C353.399 339.005 353.365 338.919 353.296 338.853C353.227 338.786 353.136 338.752 353.021 338.749C352.899 338.747 352.793 338.777 352.705 338.839C352.622 338.898 352.575 338.975 352.562 339.07C352.545 339.192 352.62 339.281 352.787 339.337L352.964 339.386C353.206 339.449 353.378 339.53 353.48 339.63C353.581 339.731 353.628 339.855 353.621 340.003C353.613 340.135 353.57 340.249 353.492 340.347C353.414 340.445 353.309 340.52 353.179 340.572C353.049 340.622 352.91 340.646 352.763 340.642C352.539 340.639 352.354 340.574 352.208 340.447C352.063 340.318 351.992 340.152 351.997 339.951L352.351 339.953C352.351 340.071 352.389 340.166 352.464 340.238C352.54 340.309 352.643 340.345 352.775 340.345C352.904 340.348 353.015 340.321 353.109 340.265C353.203 340.208 353.256 340.13 353.269 340.031ZM354.64 338.747C354.825 338.546 355.038 338.447 355.279 338.453C355.477 338.455 355.623 338.523 355.718 338.658C355.815 338.79 355.85 338.977 355.826 339.218L355.595 340.603H355.242L355.474 339.212C355.482 339.148 355.483 339.089 355.476 339.035C355.454 338.852 355.346 338.759 355.154 338.755C354.938 338.75 354.751 338.863 354.595 339.095L354.333 340.603H353.98L354.501 337.603H354.855L354.64 338.747ZM356.519 340.603H356.167L356.535 338.49H356.886L356.519 340.603ZM356.81 337.718C356.87 337.716 356.919 337.734 356.958 337.773C356.999 337.811 357.019 337.861 357.019 337.923C357.018 337.984 356.997 338.035 356.958 338.074C356.921 338.113 356.871 338.134 356.81 338.136C356.749 338.139 356.699 338.121 356.66 338.083C356.621 338.046 356.602 337.996 356.603 337.935C356.604 337.874 356.624 337.823 356.662 337.783C356.699 337.742 356.749 337.721 356.81 337.718ZM359.011 339.556C358.985 339.771 358.927 339.964 358.837 340.136C358.747 340.308 358.636 340.437 358.503 340.523C358.371 340.607 358.223 340.648 358.062 340.644C357.817 340.639 357.63 340.556 357.499 340.396L357.31 341.415H356.956L357.464 338.49L357.785 338.488L357.746 338.724C357.92 338.536 358.129 338.445 358.372 338.451C358.576 338.456 358.734 338.531 358.847 338.675C358.96 338.82 359.02 339.019 359.027 339.273C359.028 339.356 359.025 339.437 359.017 339.515L359.011 339.556ZM358.664 339.515L358.673 339.351C358.673 339.161 358.637 339.016 358.564 338.915C358.492 338.814 358.388 338.76 358.251 338.755C358.047 338.75 357.871 338.847 357.722 339.046L357.544 340.06C357.624 340.247 357.766 340.344 357.972 340.349C358.148 340.353 358.297 340.285 358.419 340.144C358.543 340.002 358.624 339.792 358.664 339.515Z" fill="black"/>
<path d="M765.455 295.34H609.928C604.669 295.34 600.406 299.604 600.406 304.863C600.406 310.121 604.669 314.385 609.928 314.385H765.455C770.714 314.385 774.977 310.121 774.977 304.863C774.977 299.604 770.714 295.34 765.455 295.34Z" fill="#F2F2F2"/>
<path d="M326.212 297.225L326.162 297.493C326.352 297.284 326.568 297.183 326.81 297.188C327.009 297.193 327.156 297.262 327.251 297.395C327.346 297.528 327.382 297.715 327.357 297.956L327.126 299.34H326.773L327.005 297.95C327.013 297.886 327.014 297.827 327.007 297.772C326.985 297.59 326.878 297.497 326.685 297.493C326.473 297.489 326.287 297.602 326.126 297.833L325.865 299.34H325.511L325.878 297.227L326.212 297.225ZM329.013 299.131C328.848 299.302 328.637 299.385 328.382 299.38C328.18 299.374 328.031 299.302 327.933 299.163C327.837 299.023 327.801 298.833 327.826 298.592L328.052 297.227H328.406L328.177 298.598C328.171 298.656 328.169 298.712 328.173 298.766C328.18 298.86 328.208 298.934 328.257 298.987C328.307 299.04 328.376 299.069 328.464 299.073C328.717 299.081 328.912 298.978 329.05 298.766L329.316 297.227H329.669L329.302 299.34H328.968L329.013 299.131ZM330.529 297.225L330.484 297.462C330.661 297.274 330.875 297.183 331.126 297.188C331.261 297.191 331.374 297.221 331.466 297.28C331.56 297.339 331.624 297.421 331.66 297.528C331.858 297.296 332.091 297.183 332.361 297.188C332.572 297.193 332.727 297.264 332.828 297.401C332.928 297.538 332.965 297.721 332.939 297.952L332.706 299.34H332.355L332.585 297.948C332.593 297.88 332.593 297.818 332.585 297.762C332.561 297.585 332.445 297.495 332.238 297.491C332.109 297.488 331.992 297.529 331.886 297.612C331.782 297.694 331.715 297.802 331.685 297.936L331.445 299.34H331.089L331.324 297.95C331.341 297.805 331.318 297.694 331.257 297.616C331.197 297.538 331.104 297.497 330.976 297.495C330.756 297.49 330.581 297.59 330.451 297.796L330.183 299.34H329.83L330.197 297.227L330.529 297.225ZM334.167 299.38C333.904 299.374 333.699 299.277 333.55 299.089C333.402 298.9 333.339 298.658 333.363 298.364L333.372 298.28C333.395 298.07 333.456 297.879 333.558 297.706C333.661 297.533 333.786 297.402 333.933 297.315C334.08 297.227 334.239 297.184 334.41 297.188C334.627 297.193 334.798 297.266 334.921 297.405C335.045 297.544 335.113 297.733 335.124 297.971C335.128 298.056 335.126 298.141 335.117 298.225L335.095 298.387H333.714C333.691 298.579 333.722 298.741 333.808 298.876C333.895 299.01 334.025 299.079 334.197 299.085C334.405 299.09 334.598 298.996 334.775 298.803L334.978 298.975C334.889 299.103 334.775 299.203 334.634 299.276C334.495 299.348 334.339 299.382 334.167 299.38ZM334.392 297.483C334.246 297.479 334.119 297.529 334.009 297.631C333.901 297.734 333.815 297.887 333.751 298.09L334.779 298.092L334.787 298.061C334.807 297.897 334.781 297.761 334.706 297.653C334.634 297.544 334.529 297.487 334.392 297.483ZM336.642 297.549L336.476 297.532C336.249 297.532 336.071 297.634 335.941 297.839L335.681 299.34H335.328L335.695 297.227L336.037 297.225L335.984 297.471C336.134 297.275 336.31 297.179 336.513 297.184C336.556 297.184 336.612 297.194 336.681 297.214L336.642 297.549ZM337.794 297.188C337.971 297.191 338.123 297.239 338.249 297.333C338.376 297.426 338.469 297.556 338.529 297.721C338.59 297.885 338.611 298.065 338.591 298.26L338.587 298.303C338.563 298.509 338.501 298.695 338.404 298.862C338.306 299.027 338.18 299.156 338.025 299.249C337.87 299.341 337.7 299.385 337.515 299.38C337.339 299.377 337.188 299.329 337.06 299.235C336.934 299.141 336.841 299.014 336.783 298.852C336.724 298.691 336.703 298.513 336.72 298.319C336.74 298.1 336.799 297.904 336.898 297.729C336.997 297.555 337.124 297.42 337.279 297.325C337.435 297.228 337.607 297.183 337.794 297.188ZM337.076 298.321C337.067 298.403 337.067 298.488 337.076 298.577C337.089 298.73 337.134 298.853 337.212 298.944C337.292 299.035 337.397 299.083 337.529 299.087C337.646 299.09 337.754 299.062 337.853 299.001C337.952 298.938 338.035 298.844 338.103 298.719C338.171 298.594 338.214 298.456 338.234 298.303C338.244 298.184 338.246 298.083 338.24 298.001C338.224 297.843 338.177 297.719 338.097 297.628C338.018 297.536 337.912 297.488 337.781 297.483C337.598 297.479 337.443 297.551 337.316 297.698C337.188 297.845 337.109 298.038 337.08 298.276L337.076 298.321ZM340.197 299.131C340.031 299.302 339.821 299.385 339.566 299.38C339.364 299.374 339.214 299.302 339.117 299.163C339.02 299.023 338.984 298.833 339.009 298.592L339.236 297.227H339.589L339.361 298.598C339.354 298.656 339.353 298.712 339.357 298.766C339.363 298.86 339.391 298.934 339.441 298.987C339.49 299.04 339.559 299.069 339.648 299.073C339.9 299.081 340.096 298.978 340.234 298.766L340.499 297.227H340.853L340.486 299.34H340.152L340.197 299.131ZM342.324 298.768C342.343 298.622 342.263 298.519 342.083 298.46L341.716 298.352C341.406 298.245 341.257 298.068 341.267 297.821C341.276 297.635 341.361 297.482 341.521 297.364C341.682 297.244 341.872 297.186 342.089 297.188C342.303 297.191 342.476 297.253 342.609 297.376C342.743 297.497 342.807 297.655 342.802 297.85L342.451 297.848C342.453 297.743 342.42 297.657 342.351 297.59C342.282 297.524 342.19 297.49 342.076 297.487C341.953 297.484 341.848 297.514 341.759 297.577C341.677 297.635 341.63 297.712 341.617 297.807C341.6 297.93 341.675 298.019 341.841 298.075L342.019 298.124C342.261 298.186 342.433 298.268 342.535 298.368C342.636 298.468 342.683 298.592 342.675 298.741C342.667 298.872 342.624 298.987 342.546 299.085C342.468 299.182 342.364 299.257 342.234 299.309C342.104 299.36 341.965 299.383 341.818 299.38C341.594 299.377 341.409 299.312 341.263 299.184C341.117 299.055 341.047 298.89 341.052 298.688L341.406 298.69C341.406 298.809 341.443 298.904 341.519 298.975C341.595 299.047 341.698 299.083 341.83 299.083C341.958 299.085 342.07 299.059 342.164 299.003C342.257 298.945 342.311 298.867 342.324 298.768ZM345.929 298.294C345.903 298.508 345.845 298.702 345.755 298.874C345.665 299.046 345.554 299.174 345.421 299.26C345.289 299.345 345.141 299.385 344.98 299.381C344.735 299.376 344.548 299.294 344.417 299.133L344.228 300.153H343.874L344.382 297.227L344.703 297.225L344.664 297.462C344.838 297.274 345.047 297.183 345.29 297.188C345.494 297.193 345.652 297.268 345.765 297.413C345.878 297.557 345.938 297.756 345.945 298.01C345.946 298.094 345.943 298.174 345.935 298.253L345.929 298.294ZM345.581 298.253L345.591 298.089C345.591 297.898 345.555 297.753 345.482 297.653C345.41 297.551 345.306 297.498 345.169 297.493C344.965 297.488 344.789 297.585 344.64 297.784L344.462 298.797C344.542 298.985 344.684 299.081 344.89 299.087C345.066 299.09 345.215 299.022 345.337 298.881C345.461 298.74 345.542 298.53 345.581 298.253ZM347.507 299.34C347.498 299.303 347.494 299.266 347.494 299.229L347.499 299.118C347.305 299.297 347.1 299.385 346.882 299.38C346.696 299.377 346.544 299.318 346.427 299.204C346.311 299.088 346.259 298.943 346.269 298.77C346.282 298.546 346.38 298.372 346.562 298.247C346.746 298.12 346.986 298.057 347.285 298.057L347.654 298.059L347.677 297.891C347.69 297.765 347.665 297.665 347.603 297.592C347.542 297.518 347.449 297.48 347.326 297.477C347.205 297.475 347.097 297.505 347.003 297.567C346.911 297.628 346.854 297.71 346.833 297.811L346.478 297.813C346.49 297.689 346.538 297.58 346.622 297.485C346.707 297.389 346.816 297.314 346.949 297.262C347.081 297.209 347.219 297.184 347.361 297.186C347.581 297.191 347.752 297.258 347.874 297.387C347.997 297.515 348.048 297.685 348.029 297.897L347.857 298.944L347.847 299.094C347.845 299.166 347.852 299.237 347.871 299.307L347.867 299.34H347.507ZM346.953 299.067C347.066 299.07 347.173 299.043 347.273 298.987C347.374 298.93 347.462 298.851 347.535 298.751L347.611 298.315L347.343 298.313C347.121 298.313 346.95 298.348 346.831 298.419C346.713 298.489 346.646 298.589 346.63 298.717C346.619 298.816 346.641 298.899 346.699 298.965C346.757 299.031 346.842 299.064 346.953 299.067ZM349.281 296.715L349.191 297.227H349.576L349.527 297.506H349.144L348.923 298.821C348.919 298.855 348.919 298.886 348.921 298.915C348.93 299.016 348.986 299.067 349.087 299.067C349.13 299.067 349.188 299.061 349.259 299.047L349.232 299.342C349.147 299.366 349.061 299.378 348.974 299.378C348.833 299.375 348.728 299.324 348.658 299.223C348.587 299.122 348.56 298.986 348.576 298.815L348.79 297.506H348.417L348.466 297.227H348.839L348.929 296.715H349.281ZM350.296 297.485C350.481 297.283 350.694 297.185 350.935 297.19C351.133 297.193 351.279 297.261 351.374 297.395C351.471 297.528 351.507 297.715 351.482 297.956L351.251 299.34H350.898L351.13 297.95C351.138 297.886 351.139 297.827 351.132 297.772C351.11 297.59 351.003 297.497 350.81 297.493C350.594 297.488 350.408 297.601 350.251 297.833L349.99 299.34H349.636L350.158 296.34H350.511L350.296 297.485ZM353.689 298.84L354.363 297.227H354.728L353.765 299.34H353.478L353.259 297.743L352.497 299.34H352.21L351.982 297.227H352.32L352.449 298.801L353.199 297.227H353.484L353.689 298.84ZM356.023 299.34C356.014 299.303 356.009 299.266 356.009 299.229L356.015 299.118C355.821 299.297 355.615 299.385 355.398 299.38C355.212 299.377 355.06 299.318 354.943 299.204C354.827 299.088 354.774 298.943 354.785 298.77C354.798 298.546 354.895 298.372 355.078 298.247C355.261 298.12 355.502 298.057 355.8 298.057L356.169 298.059L356.193 297.891C356.206 297.765 356.181 297.665 356.119 297.592C356.057 297.518 355.965 297.48 355.841 297.477C355.72 297.475 355.613 297.505 355.519 297.567C355.427 297.628 355.37 297.71 355.349 297.811L354.994 297.813C355.005 297.689 355.053 297.58 355.138 297.485C355.223 297.389 355.331 297.314 355.464 297.262C355.597 297.209 355.734 297.184 355.876 297.186C356.096 297.191 356.268 297.258 356.39 297.387C356.512 297.515 356.564 297.685 356.544 297.897L356.372 298.944L356.363 299.094C356.36 299.166 356.368 299.237 356.386 299.307L356.382 299.34H356.023ZM355.468 299.067C355.581 299.07 355.688 299.043 355.789 298.987C355.89 298.93 355.977 298.851 356.05 298.751L356.126 298.315L355.859 298.313C355.636 298.313 355.466 298.348 355.347 298.419C355.229 298.489 355.162 298.589 355.146 298.717C355.134 298.816 355.157 298.899 355.214 298.965C355.273 299.031 355.358 299.064 355.468 299.067ZM357.589 298.807L358.341 297.227H358.732L357.478 299.692C357.303 300.034 357.08 300.204 356.806 300.2C356.758 300.199 356.687 300.187 356.593 300.165L356.624 299.872L356.716 299.881C356.828 299.887 356.925 299.861 357.005 299.805C357.087 299.751 357.16 299.661 357.222 299.538L357.349 299.296L356.984 297.227H357.353L357.589 298.807ZM359.996 298.768C360.015 298.622 359.935 298.519 359.755 298.46L359.388 298.352C359.078 298.245 358.928 298.068 358.939 297.821C358.948 297.635 359.033 297.482 359.193 297.364C359.354 297.244 359.544 297.186 359.761 297.188C359.975 297.191 360.148 297.253 360.281 297.376C360.415 297.497 360.479 297.655 360.474 297.85L360.122 297.848C360.125 297.743 360.092 297.657 360.023 297.59C359.954 297.524 359.862 297.49 359.747 297.487C359.625 297.484 359.52 297.514 359.431 297.577C359.349 297.635 359.302 297.712 359.289 297.807C359.272 297.93 359.346 298.019 359.513 298.075L359.691 298.124C359.933 298.186 360.105 298.268 360.206 298.368C360.308 298.468 360.355 298.592 360.347 298.741C360.339 298.872 360.296 298.987 360.218 299.085C360.14 299.182 360.036 299.257 359.906 299.309C359.775 299.36 359.637 299.383 359.49 299.38C359.266 299.377 359.081 299.312 358.935 299.184C358.789 299.055 358.719 298.89 358.724 298.688L359.078 298.69C359.078 298.809 359.115 298.904 359.191 298.975C359.266 299.047 359.37 299.083 359.501 299.083C359.63 299.085 359.742 299.059 359.835 299.003C359.929 298.945 359.983 298.867 359.996 298.768Z" fill="black"/>
</g>
<rect x="185.29" y="59.6125" width="656.643" height="358.719" rx="43.5" stroke="#3F3D56" stroke-width="3"/>
<g clip-path="url(#clip2)">
<path d="M90.3998 484.999L89.0518 484.476C88.7556 484.36 59.2734 472.673 45.4626 446.171C31.6513 419.669 38.4141 387.76 38.484 387.441L38.8023 385.988L40.1497 386.511C40.4459 386.626 69.9275 398.314 83.7389 424.815C97.5502 451.318 90.7874 483.227 90.7175 483.546L90.3998 484.999ZM47.6742 444.938C59.3507 467.345 82.6484 478.831 88.5514 481.453C89.6737 474.906 93.1934 448.434 81.5273 426.049C69.8625 403.666 46.5556 392.162 40.6502 389.534C39.5272 396.084 36.0088 422.554 47.6742 444.938Z" fill="#3F3D56"/>
<path d="M56.0174 436.875C80.8371 452.325 90.3959 483.015 90.3959 483.015C90.3959 483.015 59.7141 488.653 34.8944 473.203C10.0746 457.752 0.515778 427.063 0.515778 427.063C0.515778 427.063 31.1976 421.424 56.0174 436.875Z" fill="#38A169"/>
<path d="M509.674 58.2346C513.455 58.2346 516.52 55.0634 516.52 51.1516C516.52 47.2399 513.455 44.0687 509.674 44.0687C505.894 44.0687 502.829 47.2399 502.829 51.1516C502.829 55.0634 505.894 58.2346 509.674 58.2346Z" fill="#38A169"/>
<path d="M887.793 451.336H822.657V446.48C822.657 446.354 822.633 446.229 822.586 446.112C822.539 445.995 822.471 445.889 822.384 445.8C822.298 445.71 822.195 445.639 822.083 445.591C821.97 445.543 821.849 445.518 821.726 445.518H799.394C799.272 445.518 799.151 445.543 799.038 445.591C798.925 445.639 798.823 445.71 798.736 445.8C798.65 445.889 798.581 445.995 798.535 446.112C798.488 446.229 798.464 446.354 798.464 446.48V451.336H784.506V446.48C784.506 446.354 784.482 446.229 784.435 446.112C784.389 445.995 784.32 445.889 784.234 445.8C784.147 445.71 784.045 445.639 783.932 445.591C783.819 445.543 783.698 445.518 783.576 445.518H761.243C761.121 445.518 761 445.543 760.887 445.591C760.774 445.639 760.672 445.71 760.585 445.8C760.499 445.889 760.43 445.995 760.384 446.112C760.337 446.229 760.313 446.354 760.313 446.48V451.336H746.355V446.48C746.355 446.354 746.331 446.229 746.284 446.112C746.238 445.995 746.169 445.889 746.083 445.8C745.996 445.71 745.894 445.639 745.781 445.591C745.668 445.543 745.547 445.518 745.425 445.518H723.092C722.97 445.518 722.849 445.543 722.736 445.591C722.623 445.639 722.521 445.71 722.435 445.8C722.348 445.889 722.28 445.995 722.233 446.112C722.186 446.229 722.162 446.354 722.162 446.48V451.336H708.204V446.48C708.204 446.354 708.18 446.229 708.134 446.112C708.087 445.995 708.018 445.889 707.932 445.8C707.845 445.71 707.743 445.639 707.63 445.591C707.517 445.543 707.396 445.518 707.274 445.518H684.942C684.819 445.518 684.698 445.543 684.586 445.591C684.473 445.639 684.37 445.71 684.284 445.8C684.197 445.889 684.129 445.995 684.082 446.112C684.035 446.229 684.011 446.354 684.011 446.48V451.336H670.053V446.48C670.053 446.354 670.029 446.229 669.983 446.112C669.936 445.995 669.867 445.889 669.781 445.8C669.695 445.71 669.592 445.639 669.479 445.591C669.366 445.543 669.245 445.518 669.123 445.518H646.791C646.669 445.518 646.548 445.543 646.435 445.591C646.322 445.639 646.219 445.71 646.133 445.8C646.046 445.889 645.978 445.995 645.931 446.112C645.884 446.229 645.86 446.354 645.86 446.48V451.336H631.903V446.48C631.903 446.354 631.879 446.229 631.832 446.112C631.785 445.995 631.716 445.889 631.63 445.8C631.544 445.71 631.441 445.639 631.328 445.591C631.215 445.543 631.094 445.518 630.972 445.518H608.64C608.518 445.518 608.397 445.543 608.284 445.591C608.171 445.639 608.068 445.71 607.982 445.8C607.895 445.889 607.827 445.995 607.78 446.112C607.733 446.229 607.709 446.354 607.709 446.48V451.336H593.752V446.48C593.752 446.354 593.728 446.229 593.681 446.112C593.634 445.995 593.566 445.889 593.479 445.8C593.393 445.71 593.29 445.639 593.177 445.591C593.064 445.543 592.943 445.518 592.821 445.518H417.886C417.763 445.518 417.642 445.543 417.529 445.591C417.416 445.639 417.314 445.71 417.228 445.8C417.141 445.889 417.073 445.995 417.026 446.112C416.979 446.229 416.955 446.354 416.955 446.48V451.336H402.997V446.48C402.997 446.354 402.973 446.229 402.927 446.112C402.88 445.995 402.811 445.889 402.725 445.8C402.638 445.71 402.536 445.639 402.423 445.591C402.31 445.543 402.189 445.518 402.067 445.518H379.735C379.612 445.518 379.491 445.543 379.378 445.591C379.266 445.639 379.163 445.71 379.077 445.8C378.99 445.889 378.922 445.995 378.875 446.112C378.828 446.229 378.804 446.354 378.804 446.48V451.336H364.846V446.48C364.846 446.354 364.822 446.229 364.776 446.112C364.729 445.995 364.66 445.889 364.574 445.8C364.487 445.71 364.385 445.639 364.272 445.591C364.159 445.543 364.038 445.518 363.916 445.518H341.584C341.462 445.518 341.341 445.543 341.228 445.591C341.115 445.639 341.012 445.71 340.926 445.8C340.839 445.889 340.771 445.995 340.724 446.112C340.677 446.229 340.653 446.354 340.653 446.48V451.336H326.696V446.48C326.696 446.354 326.671 446.229 326.625 446.112C326.578 445.995 326.509 445.889 326.423 445.8C326.337 445.71 326.234 445.639 326.121 445.591C326.008 445.543 325.887 445.518 325.765 445.518H303.433C303.311 445.518 303.19 445.543 303.077 445.591C302.964 445.639 302.861 445.71 302.775 445.8C302.688 445.889 302.62 445.995 302.573 446.112C302.526 446.229 302.502 446.354 302.502 446.48V451.336H288.545V446.48C288.545 446.354 288.521 446.229 288.474 446.112C288.427 445.995 288.359 445.889 288.272 445.8C288.186 445.71 288.083 445.639 287.97 445.591C287.857 445.543 287.736 445.518 287.614 445.518H265.282C265.16 445.518 265.039 445.543 264.926 445.591C264.813 445.639 264.71 445.71 264.624 445.8C264.538 445.889 264.469 445.995 264.422 446.112C264.375 446.229 264.351 446.354 264.351 446.48V451.336H250.394V446.48C250.394 446.354 250.37 446.229 250.323 446.112C250.276 445.995 250.208 445.889 250.121 445.8C250.035 445.71 249.932 445.639 249.819 445.591C249.706 445.543 249.585 445.518 249.463 445.518H227.131C227.009 445.518 226.888 445.543 226.775 445.591C226.662 445.639 226.559 445.71 226.473 445.8C226.387 445.889 226.318 445.995 226.271 446.112C226.225 446.229 226.201 446.354 226.201 446.48V451.336H212.243V446.48C212.243 446.354 212.219 446.229 212.172 446.112C212.125 445.995 212.057 445.889 211.97 445.8C211.884 445.71 211.781 445.639 211.668 445.591C211.556 445.543 211.435 445.518 211.312 445.518H188.98C188.858 445.518 188.737 445.543 188.624 445.591C188.511 445.639 188.409 445.71 188.322 445.8C188.236 445.889 188.167 445.995 188.12 446.112C188.074 446.229 188.05 446.354 188.05 446.48V451.336H145.246C139.323 451.336 133.643 453.771 129.455 458.104C125.267 462.438 122.914 468.315 122.914 474.444V484.892C122.914 491.021 125.267 496.898 129.455 501.232C133.643 505.565 139.323 508 145.246 508H887.793C893.715 508 899.396 505.565 903.584 501.232C907.772 496.898 910.125 491.021 910.125 484.892V474.444C910.125 468.315 907.772 462.438 903.584 458.104C899.396 453.771 893.716 451.336 887.793 451.336V451.336Z" fill="#3F3D56"/>
<path d="M1001.98 484.294H31.0588V487.36H1001.98V484.294Z" fill="#3F3D56"/>
</g>
<path d="M306.775 0.15625H196.435C188.151 0.15625 181.435 6.87197 181.435 15.1562V118.465C181.435 126.749 188.151 133.465 196.435 133.465H306.775C315.06 133.465 321.775 126.749 321.775 118.465V15.1562C321.775 6.87198 315.06 0.15625 306.775 0.15625Z" fill="#855D51"/>
<path d="M292.415 22.3597H210.748C206.882 22.3597 203.748 25.4938 203.748 29.3597V88.414C203.748 92.28 206.882 95.414 210.748 95.414H292.415C296.281 95.414 299.415 92.28 299.415 88.414V29.3597C299.415 25.4937 296.281 22.3597 292.415 22.3597Z" fill="white"/>
<path d="M258.827 79.5502H244.336C242.654 79.5502 241.291 80.9135 241.291 82.5953C241.291 84.2771 242.654 85.6405 244.336 85.6405H258.827C260.508 85.6405 261.872 84.2771 261.872 82.5953C261.872 80.9135 260.508 79.5502 258.827 79.5502Z" fill="#3F3D56"/>
<path d="M285.447 32.1328H217.715C216.994 32.1328 216.41 32.7171 216.41 33.4379C216.41 34.1586 216.994 34.7429 217.715 34.7429H285.447C286.168 34.7429 286.752 34.1586 286.752 33.4379C286.752 32.7171 286.168 32.1328 285.447 32.1328Z" fill="#3F3D56"/>
<path d="M285.447 40.3988H217.715C216.994 40.3988 216.41 40.9831 216.41 41.7039C216.41 42.4246 216.994 43.0089 217.715 43.0089H285.447C286.168 43.0089 286.752 42.4246 286.752 41.7039C286.752 40.9831 286.168 40.3988 285.447 40.3988Z" fill="#3F3D56"/>
<path d="M285.447 48.6641H217.715C216.994 48.6641 216.41 49.2484 216.41 49.9691C216.41 50.6899 216.994 51.2742 217.715 51.2742H285.447C286.168 51.2742 286.752 50.6899 286.752 49.9691C286.752 49.2484 286.168 48.6641 285.447 48.6641Z" fill="#3F3D56"/>
<path d="M285.447 56.9291H217.715C216.994 56.9291 216.41 57.5134 216.41 58.2341C216.41 58.9549 216.994 59.5392 217.715 59.5392H285.447C286.168 59.5392 286.752 58.9549 286.752 58.2341C286.752 57.5134 286.168 56.9291 285.447 56.9291Z" fill="#3F3D56"/>
<path d="M285.447 65.1951H217.715C216.994 65.1951 216.41 65.7794 216.41 66.5001C216.41 67.2209 216.994 67.8052 217.715 67.8052H285.447C286.168 67.8052 286.752 67.2209 286.752 66.5001C286.752 65.7794 286.168 65.1951 285.447 65.1951Z" fill="#3F3D56"/>
<path d="M254.322 102.665H205.021C204.265 102.665 203.653 103.277 203.653 104.032C203.653 104.788 204.265 105.4 205.021 105.4H254.322C255.077 105.4 255.689 104.788 255.689 104.032C255.689 103.277 255.077 102.665 254.322 102.665Z" fill="#F2F2F2"/>
<path d="M274.863 109.502H205.021C204.265 109.502 203.653 110.114 203.653 110.869C203.653 111.625 204.265 112.237 205.021 112.237H274.863C275.618 112.237 276.23 111.625 276.23 110.869C276.23 110.114 275.618 109.502 274.863 109.502Z" fill="#F2F2F2"/>
<path d="M250.393 17.444C253.418 17.444 255.871 14.9951 255.871 11.9742C255.871 8.95331 253.418 6.50439 250.393 6.50439C247.368 6.50439 244.916 8.95331 244.916 11.9742C244.916 14.9951 247.368 17.444 250.393 17.444Z" fill="#3F3D56"/>
<defs>
<clipPath id="clip0">
</clipPath>
<clipPath id="clip1">
</clipPath>
<clipPath id="clip2">
<rect x="0.515778" y="28.7225" width="1001.46" height="479.278" fill="white"/>
</clipPath>
</defs>
</svg>
