<svg width="477" height="311" viewBox="0 0 477 311" fill="none" xmlns="http://www.w3.org/2000/svg">
<g clip-path="url(#clip0)">
<path d="M176.82 89.873C97.0435 152.714 137.237 179.746 88.4098 179.746C39.5824 179.746 0 139.508 0 89.873C0 40.2375 39.5824 0 88.4098 0C137.237 0 256.596 27.0321 176.82 89.873Z" fill="#F2F2F2"/>
<path d="M195.57 182.658C195.57 193.103 157.71 216.842 107.798 216.842C57.885 216.842 14.6214 193.103 14.6214 182.658C14.6214 180.046 18.8592 183.29 23.4286 181.031C36.7313 174.441 68.4512 179.298 104.453 179.027C105.564 179.017 106.679 179.012 107.798 179.012C157.71 179.012 195.57 172.214 195.57 182.658Z" fill="#3F3D56"/>
<path opacity="0.1" d="M195.57 182.658C195.57 193.103 157.71 216.842 107.798 216.842C57.885 216.842 14.6214 193.103 14.6214 182.658C14.6214 180.046 18.8592 183.29 23.4286 181.031C36.7313 174.441 68.4512 179.298 104.453 179.027C105.564 179.017 106.679 179.012 107.798 179.012C157.71 179.012 195.57 172.214 195.57 182.658Z" fill="black"/>
<path d="M195.369 182.463C195.369 192.907 154.908 201.378 104.995 201.378C55.0827 201.378 14.6214 192.907 14.6214 182.463C14.6214 179.851 17.1468 177.366 21.7161 175.106C35.0189 168.517 65.6489 163.834 101.651 163.563C102.761 163.553 103.876 163.548 104.995 163.548C154.908 163.548 195.369 172.019 195.369 182.463Z" fill="#3F3D56"/>
<path opacity="0.1" d="M102.725 163.951C98.8867 170.313 93.6809 175.709 87.4984 179.734C81.3159 183.759 74.3171 186.31 67.0269 187.194C59.7367 188.078 52.3442 187.273 45.4037 184.839C38.4632 182.405 32.1548 178.405 26.9515 173.14C39.5618 167.894 68.5976 164.166 102.725 163.951Z" fill="black"/>
<path d="M62.2604 179.403C87.023 179.403 107.097 157.539 107.097 130.568C107.097 103.598 87.023 81.7339 62.2604 81.7339C37.4977 81.7339 17.4237 103.598 17.4237 130.568C17.4237 157.539 37.4977 179.403 62.2604 179.403Z" fill="#3F3D56"/>
<path d="M111.04 54.9036V66.3515L105.257 73.1583C105.257 73.1583 102.822 72.2301 102.822 66.0421L101.909 57.0694L111.04 54.9036Z" fill="#FFB9B9"/>
<path d="M105.257 66.3515C105.257 66.3515 114.692 59.854 114.996 57.6882C115.301 55.5224 128.693 45.6215 126.562 51.8096C124.432 57.9976 117.736 60.7822 117.736 60.7822C117.736 60.7822 112.561 75.0147 107.996 74.7053C103.43 74.3959 103.43 68.5173 105.257 66.3515Z" fill="#FFB9B9"/>
<path d="M99.7781 135.967L98.865 141.536L103.735 140.298V135.967H99.7781Z" fill="#FFB9B9"/>
<path d="M100.691 139.061C100.691 139.061 106.32 135.671 106.549 137.211C106.778 138.751 109.213 144.63 110.431 145.249C111.648 145.868 113.17 152.675 110.431 152.365C108.309 152.126 100.528 147.988 97.1263 146.135C96.7076 145.905 96.3913 145.521 96.2427 145.062C96.094 144.603 96.1242 144.103 96.3271 143.666C96.5266 143.291 96.6642 142.885 96.7344 142.464C96.7344 141.846 100.691 139.061 100.691 139.061Z" fill="#2F2E41"/>
<path d="M97.9519 76.2523C97.9519 76.2523 120.17 86.772 118.04 94.8164C115.909 102.861 107.996 136.895 107.996 136.895C107.996 136.895 99.1693 139.061 98.5606 136.895C97.9519 134.729 104.344 101.004 103.735 99.7669C103.126 98.5293 91.8646 90.4848 91.8646 90.4848L68.7329 80.5839L78.4725 71.3019L97.9519 76.2523Z" fill="#2F2E41"/>
<path d="M114.692 137.823L117.431 144.94L112.561 147.105L109.518 141.536L114.692 137.823Z" fill="#FFB9B9"/>
<path d="M98.2563 25.5104C98.2563 25.5104 95.517 29.2232 97.6475 31.0796C99.7781 32.9361 98.2563 39.7429 98.2563 39.7429L95.517 47.4779L84.5599 45.3121V32.6266L85.1686 26.4386C85.1686 26.4386 90.6472 21.1788 91.2559 17.1566C91.8646 13.1343 98.2563 25.5104 98.2563 25.5104Z" fill="#FFB9B9"/>
<path opacity="0.1" d="M98.2563 25.5104C98.2563 25.5104 95.517 29.2232 97.6475 31.0796C99.7781 32.9361 98.2563 39.7429 98.2563 39.7429L95.517 47.4779L84.5599 45.3121V32.6266L85.1686 26.4386C85.1686 26.4386 90.6472 21.1788 91.2559 17.1566C91.8646 13.1343 98.2563 25.5104 98.2563 25.5104Z" fill="black"/>
<path d="M79.9944 73.7771C79.9944 73.7771 94.2995 89.866 94.2995 90.4848C94.2995 91.1036 101.909 103.789 101.909 103.789L116.822 137.514C116.822 137.514 111.04 145.558 108.605 144.94C106.17 144.321 88.821 108.43 88.821 108.43C88.821 108.43 85.7773 100.386 77.5595 98.5293C69.3416 96.6729 62.95 90.1754 65.9936 82.7498C69.0372 75.3241 79.9944 73.7771 79.9944 73.7771Z" fill="#2F2E41"/>
<path d="M98.2563 27.6762C103.635 27.6762 107.996 23.2435 107.996 17.7754C107.996 12.3073 103.635 7.87451 98.2563 7.87451C92.8772 7.87451 88.5166 12.3073 88.5166 17.7754C88.5166 23.2435 92.8772 27.6762 98.2563 27.6762Z" fill="#FFB9B9"/>
<path d="M97.9519 33.8643C97.9519 33.8643 96.7344 40.9805 95.517 41.5993C94.2995 42.2181 93.3864 44.384 90.6471 41.2899C87.9078 38.1959 85.4729 32.0079 85.4729 32.0079L76.0376 43.7652L75.1245 76.2524C75.1245 76.2524 85.7773 73.4677 89.1253 76.2524C92.4733 79.037 99.7781 78.7276 99.7781 78.7276L98.2562 72.5395L99.4737 62.0199L99.1693 52.4284L98.865 45.6216L97.9519 33.8643Z" fill="#F2F2F2"/>
<path d="M96.8797 28.6564C96.8797 28.6564 100.996 30.7703 101.3 32.0079C101.604 33.2455 107.083 35.7207 107.083 35.7207C107.083 35.7207 109.213 37.8865 109.213 39.1241C109.213 40.3617 101.909 54.5942 101.909 54.5942C101.909 54.5942 100.387 64.1857 100.996 66.0421C101.604 67.8985 99.7781 75.0148 99.7781 75.0148L103.43 79.3464H100.082C100.082 79.3464 96.4301 77.4899 96.4301 76.5617C96.4301 75.6335 97.0388 69.1361 97.3431 66.3515C97.6475 63.5669 97.6475 53.666 97.0388 50.2626C96.43 46.8591 96.7344 37.8865 96.7344 35.7207C96.7344 33.5549 96.8797 28.6564 96.8797 28.6564Z" fill="#3F3D56"/>
<path d="M87.4513 23.9583C87.4513 23.9583 86.0817 24.2728 82.125 25.5104C78.1682 26.748 72.0809 28.6044 69.9504 31.0797C68.4549 32.9102 67.1303 34.8782 65.9936 36.9583L67.2111 59.2352C67.2111 59.2352 64.7762 63.8763 65.0805 66.3515C65.3849 68.8267 67.8198 69.1361 65.9936 74.3959C64.1675 79.6558 60.5151 84.2968 63.8631 84.9156C67.2111 85.5344 76.0377 83.3686 79.9944 84.6062C83.9512 85.8438 88.5166 79.9652 88.5166 79.9652C88.5166 79.9652 82.4293 80.584 83.3424 78.1087C84.2555 75.6335 94.2995 47.7874 92.169 41.5993C90.0384 35.4113 87.4513 23.9583 87.4513 23.9583Z" fill="#3F3D56"/>
<path d="M107.692 37.5771L109.213 38.8148C109.213 38.8148 113.474 54.2849 112.257 55.8319C111.04 57.3789 101.3 60.7823 100.691 58.6165C100.082 56.4507 107.692 37.5771 107.692 37.5771Z" fill="#3F3D56"/>
<path d="M62.6456 48.4062C62.6456 48.4062 58.0801 61.7105 58.0801 65.4233C58.0801 69.1361 58.6889 90.7943 58.6889 90.7943C58.6889 90.7943 58.9932 100.076 65.3849 96.3635C71.7766 92.6507 65.3849 90.1754 65.3849 90.1754C65.3849 90.1754 65.6893 65.7327 68.1242 62.3293C70.5591 58.9259 71.4722 53.9754 71.4722 53.9754L62.6456 48.4062Z" fill="#FFB9B9"/>
<path d="M112.561 144.63C112.561 144.63 117.127 142.155 118.04 144.011C118.953 145.868 123.823 156.078 123.214 157.316C122.605 158.553 119.257 163.504 115.301 162.266C111.344 161.028 111.04 154.531 111.04 154.531L110.735 147.105L112.561 144.63Z" fill="#2F2E41"/>
<path d="M100.163 15.3838C99.4925 15.7048 98.6966 15.8967 98.275 16.5168C97.9626 16.9763 97.9316 17.5734 97.7037 18.0816C97.4549 18.5848 97.0267 18.9727 96.5063 19.1661C95.986 19.3595 95.4127 19.344 94.9033 19.1227C94.7788 18.5063 94.4263 17.9621 93.9185 17.6023C93.662 17.4309 93.3582 17.3476 93.0516 17.3647C92.7451 17.3818 92.4521 17.4984 92.2156 17.6974C91.5883 18.3054 91.8103 19.3656 91.5176 20.1949C91.2428 20.7783 90.8647 21.3054 90.4022 21.7496C89.736 22.531 89.2053 23.4474 88.4031 24.083C87.6008 24.7187 86.3842 24.9942 85.5872 24.3517C84.917 23.8116 84.7781 22.815 84.9408 21.9614C85.1036 21.1079 85.5072 20.3219 85.7348 19.4838C86.4745 16.7605 85.2952 13.8531 85.6601 11.0524C86.1276 7.46376 89.1281 4.62908 92.4772 3.39888C93.8709 2.82194 95.3967 2.65761 96.8784 2.92485C98.4101 3.27251 99.7185 4.26376 101.185 4.83068C102.754 5.43693 104.46 5.54279 106.102 5.89722C107.743 6.25164 109.433 6.93691 110.385 8.34144C111.05 9.32106 111.278 10.5377 111.829 11.5877C112.463 12.7862 113.489 13.7213 114.731 14.2305L112.995 14.13C113.286 14.9174 113.761 15.6213 114.378 16.1814C113.564 16.3501 112.718 16.2364 111.976 15.8586C111.989 16.2212 112.075 16.5771 112.229 16.9044C112.383 17.2317 112.602 17.5235 112.871 17.7616C111.536 17.7207 110.128 17.6581 108.999 16.931C108.447 16.5749 107.996 16.0788 107.476 15.6751C106.367 14.8145 104.992 14.4061 103.651 14.0149C102.947 13.8095 102.1 13.5239 101.463 13.9842C100.933 14.3675 100.849 15.0557 100.163 15.3838Z" fill="#2F2E41"/>
<path d="M70.5591 33.2455L65.9936 36.9583L59.9063 51.1908C59.9063 51.1908 68.4285 57.9976 70.5591 57.0694C72.6896 56.1412 76.342 39.7429 76.342 39.7429L70.5591 33.2455Z" fill="#3F3D56"/>
<path d="M139.034 50.2281L119.823 60.9549C119.712 61.0301 119.586 61.0796 119.454 61.0998C119.321 61.1201 119.186 61.1107 119.058 61.0723C118.93 61.0338 118.812 60.9673 118.711 60.8773C118.611 60.7873 118.532 60.6761 118.478 60.5515L113.772 50.552C113.683 50.2669 113.697 49.9588 113.813 49.6837C113.929 49.4086 114.137 49.1848 114.402 49.053L130.351 40.6958C130.548 40.5757 130.781 40.5335 131.006 40.5773C131.231 40.621 131.433 40.7477 131.572 40.933L139.539 48.563C139.617 48.7051 139.666 48.8619 139.683 49.0239C139.7 49.1859 139.685 49.3498 139.637 49.5055C139.59 49.6612 139.512 49.8056 139.409 49.9298C139.305 50.054 139.177 50.1555 139.034 50.2281Z" fill="#2F2E41"/>
<path d="M137.752 48.751L119.742 59.215L114.95 50.4345L130.4 41.8938L137.752 48.751Z" fill="#38A169"/>
<path d="M122.641 45.7264C122.735 45.6121 122.734 45.4535 122.638 45.3722C122.542 45.2909 122.388 45.3176 122.294 45.4319C122.201 45.5462 122.202 45.7048 122.298 45.7861C122.394 45.8674 122.548 45.8406 122.641 45.7264Z" fill="#F2F2F2"/>
<path d="M129.27 54.6606C129.333 54.5844 129.332 54.4787 129.268 54.4245C129.204 54.3703 129.101 54.3881 129.039 54.4643C128.976 54.5405 128.978 54.6462 129.041 54.7004C129.105 54.7546 129.208 54.7368 129.27 54.6606Z" fill="#F2F2F2"/>
<path d="M38.8472 178.93C38.8472 186.017 34.7028 188.492 29.5895 188.492C29.4711 188.492 29.3526 188.49 29.2351 188.488C28.9982 188.483 28.763 188.471 28.5313 188.455C23.9165 188.123 20.3318 185.521 20.3318 178.93C20.3318 172.109 28.9053 163.502 29.5512 162.864L29.552 162.863C29.5767 162.838 29.5895 162.826 29.5895 162.826C29.5895 162.826 38.8472 171.843 38.8472 178.93Z" fill="#38A169"/>
<path d="M29.2521 187.408L32.6382 182.599L29.2436 187.936L29.2351 188.488C28.9982 188.483 28.763 188.471 28.5313 188.455L28.8959 181.364L28.8934 181.309L28.8994 181.299L28.9343 180.629L25.5312 175.279L28.9445 180.127L28.953 180.269L29.2283 174.911L26.315 169.383L29.264 173.972L29.5512 162.864L29.552 162.826V162.863L29.5043 171.622L32.4048 168.149L29.4924 172.376L29.4157 177.173L32.1244 172.569L29.4046 177.879L29.362 180.546L33.2926 174.138L29.3467 181.476L29.2521 187.408Z" fill="#3F3D56"/>
<path d="M168.153 164.279C168.153 171.367 164.009 173.842 158.895 173.842C158.777 173.842 158.659 173.84 158.541 173.837C158.304 173.832 158.069 173.821 157.837 173.805C153.222 173.473 149.638 170.871 149.638 164.279C149.638 157.459 158.211 148.852 158.857 148.214L158.858 148.213C158.883 148.188 158.895 148.176 158.895 148.176C158.895 148.176 168.153 157.192 168.153 164.279Z" fill="#38A169"/>
<path d="M158.558 172.757L161.944 167.948L158.549 173.286L158.541 173.837C158.304 173.832 158.069 173.821 157.837 173.805L158.202 166.714L158.199 166.659L158.205 166.649L158.24 165.979L154.837 160.628L158.25 165.476L158.259 165.618L158.534 160.261L155.621 154.732L158.57 159.321L158.857 148.214L158.858 148.176V148.213L158.81 156.971L161.711 153.499L158.798 157.726L158.722 162.523L161.43 157.919L158.711 163.229L158.668 165.896L162.598 159.488L158.653 166.826L158.558 172.757Z" fill="#3F3D56"/>
<path d="M359.985 106.407H206.078V192.552H359.985V106.407Z" fill="#F2F2F2"/>
<path opacity="0.3" d="M231.87 150.43C238.876 150.43 244.555 144.657 244.555 137.535C244.555 130.414 238.876 124.641 231.87 124.641C224.865 124.641 219.186 130.414 219.186 137.535C219.186 144.657 224.865 150.43 231.87 150.43Z" fill="#38A169"/>
<path opacity="0.3" d="M283.031 150.43C290.037 150.43 295.716 144.657 295.716 137.535C295.716 130.414 290.037 124.641 283.031 124.641C276.026 124.641 270.347 130.414 270.347 137.535C270.347 144.657 276.026 150.43 283.031 150.43Z" fill="#38A169"/>
<path opacity="0.3" d="M334.193 150.43C341.198 150.43 346.877 144.657 346.877 137.535C346.877 130.414 341.198 124.641 334.193 124.641C327.187 124.641 321.508 130.414 321.508 137.535C321.508 144.657 327.187 150.43 334.193 150.43Z" fill="#38A169"/>
<path opacity="0.3" d="M248.994 160.101H214.323V163.539H248.994V160.101Z" fill="#38A169"/>
<path opacity="0.3" d="M300.578 160.101H265.907V163.539H300.578V160.101Z" fill="#38A169"/>
<path d="M352.162 160.101H317.491V163.539H352.162V160.101Z" fill="#38A169"/>
<path d="M477 274.895C477 285.926 437.014 311 384.297 311C331.58 311 285.885 285.926 285.885 274.895C285.885 272.136 290.361 275.563 295.187 273.176C309.238 266.216 342.74 271.346 380.764 271.06C381.937 271.049 383.115 271.044 384.297 271.044C437.014 271.044 477 263.864 477 274.895Z" fill="#3F3D56"/>
<path opacity="0.1" d="M477 274.895C477 285.926 437.014 311 384.297 311C331.58 311 285.885 285.926 285.885 274.895C285.885 272.136 290.361 275.563 295.187 273.176C309.238 266.216 342.74 271.346 380.764 271.06C381.937 271.049 383.115 271.044 384.297 271.044C437.014 271.044 477 263.864 477 274.895Z" fill="black"/>
<path d="M476.789 274.689C476.789 285.72 434.054 294.667 381.337 294.667C328.62 294.667 285.885 285.72 285.885 274.689C285.885 271.93 288.553 269.306 293.379 266.919C307.429 259.959 339.78 255.013 377.804 254.727C378.977 254.716 380.155 254.711 381.337 254.711C434.054 254.711 476.789 263.658 476.789 274.689Z" fill="#3F3D56"/>
<path d="M386.282 256.948C398.901 256.948 409.131 245.154 409.131 230.606C409.131 216.057 398.901 204.263 386.282 204.263C373.662 204.263 363.432 216.057 363.432 230.606C363.432 245.154 373.662 256.948 386.282 256.948Z" fill="#36334A"/>
<path d="M396.32 182.942L361.979 184.016C361.979 184.016 326.751 217.626 351.845 226.756C351.845 226.756 387.602 228.323 394.999 222.416C394.999 222.416 404.244 185.359 396.32 182.942ZM394.735 192.878L358.017 195.295C358.017 195.295 360.659 186.165 371.225 186.165C381.791 186.165 393.678 183.748 394.735 189.387C395.791 195.026 394.735 192.878 394.735 192.878Z" fill="#3F3D56"/>
<path d="M431.452 204.156L386.282 202.545L396.848 157.164C396.848 157.164 439.113 153.941 438.056 164.951C436.999 175.961 431.452 204.156 431.452 204.156Z" fill="#36334A"/>
<path d="M387.845 225.849C387.845 225.849 360.659 230.74 350.885 216.24C341.111 201.739 387.867 209.526 387.867 209.526L391.829 220.536L387.845 225.849Z" fill="#36334A"/>
<path d="M379.678 287.399C386.535 287.399 392.093 281.749 392.093 274.778C392.093 267.808 386.535 262.158 379.678 262.158C372.821 262.158 367.263 267.808 367.263 274.778C367.263 281.749 372.821 287.399 379.678 287.399Z" fill="#36334A"/>
<path d="M380.866 283.908C385.17 283.908 388.659 279.821 388.659 274.778C388.659 269.736 385.17 265.649 380.866 265.649C376.563 265.649 373.074 269.736 373.074 274.778C373.074 279.821 376.563 283.908 380.866 283.908Z" fill="#3F3D56"/>
<path d="M447.566 155.821C447.566 155.821 437.264 149.914 436.735 163.877L428.018 228.86H431.716L441.754 159.312C441.754 159.312 446.773 160.118 447.566 160.118C448.358 160.118 447.566 155.821 447.566 155.821Z" fill="#3F3D56"/>
<path d="M457.831 162.991C457.737 163.336 457.571 163.657 457.345 163.931C457.119 164.206 456.838 164.428 456.52 164.583C456.203 164.738 455.857 164.822 455.505 164.83C455.152 164.838 454.803 164.769 454.479 164.628L442.528 159.434L444.696 154.58L456.474 160.033C457.01 160.281 457.441 160.716 457.69 161.258C457.938 161.8 457.988 162.415 457.831 162.991Z" fill="#36334A"/>
<path d="M385.225 224.295C385.225 224.295 366.206 222.147 360.923 240.676C355.64 259.204 356.168 273.436 351.677 272.362C347.187 271.288 337.677 267.528 337.677 267.528L338.47 273.167C338.47 273.167 355.111 281.76 357.753 272.63C360.395 263.5 361.979 229.935 377.036 230.74C392.093 231.546 394.735 229.935 394.735 229.935L385.225 224.295Z" fill="#3F3D56"/>
<path d="M349.036 215.434C349.036 215.434 334.243 217.314 328.432 228.323C322.62 239.333 319.715 259.204 319.715 259.204H325.262C325.262 259.204 328.432 219.731 345.074 221.879L349.036 215.434Z" fill="#3F3D56"/>
<path d="M338.998 276.927L315.488 262.158C315.488 262.158 314.167 256.787 329.224 254.639C329.224 254.639 357.691 264.76 354.949 268.561C352.206 272.362 342.96 278.269 338.998 276.927Z" fill="#36334A"/>
<path d="M382.646 192.042C383.37 192.843 396.691 205.728 396.691 205.728C396.691 205.728 395.368 214.721 381.114 215.837L357.359 217.697C357.359 217.697 352.868 234.447 347.53 239.8C342.191 245.153 344.641 245.452 342.638 248.061C340.634 250.67 343.446 251.37 340.405 251.623C337.363 251.877 331.08 248.138 331.011 245.247C330.943 242.356 332.717 240.7 333.506 239.964C334.294 239.227 336.294 232.189 337.493 230.701C338.692 229.212 343.23 211.308 343.23 211.308C343.23 211.308 347.76 202.647 354.04 201.956C360.32 201.265 367.307 198.16 367.307 198.16" fill="#2F2E41"/>
<path opacity="0.1" d="M382.646 192.042C383.37 192.843 396.691 205.728 396.691 205.728C396.691 205.728 395.368 214.721 381.114 215.837L357.359 217.697C357.359 217.697 352.868 234.447 347.53 239.8C342.191 245.153 344.641 245.452 342.638 248.061C340.634 250.67 343.446 251.37 340.405 251.623C337.363 251.877 331.08 248.138 331.011 245.247C330.943 242.356 332.717 240.7 333.506 239.964C334.294 239.227 336.294 232.189 337.493 230.701C338.692 229.212 343.23 211.308 343.23 211.308C343.23 211.308 347.76 202.647 354.04 201.956C360.32 201.265 367.307 198.16 367.307 198.16" fill="black"/>
<path d="M359.602 149.04C359.602 149.04 354.603 135.231 351.181 139.63C347.759 144.03 356.687 151.256 356.687 151.256L359.602 149.04Z" fill="#A0616A"/>
<path d="M385.937 156.248L383.091 155.024C383.091 155.024 377.866 158.613 377.522 159.778C377.178 160.944 377.923 160.536 375.871 161.561C373.819 162.587 368.213 165.069 367.467 165.476C366.722 165.884 358.284 150.708 360.302 148.529C360.302 148.529 356.525 149.913 354.805 149.389C354.805 149.389 359.098 170.545 359.751 173.412C360.404 176.279 361.929 176.617 364.772 176.722C367.615 176.828 384.881 171.678 384.881 171.678L385.937 156.248Z" fill="#575A89"/>
<path d="M341.403 247.176C341.403 247.176 341.259 250.177 341.752 250.522C342.245 250.867 345.291 258.17 340.599 258.875C335.907 259.579 333.331 258.662 332.197 259.05C331.062 259.438 312.36 257.869 312.504 254.868C312.648 251.866 321.999 252.65 321.999 252.65C321.999 252.65 331.261 248.202 332.996 245.427C334.73 242.653 341.403 247.176 341.403 247.176Z" fill="#2F2E41"/>
<path opacity="0.1" d="M341.403 247.176C341.403 247.176 341.259 250.177 341.752 250.522C342.245 250.867 345.291 258.17 340.599 258.875C335.907 259.579 333.331 258.662 332.197 259.05C331.062 259.438 312.36 257.869 312.504 254.868C312.648 251.866 321.999 252.65 321.999 252.65C321.999 252.65 331.261 248.202 332.996 245.427C334.73 242.653 341.403 247.176 341.403 247.176Z" fill="black"/>
<path d="M351.053 262.986C351.053 262.986 348.208 275.584 346.122 275.455C344.035 275.327 329.305 268.039 327.493 266.596C325.166 264.743 325.258 261.468 327.929 262.156C330.6 262.844 338.155 262.227 339.439 260.84L342.741 257.274L351.053 262.986Z" fill="#2F2E41"/>
<path d="M380.213 192.993C380.993 193.739 404.699 214.183 404.699 214.183C404.699 214.183 404.022 223.25 389.886 225.416L366.326 229.027C366.326 229.027 363.046 246.065 358.104 251.798C353.163 257.532 355.627 257.648 353.816 260.399C352.004 263.149 354.859 263.639 351.844 264.116C348.828 264.594 342.294 261.33 342.019 258.451C341.744 255.573 343.395 253.79 344.129 252.997C344.863 252.205 346.354 245.038 347.443 243.464C348.532 241.891 351.778 223.699 351.778 223.699C351.778 223.699 355.677 214.726 361.891 213.573C368.105 212.42 374.851 208.806 374.851 208.806" fill="#2F2E41"/>
<path d="M402.035 148.703C408.243 148.703 413.276 143.587 413.276 137.276C413.276 130.966 408.243 125.85 402.035 125.85C395.827 125.85 390.794 130.966 390.794 137.276C390.794 143.587 395.827 148.703 402.035 148.703Z" fill="#A0616A"/>
<path d="M407.927 144.409C407.927 144.409 406.241 151.39 408.809 154.968C411.377 158.546 391.635 156.843 391.635 156.843C391.635 156.843 396.979 145.516 395.007 142.881C393.035 140.247 407.927 144.409 407.927 144.409Z" fill="#A0616A"/>
<path d="M382.693 155.385C380.308 157.961 381.121 172.563 381.121 172.563L382.644 185.605C382.644 185.605 380.821 187.97 381.417 188.914C382.013 189.858 382.988 190.791 381.108 191.233C379.227 191.676 374.894 192.387 376.281 194.461C376.734 195.049 377.219 195.61 377.734 196.143C378.176 196.618 378.701 197.17 379.297 197.785C380.692 199.216 382.465 200.977 384.432 202.834C384.99 203.363 385.561 203.897 386.146 204.436C393.652 211.339 402.986 218.645 404.917 215.139C408.151 209.265 410.398 208.426 410.249 203.427C410.101 198.427 414.263 185.596 414.263 185.596C414.263 185.596 419.103 163.698 412.283 157.171L411.216 155.437C410.721 154.631 409.989 154.003 409.124 153.643C408.259 153.283 407.304 153.209 406.395 153.431C403.066 154.24 397.962 155.357 395.751 155.177C392.335 154.897 393.084 153.469 393.084 153.469C393.084 153.469 385.078 152.81 382.693 155.385Z" fill="#575A89"/>
<path d="M372.153 202.094C372.153 202.094 358.246 205.601 360.286 210.542C362.327 215.484 374.365 206.453 374.365 206.453L372.153 202.094Z" fill="#A0616A"/>
<path d="M408.256 141.457C407.98 141.116 408.253 140.618 408.494 140.25C409.785 138.28 410.031 135.476 408.611 133.6C408.052 132.901 407.352 132.332 406.558 131.93C405.444 131.33 404.228 130.951 402.975 130.812C402.308 130.802 401.649 130.67 401.028 130.422C400.636 130.22 398.786 129.562 398.389 129.37C397.516 128.948 396.302 129.13 395.743 128.329C395.208 127.562 395.707 126.512 396.227 125.735C397.411 123.964 400.406 122.496 402.462 122.031C404.023 121.678 405.652 122.174 407.098 122.867C408.765 123.708 410.346 124.713 411.819 125.87C413.842 127.393 415.835 129.082 417.05 131.323C418.265 133.565 418.558 136.485 417.185 138.63C416.899 139.077 416.55 139.481 416.282 139.939C415.629 141.057 415.511 142.41 415.05 143.623C414.706 144.51 414.184 145.313 413.516 145.982C412.849 146.651 412.051 147.17 411.173 147.506C409.768 148.034 408.039 148.18 407.208 149.448L406.82 146.804C406.719 146.47 406.734 146.112 406.861 145.788C406.989 145.464 407.222 145.194 407.522 145.024L409.513 143.319C409.91 143.044 410.211 142.65 410.374 142.191C410.805 140.364 408.718 142.025 408.256 141.457Z" fill="#2F2E41"/>
<path opacity="0.1" d="M388.319 191.782L379.297 197.785C381.086 199.624 383.503 202.004 386.146 204.436C388.65 203.066 391.204 201.582 393.488 200.092C401.847 194.638 409.013 180.945 412.224 174.303C415.434 167.66 412.821 162.544 412.821 162.544C410.694 161.586 408.443 160.942 406.137 160.632C401.953 159.991 388.319 191.782 388.319 191.782Z" fill="black"/>
<path opacity="0.1" d="M387.127 189.894L377.734 196.143C378.176 196.618 378.702 197.17 379.297 197.785C380.692 199.216 382.465 200.977 384.433 202.834C387.101 201.385 389.854 199.797 392.296 198.204C400.654 192.75 407.821 179.057 411.032 172.415C414.242 165.772 405.604 168.155 405.604 168.155C405.604 168.155 410.086 166.092 405.902 165.451C401.717 164.809 387.127 189.894 387.127 189.894Z" fill="black"/>
<path d="M412.408 161.402C412.408 161.402 415.022 166.518 411.811 173.161C408.6 179.803 401.434 193.496 393.076 198.95C384.718 204.403 372.76 209.775 372.76 209.775C372.76 209.775 371.625 203.458 369.711 202.747L387.906 190.64C387.906 190.64 401.54 158.848 405.725 159.49C408.031 159.8 410.282 160.444 412.408 161.402Z" fill="#575A89"/>
<path d="M375.451 228.86V260.278H378.885V228.323L375.451 228.86Z" fill="#3F3D56"/>
<path d="M380.47 248.194C380.47 248.194 387.074 274.51 382.848 278.269C382.848 278.269 377.3 261.621 373.074 263.769L374.395 248.194H380.47Z" fill="#36334A"/>
<path d="M431.716 190.998L397.376 192.072C397.376 192.072 366.998 222.147 392.093 231.277C392.093 231.277 422.999 236.379 430.396 230.472C430.396 230.472 439.641 193.415 431.716 190.998ZM430.131 200.934L393.414 203.35C393.414 203.35 396.055 194.22 406.622 194.22C417.188 194.22 429.075 191.804 430.131 197.443C431.188 203.082 430.131 200.934 430.131 200.934V200.934Z" fill="#3F3D56"/>
<path d="M423.924 287.399C442.962 287.399 458.396 269.606 458.396 247.657C458.396 225.708 442.962 207.915 423.924 207.915C404.885 207.915 389.452 225.708 389.452 247.657C389.452 269.606 404.885 287.399 423.924 287.399Z" fill="#36334A"/>
<path d="M425.509 277.195C439.879 277.195 451.528 263.971 451.528 247.657C451.528 231.344 439.879 218.119 425.509 218.119C411.139 218.119 399.489 231.344 399.489 247.657C399.489 263.971 411.139 277.195 425.509 277.195Z" fill="#3F3D56"/>
<path d="M432.245 247.254C432.244 246.739 432.193 246.225 432.094 245.72L451.528 235.842L450.207 232.888L430.576 242.611C430.378 242.404 430.159 242.218 429.923 242.057L429.938 242.06L435.679 213.017L430.601 212.9L427.226 241.481L427.549 241.55C427.287 241.605 427.033 241.693 426.792 241.813L409.814 224.097L407.414 227.518L424.858 243.832C424.421 244.686 424.158 245.621 424.086 246.582L399.489 256.787L398.961 261.084L424.6 250.122C424.839 250.725 425.178 251.282 425.602 251.769L417.716 279.075H420.622L427.241 252.88C427.535 252.976 427.842 253.026 428.15 253.028C428.746 253.022 429.328 252.845 429.829 252.516L443.603 271.019L447.83 268.065L431.691 250.145C432.061 249.228 432.25 248.246 432.245 247.254Z" fill="#36334A"/>
<path d="M341.698 150.248C348.703 150.248 354.382 144.475 354.382 137.354C354.382 130.232 348.703 124.459 341.698 124.459C334.692 124.459 329.013 130.232 329.013 137.354C329.013 144.475 334.692 150.248 341.698 150.248Z" fill="#38A169"/>
<path d="M470 269.68C470 276.768 465.856 279.243 460.743 279.243C460.624 279.243 460.506 279.241 460.388 279.238C460.151 279.233 459.916 279.222 459.684 279.205C455.07 278.874 451.485 276.272 451.485 269.68C451.485 262.86 460.058 254.253 460.704 253.615L460.705 253.614C460.73 253.589 460.743 253.576 460.743 253.576C460.743 253.576 470 262.593 470 269.68Z" fill="#38A169"/>
<path d="M460.405 278.158L463.791 273.349L460.397 278.687L460.388 279.238C460.151 279.233 459.916 279.222 459.684 279.205L460.049 272.115L460.046 272.06L460.052 272.05L460.087 271.38L456.684 266.029L460.098 270.877L460.106 271.019L460.381 265.662L457.468 260.133L460.417 264.722L460.704 253.615L460.705 253.576V253.614L460.657 262.372L463.558 258.9L460.646 263.127L460.569 267.924L463.278 263.32L460.558 268.63L460.515 271.297L464.446 264.889L460.5 272.227L460.405 278.158Z" fill="#3F3D56"/>
</g>
<defs>
<clipPath id="clip0">
<rect width="477" height="311" fill="white"/>
</clipPath>
</defs>
</svg>
