<svg width="400" height="300" viewBox="0 0 400 267" fill="none" xmlns="http://www.w3.org/2000/svg">
<g clip-path="url(#clip0)">
<path opacity="0.1" d="M237.034 42.9012C212.099 42.0347 188.351 33.9898 165.67 25.1862C142.989 16.3826 120.532 6.62775 96.1944 1.96408C80.5408 -1.03592 62.6411 -1.45954 50.0274 6.92814C37.8913 15.0154 33.9693 28.9371 31.858 41.8652C30.2745 51.5969 29.3383 61.8331 33.688 70.941C36.7047 77.2645 42.0638 82.579 45.7701 88.6367C58.6613 109.71 49.5496 135.697 35.5758 156.273C29.0262 165.924 21.421 175.144 16.3624 185.411C11.3038 195.678 8.96517 207.458 13.3881 217.941C17.7763 228.339 28.2287 236.134 39.548 241.621C62.5448 252.766 89.6332 255.959 116.071 257.765C174.562 261.766 233.37 260.033 292.016 258.3C313.722 257.657 335.521 257.006 356.873 253.652C368.731 251.788 380.975 248.831 389.582 241.714C400.508 232.652 403.217 217.306 395.897 205.945C383.614 186.886 349.664 182.149 341.069 161.696C336.342 150.439 341.196 137.896 348.061 127.456C362.794 105.054 387.486 85.4057 388.788 59.7998C389.682 42.2157 377.812 24.6046 359.458 16.2824C340.217 7.55972 313.541 8.65728 299.356 23.095C284.731 37.9448 259.048 43.6637 237.034 42.9012Z" fill="#38A169"/>
<path d="M172.883 250.895C172.497 249.501 172.112 248.091 171.341 246.878C170.627 245.849 169.778 244.921 168.818 244.117C166.025 241.583 162.596 239.01 158.893 239.65C157.748 239.903 156.642 240.307 155.603 240.851C155.064 241.101 154.521 241.352 153.966 241.564C152.404 242.216 150.678 242.367 149.027 241.995C148.179 241.768 147.389 241.359 146.553 241.105C146.156 240.986 145.75 240.898 145.34 240.843C146.147 240.482 146.931 240.069 147.686 239.607C151.839 237.065 155.152 232.471 154.69 227.557C154.532 225.905 153.966 224.322 153.403 222.762L151.924 218.673C151.284 216.901 150.622 215.095 149.454 213.624C148.156 211.983 146.307 210.87 144.396 210.042C140.292 208.259 135.808 207.632 131.381 207.023L131.073 206.981V159.177C131.073 158.36 130.748 157.576 130.17 156.999C129.592 156.421 128.808 156.096 127.991 156.096H122.173C121.916 154.525 121.66 152.956 121.403 151.39C120.671 146.919 119.912 142.367 117.85 138.343C116.502 135.709 114.356 133.194 111.463 132.678C110.894 132.626 110.335 132.497 109.802 132.293C108.955 131.877 108.492 130.952 107.841 130.271C106.161 128.511 103.43 128.484 101.18 127.575C99.1918 126.786 97.5659 125.299 95.7552 124.155C93.9444 123.012 91.6944 122.199 89.691 122.942C89.691 123.089 89.664 123.235 89.6486 123.377L88.3618 122.784C86.9748 122.141 85.5609 121.483 84.4474 120.427C83.0181 119.08 82.2553 117.293 81.6619 115.394C81.6003 115.198 81.5425 115.009 81.4809 114.797C83.9435 112.286 85.6106 109.104 86.2736 105.651L86.5857 106.664C86.656 106.891 86.7383 107.115 86.8323 107.334C86.9916 107.757 87.2569 108.132 87.6028 108.424C87.7015 108.501 87.8104 108.565 87.9264 108.612C88.0328 108.654 88.1442 108.683 88.2578 108.697C88.4178 108.717 88.5801 108.705 88.7355 108.662C88.996 108.582 89.2351 108.444 89.4352 108.258C89.6352 108.073 89.7911 107.845 89.8913 107.592C89.9528 107.44 89.998 107.283 90.0262 107.122C90.0411 107.025 90.0501 106.927 90.0531 106.829C90.0531 106.798 90.0531 106.768 90.0531 106.737C90.0531 106.706 90.0531 106.602 90.0531 106.537C90.0531 106.471 90.0531 106.467 90.0531 106.429C90.0531 106.39 90.0531 106.302 90.0339 106.236V106.136C90.0339 106.059 90.0108 105.982 89.9954 105.909C89.9799 105.836 89.9954 105.866 89.9954 105.847C89.9761 105.751 89.953 105.651 89.9337 105.555C89.9337 105.531 89.9337 105.504 89.9337 105.481C89.9337 105.458 89.899 105.323 89.8798 105.243C89.8605 105.162 89.8528 105.139 89.8412 105.085V105.062C89.8027 104.908 89.768 104.757 89.7334 104.603C89.4533 103.267 89.3819 101.895 89.5215 100.537C89.7521 98.5431 90.1202 96.5679 90.6233 94.6251L90.7043 94.2747C90.7351 94.1399 90.7659 94.0051 90.7929 93.8665C90.8545 93.5892 90.9161 93.3119 90.9739 93.0308L91.1126 92.3222L91.2167 91.6906V91.6097C91.4329 90.1786 91.4782 88.7268 91.3515 87.285V87.285C91.1743 85.2708 90.5501 83.3645 89.1824 81.8472C88.2154 80.7728 86.9402 79.9794 86.0425 78.8511C85.2026 77.7959 84.7287 76.4942 83.858 75.4583C81.4539 72.5892 75.2818 70.3787 71.4946 69.9936C67.1565 69.5545 60.1484 70.6636 56.6501 73.2246C55.3556 74.1681 54.4695 75.5353 53.568 76.8292C51.9113 79.2362 50.0312 81.6393 47.3767 82.991C46.375 83.4993 45.2269 83.8844 44.5603 84.7702C44.1638 85.3706 43.9071 86.0523 43.8091 86.7651C43.2986 89.2726 43.0328 91.8237 43.0154 94.3825V94.3825C43.0154 94.7021 43.0154 95.0218 43.0154 95.3453C43.0233 96.3047 43.2278 97.2523 43.6164 98.1296C43.6781 98.2606 43.7474 98.3876 43.8206 98.5147L43.8668 98.5956C44.3328 99.2614 44.7451 99.9633 45.0997 100.694C45.1881 100.899 45.2514 101.114 45.2885 101.334C45.3545 101.898 45.318 102.469 45.1806 103.021V103.021C45.1806 103.105 45.1459 103.19 45.1305 103.275L45.0959 103.44C45.0959 103.498 45.0959 103.556 45.065 103.61C45.0342 103.775 45.0072 103.941 44.9841 104.103C44.9257 104.548 44.9545 105.001 45.0689 105.435C45.1216 105.677 45.2252 105.905 45.3726 106.104C45.52 106.304 45.708 106.469 45.9242 106.59C46.1436 106.696 46.3773 106.768 46.6177 106.806C46.8604 106.848 47.107 106.875 47.3458 106.929C47.653 106.999 47.9496 107.109 48.2281 107.257C48.4949 107.384 48.7447 107.545 48.9717 107.734C49.084 107.836 49.1907 107.944 49.2915 108.058C49.4949 108.291 49.678 108.541 49.8385 108.805C49.9207 108.941 49.9978 109.08 50.0697 109.221C50.3458 109.778 50.5664 110.361 50.7285 110.961C50.8287 111.32 50.9135 111.682 50.9867 112.044C51.0213 112.205 51.0522 112.367 51.0791 112.525C51.1061 112.683 51.1331 112.845 51.1562 113.003C51.2613 112.997 51.3651 112.976 51.4644 112.941C52.0307 112.737 52.3467 112.078 52.5239 111.439C52.5547 111.331 52.5817 111.227 52.6048 111.123C52.6934 110.738 52.7859 110.314 52.8745 109.91C54.3931 113.134 56.8419 115.83 59.9057 117.651C60.0136 117.97 60.1176 118.286 60.21 118.61C60.7148 120.354 60.9575 122.18 60.0829 123.705C59.4588 124.787 58.4108 125.453 57.2396 125.915C57.0707 125.69 56.8535 125.506 56.6039 125.376C55.5906 124.868 54.3732 125.484 53.5217 126.243C51.9807 127.637 50.7247 129.635 48.6981 130.094C47.9661 130.263 47.1571 130.228 46.5483 130.675C46.1457 131.054 45.8085 131.496 45.5505 131.985C45.1107 132.616 44.5194 133.126 43.8307 133.47C43.142 133.813 42.3781 133.978 41.6092 133.949C40.9041 133.914 40.0681 133.752 39.5865 134.268C39.2282 134.653 39.2012 135.262 38.8159 135.628C38.2997 136.136 37.4521 135.89 36.7316 135.859C35.3601 135.801 34.0848 136.687 33.3027 137.823C32.5206 138.959 32.1469 140.318 31.7616 141.674V141.697C31.6628 141.769 31.5688 141.847 31.4804 141.932C31.1068 142.33 30.8173 142.799 30.6289 143.311C27.5132 150.401 25.6742 157.986 25.1966 165.716C25.2042 166.093 25.1196 166.466 24.95 166.802C24.7777 167.022 24.5883 167.228 24.3837 167.418C24.2006 167.642 24.0644 167.901 23.9832 168.179C23.9019 168.456 23.8773 168.747 23.9107 169.035C23.9441 169.322 24.0349 169.6 24.1777 169.851C24.3205 170.103 24.5124 170.323 24.742 170.499C24.8529 170.298 24.9916 170.114 25.1542 169.952C25.1118 170.13 25.0733 170.303 25.0464 170.461C24.8916 171.584 24.8774 172.723 25.004 173.85C25.3687 179.2 25.7373 184.547 26.1097 189.89C26.2137 191.403 26.3178 192.913 26.4564 194.422C26.7261 197.344 27.1114 200.254 27.6123 203.153C27.6354 203.284 27.6623 203.418 27.697 203.538C24.5571 204.535 21.7638 206.338 20.5888 209.345C20.1804 210.385 19.9955 211.517 19.4946 212.515C18.9437 213.608 18.0383 214.483 17.4373 215.553C16.4009 217.394 16.3546 219.651 16.7322 221.715C17.4604 225.739 19.6372 229.336 22.5113 232.263C22.3841 232.263 22.2531 232.263 22.126 232.263C21.187 232.367 20.2856 232.69 19.4946 233.207C13.415 236.757 9.93988 244.375 11.2074 251.33C11.4578 252.689 11.8932 254.068 12.8024 255.104C13.5582 255.927 14.53 256.523 15.6072 256.822C16.2809 257.024 16.9746 257.153 17.6761 257.207C22.415 257.592 27.0035 255.397 31.7539 255.212C33.3276 255.187 34.9013 255.26 36.4658 255.431C38.7543 255.621 41.0467 255.742 43.3429 255.793C47.0762 255.882 49.1759 254.888 51.5569 252.1C52.1421 251.407 52.6307 250.637 53.0093 249.813C55.0359 249.697 57.2743 249.52 58.8924 249.389L58.9155 249.612C59.0041 250.383 59.139 251.268 59.7554 251.754C60.1022 251.993 60.4964 252.154 60.9112 252.227C64.8025 253.182 68.7399 254.153 72.7468 254.153C74.6271 254.115 76.5038 253.971 78.3679 253.721L85.4068 252.909C87.4579 253.169 89.4821 253.609 91.4555 254.226C93.4898 254.915 95.3892 255.94 97.3772 256.752C102 258.624 106.97 259.294 111.894 259.949C112.734 260.06 113.697 260.137 114.318 259.564C115.119 258.793 114.853 257.507 114.626 256.429C114.533 255.986 114.464 255.543 114.41 255.096C117.733 255.972 120.983 257.1 124.134 258.47L124.685 258.712C124.847 259.552 125.621 260.222 126.365 261.127C126.609 261.509 126.895 261.863 127.216 262.182C127.584 262.421 128.002 262.571 128.438 262.621C133.636 263.589 138.943 263.829 144.207 263.334C145.284 263.187 146.374 263.15 147.459 263.222C148.256 263.331 149.042 263.507 149.809 263.75L154.266 265.028C157.553 265.968 160.916 266.919 164.326 266.707C165.017 266.664 165.704 266.565 166.379 266.411C169.076 265.787 171.588 264.281 172.883 261.859C174.713 258.566 173.869 254.515 172.883 250.895Z" fill="url(#paint0_linear)"/>
<path d="M48.1665 250.144C47.3536 248.295 46.5831 246.169 47.396 244.321C47.9266 243.232 48.8382 242.376 49.958 241.914C51.0662 241.462 52.2343 241.174 53.4255 241.059C57.1643 240.569 60.9477 240.517 64.6985 240.905C64.9721 243.069 64.3942 245.264 63.8972 247.356C63.4464 249.281 63.1883 249.566 61.2003 249.666C59.9135 249.736 48.4709 250.825 48.1665 250.144Z" fill="#FBBEBE"/>
<path d="M82.4749 237.674C112.902 237.674 137.569 230.777 137.569 222.27C137.569 213.762 112.902 206.865 82.4749 206.865C52.0474 206.865 27.3811 213.762 27.3811 222.27C27.3811 230.777 52.0474 237.674 82.4749 237.674Z" fill="#464353"/>
<path opacity="0.1" d="M82.4749 237.674C112.902 237.674 137.569 230.777 137.569 222.27C137.569 213.762 112.902 206.865 82.4749 206.865C52.0474 206.865 27.3811 213.762 27.3811 222.27C27.3811 230.777 52.0474 237.674 82.4749 237.674Z" fill="black"/>
<path d="M92.3533 140.95C90.4649 144.597 87.3284 147.446 83.5152 148.976C81.264 149.796 78.8947 150.246 76.4994 150.308C73.8834 150.427 71.2135 150.258 68.7555 149.365C65.4576 148.171 62.7183 145.729 60.6648 142.883C58.6113 140.037 57.1973 136.787 55.9683 133.51C55.3211 131.804 54.7046 129.986 55.009 128.184C56.9932 127.733 59.1661 127.071 60.1909 125.311C61.0655 123.801 60.8227 121.991 60.318 120.266C60.1755 119.777 60.0098 119.291 59.8442 118.825C59.4589 117.709 58.1297 115.587 59.0736 114.632C59.6631 114.027 62.1327 113.719 62.9841 113.326C65.6078 112.117 68.0273 110.368 70.9091 109.795C73.4019 109.298 75.9755 109.764 78.4643 110.28C78.7944 110.328 79.1115 110.442 79.3967 110.615C79.7218 110.889 79.9623 111.249 80.0902 111.655C80.7991 113.38 81.2152 115.286 81.7854 117.085C82.3787 118.968 83.1415 120.736 84.5709 122.072C85.6843 123.115 87.1021 123.77 88.4891 124.406L91.9026 125.969C92.5098 126.196 93.0605 126.552 93.5169 127.013C93.9633 127.626 94.2301 128.352 94.2874 129.108C94.899 133.16 94.2225 137.302 92.3533 140.95V140.95Z" fill="#FBBEBE"/>
<path opacity="0.1" d="M81.7699 117.085C79.0516 119.914 75.4709 121.761 71.5893 122.336C67.7077 122.912 63.7447 122.184 60.3218 120.266C60.1793 119.777 60.0136 119.291 59.8479 118.825C59.4627 117.709 58.1335 115.587 59.0774 114.632C59.6669 114.027 62.1364 113.719 62.9879 113.326C65.6116 112.117 68.0311 110.368 70.9129 109.795C73.4056 109.298 75.9792 109.764 78.4681 110.28C78.7982 110.328 79.1153 110.442 79.4004 110.615C79.7256 110.889 79.9661 111.249 80.0939 111.655C80.7836 113.38 81.1997 115.286 81.7699 117.085Z" fill="black"/>
<path d="M68.9905 121.756C78.7784 121.756 86.713 113.825 86.713 104.041C86.713 94.2575 78.7784 86.3262 68.9905 86.3262C59.2027 86.3262 51.2681 94.2575 51.2681 104.041C51.2681 113.825 59.2027 121.756 68.9905 121.756Z" fill="#FBBEBE"/>
<path d="M122.986 161.534L121.53 152.715C120.794 148.29 120.035 143.781 117.978 139.795C116.625 137.184 114.479 134.696 111.586 134.18C111.016 134.129 110.456 133.999 109.922 133.795C109.074 133.386 108.612 132.47 107.961 131.792C106.281 130.051 103.545 130.024 101.296 129.139C99.3075 128.368 97.6817 126.886 95.8709 125.754C94.0601 124.621 91.8063 123.828 89.8029 124.552C89.4792 127.999 89.1364 131.522 87.6723 134.661C86.7194 136.704 85.3217 138.509 83.5813 139.943C81.841 141.377 79.802 142.404 77.6135 142.948C75.4251 143.493 73.1425 143.542 70.9326 143.092C68.7227 142.642 66.6415 141.703 64.8412 140.345C61.4084 137.761 59.2085 133.775 58.1837 129.605C57.9332 128.588 57.6481 127.421 56.7119 126.955C55.6987 126.447 54.4812 127.063 53.6298 127.81C52.0887 129.193 50.8288 131.172 48.8023 131.638C48.0703 131.807 47.2612 131.773 46.6525 132.216C46.2479 132.589 45.9093 133.028 45.6508 133.514C45.2073 134.14 44.6148 134.646 43.9267 134.986C43.2386 135.326 42.4766 135.49 41.7095 135.462C41.0044 135.428 40.1684 135.266 39.6868 135.778C39.3285 136.163 39.3015 136.764 38.9163 137.122C38.3961 137.626 37.5524 137.38 36.8281 137.353C35.4565 137.295 34.1813 138.173 33.3953 139.279C32.6094 140.384 32.2395 141.751 31.8542 143.076C36.0653 152.449 39.918 161.834 44.129 171.208C44.3263 171.561 44.431 171.959 44.4333 172.363C44.3489 172.783 44.1697 173.178 43.9094 173.519C41.8443 176.834 41.9098 181.005 42.1371 184.902C42.3644 188.8 42.6418 192.917 40.9004 196.41C40.4265 197.368 39.8101 198.247 39.3593 199.205C38.3037 201.377 37.9223 208.325 38.5387 210.659H125.641C123.98 206.095 124.612 196.937 124.959 192.092C125.202 188.704 124.574 185.318 124.304 181.929C123.714 175.009 124.131 168.443 122.986 161.534Z" fill="#38A169"/>
<path d="M25.1815 171.624C25.0273 172.738 25.0118 173.868 25.1352 174.986L26.241 190.879C26.345 192.377 26.449 193.872 26.5877 195.366C26.8535 198.266 27.2504 201.142 27.7435 204.015C27.7546 204.423 27.9272 204.81 28.2233 205.091C28.5195 205.372 28.915 205.524 29.3231 205.513C34.1968 206.546 39.2323 206.503 44.2062 206.222C51.796 205.798 59.3743 204.832 66.9757 204.997C68.9329 205.04 71.2137 204.997 72.4003 203.457C73.5869 201.917 72.8973 199.425 71.3485 198.181C69.7997 196.937 67.6961 196.641 65.7081 196.641C63.0767 196.614 60.4453 196.987 57.8216 196.833C55.4137 196.691 53.0597 196.109 50.7249 195.528L44.1753 193.899C44.4258 191.915 45.1809 190.047 45.8975 188.164C47.1843 184.825 48.3863 181.375 48.4095 177.797C48.4326 174.219 47.0841 170.457 44.1522 168.408C41.7404 166.725 38.6351 166.413 35.6955 166.483C33.5573 166.544 29.8625 166.032 27.9092 166.868C26.3643 167.546 25.4704 170.11 25.1815 171.624Z" fill="#FBBEBE"/>
<path d="M127.444 207.963C128.727 207.474 130.141 207.651 131.516 207.836C135.943 208.44 140.435 209.06 144.538 210.828C146.465 211.652 148.299 212.753 149.601 214.375C150.757 215.834 151.431 217.621 152.07 219.381L153.55 223.432C154.112 224.973 154.683 226.544 154.841 228.181C155.303 233.029 151.986 237.601 147.813 240.119C143.641 242.638 138.729 243.535 133.943 244.475C129.158 245.414 124.354 246.454 119.588 247.556C117.365 248.132 115.11 248.576 112.834 248.884C107.733 249.462 102.401 248.611 97.5546 250.298C95.6283 250.972 93.7366 251.973 91.737 252.439C90.4088 252.718 89.066 252.923 87.7148 253.051L78.5415 254.099C76.6761 254.348 74.7981 254.492 72.9165 254.53C68.9097 254.53 64.9684 253.583 61.0772 252.635C60.6635 252.563 60.2696 252.404 59.9213 252.169C59.3049 251.684 59.1701 250.825 59.0815 250.047C58.6885 246.604 58.3443 243.158 58.0489 239.707C57.9565 238.586 57.8871 237.373 58.4997 236.43C59.2702 235.275 60.7728 234.913 62.1444 234.689C67.9603 233.738 73.852 233.329 79.7435 233.468C81.982 231.231 85.6729 231.219 88.6048 230.002C89.6834 229.507 90.7273 228.94 91.7293 228.304C96.9739 225.246 102.835 223.394 108.885 222.886C110.07 222.849 111.248 222.682 112.395 222.385C114.665 221.68 116.733 219.762 119.064 220.232C119.353 219.435 119.554 218.368 120.22 217.821C120.551 217.54 120.96 217.352 121.264 217.051C121.908 216.4 121.965 215.376 121.869 214.467C121.773 213.558 121.557 212.626 121.792 211.741C121.89 211.405 122.034 211.085 122.22 210.789C123.375 208.794 125.121 207.77 127.444 207.963Z" fill="#464353"/>
<path opacity="0.05" d="M127.444 207.963C128.727 207.474 130.141 207.651 131.516 207.836C135.943 208.44 140.435 209.06 144.538 210.828C146.465 211.652 148.299 212.753 149.601 214.375C150.757 215.834 151.431 217.621 152.07 219.381L153.55 223.432C154.112 224.973 154.683 226.544 154.841 228.181C155.303 233.029 151.986 237.601 147.813 240.119C143.641 242.638 138.729 243.535 133.943 244.475C129.158 245.414 124.354 246.454 119.588 247.556C117.365 248.132 115.11 248.576 112.834 248.884C107.733 249.462 102.401 248.611 97.5546 250.298C95.6283 250.972 93.7366 251.973 91.737 252.439C90.4088 252.718 89.066 252.923 87.7148 253.051L78.5415 254.099C76.6761 254.348 74.7981 254.492 72.9165 254.53C68.9097 254.53 64.9684 253.583 61.0772 252.635C60.6635 252.563 60.2696 252.404 59.9213 252.169C59.3049 251.684 59.1701 250.825 59.0815 250.047C58.6885 246.604 58.3443 243.158 58.0489 239.707C57.9565 238.586 57.8871 237.373 58.4997 236.43C59.2702 235.275 60.7728 234.913 62.1444 234.689C67.9603 233.738 73.852 233.329 79.7435 233.468C81.982 231.231 85.6729 231.219 88.6048 230.002C89.6834 229.507 90.7273 228.94 91.7293 228.304C96.9739 225.246 102.835 223.394 108.885 222.886C110.07 222.849 111.248 222.682 112.395 222.385C114.665 221.68 116.733 219.762 119.064 220.232C119.353 219.435 119.554 218.368 120.22 217.821C120.551 217.54 120.96 217.352 121.264 217.051C121.908 216.4 121.965 215.376 121.869 214.467C121.773 213.558 121.557 212.626 121.792 211.741C121.89 211.405 122.034 211.085 122.22 210.789C123.375 208.794 125.121 207.77 127.444 207.963Z" fill="black"/>
<path d="M51.7111 252.524C49.3262 255.285 47.2265 256.271 43.4932 256.182C41.197 256.128 38.9034 256.009 36.6123 255.824C35.0463 255.655 33.4715 255.582 31.8966 255.605C27.1423 255.79 22.5538 257.965 17.8111 257.584C17.1098 257.529 16.4163 257.4 15.7422 257.199C14.6662 256.903 13.6939 256.313 12.9335 255.497C12.0243 254.469 11.5889 253.105 11.3385 251.757C10.071 244.849 13.5461 237.323 19.6295 233.807C20.4233 233.295 21.3256 232.975 22.2648 232.872C23.1858 232.868 24.0962 233.068 24.9309 233.457L24.9887 233.48C27.4602 234.497 29.7049 235.994 31.5922 237.886C31.8786 238.214 32.2202 238.489 32.6016 238.698C32.9823 238.842 33.3853 238.918 33.7921 238.922L38.8546 239.241C39.7123 239.267 40.5647 239.384 41.3974 239.592C42.3153 239.912 43.2088 240.298 44.0711 240.747C46.795 241.964 49.8155 242.288 52.759 242.757C53.0427 242.773 53.3133 242.881 53.5296 243.065C53.647 243.212 53.7288 243.383 53.7684 243.566C54.1821 245.114 54.2109 246.739 53.8523 248.3C53.4937 249.862 52.7586 251.311 51.7111 252.524V252.524Z" fill="#3F3D56"/>
<path opacity="0.1" d="M24.9887 233.484C23.0245 235.359 21.3206 237.488 19.9224 239.815C17.6785 243.656 16.2687 247.926 15.7845 252.347C15.6009 253.96 15.5867 255.587 15.7422 257.203C14.6662 256.907 13.6939 256.317 12.9335 255.501C12.0243 254.473 11.5889 253.109 11.3385 251.761C10.071 244.852 13.5461 237.327 19.6295 233.811C20.4233 233.299 21.3256 232.979 22.2648 232.876C23.1858 232.872 24.0962 233.072 24.9309 233.461L24.9887 233.484Z" fill="black"/>
<path d="M123.036 243.066C125.868 242.989 129.047 242.846 131.127 244.752C133.111 246.555 133.373 249.528 133.504 252.204L133.654 255.312C133.701 256.259 133.739 257.238 133.358 258.116C132.68 259.656 130.819 260.399 129.12 260.311C127.421 260.222 125.86 259.479 124.308 258.809C120.092 256.994 115.703 255.612 111.208 254.684C111.355 252.535 111.599 250.397 111.941 248.268C112.176 246.793 112.214 244.325 113.2 243.1C114.244 241.806 115.604 242.507 117.022 242.746C119.012 243.049 121.026 243.156 123.036 243.066V243.066Z" fill="#FBBEBE"/>
<path d="M48.2014 211.837C48.2014 212.222 47.5965 211.837 47.5426 211.425C47.1188 208.309 44.6454 205.741 41.7635 204.493C38.8817 203.245 35.5992 203.18 32.4785 203.476C27.7589 203.923 22.4615 205.729 20.7354 210.139C20.3271 211.171 20.1421 212.288 19.6413 213.277C19.0865 214.363 18.1811 215.23 17.5801 216.285C16.5437 218.111 16.5013 220.348 16.875 222.412C17.8806 227.919 21.6485 232.629 26.214 235.891C30.7795 239.153 36.1155 241.102 41.4361 242.858C55.5049 247.496 69.9393 250.942 84.5864 253.159C86.9597 253.517 89.3561 253.849 91.6292 254.611C93.6634 255.293 95.5666 256.313 97.5546 257.114C102.178 258.971 107.152 259.633 112.079 260.284C112.919 260.392 113.882 260.469 114.503 259.899C115.304 259.155 115.038 257.861 114.811 256.795C113.975 252.739 114.676 248.517 116.78 244.949C117.604 243.562 118.675 242.141 118.521 240.535C118.336 238.664 116.471 237.339 114.614 237.039C112.757 236.738 110.87 237.181 109.005 237.424C108.361 237.508 107.66 237.562 107.098 237.235C106.821 237.048 106.569 236.825 106.35 236.573C105.066 235.334 103.422 234.534 101.654 234.287C99.8863 234.04 98.0857 234.359 96.5105 235.198C95.8209 235.583 94.7768 234.724 94.0602 234.401L85.958 230.734C76.6498 226.525 67.2954 222.297 57.4479 219.632C56.6622 219.477 55.9155 219.167 55.2519 218.719C54.7626 218.334 54.412 217.81 53.9612 217.383C52.9788 216.455 51.6111 216.085 50.4321 215.426C49.2532 214.768 47.9317 213.158 48.2014 211.837Z" fill="#464353"/>
<path d="M173.11 262.167C171.815 264.566 169.304 266.06 166.607 266.677C165.93 266.829 165.242 266.927 164.549 266.969C161.14 267.181 157.772 266.238 154.486 265.306L150.025 264.05C149.258 263.809 148.471 263.634 147.674 263.526C146.589 263.454 145.5 263.491 144.423 263.638C139.15 264.128 133.834 263.89 128.627 262.929C128.191 262.882 127.772 262.733 127.405 262.494C127.084 262.179 126.798 261.829 126.554 261.451C125.34 259.991 124.034 259.14 125.471 257.214C126.3 256.098 127.837 255.539 128.48 254.257C129.124 252.974 128.711 251.153 128.33 249.828C127.81 247.999 126.099 247.209 125.487 245.53C125.028 244.263 125.799 242.792 126.958 242.103C128.118 241.413 129.551 241.359 130.888 241.537C132.225 241.714 133.535 242.091 134.88 242.195C138.832 242.511 142.874 240.474 146.669 241.621C147.505 241.875 148.295 242.28 149.142 242.503C150.795 242.873 152.521 242.723 154.085 242.076C154.64 241.868 155.183 241.617 155.723 241.371C156.763 240.83 157.871 240.429 159.017 240.181C162.719 239.546 166.152 242.107 168.945 244.606C169.904 245.401 170.753 246.321 171.469 247.34C172.239 248.542 172.648 249.94 173.01 251.318C174.031 254.881 174.875 258.893 173.11 262.167Z" fill="#3F3D56"/>
<path opacity="0.1" d="M173.11 262.167C171.815 264.566 169.303 266.06 166.607 266.677C167.656 264.639 168.129 262.354 167.974 260.068C167.743 256.406 166.133 252.955 164.079 249.913C162.816 248.04 161.379 246.29 159.787 244.687C158.562 243.455 157.056 242.476 155.738 241.348C156.778 240.807 157.886 240.407 159.032 240.158C162.735 239.523 166.167 242.084 168.961 244.583C169.919 245.378 170.768 246.298 171.484 247.317C172.255 248.519 172.663 249.917 173.025 251.295C174.031 254.881 174.874 258.894 173.11 262.167Z" fill="black"/>
<path d="M31.6347 143.361C31.2594 143.753 30.9683 144.219 30.7794 144.728C27.6651 151.743 25.8256 159.257 25.347 166.918C25.3554 167.291 25.2693 167.661 25.0966 167.992C24.9263 168.213 24.7368 168.418 24.5303 168.605C24.3427 168.827 24.2027 169.085 24.119 169.364C24.0353 169.642 24.0096 169.935 24.0436 170.223C24.0775 170.512 24.1704 170.791 24.3164 171.042C24.4624 171.294 24.6584 171.513 24.8924 171.685C25.5281 170.488 27.0499 170.099 28.4022 169.995C34.8787 169.483 41.2048 172.494 47.7005 172.267C47.242 170.684 46.5832 169.163 46.2095 167.561C44.5567 160.448 48.6791 152.703 46.1517 145.852C45.647 144.481 44.8032 143.133 43.4741 142.533C42.9237 142.31 42.3478 142.158 41.7596 142.078C40.1183 141.782 36.8512 140.515 35.2639 141.023C34.6783 141.212 34.4471 141.762 33.9617 142.094C33.2258 142.567 32.2473 142.741 31.6347 143.361Z" fill="#38A169"/>
<path d="M128.141 157.379H48.367C46.6711 157.379 45.2964 158.753 45.2964 160.448V208.995C45.2964 210.69 46.6711 212.064 48.367 212.064H128.141C129.837 212.064 131.212 210.69 131.212 208.995V160.448C131.212 158.753 129.837 157.379 128.141 157.379Z" fill="#3F3D56"/>
<path d="M88.0614 187.032C89.3381 187.032 90.373 185.998 90.373 184.722C90.373 183.445 89.3381 182.411 88.0614 182.411C86.7847 182.411 85.7498 183.445 85.7498 184.722C85.7498 185.998 86.7847 187.032 88.0614 187.032Z" fill="white"/>
<path d="M56.7467 75.2887C55.4522 76.2246 54.5661 77.5686 53.6645 78.8587C52.004 81.2425 50.1239 83.6225 47.4694 84.9511C46.4638 85.4556 45.3157 85.8369 44.6492 86.7149C44.2536 87.3087 43.9968 87.984 43.8979 88.6905C43.3894 91.175 43.1236 93.7029 43.1042 96.2387C43.1042 97.5018 43.1582 98.8035 43.7168 99.9511C44.2446 101.029 45.1963 101.942 45.3928 103.117C45.543 104.033 45.204 104.946 45.0845 105.866C44.9651 106.787 45.1732 107.877 46.0246 108.316C46.4834 108.488 46.9625 108.601 47.4501 108.651C50.0122 109.221 50.8713 112.225 51.2604 114.709C52.1311 114.658 52.5241 113.661 52.7052 112.848L55.3751 100.983C55.6641 99.697 56.1457 98.2066 57.4286 97.756C58.2878 97.4595 59.2278 97.7368 60.1255 97.8138C63.6508 98.1026 66.6328 95.3799 70.0809 94.6289C71.1847 94.4063 72.3131 94.3312 73.4366 94.4056C76.1567 94.5404 79.3197 95.6572 79.8976 98.195C79.994 98.6071 80.0518 99.1 80.437 99.3042C80.8223 99.5083 81.2268 99.335 81.6314 99.3042C83.3574 99.1309 84.3745 101.072 84.8715 102.658L86.6823 108.435C86.952 109.309 87.4066 110.338 88.3543 110.449C89.2289 110.557 89.9725 109.729 90.1035 108.909C90.2345 108.088 89.9494 107.237 89.7606 106.413C88.9091 102.62 90.2113 98.738 91.005 94.937C91.7987 91.136 91.9412 86.7688 89.279 83.842C88.312 82.783 87.0406 81.9935 86.139 80.8767C85.2991 79.8292 84.8252 78.5429 83.9545 77.5147C81.5466 74.6764 75.3707 72.4852 71.5835 72.1231C67.2569 71.6533 60.245 72.7509 56.7467 75.2887Z" fill="#3F3D56"/>
<g opacity="0.1">
<path opacity="0.1" d="M88.3697 107.753C87.422 107.638 86.9674 106.598 86.6977 105.739C86.0941 103.811 85.4905 101.886 84.8869 99.9627C84.3899 98.3722 83.3728 96.4312 81.6468 96.6084C81.2422 96.6508 80.8069 96.8086 80.4524 96.6084C80.098 96.4081 80.0094 95.9113 79.913 95.4993C79.3351 92.9576 76.1721 91.8446 73.452 91.7098C72.3287 91.6361 71.2005 91.7099 70.0963 91.9293C66.6481 92.6995 63.6662 95.3953 60.1409 95.1142C59.2317 95.041 58.2916 94.7637 57.444 95.0603C56.1457 95.507 55.6795 96.9858 55.3905 98.2875L52.7206 110.149C52.5395 110.965 52.1465 111.963 51.2758 112.009C50.8906 109.529 50.0276 106.525 47.4655 105.955C46.9785 105.901 46.4999 105.789 46.04 105.62C45.7048 105.437 45.4424 105.145 45.2964 104.792C45.2271 105.15 45.1462 105.508 45.0999 105.866C44.9844 106.783 45.1886 107.877 46.04 108.316C46.4988 108.488 46.9779 108.601 47.4655 108.651C50.0276 109.221 50.8867 112.225 51.2758 114.709C52.1465 114.658 52.5395 113.661 52.7206 112.848L55.3905 100.983C55.6795 99.697 56.1611 98.2066 57.444 97.756C58.3032 97.4595 59.2432 97.7368 60.1409 97.8138C63.6662 98.1026 66.6481 95.3799 70.0963 94.6289C71.2001 94.4063 72.3285 94.3312 73.452 94.4056C76.1721 94.5404 79.3351 95.6572 79.913 98.195C80.0094 98.6071 80.0671 99.1 80.4524 99.3042C80.8377 99.5083 81.2422 99.335 81.6468 99.3042C83.3728 99.1309 84.3899 101.072 84.8869 102.658C85.4879 104.587 86.0915 106.512 86.6977 108.435C86.9674 109.309 87.422 110.338 88.3697 110.449C89.2443 110.557 89.9879 109.729 90.1189 108.909C90.1781 108.219 90.0995 107.523 89.8877 106.864C89.7503 107.145 89.5329 107.379 89.2629 107.537C88.9929 107.696 88.6822 107.771 88.3697 107.753V107.753Z" fill="black"/>
<path opacity="0.1" d="M45.3967 100.421C45.2002 99.2462 44.2409 98.3335 43.7207 97.2552C43.3863 96.5279 43.1929 95.7439 43.1505 94.9446C43.1505 95.3759 43.112 95.8072 43.1082 96.2424C43.1082 97.5056 43.1621 98.8072 43.7207 99.9548C44.1484 100.829 44.8534 101.599 45.2079 102.489C45.3948 101.816 45.4587 101.116 45.3967 100.421V100.421Z" fill="black"/>
<path opacity="0.1" d="M91.0204 92.2258C90.3192 95.584 89.225 99.0038 89.5641 102.37C89.7837 99.8857 90.508 97.3863 91.0204 94.9216C91.4478 93.05 91.5984 91.1258 91.4673 89.2104C91.3837 90.2242 91.2344 91.2314 91.0204 92.2258Z" fill="black"/>
</g>
<g opacity="0.8">
<path opacity="0.8" d="M127.155 111.87H367.973" stroke="#3F3D56" stroke-width="3" stroke-miterlimit="10"/>
<path opacity="0.8" d="M148.549 111.867C148.549 111.867 160.065 113.465 154.101 101.114C148.137 88.7639 170.282 91.1016 170.282 91.1016" stroke="#3F3D56" stroke-width="3" stroke-miterlimit="10"/>
<path opacity="0.8" d="M225.245 111.867C225.245 111.867 236.761 110.272 230.797 122.623C224.833 134.973 246.978 132.636 246.978 132.636" stroke="#3F3D56" stroke-width="3" stroke-miterlimit="10"/>
<path opacity="0.8" d="M335.675 111.867C335.675 111.867 324.156 110.272 330.124 122.623C336.091 134.973 313.942 132.636 313.942 132.636" stroke="#3F3D56" stroke-width="3" stroke-miterlimit="10"/>
<path opacity="0.8" d="M313.942 132.632H250.399" stroke="#3F3D56" stroke-width="3" stroke-miterlimit="10"/>
<path opacity="0.8" d="M127.155 118.899C131.038 118.899 134.186 115.752 134.186 111.871C134.186 107.989 131.038 104.842 127.155 104.842C123.272 104.842 120.124 107.989 120.124 111.871C120.124 115.752 123.272 118.899 127.155 118.899Z" fill="#38A169"/>
<path opacity="0.8" d="M170.402 98.0296C174.285 98.0296 177.433 94.883 177.433 91.0014C177.433 87.1198 174.285 83.9731 170.402 83.9731C166.519 83.9731 163.371 87.1198 163.371 91.0014C163.371 94.883 166.519 98.0296 170.402 98.0296Z" fill="#3ACC6C"/>
<path opacity="0.8" d="M170.402 118.899C174.285 118.899 177.433 115.752 177.433 111.871C177.433 107.989 174.285 104.842 170.402 104.842C166.519 104.842 163.371 107.989 163.371 111.871C163.371 115.752 166.519 118.899 170.402 118.899Z" fill="#38A169"/>
<path opacity="0.8" d="M198.311 118.899C202.194 118.899 205.342 115.752 205.342 111.871C205.342 107.989 202.194 104.842 198.311 104.842C194.427 104.842 191.28 107.989 191.28 111.871C191.28 115.752 194.427 118.899 198.311 118.899Z" fill="#38A169"/>
<path opacity="0.8" d="M247.094 139.556C250.977 139.556 254.125 136.409 254.125 132.528C254.125 128.646 250.977 125.499 247.094 125.499C243.21 125.499 240.062 128.646 240.062 132.528C240.062 136.409 243.21 139.556 247.094 139.556Z" fill="#FF6584"/>
<path opacity="0.8" d="M283.956 139.556C287.84 139.556 290.988 136.409 290.988 132.528C290.988 128.646 287.84 125.499 283.956 125.499C280.073 125.499 276.925 128.646 276.925 132.528C276.925 136.409 280.073 139.556 283.956 139.556Z" fill="#FF6584"/>
<path opacity="0.8" d="M282.034 118.899C285.917 118.899 289.065 115.752 289.065 111.871C289.065 107.989 285.917 104.842 282.034 104.842C278.151 104.842 275.003 107.989 275.003 111.871C275.003 115.752 278.151 118.899 282.034 118.899Z" fill="#38A169"/>
<path opacity="0.8" d="M366.193 118.899C370.076 118.899 373.224 115.752 373.224 111.871C373.224 107.989 370.076 104.842 366.193 104.842C362.309 104.842 359.161 107.989 359.161 111.871C359.161 115.752 362.309 118.899 366.193 118.899Z" fill="#38A169"/>
<path opacity="0.8" d="M331.765 118.899C335.648 118.899 338.796 115.752 338.796 111.871C338.796 107.989 335.648 104.842 331.765 104.842C327.881 104.842 324.733 107.989 324.733 111.871C324.733 115.752 327.881 118.899 331.765 118.899Z" fill="#38A169"/>
<path opacity="0.8" d="M138.933 47.2375H115.343V63.4892H138.933V47.2375Z" fill="#38A169"/>
<path opacity="0.8" d="M182.284 47.2375H158.693V63.4892H182.284V47.2375Z" fill="#3ACC6C"/>
<path opacity="0.8" d="M258.791 47.2375H235.2V63.4892H258.791V47.2375Z" fill="#FF6584"/>
</g>
<g opacity="0.1">
<path opacity="0.1" d="M33.268 115.286C33.268 115.286 4.46132 103.178 0.685663 125.026C0.685663 125.026 -1.28307 128.43 1.45621 131.241C1.45621 131.241 2.04567 129.732 4.82733 131.291C5.82085 131.841 6.8762 132.27 7.97114 132.57C9.44985 132.978 11.0211 132.894 12.448 132.331V132.331C12.448 132.331 21.9218 131.819 29.8892 119.43C29.8892 119.43 33.3066 117.32 33.4761 116.526L27.7664 116.911C27.7664 116.911 28.2056 121.09 25.84 123.597C25.84 123.597 27.9359 117.112 26.9303 116.931C26.7261 116.892 23.9137 117.262 23.9137 117.262C23.9137 117.262 24.6418 124.529 20.8315 128.287C20.8315 128.287 24.3683 120.897 22.831 117.393L18.6162 118.205C18.6162 118.205 19.772 125.85 15.6034 130.294C15.6034 130.294 19.0323 122.438 17.7069 118.448L13.6732 119.804C13.6732 119.804 14.644 127.279 11.1573 130.972C11.1573 130.972 14.201 121.494 12.7678 120.189C12.7678 120.189 9.13851 121.66 8.36412 122.499C8.36412 122.499 8.93817 127.891 6.72286 129.836C6.72286 129.836 8.08287 123.289 7.40865 123.019C7.40865 123.019 3.19378 126.192 1.90697 128.931C1.90697 128.931 3.5097 124.748 6.88082 122.384C6.88082 122.384 4.04908 121.906 1.8723 123.089C1.8723 123.089 3.32862 120.312 7.90179 121.629C7.90179 121.629 11.2883 119.284 11.9664 119.318C11.9664 119.318 7.63981 117.393 4.51526 117.631C4.51526 117.631 7.86712 115.706 13.022 118.922L17.0481 117.47C17.0481 117.47 11.4617 114.608 8.66463 114.62C8.66463 114.62 12.3863 113.18 18.0922 117.185L22.2146 116.345C22.2146 116.345 17.5914 113.515 14.4745 112.856C14.4745 112.856 18.2116 112.263 23.4051 116.149L26.2214 115.914C26.2214 115.914 22.8118 113.904 21.7793 113.415C20.7467 112.925 20.793 112.61 20.793 112.61C23.2432 113.029 25.5291 114.12 27.3965 115.76C27.3965 115.76 33.2449 115.644 33.268 115.286Z" fill="#38A169"/>
</g>
<g opacity="0.1">
<path opacity="0.1" d="M32.2048 93.5815C32.2048 93.5815 22.0028 69.9859 7.30471 80.8074C7.30471 80.8074 4.19942 81.7086 4.22254 84.9281C4.22254 84.9281 5.43229 84.3658 6.19898 86.8806C6.48011 87.7726 6.8682 88.6274 7.3548 89.4262C7.99791 90.5119 8.97895 91.3572 10.148 91.8331C10.148 91.8331 16.0696 96.9242 27.8705 94.1014C27.8705 94.1014 31.1068 94.7907 31.6577 94.421L28.0516 91.3902C28.0516 91.3902 25.9287 94.1245 23.0854 94.2554C23.0854 94.2554 28.0284 91.5982 27.5353 90.9165C27.4351 90.7779 25.5512 89.3992 25.5512 89.3992C25.5512 89.3992 21.8448 94.1283 17.4605 94.2015C17.4605 94.2015 23.7751 91.8215 24.8577 88.8678L21.8911 86.9422C21.8911 86.9422 18.1501 92.145 13.1416 92.4146C13.1416 92.4146 19.6565 89.6996 21.1436 86.5725L17.9729 85.0821C17.9729 85.0821 14.2897 90.0886 10.1249 90.2773C10.1249 90.2773 17.3372 86.38 17.2254 84.7895C17.2254 84.7895 14.2319 83.5956 13.2803 83.6649C13.2803 83.6649 10.5564 87.1887 8.12534 87.0886C8.12534 87.0886 12.6677 83.973 12.4211 83.43C12.4211 83.43 8.10607 82.914 5.78289 83.8151C5.78289 83.8151 9.11934 82.2439 12.4673 82.7599C12.4673 82.7599 11.0573 80.8614 9.09622 80.3338C9.09622 80.3338 11.5465 79.5135 13.5114 82.8947C13.5114 82.8947 16.8556 83.4339 17.2486 83.8344C17.2486 83.8344 15.7807 80.2182 13.7811 78.5892C13.7811 78.5892 16.8633 79.3594 18.0962 84.2002L21.317 85.629C21.317 85.629 19.6295 80.7458 17.9575 79.163C17.9575 79.163 20.9895 80.4262 22.0991 86.0565L25.0272 87.9011C25.0272 87.9011 23.8945 83.5879 22.4189 81.4198C22.4189 81.4198 24.9771 83.199 25.844 88.4634L27.6547 89.9268C27.6547 89.9268 26.7725 86.792 26.4373 85.914C26.1021 85.0359 26.3101 84.8742 26.3101 84.8742C27.5272 86.5255 28.2596 88.4832 28.4253 90.5276C28.4253 90.5276 31.9852 93.7779 32.2048 93.5815Z" fill="#38A169"/>
</g>
</g>
<defs>
<linearGradient id="paint0_linear" x1="92.4919" y1="266.75" x2="92.4919" y2="69.8819" gradientUnits="userSpaceOnUse">
<stop stop-color="#808080" stop-opacity="0.25"/>
<stop offset="0.54" stop-color="#808080" stop-opacity="0.12"/>
<stop offset="1" stop-color="#808080" stop-opacity="0.1"/>
</linearGradient>
<clipPath id="clip0">
<rect width="400" height="267" fill="white"/>
</clipPath>
</defs>
</svg>
