<svg width="700" height="518" viewBox="0 0 854 649" fill="none" xmlns="http://www.w3.org/2000/svg">
    <g clip-path="url(#clip0)">
        <path d="M595.919 558.388H593.924V340.837C593.925 339.951 593.728 339.075 593.346 338.275C592.964 337.475 592.407 336.77 591.716 336.211L592.977 334.67C593.898 335.414 594.64 336.354 595.149 337.421C595.658 338.488 595.921 339.655 595.919 340.837V558.388Z" fill="#3F3D56" />
        <path d="M392.66 0.0952148C393.176 1.26889 393.561 2.49571 393.807 3.75341C393.248 1.83485 392.809 0.532607 392.66 0.0952148Z" fill="#3F3D56" />
        <path d="M410.358 60.8728C410.358 60.8728 410.358 62.2446 408.872 67.1951L410.358 60.8728Z" fill="#3F3D56" />
        <path d="M592.521 269.946C553.283 290.324 501.954 307.919 486.58 313.019C498.302 309.977 532.422 305.882 585.288 338.746C651.713 380.03 722.736 352.504 722.736 352.504C722.736 352.504 706.953 382.654 673.412 384.612C639.87 386.581 552.405 331.539 522.815 347.265C493.214 362.991 479.406 343.328 467.564 382.654C455.732 421.97 434.033 529.429 459.024 589.72L484.006 650H341.959C341.959 650 393.258 513.703 364.975 429.833C349.142 382.863 326.914 348.846 318.623 331.559C314.463 322.9 313.804 318.447 319.192 318.665C322.255 318.795 327.273 320.435 334.725 323.676C334.725 323.676 300.526 290.255 289.352 290.255C278.168 290.255 225.551 285.016 208.461 267.321C208.461 267.321 184.128 250.283 140.72 292.223C97.3119 334.163 107.837 334.163 69.0382 330.883C30.8477 327.652 0.927825 309.192 0 308.615C1.1074 309.063 45.7129 326.827 72.979 317.781C100.604 308.605 124.279 273.872 148.612 262.083C172.945 250.283 187.411 234.557 220.294 251.595L198.624 200.689L192.688 186.742L192.678 186.722C192.678 186.722 185.435 91.0521 171.628 84.5012C157.82 77.9403 166.37 60.9118 140.72 57.6313C140.72 57.6313 172.286 53.6948 178.202 75.3258C184.128 96.947 224.903 213.592 224.903 213.592C224.903 213.592 249.884 263.385 277.51 251.595C305.135 239.796 266.984 173.62 266.984 173.62L219.635 151.989C219.635 151.989 255.152 150.677 276.851 170.996C298.55 191.305 299.867 256.834 299.867 256.834C299.867 256.834 354.449 264.697 367.608 294.191C367.608 294.191 376.158 267.978 359.717 252.251C355.607 248.315 351.287 241.476 347.126 233.433C331.356 202.566 325.657 167.562 330.825 133.31C333.269 116.55 334.775 100.158 332.092 96.2909C326.176 87.7717 301.184 35.3541 299.209 21.5862C297.243 7.82817 301.184 -21 301.184 -21C301.184 -21 301.843 14.3791 309.734 25.5227C317.626 36.6663 339.983 91.7082 339.983 91.7082C339.983 91.7082 339.983 161.164 358.4 195.241C376.817 229.318 412.324 267.321 410.358 292.223V306.637C410.358 306.637 449.816 269.29 447.182 256.834C444.548 244.388 441.266 214.894 416.274 197.209C391.283 179.515 374.841 151.333 392.6 110.705C402.586 87.8512 406.956 75.5744 408.872 69.2024L398.516 113.329C398.516 113.329 391.941 158.54 410.358 174.266C410.408 174.306 410.448 174.346 410.498 174.385C428.885 190.132 453.098 218.831 453.098 218.831L453.028 217.568L447.84 124.473L448.978 126.958L457.178 144.871L464.94 161.82C464.94 161.82 501.764 114.642 545.172 98.9153C588.571 83.189 615.537 28.1471 615.537 28.1471L652.371 -0.691059L622.112 35.3541C622.112 35.3541 612.904 77.9403 560.955 108.091C508.997 138.231 475.466 182.785 473.49 210.311C471.515 237.837 469.539 262.083 469.539 262.083C469.539 262.083 566.871 258.802 588.57 216.206C610.28 173.62 628.038 171.652 628.038 171.652L615.537 208.343L601.73 239.796C601.73 239.796 658.287 241.108 687.878 274.529C717.478 307.949 791.126 317.781 791.126 317.781L749.703 328.914C749.703 328.914 710.235 315.812 672.753 291.567C635.271 267.321 639.212 245.7 592.521 269.946Z" fill="#3F3D56" />
        <path opacity="0.1" d="M613.492 178.542C609.332 196.892 604.433 214.616 597.55 228.126C575.85 270.722 478.518 274.002 478.518 274.002C478.518 274.002 478.977 268.376 479.676 259.499C504.388 257.471 571.94 248.813 589.568 214.209C591.184 211.048 592.681 207.648 594.098 204.069L613.492 178.542Z" fill="black" />
        <path opacity="0.1" d="M462.077 230.75C462.077 230.75 437.744 201.912 419.337 186.186C415.297 182.746 412.463 177.876 410.498 172.388C410.338 171.951 410.189 171.504 410.039 171.056C410.468 171.474 410.897 171.881 411.356 172.269C427.468 186.037 448.13 209.855 453.028 215.571C453.717 216.386 454.096 216.833 454.096 216.833L448.978 124.961L457.178 142.874L462.077 230.75Z" fill="black" />
        <path opacity="0.1" d="M476.162 148.011C476.019 164.144 473.917 173.74 473.917 173.74C473.917 173.74 510.73 126.58 554.123 110.843C556.687 109.227 559.289 107.635 561.952 106.09C613.906 75.9472 623.113 33.3541 623.113 33.3541L653.365 -2.68628L616.536 26.146C616.536 26.146 589.573 81.1895 546.169 96.9162C516.582 107.636 490.056 132.967 476.162 148.011Z" fill="black" />
        <path opacity="0.1" d="M419.333 304.141V318.557C419.333 318.557 458.792 281.206 456.161 268.756C454.149 259.234 451.741 239.752 439.547 223.197C445.043 235.708 446.716 247.911 448.18 254.839C450.066 263.767 430.31 285.498 418.98 297.08C419.378 299.411 419.496 301.781 419.333 304.141V304.141Z" fill="black" />
        <path opacity="0.1" d="M366.403 205.209C366.715 205.874 367.038 206.527 367.379 207.159C377.464 225.821 392.668 245.658 404.043 263.879C394.849 245.834 378.85 225.199 366.403 205.209Z" fill="black" />
        <path opacity="0.1" d="M586.285 336.749C564.651 323.303 546.16 316.047 531.055 312.371C515.209 318.313 502.168 322.744 495.606 324.92C507.375 321.884 541.47 317.852 594.266 350.666C635.69 376.411 678.901 375.396 705.561 370.986C712.934 365.443 719.114 358.479 723.732 350.509C723.732 350.509 652.707 378.031 586.285 336.749Z" fill="black" />
        <path opacity="0.1" d="M398.464 177.312C393.161 164.365 392.287 148.959 398.38 130.905C398.304 124.363 398.683 117.823 399.514 111.332L409.869 67.1943C407.96 73.5595 403.592 85.8389 393.595 108.711C380.94 137.667 385.663 160.293 398.464 177.312Z" fill="black" />
        <path opacity="0.1" d="M688.877 272.531C668.354 249.355 634.868 241.623 616.266 239.059L610.707 251.718C610.707 251.718 667.265 253.029 696.859 286.448C713.27 304.981 743.227 316.256 766.663 322.626L792.127 315.779C792.127 315.779 718.471 305.95 688.877 272.531Z" fill="black" />
        <path opacity="0.1" d="M286.489 263.513C314.11 251.718 275.967 185.535 275.967 185.535L274.923 185.059C284.432 205.05 298.224 241.177 278.507 249.596C260.058 257.475 242.785 237.874 233.346 223.987C233.689 224.969 233.877 225.507 233.877 225.507C233.877 225.507 258.868 275.308 286.489 263.513Z" fill="black" />
        <path opacity="0.1" d="M376.586 306.106C376.586 306.106 384.909 280.544 369.273 264.761C373.108 278.358 368.605 292.189 368.605 292.189C358.43 269.379 323.468 259.51 308.154 256.21C308.748 263.804 308.849 268.756 308.849 268.756C308.849 268.756 363.433 276.619 376.586 306.106Z" fill="black" />
        <path opacity="0.1" d="M409.869 67.1942C411.351 62.2532 411.352 60.8757 411.352 60.8757L409.869 67.1942Z" fill="black" />
        <path opacity="0.1" d="M81.5624 329.822C81.6951 329.779 81.8298 329.74 81.9615 329.697C109.583 320.523 133.258 285.793 157.591 273.998C181.924 262.203 196.392 246.476 229.274 263.513C229.274 263.513 223.521 240.051 212.373 224.636C216.066 232.683 219.05 241.035 221.292 249.596C188.41 232.559 173.942 248.286 149.609 260.081C125.277 271.876 101.601 306.606 73.9802 315.78C46.3592 324.954 0.98175 306.606 0.98175 306.606C0.98175 306.606 31.2334 325.609 70.0344 328.885C74.473 329.26 78.2602 329.591 81.5624 329.822Z" fill="black" />
        <path opacity="0.1" d="M201.657 198.642C201.657 198.642 200.58 198.662 198.624 198.691L192.688 184.745C193.337 184.735 193.676 184.725 193.676 184.725C193.676 184.725 189.107 124.384 180.307 96.262C180.417 96.3117 180.507 96.3713 180.607 96.421C194.414 102.972 201.657 198.642 201.657 198.642Z" fill="black" />
        <path opacity="0.1" d="M355.742 648.006C367.792 611.2 396.771 509.421 373.956 441.749C364.103 412.525 354.97 393.889 347.249 382C353.023 393.254 359.335 408.141 365.974 427.832C394.253 511.708 342.957 648.006 342.957 648.006H355.742Z" fill="black" />
        <path opacity="0.1" d="M343.704 335.595C335.769 332.119 327.276 330.075 318.623 329.561C314.463 320.903 313.804 316.449 319.192 316.668C320.688 316.936 322.195 317.255 323.691 317.622C334.267 326.37 343.704 335.595 343.704 335.595Z" fill="black" />
        <path opacity="0.1" d="M165.667 76.1387C166.417 77.3974 167.326 78.5551 168.371 79.5837C167.604 78.3371 166.696 77.1814 165.667 76.1387V76.1387Z" fill="black" />
        <path opacity="0.1" d="M285.831 182.914C286.848 183.872 287.8 184.895 288.682 185.977C285.801 179.076 282.244 173.109 277.85 168.997C256.148 148.683 220.635 149.994 220.635 149.994L265.172 170.333C272.803 173.17 279.817 177.441 285.831 182.914Z" fill="black" />
        <path opacity="0.1" d="M333.092 94.295C335.776 98.1577 334.268 114.55 331.818 131.315C326.652 165.566 332.353 200.568 348.125 231.433C350.22 235.563 352.56 239.565 355.133 243.419C340.103 213.01 334.753 178.753 339.799 145.232C342.249 128.467 343.757 112.075 341.073 108.212C335.154 99.6935 310.164 47.2711 308.191 33.5102C307.6 28.1716 307.462 22.7928 307.779 17.4311C302.671 2.98869 302.183 -23 302.183 -23C302.183 -23 298.237 5.83235 300.21 19.5931C302.183 33.3539 327.173 85.7765 333.092 94.295Z" fill="black" />
        <path opacity="0.1" d="M394.789 3.70505C394.525 2.40989 394.125 1.14613 393.595 -0.0651855C393.595 -0.0651855 394.101 1.34904 394.789 3.70505Z" fill="black" />
        <path opacity="0.1" d="M162.506 69.7002C168.302 70.4072 174.969 72.1791 180.055 76.2885C179.723 75.1705 179.434 74.1683 179.203 73.3261C173.285 51.7019 141.718 55.6336 141.718 55.6336C155.983 57.4559 159.668 63.5355 162.506 69.7002Z" fill="black" />
        <path d="M782.68 614.339C772.872 629.326 775.559 648.387 775.559 648.387C775.559 648.387 794.149 643.15 803.957 628.163C813.765 613.176 811.077 594.115 811.077 594.115C811.077 594.115 792.488 599.352 782.68 614.339Z" fill="#3F3D56" />
        <path d="M790.047 616.988C789.272 634.863 775.955 648.808 775.955 648.808C775.955 648.808 763.895 633.771 764.67 615.896C765.446 598.021 778.763 584.076 778.763 584.076C778.763 584.076 790.822 599.113 790.047 616.988Z" fill="#38A169" />
        <path d="M617.299 503.87C617.299 503.87 628.584 492.073 633.203 494.446C637.822 496.819 619.922 507.368 619.922 507.368L617.299 503.87Z" fill="#FFB9B9" />
        <path opacity="0.1" d="M617.299 503.87C617.299 503.87 628.584 492.073 633.203 494.446C637.822 496.819 619.922 507.368 619.922 507.368L617.299 503.87Z" fill="black" />
        <path d="M582.866 478.122C582.866 478.122 578.717 485.531 579.803 493.518C580.888 501.505 590.816 527.135 594.191 526.68C597.567 526.224 622.568 507.868 622.568 507.868L617.8 501.234L599.535 512.26C599.535 512.26 596.753 472.823 582.866 478.122Z" fill="#D0CDE1" />
        <path d="M650.589 496.159L622.116 511.742C621.951 511.852 621.764 511.923 621.568 511.953C621.372 511.982 621.172 511.969 620.982 511.913C620.792 511.857 620.617 511.76 620.468 511.63C620.32 511.499 620.202 511.337 620.122 511.156L613.147 496.629C613.015 496.215 613.037 495.768 613.208 495.368C613.379 494.968 613.689 494.643 614.08 494.452L637.72 482.311C638.011 482.136 638.357 482.075 638.69 482.138C639.024 482.202 639.322 482.386 639.529 482.655L651.337 493.74C651.453 493.946 651.526 494.174 651.551 494.409C651.576 494.645 651.553 494.883 651.483 495.109C651.413 495.335 651.298 495.545 651.144 495.725C650.99 495.906 650.801 496.053 650.589 496.159V496.159Z" fill="#2F2E41" />
        <path d="M648.689 494.012L621.996 509.214L614.893 496.459L637.791 484.051L648.689 494.012Z" fill="#38A169" />
        <path d="M626.294 489.619C626.433 489.452 626.431 489.222 626.289 489.104C626.146 488.985 625.918 489.024 625.779 489.191C625.64 489.357 625.642 489.588 625.784 489.706C625.927 489.824 626.155 489.785 626.294 489.619Z" fill="#F2F2F2" />
        <path d="M636.118 502.598C636.211 502.487 636.209 502.334 636.114 502.255C636.019 502.176 635.868 502.202 635.775 502.313C635.682 502.424 635.684 502.577 635.779 502.656C635.873 502.735 636.025 502.709 636.118 502.598Z" fill="#F2F2F2" />
        <path opacity="0.1" d="M582.866 478.122C582.866 478.122 578.717 485.531 579.803 493.518C580.888 501.505 590.816 527.135 594.191 526.68C597.567 526.224 622.568 507.868 622.568 507.868L617.8 501.234L599.535 512.26C599.535 512.26 596.753 472.823 582.866 478.122Z" fill="black" />
        <path d="M609.669 506.124C609.669 506.124 622.441 495.943 626.699 498.912C630.956 501.882 611.798 509.942 611.798 509.942L609.669 506.124Z" fill="#FFB9B9" />
        <path d="M592.639 465.399C599.458 465.399 604.986 459.891 604.986 453.097C604.986 446.303 599.458 440.795 592.639 440.795C585.82 440.795 580.292 446.303 580.292 453.097C580.292 459.891 585.82 465.399 592.639 465.399Z" fill="#FFB9B9" />
        <path d="M635.214 538.789C635.214 538.789 648.412 540.485 647.986 548.546C647.56 556.606 637.768 590.119 637.768 590.119L636.917 603.269C636.917 603.269 637.768 625.329 635.214 624.904C632.659 624.48 626.699 609.208 626.699 609.208C626.699 609.208 619.461 604.542 622.867 600.3C626.273 596.058 628.828 596.482 627.976 591.816C627.125 587.149 627.55 567.635 630.105 561.696C632.659 555.757 634.148 552.482 634.148 552.482L625.847 551.939L635.214 538.789Z" fill="#FFB9B9" />
        <path opacity="0.1" d="M635.214 538.789C635.214 538.789 648.412 540.485 647.986 548.546C647.56 556.606 637.768 590.119 637.768 590.119L636.917 603.269C636.917 603.269 637.768 625.329 635.214 624.904C632.659 624.48 626.699 609.208 626.699 609.208C626.699 609.208 619.461 604.542 622.867 600.3C626.273 596.058 628.828 596.482 627.976 591.816C627.125 587.149 627.55 567.635 630.105 561.696C632.659 555.757 634.148 552.482 634.148 552.482L625.847 551.939L635.214 538.789Z" fill="black" />
        <path d="M636.065 540.91C636.065 540.91 648.838 543.879 650.115 552.363C651.392 560.848 657.778 585.876 657.778 585.876L664.59 601.572C664.59 601.572 675.234 620.662 670.551 620.238C665.867 619.814 659.481 610.481 657.353 610.481C655.224 610.481 648.838 607.936 649.263 606.239C649.689 604.542 652.669 599.451 652.669 599.451L642.369 581.573C640.38 578.122 638.877 574.415 637.901 570.556C636.843 566.369 635.64 561.239 635.64 559.575C635.64 556.606 627.125 555.333 627.125 555.333L636.065 540.91Z" fill="#FFB9B9" />
        <path d="M594.342 513.76L600.303 530.728C600.303 530.728 609.669 533.274 616.481 535.395C623.293 537.516 636.065 534.546 637.342 539.637C638.62 544.728 634.788 553.636 630.956 555.757C627.125 557.878 624.996 559.999 612.649 556.606C600.303 553.212 570.926 552.363 570.926 552.363C568.078 554.066 564.871 555.083 561.56 555.333C556.025 555.757 554.748 556.181 553.045 554.909C551.342 553.636 553.896 553.636 554.748 550.242C555.599 546.849 556.025 548.121 559.857 544.303C563.688 540.485 566.669 529.032 568.797 525.214C570.926 521.396 572.203 513.76 572.203 513.76H594.342Z" fill="#2F2E41" />
        <path d="M593.491 463.278C591.944 464.404 590.679 465.87 589.793 467.562C588.907 469.254 588.424 471.127 588.382 473.035C588.382 479.398 575.609 466.248 575.609 466.248C575.609 466.248 582.421 457.763 582.421 455.218C582.421 452.673 593.491 463.278 593.491 463.278Z" fill="#FFB9B9" />
        <path d="M577.312 460.733C577.312 460.733 584.976 463.702 586.679 467.945C588.382 472.187 594.768 481.095 594.768 481.095C594.768 481.095 603.709 490.428 600.728 500.609C597.748 510.79 595.194 513.336 595.194 515.032C595.194 516.729 590.936 519.699 587.53 519.275C584.124 518.85 571.352 517.154 570.5 515.457C569.649 513.76 564.54 489.58 567.946 480.671C570.709 473.863 573.835 467.208 577.312 460.733V460.733Z" fill="#D0CDE1" />
        <path d="M596.22 453.657C598.983 454.31 601.694 452.556 603.958 450.817C605.244 449.83 606.659 448.421 606.265 446.832C605.915 445.422 604.248 444.623 604.006 443.19C603.837 442.194 604.421 441.225 604.469 440.216C604.427 439.447 604.173 438.704 603.736 438.069C603.299 437.433 602.695 436.93 601.99 436.614C600.644 435.891 599.117 435.59 597.734 434.944C595.623 433.957 593.867 432.177 591.612 431.607C588.531 430.829 585.394 432.487 582.226 432.701C580.309 432.831 578.367 432.428 576.471 432.742C574.662 433.106 573.029 434.067 571.835 435.468C570.641 436.87 569.956 438.632 569.889 440.469C569.865 441.819 570.136 443.326 569.327 444.396C569.007 444.765 568.644 445.093 568.244 445.374C565.426 447.644 564.148 451.436 564.002 455.09C563.931 456.888 564.309 459.024 565.91 459.788C566.767 460.081 567.673 460.206 568.579 460.158C569.033 460.139 569.486 460.231 569.897 460.426C570.308 460.622 570.664 460.915 570.935 461.279C571.664 462.561 570.572 464.454 571.526 465.573C572.242 466.413 573.64 466.134 574.477 465.418C575.314 464.702 575.836 463.672 576.629 462.907C578.172 461.417 580.462 461.147 582.577 460.921C583.204 460.916 583.813 460.717 584.321 460.351C584.706 459.949 584.956 459.439 585.037 458.889C585.316 457.625 585.319 456.317 585.047 455.051C584.913 454.66 584.896 454.237 584.999 453.836C585.139 453.551 585.355 453.31 585.623 453.139C586.934 452.158 589.231 450.729 590.935 451C592.825 451.299 594.313 453.206 596.22 453.657Z" fill="#2F2E41" />
        <path d="M579.015 476.005C579.015 476.005 573.906 482.792 573.906 490.852C573.906 498.912 580.292 525.638 583.698 525.638C587.104 525.638 614.352 510.79 614.352 510.79L610.52 503.579L590.936 512.063C590.936 512.063 593.491 472.611 579.015 476.005Z" fill="#D0CDE1" />
        <path d="M636.823 552.575H539.052V571.462H636.823V552.575Z" fill="#38A169" />
        <path d="M587.938 572.456C585.822 572.454 583.793 571.615 582.297 570.124C580.801 568.633 579.959 566.612 579.957 564.504V340.837C579.957 339.333 580.385 337.86 581.191 336.589C581.997 335.318 583.148 334.3 584.511 333.655C585.874 333.009 587.393 332.762 588.891 332.941C590.39 333.121 591.806 333.72 592.977 334.67L591.716 336.211C590.838 335.499 589.776 335.05 588.652 334.915C587.528 334.78 586.39 334.966 585.367 335.45C584.345 335.934 583.482 336.698 582.877 337.651C582.273 338.604 581.952 339.709 581.952 340.837V564.504C581.954 566.085 582.585 567.601 583.707 568.719C584.829 569.837 586.351 570.466 587.938 570.468V572.456Z" fill="#3F3D56" />
        <path d="M572.852 447.54C573.281 447.196 572.79 445.877 571.755 444.592C570.72 443.308 569.533 442.546 569.103 442.89C568.674 443.234 569.165 444.553 570.2 445.837C571.235 447.122 572.422 447.884 572.852 447.54Z" fill="#38A169" />
        <path d="M487.372 614.339C477.564 629.326 480.251 648.387 480.251 648.387C480.251 648.387 498.841 643.15 508.649 628.163C518.457 613.176 515.769 594.115 515.769 594.115C515.769 594.115 497.18 599.352 487.372 614.339Z" fill="#3F3D56" />
        <path d="M494.739 616.988C493.964 634.863 480.647 648.808 480.647 648.808C480.647 648.808 468.587 633.771 469.363 615.896C470.138 598.021 483.455 584.076 483.455 584.076C483.455 584.076 495.515 599.113 494.739 616.988Z" fill="#38A169" />
        <path d="M325.961 620.008C330.65 637.279 346.711 647.975 346.711 647.975C346.711 647.975 355.17 630.67 350.481 613.399C345.792 596.128 329.731 585.432 329.731 585.432C329.731 585.432 321.272 602.737 325.961 620.008Z" fill="#3F3D56" />
        <path d="M332.852 616.296C345.718 628.776 347.29 647.961 347.29 647.961C347.29 647.961 328 646.912 315.134 634.432C302.267 621.951 300.696 602.767 300.696 602.767C300.696 602.767 319.985 603.816 332.852 616.296Z" fill="#38A169" />
        <path d="M290.206 148.027C289.087 165.884 275.505 179.572 275.505 179.572C275.505 179.572 263.736 164.308 264.855 146.451C265.973 128.594 279.556 114.906 279.556 114.906C279.556 114.906 291.325 130.17 290.206 148.027Z" fill="#38A169" />
        <path d="M148.622 35.1384C163.811 44.6804 169.351 63.1204 169.351 63.1204C169.351 63.1204 150.265 66.0899 135.075 56.5479C119.886 47.0059 114.345 28.5659 114.345 28.5659C114.345 28.5659 133.432 25.5965 148.622 35.1384Z" fill="#38A169" />
        <path d="M114.701 252.841C129.891 262.383 135.431 280.823 135.431 280.823C135.431 280.823 116.344 283.792 101.155 274.25C85.9651 264.708 80.4249 246.268 80.4249 246.268C80.4249 246.268 99.5117 243.299 114.701 252.841Z" fill="#38A169" />
        <path d="M423.497 66.9648C418.916 84.2646 402.923 95.0605 402.923 95.0605C402.923 95.0605 394.356 77.808 398.937 60.5083C403.518 43.2086 419.511 32.4126 419.511 32.4126C419.511 32.4126 428.078 49.6651 423.497 66.9648Z" fill="#38A169" />
        <path d="M567.994 80.4538C562.61 97.5223 546.129 107.565 546.129 107.565C546.129 107.565 538.378 89.9337 543.762 72.8652C549.146 55.7966 565.626 45.7542 565.626 45.7542C565.626 45.7542 573.378 63.3852 567.994 80.4538Z" fill="#38A169" />
        <path d="M724.172 270.419C714.42 285.441 695.85 290.747 695.85 290.747C695.85 290.747 693.092 271.695 702.845 256.672C712.597 241.65 731.167 236.344 731.167 236.344C731.167 236.344 733.925 255.396 724.172 270.419Z" fill="#38A169" />
    </g>
    <defs>
        <clipPath id="clip0">
            <rect width="853.316" height="672" fill="white" transform="translate(0 -23)" />
        </clipPath>
    </defs>
</svg>
