<svg width="612" height="484" viewBox="0 0 612 484" fill="none" xmlns="http://www.w3.org/2000/svg">
    <g clip-path="url(#clip0)">
        <path d="M427.395 418.738H425.964V262.049C425.964 261.411 425.823 260.78 425.549 260.204C425.275 259.627 424.876 259.12 424.38 258.717L425.284 257.607C425.945 258.143 426.477 258.821 426.842 259.589C427.207 260.358 427.396 261.198 427.395 262.049V418.738Z" fill="#3F3D56" />
        <path d="M281.616 16.634C281.987 17.4794 282.263 18.363 282.439 19.2688C282.039 17.887 281.724 16.9491 281.616 16.634Z" fill="#3F3D56" />
        <path d="M294.31 60.4084C294.31 60.4084 294.31 61.3965 293.244 64.962L294.31 60.4084Z" fill="#3F3D56" />
        <path d="M424.957 209.553C396.816 224.231 360.002 236.903 348.976 240.576C357.383 238.385 381.854 235.435 419.77 259.105C467.41 288.84 518.348 269.014 518.348 269.014C518.348 269.014 507.028 290.73 482.972 292.14C458.916 293.558 396.186 253.915 374.964 265.241C353.734 276.568 343.831 262.406 335.338 290.73C326.852 319.046 311.289 396.443 329.213 439.866L347.13 483.283H245.253C245.253 483.283 282.046 385.116 261.76 324.71C250.405 290.88 234.463 266.38 228.517 253.929C225.533 247.693 225.061 244.485 228.925 244.643C231.122 244.736 234.721 245.917 240.066 248.251C240.066 248.251 215.538 224.18 207.524 224.18C199.503 224.18 161.766 220.407 149.509 207.663C149.509 207.663 132.057 195.391 100.925 225.598C69.7922 255.805 77.341 255.805 49.5143 253.442C22.124 251.115 0.665377 237.82 -6.10352e-05 237.404C0.794172 237.727 32.7853 250.521 52.3406 244.006C72.1535 237.397 89.1329 212.381 106.585 203.89C124.036 195.391 134.411 184.065 157.995 196.336L142.454 159.671L138.196 149.626L138.189 149.612C138.189 149.612 132.995 80.7071 123.092 75.9889C113.189 71.2635 119.321 58.9989 100.925 56.6362C100.925 56.6362 123.564 53.8009 127.807 69.3805C132.057 84.9528 161.301 168.965 161.301 168.965C161.301 168.965 179.218 204.828 199.03 196.336C218.843 187.838 191.482 140.176 191.482 140.176L157.523 124.596C157.523 124.596 182.995 123.651 198.558 138.285C214.121 152.913 215.065 200.109 215.065 200.109C215.065 200.109 254.212 205.773 263.649 227.016C263.649 227.016 269.782 208.136 257.99 196.809C255.042 193.974 251.944 189.048 248.96 183.256C237.649 161.024 233.562 135.812 237.268 111.143C239.021 99.0718 240.102 87.2654 238.177 84.4803C233.934 78.3444 216.01 40.5913 214.593 30.6751C213.184 20.7661 216.01 0.00292969 216.01 0.00292969C216.01 0.00292969 216.482 25.4843 222.142 33.5103C227.802 41.5364 243.837 81.1797 243.837 81.1797C243.837 81.1797 243.837 131.204 257.045 155.748C270.254 180.291 295.719 207.663 294.31 225.598V235.98C294.31 235.98 322.609 209.081 320.72 200.109C318.831 191.146 316.477 169.903 298.553 157.166C280.629 144.421 268.837 124.124 281.573 94.8618C288.736 78.4017 291.87 69.5595 293.244 64.9701L285.816 96.752C285.816 96.752 281.101 129.314 294.31 140.641C294.345 140.67 294.374 140.698 294.41 140.727C307.597 152.068 324.963 172.738 324.963 172.738L324.913 171.829L321.192 104.778L322.008 106.568L327.889 119.47L333.456 131.677C333.456 131.677 359.866 97.6971 390.999 86.3704C422.124 75.0438 441.465 35.4005 441.465 35.4005L467.882 14.6302L446.18 40.5913C446.18 40.5913 439.576 71.2635 402.318 92.9788C365.054 114.687 341.005 146.777 339.588 166.602C338.171 186.427 336.755 203.89 336.755 203.89C336.755 203.89 406.561 201.527 422.124 170.848C437.694 140.176 450.43 138.758 450.43 138.758L441.465 165.184L431.562 187.838C431.562 187.838 472.125 188.783 493.347 212.854C514.577 236.925 567.397 244.006 567.397 244.006L537.688 252.024C537.688 252.024 509.382 242.588 482.5 225.125C455.618 207.663 458.444 192.091 424.957 209.553Z" fill="#3F3D56" />
        <path opacity="0.1" d="M439.998 145.158C437.014 158.375 433.501 171.14 428.564 180.87C413.001 211.55 343.194 213.912 343.194 213.912C343.194 213.912 343.524 209.86 344.024 203.466C361.748 202.006 410.196 195.77 422.84 170.847C423.999 168.57 425.072 166.121 426.088 163.544L439.998 145.158Z" fill="black" />
        <path opacity="0.1" d="M331.403 182.761C331.403 182.761 313.951 161.99 300.75 150.664C297.852 148.186 295.82 144.678 294.41 140.726C294.295 140.411 294.188 140.089 294.081 139.767C294.388 140.067 294.696 140.361 295.025 140.64C306.581 150.556 321.4 167.711 324.913 171.828C325.406 172.415 325.678 172.737 325.678 172.737L322.008 106.567L327.889 119.469L331.403 182.761Z" fill="black" />
        <path opacity="0.1" d="M341.505 123.168C341.402 134.788 339.895 141.7 339.895 141.7C339.895 141.7 366.297 107.733 397.418 96.399C399.257 95.2347 401.123 94.0883 403.033 92.9755C440.295 71.2654 446.898 40.5883 446.898 40.5883L468.594 14.6306L442.181 35.3967C442.181 35.3967 422.843 75.0411 391.713 86.3681C370.494 94.0891 351.469 112.333 341.505 123.168Z" fill="black" />
        <path opacity="0.1" d="M300.746 235.619V246.002C300.746 246.002 329.046 219.101 327.16 210.133C325.717 203.276 323.989 189.244 315.244 177.321C319.186 186.331 320.386 195.12 321.435 200.11C322.788 206.54 308.619 222.192 300.494 230.534C300.779 232.213 300.864 233.92 300.746 235.619V235.619Z" fill="black" />
        <path opacity="0.1" d="M262.785 164.365C263.009 164.844 263.24 165.314 263.485 165.769C270.718 179.21 281.622 193.497 289.781 206.621C283.187 193.625 271.712 178.763 262.785 164.365Z" fill="black" />
        <path opacity="0.1" d="M420.485 259.105C404.969 249.42 391.707 244.194 380.874 241.547C369.509 245.827 360.156 249.018 355.45 250.585C363.89 248.399 388.344 245.495 426.209 269.128C455.918 287.671 486.909 286.94 506.03 283.763C511.318 279.771 515.75 274.756 519.062 269.016C519.062 269.016 468.123 288.838 420.485 259.105Z" fill="black" />
        <path opacity="0.1" d="M285.78 144.272C281.976 134.947 281.349 123.851 285.719 110.848C285.664 106.136 285.936 101.426 286.532 96.7511L293.959 64.9612C292.59 69.5456 289.457 78.3897 282.287 94.8633C273.211 115.718 276.598 132.015 285.78 144.272Z" fill="black" />
        <path opacity="0.1" d="M494.064 212.853C479.345 196.16 455.328 190.592 441.987 188.745L438.001 197.863C438.001 197.863 478.564 198.807 499.789 222.876C511.559 236.224 533.044 244.345 549.853 248.933L568.115 244.002C568.115 244.002 515.289 236.923 494.064 212.853Z" fill="black" />
        <path opacity="0.1" d="M205.47 206.358C225.28 197.862 197.924 150.195 197.924 150.195L197.175 149.852C203.996 164.25 213.887 190.27 199.746 196.334C186.514 202.008 174.126 187.891 167.357 177.889C167.602 178.597 167.737 178.984 167.737 178.984C167.737 178.984 185.66 214.853 205.47 206.358Z" fill="black" />
        <path opacity="0.1" d="M270.088 237.035C270.088 237.035 276.058 218.624 264.844 207.257C267.594 217.049 264.364 227.011 264.364 227.011C257.067 210.582 231.992 203.474 221.009 201.097C221.435 206.567 221.507 210.133 221.507 210.133C221.507 210.133 260.655 215.797 270.088 237.035Z" fill="black" />
        <path opacity="0.1" d="M293.959 64.9614C295.022 61.4028 295.022 60.4106 295.022 60.4106L293.959 64.9614Z" fill="black" />
        <path opacity="0.1" d="M58.4967 254.116C58.5919 254.085 58.6885 254.057 58.783 254.025C78.5928 247.418 95.5728 222.404 113.024 213.909C130.476 205.414 140.852 194.087 164.436 206.358C164.436 206.358 160.31 189.459 152.315 178.357C154.963 184.153 157.103 190.168 158.711 196.334C135.128 184.063 124.752 195.39 107.3 203.885C89.8486 212.381 72.8686 237.394 53.0588 244.002C33.2489 250.609 0.704102 237.394 0.704102 237.394C0.704102 237.394 22.4006 251.081 50.2288 253.441C53.4122 253.711 56.1284 253.949 58.4967 254.116Z" fill="black" />
        <path opacity="0.1" d="M144.629 159.635C144.629 159.635 143.856 159.649 142.454 159.671L138.196 149.626C138.662 149.618 138.905 149.611 138.905 149.611C138.905 149.611 135.628 106.152 129.317 85.897C129.396 85.9328 129.46 85.9757 129.531 86.0115C139.434 90.7298 144.629 159.635 144.629 159.635Z" fill="black" />
        <path opacity="0.1" d="M255.139 483.284C263.781 456.775 284.565 383.47 268.202 334.73C261.135 313.681 254.585 300.259 249.048 291.696C253.189 299.802 257.716 310.524 262.477 324.706C282.759 385.117 245.969 483.284 245.969 483.284H255.139Z" fill="black" />
        <path opacity="0.1" d="M246.505 258.274C240.814 255.77 234.723 254.299 228.517 253.928C225.533 247.692 225.061 244.484 228.925 244.642C229.998 244.835 231.079 245.064 232.152 245.329C239.737 251.63 246.505 258.274 246.505 258.274Z" fill="black" />
        <path opacity="0.1" d="M118.817 71.4036C119.355 72.3101 120.006 73.144 120.756 73.8848C120.206 72.987 119.555 72.1546 118.817 71.4036V71.4036Z" fill="black" />
        <path opacity="0.1" d="M204.999 148.307C205.728 148.997 206.411 149.734 207.044 150.513C204.977 145.543 202.426 141.246 199.274 138.284C183.71 123.653 158.24 124.597 158.24 124.597L190.182 139.246C195.655 141.289 200.685 144.365 204.999 148.307Z" fill="black" />
        <path opacity="0.1" d="M238.894 84.4803C240.819 87.2624 239.738 99.0689 237.98 111.144C234.276 135.812 238.365 161.022 249.676 183.252C251.179 186.227 252.857 189.11 254.702 191.885C243.922 169.984 240.085 145.31 243.705 121.167C245.462 109.093 246.543 97.286 244.618 94.5039C240.373 88.3685 222.45 50.6119 221.035 40.7008C220.611 36.8557 220.512 32.9817 220.74 29.12C217.076 18.718 216.726 0 216.726 0C216.726 0 213.896 20.7662 215.311 30.6772C216.726 40.5882 234.649 78.3449 238.894 84.4803Z" fill="black" />
        <path opacity="0.1" d="M283.143 19.234C282.955 18.3012 282.668 17.391 282.287 16.5186C282.287 16.5186 282.65 17.5371 283.143 19.234Z" fill="black" />
        <path opacity="0.1" d="M116.55 66.7663C120.707 67.2755 125.488 68.5517 129.136 71.5114C128.898 70.7062 128.69 69.9844 128.525 69.3778C124.28 53.8032 101.64 56.635 101.64 56.635C111.871 57.9474 114.514 62.3262 116.55 66.7663Z" fill="black" />
        <path d="M561.34 459.036C554.305 469.83 556.233 483.559 556.233 483.559C556.233 483.559 569.565 479.787 576.599 468.992C583.634 458.198 581.706 444.469 581.706 444.469C581.706 444.469 568.374 448.242 561.34 459.036Z" fill="#3F3D56" />
        <path d="M566.624 460.944C566.068 473.818 556.517 483.862 556.517 483.862C556.517 483.862 547.867 473.031 548.423 460.157C548.979 447.283 558.53 437.24 558.53 437.24C558.53 437.24 567.18 448.07 566.624 460.944Z" fill="#38A169" />
        <path d="M442.728 379.472C442.728 379.472 450.822 370.975 454.135 372.684C457.447 374.394 444.61 381.992 444.61 381.992L442.728 379.472Z" fill="#FFB9B9" />
        <path opacity="0.1" d="M442.728 379.472C442.728 379.472 450.822 370.975 454.135 372.684C457.447 374.394 444.61 381.992 444.61 381.992L442.728 379.472Z" fill="black" />
        <path d="M418.033 360.927C418.033 360.927 415.057 366.264 415.836 372.016C416.614 377.769 423.735 396.228 426.155 395.9C428.576 395.572 446.507 382.351 446.507 382.351L443.087 377.573L429.988 385.515C429.988 385.515 427.993 357.111 418.033 360.927Z" fill="#D0CDE1" />
        <path d="M466.604 373.918L446.183 385.142C446.065 385.22 445.93 385.272 445.79 385.293C445.649 385.315 445.506 385.305 445.37 385.264C445.233 385.224 445.107 385.155 445.001 385.06C444.894 384.966 444.81 384.85 444.753 384.72L439.751 374.257C439.656 373.958 439.671 373.636 439.794 373.348C439.917 373.06 440.139 372.826 440.42 372.688L457.374 363.944C457.583 363.818 457.831 363.774 458.07 363.82C458.309 363.866 458.523 363.998 458.671 364.192L467.14 372.176C467.223 372.324 467.276 372.488 467.294 372.658C467.312 372.827 467.295 372.999 467.245 373.162C467.195 373.325 467.112 373.476 467.002 373.606C466.892 373.736 466.756 373.842 466.604 373.918V373.918Z" fill="#2F2E41" />
        <path d="M465.241 372.372L446.097 383.321L441.002 374.134L457.425 365.197L465.241 372.372Z" fill="#38A169" />
        <path d="M449.179 369.208C449.278 369.088 449.277 368.922 449.175 368.837C449.073 368.752 448.909 368.78 448.81 368.899C448.71 369.019 448.712 369.185 448.814 369.27C448.915 369.355 449.079 369.327 449.179 369.208Z" fill="#F2F2F2" />
        <path d="M456.225 378.556C456.292 378.476 456.29 378.365 456.222 378.309C456.155 378.252 456.046 378.271 455.979 378.35C455.913 378.43 455.914 378.541 455.982 378.597C456.05 378.654 456.159 378.636 456.225 378.556Z" fill="#F2F2F2" />
        <path opacity="0.1" d="M418.033 360.927C418.033 360.927 415.057 366.264 415.836 372.016C416.614 377.769 423.735 396.228 426.155 395.9C428.576 395.572 446.507 382.351 446.507 382.351L443.087 377.573L429.988 385.515C429.988 385.515 427.993 357.111 418.033 360.927Z" fill="black" />
        <path d="M437.256 381.095C437.256 381.095 446.416 373.762 449.47 375.901C452.523 378.04 438.783 383.845 438.783 383.845L437.256 381.095Z" fill="#FFB9B9" />
        <path d="M425.042 351.764C429.933 351.764 433.897 347.797 433.897 342.903C433.897 338.01 429.933 334.043 425.042 334.043C420.152 334.043 416.187 338.01 416.187 342.903C416.187 347.797 420.152 351.764 425.042 351.764Z" fill="#FFB9B9" />
        <path d="M455.577 404.622C455.577 404.622 465.042 405.844 464.737 411.649C464.432 417.454 457.409 441.591 457.409 441.591L456.798 451.063C456.798 451.063 457.409 466.951 455.577 466.645C453.745 466.34 449.47 455.341 449.47 455.341C449.47 455.341 444.279 451.98 446.722 448.924C449.164 445.869 450.996 446.174 450.386 442.814C449.775 439.453 450.08 425.398 451.912 421.121C453.745 416.843 454.812 414.484 454.812 414.484L448.859 414.093L455.577 404.622Z" fill="#FFB9B9" />
        <path opacity="0.1" d="M455.577 404.622C455.577 404.622 465.042 405.844 464.737 411.649C464.432 417.454 457.409 441.591 457.409 441.591L456.798 451.063C456.798 451.063 457.409 466.951 455.577 466.645C453.745 466.34 449.47 455.341 449.47 455.341C449.47 455.341 444.279 451.98 446.722 448.924C449.164 445.869 450.996 446.174 450.386 442.814C449.775 439.453 450.08 425.398 451.912 421.121C453.745 416.843 454.812 414.484 454.812 414.484L448.859 414.093L455.577 404.622Z" fill="black" />
        <path d="M456.187 406.149C456.187 406.149 465.348 408.288 466.264 414.399C467.18 420.509 471.76 438.536 471.76 438.536L476.646 449.841C476.646 449.841 484.279 463.59 480.92 463.284C477.562 462.979 472.981 456.257 471.455 456.257C469.928 456.257 465.348 454.424 465.653 453.202C465.958 451.98 468.096 448.313 468.096 448.313L460.708 435.437C459.282 432.951 458.204 430.281 457.504 427.501C456.745 424.486 455.882 420.791 455.882 419.593C455.882 417.454 449.775 416.537 449.775 416.537L456.187 406.149Z" fill="#FFB9B9" />
        <path d="M426.263 386.595L430.538 398.816C430.538 398.816 437.256 400.65 442.141 402.177C447.027 403.705 456.187 401.566 457.103 405.233C458.019 408.899 455.271 415.315 452.523 416.843C449.775 418.371 448.248 419.898 439.393 417.454C430.538 415.01 409.469 414.399 409.469 414.399C407.427 415.625 405.127 416.357 402.752 416.537C398.782 416.843 397.866 417.148 396.645 416.232C395.423 415.315 397.256 415.315 397.866 412.871C398.477 410.427 398.782 411.343 401.53 408.593C404.278 405.844 406.416 397.594 407.943 394.844C409.469 392.094 410.385 386.595 410.385 386.595H426.263Z" fill="#2F2E41" />
        <path d="M425.653 350.236C424.543 351.047 423.636 352.103 423 353.322C422.365 354.54 422.019 355.889 421.989 357.263C421.989 361.846 412.828 352.375 412.828 352.375C412.828 352.375 417.714 346.264 417.714 344.431C417.714 342.598 425.653 350.236 425.653 350.236Z" fill="#FFB9B9" />
        <path d="M414.05 348.403C414.05 348.403 419.546 350.542 420.767 353.597C421.989 356.652 426.569 363.069 426.569 363.069C426.569 363.069 432.981 369.79 430.844 377.123C428.706 384.456 426.874 386.289 426.874 387.511C426.874 388.734 423.821 390.872 421.378 390.567C418.935 390.261 409.775 389.039 409.164 387.817C408.553 386.595 404.889 369.179 407.332 362.763C409.314 357.86 411.556 353.066 414.05 348.403V348.403Z" fill="#D0CDE1" />
        <path d="M427.61 343.306C429.592 343.777 431.536 342.514 433.16 341.261C434.082 340.55 435.097 339.536 434.814 338.391C434.564 337.375 433.368 336.8 433.194 335.768C433.073 335.051 433.492 334.353 433.526 333.626C433.496 333.072 433.314 332.537 433.001 332.079C432.687 331.622 432.254 331.259 431.749 331.031C430.783 330.511 429.688 330.294 428.696 329.829C427.182 329.118 425.923 327.836 424.305 327.426C422.096 326.865 419.845 328.059 417.574 328.214C416.199 328.307 414.806 328.017 413.446 328.243C412.149 328.505 410.978 329.197 410.122 330.207C409.265 331.216 408.774 332.485 408.726 333.808C408.708 334.781 408.902 335.865 408.323 336.637C408.093 336.902 407.832 337.139 407.546 337.341C405.525 338.976 404.608 341.707 404.503 344.338C404.452 345.634 404.723 347.172 405.872 347.723C406.487 347.933 407.137 348.024 407.786 347.989C408.112 347.975 408.437 348.041 408.731 348.182C409.026 348.323 409.281 348.534 409.476 348.796C409.999 349.719 409.215 351.083 409.9 351.889C410.413 352.494 411.416 352.293 412.016 351.777C412.616 351.262 412.991 350.52 413.56 349.969C414.666 348.896 416.308 348.701 417.825 348.538C418.275 348.535 418.712 348.391 419.077 348.128C419.352 347.838 419.531 347.471 419.59 347.075C419.79 346.165 419.792 345.222 419.597 344.311C419.501 344.029 419.489 343.725 419.562 343.436C419.663 343.23 419.818 343.057 420.01 342.934C420.95 342.227 422.598 341.198 423.82 341.393C425.176 341.609 426.242 342.982 427.61 343.306Z" fill="#2F2E41" />
        <path d="M415.271 359.402C415.271 359.402 411.607 364.291 411.607 370.096C411.607 375.901 416.187 395.15 418.63 395.15C421.072 395.15 440.615 384.456 440.615 384.456L437.867 379.262L423.821 385.373C423.821 385.373 425.653 356.958 415.271 359.402Z" fill="#D0CDE1" />
        <path d="M456.731 414.551H386.609V428.154H456.731V414.551Z" fill="#38A169" />
        <path d="M421.67 428.87C420.153 428.869 418.698 428.265 417.625 427.191C416.552 426.117 415.948 424.661 415.946 423.143V262.049C415.946 260.966 416.253 259.905 416.831 258.99C417.409 258.074 418.235 257.341 419.213 256.876C420.19 256.411 421.28 256.233 422.354 256.363C423.429 256.492 424.445 256.924 425.284 257.607L424.38 258.718C423.751 258.205 422.989 257.881 422.183 257.784C421.377 257.687 420.56 257.821 419.827 258.17C419.094 258.518 418.474 259.068 418.041 259.755C417.607 260.441 417.377 261.237 417.377 262.049V423.143C417.378 424.282 417.831 425.374 418.636 426.179C419.441 426.984 420.532 427.437 421.67 427.439V428.87Z" fill="#3F3D56" />
        <path d="M612 482.568H35.2868V484H612V482.568Z" fill="#3F3D56" />
        <path d="M410.85 338.901C411.158 338.653 410.806 337.703 410.064 336.778C409.322 335.853 408.47 335.304 408.162 335.552C407.854 335.799 408.206 336.75 408.948 337.675C409.691 338.599 410.542 339.149 410.85 338.901Z" fill="#38A169" />
        <path d="M349.544 459.036C342.51 469.83 344.437 483.559 344.437 483.559C344.437 483.559 357.77 479.787 364.804 468.992C371.838 458.198 369.911 444.469 369.911 444.469C369.911 444.469 356.579 448.242 349.544 459.036Z" fill="#3F3D56" />
        <path d="M354.828 460.944C354.272 473.818 344.721 483.862 344.721 483.862C344.721 483.862 336.072 473.031 336.628 460.157C337.184 447.283 346.735 437.24 346.735 437.24C346.735 437.24 355.384 448.07 354.828 460.944Z" fill="#38A169" />
        <path d="M233.78 463.119C237.143 475.558 248.662 483.262 248.662 483.262C248.662 483.262 254.728 470.798 251.365 458.359C248.003 445.92 236.484 438.216 236.484 438.216C236.484 438.216 230.417 450.68 233.78 463.119Z" fill="#3F3D56" />
        <path d="M238.722 460.445C247.95 469.434 249.077 483.252 249.077 483.252C249.077 483.252 235.243 482.496 226.015 473.507C216.787 464.519 215.659 450.701 215.659 450.701C215.659 450.701 229.494 451.457 238.722 460.445Z" fill="#38A169" />
        <path d="M208.136 123.18C207.334 136.042 197.593 145.9 197.593 145.9C197.593 145.9 189.152 134.906 189.954 122.045C190.757 109.184 200.498 99.3252 200.498 99.3252C200.498 99.3252 208.939 110.319 208.136 123.18Z" fill="#38A169" />
        <path d="M106.592 41.8735C117.486 48.746 121.459 62.0272 121.459 62.0272C121.459 62.0272 107.77 64.1659 96.8761 57.2934C85.9822 50.4209 82.0087 37.1397 82.0087 37.1397C82.0087 37.1397 95.6978 35.001 106.592 41.8735Z" fill="#38A169" />
        <path d="M82.2639 198.671C93.1578 205.544 97.1313 218.825 97.1313 218.825C97.1313 218.825 83.4422 220.963 72.5483 214.091C61.6543 207.219 57.6808 193.937 57.6808 193.937C57.6808 193.937 71.37 191.799 82.2639 198.671Z" fill="#38A169" />
        <path d="M303.733 64.7962C300.448 77.2562 288.977 85.0318 288.977 85.0318C288.977 85.0318 282.833 72.6059 286.118 60.146C289.404 47.6861 300.874 39.9104 300.874 39.9104C300.874 39.9104 307.018 52.3363 303.733 64.7962Z" fill="#38A169" />
        <path d="M407.366 74.5115C403.505 86.8049 391.685 94.0379 391.685 94.0379C391.685 94.0379 386.126 81.3393 389.987 69.0459C393.849 56.7525 405.668 49.5195 405.668 49.5195C405.668 49.5195 411.228 62.2181 407.366 74.5115Z" fill="#38A169" />
        <path d="M519.378 211.331C512.383 222.151 499.065 225.972 499.065 225.972C499.065 225.972 497.087 212.251 504.082 201.431C511.076 190.611 524.395 186.79 524.395 186.79C524.395 186.79 526.372 200.511 519.378 211.331Z" fill="#38A169" />
    </g>
    <defs>
        <clipPath id="clip0">
            <rect width="612" height="484" fill="white" />
        </clipPath>
    </defs>
</svg>
