<svg width="833" height="378" viewBox="0 0 833 378" fill="none" xmlns="http://www.w3.org/2000/svg">
<g clip-path="url(#clip0)">
<path d="M407.726 314.256C420.176 327.606 420.82 347.227 420.82 347.227C420.82 347.227 401.278 345.204 388.828 331.854C376.377 318.505 375.734 298.883 375.734 298.883C375.734 298.883 395.276 300.906 407.726 314.256Z" fill="#38A169"/>
<path d="M446.921 335.094C433.561 347.534 413.925 348.177 413.925 348.177C413.925 348.177 415.949 328.65 429.309 316.209C442.669 303.768 462.305 303.125 462.305 303.125C462.305 303.125 460.281 322.653 446.921 335.094Z" fill="#38A169"/>
<path d="M443.6 374.716H394.462C393.519 374.716 392.596 374.451 391.796 373.951C390.997 373.452 390.355 372.738 389.942 371.89L379.244 349.915C378.871 349.15 378.699 348.302 378.744 347.452C378.79 346.601 379.05 345.777 379.502 345.055C379.954 344.333 380.582 343.738 381.328 343.325C382.073 342.913 382.911 342.696 383.763 342.696H454.299C455.151 342.696 455.989 342.913 456.735 343.325C457.48 343.738 458.108 344.333 458.56 345.055C459.012 345.777 459.273 346.601 459.318 347.452C459.363 348.302 459.191 349.15 458.819 349.915L448.12 371.89C447.708 372.738 447.065 373.452 446.266 373.951C445.467 374.451 444.543 374.716 443.6 374.716V374.716Z" fill="#3F3D56"/>
<path d="M664.279 106.715C686.876 106.715 705.194 88.41 705.194 65.8303C705.194 43.2506 686.876 24.946 664.279 24.946C641.682 24.946 623.364 43.2506 623.364 65.8303C623.364 88.41 641.682 106.715 664.279 106.715Z" fill="#FFB8B8"/>
<path d="M633.741 86.2725C633.741 86.2725 641.45 144.34 629.59 150.858C617.731 157.375 700.154 157.968 700.154 157.968C700.154 157.968 681.772 107.603 690.073 92.1976L633.741 86.2725Z" fill="#FFB8B8"/>
<path d="M760.34 158.262L753.485 189.452L738.991 255.441L738.557 259.055L733.555 300.892L730.228 328.685L727.996 347.355C714.432 354.321 704.6 359.13 704.6 359.13C704.6 359.13 703.754 354.894 702.391 349.473C692.871 352.325 675.256 357.056 660.328 358.002C665.764 364.056 668.262 369.744 664.874 373.941C654.647 386.595 612.428 360.086 597.661 350.201C597.318 352.568 597.187 354.961 597.272 357.351L585.972 348.667L587.09 328.685L588.976 294.876L591.346 252.477C590.599 250.662 589.973 248.799 589.471 246.901C586.011 234.603 581.81 210.045 578.588 189.452C575.996 172.878 574.048 158.873 573.636 155.893C573.581 155.504 573.553 155.304 573.553 155.304L636.108 127.683C640.554 137.985 661.313 141.082 661.313 141.082C678.511 139.898 691.992 130.836 691.992 130.836L760.34 158.262Z" fill="#D0CDE1"/>
<path d="M709.346 347.282C709.346 347.282 706.698 348.189 702.391 349.473C692.871 352.325 675.256 357.056 660.328 358.002C647.475 358.824 636.615 356.845 634.628 348.467C633.777 344.864 634.984 341.9 637.616 339.465C645.472 332.188 665.992 329.58 682.267 328.685C686.862 328.435 691.113 328.318 694.652 328.273C700.661 328.196 704.6 328.318 704.6 328.318L704.695 328.685L709.346 347.282Z" fill="#FFB8B8"/>
<path d="M630.242 27.1576L622.592 24.0972C622.592 24.0972 638.587 6.50018 660.842 8.03042L654.583 1.14454C654.583 1.14454 669.883 -4.97611 683.792 11.0907C691.104 19.5366 699.564 29.4645 704.838 40.648H713.03L709.611 48.1714L721.579 55.6947L709.295 54.3434C710.027 58.4632 710.14 62.6692 709.629 66.8222C709.102 70.9765 706.98 74.7637 703.712 77.3846V77.3846C703.712 77.3846 694.224 57.7611 694.224 54.7007V62.3517C694.224 62.3517 686.574 55.4659 686.574 50.8754L682.401 56.231L680.315 47.815L654.583 56.231L658.756 49.3452L642.76 51.6405L649.019 43.2245C649.019 43.2245 630.937 53.1706 630.242 61.5867C629.546 70.0026 624.254 77.9772 624.254 77.9772C624.254 77.9772 610.073 38.6339 630.242 27.1576Z" fill="#2F2E41"/>
<path d="M804.812 301.653C800.645 306.168 790.318 312.967 777.799 320.329C773.142 323.064 768.185 325.883 763.127 328.685C751.059 335.373 738.423 342.001 727.996 347.355C714.432 354.321 704.6 359.13 704.6 359.13C704.6 359.13 703.754 354.894 702.391 349.473C700.566 342.217 697.818 332.838 694.952 328.685C694.852 328.54 694.752 328.407 694.652 328.273C693.817 327.178 692.977 326.539 692.148 326.539L733.555 300.892L751.448 289.806L738.557 259.055L722.388 220.481L732.147 189.452L741.956 158.262H760.34C760.34 158.262 766.427 171.538 774.21 190.052C775.373 192.821 776.575 195.707 777.799 198.687C793.812 237.605 813.776 291.952 804.812 301.653Z" fill="#D0CDE1"/>
<path d="M664.874 373.941C654.647 386.595 612.428 360.086 597.661 350.201C594.446 348.05 592.531 346.687 592.531 346.687L606.041 328.685L610.319 322.986C610.319 322.986 614.147 325.016 619.806 328.318C620.012 328.44 620.218 328.563 620.429 328.685C625.309 331.548 631.435 335.29 637.616 339.465C646.146 345.231 654.77 351.808 660.328 358.002C665.764 364.056 668.262 369.744 664.874 373.941Z" fill="#FFB8B8"/>
<path d="M619.806 328.318C618.296 328.312 616.788 328.435 615.299 328.685C602.508 330.881 598.735 342.451 597.661 350.201C597.318 352.568 597.187 354.961 597.272 357.351L585.972 348.667L581.854 345.503C571.945 342.051 563.115 335.918 555.459 328.685C548.817 322.299 542.86 315.239 537.682 307.619C532.526 300.109 527.929 292.23 523.928 284.046C522.812 281.762 522.212 279.261 522.171 276.719C522.129 274.178 522.648 271.659 523.689 269.34L537.682 238.178L558.135 192.632C558.286 191.548 558.451 190.488 558.631 189.452C562.687 166.212 573.553 155.893 573.553 155.893H581.854L587.407 189.452L594.306 231.145L589.471 246.901L578.299 283.289L588.976 294.876L619.806 328.318Z" fill="#D0CDE1"/>
<path d="M629.201 231.178L636.298 239.451C638.935 238.949 641.688 238.359 644.524 237.696L642.486 231.178L647.47 236.988C677.513 229.604 714.752 215.249 714.752 215.249C714.752 215.249 674.549 218.194 644.531 211.641C631.249 208.742 617.584 215.321 612.134 227.766C608.966 234.999 609.464 241.266 620.699 241.266C624.496 241.202 628.282 240.846 632.023 240.202L629.201 231.178Z" fill="#38A169"/>
<path d="M790.986 367.158V370.533C790.988 371.459 790.816 372.378 790.479 373.241C790.33 373.626 790.149 373.997 789.94 374.353C789.277 375.465 788.336 376.386 787.209 377.025C786.082 377.665 784.809 378.001 783.513 378H535.056C533.761 378.001 532.487 377.665 531.36 377.025C530.234 376.386 529.293 375.465 528.63 374.353C528.42 373.997 528.24 373.626 528.09 373.241C527.754 372.378 527.582 371.459 527.584 370.533V367.158C527.584 366.178 527.777 365.207 528.152 364.301C528.528 363.395 529.078 362.572 529.772 361.878C530.466 361.185 531.29 360.635 532.196 360.26C533.103 359.884 534.075 359.692 535.056 359.692H549.378V358.118C549.378 358.077 549.386 358.037 549.401 357.999C549.417 357.961 549.44 357.927 549.469 357.898C549.498 357.869 549.532 357.846 549.57 357.831C549.608 357.815 549.648 357.807 549.689 357.807H557.162C557.203 357.807 557.243 357.815 557.281 357.831C557.319 357.846 557.353 357.869 557.382 357.898C557.411 357.927 557.434 357.961 557.45 357.999C557.465 358.037 557.473 358.077 557.473 358.118V359.692H562.141V358.118C562.141 358.077 562.149 358.037 562.165 357.999C562.181 357.961 562.204 357.927 562.232 357.898C562.261 357.869 562.296 357.846 562.334 357.831C562.371 357.815 562.412 357.807 562.453 357.807H569.925C569.966 357.807 570.007 357.815 570.045 357.831C570.082 357.846 570.117 357.869 570.146 357.898C570.175 357.927 570.198 357.961 570.213 357.999C570.229 358.037 570.237 358.077 570.237 358.118V359.692H574.911V358.118C574.911 358.077 574.919 358.037 574.934 357.999C574.95 357.961 574.973 357.927 575.002 357.898C575.031 357.869 575.065 357.846 575.103 357.831C575.141 357.815 575.181 357.807 575.222 357.807H582.695C582.735 357.807 582.776 357.815 582.814 357.831C582.852 357.846 582.886 357.869 582.915 357.898C582.944 357.927 582.967 357.961 582.983 357.999C582.998 358.037 583.006 358.077 583.006 358.118V359.692H587.674V358.118C587.674 358.077 587.682 358.037 587.698 357.999C587.713 357.961 587.736 357.927 587.765 357.898C587.794 357.869 587.829 357.846 587.867 357.831C587.904 357.815 587.945 357.807 587.986 357.807H595.458C595.499 357.807 595.54 357.815 595.577 357.831C595.615 357.846 595.65 357.869 595.679 357.898C595.708 357.927 595.731 357.961 595.746 357.999C595.762 358.037 595.77 358.077 595.77 358.118V359.692H600.438V358.118C600.438 358.077 600.446 358.037 600.461 357.999C600.477 357.961 600.5 357.927 600.529 357.898C600.558 357.869 600.592 357.846 600.63 357.831C600.668 357.815 600.709 357.807 600.749 357.807H608.222C608.263 357.807 608.303 357.815 608.341 357.831C608.379 357.846 608.413 357.869 608.442 357.898C608.471 357.927 608.494 357.961 608.51 357.999C608.526 358.037 608.534 358.077 608.533 358.118V359.692H613.207V358.118C613.207 358.077 613.215 358.037 613.231 357.999C613.246 357.961 613.269 357.927 613.298 357.898C613.327 357.869 613.362 357.846 613.399 357.831C613.437 357.815 613.478 357.807 613.519 357.807H620.991C621.032 357.807 621.073 357.815 621.11 357.831C621.148 357.846 621.183 357.869 621.212 357.898C621.241 357.927 621.263 357.961 621.279 357.999C621.295 358.037 621.303 358.077 621.303 358.118V359.692H625.971V358.118C625.971 358.077 625.979 358.037 625.994 357.999C626.01 357.961 626.033 357.927 626.062 357.898C626.091 357.869 626.125 357.846 626.163 357.831C626.201 357.815 626.241 357.807 626.282 357.807H684.815C684.856 357.807 684.896 357.815 684.934 357.831C684.972 357.846 685.006 357.869 685.035 357.898C685.064 357.927 685.087 357.961 685.103 357.999C685.119 358.037 685.127 358.077 685.127 358.118V359.692H689.8V358.118C689.8 358.077 689.808 358.037 689.824 357.999C689.839 357.961 689.862 357.927 689.891 357.898C689.92 357.869 689.955 357.846 689.992 357.831C690.03 357.815 690.071 357.807 690.112 357.807H697.584C697.667 357.808 697.745 357.841 697.804 357.899C697.862 357.957 697.895 358.036 697.896 358.118V359.692H702.564V358.118C702.564 358.077 702.572 358.037 702.587 357.999C702.603 357.961 702.626 357.927 702.655 357.898C702.684 357.869 702.718 357.846 702.756 357.831C702.794 357.815 702.834 357.807 702.875 357.807H710.348C710.389 357.807 710.429 357.815 710.467 357.831C710.505 357.846 710.539 357.869 710.568 357.898C710.597 357.927 710.62 357.961 710.636 357.999C710.651 358.037 710.659 358.077 710.659 358.118V359.692H715.327V358.118C715.327 358.077 715.335 358.037 715.351 357.999C715.367 357.961 715.39 357.927 715.419 357.898C715.448 357.869 715.482 357.846 715.52 357.831C715.558 357.815 715.598 357.807 715.639 357.807H723.111C723.152 357.807 723.193 357.815 723.231 357.831C723.269 357.846 723.303 357.869 723.332 357.898C723.361 357.927 723.384 357.961 723.399 357.999C723.415 358.037 723.423 358.077 723.423 358.118V359.692H728.097V358.118C728.097 358.077 728.105 358.037 728.12 357.999C728.136 357.961 728.159 357.927 728.188 357.898C728.217 357.869 728.251 357.846 728.289 357.831C728.327 357.815 728.367 357.807 728.408 357.807H735.881C735.962 357.808 736.04 357.841 736.098 357.9C736.155 357.958 736.187 358.037 736.187 358.118V359.692H740.86V358.118C740.86 358.077 740.868 358.037 740.884 357.999C740.9 357.961 740.922 357.927 740.951 357.898C740.98 357.869 741.015 357.846 741.053 357.831C741.09 357.815 741.131 357.807 741.172 357.807H748.644C748.685 357.807 748.726 357.815 748.764 357.831C748.801 357.846 748.836 357.869 748.865 357.898C748.894 357.927 748.917 357.961 748.932 357.999C748.948 358.037 748.956 358.077 748.956 358.118V359.692H753.624V358.118C753.624 358.077 753.632 358.037 753.648 357.999C753.663 357.961 753.686 357.927 753.715 357.898C753.744 357.869 753.778 357.846 753.816 357.831C753.854 357.815 753.895 357.807 753.936 357.807H761.408C761.449 357.807 761.489 357.815 761.527 357.831C761.565 357.846 761.599 357.869 761.628 357.898C761.657 357.927 761.68 357.961 761.696 357.999C761.712 358.037 761.72 358.077 761.72 358.118V359.692H783.513C784.495 359.692 785.467 359.884 786.373 360.26C787.28 360.635 788.104 361.185 788.798 361.878C789.492 362.572 790.042 363.395 790.417 364.301C790.793 365.207 790.986 366.178 790.986 367.158V367.158Z" fill="#3F3D56"/>
<path d="M770.98 225.035H678.373V223.127H636.381V225.035H543.391C542.569 225.035 541.754 225.197 540.994 225.511C540.234 225.826 539.544 226.287 538.962 226.868C538.38 227.449 537.919 228.139 537.604 228.899C537.289 229.658 537.127 230.472 537.127 231.294V358.007C537.127 359.668 537.787 361.26 538.962 362.434C540.137 363.608 541.73 364.267 543.391 364.267H770.98C772.642 364.267 774.235 363.608 775.41 362.434C776.584 361.26 777.244 359.668 777.244 358.007V231.294C777.244 230.472 777.082 229.658 776.768 228.899C776.453 228.139 775.991 227.449 775.41 226.868C774.828 226.287 774.137 225.826 773.377 225.511C772.617 225.197 771.803 225.035 770.98 225.035V225.035Z" fill="#3F3D56"/>
<path d="M657.368 283.173C665.05 283.173 671.278 276.95 671.278 269.273C671.278 261.597 665.05 255.374 657.368 255.374C649.686 255.374 643.458 261.597 643.458 269.273C643.458 276.95 649.686 283.173 657.368 283.173Z" stroke="#D0CDE1" stroke-width="2" stroke-miterlimit="10"/>
<path d="M652.917 288.177C660.599 288.177 666.827 281.954 666.827 274.277C666.827 266.601 660.599 260.378 652.917 260.378C645.235 260.378 639.007 266.601 639.007 274.277C639.007 281.954 645.235 288.177 652.917 288.177Z" fill="#D0CDE1"/>
<path d="M244.494 163.635C255.678 163.635 264.744 154.576 264.744 143.4C264.744 132.225 255.678 123.165 244.494 123.165C233.31 123.165 224.244 132.225 224.244 143.4C224.244 154.576 233.31 163.635 244.494 163.635Z" fill="#2F2E41"/>
<path d="M250.136 123.722C253.64 123.722 257.085 124.632 260.132 126.361C263.18 128.09 265.727 130.579 267.523 133.586C269.319 136.593 270.304 140.014 270.381 143.515C270.458 147.017 269.625 150.478 267.962 153.561C269.718 151.366 270.997 148.829 271.717 146.113C272.438 143.397 272.584 140.561 272.147 137.785C271.71 135.009 270.699 132.355 269.178 129.991C267.658 127.628 265.661 125.606 263.315 124.056C260.97 122.506 258.327 121.461 255.555 120.988C252.783 120.515 249.943 120.625 247.216 121.309C244.489 121.993 241.934 123.238 239.715 124.964C237.495 126.689 235.66 128.858 234.326 131.331C236.219 128.957 238.623 127.039 241.361 125.722C244.098 124.404 247.097 123.721 250.136 123.722V123.722Z" fill="#2F2E41"/>
<path d="M206.653 143.357C239.506 143.357 266.139 116.745 266.139 83.9166C266.139 51.0884 239.506 24.4758 206.653 24.4758C173.8 24.4758 147.168 51.0884 147.168 83.9166C147.168 116.745 173.8 143.357 206.653 143.357Z" fill="#2F2E41"/>
<path d="M159.967 47.0363C170.217 35.5177 184.544 28.4289 199.926 27.266C215.307 26.1032 230.539 30.9573 242.406 40.8038C241.92 40.3418 241.438 39.876 240.933 39.427C229.142 28.9529 213.67 23.5882 197.921 24.5131C182.171 25.438 167.435 32.5767 156.953 44.3588C146.471 56.1409 141.102 71.6013 142.028 87.3388C142.953 103.076 150.097 117.802 161.888 128.276C162.394 128.725 162.913 129.148 163.429 129.577C152.253 118.953 145.645 104.406 144.999 89.0059C144.353 73.6058 149.72 58.5572 159.967 47.0363V47.0363Z" fill="#2F2E41"/>
<path d="M206.149 142.854C227.309 142.854 244.462 125.713 244.462 104.57C244.462 83.4262 227.309 66.2859 206.149 66.2859C184.99 66.2859 167.837 83.4262 167.837 104.57C167.837 125.713 184.99 142.854 206.149 142.854Z" fill="#A0616A"/>
<path d="M178.927 116.659C178.927 116.659 183.968 163.003 175.902 168.04C167.837 173.078 222.281 180.13 222.281 180.13C222.281 180.13 214.215 129.757 234.38 116.659L178.927 116.659Z" fill="#A0616A"/>
<path d="M227.322 159.981C227.322 159.981 242.335 152.975 220.713 155.47C199.092 157.966 180.437 148.395 180.437 148.395C180.437 148.395 173.886 141.846 172.878 148.898C171.869 155.951 175.902 169.048 153.721 171.063C131.54 173.078 111.376 167.033 103.31 182.145C95.2443 197.257 99.2772 262.743 99.2772 262.743C99.2772 262.743 114.401 317.146 126.499 325.206C138.598 333.265 244.462 322.183 244.462 322.183L274.709 267.78V204.309C274.709 204.309 270.676 182.145 242.445 188.19C242.445 188.19 224.297 184.16 225.305 175.093C226.314 166.025 227.322 159.981 227.322 159.981Z" fill="#D0CDE1"/>
<path d="M130.501 363.706C131.124 360.993 131.541 359.458 131.541 359.458L131.218 357.251L127.897 334.712L126.5 325.205C138.596 320.167 141.623 296.994 141.623 296.994L142.079 296.722L144.143 295.488V295.482L151.554 291.04L151.705 290.951L154.698 292.941L160.779 296.994C168.752 302.939 177.878 307.156 187.575 309.376C197.271 311.596 207.324 311.77 217.092 309.887C221.638 309.109 226.084 307.826 230.345 306.062L245.012 301.175L245.468 301.025L245.919 301.092L254.52 302.393L254.676 302.421L255.388 302.526L253.397 316.287L250.509 336.285C258.137 340.322 264.919 347.905 270.851 357.251C272.164 359.319 273.436 361.471 274.667 363.706C276.27 366.597 277.8 369.605 279.258 372.685C279.436 373.052 279.608 373.424 279.781 373.797C280.343 375.003 280.899 376.221 281.439 377.444H127.83C128.03 376.215 128.23 375.042 128.425 373.914C128.435 373.875 128.443 373.836 128.447 373.797C128.52 373.419 128.587 373.052 128.648 372.685C129.327 369.015 129.983 365.952 130.501 363.706Z" fill="#2F2E41"/>
<path d="M124.483 170.055C124.483 170.055 135.573 190.205 131.54 215.391C127.508 240.578 143.639 303.041 143.639 303.041L155.738 300.019C155.738 300.019 147.672 247.63 149.688 235.541C151.705 223.451 151.705 176.1 141.623 170.055C131.54 164.01 124.483 170.055 124.483 170.055Z" fill="#2F2E41"/>
<path d="M241.736 190.994L245.974 302.538L254.04 307.575C254.04 307.575 265.635 185.167 259.585 185.167H247.276C246.524 185.167 245.779 185.32 245.088 185.617C244.397 185.913 243.773 186.347 243.255 186.893C242.736 187.438 242.334 188.082 242.073 188.788C241.812 189.493 241.698 190.244 241.736 190.994V190.994Z" fill="#2F2E41"/>
<path d="M149.184 300.523C151.969 300.523 154.226 298.267 154.226 295.485C154.226 292.703 151.969 290.448 149.184 290.448C146.4 290.448 144.143 292.703 144.143 295.485C144.143 298.267 146.4 300.523 149.184 300.523Z" fill="#38A169"/>
<path d="M250.007 305.56C252.791 305.56 255.048 303.305 255.048 300.523C255.048 297.741 252.791 295.485 250.007 295.485C247.223 295.485 244.966 297.741 244.966 300.523C244.966 303.305 247.223 305.56 250.007 305.56Z" fill="#38A169"/>
<path d="M173.382 56.7146V94.9988H182.255L193.546 82.9092L192.034 94.9988H231.254L228.835 82.9092L233.674 94.9988H239.924V56.7146H173.382Z" fill="#2F2E41"/>
<path d="M167.332 102.051C169.003 102.051 170.357 99.5701 170.357 96.5098C170.357 93.4496 169.003 90.9688 167.332 90.9688C165.662 90.9688 164.308 93.4496 164.308 96.5098C164.308 99.5701 165.662 102.051 167.332 102.051Z" fill="#A0616A"/>
<path d="M244.966 102.051C246.636 102.051 247.991 99.5701 247.991 96.5098C247.991 93.4496 246.636 90.9688 244.966 90.9688C243.295 90.9688 241.941 93.4496 241.941 96.5098C241.941 99.5701 243.295 102.051 244.966 102.051Z" fill="#A0616A"/>
<path d="M265.635 300.019C265.635 300.019 219.76 291.455 216.736 306.567C213.711 321.68 267.651 315.131 267.651 315.131L265.635 300.019Z" fill="#A0616A"/>
<path d="M264.626 196.25C264.626 196.25 374.523 283.899 354.358 305.056C334.194 326.213 257.569 320.168 257.569 320.168L262.61 294.982L306.972 289.944L284.791 267.78L264.626 269.795V196.25Z" fill="#D0CDE1"/>
<path d="M102.302 342.333L116.417 353.415C116.417 353.415 126.499 384.646 141.623 375.579C156.746 366.512 127.508 334.273 127.508 334.273L110.368 328.228L102.302 342.333Z" fill="#A0616A"/>
<path d="M116.417 180.13L102.34 184.363C102.34 184.363 4.50395 256.698 0.471043 276.847C-3.56186 296.996 19.6273 308.079 19.6273 308.079L107.343 349.385L116.417 325.206L75.0798 304.049C75.0798 304.049 78.1045 298.004 66.0057 296.996C53.907 295.989 51.8906 282.892 51.8906 282.892C51.8906 282.892 76.088 245.615 89.1949 253.675C102.302 261.735 106.335 267.78 106.335 267.78L116.417 180.13Z" fill="#D0CDE1"/>
<path d="M317.198 367.158V370.533C317.2 371.459 317.028 372.378 316.692 373.241C316.542 373.626 316.362 373.997 316.152 374.353C315.489 375.465 314.548 376.386 313.421 377.025C312.295 377.665 311.021 378.001 309.726 378H61.2686C59.973 378.001 58.6995 377.665 57.5729 377.025C56.4463 376.386 55.5053 375.465 54.8422 374.353C54.6325 373.997 54.452 373.626 54.3025 373.241C53.9661 372.378 53.7943 371.459 53.7962 370.533V367.158C53.796 366.178 53.9891 365.207 54.3645 364.301C54.7399 363.395 55.2903 362.572 55.9842 361.878C56.6782 361.185 57.502 360.635 58.4087 360.26C59.3154 359.884 60.2872 359.692 61.2686 359.692H75.5901V358.118C75.5901 358.077 75.5981 358.037 75.6137 357.999C75.6293 357.961 75.6523 357.927 75.6812 357.898C75.7102 357.869 75.7445 357.846 75.7824 357.831C75.8202 357.815 75.8608 357.807 75.9017 357.807H83.374C83.415 357.807 83.4555 357.815 83.4934 357.831C83.5312 357.846 83.5656 357.869 83.5945 357.898C83.6235 357.927 83.6464 357.961 83.6621 357.999C83.6777 358.037 83.6857 358.077 83.6856 358.118V359.692H88.3538V358.118C88.3537 358.077 88.3617 358.037 88.3773 357.999C88.393 357.961 88.4159 357.927 88.4449 357.898C88.4738 357.869 88.5082 357.846 88.546 357.831C88.5839 357.815 88.6244 357.807 88.6653 357.807H96.1377C96.1786 357.807 96.2192 357.815 96.257 357.831C96.2948 357.846 96.3292 357.869 96.3582 357.898C96.3871 357.927 96.4101 357.961 96.4257 357.999C96.4413 358.037 96.4493 358.077 96.4493 358.118V359.692H101.123V358.118C101.123 358.077 101.131 358.037 101.147 357.999C101.162 357.961 101.185 357.927 101.214 357.898C101.243 357.869 101.277 357.846 101.315 357.831C101.353 357.815 101.394 357.807 101.435 357.807H108.907C108.948 357.807 108.988 357.815 109.026 357.831C109.064 357.846 109.098 357.869 109.127 357.898C109.156 357.927 109.179 357.961 109.195 357.999C109.211 358.037 109.219 358.077 109.219 358.118V359.692H113.887V358.118C113.887 358.077 113.895 358.037 113.91 357.999C113.926 357.961 113.949 357.927 113.978 357.898C114.007 357.869 114.041 357.846 114.079 357.831C114.117 357.815 114.157 357.807 114.198 357.807H121.671C121.712 357.807 121.752 357.815 121.79 357.831C121.828 357.846 121.862 357.869 121.891 357.898C121.92 357.927 121.943 357.961 121.959 357.999C121.974 358.037 121.982 358.077 121.982 358.118V359.692H126.65V358.118C126.65 358.077 126.658 358.037 126.674 357.999C126.69 357.961 126.712 357.927 126.741 357.898C126.77 357.869 126.805 357.846 126.843 357.831C126.88 357.815 126.921 357.807 126.962 357.807H134.434C134.475 357.807 134.516 357.815 134.554 357.831C134.591 357.846 134.626 357.869 134.655 357.898C134.684 357.927 134.707 357.961 134.722 357.999C134.738 358.037 134.746 358.077 134.746 358.118V359.692H139.419V358.118C139.419 358.077 139.427 358.037 139.443 357.999C139.459 357.961 139.482 357.927 139.511 357.898C139.54 357.869 139.574 357.846 139.612 357.831C139.65 357.815 139.69 357.807 139.731 357.807H147.203C147.244 357.807 147.285 357.815 147.323 357.831C147.361 357.846 147.395 357.869 147.424 357.898C147.453 357.927 147.476 357.961 147.491 357.999C147.507 358.037 147.515 358.077 147.515 358.118V359.692H152.183V358.118C152.183 358.077 152.191 358.037 152.207 357.999C152.222 357.961 152.245 357.927 152.274 357.898C152.303 357.869 152.338 357.846 152.375 357.831C152.413 357.815 152.454 357.807 152.495 357.807H211.027C211.068 357.807 211.109 357.815 211.147 357.831C211.184 357.846 211.219 357.869 211.248 357.898C211.277 357.927 211.3 357.961 211.315 357.999C211.331 358.037 211.339 358.077 211.339 358.118V359.692H216.013V358.118C216.012 358.077 216.021 358.037 216.036 357.999C216.052 357.961 216.075 357.927 216.104 357.898C216.133 357.869 216.167 357.846 216.205 357.831C216.243 357.815 216.283 357.807 216.324 357.807H223.796C223.879 357.808 223.958 357.841 224.016 357.899C224.074 357.957 224.107 358.036 224.108 358.118V359.692H228.776V358.118C228.776 358.077 228.784 358.037 228.8 357.999C228.815 357.961 228.838 357.927 228.867 357.898C228.896 357.869 228.931 357.846 228.968 357.831C229.006 357.815 229.047 357.807 229.088 357.807H236.56C236.601 357.807 236.642 357.815 236.679 357.831C236.717 357.846 236.752 357.869 236.781 357.898C236.81 357.927 236.832 357.961 236.848 357.999C236.864 358.037 236.872 358.077 236.872 358.118V359.692H241.54V358.118C241.54 358.077 241.548 358.037 241.563 357.999C241.579 357.961 241.602 357.927 241.631 357.898C241.66 357.869 241.694 357.846 241.732 357.831C241.77 357.815 241.81 357.807 241.851 357.807H249.324C249.365 357.807 249.405 357.815 249.443 357.831C249.481 357.846 249.515 357.869 249.544 357.898C249.573 357.927 249.596 357.961 249.612 357.999C249.627 358.037 249.635 358.077 249.635 358.118V359.692H254.309V358.118C254.309 358.077 254.317 358.037 254.333 357.999C254.348 357.961 254.371 357.927 254.4 357.898C254.429 357.869 254.464 357.846 254.501 357.831C254.539 357.815 254.58 357.807 254.621 357.807H262.093C262.175 357.808 262.253 357.841 262.31 357.9C262.368 357.958 262.399 358.037 262.399 358.118V359.692H267.073V358.118C267.073 358.077 267.081 358.037 267.096 357.999C267.112 357.961 267.135 357.927 267.164 357.898C267.193 357.869 267.227 357.846 267.265 357.831C267.303 357.815 267.343 357.807 267.384 357.807H274.857C274.898 357.807 274.938 357.815 274.976 357.831C275.014 357.846 275.048 357.869 275.077 357.898C275.106 357.927 275.129 357.961 275.145 357.999C275.16 358.037 275.168 358.077 275.168 358.118V359.692H279.836V358.118C279.836 358.077 279.844 358.037 279.86 357.999C279.876 357.961 279.899 357.927 279.927 357.898C279.956 357.869 279.991 357.846 280.029 357.831C280.066 357.815 280.107 357.807 280.148 357.807H287.62C287.661 357.807 287.702 357.815 287.74 357.831C287.777 357.846 287.812 357.869 287.841 357.898C287.87 357.927 287.893 357.961 287.908 357.999C287.924 358.037 287.932 358.077 287.932 358.118V359.692H309.726C310.707 359.692 311.679 359.884 312.586 360.26C313.492 360.635 314.316 361.185 315.01 361.878C315.704 362.572 316.254 363.395 316.63 364.301C317.005 365.207 317.198 366.178 317.198 367.158V367.158Z" fill="#3F3D56"/>
<path d="M297.192 225.032H204.584V223.125H162.592V225.032H69.6027C67.9413 225.032 66.348 225.692 65.1733 226.865C63.9985 228.039 63.3385 229.631 63.3385 231.292V358.005C63.3385 359.665 63.9985 361.257 65.1732 362.431C66.348 363.605 67.9413 364.264 69.6027 364.264H297.192C298.853 364.264 300.446 363.605 301.621 362.431C302.796 361.257 303.456 359.665 303.456 358.005V231.292C303.456 229.631 302.796 228.039 301.621 226.865C300.446 225.692 298.853 225.032 297.192 225.032V225.032Z" fill="#3F3D56"/>
<path d="M183.579 283.17C191.262 283.17 197.489 276.947 197.489 269.271C197.489 261.594 191.262 255.371 183.579 255.371C175.897 255.371 169.67 261.594 169.67 269.271C169.67 276.947 175.897 283.17 183.579 283.17Z" stroke="#D0CDE1" stroke-width="2" stroke-miterlimit="10"/>
<path d="M179.128 288.174C186.81 288.174 193.038 281.951 193.038 274.275C193.038 266.598 186.81 260.375 179.128 260.375C171.446 260.375 165.218 266.598 165.218 274.275C165.218 281.951 171.446 288.174 179.128 288.174Z" fill="#D0CDE1"/>
</g>
<defs>
<clipPath id="clip0">
<rect width="833" height="378" fill="white"/>
</clipPath>
</defs>
</svg>
