<svg width="669" height="361" viewBox="0 0 669 361" fill="none" xmlns="http://www.w3.org/2000/svg">
<g clip-path="url(#clip0)">
<path opacity="0.1" d="M669 231.709C669.008 241.516 667.66 251.277 664.994 260.715C662.418 269.813 658.627 278.523 653.725 286.609C653.725 315.907 633.948 341.228 605.24 353.274C593.245 358.258 580.376 360.802 567.387 360.76H126.999C103.461 360.76 81.6484 354.409 63.7597 343.59C58.6401 340.508 53.7835 337.009 49.2394 333.129C29.3565 316.041 17.0291 292.427 17.0291 266.346C5.87024 249.163 -0.0467206 229.104 3.07769e-05 208.616C3.07769e-05 165.716 25.3741 128.828 61.7246 112.542C66.5516 110.38 71.5393 108.597 76.6426 107.208C78.4477 106.717 80.2722 106.277 82.1163 105.887C87.0321 104.84 92.0182 104.156 97.0343 103.84C98.8471 103.727 100.67 103.663 102.502 103.647H103.508C105.531 103.647 107.537 103.717 109.531 103.834L110.186 102.723C110.989 101.382 111.812 100.054 112.654 98.7406C114.174 96.3469 115.769 93.9883 117.438 91.6647C119.184 89.2125 121.007 86.7993 122.905 84.4251L123.391 83.8403C124.467 82.4992 125.566 81.1737 126.689 79.8637C130.198 75.7741 133.901 71.8073 137.8 67.9633C179.969 26.6307 246.033 0.0229492 320.301 0.0229492C378.09 0.0229492 430.914 16.1338 471.376 42.7532C486.704 34.0789 504.02 29.5273 521.633 29.5429C578.79 29.5429 625.141 76.5422 625.141 134.518C625.132 138.186 624.937 141.852 624.556 145.5C638.334 155.253 649.564 168.177 657.299 183.181C665.034 198.185 669.047 214.829 669 231.709V231.709Z" fill="#38A169"/>
<path opacity="0.2" d="M137.812 67.9404V79.8408H126.701C130.182 75.7551 133.886 71.7883 137.812 67.9404Z" fill="#38A169"/>
<path opacity="0.2" d="M158.203 64.9229H143.285V79.8407H158.203V64.9229Z" fill="#38A169"/>
<path opacity="0.2" d="M178.589 64.9229H163.671V79.8407H178.589V64.9229Z" fill="#38A169"/>
<path opacity="0.2" d="M198.981 64.9229H184.063V79.8407H198.981V64.9229Z" fill="#38A169"/>
<path opacity="0.2" d="M219.366 64.9229H204.448V79.8407H219.366V64.9229Z" fill="#38A169"/>
<path opacity="0.2" d="M239.758 64.9229H224.84V79.8407H239.758V64.9229Z" fill="#38A169"/>
<path d="M260.15 64.9229H245.232V79.8407H260.15V64.9229Z" fill="#38A169"/>
<path opacity="0.2" d="M280.536 64.9229H265.618V79.8407H280.536V64.9229Z" fill="#38A169"/>
<path opacity="0.2" d="M300.927 64.9229H286.009V79.8407H300.927V64.9229Z" fill="#38A169"/>
<path opacity="0.2" d="M321.313 64.9229H306.395V79.8407H321.313V64.9229Z" fill="#38A169"/>
<path d="M341.705 64.9229H326.787V79.8407H341.705V64.9229Z" fill="#38A169"/>
<path opacity="0.2" d="M362.096 64.9229H347.178V79.8407H362.096V64.9229Z" fill="#38A169"/>
<path opacity="0.2" d="M382.482 64.9229H367.564V79.8407H382.482V64.9229Z" fill="#38A169"/>
<path opacity="0.2" d="M402.874 64.9229H387.956V79.8407H402.874V64.9229Z" fill="#38A169"/>
<path opacity="0.2" d="M423.265 64.9229H408.347V79.8407H423.265V64.9229Z" fill="#38A169"/>
<path opacity="0.2" d="M443.651 64.9229H428.733V79.8407H443.651V64.9229Z" fill="#38A169"/>
<path opacity="0.2" d="M464.043 64.9229H449.125V79.8407H464.043V64.9229Z" fill="#38A169"/>
<path d="M484.429 64.9229H469.51V79.8407H484.429V64.9229Z" fill="#38A169"/>
<path d="M504.82 64.9229H489.902V79.8407H504.82V64.9229Z" fill="#38A169"/>
<path opacity="0.2" d="M525.212 64.9229H510.294V79.8407H525.212V64.9229Z" fill="#38A169"/>
<path opacity="0.2" d="M545.598 64.9229H530.68V79.8407H545.598V64.9229Z" fill="#38A169"/>
<path d="M565.989 64.9229H551.071V79.8407H565.989V64.9229Z" fill="#38A169"/>
<path d="M586.375 64.9229H571.457V79.8407H586.375V64.9229Z" fill="#38A169"/>
<path d="M117.426 91.6594V98.7353H112.642C114.163 96.326 115.757 93.9674 117.426 91.6594Z" fill="#38A169"/>
<path opacity="0.2" d="M137.812 83.8174H122.894V98.7353H137.812V83.8174Z" fill="#38A169"/>
<path d="M158.203 83.8174H143.285V98.7353H158.203V83.8174Z" fill="#38A169"/>
<path opacity="0.2" d="M178.589 83.8174H163.671V98.7353H178.589V83.8174Z" fill="#38A169"/>
<path opacity="0.7" d="M198.981 83.8174H184.063V98.7353H198.981V83.8174Z" fill="#38A169"/>
<path opacity="0.2" d="M219.366 83.8174H204.448V98.7353H219.366V83.8174Z" fill="#38A169"/>
<path opacity="0.4" d="M239.758 83.8174H224.84V98.7353H239.758V83.8174Z" fill="#38A169"/>
<path d="M260.15 83.8174H245.232V98.7353H260.15V83.8174Z" fill="#38A169"/>
<path opacity="0.4" d="M280.536 83.8174H265.618V98.7353H280.536V83.8174Z" fill="#38A169"/>
<path opacity="0.2" d="M300.927 83.8174H286.009V98.7353H300.927V83.8174Z" fill="#38A169"/>
<path opacity="0.4" d="M321.313 83.8174H306.395V98.7353H321.313V83.8174Z" fill="#38A169"/>
<path d="M341.705 83.8174H326.787V98.7353H341.705V83.8174Z" fill="#38A169"/>
<path opacity="0.4" d="M362.096 83.8174H347.178V98.7353H362.096V83.8174Z" fill="#38A169"/>
<path opacity="0.4" d="M382.482 83.8174H367.564V98.7353H382.482V83.8174Z" fill="#38A169"/>
<path opacity="0.2" d="M402.874 83.8174H387.956V98.7353H402.874V83.8174Z" fill="#38A169"/>
<path opacity="0.4" d="M423.265 83.8174H408.347V98.7353H423.265V83.8174Z" fill="#38A169"/>
<path opacity="0.4" d="M443.651 83.8174H428.733V98.7353H443.651V83.8174Z" fill="#38A169"/>
<path opacity="0.2" d="M464.043 83.8174H449.125V98.7353H464.043V83.8174Z" fill="#38A169"/>
<path opacity="0.2" d="M484.429 83.8174H469.51V98.7353H484.429V83.8174Z" fill="#38A169"/>
<path opacity="0.4" d="M504.82 83.8174H489.902V98.7353H504.82V83.8174Z" fill="#38A169"/>
<path opacity="0.2" d="M525.212 83.8174H510.294V98.7353H525.212V83.8174Z" fill="#38A169"/>
<path d="M545.598 83.8174H530.68V98.7353H545.598V83.8174Z" fill="#38A169"/>
<path d="M565.989 83.8174H551.071V98.7353H565.989V83.8174Z" fill="#38A169"/>
<path d="M586.375 83.8174H571.457V98.7353H586.375V83.8174Z" fill="#38A169"/>
<path opacity="0.2" d="M76.6426 107.209V117.635H61.7246V112.542C66.5516 110.38 71.5393 108.597 76.6426 107.209V107.209Z" fill="#38A169"/>
<path opacity="0.2" d="M97.0342 103.84V117.635H82.1162V105.887L97.0342 103.84Z" fill="#38A169"/>
<path d="M117.42 102.718H102.502V117.636H117.42V102.718Z" fill="#38A169"/>
<path opacity="0.7" d="M137.812 102.718H122.894V117.636H137.812V102.718Z" fill="#38A169"/>
<path d="M158.203 102.718H143.285V117.636H158.203V102.718Z" fill="#38A169"/>
<path opacity="0.7" d="M178.589 102.718H163.671V117.636H178.589V102.718Z" fill="#38A169"/>
<path opacity="0.7" d="M198.981 102.718H184.063V117.636H198.981V102.718Z" fill="#38A169"/>
<path opacity="0.2" d="M219.366 102.718H204.448V117.636H219.366V102.718Z" fill="#38A169"/>
<path opacity="0.4" d="M239.758 102.718H224.84V117.636H239.758V102.718Z" fill="#38A169"/>
<path opacity="0.4" d="M260.15 102.718H245.232V117.636H260.15V102.718Z" fill="#38A169"/>
<path d="M280.536 102.718H265.618V117.636H280.536V102.718Z" fill="#38A169"/>
<path opacity="0.2" d="M300.927 102.718H286.009V117.636H300.927V102.718Z" fill="#38A169"/>
<path opacity="0.4" d="M321.313 102.718H306.395V117.636H321.313V102.718Z" fill="#38A169"/>
<path d="M341.705 102.718H326.787V117.636H341.705V102.718Z" fill="#38A169"/>
<path opacity="0.2" d="M362.096 102.718H347.178V117.636H362.096V102.718Z" fill="#38A169"/>
<path opacity="0.4" d="M382.482 102.718H367.564V117.636H382.482V102.718Z" fill="#38A169"/>
<path opacity="0.2" d="M402.874 102.718H387.956V117.636H402.874V102.718Z" fill="#38A169"/>
<path d="M423.265 102.718H408.347V117.636H423.265V102.718Z" fill="#38A169"/>
<path opacity="0.2" d="M443.651 102.718H428.733V117.636H443.651V102.718Z" fill="#38A169"/>
<path opacity="0.7" d="M464.043 102.718H449.125V117.636H464.043V102.718Z" fill="#38A169"/>
<path opacity="0.7" d="M484.429 102.718H469.51V117.636H484.429V102.718Z" fill="#38A169"/>
<path opacity="0.4" d="M504.82 102.718H489.902V117.636H504.82V102.718Z" fill="#38A169"/>
<path opacity="0.2" d="M525.212 102.718H510.294V117.636H525.212V102.718Z" fill="#38A169"/>
<path d="M545.598 102.718H530.68V117.636H545.598V102.718Z" fill="#38A169"/>
<path d="M565.989 102.718H551.071V117.636H565.989V102.718Z" fill="#38A169"/>
<path d="M586.375 102.718H571.457V117.636H586.375V102.718Z" fill="#38A169"/>
<path opacity="0.2" d="M76.6426 121.612H61.7246V136.53H76.6426V121.612Z" fill="#38A169"/>
<path opacity="0.2" d="M97.0342 121.612H82.1162V136.53H97.0342V121.612Z" fill="#38A169"/>
<path opacity="0.2" d="M117.42 121.612H102.502V136.53H117.42V121.612Z" fill="#38A169"/>
<path opacity="0.2" d="M137.812 121.612H122.894V136.53H137.812V121.612Z" fill="#38A169"/>
<path d="M158.203 121.612H143.285V136.53H158.203V121.612Z" fill="#38A169"/>
<path opacity="0.7" d="M178.589 121.612H163.671V136.53H178.589V121.612Z" fill="#38A169"/>
<path opacity="0.7" d="M198.981 121.612H184.063V136.53H198.981V121.612Z" fill="#38A169"/>
<path opacity="0.2" d="M219.366 121.612H204.448V136.53H219.366V121.612Z" fill="#38A169"/>
<path opacity="0.2" d="M239.758 121.612H224.84V136.53H239.758V121.612Z" fill="#38A169"/>
<path opacity="0.4" d="M260.15 121.612H245.232V136.53H260.15V121.612Z" fill="#38A169"/>
<path opacity="0.4" d="M280.536 121.612H265.618V136.53H280.536V121.612Z" fill="#38A169"/>
<path d="M300.927 121.612H286.009V136.53H300.927V121.612Z" fill="#38A169"/>
<path opacity="0.2" d="M321.313 121.612H306.395V136.53H321.313V121.612Z" fill="#38A169"/>
<path opacity="0.4" d="M341.705 121.612H326.787V136.53H341.705V121.612Z" fill="#38A169"/>
<path opacity="0.4" d="M362.096 121.612H347.178V136.53H362.096V121.612Z" fill="#38A169"/>
<path opacity="0.4" d="M382.482 121.612H367.564V136.53H382.482V121.612Z" fill="#38A169"/>
<path opacity="0.4" d="M402.874 121.612H387.956V136.53H402.874V121.612Z" fill="#38A169"/>
<path opacity="0.2" d="M423.265 121.612H408.347V136.53H423.265V121.612Z" fill="#38A169"/>
<path opacity="0.2" d="M443.651 121.612H428.733V136.53H443.651V121.612Z" fill="#38A169"/>
<path opacity="0.2" d="M464.043 121.612H449.125V136.53H464.043V121.612Z" fill="#38A169"/>
<path opacity="0.2" d="M484.429 121.612H469.51V136.53H484.429V121.612Z" fill="#38A169"/>
<path opacity="0.7" d="M504.82 121.612H489.902V136.53H504.82V121.612Z" fill="#38A169"/>
<path opacity="0.7" d="M525.212 121.612H510.294V136.53H525.212V121.612Z" fill="#38A169"/>
<path opacity="0.4" d="M545.598 121.612H530.68V136.53H545.598V121.612Z" fill="#38A169"/>
<path opacity="0.2" d="M565.989 121.612H551.071V136.53H565.989V121.612Z" fill="#38A169"/>
<path d="M586.375 121.612H571.457V136.53H586.375V121.612Z" fill="#38A169"/>
<path opacity="0.2" d="M76.6426 140.512H61.7246V155.43H76.6426V140.512Z" fill="#38A169"/>
<path opacity="0.2" d="M97.0342 140.512H82.1162V155.43H97.0342V140.512Z" fill="#38A169"/>
<path opacity="0.4" d="M117.42 140.512H102.502V155.43H117.42V140.512Z" fill="#38A169"/>
<path opacity="0.2" d="M137.812 140.512H122.894V155.43H137.812V140.512Z" fill="#38A169"/>
<path opacity="0.2" d="M158.203 140.512H143.285V155.43H158.203V140.512Z" fill="#38A169"/>
<path opacity="0.7" d="M178.589 140.512H163.671V155.43H178.589V140.512Z" fill="#38A169"/>
<path opacity="0.7" d="M198.981 140.512H184.063V155.43H198.981V140.512Z" fill="#38A169"/>
<path opacity="0.2" d="M219.366 140.512H204.448V155.43H219.366V140.512Z" fill="#38A169"/>
<path opacity="0.2" d="M239.758 140.512H224.84V155.43H239.758V140.512Z" fill="#38A169"/>
<path opacity="0.4" d="M260.15 140.512H245.232V155.43H260.15V140.512Z" fill="#38A169"/>
<path d="M280.536 140.512H265.618V155.43H280.536V140.512Z" fill="#38A169"/>
<path opacity="0.2" d="M300.927 140.512H286.009V155.43H300.927V140.512Z" fill="#38A169"/>
<path d="M321.313 140.512H306.395V155.43H321.313V140.512Z" fill="#38A169"/>
<path d="M341.705 140.512H326.787V155.43H341.705V140.512Z" fill="#38A169"/>
<path d="M362.096 140.512H347.178V155.43H362.096V140.512Z" fill="#38A169"/>
<path opacity="0.2" d="M382.482 140.512H367.564V155.43H382.482V140.512Z" fill="#38A169"/>
<path d="M402.874 140.512H387.956V155.43H402.874V140.512Z" fill="#38A169"/>
<path opacity="0.2" d="M423.265 140.512H408.347V155.43H423.265V140.512Z" fill="#38A169"/>
<path opacity="0.2" d="M443.651 140.512H428.733V155.43H443.651V140.512Z" fill="#38A169"/>
<path opacity="0.2" d="M464.043 140.512H449.125V155.43H464.043V140.512Z" fill="#38A169"/>
<path opacity="0.2" d="M484.429 140.512H469.51V155.43H484.429V140.512Z" fill="#38A169"/>
<path opacity="0.2" d="M504.82 140.512H489.902V155.43H504.82V140.512Z" fill="#38A169"/>
<path opacity="0.7" d="M525.212 140.512H510.294V155.43H525.212V140.512Z" fill="#38A169"/>
<path opacity="0.2" d="M545.598 140.512H530.68V155.43H545.598V140.512Z" fill="#38A169"/>
<path opacity="0.2" d="M565.989 140.512H551.071V155.43H565.989V140.512Z" fill="#38A169"/>
<path d="M586.375 140.512H571.457V155.43H586.375V140.512Z" fill="#38A169"/>
<path opacity="0.2" d="M76.6426 159.407H61.7246V174.325H76.6426V159.407Z" fill="#38A169"/>
<path opacity="0.2" d="M97.0342 159.407H82.1162V174.325H97.0342V159.407Z" fill="#38A169"/>
<path opacity="0.2" d="M117.42 159.407H102.502V174.325H117.42V159.407Z" fill="#38A169"/>
<path opacity="0.4" d="M137.812 159.407H122.894V174.325H137.812V159.407Z" fill="#38A169"/>
<path opacity="0.2" d="M158.203 159.407H143.285V174.325H158.203V159.407Z" fill="#38A169"/>
<path opacity="0.2" d="M178.589 159.407H163.671V174.325H178.589V159.407Z" fill="#38A169"/>
<path opacity="0.7" d="M198.981 159.407H184.063V174.325H198.981V159.407Z" fill="#38A169"/>
<path opacity="0.2" d="M219.366 159.407H204.448V174.325H219.366V159.407Z" fill="#38A169"/>
<path opacity="0.2" d="M239.758 159.407H224.84V174.325H239.758V159.407Z" fill="#38A169"/>
<path opacity="0.2" d="M260.15 159.407H245.232V174.325H260.15V159.407Z" fill="#38A169"/>
<path d="M280.536 159.407H265.618V174.325H280.536V159.407Z" fill="#38A169"/>
<path opacity="0.2" d="M300.927 159.407H286.009V174.325H300.927V159.407Z" fill="#38A169"/>
<path d="M321.313 159.407H306.395V174.325H321.313V159.407Z" fill="#38A169"/>
<path d="M341.705 159.407H326.787V174.325H341.705V159.407Z" fill="#38A169"/>
<path opacity="0.2" d="M362.096 159.407H347.178V174.325H362.096V159.407Z" fill="#38A169"/>
<path opacity="0.2" d="M382.482 159.407H367.564V174.325H382.482V159.407Z" fill="#38A169"/>
<path opacity="0.2" d="M402.874 159.407H387.956V174.325H402.874V159.407Z" fill="#38A169"/>
<path opacity="0.2" d="M423.265 159.407H408.347V174.325H423.265V159.407Z" fill="#38A169"/>
<path opacity="0.2" d="M443.651 159.407H428.733V174.325H443.651V159.407Z" fill="#38A169"/>
<path opacity="0.2" d="M464.043 159.407H449.125V174.325H464.043V159.407Z" fill="#38A169"/>
<path opacity="0.2" d="M484.429 159.407H469.51V174.325H484.429V159.407Z" fill="#38A169"/>
<path opacity="0.2" d="M504.82 159.407H489.902V174.325H504.82V159.407Z" fill="#38A169"/>
<path opacity="0.2" d="M525.212 159.407H510.294V174.325H525.212V159.407Z" fill="#38A169"/>
<path opacity="0.2" d="M545.598 159.407H530.68V174.325H545.598V159.407Z" fill="#38A169"/>
<path opacity="0.4" d="M565.989 159.407H551.071V174.325H565.989V159.407Z" fill="#38A169"/>
<path d="M586.375 159.407H571.457V174.325H586.375V159.407Z" fill="#38A169"/>
<path opacity="0.7" d="M76.6426 178.307H61.7246V193.225H76.6426V178.307Z" fill="#38A169"/>
<path opacity="0.7" d="M97.0342 178.307H82.1162V193.225H97.0342V178.307Z" fill="#38A169"/>
<path opacity="0.7" d="M117.42 178.307H102.502V193.225H117.42V178.307Z" fill="#38A169"/>
<path opacity="0.7" d="M137.812 178.307H122.894V193.225H137.812V178.307Z" fill="#38A169"/>
<path opacity="0.7" d="M158.203 178.307H143.285V193.225H158.203V178.307Z" fill="#38A169"/>
<path opacity="0.2" d="M178.589 178.307H163.671V193.225H178.589V178.307Z" fill="#38A169"/>
<path opacity="0.2" d="M198.981 178.307H184.063V193.225H198.981V178.307Z" fill="#38A169"/>
<path opacity="0.2" d="M219.366 178.307H204.448V193.225H219.366V178.307Z" fill="#38A169"/>
<path opacity="0.2" d="M239.758 178.307H224.84V193.225H239.758V178.307Z" fill="#38A169"/>
<path opacity="0.2" d="M260.15 178.307H245.232V193.225H260.15V178.307Z" fill="#38A169"/>
<path opacity="0.2" d="M280.536 178.307H265.618V193.225H280.536V178.307Z" fill="#38A169"/>
<path d="M300.927 178.307H286.009V193.225H300.927V178.307Z" fill="#38A169"/>
<path opacity="0.2" d="M321.313 178.307H306.395V193.225H321.313V178.307Z" fill="#38A169"/>
<path opacity="0.2" d="M341.705 178.307H326.787V193.225H341.705V178.307Z" fill="#38A169"/>
<path opacity="0.2" d="M362.096 178.307H347.178V193.225H362.096V178.307Z" fill="#38A169"/>
<path d="M382.482 178.307H367.564V193.225H382.482V178.307Z" fill="#38A169"/>
<path opacity="0.2" d="M402.874 178.307H387.956V193.225H402.874V178.307Z" fill="#38A169"/>
<path opacity="0.2" d="M423.265 178.307H408.347V193.225H423.265V178.307Z" fill="#38A169"/>
<path opacity="0.2" d="M443.651 178.307H428.733V193.225H443.651V178.307Z" fill="#38A169"/>
<path opacity="0.2" d="M464.043 178.307H449.125V193.225H464.043V178.307Z" fill="#38A169"/>
<path opacity="0.2" d="M484.429 178.307H469.51V193.225H484.429V178.307Z" fill="#38A169"/>
<path opacity="0.2" d="M504.82 178.307H489.902V193.225H504.82V178.307Z" fill="#38A169"/>
<path opacity="0.2" d="M525.212 178.307H510.294V193.225H525.212V178.307Z" fill="#38A169"/>
<path opacity="0.2" d="M545.598 178.307H530.68V193.225H545.598V178.307Z" fill="#38A169"/>
<path opacity="0.2" d="M565.989 178.307H551.071V193.225H565.989V178.307Z" fill="#38A169"/>
<path d="M586.375 178.307H571.457V193.225H586.375V178.307Z" fill="#38A169"/>
<path d="M429.54 233.189C440.802 233.189 449.932 224.06 449.932 212.798C449.932 201.536 440.802 192.406 429.54 192.406C418.278 192.406 409.149 201.536 409.149 212.798C409.149 224.06 418.278 233.189 429.54 233.189Z" fill="#767D9F"/>
<path d="M428.482 186.857C430.517 195.738 432.244 204.685 433.663 213.698C434.09 216.377 434.47 219.201 433.499 221.733C432.686 223.844 431.031 225.493 429.733 227.341C428.435 229.189 427.452 231.558 428.242 233.675C429.031 235.791 431.335 236.949 433.534 237.546C439.827 239.242 446.534 238.008 452.797 236.172C455.633 235.442 458.352 234.315 460.873 232.827C463.528 231.142 465.704 228.803 467.704 226.394C476.832 215.324 482.809 202.038 488.434 188.833C484.819 189.162 481.178 188.626 477.811 187.27C474.445 185.913 471.449 183.775 469.072 181.032C466.768 178.325 465.078 174.553 466.376 171.243C462.569 173.33 458.049 173.471 453.949 174.898C451.407 175.869 448.96 177.073 446.639 178.494C443.84 180.112 441.057 181.761 438.289 183.441C435.125 185.348 432.16 187.044 428.482 186.857Z" fill="#AE6E79"/>
<path d="M471.13 202.166C467.557 209.119 462.908 215.804 456.271 219.944C449.633 224.084 440.698 225.207 434.049 221.113C430.774 219.113 428.295 216.073 425.435 213.511C422.575 210.95 419.002 208.757 415.16 209.09C410.926 209.459 407.61 212.763 404.774 215.926C400.47 220.733 396.312 225.745 393.266 231.435C387.418 242.37 386.032 255.154 386.289 267.551C386.546 279.949 388.342 292.282 388.383 304.679C388.441 319.931 385.856 335.059 383.242 350.082C407.277 347.123 431.341 353.591 455.429 356.041C470.844 357.626 486.376 357.591 501.873 357.55C504.598 357.55 507.498 357.48 509.767 355.971C511.154 354.959 512.276 353.627 513.036 352.088C515.177 348.141 516.036 343.638 516.633 339.188C518.147 327.948 518.194 316.568 518.235 305.223C518.34 277.738 518.44 250.154 514.949 222.885C514.089 216.178 512.99 209.435 510.417 203.16C507.843 196.886 503.645 191.114 497.773 187.751C494.001 185.588 485.259 181.822 480.814 184.003C475.826 186.436 473.522 197.511 471.13 202.166Z" fill="#3F3D56"/>
<path d="M472.908 279.779C472.002 262.82 468.312 244.721 476.165 229.669C478.095 225.973 471.171 221.359 473.312 217.78C475.924 213.417 477.904 208.705 479.195 203.786C479.639 202.096 479.996 200.307 479.575 198.611C478.797 195.517 475.739 193.675 473.142 191.792C470.277 189.71 468.803 183.365 467.879 179.933C466.955 176.5 475.23 180.634 478.557 179.412C483.177 177.722 489.048 178.787 493.657 180.5C496.23 181.447 499.025 181.529 501.768 181.599C507.095 181.74 512.44 181.874 517.726 181.219C520.101 180.921 522.481 180.471 524.867 180.605C530.954 180.95 536.247 185.114 539.849 190.038C543.451 194.962 545.744 200.698 548.697 206.032C551.159 210.476 554.095 214.675 556.194 219.301C558.054 223.394 559.229 227.792 560.393 232.166L563.393 243.388C563.918 244.993 564.167 246.676 564.13 248.364C563.978 250.16 563.182 251.832 562.375 253.429C559.324 259.346 555.665 264.929 551.457 270.089C545.147 277.826 537.487 284.802 533.738 294.065C532.276 297.674 531.463 301.51 530.721 305.334C527.726 320.631 525.598 336.084 524.346 351.62C517.513 348.458 510.351 346.063 502.99 344.48C499.321 343.695 495.611 343.109 491.879 342.725C488.61 342.386 484.393 343.03 481.282 342.141C476.078 340.661 475.505 331.86 474.715 327.252C473.452 319.913 473.201 312.445 473.154 305.03C473.095 296.598 473.358 288.182 472.908 279.779Z" fill="#3F3D56"/>
<path d="M358.611 248.066C361.073 262.101 363.786 276.177 369.137 289.364C369.003 289.492 368.868 289.609 368.734 289.726C368.26 290.13 367.769 290.51 367.254 290.896C366.055 291.738 364.739 292.451 363.745 293.551C363.369 293.972 363.072 294.457 362.868 294.984C362.684 295.395 362.589 295.84 362.589 296.29C362.589 296.741 362.684 297.186 362.868 297.597C360.079 298.831 356.839 298.451 353.71 298.334C351.014 298.235 348.4 298.334 346.237 299.814C343.231 301.884 342.324 305.86 341.839 309.474C341.66 310.792 341.506 312.112 341.377 313.433C341.252 314.662 341.151 315.893 341.073 317.129C340.808 321.218 340.771 325.317 340.962 329.41C340.993 330.158 341.034 330.907 341.085 331.655C331.529 331.427 322.822 326.445 314.582 321.603C312.699 320.498 310.758 319.334 309.535 317.509C308.409 315.718 307.932 313.593 308.184 311.492C308.184 311.194 308.237 310.907 308.278 310.603C308.54 308.868 308.989 307.166 309.617 305.527C312.195 298.547 315.995 292.082 320.839 286.434C322.933 283.99 325.29 281.598 326.266 278.528C326.693 277.188 326.851 275.767 327.284 274.434C329.225 268.656 336.231 265.925 338.629 260.317C339.213 258.978 339.482 257.51 340.208 256.224C340.86 255.155 341.703 254.213 342.693 253.446C343.12 253.089 343.564 252.744 344.003 252.399C348.112 249.179 352.071 245.778 355.88 242.195C356.589 241.528 357.291 240.854 357.985 240.172C357.892 242.818 358.102 245.467 358.611 248.066V248.066Z" fill="#3F3D56"/>
<path d="M417.54 206.558C416.698 207.447 415.786 208.283 414.891 209.114L414.651 209.33L413.704 210.207C411.985 211.691 410.496 213.424 409.289 215.347L409.189 215.511C406.207 220.85 407.312 227.423 408.143 233.487C409.173 241.044 409.636 248.668 409.529 256.294C409.377 266.82 408.137 277.276 408.113 287.791C408.113 290.176 408.166 292.557 408.271 294.943C408.441 298.82 408.733 302.691 409.084 306.562C409.464 310.808 409.92 315.047 410.347 319.287C410.686 322.568 411.008 325.843 411.277 329.117C411.412 330.813 411.54 332.503 411.646 334.199C411.768 336.187 411.868 338.182 411.926 340.17C411.967 341.433 411.991 342.69 411.991 343.953C411.991 344.673 411.991 345.386 411.991 346.1C411.991 347.468 411.954 348.832 411.879 350.193C411.801 351.944 411.683 353.698 411.523 355.456C411.341 357.368 411.02 359.456 409.675 360.801C409.593 360.883 409.505 360.959 409.417 361.035L407.523 360.801C394.461 359.237 381.275 359.002 368.166 360.099C368.453 358.123 368.716 356.152 368.973 354.17C369.09 353.234 369.207 352.292 369.318 351.351C369.447 350.275 369.57 349.199 369.687 348.123C369.821 346.953 369.944 345.784 370.061 344.614C370.365 341.601 370.632 338.585 370.862 335.568C371.201 331.166 371.459 326.757 371.634 322.34C371.72 320.231 371.786 318.12 371.833 316.006C371.899 313.387 371.93 310.765 371.927 308.141C371.927 305.591 371.905 303.038 371.862 300.48C371.862 299.638 371.827 298.796 371.757 297.96C371.707 297.207 371.603 296.459 371.447 295.72C371.013 294.018 370.426 292.358 369.693 290.761C369.564 290.457 369.441 290.177 369.318 289.855C369.248 289.697 369.184 289.533 369.12 289.375C372.488 286.375 374.886 282.358 377.19 278.405C380.926 272.036 384.751 265.387 385.377 258.031C386.002 250.674 382.348 242.411 375.318 240.166C373.406 239.581 371.383 239.417 369.412 239.072C367.552 238.745 363.675 238.002 361.523 236.669C360.354 237.869 359.184 239.049 358.014 240.207C358.085 238.44 358.517 236.707 359.283 235.113L360.114 235.154C360.046 234.967 360.014 234.768 360.02 234.569C360.02 233.944 360.453 233.236 361.377 232.452C364.131 230.113 368.465 229.593 370.201 226.429C370.927 225.113 371.049 223.546 371.634 222.166C373.313 218.23 378.131 216.78 381.032 213.634C383.932 210.488 384.657 206.032 387.002 202.523C388.754 199.961 391.184 197.936 394.02 196.675C394.254 196.564 394.494 196.453 394.733 196.353C399.587 194.277 405.353 193.804 410.382 193.816C412.336 193.816 417.4 193.874 419.879 194.862C420.282 195.006 420.65 195.231 420.961 195.523C423.604 198.4 419.493 204.476 417.54 206.558Z" fill="#3F3D56"/>
<path d="M359.482 234.704C364 233.344 368.742 232.895 373.435 233.384C378.127 233.873 382.675 235.29 386.815 237.552C391.026 239.891 394.804 243.154 397.119 247.364C400.599 253.68 400.447 261.294 400.201 268.504C400.078 272.113 399.921 275.849 398.33 279.089C396.488 282.838 393.014 285.411 389.47 287.516C387.25 288.932 384.818 289.984 382.266 290.633C378.336 291.487 374.254 290.761 370.295 290.048C365.991 289.253 361.371 288.294 358.383 285.089C356.628 283.229 355.669 280.814 354.722 278.452C353.361 275.04 351.997 271.633 350.629 268.23C348.26 262.317 347.459 257.399 350.588 251.639C352.009 249.014 353.745 246.557 355.149 243.914C355.851 242.569 358.365 235.049 359.482 234.704Z" fill="#3F3D56"/>
<path d="M605.258 335.796V353.281C593.262 358.264 580.394 360.809 567.404 360.766H409.692C409.61 360.848 409.523 360.924 409.435 361L407.54 360.766H126.999C103.461 360.766 81.6484 354.415 63.7596 343.597V316.901L198.682 301.328H198.788L277.36 307.983L297.693 309.738L308.255 310.632L330.114 312.486L341.36 313.439L357.734 314.831L360.038 315.024L371.839 316.024L387.85 317.34L410.365 319.246L447.897 322.433L474.3 324.673L517.656 328.351L525.902 329.047L526.791 329.123L527.563 329.188L538.451 330.112L550.405 331.129L551.791 331.246L605.258 335.796Z" fill="#504F60"/>
<path d="M446.78 335.152L277.693 306.293L271.138 339.445L348.646 348.725L372.511 351.713L438.16 338.784L446.78 335.152Z" fill="#9C9CA1"/>
<path d="M359.254 350.053L443.967 334.129C444.391 334.048 444.827 334.062 445.245 334.169C445.663 334.277 446.052 334.475 446.384 334.751C446.716 335.026 446.983 335.372 447.166 335.763C447.348 336.154 447.442 336.581 447.441 337.012V337.012C447.442 337.697 447.204 338.36 446.767 338.887C446.33 339.414 445.722 339.77 445.049 339.895L362.319 355.386L359.254 350.053Z" fill="#9C9CA1"/>
<path d="M396.002 299.978C398.64 299.732 401.312 299.317 403.687 298.147C406.61 296.691 408.885 294.182 411.593 292.335C417.546 288.241 425.511 287.691 432.335 290.042C439.16 292.393 444.856 297.428 448.844 303.44C451.493 307.445 453.481 312.556 451.61 316.977C450.968 318.329 450.159 319.594 449.201 320.743L444.324 327.118C443.397 328.457 442.282 329.657 441.014 330.679C439.189 332.006 436.92 332.55 434.686 332.878C428.751 333.743 422.71 333.252 416.727 333.65C406.453 334.334 396.418 337.644 386.119 337.533C380.201 337.468 374.359 336.275 368.576 335.082L342.979 329.819C338.523 328.907 333.488 327.574 331.389 323.533C330.447 321.714 330.272 319.609 330.161 317.562C329.857 311.925 330.161 305.656 334.067 301.592C337.74 297.779 343.547 296.574 347.933 293.756C353.301 290.299 355.073 291.416 360.734 294.013C371.777 299.014 383.928 301.069 396.002 299.978V299.978Z" fill="#AE6E79"/>
<path opacity="0.05" d="M396.002 299.978C398.64 299.732 401.312 299.317 403.687 298.147C406.61 296.691 408.885 294.182 411.593 292.335C417.546 288.241 425.511 287.691 432.335 290.042C439.16 292.393 444.856 297.428 448.844 303.44C451.493 307.445 453.481 312.556 451.61 316.977C450.968 318.329 450.159 319.594 449.201 320.743L444.324 327.118C443.397 328.457 442.282 329.657 441.014 330.679C439.189 332.006 436.92 332.55 434.686 332.878C428.751 333.743 422.71 333.252 416.727 333.65C406.453 334.334 396.418 337.644 386.119 337.533C380.201 337.468 374.359 336.275 368.576 335.082L342.979 329.819C338.523 328.907 333.488 327.574 331.389 323.533C330.447 321.714 330.272 319.609 330.161 317.562C329.857 311.925 330.161 305.656 334.067 301.592C337.74 297.779 343.547 296.574 347.933 293.756C353.301 290.299 355.073 291.416 360.734 294.013C371.777 299.014 383.928 301.069 396.002 299.978V299.978Z" fill="black"/>
<path d="M498.791 291.96C491.61 294.738 484.388 297.527 476.867 299.182C464.259 301.96 451.066 301.521 438.558 304.697C431.949 306.381 425.382 309.094 418.593 308.545C415.558 308.299 412.628 307.375 409.675 306.673C393.084 302.58 374.225 303.907 360.751 314.433C356.143 318.03 352.371 322.515 348.95 327.299C348.218 328.332 347.723 329.514 347.501 330.761C347.279 332.007 347.335 333.288 347.665 334.51C347.996 335.732 348.592 336.867 349.411 337.832C350.231 338.797 351.254 339.57 352.406 340.094C357.646 342.503 363.259 344.001 369.003 344.521C376.681 345.199 384.394 344.111 392.032 343.024C403.365 341.415 414.704 339.801 426.008 337.994C430.066 337.345 434.125 336.673 438.207 336.158C467.581 332.445 497.487 336.959 526.937 333.86C529.914 333.544 532.943 333.135 535.65 331.866C542.504 328.65 545.896 320.17 544.481 312.72C543.065 305.27 537.604 299.077 531.03 295.276C525.522 292.077 519.58 290.785 513.446 289.428C507.75 288.101 504.276 289.855 498.791 291.96Z" fill="#AE6E79"/>
<path opacity="0.1" d="M561.79 247.423C565.03 251.668 565.72 257.364 565.369 262.68C565.018 267.996 563.755 273.253 563.568 278.592C563.311 285.913 565.077 293.212 564.779 300.51C564.568 305.615 563.358 310.621 561.925 315.521C560.235 321.305 557.79 327.521 552.451 330.299C545.364 333.989 530.498 331.913 523.042 334.802C523.721 330.574 530.223 324.451 530.902 320.223C531.37 317.299 531.843 314.293 531.34 311.363C530.697 307.627 528.504 304.311 525.902 301.551C521.762 297.159 516.358 293.855 510.422 292.779C504.487 291.703 489.955 292.586 485.206 296.334C484.621 292.463 495.499 288.732 499.323 287.896C501.23 287.469 503.417 287.709 504.943 286.498C507.867 284.206 505.744 279.639 505.884 275.972C505.996 273.048 507.703 270.37 508.048 267.446C508.633 262.768 505.58 258.002 506.779 253.411C507.224 251.715 508.212 250.224 508.896 248.61C510.978 243.669 510.066 238.031 508.955 232.78C508.265 229.482 507.592 225.762 509.428 222.95C511.13 220.324 515.96 229.675 519.054 229.242C529.27 227.809 538.516 220.236 546.767 226.435C550.972 229.593 551.522 232.868 553.2 237.376C554.831 241.669 559.059 243.867 561.79 247.423Z" fill="black"/>
<path d="M563.545 247.423C566.784 251.668 567.474 257.364 567.124 262.68C566.773 267.996 565.51 273.253 565.322 278.592C565.065 285.914 566.831 293.212 566.533 300.51C566.322 305.615 565.112 310.621 563.679 315.521C561.989 321.305 559.545 327.521 554.206 330.299C547.118 333.989 532.253 331.913 524.797 334.802C525.475 330.574 531.978 324.451 532.656 320.223C533.124 317.299 533.598 314.293 533.095 311.363C532.451 307.627 530.258 304.311 527.656 301.551C523.516 297.159 518.112 293.855 512.177 292.779C506.241 291.703 491.709 292.586 486.961 296.334C486.376 292.463 497.253 288.732 501.077 287.896C502.984 287.469 505.171 287.709 506.697 286.498C509.621 284.206 507.498 279.639 507.639 275.972C507.75 273.048 509.458 270.37 509.803 267.446C510.387 262.768 507.335 258.002 508.534 253.411C508.978 251.715 509.966 250.224 510.65 248.61C512.732 243.669 511.82 238.031 510.709 232.78C510.019 229.482 509.346 225.762 511.183 222.95C512.884 220.324 516.212 219.33 519.305 218.891C529.663 217.49 540.158 220.198 548.545 226.435C552.75 229.593 553.299 232.868 554.978 237.376C556.586 241.669 560.814 243.867 563.545 247.423Z" fill="#3F3D56"/>
<path d="M176.607 219.716L208.402 337.223C208.792 338.662 209.611 339.949 210.751 340.911C211.891 341.873 213.297 342.465 214.782 342.608L357.892 356.357C359.058 356.469 360.234 356.301 361.322 355.865C362.41 355.429 363.377 354.739 364.144 353.853C364.91 352.966 365.452 351.909 365.726 350.77C366 349.63 365.996 348.442 365.716 347.304L330.898 205.564C330.483 203.879 329.485 202.396 328.08 201.378C326.676 200.359 324.955 199.872 323.225 200.003L183.115 210.482C182.04 210.566 180.996 210.885 180.058 211.419C179.12 211.952 178.311 212.686 177.689 213.568C177.068 214.45 176.648 215.458 176.461 216.521C176.274 217.584 176.324 218.674 176.607 219.716V219.716Z" fill="#9C9CA1"/>
<path d="M460.294 242.645C468.982 242.645 476.025 235.511 476.025 226.71C476.025 217.909 468.982 210.774 460.294 210.774C451.606 210.774 444.563 217.909 444.563 226.71C444.563 235.511 451.606 242.645 460.294 242.645Z" fill="white"/>
<path d="M473.212 197.64C473.212 197.64 476.528 207.5 466.744 211.646L465.493 213.833L471.622 219.879C471.622 219.879 479.177 206.096 478.358 201.201C478.358 201.201 477.189 196.231 473.212 197.64Z" fill="white"/>
<path d="M462.101 242.645C470.479 242.645 477.271 235.854 477.271 227.476C477.271 219.098 470.479 212.306 462.101 212.306C453.723 212.306 446.932 219.098 446.932 227.476C446.932 235.854 453.723 242.645 462.101 242.645Z" fill="#38A169"/>
<path d="M478.434 203.441L476.025 199.465L472.516 198.968C473.265 185.874 469.867 181.974 469.867 181.974L469.078 181.898L465.639 181.564L459.171 174.851V172.945C468.259 174.026 473.282 178.342 475.996 183.401C480.791 192.278 478.434 203.441 478.434 203.441Z" fill="#38A169"/>
<path opacity="0.1" d="M469.107 179.488V181.898L465.668 181.564L459.201 174.851C459.201 174.851 469.206 177.091 469.107 179.488Z" fill="black" stroke="#4C4981" stroke-miterlimit="10"/>
<path opacity="0.1" d="M478.434 203.441L476.025 199.465V183.424C480.791 192.278 478.434 203.441 478.434 203.441Z" fill="black" stroke="#4C4981" stroke-miterlimit="10"/>
<path d="M434.07 233.711C438.106 231.381 437.933 223.524 433.682 216.163C429.432 208.801 422.715 204.722 418.678 207.053C414.642 209.383 414.816 217.24 419.066 224.601C423.317 231.963 430.034 236.042 434.07 233.711Z" fill="white"/>
<path d="M428.651 219.096C432.903 226.458 438.119 231.376 434.084 233.716C430.049 236.055 418.295 234.885 414.043 227.517C409.792 220.148 413.651 209.973 417.686 207.634C421.721 205.295 424.394 211.716 428.651 219.096Z" fill="#38A169"/>
<path opacity="0.1" d="M466.505 166.056C466.505 189.582 450.405 212.254 426.879 212.254C415.581 212.254 404.745 207.765 396.755 199.776C388.766 191.787 384.277 180.951 384.277 169.652C384.277 158.354 388.766 147.518 396.755 139.528C404.745 131.539 415.581 127.051 426.879 127.051C450.405 127.074 466.505 142.524 466.505 166.056Z" fill="black"/>
<path d="M426.879 211.108C450.408 211.108 469.481 192.034 469.481 168.506C469.481 144.978 450.408 125.904 426.879 125.904C403.351 125.904 384.277 144.978 384.277 168.506C384.277 192.034 403.351 211.108 426.879 211.108Z" fill="#AE6E79"/>
<path d="M423.137 149.629C428.207 151.495 431.207 156.734 435.756 159.652C442.189 163.746 450.563 162.687 457.908 160.664C462.002 159.547 466.282 158.185 470.312 159.424C470.904 159.687 471.558 159.78 472.201 159.693C473.078 159.442 473.51 158.471 473.797 157.606C478.779 142.752 476.54 125.928 469.019 112.185C467.078 108.641 464.75 105.215 461.546 102.753C459.019 100.817 456.049 99.5481 453.054 98.4662C447.583 96.5011 441.923 95.1039 436.166 94.2967C435.149 94.1119 434.11 94.0784 433.084 94.1973C431.675 94.4253 430.411 95.1856 429.154 95.8639C423.769 98.7505 417.798 100.372 411.692 100.607C403.505 100.916 394.149 98.9867 387.839 104.238C380.236 110.536 382.131 122.823 377.201 131.372C373.938 137.027 367.646 141.132 366.611 147.571C366.341 149.539 366.467 151.54 366.979 153.459C369.389 163.366 378.979 171.038 389.201 171.219C390.771 171.339 392.343 171.017 393.739 170.29C394.654 169.665 395.462 168.897 396.131 168.015C402.827 160.085 410.488 144.974 423.137 149.629Z" fill="#444053"/>
<path opacity="0.1" d="M473.797 153.296C473.51 154.161 473.078 155.132 472.201 155.383C471.558 155.47 470.904 155.377 470.312 155.114C466.282 153.875 461.978 155.237 457.914 156.354C450.563 158.378 442.172 159.459 435.762 155.343C431.207 152.419 428.213 147.156 423.137 145.319C410.488 140.641 402.827 155.775 396.113 163.705C395.444 164.587 394.637 165.356 393.722 165.98C392.326 166.707 390.754 167.029 389.184 166.91C378.997 166.728 369.4 159.056 366.962 149.15C366.827 148.565 366.71 147.98 366.623 147.395C366.623 147.448 366.623 147.495 366.593 147.547C366.324 149.515 366.449 151.517 366.962 153.436C369.371 163.342 378.967 171.015 389.184 171.196C390.754 171.316 392.326 170.994 393.722 170.266C394.637 169.642 395.444 168.874 396.113 167.991C402.827 160.062 410.488 144.951 423.137 149.606C428.213 151.471 431.207 156.711 435.762 159.629C442.195 163.723 450.563 162.664 457.914 160.641C462.008 159.524 466.282 158.161 470.312 159.401C470.904 159.663 471.558 159.756 472.201 159.67C473.078 159.418 473.51 158.448 473.797 157.582C475.807 151.505 476.694 145.112 476.417 138.717C476.245 143.677 475.362 148.586 473.797 153.296V153.296Z" fill="black"/>
</g>
<defs>
<clipPath id="clip0">
<rect width="669" height="361" fill="white"/>
</clipPath>
</defs>
</svg>
