<svg width="228" height="237" viewBox="0 0 228 237" fill="none" xmlns="http://www.w3.org/2000/svg">
<path d="M227.694 118.558C227.732 143.516 220.072 167.834 205.83 187.964C204.207 190.264 202.507 192.512 200.722 194.679C195.681 200.835 190.043 206.439 183.897 211.402C183.282 211.898 182.659 212.393 182.027 212.88C179.721 214.667 177.35 216.363 174.913 217.968C174.17 218.455 173.427 218.932 172.675 219.392C170.975 220.463 169.245 221.484 167.482 222.454C166.62 222.932 165.749 223.401 164.877 223.852C146.976 233.105 127.034 237.3 107.067 236.012C87.0996 234.724 67.8141 227.999 51.1587 216.517C50.2705 215.915 49.3993 215.296 48.5367 214.659C46.9141 213.473 45.3169 212.234 43.7625 210.96C42.3276 209.792 40.927 208.58 39.5519 207.341C32.3127 200.819 25.8989 193.375 20.4636 185.185C19.4045 183.584 18.3797 181.956 17.389 180.301C8.17633 164.812 2.55552 147.321 0.96807 129.201C-0.619384 111.082 1.86974 92.8281 8.23992 75.8736C14.6101 58.919 24.6879 43.7254 37.6816 31.4863C50.6753 19.2472 66.2311 10.2958 83.1271 5.33533C100.023 0.374874 117.799 -0.459581 135.059 2.8975C152.319 6.25459 168.592 13.7118 182.601 24.6834C196.61 35.6549 207.973 49.842 215.797 66.1303C223.621 82.4185 227.693 100.364 227.694 118.558Z" fill="#F2F2F2"/>
<path d="M109.825 112.752C126.917 112.752 140.772 98.3977 140.772 80.691C140.772 62.9843 126.917 48.6301 109.825 48.6301C92.7342 48.6301 78.8791 62.9843 78.8791 80.691C78.8791 98.3977 92.7342 112.752 109.825 112.752Z" fill="#A0616A"/>
<path d="M88.5498 96.0536C88.5498 96.0536 98.8652 120.099 84.6815 129.45C70.4977 138.801 107.891 177.541 107.891 177.541L149.153 132.122C149.153 132.122 127.233 117.427 131.101 93.3818L88.5498 96.0536Z" fill="#A0616A"/>
<path d="M183.897 211.403C183.283 211.898 182.659 212.394 182.027 212.88C179.721 214.668 177.35 216.363 174.913 217.968C174.17 218.455 173.427 218.932 172.675 219.392L172.359 217.614L175.331 216.012L183.897 211.403Z" fill="#A0616A"/>
<path d="M172.675 219.393C173.427 218.933 174.17 218.455 174.913 217.968L174.938 217.614L175.331 216.013L191.704 149.492L142.074 125.832L113.053 144.147L87.055 127.539C87.055 127.539 71.7843 128.114 67.9154 132.123C64.8835 135.264 50.0142 142.493 43.6941 145.483C41.9348 146.315 40.8416 146.82 40.8416 146.82C40.8416 146.82 41.8152 177.134 43.7625 210.96C45.3169 212.234 46.914 213.473 48.5367 214.659C49.3993 215.296 50.2704 215.915 51.1586 216.517C67.814 227.999 87.0996 234.724 107.067 236.012C127.034 237.3 146.976 233.105 164.877 223.852L172.675 219.393Z" fill="#38A169"/>
<path d="M51.1587 145.483V216.517C50.2705 215.915 49.3993 215.296 48.5367 214.659C46.914 213.473 45.3168 212.234 43.7624 210.96C42.3276 209.792 40.927 208.58 39.5519 207.341C32.3126 200.82 25.8989 193.375 20.4636 185.185C19.4045 183.584 18.3796 181.956 17.3889 180.301C18.2259 177.452 19.1654 174.305 20.2073 170.86C26.6555 149.492 40.8416 145.483 40.8416 145.483H51.1587Z" fill="#38A169"/>
<path d="M172.675 219.393C173.427 218.932 174.17 218.455 174.913 217.968C177.347 216.366 179.718 214.671 182.027 212.88C182.659 212.394 183.283 211.898 183.897 211.403C190.043 206.439 195.681 200.835 200.723 194.679C202.508 192.512 204.207 190.264 205.83 187.964C200.577 170.957 191.704 149.492 191.704 149.492L173.649 148.156C173.649 148.156 166.321 208.925 164.877 223.852L172.675 219.393Z" fill="#38A169"/>
<path d="M90.8515 43.5823C89.3033 44.9475 87.6875 46.2283 86.0108 47.4195C83.8964 49.2368 81.9434 51.2467 80.1752 53.425L78.1798 55.7394C76.4818 57.709 74.68 59.957 74.7516 62.5967C74.7782 63.5762 75.0687 64.5267 75.1825 65.4995C75.634 69.3584 73.3574 73.5999 75.2315 76.9674C75.7733 77.941 76.6113 78.7023 77.2086 79.6404C77.9686 80.8428 78.3053 82.2798 78.1619 83.7094C80.1758 83.7949 81.8278 81.9252 82.4595 79.9422C83.0911 77.9591 83.0057 75.8169 83.3133 73.7531C83.6209 71.6894 84.4849 69.5042 86.2949 68.5854C90.1569 66.625 94.5917 71.7219 98.7139 70.4518C101.592 69.5649 103.11 65.8684 106.053 65.2486C108.159 64.805 110.186 66.1014 112.144 67.0203C114.102 67.9392 116.741 68.3646 118.125 66.6613C119.041 65.5336 119.139 63.7264 120.355 62.9601C121.812 62.0416 123.636 63.3204 124.739 64.6679C125.842 66.0153 127.06 67.663 128.765 67.614C131.027 67.5489 132.759 64.4286 134.905 65.1689C137.328 66.0044 136.214 70.0211 137.684 72.1842C138.927 74.013 141.529 73.9053 143.668 73.6031C144.029 73.641 144.393 73.5834 144.727 73.4359C145.06 73.2883 145.352 73.0554 145.575 72.7592C145.798 72.463 145.944 72.113 146.001 71.7421C146.058 71.3711 146.023 70.9912 145.9 70.638L145.006 58.3635C145.002 57.5175 144.824 56.6822 144.482 55.9138C143.86 54.7463 142.572 54.155 141.696 53.1779C139.855 51.1235 139.943 47.5218 137.653 46.0278C136.464 45.2521 134.908 45.2754 133.727 44.486C132.213 43.4737 131.725 41.4462 130.665 39.9368C129.148 37.7789 126.497 36.7784 123.934 36.5039C121.372 36.2294 118.785 36.5605 116.21 36.4735C110.974 36.2965 105.739 34.77 100.478 35.6636C95.8876 36.4433 93.9605 40.4785 90.8515 43.5823Z" fill="#2F2E41"/>
</svg>
