<svg width="500" height="300" viewBox="0 0 400 309" fill="none" xmlns="http://www.w3.org/2000/svg">
<path d="M343.745 123.177C326.164 52.8584 265.417 2.09793 194.112 0.0619646C156.416 -1.01439 116.748 11.7025 87.8677 56.2037C36.2403 135.754 91.0403 190.726 129.245 216.848C147.703 229.493 164.335 244.698 178.658 262.022C204.464 293.171 254.11 331.878 313.235 271.23C356.09 227.272 355.456 170.017 343.745 123.177Z" fill="#F2F2F2"/>
<path opacity="0.1" d="M264.559 189.745L300.735 153.059L264.559 116.374L275.588 105.193L322.794 153.059L275.588 200.926L264.559 189.745Z" fill="black"/>
<path opacity="0.1" d="M161.25 155.677H175.956V140.718H161.25V155.677ZM235.074 140.718H220.368V155.677H235.074V140.718ZM190.809 155.677H205.515V140.718H190.809V155.677Z" fill="black"/>
<path opacity="0.1" d="M141.324 189.371L105.11 152.685L141.287 116L130.257 104.818L83.0883 152.685L130.294 200.552L141.324 189.371Z" fill="black"/>
<path d="M400 281.327C400 287.523 310.457 309 200 309C89.543 309 0 287.523 0 281.327C0 275.131 89.543 286.562 200 286.562C310.457 286.562 400 275.131 400 281.327Z" fill="#3F3D56"/>
<path opacity="0.1" d="M400 281.327C400 287.523 310.457 309 200 309C89.543 309 0 287.523 0 281.327C0 275.131 89.543 286.562 200 286.562C310.457 286.562 400 275.131 400 281.327Z" fill="black"/>
<path d="M200 292.546C310.457 292.546 400 287.523 400 281.327C400 275.131 310.457 270.108 200 270.108C89.5431 270.108 0 275.131 0 281.327C0 287.523 89.5431 292.546 200 292.546Z" fill="#3F3D56"/>
<path d="M232.609 227.35C232.609 251.289 247.374 270.66 265.62 270.66Z" fill="#3F3D56"/>
<path d="M265.62 270.66C265.62 246.452 282.097 226.863 302.459 226.863Z" fill="#38A169"/>
<path d="M244.569 229.52C244.569 252.26 253.985 270.66 265.62 270.66Z" fill="#38A169"/>
<path d="M265.62 270.66C265.62 239.728 284.665 214.697 308.2 214.697Z" fill="#3F3D56"/>
<path d="M258.675 270.966C258.675 270.966 263.357 270.819 264.768 269.797C266.179 268.775 271.969 267.555 272.319 269.194C272.669 270.833 279.355 277.345 274.069 277.389C268.784 277.432 261.788 276.551 260.38 275.679C258.972 274.806 258.675 270.966 258.675 270.966Z" fill="#A8A8A8"/>
<path opacity="0.2" d="M274.164 276.818C268.878 276.862 261.883 275.981 260.474 275.108C259.402 274.444 258.975 272.06 258.832 270.96C258.733 270.964 258.675 270.966 258.675 270.966C258.675 270.966 258.972 274.806 260.38 275.679C261.788 276.551 268.784 277.432 274.069 277.389C275.595 277.376 276.122 276.824 276.093 276.006C275.881 276.5 275.299 276.809 274.164 276.818Z" fill="black"/>
<path d="M318.211 143.171C318.211 143.171 306.891 134.43 306.032 137.634C305.173 140.838 314.338 148.121 314.338 148.121L318.211 143.171Z" fill="#FFB9B9"/>
<path opacity="0.1" d="M318.211 143.171C318.211 143.171 306.891 134.43 306.032 137.634C305.173 140.838 314.338 148.121 314.338 148.121L318.211 143.171Z" fill="black"/>
<path d="M355.578 115.494C355.578 115.494 342.118 139.964 341.831 143.46C341.545 146.956 341.545 147.247 340.399 146.956C339.254 146.664 323.502 144.917 322.07 145.499C320.638 146.082 317.774 142.003 317.774 142.003C317.774 142.003 312.333 147.538 313.478 148.704C314.624 149.869 318.061 150.451 318.633 151.908C319.206 153.365 320.065 154.821 322.643 154.53C325.221 154.238 342.69 159.191 344.982 158.317C347.273 157.443 347.846 155.986 348.991 155.986C350.137 155.986 352.428 154.821 352.428 154.53C352.428 154.238 360.447 138.799 360.447 138.799C360.447 138.799 369.898 117.825 355.578 115.494Z" fill="#D0CDE1"/>
<path opacity="0.1" d="M355.578 115.494C355.578 115.494 342.118 139.964 341.831 143.46C341.545 146.956 341.545 147.247 340.399 146.956C339.254 146.664 323.502 144.917 322.07 145.499C320.638 146.082 317.774 142.003 317.774 142.003C317.774 142.003 312.333 147.538 313.478 148.704C314.624 149.869 318.061 150.451 318.633 151.908C319.206 153.365 320.065 154.821 322.643 154.53C325.221 154.238 342.69 159.191 344.982 158.317C347.273 157.443 347.846 155.986 348.991 155.986C350.137 155.986 352.428 154.821 352.428 154.53C352.428 154.238 360.447 138.799 360.447 138.799C360.447 138.799 369.898 117.825 355.578 115.494Z" fill="black"/>
<path d="M336.049 99.3625C335.927 100.909 335.952 102.465 336.123 104.007C336.558 107.354 338.072 110.843 336.641 113.967C336.122 115.101 335.242 116.089 334.763 117.236C333.749 119.666 334.668 122.36 334.53 124.946C334.352 128.286 332.264 131.504 329.087 133.335C334.515 133.506 339.676 130.777 343.092 127.057C346.507 123.337 348.409 118.723 349.835 114.107C350.567 111.94 351.037 109.689 351.234 107.405C351.347 106.093 351.196 104.772 350.789 103.521C350.288 102.3 349.627 101.152 348.825 100.11C347.97 98.8866 347.091 97.6395 345.83 96.7296C344.276 95.6088 341.279 94.4835 339.217 94.6466C336.689 94.8466 336.156 97.5773 336.049 99.3625Z" fill="#2F2E41"/>
<path d="M344.409 108.503C344.409 108.503 347.559 119.864 344.982 123.068C342.404 126.273 360.447 121.612 360.447 121.612C360.447 121.612 351.569 112.581 355.865 106.755L344.409 108.503Z" fill="#FFB9B9"/>
<path opacity="0.1" d="M344.409 108.503C344.409 108.503 347.559 119.864 344.982 123.068C342.404 126.273 360.447 121.612 360.447 121.612C360.447 121.612 351.569 112.581 355.865 106.755L344.409 108.503Z" fill="black"/>
<path d="M264.559 182.639L300.735 145.954L264.559 109.269L275.588 98.0873L322.794 145.954L275.588 193.821L264.559 182.639Z" fill="#38A169"/>
<path d="M334.099 259.984V268.432L338.394 273.676L342.118 271.928L340.972 259.693L334.099 259.984Z" fill="#FFB9B9"/>
<path d="M335.817 267.85C335.817 267.85 334.671 263.771 332.667 266.684C330.662 269.597 328.657 276.006 327.512 276.298C326.366 276.589 318.347 285.619 326.366 285.619C334.385 285.619 336.963 281.832 336.963 281.832C336.963 281.832 344.982 278.628 344.982 278.045C344.982 277.463 343.836 266.684 343.263 266.684C342.69 266.684 342.404 268.723 340.972 268.723C339.54 268.723 335.817 267.85 335.817 267.85Z" fill="#2F2E41"/>
<path d="M353.287 261.441L353.001 269.306L359.874 272.219V260.858L353.287 261.441Z" fill="#FFB9B9"/>
<path d="M360.733 269.306C360.733 269.306 357.01 265.228 355.005 266.102C354.014 266.508 353.056 266.995 352.141 267.558C352.141 267.558 350.996 271.345 350.423 274.55C349.85 277.754 349.564 279.211 348.991 280.376C348.418 281.541 347.845 285.911 353.573 286.493C359.301 287.076 361.02 283.872 361.02 283.872L362.452 276.298C362.452 276.298 361.879 269.306 360.733 269.306Z" fill="#2F2E41"/>
<path d="M337.822 177.543C337.822 177.543 329.516 196.479 330.662 213.666C330.662 213.666 327.798 220.366 329.516 230.853C331.235 241.34 333.526 262.315 333.526 262.315C333.526 262.315 341.258 263.189 341.831 261.732C341.831 261.732 342.404 247.166 342.977 246.584C343.55 246.001 342.69 232.601 341.831 229.979C340.972 227.357 349.85 201.431 349.85 201.431L347.559 169.095L337.822 177.543Z" fill="#2F2E41"/>
<path opacity="0.1" d="M337.822 177.543C337.822 177.543 329.516 196.479 330.662 213.666C330.662 213.666 327.798 220.366 329.516 230.853C331.235 241.34 333.526 262.315 333.526 262.315C333.526 262.315 341.258 263.189 341.831 261.732C341.831 261.732 342.404 247.166 342.977 246.584C343.55 246.001 342.69 232.601 341.831 229.979C340.972 227.357 349.85 201.431 349.85 201.431L347.559 169.095L337.822 177.543Z" fill="black"/>
<path d="M335.531 176.378L340.972 188.322C340.972 188.322 343.55 215.414 344.982 218.909C344.982 218.909 345.554 228.814 348.132 232.018C350.709 235.223 352.714 263.48 352.714 263.48C352.714 263.48 359.874 265.519 360.447 263.48C361.02 261.441 362.738 247.458 362.738 247.458C362.738 247.458 363.311 235.514 360.16 227.649C357.01 219.783 363.884 191.526 363.884 191.526C363.884 191.526 371.043 177.835 360.733 166.765L335.531 176.378Z" fill="#2F2E41"/>
<path d="M350.709 111.999C357.194 111.999 362.452 106.651 362.452 100.055C362.452 93.4585 357.194 88.1111 350.709 88.1111C344.224 88.1111 338.967 93.4585 338.967 100.055C338.967 106.651 344.224 111.999 350.709 111.999Z" fill="#FFB9B9"/>
<path d="M361.592 118.116C361.592 118.116 349.278 118.116 347.559 119.573C347.134 119.984 346.57 120.213 345.984 120.213C345.398 120.213 344.834 119.984 344.409 119.573C344.409 119.573 340.113 119.864 338.967 123.36C337.822 126.855 334.385 131.516 334.385 131.516C334.385 131.516 329.23 135.303 332.094 145.208C334.958 155.112 332.667 171.135 332.667 171.135C332.667 171.135 330.376 174.63 332.667 176.087C334.958 177.543 335.817 178.126 335.531 179.291C335.244 180.456 361.592 169.678 361.592 167.639C361.592 165.6 361.02 163.852 361.592 162.978C362.165 162.104 362.738 160.647 362.165 159.191C361.592 157.734 362.738 157.443 362.452 155.986C362.165 154.53 363.884 143.751 365.029 139.09C366.175 134.429 365.888 118.407 361.592 118.116Z" fill="#D0CDE1"/>
<path d="M318.211 146.667C318.211 146.667 306.891 137.925 306.032 141.13C305.173 144.334 314.338 151.617 314.338 151.617L318.211 146.667Z" fill="#FFB9B9"/>
<path d="M355.578 119.573C355.578 119.573 342.118 144.043 341.831 147.538C341.545 151.034 341.545 151.325 340.399 151.034C339.254 150.743 323.502 148.995 322.07 149.578C320.638 150.16 317.774 146.082 317.774 146.082C317.774 146.082 312.333 151.617 313.478 152.782C314.624 153.947 318.061 154.53 318.633 155.986C319.206 157.443 320.065 158.9 322.643 158.608C325.221 158.317 342.69 163.269 344.982 162.395C347.273 161.521 347.846 160.065 348.991 160.065C350.137 160.065 352.428 158.9 352.428 158.608C352.428 158.317 360.447 142.877 360.447 142.877C360.447 142.877 369.898 121.903 355.578 119.573Z" fill="#D0CDE1"/>
<path d="M344.895 107.686C344.732 106.503 344.137 105.43 343.831 104.276C343.592 103.353 343.539 102.391 343.675 101.446C343.811 100.502 344.134 99.595 344.623 98.7807C346.308 96.0137 349.614 94.7882 351.92 92.5324C351.968 93.6814 352.752 94.6634 353.618 95.4024C354.485 96.1413 355.479 96.7408 356.212 97.616C356.917 98.5393 357.431 99.5981 357.723 100.729C358.175 102.039 358.377 103.424 358.32 104.811C358.287 105.504 358.115 106.183 357.816 106.807C357.517 107.431 357.097 107.986 356.58 108.439C355.721 109.13 354.521 109.524 354.106 110.555C353.943 111.07 353.896 111.615 353.968 112.151C354.165 115.356 354.349 118.618 353.607 121.74C352.865 124.861 351.047 127.877 348.198 129.26C350.539 129.429 352.93 129.594 355.201 128.993C357.473 128.392 359.645 126.878 360.428 124.627C360.814 123.517 360.851 122.282 361.4 121.245C362.789 118.621 366.626 118.501 368.51 116.218C369.264 115.305 369.629 114.128 369.9 112.967C371.491 106.137 370.373 98.8841 367.95 92.3114C367.115 90.0459 366.076 87.7649 364.285 86.1727C362.761 84.8177 360.815 84.0712 358.89 83.4337C356.082 82.5032 353.188 81.7409 350.236 81.6426C348.954 81.566 347.668 81.7187 346.437 82.0938C345.222 82.5402 344.092 83.1954 343.094 84.0306C338.47 87.691 335.321 93.541 335.739 99.4863C335.992 103.084 337.49 106.488 339.415 109.517C340.088 110.576 341.679 112.835 343.158 112.169C344.499 111.565 345.071 108.963 344.895 107.686Z" fill="#2F2E41"/>
<path d="M161.25 148.572H175.956V133.613H161.25V148.572ZM235.074 133.613H220.368V148.572H235.074V133.613ZM190.809 148.572H205.515V133.613H190.809V148.572Z" fill="#38A169"/>
<path d="M75.811 89.0364C82.6449 89.0364 88.1849 84.641 88.1849 79.2191C88.1849 73.7971 82.6449 69.4017 75.811 69.4017C68.9771 69.4017 63.4371 73.7971 63.4371 79.2191C63.4371 84.641 68.9771 89.0364 75.811 89.0364Z" fill="#2F2E41"/>
<path d="M77.9145 146.807C77.9145 146.807 89.051 147.563 91.0308 146.052C93.0106 144.542 101.425 148.066 102.167 150.08C102.91 152.094 90.2884 152.345 88.3086 152.345C86.3288 152.345 76.9246 155.366 76.9246 155.366L77.9145 146.807Z" fill="#A0616A"/>
<path d="M54.9825 264.067C54.9825 264.067 49.7924 277.379 52.5003 278.986C55.2081 280.593 83.6406 279.445 83.6406 279.445C83.6406 279.445 88.3793 276.461 82.9636 274.396C82.9636 274.396 78.4505 274.166 75.517 272.33C72.5835 270.494 69.1987 267.051 69.1987 267.051C69.1987 267.051 68.973 262.001 67.1678 263.149C66.6277 263.511 66.168 263.984 65.8183 264.537C65.4685 265.09 65.2364 265.712 65.1369 266.362L54.9825 264.067Z" fill="#2F2E41"/>
<path opacity="0.1" d="M54.9825 264.067C54.9825 264.067 49.7924 277.379 52.5003 278.986C55.2081 280.593 83.6406 279.445 83.6406 279.445C83.6406 279.445 88.3793 276.461 82.9636 274.396C82.9636 274.396 78.4505 274.166 75.517 272.33C72.5835 270.494 69.1987 267.051 69.1987 267.051C69.1987 267.051 68.973 262.001 67.1678 263.149C66.6277 263.511 66.168 263.984 65.8183 264.537C65.4685 265.09 65.2364 265.712 65.1369 266.362L54.9825 264.067Z" fill="black"/>
<path d="M141.324 182.265L105.11 145.58L141.287 108.895L130.257 97.7133L83.0883 145.58L130.294 193.447L141.324 182.265Z" fill="#38A169"/>
<path d="M46.9799 268.139C46.9799 268.139 41.2879 282.74 44.2576 284.502C47.2273 286.264 78.4094 285.005 78.4094 285.005C78.4094 285.005 83.6065 281.733 77.667 279.467C77.667 279.467 72.7175 279.215 69.5003 277.202C66.2831 275.188 62.5709 271.412 62.5709 271.412C62.5709 271.412 62.3235 265.874 60.3436 267.133C59.7513 267.529 59.2471 268.048 58.8636 268.655C58.48 269.262 58.2255 269.944 58.1163 270.657L46.9799 268.139Z" fill="#2F2E41"/>
<path d="M76.1822 175.504L72.7175 207.222C72.7175 207.222 71.4801 222.325 67.768 225.598C67.768 225.598 67.768 230.38 66.5306 231.891L64.7982 251.777C64.7982 251.777 67.273 259.077 67.0255 260.336C66.778 261.595 68.0154 265.622 67.7679 266.126C67.5205 266.629 55.889 266.126 55.889 266.126L58.3638 225.598L66.0356 169.211L76.1822 175.504Z" fill="#2F2E41"/>
<path opacity="0.1" d="M76.1822 175.504L72.7175 207.222C72.7175 207.222 71.4801 222.325 67.768 225.598C67.768 225.598 67.768 230.38 66.5306 231.891L64.7982 251.777C64.7982 251.777 67.273 259.077 67.0255 260.336C66.778 261.595 68.0154 265.622 67.7679 266.126C67.5205 266.629 55.889 266.126 55.889 266.126L58.3638 225.598L66.0356 169.211L76.1822 175.504Z" fill="black"/>
<path d="M69.9953 174.497C69.9953 174.497 67.273 200.425 66.0356 205.963C65.2576 209.61 64.7612 213.313 64.5508 217.039C64.5508 217.039 64.3033 225.094 62.076 227.36C61.4243 228.016 60.9123 228.802 60.5717 229.668C60.2311 230.534 60.0693 231.462 60.0962 232.394C60.0962 232.394 57.8689 257.819 59.1063 260.839C60.3436 263.86 61.581 266.377 60.3437 268.391C59.1063 270.405 45.495 270.405 45.495 268.895C45.495 267.384 45.495 266.126 44.7526 265.37C44.0102 264.615 44.7526 259.833 44.7526 259.833C44.7526 259.833 41.7829 237.429 44.5051 230.884C47.2274 224.339 48.4647 206.467 48.4647 206.467C48.4647 206.467 46.4849 186.077 44.0102 182.804C41.5354 179.532 44.5051 167.953 44.5051 167.953L69.9953 174.497Z" fill="#2F2E41"/>
<path d="M63.0278 93.9804C63.3155 94.6471 64.0041 95.0182 64.631 95.3695C68.2645 97.4056 71.3059 100.358 74.3024 103.276C73.5547 100.698 73.714 97.9365 74.7529 95.4658C75.1106 94.623 75.5795 93.7172 75.3238 92.8369C75.1358 92.1896 74.5938 91.7226 74.0689 91.3097C72.8462 90.3478 71.5682 89.461 70.2418 88.6538C69.3152 88.0899 67.4101 86.5888 66.3467 86.7521C66.2909 88.2135 66.2618 89.52 65.6326 90.8859C65.4833 91.2099 63.1378 94.2353 63.0278 93.9804Z" fill="#A0616A"/>
<path d="M75.6873 97.2175C81.2911 97.2175 85.8338 92.5967 85.8338 86.8967C85.8338 81.1967 81.2911 76.5759 75.6873 76.5759C70.0835 76.5759 65.5407 81.1967 65.5407 86.8967C65.5407 92.5967 70.0835 97.2175 75.6873 97.2175Z" fill="#A0616A"/>
<path d="M76.1822 111.314C76.1822 111.314 77.9146 102.504 72.965 99.4829C68.0155 96.4622 62.3235 92.9381 62.3235 92.9381C62.3235 92.9381 60.5911 92.6863 59.8487 96.4622C59.8487 96.4622 45.7425 99.2312 44.2577 112.824C42.7728 126.418 45.2476 146.304 45.2476 146.304C45.2476 146.304 43.0203 163.673 40.298 172.987C40.298 172.987 38.0707 175.001 47.9698 171.98C57.8689 168.959 75.1923 180.539 75.1923 180.539C75.1923 180.539 76.9246 178.777 76.9246 177.518C76.9246 176.259 78.9045 168.959 78.9045 168.959C78.9045 168.959 80.6368 137.997 81.3792 134.473C82.1217 130.949 78.4095 111.817 76.1822 111.314Z" fill="#575A89"/>
<path d="M73.296 87.9599C73.9055 87.6162 74.5891 87.4311 75.2859 87.4208C75.9836 87.4102 76.6648 87.2037 77.2544 86.8242C78.2129 86.0757 78.2832 84.6293 78.9844 83.6283C79.9995 82.1791 82.0246 82.0046 83.7726 82.0772C84.8417 82.1215 85.993 82.1864 86.8933 81.5983C87.8176 80.9945 88.2365 79.8568 88.5481 78.7854C88.9166 77.5184 89.155 75.9689 88.2418 75.0293C87.6076 74.3768 86.6067 74.2477 85.9022 73.6746C85.1718 73.0805 84.8712 72.1135 84.4742 71.2521C84.0224 70.2026 83.3077 69.2921 82.4016 68.6115C81.0727 67.6723 79.3753 67.4617 77.7572 67.4793C76.1391 67.4969 74.5142 67.7133 72.9082 67.5113C71.5924 67.3458 70.2805 66.9006 68.9689 67.098C67.2977 67.3494 65.915 68.6319 65.0915 70.1324C64.2681 71.6328 63.9147 73.3455 63.5721 75.0282L62.6402 79.6048C62.3512 81.0243 62.061 82.4815 62.2841 83.9132C62.7466 86.8811 65.3271 89.2403 65.5049 92.2398C65.6743 91.4115 66.0433 90.639 66.5786 89.9915C67.114 89.344 67.799 88.8418 68.5721 88.5299C68.766 88.4335 68.9862 88.4063 69.1971 88.4528C69.4534 88.5361 69.6033 88.7967 69.7651 89.0154C70.189 89.5887 71.5207 90.4584 72.2756 90.0518C72.951 89.6879 72.4468 88.5457 73.296 87.9599Z" fill="#2F2E41"/>
<path d="M47.7223 134.976C47.7223 134.976 45.99 146.052 53.1668 145.045C53.1668 145.045 56.879 144.542 57.3739 145.045C57.8689 145.549 76.1822 142.276 78.657 139.507C78.657 139.507 81.6267 138.5 83.1115 140.011C84.5964 141.521 99.4451 143.032 94.9905 138.5C90.5359 133.969 83.6065 132.963 83.6065 132.963L74.2024 133.466C74.2024 133.466 69.2528 134.976 66.2831 133.466C63.3134 131.956 54.8992 132.459 54.8992 132.459L47.7223 134.976Z" fill="#A0616A"/>
<path d="M57.8689 99.9865C57.8689 99.9865 46.7324 101.245 46.7324 117.607V138.501C46.7324 138.501 52.9193 135.732 54.1567 135.983C55.3941 136.235 60.3437 132.711 60.3437 132.711C60.3437 132.711 66.0356 119.118 65.5407 115.342C65.0457 111.566 65.2932 100.49 57.8689 99.9865Z" fill="#575A89"/>
<path d="M75.6872 85.5122C80.9493 85.5122 85.2151 83.2581 85.2151 80.4776C85.2151 77.6971 80.9493 75.4431 75.6872 75.4431C70.4251 75.4431 66.1594 77.6971 66.1594 80.4776C66.1594 83.2581 70.4251 85.5122 75.6872 85.5122Z" fill="#2F2E41"/>
<path d="M66.7781 89.7916C68.6232 89.7916 70.119 86.016 70.119 81.3587C70.119 76.7014 68.6232 72.9259 66.7781 72.9259C64.9329 72.9259 63.4371 76.7014 63.4371 81.3587C63.4371 86.016 64.9329 89.7916 66.7781 89.7916Z" fill="#2F2E41"/>
</svg>
