<svg width="1440" height="216" viewBox="0 0 1440 216" fill="none" xmlns="http://www.w3.org/2000/svg">
<g clip-path="url(#clip0)">
<rect y="-524" width="1440" height="4960" fill="white"/>
<path d="M6.10352e-05 149.748C437 40.5691 366.499 279.426 686 97.1641C1005.5 -85.098 1197 53.9381 1440.5 9.82101C1684 -34.2961 1440 1433.16 1440 1433.16H6.10352e-05C6.10352e-05 1433.16 -437 258.927 6.10352e-05 149.748Z" fill="#68D391"/>
<path d="M6.10352e-05 149.748C437 40.5689 370.499 312.403 690 130.141C1009.5 -52.1217 1199 124.793 1442.5 80.6758C1686 36.5587 1440 1433.16 1440 1433.16H6.10352e-05C6.10352e-05 1433.16 -437 258.927 6.10352e-05 149.748Z" fill="#48BB78"/>
<path d="M6.10352e-05 149.748C437 40.569 400.5 332.01 720.001 149.748C1039.5 -32.514 1196.5 193.865 1440 149.748C1683.5 105.631 1440 1433.16 1440 1433.16H6.10352e-05C6.10352e-05 1433.16 -437 258.927 6.10352e-05 149.748Z" fill="url(#paint0_linear)"/>
</g>
<defs>
<linearGradient id="paint0_linear" x1="1002" y1="433.168" x2="442.388" y2="1441.2" gradientUnits="userSpaceOnUse">
<stop offset="0.375" stop-color="#51886B" stop-opacity="0.9"/>
<stop offset="1" stop-color="#68D391"/>
</linearGradient>
<clipPath id="clip0">
<rect y="-524" width="1440" height="4960" fill="white"/>
</clipPath>
</defs>
</svg>
